<svg width="28" height="28" viewBox="0 0 28 28" fill="none" xmlns="http://www.w3.org/2000/svg">
<circle cx="14" cy="14" r="14" fill="#5C81FF"/>
<path fill-rule="evenodd" clip-rule="evenodd" d="M21.2017 9.53091L21.2033 9.5325L21.2049 9.5341C21.6122 9.94137 21.6137 10.6 21.2065 11.0089L13.8358 18.4098L13.1835 19.1098C12.9949 19.3123 12.7336 19.4316 12.457 19.4414C12.1804 19.4512 11.9113 19.3508 11.7087 19.1623L6.82306 14.6043C6.62053 14.4155 6.5013 14.154 6.49161 13.8772C6.48191 13.6005 6.58254 13.3313 6.77136 13.1288C6.96017 12.9262 7.22171 12.807 7.49843 12.7973C7.77515 12.7876 8.04439 12.8882 8.24692 13.077L12.369 16.9223L19.7285 9.5341C19.9235 9.3384 20.1882 9.22814 20.4644 9.22754C20.7407 9.22694 21.0059 9.33606 21.2017 9.53091Z" fill="white"/>
</svg>
