<svg width="28" height="28" viewBox="0 0 28 28" fill="none" xmlns="http://www.w3.org/2000/svg">
<circle cx="14" cy="14" r="14" fill="#5C81FF"/>
<path fill-rule="evenodd" clip-rule="evenodd" d="M21.2017 9.52994L21.2033 9.53153L21.2049 9.53312C21.6122 9.94039 21.6137 10.599 21.2065 11.0079L13.8358 18.4088L13.1835 19.1088C12.9949 19.3113 12.7336 19.4306 12.457 19.4404C12.1804 19.4503 11.9113 19.3499 11.7087 19.1613L6.82306 14.6033C6.62053 14.4145 6.5013 14.153 6.49161 13.8763C6.48191 13.5995 6.58254 13.3303 6.77136 13.1278C6.96017 12.9252 7.22171 12.806 7.49843 12.7963C7.77515 12.7866 8.04439 12.8873 8.24692 13.0761L12.369 16.9213L19.7285 9.53312C19.9235 9.33743 20.1882 9.22716 20.4644 9.22656C20.7407 9.22597 21.0059 9.33509 21.2017 9.52994Z" fill="white"/>
</svg>
