<svg width="24" height="24" fill="none" xmlns="http://www.w3.org/2000/svg"><path fill-rule="evenodd" clip-rule="evenodd" d="M21.03 3.53a.75.75 0 00-1.06-1.06l-4.098 4.097A13.883 13.883 0 0011.88 6C5.918 6 2.386 9.472 1.122 11.564a.84.84 0 000 .872c.752 1.245 2.308 2.98 4.702 4.18L2.47 19.97a.75.75 0 101.06 1.06l17.5-17.5zM8.06 14.38l.732-.732a3.5 3.5 0 014.736-4.736l.732-.732a4.5 4.5 0 00-6.2 6.2zm7.133-3.513l-4.445 4.446a3.5 3.5 0 004.445-4.445zM11.88 16.5c-.679 0-1.322-.15-1.9-.42l-1.51 1.512c1.033.257 2.17.408 3.411.408 5.963 0 9.495-3.472 10.759-5.564a.841.841 0 000-.872c-.7-1.16-2.097-2.743-4.219-3.924l-2.46 2.46a4.5 4.5 0 01-4.08 6.4z" fill="#6A6F81"/></svg>