<svg width="304" height="161" viewBox="0 0 304 161" fill="none" xmlns="http://www.w3.org/2000/svg">
<rect x="0.395833" y="0.395833" width="303.208" height="160.208" stroke="#2F2F30" stroke-width="0.791667"/>
<path d="M28.377 23.1542C28.406 23.1542 28.435 23.1659 28.464 23.1891C28.4931 23.2065 28.5076 23.2326 28.5076 23.2675V23.5635C28.5076 23.5926 28.4931 23.6187 28.464 23.6419C28.435 23.6651 28.406 23.6767 28.377 23.6767H20.9749C20.94 23.6767 20.9081 23.6651 20.8791 23.6419C20.8559 23.6187 20.8443 23.5926 20.8443 23.5635V23.2675C20.8443 23.2326 20.8559 23.2065 20.8791 23.1891C20.9081 23.1659 20.94 23.1542 20.9749 23.1542H24.3537V21.3429C24.0692 21.3197 23.779 21.2674 23.4829 21.1862C23.1926 21.1049 22.9255 20.9859 22.6817 20.8291C22.4437 20.6724 22.2492 20.4779 22.0983 20.2457C21.9473 20.0134 21.8718 19.7348 21.8718 19.4097C21.8718 19.0555 21.9589 18.7565 22.1331 18.5127C22.3131 18.2631 22.5395 18.0628 22.8123 17.9118C23.091 17.7609 23.3929 17.6506 23.718 17.5809C24.0489 17.5112 24.3624 17.4764 24.6585 17.4764C24.9604 17.4764 25.2768 17.5112 25.6077 17.5809C25.9386 17.6506 26.2376 17.7609 26.5047 17.9118C26.7775 18.0628 27.001 18.2631 27.1752 18.5127C27.3552 18.7565 27.4452 19.0555 27.4452 19.4097C27.4452 19.7348 27.3697 20.0163 27.2188 20.2544C27.0678 20.4866 26.8733 20.6811 26.6353 20.8378C26.3973 20.9888 26.1302 21.1078 25.8341 21.1949C25.538 21.2761 25.2449 21.3255 24.9546 21.3429V23.1542H28.377ZM24.6585 18.025C24.4553 18.025 24.2289 18.0454 23.9793 18.086C23.7354 18.1266 23.5032 18.1992 23.2826 18.3037C23.0678 18.4082 22.8849 18.5504 22.734 18.7304C22.5888 18.9104 22.5163 19.1397 22.5163 19.4184C22.5163 19.697 22.5888 19.9264 22.734 20.1063C22.8849 20.2863 23.0678 20.4285 23.2826 20.533C23.5032 20.6317 23.7354 20.7014 23.9793 20.742C24.2289 20.7827 24.4553 20.803 24.6585 20.803C24.8559 20.803 25.0765 20.7827 25.3203 20.742C25.57 20.7014 25.8022 20.6317 26.017 20.533C26.2376 20.4285 26.4234 20.2863 26.5743 20.1063C26.7253 19.9264 26.8008 19.697 26.8008 19.4184C26.8008 19.1397 26.7253 18.9104 26.5743 18.7304C26.4234 18.5504 26.2376 18.4082 26.017 18.3037C25.8022 18.1992 25.57 18.1266 25.3203 18.086C25.0765 18.0454 24.8559 18.025 24.6585 18.025ZM36.5665 21.4735C36.5956 21.4735 36.6246 21.4851 36.6536 21.5084C36.6827 21.5258 36.6972 21.5519 36.6972 21.5867V21.8828C36.6972 21.9119 36.6827 21.938 36.6536 21.9612C36.6246 21.9844 36.5956 21.996 36.5665 21.996H29.1645C29.1296 21.996 29.0977 21.9844 29.0687 21.9612C29.0454 21.938 29.0338 21.9119 29.0338 21.8828V21.5867C29.0338 21.5519 29.0454 21.5258 29.0687 21.5084C29.0977 21.4851 29.1296 21.4735 29.1645 21.4735H36.5665ZM35.687 24.7914C35.687 24.8262 35.6725 24.8524 35.6435 24.8698C35.6144 24.8872 35.5854 24.8959 35.5564 24.8959H30.8974C30.6246 24.8959 30.4446 24.8379 30.3575 24.7217C30.2762 24.6114 30.2356 24.4373 30.2356 24.1992V22.8146C30.2356 22.7333 30.2762 22.6927 30.3575 22.6927H30.7145C30.7958 22.6927 30.8365 22.7333 30.8365 22.8146V24.1905C30.8365 24.2718 30.8481 24.3212 30.8713 24.3386C30.9003 24.3618 30.9555 24.3734 31.0367 24.3734H35.5564C35.5854 24.3734 35.6144 24.3821 35.6435 24.3995C35.6725 24.4228 35.687 24.4489 35.687 24.4779V24.7914ZM35.6347 20.5592C35.6347 20.5882 35.6202 20.6143 35.5912 20.6375C35.568 20.655 35.5448 20.6637 35.5215 20.6637H30.9322C30.6594 20.6637 30.4794 20.6143 30.3923 20.5156C30.3111 20.4111 30.2704 20.237 30.2704 19.9931V19.3052C30.2704 19.0555 30.3198 18.8901 30.4185 18.8088C30.523 18.7275 30.7058 18.6869 30.9671 18.6869H34.6681C34.7494 18.6869 34.7987 18.6753 34.8162 18.652C34.8394 18.6288 34.851 18.5737 34.851 18.4866V17.9118C34.851 17.8247 34.8394 17.7696 34.8162 17.7464C34.7987 17.7231 34.7494 17.7115 34.6681 17.7115H30.3923C30.3633 17.7115 30.3343 17.7028 30.3052 17.6854C30.282 17.668 30.2704 17.6448 30.2704 17.6157V17.3022C30.2704 17.2732 30.282 17.25 30.3052 17.2326C30.3343 17.2152 30.3633 17.2065 30.3923 17.2065H34.7639C34.9032 17.2065 35.0165 17.2181 35.1035 17.2413C35.1906 17.2587 35.2603 17.2906 35.3125 17.3371C35.3648 17.3835 35.3996 17.4503 35.417 17.5374C35.4403 17.6186 35.4519 17.7202 35.4519 17.8422V18.5562C35.4519 18.8059 35.3996 18.9713 35.2951 19.0526C35.1964 19.1339 35.0165 19.1745 34.7552 19.1745H31.0455C30.9642 19.1745 30.9119 19.1861 30.8887 19.2094C30.8713 19.2326 30.8626 19.2877 30.8626 19.3748V19.967C30.8626 20.0483 30.8742 20.1034 30.8974 20.1325C30.9206 20.1557 30.9729 20.1673 31.0542 20.1673H35.5128C35.5419 20.1673 35.568 20.176 35.5912 20.1934C35.6202 20.2108 35.6347 20.2341 35.6347 20.2631V20.5592ZM40.6022 18.0599C40.55 18.1295 40.4948 18.1992 40.4368 18.2689C40.3845 18.3385 40.3265 18.4053 40.2626 18.4692C40.4252 18.6317 40.6051 18.7769 40.8025 18.9046C40.9999 19.0323 41.2002 19.1455 41.4034 19.2442C41.7285 19.0468 41.9985 18.8436 42.2133 18.6346C42.4281 18.4256 42.6139 18.1905 42.7706 17.9292C42.7996 17.8828 42.8084 17.8422 42.7967 17.8073C42.7851 17.7667 42.7474 17.7464 42.6835 17.7464H41.1857C41.116 17.7464 41.0812 17.7057 41.0812 17.6245V17.3458C41.0812 17.2761 41.1218 17.2413 41.2031 17.2413H42.9012C43.2264 17.2413 43.4237 17.3051 43.4934 17.4329C43.5689 17.5606 43.5428 17.7348 43.415 17.9554C43.3396 18.0831 43.2612 18.205 43.1799 18.3211C43.1044 18.4372 43.0203 18.5475 42.9274 18.652C43.0261 18.7275 43.1393 18.803 43.267 18.8785C43.4005 18.9481 43.5311 19.0178 43.6589 19.0875C43.7924 19.1513 43.9201 19.2094 44.042 19.2616C44.1698 19.3081 44.2801 19.3458 44.3729 19.3748C44.4136 19.3864 44.4368 19.4097 44.4426 19.4445C44.4542 19.4793 44.4484 19.5171 44.4252 19.5577L44.2772 19.8102C44.2423 19.8741 44.1756 19.8828 44.0769 19.8364C43.9724 19.7957 43.8534 19.7464 43.7198 19.6883C43.5921 19.6245 43.4615 19.5548 43.3279 19.4793C43.1944 19.4039 43.0609 19.3284 42.9274 19.2529C42.7996 19.1716 42.6835 19.0904 42.579 19.0091C42.3758 19.1949 42.1407 19.3719 41.8737 19.5403C41.6124 19.7028 41.2989 19.8741 40.9332 20.0541C40.8577 20.0947 40.7938 20.0802 40.7416 20.0105L40.6022 19.819C40.5732 19.7841 40.5645 19.7493 40.5761 19.7145C40.5935 19.6796 40.6197 19.6535 40.6545 19.6361C40.6951 19.6187 40.7329 19.6012 40.7677 19.5838C40.8025 19.5664 40.8374 19.549 40.8722 19.5316C40.7038 19.4329 40.5355 19.3197 40.3671 19.192C40.1988 19.0642 40.0449 18.9336 39.9056 18.8001C39.3773 19.2355 38.7358 19.5954 37.981 19.8799C37.9346 19.8973 37.8969 19.9089 37.8678 19.9147C37.8446 19.9147 37.8214 19.8944 37.7982 19.8538L37.6675 19.6012C37.6443 19.5606 37.6385 19.5287 37.6501 19.5055C37.6675 19.4764 37.6908 19.4561 37.7198 19.4445C37.9462 19.369 38.1726 19.2732 38.399 19.1571C38.6313 19.0352 38.849 18.9075 39.0522 18.774C39.2554 18.6346 39.4382 18.4924 39.6008 18.3472C39.7633 18.2021 39.8882 18.0599 39.9752 17.9205C40.0043 17.8799 40.013 17.8422 40.0014 17.8073C39.9956 17.7667 39.9607 17.7464 39.8969 17.7464H38.3294C38.2539 17.7464 38.2162 17.7057 38.2162 17.6245V17.3458C38.2162 17.311 38.2278 17.2848 38.251 17.2674C38.28 17.25 38.3119 17.2413 38.3468 17.2413H40.132C40.8345 17.2413 40.9912 17.5141 40.6022 18.0599ZM44.8867 21.4822C44.8867 21.5113 44.8722 21.5374 44.8432 21.5606C44.8142 21.5838 44.7851 21.5955 44.7561 21.5955H37.354C37.3192 21.5955 37.2873 21.5838 37.2582 21.5606C37.235 21.5374 37.2234 21.5113 37.2234 21.4822V21.1775C37.2234 21.1426 37.235 21.1165 37.2582 21.0991C37.2873 21.0817 37.3192 21.073 37.354 21.073H40.8287V20.3415C40.8287 20.2602 40.8693 20.2195 40.9506 20.2195H41.3076C41.3889 20.2195 41.4295 20.2602 41.4295 20.3415V21.073H44.7561C44.7851 21.073 44.8142 21.0846 44.8432 21.1078C44.8722 21.1252 44.8867 21.1513 44.8867 21.1862V21.4822ZM43.6676 25.0178C43.6676 25.0991 43.6269 25.1397 43.5457 25.1397H43.1886C43.1073 25.1397 43.0667 25.0991 43.0667 25.0178V23.1978C43.0667 23.1165 43.0522 23.0672 43.0232 23.0497C42.9999 23.0265 42.9477 23.0149 42.8664 23.0149H38.3816C38.3526 23.0149 38.3236 23.0062 38.2945 22.9888C38.2655 22.9656 38.251 22.9394 38.251 22.9104V22.5969C38.251 22.5621 38.2655 22.536 38.2945 22.5185C38.3236 22.5011 38.3526 22.4924 38.3816 22.4924H43.0057C43.2786 22.4924 43.4557 22.5447 43.537 22.6492C43.624 22.7479 43.6676 22.9162 43.6676 23.1542V25.0178Z" fill="#DADADA"/>
<path d="M142.149 18.9655C142.149 19.1629 142.111 19.3487 142.036 19.5229C141.961 19.697 141.85 19.8538 141.705 19.9931C141.56 20.1325 141.383 20.2486 141.174 20.3415C140.965 20.4343 140.73 20.4924 140.468 20.5156V21.4648C140.916 21.4532 141.345 21.4358 141.757 21.4126C142.17 21.3836 142.541 21.3487 142.872 21.3081C142.924 21.3023 142.956 21.3081 142.968 21.3255C142.985 21.3371 142.997 21.3574 143.003 21.3865L143.037 21.6825C143.043 21.7174 143.037 21.7464 143.02 21.7696C143.008 21.787 142.976 21.7986 142.924 21.8045C142.413 21.8625 141.853 21.9119 141.244 21.9525C140.634 21.9873 140.03 22.0047 139.432 22.0047H137.621C137.586 22.0047 137.554 21.9931 137.525 21.9699C137.502 21.9467 137.49 21.9206 137.49 21.8915V21.5867C137.49 21.5519 137.502 21.5258 137.525 21.5084C137.554 21.491 137.586 21.4822 137.621 21.4822H139.127H139.868V20.5156C139.612 20.4924 139.383 20.4343 139.18 20.3415C138.976 20.2486 138.802 20.1354 138.657 20.0018C138.512 19.8625 138.402 19.7057 138.326 19.5316C138.251 19.3516 138.213 19.1629 138.213 18.9655C138.213 18.7275 138.257 18.5127 138.344 18.3211C138.437 18.1237 138.567 17.9583 138.736 17.8247C138.91 17.6854 139.116 17.578 139.354 17.5025C139.598 17.4271 139.868 17.3893 140.164 17.3893C140.448 17.3893 140.709 17.4271 140.947 17.5025C141.191 17.578 141.4 17.6854 141.574 17.8247C141.754 17.9583 141.894 18.1237 141.992 18.3211C142.097 18.5127 142.149 18.7275 142.149 18.9655ZM141.557 18.9568C141.557 18.7885 141.519 18.6433 141.444 18.5214C141.368 18.3937 141.267 18.2892 141.139 18.2079C141.011 18.1208 140.863 18.057 140.695 18.0163C140.527 17.9757 140.349 17.9554 140.164 17.9554C139.972 17.9554 139.792 17.9757 139.624 18.0163C139.461 18.057 139.319 18.1208 139.197 18.2079C139.075 18.2892 138.979 18.3937 138.91 18.5214C138.84 18.6433 138.805 18.7885 138.805 18.9568C138.805 19.1136 138.837 19.2558 138.901 19.3835C138.971 19.5113 139.066 19.6187 139.188 19.7057C139.31 19.7928 139.453 19.8596 139.615 19.906C139.783 19.9525 139.966 19.9757 140.164 19.9757C140.349 19.9757 140.527 19.9525 140.695 19.906C140.863 19.8538 141.011 19.7841 141.139 19.697C141.267 19.6041 141.368 19.4967 141.444 19.3748C141.519 19.2471 141.557 19.1078 141.557 18.9568ZM144.361 24.7914C144.361 24.8262 144.347 24.8524 144.318 24.8698C144.289 24.8872 144.26 24.8959 144.23 24.8959H139.659C139.386 24.8959 139.206 24.8437 139.119 24.7392C139.037 24.6347 138.997 24.4634 138.997 24.2254V22.7972C138.997 22.7159 139.037 22.6753 139.119 22.6753H139.476C139.557 22.6753 139.598 22.7159 139.598 22.7972V24.1905C139.598 24.2718 139.609 24.3212 139.632 24.3386C139.662 24.3618 139.717 24.3734 139.798 24.3734H144.23C144.26 24.3734 144.289 24.3821 144.318 24.3995C144.347 24.4228 144.361 24.4489 144.361 24.4779V24.7914ZM144.091 22.9801C144.091 23.0614 144.051 23.102 143.969 23.102H143.612C143.531 23.102 143.49 23.0614 143.49 22.9801V17.1455C143.49 17.0642 143.531 17.0236 143.612 17.0236H143.969C144.051 17.0236 144.091 17.0642 144.091 17.1455V22.9801ZM148.911 18.0599C148.858 18.1295 148.803 18.1992 148.745 18.2689C148.693 18.3385 148.635 18.4053 148.571 18.4692C148.734 18.6317 148.913 18.7769 149.111 18.9046C149.308 19.0323 149.509 19.1455 149.712 19.2442C150.037 19.0468 150.307 18.8436 150.522 18.6346C150.736 18.4256 150.922 18.1905 151.079 17.9292C151.108 17.8828 151.117 17.8422 151.105 17.8073C151.093 17.7667 151.056 17.7464 150.992 17.7464H149.494C149.424 17.7464 149.39 17.7057 149.39 17.6245V17.3458C149.39 17.2761 149.43 17.2413 149.511 17.2413H151.21C151.535 17.2413 151.732 17.3051 151.802 17.4329C151.877 17.5606 151.851 17.7348 151.723 17.9554C151.648 18.0831 151.57 18.205 151.488 18.3211C151.413 18.4372 151.329 18.5475 151.236 18.652C151.334 18.7275 151.448 18.803 151.575 18.8785C151.709 18.9481 151.839 19.0178 151.967 19.0875C152.101 19.1513 152.228 19.2094 152.35 19.2616C152.478 19.3081 152.588 19.3458 152.681 19.3748C152.722 19.3864 152.745 19.4097 152.751 19.4445C152.763 19.4793 152.757 19.5171 152.734 19.5577L152.586 19.8102C152.551 19.8741 152.484 19.8828 152.385 19.8364C152.281 19.7957 152.162 19.7464 152.028 19.6883C151.9 19.6245 151.77 19.5548 151.636 19.4793C151.503 19.4039 151.369 19.3284 151.236 19.2529C151.108 19.1716 150.992 19.0904 150.887 19.0091C150.684 19.1949 150.449 19.3719 150.182 19.5403C149.921 19.7028 149.607 19.8741 149.242 20.0541C149.166 20.0947 149.102 20.0802 149.05 20.0105L148.911 19.819C148.882 19.7841 148.873 19.7493 148.884 19.7145C148.902 19.6796 148.928 19.6535 148.963 19.6361C149.003 19.6187 149.041 19.6012 149.076 19.5838C149.111 19.5664 149.146 19.549 149.181 19.5316C149.012 19.4329 148.844 19.3197 148.675 19.192C148.507 19.0642 148.353 18.9336 148.214 18.8001C147.686 19.2355 147.044 19.5954 146.289 19.8799C146.243 19.8973 146.205 19.9089 146.176 19.9147C146.153 19.9147 146.13 19.8944 146.107 19.8538L145.976 19.6012C145.953 19.5606 145.947 19.5287 145.958 19.5055C145.976 19.4764 145.999 19.4561 146.028 19.4445C146.255 19.369 146.481 19.2732 146.707 19.1571C146.94 19.0352 147.157 18.9075 147.361 18.774C147.564 18.6346 147.747 18.4924 147.909 18.3472C148.072 18.2021 148.197 18.0599 148.284 17.9205C148.313 17.8799 148.321 17.8422 148.31 17.8073C148.304 17.7667 148.269 17.7464 148.205 17.7464H146.638C146.562 17.7464 146.525 17.7057 146.525 17.6245V17.3458C146.525 17.311 146.536 17.2848 146.559 17.2674C146.588 17.25 146.62 17.2413 146.655 17.2413H148.44C149.143 17.2413 149.3 17.5141 148.911 18.0599ZM153.195 21.4822C153.195 21.5113 153.181 21.5374 153.152 21.5606C153.123 21.5838 153.093 21.5955 153.064 21.5955H145.662C145.628 21.5955 145.596 21.5838 145.567 21.5606C145.543 21.5374 145.532 21.5113 145.532 21.4822V21.1775C145.532 21.1426 145.543 21.1165 145.567 21.0991C145.596 21.0817 145.628 21.073 145.662 21.073H149.137V20.3415C149.137 20.2602 149.178 20.2195 149.259 20.2195H149.616C149.697 20.2195 149.738 20.2602 149.738 20.3415V21.073H153.064C153.093 21.073 153.123 21.0846 153.152 21.1078C153.181 21.1252 153.195 21.1513 153.195 21.1862V21.4822ZM151.976 25.0178C151.976 25.0991 151.935 25.1397 151.854 25.1397H151.497C151.416 25.1397 151.375 25.0991 151.375 25.0178V23.1978C151.375 23.1165 151.361 23.0672 151.332 23.0497C151.308 23.0265 151.256 23.0149 151.175 23.0149H146.69C146.661 23.0149 146.632 23.0062 146.603 22.9888C146.574 22.9656 146.559 22.9394 146.559 22.9104V22.5969C146.559 22.5621 146.574 22.536 146.603 22.5185C146.632 22.5011 146.661 22.4924 146.69 22.4924H151.314C151.587 22.4924 151.764 22.5447 151.845 22.6492C151.932 22.7479 151.976 22.9162 151.976 23.1542V25.0178Z" fill="#DADADA"/>
<path d="M225.912 21.7348C225.912 21.9728 225.863 22.1934 225.764 22.3966C225.671 22.5998 225.541 22.7798 225.372 22.9365C225.204 23.0875 225.004 23.2065 224.772 23.2936C224.539 23.3807 224.29 23.4242 224.023 23.4242C223.75 23.4242 223.497 23.3807 223.265 23.2936C223.039 23.2065 222.841 23.0875 222.673 22.9365C222.505 22.7856 222.371 22.6085 222.272 22.4053C222.179 22.1963 222.133 21.9728 222.133 21.7348C222.133 21.491 222.179 21.2674 222.272 21.0642C222.371 20.8552 222.505 20.6753 222.673 20.5243C222.841 20.3734 223.039 20.2544 223.265 20.1673C223.497 20.0802 223.75 20.0367 224.023 20.0367C224.29 20.0367 224.539 20.0831 224.772 20.176C225.004 20.2631 225.204 20.3821 225.372 20.533C225.541 20.684 225.671 20.864 225.764 21.073C225.863 21.282 225.912 21.5026 225.912 21.7348ZM227.497 20.0628V17.1455C227.497 17.0642 227.538 17.0236 227.619 17.0236H227.976C228.058 17.0236 228.098 17.0642 228.098 17.1455V24.9307C228.098 25.012 228.058 25.0527 227.976 25.0527H227.619C227.538 25.0527 227.497 25.012 227.497 24.9307V22.2921H226.261C226.185 22.2921 226.148 22.2573 226.148 22.1876V21.8828C226.148 21.8132 226.185 21.7783 226.261 21.7783H227.497V20.5766H226.174C226.098 20.5766 226.06 20.5417 226.06 20.4721V20.1673C226.06 20.0976 226.098 20.0628 226.174 20.0628H227.497ZM225.32 21.7348C225.32 21.5664 225.288 21.4097 225.224 21.2645C225.161 21.1194 225.071 20.9946 224.954 20.8901C224.838 20.7798 224.699 20.6956 224.536 20.6375C224.38 20.5737 224.208 20.5417 224.023 20.5417C223.837 20.5417 223.663 20.5737 223.5 20.6375C223.343 20.6956 223.207 20.7798 223.091 20.8901C222.975 20.9946 222.882 21.1194 222.812 21.2645C222.748 21.4097 222.716 21.5664 222.716 21.7348C222.716 21.9031 222.748 22.0599 222.812 22.205C222.882 22.3444 222.975 22.4692 223.091 22.5795C223.207 22.684 223.343 22.7682 223.5 22.832C223.663 22.8901 223.837 22.9191 224.023 22.9191C224.208 22.9191 224.38 22.8901 224.536 22.832C224.699 22.7682 224.838 22.684 224.954 22.5795C225.071 22.475 225.161 22.3502 225.224 22.205C225.288 22.0599 225.32 21.9031 225.32 21.7348ZM226.409 19.3052C226.409 19.3806 226.365 19.4184 226.278 19.4184H221.628C221.599 19.4184 221.57 19.4068 221.541 19.3835C221.518 19.3603 221.506 19.3313 221.506 19.2965V19.0178C221.506 18.983 221.518 18.9539 221.541 18.9307C221.57 18.9075 221.599 18.8959 221.628 18.8959H226.278C226.365 18.8959 226.409 18.9336 226.409 19.0091V19.3052ZM225.294 17.8247C225.294 17.906 225.251 17.9467 225.163 17.9467H222.777C222.748 17.9467 222.719 17.938 222.69 17.9205C222.667 17.8973 222.655 17.8683 222.655 17.8335V17.5374C222.655 17.5025 222.667 17.4735 222.69 17.4503C222.714 17.4271 222.74 17.4155 222.769 17.4155H225.163C225.251 17.4155 225.294 17.4561 225.294 17.5374V17.8247ZM236.525 20.3415C236.525 20.6666 236.485 20.9946 236.403 21.3255C236.328 21.6564 236.206 21.9554 236.038 22.2225C235.869 22.4895 235.652 22.7101 235.384 22.8843C235.123 23.0526 234.807 23.1368 234.435 23.1368C234.052 23.1368 233.727 23.0526 233.46 22.8843C233.199 22.7159 232.987 22.4982 232.824 22.2312C232.667 21.9583 232.554 21.6564 232.485 21.3255C232.415 20.9946 232.38 20.6666 232.38 20.3415C232.38 19.9989 232.415 19.6622 232.485 19.3313C232.554 18.9946 232.667 18.6927 232.824 18.4256C232.987 18.1586 233.199 17.9438 233.46 17.7812C233.727 17.6186 234.052 17.5374 234.435 17.5374C234.807 17.5374 235.123 17.6186 235.384 17.7812C235.652 17.9438 235.869 18.1586 236.038 18.4256C236.206 18.6869 236.328 18.9859 236.403 19.3226C236.485 19.6535 236.525 19.9931 236.525 20.3415ZM235.907 20.3327C235.907 20.0715 235.878 19.8073 235.82 19.5403C235.768 19.2732 235.683 19.0323 235.567 18.8175C235.451 18.6027 235.3 18.4285 235.115 18.295C234.929 18.1615 234.702 18.0947 234.435 18.0947C234.157 18.0947 233.924 18.1615 233.739 18.295C233.559 18.4285 233.414 18.6027 233.303 18.8175C233.193 19.0323 233.115 19.2732 233.068 19.5403C233.022 19.8073 232.998 20.0715 232.998 20.3327C232.998 20.5824 233.019 20.8407 233.059 21.1078C233.106 21.3748 233.184 21.6187 233.294 21.8393C233.405 22.0541 233.553 22.2312 233.739 22.3705C233.924 22.5098 234.157 22.5795 234.435 22.5795C234.702 22.5795 234.929 22.5098 235.115 22.3705C235.3 22.2312 235.451 22.0541 235.567 21.8393C235.683 21.6187 235.768 21.3748 235.82 21.1078C235.878 20.8407 235.907 20.5824 235.907 20.3327ZM238.424 24.9307C238.424 25.012 238.383 25.0527 238.302 25.0527H237.945C237.863 25.0527 237.823 25.012 237.823 24.9307V17.1455C237.823 17.0642 237.863 17.0236 237.945 17.0236H238.302C238.383 17.0236 238.424 17.0642 238.424 17.1455V20.3153H239.625C239.66 20.3153 239.689 20.3269 239.713 20.3502C239.742 20.3676 239.756 20.3937 239.756 20.4285V20.7246C239.756 20.7536 239.742 20.7798 239.713 20.803C239.689 20.8262 239.66 20.8378 239.625 20.8378H238.424V24.9307ZM241.275 21.787C241.014 21.7754 240.837 21.7232 240.744 21.6303C240.657 21.5316 240.613 21.3603 240.613 21.1165V19.9844C240.613 19.7406 240.663 19.578 240.761 19.4967C240.866 19.4097 241.049 19.3661 241.31 19.3661H242.921C243.002 19.3661 243.054 19.3545 243.078 19.3313C243.101 19.3081 243.113 19.2529 243.113 19.1658V18.1992C243.113 18.1121 243.101 18.057 243.078 18.0337C243.06 18.0105 243.011 17.9989 242.93 17.9989H240.77C240.741 17.9989 240.712 17.9902 240.683 17.9728C240.66 17.9554 240.648 17.9321 240.648 17.9031V17.5722C240.648 17.5432 240.66 17.52 240.683 17.5025C240.712 17.4851 240.741 17.4764 240.77 17.4764H243.025C243.165 17.4764 243.278 17.488 243.365 17.5112C243.452 17.5287 243.522 17.5606 243.574 17.607C243.626 17.6535 243.661 17.7202 243.679 17.8073C243.702 17.8886 243.713 17.9902 243.713 18.1121V19.2703C243.713 19.5142 243.661 19.6796 243.557 19.7667C243.458 19.848 243.278 19.8886 243.017 19.8886H241.397C241.316 19.8886 241.263 19.9002 241.24 19.9235C241.223 19.9467 241.214 20.0018 241.214 20.0889V21.073C241.214 21.2065 241.278 21.2732 241.406 21.2732C242.387 21.2616 243.29 21.1571 244.114 20.9597C244.201 20.9307 244.253 20.9597 244.271 21.0468L244.323 21.3342C244.335 21.4097 244.297 21.459 244.21 21.4822C243.769 21.5926 243.292 21.6738 242.782 21.7261C242.277 21.7783 241.774 21.7986 241.275 21.787ZM245.525 19.4532H246.631V17.1455C246.631 17.0642 246.671 17.0236 246.753 17.0236H247.084C247.165 17.0236 247.205 17.0642 247.205 17.1455V22.2834C247.205 22.3647 247.165 22.4053 247.084 22.4053H246.753C246.671 22.4053 246.631 22.3647 246.631 22.2834V19.9757H245.525V21.7783C245.525 21.8596 245.484 21.9002 245.403 21.9002H245.072C244.991 21.9002 244.95 21.8596 244.95 21.7783V17.2935C244.95 17.2123 244.991 17.1716 245.072 17.1716H245.403C245.484 17.1716 245.525 17.2123 245.525 17.2935V19.4532ZM244.68 22.2921C244.668 22.3386 244.66 22.3821 244.654 22.4227C244.648 22.4634 244.639 22.5069 244.628 22.5534C244.651 22.6172 244.677 22.6753 244.706 22.7275C244.735 22.7798 244.767 22.832 244.802 22.8843C245.023 23.221 245.359 23.5287 245.812 23.8074C246.265 24.0802 246.814 24.2863 247.458 24.4257C247.533 24.4431 247.554 24.4924 247.519 24.5737L247.388 24.8785C247.359 24.9482 247.304 24.9714 247.223 24.9482C246.544 24.7624 245.957 24.5156 245.464 24.208C244.976 23.9061 244.605 23.5722 244.349 23.2065C244.105 23.6013 243.745 23.9525 243.269 24.2602C242.799 24.5679 242.239 24.8117 241.589 24.9917C241.536 25.0033 241.496 25.0062 241.467 25.0004C241.443 25.0004 241.426 24.983 241.414 24.9482L241.292 24.626C241.258 24.5447 241.281 24.4895 241.362 24.4605C241.78 24.3502 242.155 24.2109 242.486 24.0425C242.822 23.8799 243.107 23.7 243.339 23.5026C243.577 23.3052 243.757 23.0991 243.879 22.8843C244.007 22.6695 244.076 22.4547 244.088 22.2399C244.088 22.1702 244.123 22.1354 244.192 22.1354L244.61 22.1702C244.668 22.1702 244.692 22.2108 244.68 22.2921ZM255.108 22.6405C255.108 22.7217 255.067 22.7624 254.986 22.7624H254.629C254.547 22.7624 254.507 22.7217 254.507 22.6405V20.594H252.783V20.803C252.783 21.0468 252.736 21.2123 252.643 21.2994C252.55 21.3806 252.376 21.4213 252.121 21.4213H249.726C249.587 21.4213 249.473 21.4126 249.386 21.3952C249.305 21.3777 249.238 21.3458 249.186 21.2994C249.14 21.2471 249.108 21.1833 249.09 21.1078C249.073 21.0265 249.064 20.9249 249.064 20.803V18.1121C249.064 17.8683 249.111 17.7057 249.203 17.6245C249.296 17.5374 249.47 17.4938 249.726 17.4938H252.121C252.26 17.4938 252.37 17.5025 252.452 17.52C252.539 17.5374 252.605 17.5693 252.652 17.6157C252.704 17.6622 252.739 17.7261 252.756 17.8073C252.774 17.8886 252.783 17.9902 252.783 18.1121V18.4256H254.507V17.1455C254.507 17.0642 254.547 17.0236 254.629 17.0236H254.986C255.067 17.0236 255.108 17.0642 255.108 17.1455V22.6405ZM249.874 18.0163C249.793 18.0163 249.738 18.0337 249.708 18.0686C249.679 18.0976 249.665 18.1557 249.665 18.2427V20.6724C249.665 20.7595 249.679 20.8204 249.708 20.8552C249.738 20.8843 249.793 20.8988 249.874 20.8988H251.973C252.054 20.8988 252.109 20.8843 252.138 20.8552C252.167 20.8204 252.182 20.7595 252.182 20.6724V18.2427C252.182 18.1557 252.167 18.0976 252.138 18.0686C252.109 18.0337 252.054 18.0163 251.973 18.0163H249.874ZM255.378 24.7914C255.378 24.8262 255.363 24.8524 255.334 24.8698C255.305 24.8872 255.276 24.8959 255.247 24.8959H250.884C250.611 24.8959 250.431 24.8437 250.344 24.7392C250.263 24.6405 250.222 24.4721 250.222 24.2341V22.4663C250.222 22.385 250.263 22.3444 250.344 22.3444H250.701C250.783 22.3444 250.823 22.385 250.823 22.4663V24.1905C250.823 24.2718 250.835 24.3212 250.858 24.3386C250.887 24.3618 250.942 24.3734 251.023 24.3734H255.247C255.276 24.3734 255.305 24.3821 255.334 24.3995C255.363 24.4228 255.378 24.4489 255.378 24.4779V24.7914ZM252.783 20.0802H254.507V18.9394H252.783V20.0802Z" fill="#DADADA"/>
<path d="M230.007 94.5678C230.007 94.8058 229.958 95.0264 229.859 95.2296C229.766 95.4328 229.635 95.6128 229.467 95.7695C229.299 95.9205 229.098 96.0395 228.866 96.1266C228.634 96.2137 228.384 96.2572 228.117 96.2572C227.844 96.2572 227.592 96.2137 227.36 96.1266C227.133 96.0395 226.936 95.9205 226.767 95.7695C226.599 95.6186 226.465 95.4415 226.367 95.2383C226.274 95.0293 226.227 94.8058 226.227 94.5678C226.227 94.324 226.274 94.1004 226.367 93.8973C226.465 93.6883 226.599 93.5083 226.767 93.3573C226.936 93.2064 227.133 93.0874 227.36 93.0003C227.592 92.9132 227.844 92.8697 228.117 92.8697C228.384 92.8697 228.634 92.9161 228.866 93.009C229.098 93.0961 229.299 93.2151 229.467 93.366C229.635 93.517 229.766 93.697 229.859 93.906C229.958 94.115 230.007 94.3356 230.007 94.5678ZM231.592 92.8958V89.9785C231.592 89.8972 231.632 89.8566 231.714 89.8566H232.071C232.152 89.8566 232.193 89.8972 232.193 89.9785V97.7638C232.193 97.845 232.152 97.8857 232.071 97.8857H231.714C231.632 97.8857 231.592 97.845 231.592 97.7638V95.1251H230.355C230.28 95.1251 230.242 95.0903 230.242 95.0206V94.7158C230.242 94.6462 230.28 94.6113 230.355 94.6113H231.592V93.4096H230.268C230.193 93.4096 230.155 93.3748 230.155 93.3051V93.0003C230.155 92.9306 230.193 92.8958 230.268 92.8958H231.592ZM229.415 94.5678C229.415 94.3994 229.383 94.2427 229.319 94.0975C229.255 93.9524 229.165 93.8276 229.049 93.7231C228.933 93.6128 228.794 93.5286 228.631 93.4705C228.474 93.4067 228.303 93.3748 228.117 93.3748C227.931 93.3748 227.757 93.4067 227.595 93.4705C227.438 93.5286 227.301 93.6128 227.185 93.7231C227.069 93.8276 226.976 93.9524 226.907 94.0975C226.843 94.2427 226.811 94.3994 226.811 94.5678C226.811 94.7362 226.843 94.8929 226.907 95.038C226.976 95.1774 227.069 95.3022 227.185 95.4125C227.301 95.517 227.438 95.6012 227.595 95.665C227.757 95.7231 227.931 95.7521 228.117 95.7521C228.303 95.7521 228.474 95.7231 228.631 95.665C228.794 95.6012 228.933 95.517 229.049 95.4125C229.165 95.308 229.255 95.1832 229.319 95.038C229.383 94.8929 229.415 94.7362 229.415 94.5678ZM230.503 92.1382C230.503 92.2136 230.46 92.2514 230.373 92.2514H225.722C225.693 92.2514 225.664 92.2398 225.635 92.2165C225.612 92.1933 225.6 92.1643 225.6 92.1295V91.8508C225.6 91.816 225.612 91.7869 225.635 91.7637C225.664 91.7405 225.693 91.7289 225.722 91.7289H230.373C230.46 91.7289 230.503 91.7666 230.503 91.8421V92.1382ZM229.389 90.6578C229.389 90.739 229.345 90.7797 229.258 90.7797H226.872C226.843 90.7797 226.814 90.771 226.785 90.7535C226.762 90.7303 226.75 90.7013 226.75 90.6665V90.3704C226.75 90.3355 226.762 90.3065 226.785 90.2833C226.808 90.2601 226.834 90.2485 226.863 90.2485H229.258C229.345 90.2485 229.389 90.2891 229.389 90.3704V90.6578ZM242.823 94.3588C242.823 94.4401 242.782 94.4807 242.701 94.4807H242.344C242.263 94.4807 242.222 94.4401 242.222 94.3588V93.3051H240.315C240.123 93.5315 239.885 93.7086 239.601 93.8363C239.316 93.964 239 94.0279 238.652 94.0279C238.367 94.0279 238.1 93.9814 237.85 93.8885C237.601 93.7957 237.383 93.665 237.197 93.4967C237.012 93.3225 236.864 93.1193 236.753 92.8871C236.649 92.6491 236.596 92.3849 236.596 92.0946C236.596 91.7927 236.649 91.5228 236.753 91.2848C236.864 91.0409 237.012 90.8377 237.197 90.6752C237.383 90.5068 237.601 90.3791 237.85 90.292C238.1 90.1991 238.367 90.1527 238.652 90.1527C239.023 90.1527 239.372 90.2339 239.697 90.3965C240.028 90.5591 240.286 90.7942 240.472 91.1019H242.222V89.9785C242.222 89.8972 242.263 89.8566 242.344 89.8566H242.701C242.782 89.8566 242.823 89.8972 242.823 89.9785V94.3588ZM243.345 97.7028C243.345 97.7783 243.302 97.816 243.215 97.816H237.668C237.639 97.816 237.61 97.8044 237.581 97.7812C237.557 97.7579 237.546 97.7289 237.546 97.6941V97.4241C237.546 97.3893 237.557 97.3603 237.581 97.337C237.61 97.3138 237.639 97.3022 237.668 97.3022H238.887V95.456H237.929C237.9 95.456 237.871 95.4444 237.842 95.4212C237.819 95.398 237.807 95.369 237.807 95.3341V95.0642C237.807 95.0293 237.819 95.0003 237.842 94.9771C237.871 94.9539 237.9 94.9423 237.929 94.9423H242.954C243.041 94.9423 243.084 94.98 243.084 95.0555V95.3428C243.084 95.4183 243.041 95.456 242.954 95.456H242.03V97.3022H243.215C243.302 97.3022 243.345 97.3399 243.345 97.4154V97.7028ZM240.132 92.0859C240.132 91.8595 240.091 91.6592 240.01 91.485C239.929 91.3109 239.819 91.1657 239.679 91.0496C239.546 90.9335 239.389 90.8464 239.209 90.7884C239.035 90.7303 238.849 90.7013 238.652 90.7013C238.448 90.7013 238.26 90.7303 238.086 90.7884C237.911 90.8464 237.758 90.9335 237.624 91.0496C237.496 91.1657 237.395 91.3109 237.319 91.485C237.244 91.6592 237.206 91.8595 237.206 92.0859C237.206 92.3007 237.241 92.4952 237.311 92.6694C237.386 92.8377 237.488 92.9829 237.615 93.1048C237.743 93.2267 237.894 93.3196 238.068 93.3835C238.248 93.4473 238.443 93.4793 238.652 93.4793C238.849 93.4793 239.035 93.4473 239.209 93.3835C239.389 93.3196 239.546 93.2267 239.679 93.1048C239.819 92.9829 239.929 92.8377 240.01 92.6694C240.091 92.4952 240.132 92.3007 240.132 92.0859ZM239.479 97.3022H241.438V95.456H239.479V97.3022ZM240.742 92.0946C240.742 92.3501 240.698 92.5823 240.611 92.7913H242.222V91.6157H240.681C240.698 91.6911 240.713 91.7695 240.724 91.8508C240.736 91.9321 240.742 92.0134 240.742 92.0946ZM251.013 95.4735C251.013 95.5547 250.972 95.5954 250.891 95.5954H250.534C250.452 95.5954 250.412 95.5547 250.412 95.4735V93.427H248.687V93.636C248.687 93.8798 248.641 94.0453 248.548 94.1324C248.455 94.2137 248.281 94.2543 248.026 94.2543H245.631C245.491 94.2543 245.378 94.2456 245.291 94.2282C245.21 94.2108 245.143 94.1788 245.091 94.1324C245.044 94.0801 245.012 94.0163 244.995 93.9408C244.978 93.8595 244.969 93.7579 244.969 93.636V90.9451C244.969 90.7013 245.015 90.5387 245.108 90.4575C245.201 90.3704 245.375 90.3268 245.631 90.3268H248.026C248.165 90.3268 248.275 90.3355 248.356 90.353C248.444 90.3704 248.51 90.4023 248.557 90.4488C248.609 90.4952 248.644 90.5591 248.661 90.6403C248.679 90.7216 248.687 90.8232 248.687 90.9451V91.2586H250.412V89.9785C250.412 89.8972 250.452 89.8566 250.534 89.8566H250.891C250.972 89.8566 251.013 89.8972 251.013 89.9785V95.4735ZM245.779 90.8493C245.698 90.8493 245.642 90.8668 245.613 90.9016C245.584 90.9306 245.57 90.9887 245.57 91.0758V93.5054C245.57 93.5925 245.584 93.6534 245.613 93.6883C245.642 93.7173 245.698 93.7318 245.779 93.7318H247.878C247.959 93.7318 248.014 93.7173 248.043 93.6883C248.072 93.6534 248.087 93.5925 248.087 93.5054V91.0758C248.087 90.9887 248.072 90.9306 248.043 90.9016C248.014 90.8668 247.959 90.8493 247.878 90.8493H245.779ZM251.282 97.6244C251.282 97.6593 251.268 97.6854 251.239 97.7028C251.21 97.7202 251.181 97.7289 251.152 97.7289H246.789C246.516 97.7289 246.336 97.6767 246.249 97.5722C246.168 97.4735 246.127 97.3051 246.127 97.0671V95.2993C246.127 95.218 246.168 95.1774 246.249 95.1774H246.606C246.687 95.1774 246.728 95.218 246.728 95.2993V97.0235C246.728 97.1048 246.74 97.1542 246.763 97.1716C246.792 97.1948 246.847 97.2064 246.928 97.2064H251.152C251.181 97.2064 251.21 97.2151 251.239 97.2325C251.268 97.2558 251.282 97.2819 251.282 97.3109V97.6244ZM248.687 92.9132H250.412V91.7724H248.687V92.9132Z" fill="#DADADA"/>
<path d="M198.176 141.904C198.205 141.904 198.234 141.916 198.263 141.939C198.292 141.956 198.307 141.983 198.307 142.017V142.314C198.307 142.343 198.292 142.369 198.263 142.392C198.234 142.415 198.205 142.427 198.176 142.427H190.774C190.739 142.427 190.707 142.415 190.678 142.392C190.655 142.369 190.644 142.343 190.644 142.314V142.017C190.644 141.983 190.655 141.956 190.678 141.939C190.707 141.916 190.739 141.904 190.774 141.904H194.153V140.093C193.869 140.07 193.578 140.017 193.282 139.936C192.992 139.855 192.725 139.736 192.481 139.579C192.243 139.422 192.048 139.228 191.898 138.996C191.747 138.763 191.671 138.485 191.671 138.16C191.671 137.806 191.758 137.507 191.932 137.263C192.112 137.013 192.339 136.813 192.612 136.662C192.89 136.511 193.192 136.401 193.517 136.331C193.848 136.261 194.162 136.226 194.458 136.226C194.76 136.226 195.076 136.261 195.407 136.331C195.738 136.401 196.037 136.511 196.304 136.662C196.577 136.813 196.8 137.013 196.975 137.263C197.154 137.507 197.244 137.806 197.244 138.16C197.244 138.485 197.169 138.766 197.018 139.004C196.867 139.237 196.673 139.431 196.435 139.588C196.197 139.739 195.93 139.858 195.633 139.945C195.337 140.026 195.044 140.075 194.754 140.093V141.904H198.176ZM194.458 136.775C194.255 136.775 194.028 136.795 193.779 136.836C193.535 136.877 193.302 136.949 193.082 137.054C192.867 137.158 192.684 137.3 192.533 137.48C192.388 137.66 192.316 137.89 192.316 138.168C192.316 138.447 192.388 138.676 192.533 138.856C192.684 139.036 192.867 139.179 193.082 139.283C193.302 139.382 193.535 139.451 193.779 139.492C194.028 139.533 194.255 139.553 194.458 139.553C194.655 139.553 194.876 139.533 195.12 139.492C195.369 139.451 195.601 139.382 195.816 139.283C196.037 139.179 196.223 139.036 196.374 138.856C196.525 138.676 196.6 138.447 196.6 138.168C196.6 137.89 196.525 137.66 196.374 137.48C196.223 137.3 196.037 137.158 195.816 137.054C195.601 136.949 195.369 136.877 195.12 136.836C194.876 136.795 194.655 136.775 194.458 136.775ZM206.366 140.224C206.395 140.224 206.424 140.235 206.453 140.258C206.482 140.276 206.496 140.302 206.496 140.337V140.633C206.496 140.662 206.482 140.688 206.453 140.711C206.424 140.734 206.395 140.746 206.366 140.746H198.964C198.929 140.746 198.897 140.734 198.868 140.711C198.845 140.688 198.833 140.662 198.833 140.633V140.337C198.833 140.302 198.845 140.276 198.868 140.258C198.897 140.235 198.929 140.224 198.964 140.224H206.366ZM205.486 143.541C205.486 143.576 205.472 143.602 205.443 143.62C205.414 143.637 205.385 143.646 205.356 143.646H200.697C200.424 143.646 200.244 143.588 200.157 143.472C200.076 143.361 200.035 143.187 200.035 142.949V141.565C200.035 141.483 200.076 141.443 200.157 141.443H200.514C200.595 141.443 200.636 141.483 200.636 141.565V142.941C200.636 143.022 200.647 143.071 200.671 143.089C200.7 143.112 200.755 143.123 200.836 143.123H205.356C205.385 143.123 205.414 143.132 205.443 143.15C205.472 143.173 205.486 143.199 205.486 143.228V143.541ZM205.434 139.309C205.434 139.338 205.42 139.364 205.391 139.388C205.367 139.405 205.344 139.414 205.321 139.414H200.732C200.459 139.414 200.279 139.364 200.192 139.266C200.11 139.161 200.07 138.987 200.07 138.743V138.055C200.07 137.806 200.119 137.64 200.218 137.559C200.322 137.478 200.505 137.437 200.766 137.437H204.467C204.549 137.437 204.598 137.425 204.615 137.402C204.639 137.379 204.65 137.324 204.65 137.237V136.662C204.65 136.575 204.639 136.52 204.615 136.496C204.598 136.473 204.549 136.462 204.467 136.462H200.192C200.163 136.462 200.134 136.453 200.105 136.435C200.081 136.418 200.07 136.395 200.07 136.366V136.052C200.07 136.023 200.081 136 200.105 135.983C200.134 135.965 200.163 135.956 200.192 135.956H204.563C204.703 135.956 204.816 135.968 204.903 135.991C204.99 136.009 205.06 136.041 205.112 136.087C205.164 136.134 205.199 136.2 205.216 136.287C205.24 136.369 205.251 136.47 205.251 136.592V137.306C205.251 137.556 205.199 137.721 205.094 137.803C204.996 137.884 204.816 137.925 204.555 137.925H200.845C200.763 137.925 200.711 137.936 200.688 137.959C200.671 137.983 200.662 138.038 200.662 138.125V138.717C200.662 138.798 200.673 138.853 200.697 138.882C200.72 138.906 200.772 138.917 200.853 138.917H205.312C205.341 138.917 205.367 138.926 205.391 138.943C205.42 138.961 205.434 138.984 205.434 139.013V139.309ZM210.402 136.81C210.349 136.88 210.294 136.949 210.236 137.019C210.184 137.089 210.126 137.155 210.062 137.219C210.224 137.382 210.404 137.527 210.602 137.655C210.799 137.782 211 137.896 211.203 137.994C211.528 137.797 211.798 137.594 212.013 137.385C212.227 137.176 212.413 136.94 212.57 136.679C212.599 136.633 212.608 136.592 212.596 136.557C212.584 136.517 212.547 136.496 212.483 136.496H210.985C210.915 136.496 210.88 136.456 210.88 136.374V136.096C210.88 136.026 210.921 135.991 211.002 135.991H212.701C213.026 135.991 213.223 136.055 213.293 136.183C213.368 136.311 213.342 136.485 213.214 136.705C213.139 136.833 213.06 136.955 212.979 137.071C212.904 137.187 212.82 137.298 212.727 137.402C212.825 137.478 212.939 137.553 213.066 137.628C213.2 137.698 213.33 137.768 213.458 137.837C213.592 137.901 213.719 137.959 213.841 138.012C213.969 138.058 214.079 138.096 214.172 138.125C214.213 138.136 214.236 138.16 214.242 138.194C214.254 138.229 214.248 138.267 214.224 138.308L214.076 138.56C214.042 138.624 213.975 138.633 213.876 138.586C213.772 138.546 213.653 138.496 213.519 138.438C213.391 138.374 213.261 138.305 213.127 138.229C212.994 138.154 212.86 138.078 212.727 138.003C212.599 137.922 212.483 137.84 212.378 137.759C212.175 137.945 211.94 138.122 211.673 138.29C211.412 138.453 211.098 138.624 210.732 138.804C210.657 138.845 210.593 138.83 210.541 138.761L210.402 138.569C210.373 138.534 210.364 138.499 210.375 138.464C210.393 138.43 210.419 138.403 210.454 138.386C210.494 138.369 210.532 138.351 210.567 138.334C210.602 138.316 210.637 138.299 210.671 138.282C210.503 138.183 210.335 138.07 210.166 137.942C209.998 137.814 209.844 137.684 209.705 137.55C209.177 137.985 208.535 138.345 207.78 138.63C207.734 138.647 207.696 138.659 207.667 138.665C207.644 138.665 207.621 138.644 207.597 138.604L207.467 138.351C207.444 138.311 207.438 138.279 207.449 138.255C207.467 138.226 207.49 138.206 207.519 138.194C207.745 138.119 207.972 138.023 208.198 137.907C208.431 137.785 208.648 137.657 208.851 137.524C209.055 137.385 209.238 137.242 209.4 137.097C209.563 136.952 209.687 136.81 209.775 136.671C209.804 136.63 209.812 136.592 209.801 136.557C209.795 136.517 209.76 136.496 209.696 136.496H208.129C208.053 136.496 208.015 136.456 208.015 136.374V136.096C208.015 136.061 208.027 136.035 208.05 136.017C208.079 136 208.111 135.991 208.146 135.991H209.931C210.634 135.991 210.791 136.264 210.402 136.81ZM214.686 140.232C214.686 140.261 214.672 140.287 214.642 140.311C214.613 140.334 214.584 140.345 214.555 140.345H207.153C207.118 140.345 207.087 140.334 207.058 140.311C207.034 140.287 207.023 140.261 207.023 140.232V139.927C207.023 139.893 207.034 139.866 207.058 139.849C207.087 139.832 207.118 139.823 207.153 139.823H210.628V139.091C210.628 139.01 210.669 138.97 210.75 138.97H211.107C211.188 138.97 211.229 139.01 211.229 139.091V139.823H214.555C214.584 139.823 214.613 139.835 214.642 139.858C214.672 139.875 214.686 139.901 214.686 139.936V140.232ZM213.467 143.768C213.467 143.849 213.426 143.89 213.345 143.89H212.988C212.907 143.89 212.866 143.849 212.866 143.768V141.948C212.866 141.867 212.851 141.817 212.822 141.8C212.799 141.777 212.747 141.765 212.666 141.765H208.181C208.152 141.765 208.123 141.756 208.094 141.739C208.065 141.716 208.05 141.689 208.05 141.66V141.347C208.05 141.312 208.065 141.286 208.094 141.269C208.123 141.251 208.152 141.242 208.181 141.242H212.805C213.078 141.242 213.255 141.295 213.336 141.399C213.423 141.498 213.467 141.666 213.467 141.904V143.768Z" fill="#DADADA"/>
<path d="M270.399 137.716C270.399 137.913 270.361 138.099 270.286 138.273C270.211 138.447 270.1 138.604 269.955 138.743C269.81 138.882 269.633 138.999 269.424 139.091C269.215 139.184 268.98 139.242 268.718 139.266V140.215C269.166 140.203 269.595 140.186 270.007 140.163C270.42 140.134 270.791 140.099 271.122 140.058C271.174 140.052 271.206 140.058 271.218 140.075C271.235 140.087 271.247 140.107 271.253 140.136L271.287 140.433C271.293 140.467 271.287 140.496 271.27 140.52C271.258 140.537 271.226 140.549 271.174 140.554C270.663 140.613 270.103 140.662 269.494 140.702C268.884 140.737 268.28 140.755 267.682 140.755H265.871C265.836 140.755 265.804 140.743 265.775 140.72C265.752 140.697 265.74 140.671 265.74 140.642V140.337C265.74 140.302 265.752 140.276 265.775 140.258C265.804 140.241 265.836 140.232 265.871 140.232H267.377H268.118V139.266C267.862 139.242 267.633 139.184 267.43 139.091C267.226 138.999 267.052 138.885 266.907 138.752C266.762 138.612 266.652 138.456 266.576 138.282C266.501 138.102 266.463 137.913 266.463 137.716C266.463 137.478 266.507 137.263 266.594 137.071C266.687 136.874 266.817 136.708 266.986 136.575C267.16 136.435 267.366 136.328 267.604 136.253C267.848 136.177 268.118 136.139 268.414 136.139C268.698 136.139 268.959 136.177 269.197 136.253C269.441 136.328 269.65 136.435 269.824 136.575C270.004 136.708 270.144 136.874 270.242 137.071C270.347 137.263 270.399 137.478 270.399 137.716ZM269.807 137.707C269.807 137.538 269.769 137.393 269.694 137.271C269.618 137.144 269.517 137.039 269.389 136.958C269.261 136.871 269.113 136.807 268.945 136.766C268.777 136.726 268.599 136.705 268.414 136.705C268.222 136.705 268.042 136.726 267.874 136.766C267.711 136.807 267.569 136.871 267.447 136.958C267.325 137.039 267.229 137.144 267.16 137.271C267.09 137.393 267.055 137.538 267.055 137.707C267.055 137.864 267.087 138.006 267.151 138.134C267.221 138.261 267.316 138.369 267.438 138.456C267.56 138.543 267.703 138.61 267.865 138.656C268.033 138.702 268.216 138.726 268.414 138.726C268.599 138.726 268.777 138.702 268.945 138.656C269.113 138.604 269.261 138.534 269.389 138.447C269.517 138.354 269.618 138.247 269.694 138.125C269.769 137.997 269.807 137.858 269.807 137.707ZM272.611 143.541C272.611 143.576 272.597 143.602 272.568 143.62C272.539 143.637 272.51 143.646 272.48 143.646H267.909C267.636 143.646 267.456 143.594 267.369 143.489C267.287 143.385 267.247 143.213 267.247 142.975V141.547C267.247 141.466 267.287 141.425 267.369 141.425H267.726C267.807 141.425 267.848 141.466 267.848 141.547V142.941C267.848 143.022 267.859 143.071 267.882 143.089C267.912 143.112 267.967 143.123 268.048 143.123H272.48C272.51 143.123 272.539 143.132 272.568 143.15C272.597 143.173 272.611 143.199 272.611 143.228V143.541ZM272.341 141.73C272.341 141.811 272.301 141.852 272.219 141.852H271.862C271.781 141.852 271.74 141.811 271.74 141.73V135.895C271.74 135.814 271.781 135.774 271.862 135.774H272.219C272.301 135.774 272.341 135.814 272.341 135.895V141.73ZM277.161 136.81C277.108 136.88 277.053 136.949 276.995 137.019C276.943 137.089 276.885 137.155 276.821 137.219C276.984 137.382 277.163 137.527 277.361 137.655C277.558 137.782 277.759 137.896 277.962 137.994C278.287 137.797 278.557 137.594 278.772 137.385C278.986 137.176 279.172 136.94 279.329 136.679C279.358 136.633 279.367 136.592 279.355 136.557C279.343 136.517 279.306 136.496 279.242 136.496H277.744C277.674 136.496 277.64 136.456 277.64 136.374V136.096C277.64 136.026 277.68 135.991 277.761 135.991H279.46C279.785 135.991 279.982 136.055 280.052 136.183C280.127 136.311 280.101 136.485 279.973 136.705C279.898 136.833 279.82 136.955 279.738 137.071C279.663 137.187 279.579 137.298 279.486 137.402C279.584 137.478 279.698 137.553 279.825 137.628C279.959 137.698 280.089 137.768 280.217 137.837C280.351 137.901 280.478 137.959 280.6 138.012C280.728 138.058 280.838 138.096 280.931 138.125C280.972 138.136 280.995 138.16 281.001 138.194C281.013 138.229 281.007 138.267 280.984 138.308L280.836 138.56C280.801 138.624 280.734 138.633 280.635 138.586C280.531 138.546 280.412 138.496 280.278 138.438C280.15 138.374 280.02 138.305 279.886 138.229C279.753 138.154 279.619 138.078 279.486 138.003C279.358 137.922 279.242 137.84 279.137 137.759C278.934 137.945 278.699 138.122 278.432 138.29C278.171 138.453 277.857 138.624 277.492 138.804C277.416 138.845 277.352 138.83 277.3 138.761L277.161 138.569C277.132 138.534 277.123 138.499 277.134 138.464C277.152 138.43 277.178 138.403 277.213 138.386C277.253 138.369 277.291 138.351 277.326 138.334C277.361 138.316 277.396 138.299 277.431 138.282C277.262 138.183 277.094 138.07 276.925 137.942C276.757 137.814 276.603 137.684 276.464 137.55C275.936 137.985 275.294 138.345 274.539 138.63C274.493 138.647 274.455 138.659 274.426 138.665C274.403 138.665 274.38 138.644 274.357 138.604L274.226 138.351C274.203 138.311 274.197 138.279 274.208 138.255C274.226 138.226 274.249 138.206 274.278 138.194C274.505 138.119 274.731 138.023 274.957 137.907C275.19 137.785 275.407 137.657 275.611 137.524C275.814 137.385 275.997 137.242 276.159 137.097C276.322 136.952 276.447 136.81 276.534 136.671C276.563 136.63 276.571 136.592 276.56 136.557C276.554 136.517 276.519 136.496 276.455 136.496H274.888C274.812 136.496 274.775 136.456 274.775 136.374V136.096C274.775 136.061 274.786 136.035 274.809 136.017C274.838 136 274.87 135.991 274.905 135.991H276.69C277.393 135.991 277.55 136.264 277.161 136.81ZM281.445 140.232C281.445 140.261 281.431 140.287 281.402 140.311C281.373 140.334 281.343 140.345 281.314 140.345H273.912C273.878 140.345 273.846 140.334 273.817 140.311C273.793 140.287 273.782 140.261 273.782 140.232V139.927C273.782 139.893 273.793 139.866 273.817 139.849C273.846 139.832 273.878 139.823 273.912 139.823H277.387V139.091C277.387 139.01 277.428 138.97 277.509 138.97H277.866C277.947 138.97 277.988 139.01 277.988 139.091V139.823H281.314C281.343 139.823 281.373 139.835 281.402 139.858C281.431 139.875 281.445 139.901 281.445 139.936V140.232ZM280.226 143.768C280.226 143.849 280.185 143.89 280.104 143.89H279.747C279.666 143.89 279.625 143.849 279.625 143.768V141.948C279.625 141.867 279.611 141.817 279.582 141.8C279.558 141.777 279.506 141.765 279.425 141.765H274.94C274.911 141.765 274.882 141.756 274.853 141.739C274.824 141.716 274.809 141.689 274.809 141.66V141.347C274.809 141.312 274.824 141.286 274.853 141.269C274.882 141.251 274.911 141.242 274.94 141.242H279.564C279.837 141.242 280.014 141.295 280.095 141.399C280.182 141.498 280.226 141.666 280.226 141.904V143.768Z" fill="#DADADA"/>
<path d="M60.3795 67.7043C60.3795 67.7043 59.4615 67.7891 59.7203 70.7736C59.7203 70.7736 59.7876 72.1349 62.5556 72.2092C62.5556 72.2092 65.1039 73.9772 66.0785 72.5628C66.6423 72.2045 67.109 71.7132 67.4372 71.1323C67.7654 70.5513 67.9451 69.8986 67.9605 69.2318C67.9605 69.2318 65.2456 70.0947 63.8102 67.6937C63.8102 67.6937 60.7942 68.3231 60.3689 65.8372C60.3689 65.8372 59.1674 65.7594 59.0752 68.019C59.0519 68.2969 59.0882 68.5765 59.1817 68.8393C59.2752 69.1021 59.4238 69.342 59.6175 69.543" stroke="#626368" stroke-width="0.791667" stroke-linecap="round" stroke-linejoin="round"/>
<path d="M63.5126 68.6942C63.5126 68.6942 62.9314 68.4432 63.1122 69.4792C63.1122 69.4792 63.2327 70.8159 62.4033 70.3314" stroke="#626368" stroke-width="0.791667" stroke-linecap="round" stroke-linejoin="round"/>
<path d="M67.971 69.4793C67.971 69.4793 69.6686 68.3937 69.743 63.468C69.0995 63.5638 68.442 63.4719 67.8497 63.2033C67.2573 62.9348 66.7554 62.5011 66.4044 61.9546C66.4044 61.9546 63.9767 63.1073 62.3995 59.3521C61.5222 60.1594 60.8745 61.1839 60.5222 62.3216C60.1699 63.4593 60.1255 64.6697 60.3935 65.8301" stroke="#626368" stroke-width="0.791667" stroke-linecap="round" stroke-linejoin="round"/>
<path d="M60.3301 65.5645C60.3301 65.5645 60.8688 64.2137 61.7158 63.7964C61.7158 63.7964 61.9604 62.5234 61.7158 62.0991" stroke="#626368" stroke-width="0.791667" stroke-linecap="round" stroke-linejoin="round"/>
<path d="M65.7243 63.3652C65.7243 63.3652 65.1395 63.9098 64.9765 65.303C64.8594 65.7193 64.8594 66.1597 64.9765 66.576" stroke="#626368" stroke-width="0.791667" stroke-linecap="round" stroke-linejoin="round"/>
<path d="M64.9759 65.3032C64.9759 65.3032 64.3876 65.6002 63.8418 65.8478" stroke="#626368" stroke-width="0.791667" stroke-linecap="round" stroke-linejoin="round"/>
<path d="M69.7296 63.4857C69.7296 63.4857 72.1574 62.0324 71.7959 56.7035C71.7959 56.7035 70.3392 57.3082 68.5778 55.7948C68.5778 55.7948 65.9657 56.3393 66.5115 52.0996C66.5115 52.0996 62.0813 55.7347 62.3861 59.3697" stroke="#626368" stroke-width="0.791667" stroke-linecap="round" stroke-linejoin="round"/>
<path d="M67.0996 57.3682C67.0996 57.3682 67.6667 58.8851 67.3619 59.8434L67.9715 60.9325" stroke="#626368" stroke-width="0.791667" stroke-linecap="round" stroke-linejoin="round"/>
<path d="M69.729 58.0366C69.729 58.0366 66.9362 60.3987 66.0254 60.3386" stroke="#626368" stroke-width="0.791667" stroke-linecap="round" stroke-linejoin="round"/>
<path d="M65.3063 56.4595C65.3063 56.4595 62.2867 59.2282 62.5383 59.7126" stroke="#626368" stroke-width="0.791667" stroke-linecap="round" stroke-linejoin="round"/>
<path d="M66.5107 52.0994C66.5107 52.0994 67.7264 46.2861 69.7288 46.8908C69.7288 46.8908 69.183 49.6171 71.3698 49.8575C71.3698 49.8575 73.4963 51.7352 74.1626 51.4346C74.1626 51.4346 73.0674 56.279 71.7951 56.7033" stroke="#626368" stroke-width="0.791667" stroke-linecap="round" stroke-linejoin="round"/>
<path d="M70.8881 51.1304C70.8881 51.1304 70.6436 53.4925 69.0664 53.4925" stroke="#626368" stroke-width="0.791667" stroke-linecap="round" stroke-linejoin="round"/>
<path d="M71.4306 51.7744C71.4306 51.7744 69.9739 52.7044 70.339 53.493" stroke="#626368" stroke-width="0.791667" stroke-linecap="round" stroke-linejoin="round"/>
<path d="M74.1633 51.4345C74.1633 51.4345 75.9354 49.9847 75.9035 49.373C75.8921 49.3078 75.8982 49.2407 75.9212 49.1786C75.9442 49.1164 75.9834 49.0615 76.0346 49.0194C76.5166 48.6658 77.5657 47.8242 77.3778 47.308C77.3778 47.308 74.9501 48.0364 74.7091 47.308C74.7091 47.308 73.979 42.5838 75.4356 41.4346C75.4356 41.4346 70.0343 44.8256 69.7295 46.8836" stroke="#626368" stroke-width="0.791667" stroke-linecap="round" stroke-linejoin="round"/>
<path d="M75.4355 41.4416C75.4355 41.4416 78.4729 37.018 79.8693 40.0484C79.8693 40.0484 78.0972 44.2917 79.0187 46.1658C78.9083 46.5098 78.6882 46.8083 78.392 47.0158C78.0957 47.2232 77.7395 47.3283 77.3777 47.315" stroke="#626368" stroke-width="0.791667" stroke-linecap="round" stroke-linejoin="round"/>
<path d="M79.8692 40.0482C79.8692 40.0482 82.2969 35.2003 84.0584 40.0482L83.7536 44.7122C83.7536 44.7122 83.0235 46.8905 79.0186 46.1656" stroke="#626368" stroke-width="0.791667" stroke-linecap="round" stroke-linejoin="round"/>
<path d="M84.0584 40.0485C84.0584 40.0485 85.5364 35.7204 88.354 36.8201C88.8601 37.0265 89.2734 37.4099 89.5165 37.8986C89.963 38.7472 90.2466 39.6418 90.4309 41.4346C90.4309 41.4346 90.7357 44.9459 89.7646 44.9459C89.7646 44.9459 86.7379 45.5647 85.1571 45.2995C85.1571 45.2995 84.1258 45.0555 83.7607 44.6949" stroke="#626368" stroke-width="0.791667" stroke-linecap="round" stroke-linejoin="round"/>
<path d="M90.3242 40.5613C90.3242 40.5613 91.3875 36.905 93.4856 36.6009C93.6977 36.5776 93.9124 36.5968 94.1169 36.6576C94.3214 36.7183 94.5117 36.8193 94.6765 36.9545C95.4136 37.5203 96.8809 38.9029 97.1078 41.0281C97.1078 41.0281 97.6961 45.0945 95.7716 45.3951C95.7716 45.3951 91.7667 45.6356 90.9161 44.6066C90.9161 44.6066 90.466 44.2035 90.4624 43.1709" stroke="#626368" stroke-width="0.791667" stroke-linecap="round" stroke-linejoin="round"/>
<path d="M97.0543 40.6391C97.0543 40.6391 98.0184 37.1985 99.8897 38.4113C99.8897 38.4113 102.016 39.6136 102.317 45.4021C102.317 45.4021 102.594 47.0004 99.5246 46.3144C99.5246 46.3144 96.8984 45.7946 97.026 43.8852" stroke="#626368" stroke-width="0.791667" stroke-linecap="round" stroke-linejoin="round"/>
<path d="M101.368 40.5009C101.368 40.5009 102.254 38.298 104.03 40.0483C104.03 40.0483 107.308 43.054 106.578 46.6077C106.578 46.6077 106.514 48.4429 104.331 47.9196C104.331 47.9196 102.205 47.5659 102.027 46.3142" stroke="#626368" stroke-width="0.791667" stroke-linecap="round" stroke-linejoin="round"/>
<path d="M105.692 42.1913C105.692 42.1913 109.193 41.6786 111.214 46.3709C111.287 46.5372 111.328 46.7161 111.334 46.8978C111.377 47.7995 111.334 50.4833 109.371 50.2818C109.058 50.7102 108.656 51.0655 108.192 51.3232C107.728 51.5809 107.214 51.7347 106.684 51.774C106.684 51.774 105.975 51.8235 105.692 49.9812C105.692 49.9812 103.54 48.832 103.753 47.7712" stroke="#626368" stroke-width="0.791667" stroke-linecap="round" stroke-linejoin="round"/>
<path d="M106.943 51.7741C106.943 51.7741 107.163 54.6524 108.581 55.7345C108.581 55.7345 110.222 57.598 111.81 56.5831C111.921 56.5077 112.04 56.4437 112.164 56.3922C112.727 56.1694 114.429 55.4056 114.535 54.3306C114.535 54.3306 114.765 50.9855 113.443 48.7083C113.443 48.7083 112.348 46.8095 111.317 46.6079" stroke="#626368" stroke-width="0.791667" stroke-linecap="round" stroke-linejoin="round"/>
<path d="M114.552 52.0996C115.419 52.599 116.097 53.3695 116.48 54.292C116.652 54.6834 116.864 55.0556 117.115 55.4023C117.473 55.8694 117.788 56.3677 118.057 56.891C118.181 57.1553 118.252 57.4411 118.267 57.7325C118.327 58.5635 118.348 60.6109 117.334 61.6964C117.083 61.9561 116.745 62.1157 116.385 62.1455C115.828 62.2217 115.264 62.2217 114.708 62.1455C114.661 62.1343 114.612 62.1366 114.566 62.1522C114.52 62.1679 114.48 62.1962 114.449 62.2339C114.166 62.5875 113.333 63.468 112.231 63.5034C111.844 63.5052 111.466 63.3876 111.149 63.1667C110.831 62.9458 110.59 62.6323 110.459 62.2693C109.924 60.8549 108.906 57.8351 109.473 56.4631" stroke="#626368" stroke-width="0.791667" stroke-linecap="round" stroke-linejoin="round"/>
<path d="M111.426 63.3651C111.426 63.3651 111.362 69.2031 114.435 69.4683C114.536 69.479 114.638 69.479 114.74 69.4683C115.253 69.4229 115.744 69.2358 116.157 68.9279C116.57 68.6201 116.889 68.2036 117.079 67.7251C117.079 67.7251 120.137 68.1742 120.783 65.8474C120.783 65.8474 122.133 61.6784 118.302 59.1572" stroke="#626368" stroke-width="0.791667" stroke-linecap="round" stroke-linejoin="round"/>
<path d="M113.55 69.2035C113.55 69.2035 114.216 73.4467 117.448 72.5733C117.754 72.4824 118.035 72.324 118.271 72.1101C118.704 71.7146 119.231 71.4359 119.802 71.3004C120.519 71.1648 121.159 70.763 121.592 70.1759C121.95 69.6884 122.132 69.0934 122.105 68.4892C122.074 67.294 121.879 65.0345 120.893 65.3067" stroke="#626368" stroke-width="0.791667" stroke-linecap="round" stroke-linejoin="round"/>
<path d="M69.0625 50.0415C69.0625 50.0415 66.8155 51.9192 66.5107 53.7968" stroke="#626368" stroke-width="0.791667" stroke-linecap="round" stroke-linejoin="round"/>
<path d="M71.8309 45.8618C71.8309 45.8618 69.669 47.6298 69.9738 48.9806" stroke="#626368" stroke-width="0.791667" stroke-linecap="round" stroke-linejoin="round"/>
<path d="M74.1629 47.3188C74.1629 47.3188 73.4328 48.7085 72.2207 48.5883" stroke="#626368" stroke-width="0.791667" stroke-linecap="round" stroke-linejoin="round"/>
<path d="M73.1918 48.5952C73.1574 48.935 73.1574 49.2774 73.1918 49.6171" stroke="#626368" stroke-width="0.791667" stroke-linecap="round" stroke-linejoin="round"/>
<path d="M78.2282 45.8618C78.2282 45.8618 76.1017 47.0287 75.7969 47.6298" stroke="#626368" stroke-width="0.791667" stroke-linecap="round" stroke-linejoin="round"/>
<path d="M103.239 45.8618C103.239 45.8618 105.366 48.5421 106.131 47.6298" stroke="#626368" stroke-width="0.791667" stroke-linecap="round" stroke-linejoin="round"/>
<path d="M106.943 47.6265C106.943 47.6265 108.28 48.7226 108.946 48.5953" stroke="#626368" stroke-width="0.791667" stroke-linecap="round" stroke-linejoin="round"/>
<path d="M109.304 45.8618C109.304 45.8618 111.498 47.7819 111.214 48.6058" stroke="#626368" stroke-width="0.791667" stroke-linecap="round" stroke-linejoin="round"/>
<path d="M108.226 48.4429V49.6168" stroke="#626368" stroke-width="0.791667" stroke-linecap="round" stroke-linejoin="round"/>
<path d="M110.271 51.4946C110.271 51.4946 110.462 53.7365 112.223 53.7966" stroke="#626368" stroke-width="0.791667" stroke-linecap="round" stroke-linejoin="round"/>
<path d="M109.555 52.3115C109.555 52.3115 111.235 52.994 111.238 53.9629" stroke="#626368" stroke-width="0.791667" stroke-linecap="round" stroke-linejoin="round"/>
<path d="M112.224 50.0415C112.224 50.0415 114.028 51.1624 114.492 53.0542" stroke="#626368" stroke-width="0.791667" stroke-linecap="round" stroke-linejoin="round"/>
<path d="M113.798 57.1274C113.798 57.1274 113.015 58.8955 114.227 59.7123C114.585 59.8975 114.931 60.1066 115.262 60.3382" stroke="#626368" stroke-width="0.791667" stroke-linecap="round" stroke-linejoin="round"/>
<path d="M111.799 57.7998C111.799 57.7998 113.17 58.3727 113.521 59.4299C113.586 59.6451 113.59 59.8738 113.534 60.0912C113.478 60.3087 113.363 60.5067 113.202 60.664C113.115 60.7529 113.032 60.8461 112.954 60.9434" stroke="#626368" stroke-width="0.791667" stroke-linecap="round" stroke-linejoin="round"/>
<path d="M115.747 55.9751C115.747 55.9751 118.384 58.0013 118.189 59.7127" stroke="#626368" stroke-width="0.791667" stroke-linecap="round" stroke-linejoin="round"/>
<path d="M115.747 63.3652C115.747 63.3652 115.747 65.9642 117.835 65.8405" stroke="#626368" stroke-width="0.791667" stroke-linecap="round" stroke-linejoin="round"/>
<path d="M116.384 65.2817C116.384 65.2817 116.689 66.5759 116.218 66.5759" stroke="#626368" stroke-width="0.791667" stroke-linecap="round" stroke-linejoin="round"/>
<path d="M119.266 62.0923C119.266 62.0923 119.011 63.3051 120.358 64.6064C120.358 64.6064 120.921 65.2853 120.854 65.5647" stroke="#626368" stroke-width="0.791667" stroke-linecap="round" stroke-linejoin="round"/>
<path d="M117.834 68.4536L118.536 69.9069" stroke="#626368" stroke-width="0.791667" stroke-linecap="round" stroke-linejoin="round"/>
<path d="M121.269 66.5762C121.269 66.5762 122.169 68.613 122.052 69.1787" stroke="#626368" stroke-width="0.791667" stroke-linecap="round" stroke-linejoin="round"/>
<path d="M66.4014 88.0647C66.4014 88.0647 67.7871 88.7472 67.7871 86.8695C67.7871 86.8695 67.7162 75.8441 75.7969 68.4573C75.7969 68.4573 82.4175 62.0358 87.1383 66.5797" stroke="#626368" stroke-width="0.791667" stroke-linecap="round" stroke-linejoin="round"/>
<path d="M114.584 88.6619C114.584 88.6619 114.024 72.7497 104.685 67.1804C104.685 67.1804 97.4728 62.1521 94.7402 66.2716" stroke="#626368" stroke-width="0.791667" stroke-linecap="round" stroke-linejoin="round"/>
<path d="M71.9766 78.5879C71.9766 78.5879 78.0477 67.4847 84.6647 68.4536C84.6647 68.4536 87.9005 68.6693 87.943 72.0886C87.943 72.0886 87.8828 78.991 90.5516 78.991C90.5516 78.991 93.0112 79.3835 93.5464 75.8864C93.6355 75.2689 93.6451 74.6427 93.5747 74.0228C93.4613 72.8984 93.3727 70.3383 94.7408 69.1785C94.7408 69.1785 98.0475 66.2117 103.739 70.8156C103.739 70.8156 109.205 76.0349 109.449 78.5066" stroke="#626368" stroke-width="0.791667" stroke-linecap="round" stroke-linejoin="round"/>
<path d="M70.6611 75.3667C70.6611 75.3667 72.9046 80.1686 73.2661 84.1679" stroke="#626368" stroke-width="0.791667" stroke-linecap="round" stroke-linejoin="round"/>
<path d="M111.427 75.3668C111.427 75.3668 109.006 73.3583 109.555 80.3845C109.034 81.143 108.685 82.0056 108.531 82.9123C108.378 83.819 108.424 84.7483 108.666 85.6355" stroke="#626368" stroke-width="0.791667" stroke-linecap="round" stroke-linejoin="round"/>
<path d="M67.6982 87.6546C67.6982 87.6546 72.0824 82.2621 82.8886 83.7649C82.8886 83.7649 89.3283 84.6171 90.7141 86.4028C90.763 86.4694 90.8337 86.5168 90.914 86.5368C90.9943 86.5569 91.079 86.5482 91.1536 86.5124C92.1353 86.0315 95.5803 84.4792 99.4009 84.3908C99.6206 84.3908 109.594 84.0018 114.226 89.0301" stroke="#626368" stroke-width="0.791667" stroke-linecap="round" stroke-linejoin="round"/>
<path d="M58.3171 88.139C58.3171 88.139 59.7347 84.7833 63.371 87.8667C63.4115 87.9036 63.4609 87.9293 63.5144 87.9411C63.5679 87.9529 63.6236 87.9504 63.6759 87.9339C64.413 87.7076 67.3866 87.0251 67.9714 90.6814C67.9714 90.6814 67.6666 92.7394 66.9967 92.6192C66.9967 92.6192 65.8449 92.0852 64.934 92.6192C64.934 92.6192 60.8689 92.1277 60.2593 93.7649C60.2557 93.7719 56.7399 92.255 58.3171 88.139Z" stroke="#626368" stroke-width="0.791667" stroke-linecap="round" stroke-linejoin="round"/>
<path d="M60.2556 93.7715C60.2556 93.7715 57.9484 97.6612 62.3219 100.674C62.3219 100.674 63.7147 98.7856 65.7172 99.0013C65.882 99.0223 66.0493 98.9914 66.1957 98.9129C66.8478 98.5593 68.7829 97.6506 69.6831 99.1003C69.6831 99.1003 69.9702 96.1088 69.233 95.1718C68.9718 94.8354 68.735 94.4809 68.5242 94.111C68.1897 93.4553 67.6513 92.9256 66.9895 92.6011" stroke="#626368" stroke-width="0.791667" stroke-linecap="round" stroke-linejoin="round"/>
<path d="M62.3255 100.674C62.3255 100.674 62.0738 105.582 64.5654 105.883C64.5654 105.883 65.7243 102.902 67.9713 103.28C67.9713 103.28 70.4522 102.612 71.2461 103.28C71.2801 102.515 71.1596 101.75 70.8917 101.032C70.6238 100.314 70.214 99.6575 69.6867 99.1006" stroke="#626368" stroke-width="0.791667" stroke-linecap="round" stroke-linejoin="round"/>
<path d="M69.4707 112.481C69.4707 112.481 66.4049 112.608 65.8591 110.246C65.8591 110.246 63.0238 107.944 64.5797 105.883" stroke="#626368" stroke-width="0.791667" stroke-linecap="round" stroke-linejoin="round"/>
<path d="M72.5215 106.551C72.5215 106.551 73.4394 106.64 74.5488 107.927C75.1754 108.655 75.6275 109.516 75.8707 110.444C75.9522 110.745 75.9912 110.996 75.9204 111.07" stroke="#626368" stroke-width="0.791667" stroke-linecap="round" stroke-linejoin="round"/>
<path d="M74.3829 117.17C74.8507 117.699 75.3899 118.161 75.9849 118.542C77.9697 119.659 79.4936 119.79 80.1174 117.835C80.4435 116.816 80.0572 115.971 80.0359 114.907C80.0359 114.476 80.3301 113.779 80.2911 113.429C80.1919 112.534 78.0299 110.664 76.9667 110.646C75.3363 110.618 74.8898 112.983 74.7586 114.49C74.709 115.063 74.6381 115.628 74.5424 116.194L74.3829 117.152C72.9263 117.152 71.3491 115.844 71.3491 115.844C69.1234 113.8 69.1234 110.409 70.0945 107.987C71.5512 107.987 72.5223 107.502 72.5223 106.534C72.5223 105.565 72.5223 103.627 71.2464 103.263" stroke="#626368" stroke-width="0.791667" stroke-linecap="round" stroke-linejoin="round"/>
<path d="M80.2236 117.368C80.2236 117.368 81.9532 121.042 83.3638 121.71C83.4841 121.762 83.6137 121.788 83.7448 121.788C83.8758 121.788 84.0054 121.762 84.1257 121.71C84.6538 121.512 85.5434 120.875 85.6745 118.853C85.6745 118.853 85.6745 114.008 84.746 113.687C84.746 113.687 82.6195 111.827 80.291 113.436" stroke="#626368" stroke-width="0.791667" stroke-linecap="round" stroke-linejoin="round"/>
<path d="M85.5004 115.865C85.5004 115.865 85.2168 113.991 86.6062 113.818C86.6062 113.818 90.9371 113.089 90.8131 114.684C90.8131 114.684 91.0258 118.097 90.4587 119.833C90.4587 119.833 89.6896 122.35 88.1479 121.813C86.9873 121.166 86.1047 120.116 85.667 118.864" stroke="#626368" stroke-width="0.791667" stroke-linecap="round" stroke-linejoin="round"/>
<path d="M90.8133 114.684C90.8133 114.684 90.8133 113.644 92.3409 113.623C92.6528 113.623 92.9611 113.623 93.2659 113.591C94.12 113.517 95.8425 113.513 95.8744 114.68C95.8744 114.68 95.7929 119.104 95.1868 119.91C95.1868 119.91 93.9641 122.163 92.7059 121.912C92.5311 121.871 92.3722 121.78 92.2487 121.65C91.3876 120.811 90.8516 119.695 90.7354 118.499" stroke="#626368" stroke-width="0.791667" stroke-linecap="round" stroke-linejoin="round"/>
<path d="M95.8746 114.684C95.8746 114.684 95.8746 113.772 97.8699 113.595C98.2583 113.563 98.6442 113.506 99.0253 113.425C99.7944 113.259 101.077 113.093 101.152 113.857C101.403 115.75 101.049 117.674 100.142 119.355C100.142 119.355 99.0218 121.873 97.3879 121.533C97.0788 121.459 96.8002 121.291 96.5905 121.052C96.1723 120.603 95.4315 119.68 95.5485 118.86" stroke="#626368" stroke-width="0.791667" stroke-linecap="round" stroke-linejoin="round"/>
<path d="M100.875 113.439C101.053 113.052 101.313 112.708 101.637 112.431C101.961 112.155 102.342 111.952 102.753 111.837C102.753 111.837 104.696 109.776 105.709 111.07C105.709 111.07 107.286 114.341 106.315 116.887C106.315 116.887 105.649 119.507 103.898 119.716C103.572 119.748 103.243 119.689 102.948 119.546C102.328 119.263 101.134 118.612 100.875 117.707" stroke="#626368" stroke-width="0.791667" stroke-linecap="round" stroke-linejoin="round"/>
<path d="M105.323 110.748C105.329 110.274 105.435 109.806 105.635 109.375C105.835 108.944 106.123 108.56 106.482 108.249C106.57 108.173 106.651 108.089 106.723 107.997C107 107.644 107.914 106.636 109.204 107.205C109.474 107.335 109.72 107.509 109.934 107.718C110.078 107.844 110.248 107.938 110.431 107.994C110.614 108.05 110.807 108.067 110.997 108.043C110.997 108.043 112.061 107.718 111.806 111.07C111.806 111.07 111.845 113.118 111.065 114.529C110.91 114.802 110.697 115.037 110.441 115.218C109.548 115.876 107.209 117.421 106.518 116.12" stroke="#626368" stroke-width="0.791667" stroke-linecap="round" stroke-linejoin="round"/>
<path d="M108.591 107.042C108.575 106.43 108.705 105.823 108.969 105.27C109.233 104.716 109.625 104.234 110.112 103.86C110.35 103.661 110.627 103.515 110.927 103.432C111.65 103.232 112.418 103.26 113.124 103.513C113.26 103.566 113.408 103.584 113.553 103.567C114.127 103.489 115.821 103.471 116.828 105.724C116.948 105.992 116.987 106.289 116.941 106.579C116.746 107.856 115.974 111.512 113.603 111.48C113.322 111.597 113.021 111.657 112.717 111.657C112.412 111.657 112.111 111.597 111.83 111.48" stroke="#626368" stroke-width="0.791667" stroke-linecap="round" stroke-linejoin="round"/>
<path d="M110.264 103.74C110.264 103.74 109.52 102.074 111.349 99.8996L111.427 99.8077C111.583 99.6273 111.724 99.454 111.855 99.3232C113.103 97.9512 113.273 98.1669 114.443 98.4675C114.812 98.5602 115.189 98.6193 115.57 98.6443C116.243 98.6938 117.732 98.9625 118.497 100.37C118.497 100.37 119.599 102.035 118.703 103.46C118.554 103.7 118.419 103.948 118.299 104.203C118.019 104.793 117.473 105.745 116.853 105.777" stroke="#626368" stroke-width="0.791667" stroke-linecap="round" stroke-linejoin="round"/>
<path d="M111.855 99.3237C111.855 99.3237 111.458 96.7389 112.791 94.84C112.791 94.84 112.752 92.7431 115.389 92.5522C115.534 92.5522 115.679 92.5239 115.821 92.4991C116.704 92.333 120.326 91.8344 121.187 94.6208C121.373 95.2762 121.373 95.9703 121.187 96.6257C120.815 98.0402 119.893 101.113 118.897 101.258" stroke="#626368" stroke-width="0.791667" stroke-linecap="round" stroke-linejoin="round"/>
<path d="M114.173 92.8344C114.173 92.8344 112.667 90.5572 114.464 88.775C114.955 88.3057 115.569 87.9835 116.236 87.845C116.77 87.7198 117.321 87.6875 117.866 87.7496C117.909 87.7565 117.952 87.7541 117.994 87.7425C118.036 87.7309 118.074 87.7103 118.107 87.6824C118.571 87.2757 120.588 85.7375 122.651 87.4702C123.052 87.797 123.357 88.2258 123.533 88.7114C123.863 89.6307 124.118 91.3493 122.704 93.386C122.704 93.386 121.672 94.7792 121.095 94.3867" stroke="#626368" stroke-width="0.791667" stroke-linecap="round" stroke-linejoin="round"/>
<path d="M115.747 88.9062C115.747 88.9062 116.516 88.984 117.002 90.2782C117.002 90.2782 117.356 88.3758 118.519 88.4571" stroke="#626368" stroke-width="0.791667" stroke-linecap="round" stroke-linejoin="round"/>
<path d="M121.371 87.6543C121.371 87.6543 121.573 90.7625 118.741 90.2781" stroke="#626368" stroke-width="0.791667" stroke-linecap="round" stroke-linejoin="round"/>
<path d="M115.098 94.2348C115.098 94.2348 116.189 94.8395 116.189 95.6881C116.189 95.6881 117.253 93.9201 117.727 94.2348" stroke="#626368" stroke-width="0.791667" stroke-linecap="round" stroke-linejoin="round"/>
<path d="M116.189 95.6885C116.189 95.6885 115.987 97.1029 115.098 97.1842" stroke="#626368" stroke-width="0.791667" stroke-linecap="round" stroke-linejoin="round"/>
<path d="M115.098 95.9322C115.098 95.9322 115.721 94.9314 116.14 95.3699" stroke="#626368" stroke-width="0.791667" stroke-linecap="round" stroke-linejoin="round"/>
<path d="M119.752 94.8398C119.752 94.8398 119.33 97.506 117.133 97.5874" stroke="#626368" stroke-width="0.791667" stroke-linecap="round" stroke-linejoin="round"/>
<path d="M113.581 99.4437C113.581 99.4437 114.29 99.4013 114.29 100.246" stroke="#626368" stroke-width="0.791667" stroke-linecap="round" stroke-linejoin="round"/>
<path d="M115.261 99.9282C115.261 99.9282 112.993 100.635 113.237 101.272" stroke="#626368" stroke-width="0.791667" stroke-linecap="round" stroke-linejoin="round"/>
<path d="M117.132 100.6C117.132 100.6 116.232 103.401 115.098 102.754" stroke="#626368" stroke-width="0.791667" stroke-linecap="round" stroke-linejoin="round"/>
<path d="M113.22 105.055C113.22 105.055 111.214 105.617 111.618 107.477" stroke="#626368" stroke-width="0.791667" stroke-linecap="round" stroke-linejoin="round"/>
<path d="M111.855 104.61C111.855 104.61 112.064 106.732 110.792 106.59" stroke="#626368" stroke-width="0.791667" stroke-linecap="round" stroke-linejoin="round"/>
<path d="M115.098 105.055C115.098 105.055 114.496 107.53 113.22 107.842" stroke="#626368" stroke-width="0.791667" stroke-linecap="round" stroke-linejoin="round"/>
<path d="M108.176 108.69C108.176 108.69 108.58 110.105 107.205 110.458" stroke="#626368" stroke-width="0.791667" stroke-linecap="round" stroke-linejoin="round"/>
<path d="M108.021 109.921C108.021 109.921 108.864 109.013 109.311 109.416" stroke="#626368" stroke-width="0.791667" stroke-linecap="round" stroke-linejoin="round"/>
<path d="M110.81 109.578C110.81 109.578 110.03 111.555 108.233 111.396" stroke="#626368" stroke-width="0.791667" stroke-linecap="round" stroke-linejoin="round"/>
<path d="M102.389 113.015C102.389 113.015 103.657 110.642 104.49 110.695" stroke="#626368" stroke-width="0.791667" stroke-linecap="round" stroke-linejoin="round"/>
<path d="M76.9668 110.664C77.7883 111.31 78.4777 112.109 78.9976 113.015" stroke="#626368" stroke-width="0.791667" stroke-linecap="round" stroke-linejoin="round"/>
<path d="M73.291 108.69C73.3107 109.041 73.4057 109.383 73.5696 109.693C73.7335 110.004 73.9624 110.276 74.2408 110.49" stroke="#626368" stroke-width="0.791667" stroke-linecap="round" stroke-linejoin="round"/>
<path d="M73.5068 109.578C73.5068 109.578 72.6278 109.054 72.4932 109.578" stroke="#626368" stroke-width="0.791667" stroke-linecap="round" stroke-linejoin="round"/>
<path d="M70.417 109.461C70.417 109.461 70.5481 111.618 73.0007 111.657" stroke="#626368" stroke-width="0.791667" stroke-linecap="round" stroke-linejoin="round"/>
<path d="M67.9717 104.61C67.9717 104.61 70.1974 106.304 69.7438 107.478" stroke="#626368" stroke-width="0.791667" stroke-linecap="round" stroke-linejoin="round"/>
<path d="M69.2434 104.61C69.2434 104.61 68.3148 105.862 70.4165 106.046" stroke="#626368" stroke-width="0.791667" stroke-linecap="round" stroke-linejoin="round"/>
<path d="M66.21 105.055C66.21 105.055 66.5325 107.396 67.9821 107.842" stroke="#626368" stroke-width="0.791667" stroke-linecap="round" stroke-linejoin="round"/>
<path d="M67.9712 99.1216C67.9712 99.1216 66.2913 99.7899 68.152 101.271" stroke="#626368" stroke-width="0.791667" stroke-linecap="round" stroke-linejoin="round"/>
<path d="M67.3016 100.197C67.3016 100.197 66.412 99.4437 66.21 99.9281" stroke="#626368" stroke-width="0.791667" stroke-linecap="round" stroke-linejoin="round"/>
<path d="M64.0977 100.6C64.0977 100.6 64.9553 102.432 66.0079 102.633" stroke="#626368" stroke-width="0.791667" stroke-linecap="round" stroke-linejoin="round"/>
<path d="M59.9007 87.6543C59.9007 87.6543 59.7412 91.0029 62.9274 90.3594" stroke="#626368" stroke-width="0.791667" stroke-linecap="round" stroke-linejoin="round"/>
<path d="M65.7247 89.0476C65.7247 89.0476 64.8245 89.4507 65.0513 90.1685C65.2781 90.8863 62.6094 88.457 62.6094 88.457" stroke="#626368" stroke-width="0.791667" stroke-linecap="round" stroke-linejoin="round"/>
<path d="M66.2093 97.1842C66.025 96.1234 63.8418 94.1963 63.8418 94.1963" stroke="#626368" stroke-width="0.791667" stroke-linecap="round" stroke-linejoin="round"/>
<path d="M62.0811 95.2568C62.0811 95.2568 62.1838 97.283 64.165 97.5871" stroke="#626368" stroke-width="0.791667" stroke-linecap="round" stroke-linejoin="round"/>
<path d="M66.2094 94.1963C66.2094 94.1963 66.0393 95.7238 65.3057 95.593" stroke="#626368" stroke-width="0.791667" stroke-linecap="round" stroke-linejoin="round"/>
<path d="M90.884 90.561C90.884 90.561 89.4663 99.7548 90.884 106.265" stroke="#626368" stroke-width="0.791667" stroke-linecap="round" stroke-linejoin="round"/>
<path d="M71.1181 85.2144C71.1181 85.2144 65.4474 87.336 74.0385 102.633C74.0385 102.633 80.2904 113.446 90.8839 113.015C90.8839 113.015 101.272 113.616 108.077 103.277C108.472 102.677 108.805 102.04 109.073 101.374C110.412 98.0573 114.268 87.3042 108.665 85.6351" stroke="#626368" stroke-width="0.791667" stroke-linecap="round" stroke-linejoin="round"/>
<path d="M90.4658 33.6267C90.9076 32.1658 90.9076 30.6073 90.4658 29.1465" stroke="#626368" stroke-width="0.791667" stroke-linecap="round" stroke-linejoin="round"/>
<path d="M87.1519 33.0221C87.1519 33.0221 87.1519 30.1013 85.4472 29.9917C85.4472 29.9917 75.1478 30.0836 69.0412 38.0327C69.0412 38.0327 66.3795 40.7095 69.3673 42.1911" stroke="#626368" stroke-width="0.791667" stroke-linecap="round" stroke-linejoin="round"/>
<path d="M66.7557 44.7725C66.7557 44.7725 66.5112 42.1027 64.8277 43.1529C64.8277 43.1529 56.4953 48.404 55.1592 62.092" stroke="#626368" stroke-width="0.791667" stroke-linecap="round" stroke-linejoin="round"/>
<path d="M93.3125 32.294C93.3125 32.294 94.0213 29.3874 97.7781 31.3852C97.7781 31.3852 109.612 35.6851 111.345 40.0486C111.345 40.0486 111.313 41.2544 109.928 42.103" stroke="#626368" stroke-width="0.791667" stroke-linecap="round" stroke-linejoin="round"/>
<path d="M113.358 44.4086C113.358 44.4086 113.904 41.9864 116.587 44.4086C116.587 44.4086 124.973 51.2721 126.915 63.8286" stroke="#626368" stroke-width="0.791667" stroke-linecap="round" stroke-linejoin="round"/>
<path d="M125.093 69.5532C125.093 69.5532 125.253 78.2696 118.756 75.7767C118.222 75.5667 117.723 75.2756 117.278 74.9139C116.148 74.0051 113.684 72.2583 113.358 72.1487" stroke="#626368" stroke-width="0.791667" stroke-linecap="round" stroke-linejoin="round"/>
<path d="M61.0781 75.3668C61.0781 75.3668 65.239 79.1681 67.9715 72.69C68.5424 71.4673 69.2121 70.293 69.974 69.1787" stroke="#626368" stroke-width="0.791667" stroke-linecap="round" stroke-linejoin="round"/>
<path d="M90.8379 126.657C90.8379 126.657 90.6748 130.547 90.8839 131.021" stroke="#626368" stroke-width="0.791667" stroke-linecap="round" stroke-linejoin="round"/>
<path d="M90.4909 124.719C90.4909 124.719 89.2824 129.316 80.2943 126.657C80.2943 126.657 62.6515 120.239 66.9186 114.667" stroke="#626368" stroke-width="0.791667" stroke-linecap="round" stroke-linejoin="round"/>
<path d="M65.5259 113.284C65.5259 113.284 62.3609 115.607 57.9095 106.597C57.9095 106.597 53.7025 96.0489 53.582 94.4541" stroke="#626368" stroke-width="0.791667" stroke-linecap="round" stroke-linejoin="round"/>
<path d="M56.5369 89.0328C57.3769 85.0347 61.2264 84.6396 63.3701 85.2064C64.978 85.2064 69.3994 87.3322 69.3994 90.7334C69.3994 94.1346 66.5858 96.6855 62.5662 95.8352C58.5467 94.9849 55.733 92.8592 56.5369 89.0328Z" stroke="#2E78C5" stroke-width="0.7"/>
<path d="M92.3125 124.84C92.3125 124.84 92.3586 128.839 99.6808 125.932C99.6808 125.932 116.693 120.087 113.549 115.193" stroke="#626368" stroke-width="0.791667" stroke-linecap="round" stroke-linejoin="round"/>
<path d="M115.619 113.284C115.619 113.284 121.329 121.208 129.828 97.5873C129.828 97.5873 131.408 92.9233 129.828 90.1616" stroke="#626368" stroke-width="0.791667" stroke-linecap="round" stroke-linejoin="round"/>
<path d="M90.8379 46.3394C90.8379 46.3394 91.3624 52.7997 90.884 55.961" stroke="#626368" stroke-width="0.791667" stroke-linecap="round" stroke-linejoin="round"/>
<path d="M91.0469 58.7329V60.3383" stroke="#626368" stroke-width="0.791667" stroke-linecap="round" stroke-linejoin="round"/>
<path d="M91.0512 61.6079C91.0512 61.6079 90.8811 63.627 91.0512 63.8286" stroke="#626368" stroke-width="0.791667" stroke-linecap="round" stroke-linejoin="round"/>
<path d="M80.3154 50.9536C80.3154 50.9536 81.2688 50.8687 82.169 50.8404C83.2563 50.8059 84.3387 50.6805 85.4049 50.4656H85.451C86.3296 50.2734 87.2199 50.1387 88.1162 50.0625" stroke="#626368" stroke-width="0.791667" stroke-linecap="round" stroke-linejoin="round"/>
<path d="M80.8115 54.1823C80.8115 54.1823 81.6338 54.1505 82.4135 54.1823C83.2848 54.2055 84.1565 54.1522 85.0185 54.0232L85.3162 53.9737C86.0894 53.8272 86.8724 53.7385 87.6589 53.7085" stroke="#626368" stroke-width="0.791667" stroke-linecap="round" stroke-linejoin="round"/>
<path d="M93.6523 53.1885C93.6523 53.1885 94.4604 53.3582 95.2118 53.5633C96.0363 53.7929 96.8795 53.9491 97.7317 54.0301L98.0861 54.0583C98.8713 54.1038 99.6521 54.2078 100.422 54.3695" stroke="#626368" stroke-width="0.791667" stroke-linecap="round" stroke-linejoin="round"/>
<path d="M93.4824 49.875C93.4824 49.875 94.4181 50.0872 95.2829 50.3312C96.3264 50.6295 97.3935 50.8389 98.4726 50.957H98.5329C99.4295 51.0395 100.32 51.18 101.198 51.3778" stroke="#626368" stroke-width="0.791667" stroke-linecap="round" stroke-linejoin="round"/>
<path d="M90.4662 20.3028C90.4662 20.3028 70.6188 19.5744 60.3407 33.6266C60.3407 33.6266 52.6215 45.6492 47.766 47.8168C47.766 47.8168 29.0669 55.4689 15.833 46.6075L16.2477 50.7907L19.2319 81.1123L16.3186 113.644C16.3186 113.644 36.4743 107.735 49.9492 121.07C49.9492 121.07 66.6068 140.582 91.0616 139.613C91.0616 139.613 112.125 139.846 126.333 123.821C126.919 123.149 127.572 122.538 128.282 122C132.036 119.213 143.707 112.725 164.805 119.348L158.816 83.5133L166.9 43.7221C166.9 43.7221 135.218 52.6648 123.459 38.9873C123.459 38.9873 108.899 18.365 90.4662 20.3028Z" stroke="#626368" stroke-width="0.791667" stroke-linecap="round" stroke-linejoin="round"/>
<path d="M28.6523 64.9282C28.6523 64.9282 30.7576 69.6595 32.8628 64.9282" stroke="#626368" stroke-width="0.791667" stroke-linecap="round" stroke-linejoin="round"/>
<path d="M143.189 62.916C143.189 62.916 145.295 67.6473 147.396 62.916" stroke="#626368" stroke-width="0.791667" stroke-linecap="round" stroke-linejoin="round"/>
<path d="M53.582 42.8031C56.7044 35.8264 60.642 29.0125 66.2383 23.7084C69.0111 21.0493 72.2033 18.8632 75.687 17.2374C77.8352 16.225 80.2221 15.8249 82.584 16.0811C84.6467 16.2933 87.0107 17.591 89.0521 17.0217C89.0521 17.0217 97.3313 14.9708 100.393 16.2579C100.393 16.2579 110.789 19.4934 115.609 27.0853C115.609 27.0853 122.119 37.0605 125.072 40.6355" stroke="#626368" stroke-width="0.791667" stroke-linecap="round" stroke-linejoin="round"/>
<path d="M48.4922 119.741C48.4922 119.741 61.8502 135.936 68.8853 139.656C68.8853 139.656 78.9969 145.388 89.8846 145.314C89.8846 145.314 103.331 145.314 112.39 138.772C112.39 138.772 121.208 134.048 127.765 125.688C127.765 125.688 130.976 120.922 133.559 119.065" stroke="#626368" stroke-width="0.791667" stroke-linecap="round" stroke-linejoin="round"/>
<path d="M74.9643 86.3852C74.9587 86.5112 74.9162 86.6327 74.842 86.7347C74.7679 86.8368 74.6653 86.9149 74.547 86.9593C74.4288 87.0037 74.3001 87.0124 74.1769 86.9845C74.0537 86.9566 73.9414 86.8932 73.854 86.8021C73.7666 86.7111 73.708 86.5965 73.6853 86.4725C73.6626 86.3484 73.6769 86.2205 73.7265 86.1046C73.776 85.9886 73.8586 85.8897 73.964 85.8202C74.0694 85.7506 74.1929 85.7135 74.3192 85.7134C74.4058 85.7152 74.4912 85.7341 74.5704 85.7688C74.6497 85.8036 74.7214 85.8536 74.7813 85.916C74.8412 85.9784 74.8881 86.0519 74.9195 86.1324C74.9509 86.213 74.9661 86.2989 74.9643 86.3852Z" stroke="#626368" stroke-width="0.791667"/>
<path d="M80.1274 85.416C80.1218 85.5419 80.0793 85.6635 80.0051 85.7655C79.931 85.8676 79.8284 85.9456 79.7101 85.99C79.5919 86.0344 79.4632 86.0432 79.34 86.0153C79.2168 85.9873 79.1045 85.9239 79.0171 85.8329C78.9297 85.7419 78.871 85.6272 78.8484 85.5032C78.8257 85.3792 78.84 85.2513 78.8896 85.1353C78.9391 85.0194 79.0217 84.9205 79.1271 84.851C79.2324 84.7814 79.356 84.7443 79.4823 84.7441C79.5689 84.746 79.6542 84.7648 79.7335 84.7996C79.8128 84.8343 79.8844 84.8843 79.9443 84.9467C80.0042 85.0091 80.0512 85.0827 80.0826 85.1632C80.114 85.2437 80.1292 85.3296 80.1274 85.416V85.416Z" stroke="#626368" stroke-width="0.791667"/>
<path d="M85.8305 86.3852C85.8249 86.5113 85.7823 86.633 85.708 86.7351C85.6336 86.8372 85.5309 86.9153 85.4124 86.9596C85.294 87.0039 85.1651 87.0124 85.0418 86.9842C84.9185 86.956 84.8063 86.8922 84.719 86.8009C84.6318 86.7095 84.5734 86.5945 84.5511 86.4703C84.5288 86.346 84.5436 86.218 84.5937 86.1021C84.6438 85.9863 84.7269 85.8876 84.8328 85.8185C84.9386 85.7494 85.0625 85.7128 85.189 85.7134C85.2754 85.7152 85.3606 85.7341 85.4397 85.7689C85.5188 85.8037 85.5901 85.8538 85.6498 85.9162C85.7094 85.9786 85.7561 86.0522 85.7871 86.1327C85.8181 86.2132 85.8328 86.299 85.8305 86.3852V86.3852Z" stroke="#626368" stroke-width="0.791667"/>
<path d="M96.356 87.1664C96.3511 87.2925 96.3092 87.4144 96.2355 87.5169C96.1617 87.6195 96.0593 87.6981 95.9411 87.743C95.8229 87.788 95.6941 87.7972 95.5706 87.7697C95.4472 87.7421 95.3346 87.6789 95.2468 87.588C95.1591 87.4971 95.1 87.3825 95.0771 87.2583C95.0542 87.1342 95.0683 87.0061 95.1178 86.8899C95.1672 86.7738 95.2498 86.6747 95.3553 86.605C95.4608 86.5354 95.5845 86.4981 95.711 86.498C95.8852 86.5018 96.0509 86.5742 96.1717 86.6994C96.2926 86.8246 96.3589 86.9925 96.356 87.1664Z" stroke="#626368" stroke-width="0.791667"/>
<path d="M101.889 86.4979C101.884 86.624 101.842 86.7459 101.769 86.8484C101.695 86.951 101.593 87.0296 101.474 87.0745C101.356 87.1195 101.227 87.1287 101.104 87.1012C100.98 87.0736 100.868 87.0105 100.78 86.9196C100.692 86.8286 100.633 86.714 100.61 86.5899C100.587 86.4657 100.602 86.3377 100.651 86.2215C100.7 86.1053 100.783 86.0063 100.889 85.9366C100.994 85.8669 101.118 85.8297 101.244 85.8296C101.418 85.8333 101.584 85.9057 101.705 86.0309C101.826 86.1562 101.892 86.3241 101.889 86.4979Z" stroke="#626368" stroke-width="0.791667"/>
<path d="M107.343 87.1664C107.338 87.2925 107.297 87.4144 107.223 87.5169C107.149 87.6195 107.047 87.6981 106.928 87.743C106.81 87.788 106.681 87.7972 106.558 87.7697C106.434 87.7421 106.322 87.6789 106.234 87.588C106.146 87.4971 106.087 87.3825 106.064 87.2583C106.041 87.1342 106.056 87.0061 106.105 86.8899C106.155 86.7738 106.237 86.6747 106.343 86.605C106.448 86.5354 106.572 86.4981 106.698 86.498C106.872 86.5018 107.038 86.5742 107.159 86.6994C107.28 86.8246 107.346 86.9925 107.343 87.1664V87.1664Z" stroke="#626368" stroke-width="0.791667"/>
<path d="M234.92 67.8335C234.902 67.8959 234.867 67.9521 234.818 67.9958C234.77 68.0396 234.711 68.0692 234.647 68.0815C234.583 68.0937 234.516 68.0881 234.455 68.0652C234.394 68.0424 234.341 68.0031 234.301 67.9519C234.261 67.9006 234.235 67.8393 234.228 67.7747C234.22 67.71 234.231 67.6446 234.258 67.5856C234.286 67.5266 234.329 67.4762 234.383 67.4401C234.437 67.404 234.501 67.3835 234.566 67.3809C234.672 67.395 234.769 67.4503 234.836 67.535C234.902 67.6196 234.932 67.7268 234.92 67.8335Z" fill="#626368" stroke="#626368" stroke-width="0.791667" stroke-linecap="round" stroke-linejoin="round"/>
<path d="M243.03 67.9647C243.012 68.0275 242.977 68.0842 242.929 68.1285C242.881 68.1729 242.822 68.2031 242.758 68.2158C242.693 68.2285 242.627 68.2233 242.566 68.2007C242.504 68.1781 242.45 68.139 242.41 68.0878C242.369 68.0365 242.344 67.975 242.336 67.9102C242.329 67.8454 242.339 67.7798 242.367 67.7206C242.394 67.6613 242.437 67.6108 242.492 67.5747C242.546 67.5385 242.61 67.5181 242.675 67.5156C242.781 67.5306 242.877 67.5857 242.943 67.6693C243.009 67.7529 243.04 67.8587 243.03 67.9647Z" fill="#626368" stroke="#626368" stroke-width="0.791667" stroke-linecap="round" stroke-linejoin="round"/>
<path d="M212.167 59.7645C212.167 59.7645 216.991 62.5933 222.445 48.2475C222.445 48.2475 227.974 31.5644 238.851 31.667C238.851 31.667 250.749 31.8685 255.895 49.7362C255.895 49.7362 260.077 61.6987 264.901 60.9632" stroke="#626368" stroke-width="0.791667" stroke-linecap="round" stroke-linejoin="round"/>
<path d="M238.476 33.4985L238.469 53.7283" stroke="#626368" stroke-width="0.791667" stroke-linecap="round" stroke-linejoin="round"/>
<path d="M238.599 57.6426C238.599 57.6426 238.801 67.6319 237.621 68.3922" stroke="#626368" stroke-width="0.791667" stroke-linecap="round" stroke-linejoin="round"/>
<path d="M240.322 67.7987C240.322 67.7987 238.333 65.8504 238.475 64.4536" stroke="#626368" stroke-width="0.791667" stroke-linecap="round" stroke-linejoin="round"/>
<path d="M188.417 128.785C188.417 128.785 200.74 120.447 206.542 115.114C206.542 115.114 216.788 103.509 227.371 104.506C227.371 104.506 238.521 105.107 232.265 111.893C231.673 112.528 231.025 113.111 230.33 113.633C228.53 114.998 223.508 119.11 222.179 123.36C222.108 123.587 222.048 123.813 221.97 124.036C221.615 125.061 221.084 127.95 221.392 129.782" stroke="#626368" stroke-width="0.791667" stroke-linecap="round" stroke-linejoin="round"/>
<path d="M229.849 107.554C229.849 107.554 222.789 109.471 220.166 112.445" stroke="#626368" stroke-width="0.791667" stroke-linecap="round" stroke-linejoin="round"/>
<path d="M217.128 115.114C217.128 115.114 217.015 115.418 216.225 115.981" stroke="#626368" stroke-width="0.791667" stroke-linecap="round" stroke-linejoin="round"/>
<path d="M211.295 120.136C211.295 120.136 205.029 124.782 203.055 128.449" stroke="#626368" stroke-width="0.791667" stroke-linecap="round" stroke-linejoin="round"/>
<path d="M288.127 128.785C288.127 128.785 275.804 120.447 270.002 115.114C270.002 115.114 259.756 103.509 249.173 104.506C249.173 104.506 238.023 105.107 244.278 111.893C244.871 112.528 245.519 113.111 246.214 113.633C248.014 114.998 253.036 119.11 254.365 123.36C254.436 123.587 254.496 123.813 254.574 124.036C254.929 125.061 255.46 127.95 255.152 129.782" stroke="#626368" stroke-width="0.791667" stroke-linecap="round" stroke-linejoin="round"/>
<path d="M246.695 107.554C246.695 107.554 253.755 109.471 256.378 112.445" stroke="#626368" stroke-width="0.791667" stroke-linecap="round" stroke-linejoin="round"/>
<path d="M259.416 115.114C259.416 115.114 259.529 115.418 260.319 115.981" stroke="#626368" stroke-width="0.791667" stroke-linecap="round" stroke-linejoin="round"/>
<path d="M265.249 120.136C265.249 120.136 271.515 124.782 273.489 128.449" stroke="#626368" stroke-width="0.791667" stroke-linecap="round" stroke-linejoin="round"/>
</svg>
