<svg width="304" height="161" viewBox="0 0 304 161" fill="none" xmlns="http://www.w3.org/2000/svg">
<rect x="0.395833" y="0.395833" width="303.208" height="160.208" fill="white" stroke="#EDEEF2" stroke-width="0.791667"/>
<path d="M28.377 23.1541C28.406 23.1541 28.435 23.1657 28.464 23.189C28.4931 23.2064 28.5076 23.2325 28.5076 23.2673V23.5634C28.5076 23.5924 28.4931 23.6186 28.464 23.6418C28.435 23.665 28.406 23.6766 28.377 23.6766H20.9749C20.94 23.6766 20.9081 23.665 20.8791 23.6418C20.8559 23.6186 20.8443 23.5924 20.8443 23.5634V23.2673C20.8443 23.2325 20.8559 23.2064 20.8791 23.189C20.9081 23.1657 20.94 23.1541 20.9749 23.1541H24.3537V21.3428C24.0692 21.3196 23.779 21.2673 23.4829 21.186C23.1926 21.1048 22.9255 20.9857 22.6817 20.829C22.4437 20.6722 22.2492 20.4778 22.0983 20.2455C21.9473 20.0133 21.8718 19.7347 21.8718 19.4095C21.8718 19.0554 21.9589 18.7564 22.1331 18.5126C22.3131 18.2629 22.5395 18.0627 22.8123 17.9117C23.091 17.7608 23.3929 17.6505 23.718 17.5808C24.0489 17.5111 24.3624 17.4763 24.6585 17.4763C24.9604 17.4763 25.2768 17.5111 25.6077 17.5808C25.9386 17.6505 26.2376 17.7608 26.5047 17.9117C26.7775 18.0627 27.001 18.2629 27.1752 18.5126C27.3552 18.7564 27.4452 19.0554 27.4452 19.4095C27.4452 19.7347 27.3697 20.0162 27.2188 20.2542C27.0678 20.4865 26.8733 20.681 26.6353 20.8377C26.3973 20.9887 26.1302 21.1077 25.8341 21.1947C25.538 21.276 25.2449 21.3254 24.9546 21.3428V23.1541H28.377ZM24.6585 18.0249C24.4553 18.0249 24.2289 18.0452 23.9793 18.0859C23.7354 18.1265 23.5032 18.1991 23.2826 18.3036C23.0678 18.4081 22.8849 18.5503 22.734 18.7303C22.5888 18.9103 22.5163 19.1396 22.5163 19.4182C22.5163 19.6969 22.5888 19.9262 22.734 20.1062C22.8849 20.2862 23.0678 20.4284 23.2826 20.5329C23.5032 20.6316 23.7354 20.7013 23.9793 20.7419C24.2289 20.7826 24.4553 20.8029 24.6585 20.8029C24.8559 20.8029 25.0765 20.7826 25.3203 20.7419C25.57 20.7013 25.8022 20.6316 26.017 20.5329C26.2376 20.4284 26.4234 20.2862 26.5743 20.1062C26.7253 19.9262 26.8008 19.6969 26.8008 19.4182C26.8008 19.1396 26.7253 18.9103 26.5743 18.7303C26.4234 18.5503 26.2376 18.4081 26.017 18.3036C25.8022 18.1991 25.57 18.1265 25.3203 18.0859C25.0765 18.0452 24.8559 18.0249 24.6585 18.0249ZM36.5665 21.4734C36.5956 21.4734 36.6246 21.485 36.6536 21.5082C36.6827 21.5257 36.6972 21.5518 36.6972 21.5866V21.8827C36.6972 21.9117 36.6827 21.9379 36.6536 21.9611C36.6246 21.9843 36.5956 21.9959 36.5665 21.9959H29.1645C29.1296 21.9959 29.0977 21.9843 29.0687 21.9611C29.0454 21.9379 29.0338 21.9117 29.0338 21.8827V21.5866C29.0338 21.5518 29.0454 21.5257 29.0687 21.5082C29.0977 21.485 29.1296 21.4734 29.1645 21.4734H36.5665ZM35.687 24.7913C35.687 24.8261 35.6725 24.8522 35.6435 24.8697C35.6144 24.8871 35.5854 24.8958 35.5564 24.8958H30.8974C30.6246 24.8958 30.4446 24.8377 30.3575 24.7216C30.2762 24.6113 30.2356 24.4372 30.2356 24.1991V22.8145C30.2356 22.7332 30.2762 22.6926 30.3575 22.6926H30.7145C30.7958 22.6926 30.8365 22.7332 30.8365 22.8145V24.1904C30.8365 24.2717 30.8481 24.321 30.8713 24.3385C30.9003 24.3617 30.9555 24.3733 31.0367 24.3733H35.5564C35.5854 24.3733 35.6144 24.382 35.6435 24.3994C35.6725 24.4226 35.687 24.4488 35.687 24.4778V24.7913ZM35.6347 20.559C35.6347 20.5881 35.6202 20.6142 35.5912 20.6374C35.568 20.6548 35.5448 20.6635 35.5215 20.6635H30.9322C30.6594 20.6635 30.4794 20.6142 30.3923 20.5155C30.3111 20.411 30.2704 20.2368 30.2704 19.993V19.305C30.2704 19.0554 30.3198 18.8899 30.4185 18.8087C30.523 18.7274 30.7058 18.6867 30.9671 18.6867H34.6681C34.7494 18.6867 34.7987 18.6751 34.8162 18.6519C34.8394 18.6287 34.851 18.5735 34.851 18.4865V17.9117C34.851 17.8246 34.8394 17.7695 34.8162 17.7462C34.7987 17.723 34.7494 17.7114 34.6681 17.7114H30.3923C30.3633 17.7114 30.3343 17.7027 30.3052 17.6853C30.282 17.6679 30.2704 17.6447 30.2704 17.6156V17.3021C30.2704 17.2731 30.282 17.2499 30.3052 17.2325C30.3343 17.215 30.3633 17.2063 30.3923 17.2063H34.7639C34.9032 17.2063 35.0165 17.2179 35.1035 17.2412C35.1906 17.2586 35.2603 17.2905 35.3125 17.337C35.3648 17.3834 35.3996 17.4502 35.417 17.5372C35.4403 17.6185 35.4519 17.7201 35.4519 17.842V18.5561C35.4519 18.8058 35.3996 18.9712 35.2951 19.0525C35.1964 19.1338 35.0165 19.1744 34.7552 19.1744H31.0455C30.9642 19.1744 30.9119 19.186 30.8887 19.2092C30.8713 19.2325 30.8626 19.2876 30.8626 19.3747V19.9669C30.8626 20.0482 30.8742 20.1033 30.8974 20.1323C30.9206 20.1556 30.9729 20.1672 31.0542 20.1672H35.5128C35.5419 20.1672 35.568 20.1759 35.5912 20.1933C35.6202 20.2107 35.6347 20.2339 35.6347 20.263V20.559ZM40.6022 18.0597C40.55 18.1294 40.4948 18.1991 40.4368 18.2687C40.3845 18.3384 40.3265 18.4052 40.2626 18.469C40.4252 18.6316 40.6051 18.7767 40.8025 18.9045C40.9999 19.0322 41.2002 19.1454 41.4034 19.2441C41.7285 19.0467 41.9985 18.8435 42.2133 18.6345C42.4281 18.4255 42.6139 18.1904 42.7706 17.9291C42.7996 17.8827 42.8084 17.842 42.7967 17.8072C42.7851 17.7666 42.7474 17.7462 42.6835 17.7462H41.1857C41.116 17.7462 41.0812 17.7056 41.0812 17.6243V17.3457C41.0812 17.276 41.1218 17.2412 41.2031 17.2412H42.9012C43.2264 17.2412 43.4237 17.305 43.4934 17.4327C43.5689 17.5605 43.5428 17.7346 43.415 17.9552C43.3396 18.083 43.2612 18.2049 43.1799 18.321C43.1044 18.4371 43.0203 18.5474 42.9274 18.6519C43.0261 18.7274 43.1393 18.8029 43.267 18.8783C43.4005 18.948 43.5311 19.0177 43.6589 19.0873C43.7924 19.1512 43.9201 19.2092 44.042 19.2615C44.1698 19.3079 44.2801 19.3457 44.3729 19.3747C44.4136 19.3863 44.4368 19.4095 44.4426 19.4444C44.4542 19.4792 44.4484 19.5169 44.4252 19.5576L44.2772 19.8101C44.2423 19.874 44.1756 19.8827 44.0769 19.8362C43.9724 19.7956 43.8534 19.7463 43.7198 19.6882C43.5921 19.6243 43.4615 19.5547 43.3279 19.4792C43.1944 19.4037 43.0609 19.3283 42.9274 19.2528C42.7996 19.1715 42.6835 19.0902 42.579 19.009C42.3758 19.1947 42.1407 19.3718 41.8737 19.5402C41.6124 19.7027 41.2989 19.874 40.9332 20.054C40.8577 20.0946 40.7938 20.0801 40.7416 20.0104L40.6022 19.8188C40.5732 19.784 40.5645 19.7492 40.5761 19.7143C40.5935 19.6795 40.6197 19.6534 40.6545 19.636C40.6951 19.6185 40.7329 19.6011 40.7677 19.5837C40.8025 19.5663 40.8374 19.5489 40.8722 19.5315C40.7038 19.4328 40.5355 19.3196 40.3671 19.1918C40.1988 19.0641 40.0449 18.9335 39.9056 18.8C39.3773 19.2354 38.7358 19.5953 37.981 19.8798C37.9346 19.8972 37.8969 19.9088 37.8678 19.9146C37.8446 19.9146 37.8214 19.8943 37.7982 19.8537L37.6675 19.6011C37.6443 19.5605 37.6385 19.5286 37.6501 19.5053C37.6675 19.4763 37.6908 19.456 37.7198 19.4444C37.9462 19.3689 38.1726 19.2731 38.399 19.157C38.6313 19.0351 38.849 18.9074 39.0522 18.7738C39.2554 18.6345 39.4382 18.4923 39.6008 18.3471C39.7633 18.202 39.8882 18.0597 39.9752 17.9204C40.0043 17.8798 40.013 17.842 40.0014 17.8072C39.9956 17.7666 39.9607 17.7462 39.8969 17.7462H38.3294C38.2539 17.7462 38.2162 17.7056 38.2162 17.6243V17.3457C38.2162 17.3108 38.2278 17.2847 38.251 17.2673C38.28 17.2499 38.3119 17.2412 38.3468 17.2412H40.132C40.8345 17.2412 40.9912 17.514 40.6022 18.0597ZM44.8867 21.4821C44.8867 21.5112 44.8722 21.5373 44.8432 21.5605C44.8142 21.5837 44.7851 21.5953 44.7561 21.5953H37.354C37.3192 21.5953 37.2873 21.5837 37.2582 21.5605C37.235 21.5373 37.2234 21.5112 37.2234 21.4821V21.1773C37.2234 21.1425 37.235 21.1164 37.2582 21.099C37.2873 21.0815 37.3192 21.0728 37.354 21.0728H40.8287V20.3413C40.8287 20.2601 40.8693 20.2194 40.9506 20.2194H41.3076C41.3889 20.2194 41.4295 20.2601 41.4295 20.3413V21.0728H44.7561C44.7851 21.0728 44.8142 21.0844 44.8432 21.1077C44.8722 21.1251 44.8867 21.1512 44.8867 21.186V21.4821ZM43.6676 25.0177C43.6676 25.099 43.6269 25.1396 43.5457 25.1396H43.1886C43.1073 25.1396 43.0667 25.099 43.0667 25.0177V23.1977C43.0667 23.1164 43.0522 23.067 43.0232 23.0496C42.9999 23.0264 42.9477 23.0148 42.8664 23.0148H38.3816C38.3526 23.0148 38.3236 23.0061 38.2945 22.9887C38.2655 22.9654 38.251 22.9393 38.251 22.9103V22.5968C38.251 22.562 38.2655 22.5358 38.2945 22.5184C38.3236 22.501 38.3526 22.4923 38.3816 22.4923H43.0057C43.2786 22.4923 43.4557 22.5445 43.537 22.649C43.624 22.7477 43.6676 22.9161 43.6676 23.1541V25.0177Z" fill="#3E4356"/>
<path d="M142.149 18.9654C142.149 19.1628 142.111 19.3486 142.036 19.5227C141.961 19.6969 141.85 19.8537 141.705 19.993C141.56 20.1323 141.383 20.2484 141.174 20.3413C140.965 20.4342 140.73 20.4923 140.468 20.5155V21.4647C140.916 21.4531 141.345 21.4357 141.757 21.4125C142.17 21.3834 142.541 21.3486 142.872 21.308C142.924 21.3022 142.956 21.308 142.968 21.3254C142.985 21.337 142.997 21.3573 143.003 21.3863L143.037 21.6824C143.043 21.7172 143.037 21.7463 143.02 21.7695C143.008 21.7869 142.976 21.7985 142.924 21.8043C142.413 21.8624 141.853 21.9117 141.244 21.9524C140.634 21.9872 140.03 22.0046 139.432 22.0046H137.621C137.586 22.0046 137.554 21.993 137.525 21.9698C137.502 21.9466 137.49 21.9204 137.49 21.8914V21.5866C137.49 21.5518 137.502 21.5257 137.525 21.5082C137.554 21.4908 137.586 21.4821 137.621 21.4821H139.127H139.868V20.5155C139.612 20.4923 139.383 20.4342 139.18 20.3413C138.976 20.2484 138.802 20.1352 138.657 20.0017C138.512 19.8624 138.402 19.7056 138.326 19.5315C138.251 19.3515 138.213 19.1628 138.213 18.9654C138.213 18.7274 138.257 18.5126 138.344 18.321C138.437 18.1236 138.567 17.9582 138.736 17.8246C138.91 17.6853 139.116 17.5779 139.354 17.5024C139.598 17.4269 139.868 17.3892 140.164 17.3892C140.448 17.3892 140.709 17.4269 140.947 17.5024C141.191 17.5779 141.4 17.6853 141.574 17.8246C141.754 17.9582 141.894 18.1236 141.992 18.321C142.097 18.5126 142.149 18.7274 142.149 18.9654ZM141.557 18.9567C141.557 18.7883 141.519 18.6432 141.444 18.5213C141.368 18.3936 141.267 18.2891 141.139 18.2078C141.011 18.1207 140.863 18.0568 140.695 18.0162C140.527 17.9756 140.349 17.9552 140.164 17.9552C139.972 17.9552 139.792 17.9756 139.624 18.0162C139.461 18.0568 139.319 18.1207 139.197 18.2078C139.075 18.2891 138.979 18.3936 138.91 18.5213C138.84 18.6432 138.805 18.7883 138.805 18.9567C138.805 19.1135 138.837 19.2557 138.901 19.3834C138.971 19.5111 139.066 19.6185 139.188 19.7056C139.31 19.7927 139.453 19.8595 139.615 19.9059C139.783 19.9524 139.966 19.9756 140.164 19.9756C140.349 19.9756 140.527 19.9524 140.695 19.9059C140.863 19.8537 141.011 19.784 141.139 19.6969C141.267 19.604 141.368 19.4966 141.444 19.3747C141.519 19.247 141.557 19.1077 141.557 18.9567ZM144.361 24.7913C144.361 24.8261 144.347 24.8522 144.318 24.8697C144.289 24.8871 144.26 24.8958 144.23 24.8958H139.659C139.386 24.8958 139.206 24.8435 139.119 24.739C139.037 24.6345 138.997 24.4633 138.997 24.2252V22.7971C138.997 22.7158 139.037 22.6752 139.119 22.6752H139.476C139.557 22.6752 139.598 22.7158 139.598 22.7971V24.1904C139.598 24.2717 139.609 24.321 139.632 24.3385C139.662 24.3617 139.717 24.3733 139.798 24.3733H144.23C144.26 24.3733 144.289 24.382 144.318 24.3994C144.347 24.4226 144.361 24.4488 144.361 24.4778V24.7913ZM144.091 22.98C144.091 23.0612 144.051 23.1019 143.969 23.1019H143.612C143.531 23.1019 143.49 23.0612 143.49 22.98V17.1454C143.49 17.0641 143.531 17.0235 143.612 17.0235H143.969C144.051 17.0235 144.091 17.0641 144.091 17.1454V22.98ZM148.911 18.0597C148.858 18.1294 148.803 18.1991 148.745 18.2687C148.693 18.3384 148.635 18.4052 148.571 18.469C148.734 18.6316 148.913 18.7767 149.111 18.9045C149.308 19.0322 149.509 19.1454 149.712 19.2441C150.037 19.0467 150.307 18.8435 150.522 18.6345C150.736 18.4255 150.922 18.1904 151.079 17.9291C151.108 17.8827 151.117 17.842 151.105 17.8072C151.093 17.7666 151.056 17.7462 150.992 17.7462H149.494C149.424 17.7462 149.39 17.7056 149.39 17.6243V17.3457C149.39 17.276 149.43 17.2412 149.511 17.2412H151.21C151.535 17.2412 151.732 17.305 151.802 17.4327C151.877 17.5605 151.851 17.7346 151.723 17.9552C151.648 18.083 151.57 18.2049 151.488 18.321C151.413 18.4371 151.329 18.5474 151.236 18.6519C151.334 18.7274 151.448 18.8029 151.575 18.8783C151.709 18.948 151.839 19.0177 151.967 19.0873C152.101 19.1512 152.228 19.2092 152.35 19.2615C152.478 19.3079 152.588 19.3457 152.681 19.3747C152.722 19.3863 152.745 19.4095 152.751 19.4444C152.763 19.4792 152.757 19.5169 152.734 19.5576L152.586 19.8101C152.551 19.874 152.484 19.8827 152.385 19.8362C152.281 19.7956 152.162 19.7463 152.028 19.6882C151.9 19.6243 151.77 19.5547 151.636 19.4792C151.503 19.4037 151.369 19.3283 151.236 19.2528C151.108 19.1715 150.992 19.0902 150.887 19.009C150.684 19.1947 150.449 19.3718 150.182 19.5402C149.921 19.7027 149.607 19.874 149.242 20.054C149.166 20.0946 149.102 20.0801 149.05 20.0104L148.911 19.8188C148.882 19.784 148.873 19.7492 148.884 19.7143C148.902 19.6795 148.928 19.6534 148.963 19.636C149.003 19.6185 149.041 19.6011 149.076 19.5837C149.111 19.5663 149.146 19.5489 149.181 19.5315C149.012 19.4328 148.844 19.3196 148.675 19.1918C148.507 19.0641 148.353 18.9335 148.214 18.8C147.686 19.2354 147.044 19.5953 146.289 19.8798C146.243 19.8972 146.205 19.9088 146.176 19.9146C146.153 19.9146 146.13 19.8943 146.107 19.8537L145.976 19.6011C145.953 19.5605 145.947 19.5286 145.958 19.5053C145.976 19.4763 145.999 19.456 146.028 19.4444C146.255 19.3689 146.481 19.2731 146.707 19.157C146.94 19.0351 147.157 18.9074 147.361 18.7738C147.564 18.6345 147.747 18.4923 147.909 18.3471C148.072 18.202 148.197 18.0597 148.284 17.9204C148.313 17.8798 148.321 17.842 148.31 17.8072C148.304 17.7666 148.269 17.7462 148.205 17.7462H146.638C146.562 17.7462 146.525 17.7056 146.525 17.6243V17.3457C146.525 17.3108 146.536 17.2847 146.559 17.2673C146.588 17.2499 146.62 17.2412 146.655 17.2412H148.44C149.143 17.2412 149.3 17.514 148.911 18.0597ZM153.195 21.4821C153.195 21.5112 153.181 21.5373 153.152 21.5605C153.123 21.5837 153.093 21.5953 153.064 21.5953H145.662C145.628 21.5953 145.596 21.5837 145.567 21.5605C145.543 21.5373 145.532 21.5112 145.532 21.4821V21.1773C145.532 21.1425 145.543 21.1164 145.567 21.099C145.596 21.0815 145.628 21.0728 145.662 21.0728H149.137V20.3413C149.137 20.2601 149.178 20.2194 149.259 20.2194H149.616C149.697 20.2194 149.738 20.2601 149.738 20.3413V21.0728H153.064C153.093 21.0728 153.123 21.0844 153.152 21.1077C153.181 21.1251 153.195 21.1512 153.195 21.186V21.4821ZM151.976 25.0177C151.976 25.099 151.935 25.1396 151.854 25.1396H151.497C151.416 25.1396 151.375 25.099 151.375 25.0177V23.1977C151.375 23.1164 151.361 23.067 151.332 23.0496C151.308 23.0264 151.256 23.0148 151.175 23.0148H146.69C146.661 23.0148 146.632 23.0061 146.603 22.9887C146.574 22.9654 146.559 22.9393 146.559 22.9103V22.5968C146.559 22.562 146.574 22.5358 146.603 22.5184C146.632 22.501 146.661 22.4923 146.69 22.4923H151.314C151.587 22.4923 151.764 22.5445 151.845 22.649C151.932 22.7477 151.976 22.9161 151.976 23.1541V25.0177Z" fill="#3E4356"/>
<path d="M225.912 21.7347C225.912 21.9727 225.863 22.1933 225.764 22.3965C225.671 22.5997 225.541 22.7797 225.372 22.9364C225.204 23.0874 225.004 23.2064 224.772 23.2935C224.539 23.3805 224.29 23.4241 224.023 23.4241C223.75 23.4241 223.497 23.3805 223.265 23.2935C223.039 23.2064 222.841 23.0874 222.673 22.9364C222.505 22.7855 222.371 22.6084 222.272 22.4052C222.179 22.1962 222.133 21.9727 222.133 21.7347C222.133 21.4908 222.179 21.2673 222.272 21.0641C222.371 20.8551 222.505 20.6752 222.673 20.5242C222.841 20.3733 223.039 20.2542 223.265 20.1672C223.497 20.0801 223.75 20.0365 224.023 20.0365C224.29 20.0365 224.539 20.083 224.772 20.1759C225.004 20.263 225.204 20.382 225.372 20.5329C225.541 20.6839 225.671 20.8638 225.764 21.0728C225.863 21.2818 225.912 21.5024 225.912 21.7347ZM227.497 20.0627V17.1454C227.497 17.0641 227.538 17.0235 227.619 17.0235H227.976C228.058 17.0235 228.098 17.0641 228.098 17.1454V24.9306C228.098 25.0119 228.058 25.0525 227.976 25.0525H227.619C227.538 25.0525 227.497 25.0119 227.497 24.9306V22.292H226.261C226.185 22.292 226.148 22.2572 226.148 22.1875V21.8827C226.148 21.813 226.185 21.7782 226.261 21.7782H227.497V20.5765H226.174C226.098 20.5765 226.06 20.5416 226.06 20.472V20.1672C226.06 20.0975 226.098 20.0627 226.174 20.0627H227.497ZM225.32 21.7347C225.32 21.5663 225.288 21.4096 225.224 21.2644C225.161 21.1193 225.071 20.9945 224.954 20.89C224.838 20.7797 224.699 20.6955 224.536 20.6374C224.38 20.5736 224.208 20.5416 224.023 20.5416C223.837 20.5416 223.663 20.5736 223.5 20.6374C223.343 20.6955 223.207 20.7797 223.091 20.89C222.975 20.9945 222.882 21.1193 222.812 21.2644C222.748 21.4096 222.716 21.5663 222.716 21.7347C222.716 21.903 222.748 22.0598 222.812 22.2049C222.882 22.3442 222.975 22.4691 223.091 22.5794C223.207 22.6839 223.343 22.7681 223.5 22.8319C223.663 22.89 223.837 22.919 224.023 22.919C224.208 22.919 224.38 22.89 224.536 22.8319C224.699 22.7681 224.838 22.6839 224.954 22.5794C225.071 22.4749 225.161 22.3501 225.224 22.2049C225.288 22.0598 225.32 21.903 225.32 21.7347ZM226.409 19.305C226.409 19.3805 226.365 19.4182 226.278 19.4182H221.628C221.599 19.4182 221.57 19.4066 221.541 19.3834C221.518 19.3602 221.506 19.3312 221.506 19.2963V19.0177C221.506 18.9828 221.518 18.9538 221.541 18.9306C221.57 18.9074 221.599 18.8957 221.628 18.8957H226.278C226.365 18.8957 226.409 18.9335 226.409 19.009V19.305ZM225.294 17.8246C225.294 17.9059 225.251 17.9465 225.163 17.9465H222.777C222.748 17.9465 222.719 17.9378 222.69 17.9204C222.667 17.8972 222.655 17.8682 222.655 17.8333V17.5372C222.655 17.5024 222.667 17.4734 222.69 17.4502C222.714 17.4269 222.74 17.4153 222.769 17.4153H225.163C225.251 17.4153 225.294 17.456 225.294 17.5372V17.8246ZM236.525 20.3413C236.525 20.6664 236.485 20.9945 236.403 21.3254C236.328 21.6563 236.206 21.9553 236.038 22.2223C235.869 22.4894 235.652 22.71 235.384 22.8842C235.123 23.0525 234.807 23.1367 234.435 23.1367C234.052 23.1367 233.727 23.0525 233.46 22.8842C233.199 22.7158 232.987 22.4981 232.824 22.231C232.667 21.9582 232.554 21.6563 232.485 21.3254C232.415 20.9945 232.38 20.6664 232.38 20.3413C232.38 19.9988 232.415 19.6621 232.485 19.3312C232.554 18.9944 232.667 18.6926 232.824 18.4255C232.987 18.1584 233.199 17.9436 233.46 17.7811C233.727 17.6185 234.052 17.5372 234.435 17.5372C234.807 17.5372 235.123 17.6185 235.384 17.7811C235.652 17.9436 235.869 18.1584 236.038 18.4255C236.206 18.6867 236.328 18.9857 236.403 19.3225C236.485 19.6534 236.525 19.993 236.525 20.3413ZM235.907 20.3326C235.907 20.0714 235.878 19.8072 235.82 19.5402C235.768 19.2731 235.683 19.0322 235.567 18.8174C235.451 18.6026 235.3 18.4284 235.115 18.2949C234.929 18.1613 234.702 18.0946 234.435 18.0946C234.157 18.0946 233.924 18.1613 233.739 18.2949C233.559 18.4284 233.414 18.6026 233.303 18.8174C233.193 19.0322 233.115 19.2731 233.068 19.5402C233.022 19.8072 232.998 20.0714 232.998 20.3326C232.998 20.5823 233.019 20.8406 233.059 21.1077C233.106 21.3747 233.184 21.6186 233.294 21.8392C233.405 22.054 233.553 22.231 233.739 22.3704C233.924 22.5097 234.157 22.5794 234.435 22.5794C234.702 22.5794 234.929 22.5097 235.115 22.3704C235.3 22.231 235.451 22.054 235.567 21.8392C235.683 21.6186 235.768 21.3747 235.82 21.1077C235.878 20.8406 235.907 20.5823 235.907 20.3326ZM238.424 24.9306C238.424 25.0119 238.383 25.0525 238.302 25.0525H237.945C237.863 25.0525 237.823 25.0119 237.823 24.9306V17.1454C237.823 17.0641 237.863 17.0235 237.945 17.0235H238.302C238.383 17.0235 238.424 17.0641 238.424 17.1454V20.3152H239.625C239.66 20.3152 239.689 20.3268 239.713 20.35C239.742 20.3675 239.756 20.3936 239.756 20.4284V20.7245C239.756 20.7535 239.742 20.7797 239.713 20.8029C239.689 20.8261 239.66 20.8377 239.625 20.8377H238.424V24.9306ZM241.275 21.7869C241.014 21.7753 240.837 21.7231 240.744 21.6302C240.657 21.5315 240.613 21.3602 240.613 21.1164V19.9843C240.613 19.7405 240.663 19.5779 240.761 19.4966C240.866 19.4095 241.049 19.366 241.31 19.366H242.921C243.002 19.366 243.054 19.3544 243.078 19.3312C243.101 19.3079 243.113 19.2528 243.113 19.1657V18.1991C243.113 18.112 243.101 18.0568 243.078 18.0336C243.06 18.0104 243.011 17.9988 242.93 17.9988H240.77C240.741 17.9988 240.712 17.9901 240.683 17.9727C240.66 17.9552 240.648 17.932 240.648 17.903V17.5721C240.648 17.5431 240.66 17.5198 240.683 17.5024C240.712 17.485 240.741 17.4763 240.77 17.4763H243.025C243.165 17.4763 243.278 17.4879 243.365 17.5111C243.452 17.5285 243.522 17.5605 243.574 17.6069C243.626 17.6534 243.661 17.7201 243.679 17.8072C243.702 17.8885 243.713 17.9901 243.713 18.112V19.2702C243.713 19.514 243.661 19.6795 243.557 19.7666C243.458 19.8479 243.278 19.8885 243.017 19.8885H241.397C241.316 19.8885 241.263 19.9001 241.24 19.9233C241.223 19.9466 241.214 20.0017 241.214 20.0888V21.0728C241.214 21.2064 241.278 21.2731 241.406 21.2731C242.387 21.2615 243.29 21.157 244.114 20.9596C244.201 20.9306 244.253 20.9596 244.271 21.0467L244.323 21.3341C244.335 21.4096 244.297 21.4589 244.21 21.4821C243.769 21.5924 243.292 21.6737 242.782 21.726C242.277 21.7782 241.774 21.7985 241.275 21.7869ZM245.525 19.4531H246.631V17.1454C246.631 17.0641 246.671 17.0235 246.753 17.0235H247.084C247.165 17.0235 247.205 17.0641 247.205 17.1454V22.2833C247.205 22.3646 247.165 22.4052 247.084 22.4052H246.753C246.671 22.4052 246.631 22.3646 246.631 22.2833V19.9756H245.525V21.7782C245.525 21.8595 245.484 21.9001 245.403 21.9001H245.072C244.991 21.9001 244.95 21.8595 244.95 21.7782V17.2934C244.95 17.2121 244.991 17.1715 245.072 17.1715H245.403C245.484 17.1715 245.525 17.2121 245.525 17.2934V19.4531ZM244.68 22.292C244.668 22.3384 244.66 22.382 244.654 22.4226C244.648 22.4633 244.639 22.5068 244.628 22.5532C244.651 22.6171 244.677 22.6752 244.706 22.7274C244.735 22.7797 244.767 22.8319 244.802 22.8842C245.023 23.2209 245.359 23.5286 245.812 23.8072C246.265 24.0801 246.814 24.2862 247.458 24.4255C247.533 24.443 247.554 24.4923 247.519 24.5736L247.388 24.8784C247.359 24.948 247.304 24.9713 247.223 24.948C246.544 24.7623 245.957 24.5155 245.464 24.2078C244.976 23.9059 244.605 23.5721 244.349 23.2064C244.105 23.6012 243.745 23.9524 243.269 24.2601C242.799 24.5678 242.239 24.8116 241.589 24.9916C241.536 25.0032 241.496 25.0061 241.467 25.0003C241.443 25.0003 241.426 24.9829 241.414 24.948L241.292 24.6258C241.258 24.5446 241.281 24.4894 241.362 24.4604C241.78 24.3501 242.155 24.2107 242.486 24.0424C242.822 23.8798 243.107 23.6998 243.339 23.5025C243.577 23.3051 243.757 23.099 243.879 22.8842C244.007 22.6694 244.076 22.4546 244.088 22.2397C244.088 22.1701 244.123 22.1352 244.192 22.1352L244.61 22.1701C244.668 22.1701 244.692 22.2107 244.68 22.292ZM255.108 22.6403C255.108 22.7216 255.067 22.7622 254.986 22.7622H254.629C254.547 22.7622 254.507 22.7216 254.507 22.6403V20.5939H252.783V20.8029C252.783 21.0467 252.736 21.2122 252.643 21.2992C252.55 21.3805 252.376 21.4212 252.121 21.4212H249.726C249.587 21.4212 249.473 21.4125 249.386 21.395C249.305 21.3776 249.238 21.3457 249.186 21.2992C249.14 21.247 249.108 21.1831 249.09 21.1077C249.073 21.0264 249.064 20.9248 249.064 20.8029V18.112C249.064 17.8682 249.111 17.7056 249.203 17.6243C249.296 17.5372 249.47 17.4937 249.726 17.4937H252.121C252.26 17.4937 252.37 17.5024 252.452 17.5198C252.539 17.5372 252.605 17.5692 252.652 17.6156C252.704 17.6621 252.739 17.7259 252.756 17.8072C252.774 17.8885 252.783 17.9901 252.783 18.112V18.4255H254.507V17.1454C254.507 17.0641 254.547 17.0235 254.629 17.0235H254.986C255.067 17.0235 255.108 17.0641 255.108 17.1454V22.6403ZM249.874 18.0162C249.793 18.0162 249.738 18.0336 249.708 18.0685C249.679 18.0975 249.665 18.1555 249.665 18.2426V20.6722C249.665 20.7593 249.679 20.8203 249.708 20.8551C249.738 20.8842 249.793 20.8987 249.874 20.8987H251.973C252.054 20.8987 252.109 20.8842 252.138 20.8551C252.167 20.8203 252.182 20.7593 252.182 20.6722V18.2426C252.182 18.1555 252.167 18.0975 252.138 18.0685C252.109 18.0336 252.054 18.0162 251.973 18.0162H249.874ZM255.378 24.7913C255.378 24.8261 255.363 24.8522 255.334 24.8697C255.305 24.8871 255.276 24.8958 255.247 24.8958H250.884C250.611 24.8958 250.431 24.8435 250.344 24.739C250.263 24.6403 250.222 24.472 250.222 24.234V22.4662C250.222 22.3849 250.263 22.3442 250.344 22.3442H250.701C250.783 22.3442 250.823 22.3849 250.823 22.4662V24.1904C250.823 24.2717 250.835 24.321 250.858 24.3385C250.887 24.3617 250.942 24.3733 251.023 24.3733H255.247C255.276 24.3733 255.305 24.382 255.334 24.3994C255.363 24.4226 255.378 24.4488 255.378 24.4778V24.7913ZM252.783 20.0801H254.507V18.9393H252.783V20.0801Z" fill="#3E4356"/>
<path d="M230.007 94.5679C230.007 94.8059 229.958 95.0266 229.859 95.2298C229.766 95.4329 229.635 95.6129 229.467 95.7697C229.299 95.9206 229.098 96.0396 228.866 96.1267C228.634 96.2138 228.384 96.2573 228.117 96.2573C227.844 96.2573 227.592 96.2138 227.36 96.1267C227.133 96.0396 226.936 95.9206 226.767 95.7697C226.599 95.6187 226.465 95.4417 226.367 95.2385C226.274 95.0295 226.227 94.8059 226.227 94.5679C226.227 94.3241 226.274 94.1006 226.367 93.8974C226.465 93.6884 226.599 93.5084 226.767 93.3575C226.936 93.2065 227.133 93.0875 227.36 93.0004C227.592 92.9133 227.844 92.8698 228.117 92.8698C228.384 92.8698 228.634 92.9162 228.866 93.0091C229.098 93.0962 229.299 93.2152 229.467 93.3662C229.635 93.5171 229.766 93.6971 229.859 93.9061C229.958 94.1151 230.007 94.3357 230.007 94.5679ZM231.592 92.8959V89.9786C231.592 89.8973 231.632 89.8567 231.714 89.8567H232.071C232.152 89.8567 232.193 89.8973 232.193 89.9786V97.7639C232.193 97.8452 232.152 97.8858 232.071 97.8858H231.714C231.632 97.8858 231.592 97.8452 231.592 97.7639V95.1253H230.355C230.28 95.1253 230.242 95.0904 230.242 95.0208V94.716C230.242 94.6463 230.28 94.6115 230.355 94.6115H231.592V93.4097H230.268C230.193 93.4097 230.155 93.3749 230.155 93.3052V93.0004C230.155 92.9308 230.193 92.8959 230.268 92.8959H231.592ZM229.415 94.5679C229.415 94.3996 229.383 94.2428 229.319 94.0977C229.255 93.9525 229.165 93.8277 229.049 93.7232C228.933 93.6129 228.794 93.5287 228.631 93.4707C228.474 93.4068 228.303 93.3749 228.117 93.3749C227.931 93.3749 227.757 93.4068 227.595 93.4707C227.438 93.5287 227.301 93.6129 227.185 93.7232C227.069 93.8277 226.976 93.9525 226.907 94.0977C226.843 94.2428 226.811 94.3996 226.811 94.5679C226.811 94.7363 226.843 94.893 226.907 95.0382C226.976 95.1775 227.069 95.3023 227.185 95.4126C227.301 95.5171 227.438 95.6013 227.595 95.6652C227.757 95.7232 227.931 95.7523 228.117 95.7523C228.303 95.7523 228.474 95.7232 228.631 95.6652C228.794 95.6013 228.933 95.5171 229.049 95.4126C229.165 95.3081 229.255 95.1833 229.319 95.0382C229.383 94.893 229.415 94.7363 229.415 94.5679ZM230.503 92.1383C230.503 92.2138 230.46 92.2515 230.373 92.2515H225.722C225.693 92.2515 225.664 92.2399 225.635 92.2167C225.612 92.1934 225.6 92.1644 225.6 92.1296V91.8509C225.6 91.8161 225.612 91.7871 225.635 91.7638C225.664 91.7406 225.693 91.729 225.722 91.729H230.373C230.46 91.729 230.503 91.7667 230.503 91.8422V92.1383ZM229.389 90.6579C229.389 90.7392 229.345 90.7798 229.258 90.7798H226.872C226.843 90.7798 226.814 90.7711 226.785 90.7537C226.762 90.7304 226.75 90.7014 226.75 90.6666V90.3705C226.75 90.3357 226.762 90.3066 226.785 90.2834C226.808 90.2602 226.834 90.2486 226.863 90.2486H229.258C229.345 90.2486 229.389 90.2892 229.389 90.3705V90.6579ZM242.823 94.3589C242.823 94.4402 242.782 94.4808 242.701 94.4808H242.344C242.263 94.4808 242.222 94.4402 242.222 94.3589V93.3052H240.315C240.123 93.5316 239.885 93.7087 239.601 93.8364C239.316 93.9641 239 94.028 238.652 94.028C238.367 94.028 238.1 93.9816 237.85 93.8887C237.601 93.7958 237.383 93.6652 237.197 93.4968C237.012 93.3226 236.864 93.1194 236.753 92.8872C236.649 92.6492 236.596 92.385 236.596 92.0948C236.596 91.7929 236.649 91.5229 236.753 91.2849C236.864 91.041 237.012 90.8378 237.197 90.6753C237.383 90.5069 237.601 90.3792 237.85 90.2921C238.1 90.1992 238.367 90.1528 238.652 90.1528C239.023 90.1528 239.372 90.2341 239.697 90.3966C240.028 90.5592 240.286 90.7943 240.472 91.102H242.222V89.9786C242.222 89.8973 242.263 89.8567 242.344 89.8567H242.701C242.782 89.8567 242.823 89.8973 242.823 89.9786V94.3589ZM243.345 97.7029C243.345 97.7784 243.302 97.8161 243.215 97.8161H237.668C237.639 97.8161 237.61 97.8045 237.581 97.7813C237.557 97.7581 237.546 97.729 237.546 97.6942V97.4243C237.546 97.3894 237.557 97.3604 237.581 97.3372C237.61 97.3139 237.639 97.3023 237.668 97.3023H238.887V95.4562H237.929C237.9 95.4562 237.871 95.4446 237.842 95.4213C237.819 95.3981 237.807 95.3691 237.807 95.3343V95.0643C237.807 95.0295 237.819 95.0004 237.842 94.9772C237.871 94.954 237.9 94.9424 237.929 94.9424H242.954C243.041 94.9424 243.084 94.9801 243.084 95.0556V95.343C243.084 95.4184 243.041 95.4562 242.954 95.4562H242.03V97.3023H243.215C243.302 97.3023 243.345 97.3401 243.345 97.4155V97.7029ZM240.132 92.086C240.132 91.8596 240.091 91.6593 240.01 91.4852C239.929 91.311 239.819 91.1659 239.679 91.0498C239.546 90.9336 239.389 90.8466 239.209 90.7885C239.035 90.7304 238.849 90.7014 238.652 90.7014C238.448 90.7014 238.26 90.7304 238.086 90.7885C237.911 90.8466 237.758 90.9336 237.624 91.0498C237.496 91.1659 237.395 91.311 237.319 91.4852C237.244 91.6593 237.206 91.8596 237.206 92.086C237.206 92.3008 237.241 92.4953 237.311 92.6695C237.386 92.8379 237.488 92.983 237.615 93.1049C237.743 93.2268 237.894 93.3197 238.068 93.3836C238.248 93.4474 238.443 93.4794 238.652 93.4794C238.849 93.4794 239.035 93.4474 239.209 93.3836C239.389 93.3197 239.546 93.2268 239.679 93.1049C239.819 92.983 239.929 92.8379 240.01 92.6695C240.091 92.4953 240.132 92.3008 240.132 92.086ZM239.479 97.3023H241.438V95.4562H239.479V97.3023ZM240.742 92.0948C240.742 92.3502 240.698 92.5824 240.611 92.7914H242.222V91.6158H240.681C240.698 91.6913 240.713 91.7696 240.724 91.8509C240.736 91.9322 240.742 92.0135 240.742 92.0948ZM251.013 95.4736C251.013 95.5549 250.972 95.5955 250.891 95.5955H250.534C250.452 95.5955 250.412 95.5549 250.412 95.4736V93.4271H248.687V93.6361C248.687 93.88 248.641 94.0454 248.548 94.1325C248.455 94.2138 248.281 94.2544 248.026 94.2544H245.631C245.491 94.2544 245.378 94.2457 245.291 94.2283C245.21 94.2109 245.143 94.1789 245.091 94.1325C245.044 94.0803 245.012 94.0164 244.995 93.9409C244.978 93.8596 244.969 93.758 244.969 93.6361V90.9453C244.969 90.7014 245.015 90.5389 245.108 90.4576C245.201 90.3705 245.375 90.327 245.631 90.327H248.026C248.165 90.327 248.275 90.3357 248.356 90.3531C248.444 90.3705 248.51 90.4024 248.557 90.4489C248.609 90.4953 248.644 90.5592 248.661 90.6405C248.679 90.7217 248.687 90.8233 248.687 90.9453V91.2588H250.412V89.9786C250.412 89.8973 250.452 89.8567 250.534 89.8567H250.891C250.972 89.8567 251.013 89.8973 251.013 89.9786V95.4736ZM245.779 90.8495C245.698 90.8495 245.642 90.8669 245.613 90.9017C245.584 90.9307 245.57 90.9888 245.57 91.0759V93.5055C245.57 93.5926 245.584 93.6535 245.613 93.6884C245.642 93.7174 245.698 93.7319 245.779 93.7319H247.878C247.959 93.7319 248.014 93.7174 248.043 93.6884C248.072 93.6535 248.087 93.5926 248.087 93.5055V91.0759C248.087 90.9888 248.072 90.9307 248.043 90.9017C248.014 90.8669 247.959 90.8495 247.878 90.8495H245.779ZM251.282 97.6245C251.282 97.6594 251.268 97.6855 251.239 97.7029C251.21 97.7203 251.181 97.729 251.152 97.729H246.789C246.516 97.729 246.336 97.6768 246.249 97.5723C246.168 97.4736 246.127 97.3052 246.127 97.0672V95.2994C246.127 95.2181 246.168 95.1775 246.249 95.1775H246.606C246.687 95.1775 246.728 95.2181 246.728 95.2994V97.0237C246.728 97.1049 246.74 97.1543 246.763 97.1717C246.792 97.1949 246.847 97.2065 246.928 97.2065H251.152C251.181 97.2065 251.21 97.2153 251.239 97.2327C251.268 97.2559 251.282 97.282 251.282 97.311V97.6245ZM248.687 92.9133H250.412V91.7725H248.687V92.9133Z" fill="#3E4356"/>
<path d="M198.176 141.904C198.205 141.904 198.234 141.916 198.263 141.939C198.292 141.956 198.307 141.982 198.307 142.017V142.313C198.307 142.342 198.292 142.369 198.263 142.392C198.234 142.415 198.205 142.427 198.176 142.427H190.774C190.739 142.427 190.707 142.415 190.678 142.392C190.655 142.369 190.644 142.342 190.644 142.313V142.017C190.644 141.982 190.655 141.956 190.678 141.939C190.707 141.916 190.739 141.904 190.774 141.904H194.153V140.093C193.869 140.07 193.578 140.017 193.282 139.936C192.992 139.855 192.725 139.736 192.481 139.579C192.243 139.422 192.048 139.228 191.898 138.996C191.747 138.763 191.671 138.485 191.671 138.16C191.671 137.805 191.758 137.506 191.932 137.263C192.112 137.013 192.339 136.813 192.612 136.662C192.89 136.511 193.192 136.4 193.517 136.331C193.848 136.261 194.162 136.226 194.458 136.226C194.76 136.226 195.076 136.261 195.407 136.331C195.738 136.4 196.037 136.511 196.304 136.662C196.577 136.813 196.8 137.013 196.975 137.263C197.154 137.506 197.244 137.805 197.244 138.16C197.244 138.485 197.169 138.766 197.018 139.004C196.867 139.236 196.673 139.431 196.435 139.588C196.197 139.739 195.93 139.858 195.633 139.945C195.337 140.026 195.044 140.075 194.754 140.093V141.904H198.176ZM194.458 136.775C194.255 136.775 194.028 136.795 193.779 136.836C193.535 136.877 193.302 136.949 193.082 137.054C192.867 137.158 192.684 137.3 192.533 137.48C192.388 137.66 192.316 137.89 192.316 138.168C192.316 138.447 192.388 138.676 192.533 138.856C192.684 139.036 192.867 139.178 193.082 139.283C193.302 139.382 193.535 139.451 193.779 139.492C194.028 139.533 194.255 139.553 194.458 139.553C194.655 139.553 194.876 139.533 195.12 139.492C195.369 139.451 195.601 139.382 195.816 139.283C196.037 139.178 196.223 139.036 196.374 138.856C196.525 138.676 196.6 138.447 196.6 138.168C196.6 137.89 196.525 137.66 196.374 137.48C196.223 137.3 196.037 137.158 195.816 137.054C195.601 136.949 195.369 136.877 195.12 136.836C194.876 136.795 194.655 136.775 194.458 136.775ZM206.366 140.223C206.395 140.223 206.424 140.235 206.453 140.258C206.482 140.276 206.496 140.302 206.496 140.337V140.633C206.496 140.662 206.482 140.688 206.453 140.711C206.424 140.734 206.395 140.746 206.366 140.746H198.964C198.929 140.746 198.897 140.734 198.868 140.711C198.845 140.688 198.833 140.662 198.833 140.633V140.337C198.833 140.302 198.845 140.276 198.868 140.258C198.897 140.235 198.929 140.223 198.964 140.223H206.366ZM205.486 143.541C205.486 143.576 205.472 143.602 205.443 143.62C205.414 143.637 205.385 143.646 205.356 143.646H200.697C200.424 143.646 200.244 143.588 200.157 143.472C200.076 143.361 200.035 143.187 200.035 142.949V141.564C200.035 141.483 200.076 141.443 200.157 141.443H200.514C200.595 141.443 200.636 141.483 200.636 141.564V142.94C200.636 143.022 200.647 143.071 200.671 143.088C200.7 143.112 200.755 143.123 200.836 143.123H205.356C205.385 143.123 205.414 143.132 205.443 143.149C205.472 143.173 205.486 143.199 205.486 143.228V143.541ZM205.434 139.309C205.434 139.338 205.42 139.364 205.391 139.387C205.367 139.405 205.344 139.414 205.321 139.414H200.732C200.459 139.414 200.279 139.364 200.192 139.265C200.11 139.161 200.07 138.987 200.07 138.743V138.055C200.07 137.805 200.119 137.64 200.218 137.559C200.322 137.477 200.505 137.437 200.766 137.437H204.467C204.549 137.437 204.598 137.425 204.615 137.402C204.639 137.379 204.65 137.324 204.65 137.236V136.662C204.65 136.575 204.639 136.519 204.615 136.496C204.598 136.473 204.549 136.461 204.467 136.461H200.192C200.163 136.461 200.134 136.453 200.105 136.435C200.081 136.418 200.07 136.395 200.07 136.366V136.052C200.07 136.023 200.081 136 200.105 135.982C200.134 135.965 200.163 135.956 200.192 135.956H204.563C204.703 135.956 204.816 135.968 204.903 135.991C204.99 136.009 205.06 136.041 205.112 136.087C205.164 136.133 205.199 136.2 205.216 136.287C205.24 136.369 205.251 136.47 205.251 136.592V137.306C205.251 137.556 205.199 137.721 205.094 137.802C204.996 137.884 204.816 137.924 204.555 137.924H200.845C200.763 137.924 200.711 137.936 200.688 137.959C200.671 137.982 200.662 138.038 200.662 138.125V138.717C200.662 138.798 200.673 138.853 200.697 138.882C200.72 138.906 200.772 138.917 200.853 138.917H205.312C205.341 138.917 205.367 138.926 205.391 138.943C205.42 138.961 205.434 138.984 205.434 139.013V139.309ZM210.402 136.81C210.349 136.879 210.294 136.949 210.236 137.019C210.184 137.088 210.126 137.155 210.062 137.219C210.224 137.382 210.404 137.527 210.602 137.654C210.799 137.782 211 137.895 211.203 137.994C211.528 137.797 211.798 137.593 212.013 137.384C212.227 137.175 212.413 136.94 212.57 136.679C212.599 136.633 212.608 136.592 212.596 136.557C212.584 136.517 212.547 136.496 212.483 136.496H210.985C210.915 136.496 210.88 136.456 210.88 136.374V136.096C210.88 136.026 210.921 135.991 211.002 135.991H212.701C213.026 135.991 213.223 136.055 213.293 136.183C213.368 136.31 213.342 136.485 213.214 136.705C213.139 136.833 213.06 136.955 212.979 137.071C212.904 137.187 212.82 137.297 212.727 137.402C212.825 137.477 212.939 137.553 213.066 137.628C213.2 137.698 213.33 137.768 213.458 137.837C213.592 137.901 213.719 137.959 213.841 138.011C213.969 138.058 214.079 138.096 214.172 138.125C214.213 138.136 214.236 138.16 214.242 138.194C214.254 138.229 214.248 138.267 214.224 138.308L214.076 138.56C214.042 138.624 213.975 138.633 213.876 138.586C213.772 138.546 213.653 138.496 213.519 138.438C213.391 138.374 213.261 138.305 213.127 138.229C212.994 138.154 212.86 138.078 212.727 138.003C212.599 137.922 212.483 137.84 212.378 137.759C212.175 137.945 211.94 138.122 211.673 138.29C211.412 138.453 211.098 138.624 210.732 138.804C210.657 138.845 210.593 138.83 210.541 138.76L210.402 138.569C210.373 138.534 210.364 138.499 210.375 138.464C210.393 138.429 210.419 138.403 210.454 138.386C210.494 138.369 210.532 138.351 210.567 138.334C210.602 138.316 210.637 138.299 210.671 138.281C210.503 138.183 210.335 138.07 210.166 137.942C209.998 137.814 209.844 137.683 209.705 137.55C209.177 137.985 208.535 138.345 207.78 138.63C207.734 138.647 207.696 138.659 207.667 138.665C207.644 138.665 207.621 138.644 207.597 138.604L207.467 138.351C207.444 138.31 207.438 138.279 207.449 138.255C207.467 138.226 207.49 138.206 207.519 138.194C207.745 138.119 207.972 138.023 208.198 137.907C208.431 137.785 208.648 137.657 208.851 137.524C209.055 137.384 209.238 137.242 209.4 137.097C209.563 136.952 209.687 136.81 209.775 136.67C209.804 136.63 209.812 136.592 209.801 136.557C209.795 136.517 209.76 136.496 209.696 136.496H208.129C208.053 136.496 208.015 136.456 208.015 136.374V136.096C208.015 136.061 208.027 136.035 208.05 136.017C208.079 136 208.111 135.991 208.146 135.991H209.931C210.634 135.991 210.791 136.264 210.402 136.81ZM214.686 140.232C214.686 140.261 214.672 140.287 214.642 140.31C214.613 140.334 214.584 140.345 214.555 140.345H207.153C207.118 140.345 207.087 140.334 207.058 140.31C207.034 140.287 207.023 140.261 207.023 140.232V139.927C207.023 139.892 207.034 139.866 207.058 139.849C207.087 139.832 207.118 139.823 207.153 139.823H210.628V139.091C210.628 139.01 210.669 138.969 210.75 138.969H211.107C211.188 138.969 211.229 139.01 211.229 139.091V139.823H214.555C214.584 139.823 214.613 139.834 214.642 139.858C214.672 139.875 214.686 139.901 214.686 139.936V140.232ZM213.467 143.768C213.467 143.849 213.426 143.89 213.345 143.89H212.988C212.907 143.89 212.866 143.849 212.866 143.768V141.948C212.866 141.866 212.851 141.817 212.822 141.8C212.799 141.776 212.747 141.765 212.666 141.765H208.181C208.152 141.765 208.123 141.756 208.094 141.739C208.065 141.715 208.05 141.689 208.05 141.66V141.347C208.05 141.312 208.065 141.286 208.094 141.268C208.123 141.251 208.152 141.242 208.181 141.242H212.805C213.078 141.242 213.255 141.295 213.336 141.399C213.423 141.498 213.467 141.666 213.467 141.904V143.768Z" fill="#3E4356"/>
<path d="M270.399 137.715C270.399 137.913 270.361 138.099 270.286 138.273C270.211 138.447 270.1 138.604 269.955 138.743C269.81 138.882 269.633 138.998 269.424 139.091C269.215 139.184 268.98 139.242 268.718 139.265V140.215C269.166 140.203 269.595 140.186 270.007 140.162C270.42 140.133 270.791 140.099 271.122 140.058C271.174 140.052 271.206 140.058 271.218 140.075C271.235 140.087 271.247 140.107 271.253 140.136L271.287 140.432C271.293 140.467 271.287 140.496 271.27 140.519C271.258 140.537 271.226 140.549 271.174 140.554C270.663 140.612 270.103 140.662 269.494 140.702C268.884 140.737 268.28 140.755 267.682 140.755H265.871C265.836 140.755 265.804 140.743 265.775 140.72C265.752 140.697 265.74 140.67 265.74 140.641V140.337C265.74 140.302 265.752 140.276 265.775 140.258C265.804 140.241 265.836 140.232 265.871 140.232H267.377H268.118V139.265C267.862 139.242 267.633 139.184 267.43 139.091C267.226 138.998 267.052 138.885 266.907 138.752C266.762 138.612 266.652 138.456 266.576 138.281C266.501 138.101 266.463 137.913 266.463 137.715C266.463 137.477 266.507 137.263 266.594 137.071C266.687 136.874 266.817 136.708 266.986 136.575C267.16 136.435 267.366 136.328 267.604 136.252C267.848 136.177 268.118 136.139 268.414 136.139C268.698 136.139 268.959 136.177 269.197 136.252C269.441 136.328 269.65 136.435 269.824 136.575C270.004 136.708 270.144 136.874 270.242 137.071C270.347 137.263 270.399 137.477 270.399 137.715ZM269.807 137.707C269.807 137.538 269.769 137.393 269.694 137.271C269.618 137.144 269.517 137.039 269.389 136.958C269.261 136.871 269.113 136.807 268.945 136.766C268.777 136.726 268.599 136.705 268.414 136.705C268.222 136.705 268.042 136.726 267.874 136.766C267.711 136.807 267.569 136.871 267.447 136.958C267.325 137.039 267.229 137.144 267.16 137.271C267.09 137.393 267.055 137.538 267.055 137.707C267.055 137.863 267.087 138.006 267.151 138.133C267.221 138.261 267.316 138.369 267.438 138.456C267.56 138.543 267.703 138.609 267.865 138.656C268.033 138.702 268.216 138.726 268.414 138.726C268.599 138.726 268.777 138.702 268.945 138.656C269.113 138.604 269.261 138.534 269.389 138.447C269.517 138.354 269.618 138.247 269.694 138.125C269.769 137.997 269.807 137.858 269.807 137.707ZM272.611 143.541C272.611 143.576 272.597 143.602 272.568 143.62C272.539 143.637 272.51 143.646 272.48 143.646H267.909C267.636 143.646 267.456 143.594 267.369 143.489C267.287 143.385 267.247 143.213 267.247 142.975V141.547C267.247 141.466 267.287 141.425 267.369 141.425H267.726C267.807 141.425 267.848 141.466 267.848 141.547V142.94C267.848 143.022 267.859 143.071 267.882 143.088C267.912 143.112 267.967 143.123 268.048 143.123H272.48C272.51 143.123 272.539 143.132 272.568 143.149C272.597 143.173 272.611 143.199 272.611 143.228V143.541ZM272.341 141.73C272.341 141.811 272.301 141.852 272.219 141.852H271.862C271.781 141.852 271.74 141.811 271.74 141.73V135.895C271.74 135.814 271.781 135.773 271.862 135.773H272.219C272.301 135.773 272.341 135.814 272.341 135.895V141.73ZM277.161 136.81C277.108 136.879 277.053 136.949 276.995 137.019C276.943 137.088 276.885 137.155 276.821 137.219C276.984 137.382 277.163 137.527 277.361 137.654C277.558 137.782 277.759 137.895 277.962 137.994C278.287 137.797 278.557 137.593 278.772 137.384C278.986 137.175 279.172 136.94 279.329 136.679C279.358 136.633 279.367 136.592 279.355 136.557C279.343 136.517 279.306 136.496 279.242 136.496H277.744C277.674 136.496 277.64 136.456 277.64 136.374V136.096C277.64 136.026 277.68 135.991 277.761 135.991H279.46C279.785 135.991 279.982 136.055 280.052 136.183C280.127 136.31 280.101 136.485 279.973 136.705C279.898 136.833 279.82 136.955 279.738 137.071C279.663 137.187 279.579 137.297 279.486 137.402C279.584 137.477 279.698 137.553 279.825 137.628C279.959 137.698 280.089 137.768 280.217 137.837C280.351 137.901 280.478 137.959 280.6 138.011C280.728 138.058 280.838 138.096 280.931 138.125C280.972 138.136 280.995 138.16 281.001 138.194C281.013 138.229 281.007 138.267 280.984 138.308L280.836 138.56C280.801 138.624 280.734 138.633 280.635 138.586C280.531 138.546 280.412 138.496 280.278 138.438C280.15 138.374 280.02 138.305 279.886 138.229C279.753 138.154 279.619 138.078 279.486 138.003C279.358 137.922 279.242 137.84 279.137 137.759C278.934 137.945 278.699 138.122 278.432 138.29C278.171 138.453 277.857 138.624 277.492 138.804C277.416 138.845 277.352 138.83 277.3 138.76L277.161 138.569C277.132 138.534 277.123 138.499 277.134 138.464C277.152 138.429 277.178 138.403 277.213 138.386C277.253 138.369 277.291 138.351 277.326 138.334C277.361 138.316 277.396 138.299 277.431 138.281C277.262 138.183 277.094 138.07 276.925 137.942C276.757 137.814 276.603 137.683 276.464 137.55C275.936 137.985 275.294 138.345 274.539 138.63C274.493 138.647 274.455 138.659 274.426 138.665C274.403 138.665 274.38 138.644 274.357 138.604L274.226 138.351C274.203 138.31 274.197 138.279 274.208 138.255C274.226 138.226 274.249 138.206 274.278 138.194C274.505 138.119 274.731 138.023 274.957 137.907C275.19 137.785 275.407 137.657 275.611 137.524C275.814 137.384 275.997 137.242 276.159 137.097C276.322 136.952 276.447 136.81 276.534 136.67C276.563 136.63 276.571 136.592 276.56 136.557C276.554 136.517 276.519 136.496 276.455 136.496H274.888C274.812 136.496 274.775 136.456 274.775 136.374V136.096C274.775 136.061 274.786 136.035 274.809 136.017C274.838 136 274.87 135.991 274.905 135.991H276.69C277.393 135.991 277.55 136.264 277.161 136.81ZM281.445 140.232C281.445 140.261 281.431 140.287 281.402 140.31C281.373 140.334 281.343 140.345 281.314 140.345H273.912C273.878 140.345 273.846 140.334 273.817 140.31C273.793 140.287 273.782 140.261 273.782 140.232V139.927C273.782 139.892 273.793 139.866 273.817 139.849C273.846 139.832 273.878 139.823 273.912 139.823H277.387V139.091C277.387 139.01 277.428 138.969 277.509 138.969H277.866C277.947 138.969 277.988 139.01 277.988 139.091V139.823H281.314C281.343 139.823 281.373 139.834 281.402 139.858C281.431 139.875 281.445 139.901 281.445 139.936V140.232ZM280.226 143.768C280.226 143.849 280.185 143.89 280.104 143.89H279.747C279.666 143.89 279.625 143.849 279.625 143.768V141.948C279.625 141.866 279.611 141.817 279.582 141.8C279.558 141.776 279.506 141.765 279.425 141.765H274.94C274.911 141.765 274.882 141.756 274.853 141.739C274.824 141.715 274.809 141.689 274.809 141.66V141.347C274.809 141.312 274.824 141.286 274.853 141.268C274.882 141.251 274.911 141.242 274.94 141.242H279.564C279.837 141.242 280.014 141.295 280.095 141.399C280.182 141.498 280.226 141.666 280.226 141.904V143.768Z" fill="#3E4356"/>
<path d="M60.3795 67.7039C60.3795 67.7039 59.4615 67.7888 59.7203 70.7732C59.7203 70.7732 59.7876 72.1346 62.5556 72.2088C62.5556 72.2088 65.1039 73.9769 66.0785 72.5624C66.6423 72.2042 67.109 71.7129 67.4372 71.1319C67.7654 70.5509 67.9451 69.8982 67.9605 69.2315C67.9605 69.2315 65.2456 70.0943 63.8102 67.6933C63.8102 67.6933 60.7942 68.3227 60.3689 65.8369C60.3689 65.8369 59.1674 65.7591 59.0752 68.0186C59.0519 68.2965 59.0882 68.5762 59.1817 68.839C59.2752 69.1018 59.4238 69.3416 59.6175 69.5427" stroke="#ADB2C2" stroke-width="0.791667" stroke-linecap="round" stroke-linejoin="round"/>
<path d="M63.5126 68.6939C63.5126 68.6939 62.9314 68.4428 63.1122 69.4789C63.1122 69.4789 63.2327 70.8155 62.4033 70.3311" stroke="#ADB2C2" stroke-width="0.791667" stroke-linecap="round" stroke-linejoin="round"/>
<path d="M67.971 69.4791C67.971 69.4791 69.6686 68.3935 69.743 63.4678C69.0995 63.5635 68.442 63.4716 67.8497 63.2031C67.2573 62.9346 66.7554 62.5009 66.4044 61.9543C66.4044 61.9543 63.9767 63.1071 62.3995 59.3518C61.5222 60.1591 60.8745 61.1836 60.5222 62.3213C60.1699 63.459 60.1255 64.6695 60.3935 65.8299" stroke="#ADB2C2" stroke-width="0.791667" stroke-linecap="round" stroke-linejoin="round"/>
<path d="M60.3301 65.5645C60.3301 65.5645 60.8688 64.2137 61.7158 63.7964C61.7158 63.7964 61.9604 62.5234 61.7158 62.0991" stroke="#ADB2C2" stroke-width="0.791667" stroke-linecap="round" stroke-linejoin="round"/>
<path d="M65.7243 63.365C65.7243 63.365 65.1395 63.9095 64.9765 65.3027C64.8594 65.719 64.8594 66.1594 64.9765 66.5757" stroke="#ADB2C2" stroke-width="0.791667" stroke-linecap="round" stroke-linejoin="round"/>
<path d="M64.9759 65.3029C64.9759 65.3029 64.3876 65.5999 63.8418 65.8474" stroke="#ADB2C2" stroke-width="0.791667" stroke-linecap="round" stroke-linejoin="round"/>
<path d="M69.7296 63.4856C69.7296 63.4856 72.1574 62.0323 71.7959 56.7034C71.7959 56.7034 70.3392 57.3081 68.5778 55.7947C68.5778 55.7947 65.9657 56.3392 66.5115 52.0995C66.5115 52.0995 62.0813 55.7345 62.3861 59.3696" stroke="#ADB2C2" stroke-width="0.791667" stroke-linecap="round" stroke-linejoin="round"/>
<path d="M67.0996 57.3682C67.0996 57.3682 67.6667 58.8851 67.3619 59.8434L67.9715 60.9325" stroke="#ADB2C2" stroke-width="0.791667" stroke-linecap="round" stroke-linejoin="round"/>
<path d="M69.729 58.0364C69.729 58.0364 66.9362 60.3985 66.0254 60.3383" stroke="#ADB2C2" stroke-width="0.791667" stroke-linecap="round" stroke-linejoin="round"/>
<path d="M65.3063 56.4592C65.3063 56.4592 62.2867 59.228 62.5383 59.7124" stroke="#ADB2C2" stroke-width="0.791667" stroke-linecap="round" stroke-linejoin="round"/>
<path d="M66.5107 52.0993C66.5107 52.0993 67.7264 46.286 69.7288 46.8907C69.7288 46.8907 69.183 49.617 71.3698 49.8574C71.3698 49.8574 73.4963 51.7351 74.1626 51.4345C74.1626 51.4345 73.0674 56.2789 71.7951 56.7032" stroke="#ADB2C2" stroke-width="0.791667" stroke-linecap="round" stroke-linejoin="round"/>
<path d="M70.8881 51.1304C70.8881 51.1304 70.6436 53.4925 69.0664 53.4925" stroke="#ADB2C2" stroke-width="0.791667" stroke-linecap="round" stroke-linejoin="round"/>
<path d="M71.4306 51.774C71.4306 51.774 69.9739 52.704 70.339 53.4926" stroke="#ADB2C2" stroke-width="0.791667" stroke-linecap="round" stroke-linejoin="round"/>
<path d="M74.1633 51.4345C74.1633 51.4345 75.9354 49.9847 75.9035 49.373C75.8921 49.3078 75.8982 49.2407 75.9212 49.1786C75.9442 49.1164 75.9834 49.0615 76.0346 49.0194C76.5166 48.6658 77.5657 47.8242 77.3778 47.308C77.3778 47.308 74.9501 48.0364 74.7091 47.308C74.7091 47.308 73.979 42.5838 75.4356 41.4346C75.4356 41.4346 70.0343 44.8256 69.7295 46.8836" stroke="#ADB2C2" stroke-width="0.791667" stroke-linecap="round" stroke-linejoin="round"/>
<path d="M75.4355 41.4416C75.4355 41.4416 78.4729 37.018 79.8693 40.0484C79.8693 40.0484 78.0972 44.2917 79.0187 46.1658C78.9083 46.5098 78.6882 46.8083 78.392 47.0158C78.0957 47.2232 77.7395 47.3283 77.3777 47.315" stroke="#ADB2C2" stroke-width="0.791667" stroke-linecap="round" stroke-linejoin="round"/>
<path d="M79.8692 40.0483C79.8692 40.0483 82.2969 35.2004 84.0584 40.0483L83.7536 44.7124C83.7536 44.7124 83.0235 46.8906 79.0186 46.1657" stroke="#ADB2C2" stroke-width="0.791667" stroke-linecap="round" stroke-linejoin="round"/>
<path d="M84.0584 40.0484C84.0584 40.0484 85.5364 35.7202 88.354 36.8199C88.8601 37.0264 89.2734 37.4098 89.5165 37.8985C89.963 38.7471 90.2466 39.6417 90.4309 41.4345C90.4309 41.4345 90.7357 44.9458 89.7646 44.9458C89.7646 44.9458 86.7379 45.5646 85.1571 45.2994C85.1571 45.2994 84.1258 45.0554 83.7607 44.6947" stroke="#ADB2C2" stroke-width="0.791667" stroke-linecap="round" stroke-linejoin="round"/>
<path d="M90.3242 40.5612C90.3242 40.5612 91.3875 36.9049 93.4856 36.6008C93.6977 36.5775 93.9124 36.5967 94.1169 36.6574C94.3214 36.7182 94.5117 36.8191 94.6765 36.9544C95.4136 37.5202 96.8809 38.9028 97.1078 41.028C97.1078 41.028 97.6961 45.0944 95.7716 45.395C95.7716 45.395 91.7667 45.6354 90.9161 44.6064C90.9161 44.6064 90.466 44.2033 90.4624 43.1708" stroke="#ADB2C2" stroke-width="0.791667" stroke-linecap="round" stroke-linejoin="round"/>
<path d="M97.0543 40.6389C97.0543 40.6389 98.0184 37.1984 99.8897 38.4112C99.8897 38.4112 102.016 39.6135 102.317 45.402C102.317 45.402 102.594 47.0003 99.5246 46.3143C99.5246 46.3143 96.8984 45.7945 97.026 43.885" stroke="#ADB2C2" stroke-width="0.791667" stroke-linecap="round" stroke-linejoin="round"/>
<path d="M101.368 40.5009C101.368 40.5009 102.254 38.298 104.03 40.0483C104.03 40.0483 107.308 43.054 106.578 46.6077C106.578 46.6077 106.514 48.4429 104.331 47.9196C104.331 47.9196 102.205 47.5659 102.027 46.3142" stroke="#ADB2C2" stroke-width="0.791667" stroke-linecap="round" stroke-linejoin="round"/>
<path d="M105.692 42.1914C105.692 42.1914 109.193 41.6787 111.214 46.371C111.287 46.5373 111.328 46.7162 111.334 46.8979C111.377 47.7996 111.334 50.4835 109.371 50.2819C109.058 50.7103 108.656 51.0657 108.192 51.3233C107.728 51.581 107.214 51.7349 106.684 51.7741C106.684 51.7741 105.975 51.8236 105.692 49.9813C105.692 49.9813 103.54 48.8321 103.753 47.7713" stroke="#ADB2C2" stroke-width="0.791667" stroke-linecap="round" stroke-linejoin="round"/>
<path d="M106.943 51.7738C106.943 51.7738 107.163 54.6522 108.581 55.7342C108.581 55.7342 110.222 57.5977 111.81 56.5829C111.921 56.5074 112.04 56.4434 112.164 56.3919C112.727 56.1692 114.429 55.4054 114.535 54.3304C114.535 54.3304 114.765 50.9853 113.443 48.7081C113.443 48.7081 112.348 46.8092 111.317 46.6077" stroke="#ADB2C2" stroke-width="0.791667" stroke-linecap="round" stroke-linejoin="round"/>
<path d="M114.552 52.0995C115.419 52.5988 116.097 53.3694 116.48 54.2918C116.652 54.6833 116.864 55.0555 117.115 55.4022C117.473 55.8693 117.788 56.3675 118.057 56.8908C118.181 57.1552 118.252 57.441 118.267 57.7324C118.327 58.5634 118.348 60.6108 117.334 61.6963C117.083 61.956 116.745 62.1156 116.385 62.1454C115.828 62.2215 115.264 62.2215 114.708 62.1454C114.661 62.1341 114.612 62.1364 114.566 62.1521C114.52 62.1678 114.48 62.1961 114.449 62.2338C114.166 62.5874 113.333 63.4679 112.231 63.5032C111.844 63.5051 111.466 63.3875 111.149 63.1666C110.831 62.9456 110.59 62.6322 110.459 62.2692C109.924 60.8547 108.906 57.835 109.473 56.463" stroke="#ADB2C2" stroke-width="0.791667" stroke-linecap="round" stroke-linejoin="round"/>
<path d="M111.426 63.3653C111.426 63.3653 111.362 69.2033 114.435 69.4685C114.536 69.4791 114.638 69.4791 114.74 69.4685C115.253 69.4231 115.744 69.2359 116.157 68.9281C116.57 68.6202 116.889 68.2037 117.079 67.7252C117.079 67.7252 120.137 68.1743 120.783 65.8476C120.783 65.8476 122.133 61.6786 118.302 59.1573" stroke="#ADB2C2" stroke-width="0.791667" stroke-linecap="round" stroke-linejoin="round"/>
<path d="M113.55 69.2032C113.55 69.2032 114.216 73.4465 117.448 72.5731C117.754 72.4821 118.035 72.3238 118.271 72.1099C118.704 71.7143 119.231 71.4356 119.802 71.3001C120.519 71.1645 121.159 70.7627 121.592 70.1756C121.95 69.6882 122.132 69.0932 122.105 68.4889C122.074 67.2938 121.879 65.0342 120.893 65.3065" stroke="#ADB2C2" stroke-width="0.791667" stroke-linecap="round" stroke-linejoin="round"/>
<path d="M69.0625 50.0414C69.0625 50.0414 66.8155 51.919 66.5107 53.7967" stroke="#ADB2C2" stroke-width="0.791667" stroke-linecap="round" stroke-linejoin="round"/>
<path d="M71.8309 45.8617C71.8309 45.8617 69.669 47.6297 69.9738 48.9805" stroke="#ADB2C2" stroke-width="0.791667" stroke-linecap="round" stroke-linejoin="round"/>
<path d="M74.1629 47.3185C74.1629 47.3185 73.4328 48.7081 72.2207 48.5879" stroke="#ADB2C2" stroke-width="0.791667" stroke-linecap="round" stroke-linejoin="round"/>
<path d="M73.1918 48.5951C73.1574 48.9349 73.1574 49.2772 73.1918 49.617" stroke="#ADB2C2" stroke-width="0.791667" stroke-linecap="round" stroke-linejoin="round"/>
<path d="M78.2282 45.8617C78.2282 45.8617 76.1017 47.0286 75.7969 47.6297" stroke="#ADB2C2" stroke-width="0.791667" stroke-linecap="round" stroke-linejoin="round"/>
<path d="M103.239 45.8617C103.239 45.8617 105.366 48.542 106.131 47.6297" stroke="#ADB2C2" stroke-width="0.791667" stroke-linecap="round" stroke-linejoin="round"/>
<path d="M106.943 47.6263C106.943 47.6263 108.28 48.7225 108.946 48.5952" stroke="#ADB2C2" stroke-width="0.791667" stroke-linecap="round" stroke-linejoin="round"/>
<path d="M109.304 45.8617C109.304 45.8617 111.498 47.7818 111.214 48.6057" stroke="#ADB2C2" stroke-width="0.791667" stroke-linecap="round" stroke-linejoin="round"/>
<path d="M108.226 48.443V49.617" stroke="#ADB2C2" stroke-width="0.791667" stroke-linecap="round" stroke-linejoin="round"/>
<path d="M110.271 51.4945C110.271 51.4945 110.462 53.7364 112.223 53.7965" stroke="#ADB2C2" stroke-width="0.791667" stroke-linecap="round" stroke-linejoin="round"/>
<path d="M109.555 52.3115C109.555 52.3115 111.235 52.994 111.238 53.9629" stroke="#ADB2C2" stroke-width="0.791667" stroke-linecap="round" stroke-linejoin="round"/>
<path d="M112.224 50.0414C112.224 50.0414 114.028 51.1623 114.492 53.0541" stroke="#ADB2C2" stroke-width="0.791667" stroke-linecap="round" stroke-linejoin="round"/>
<path d="M113.798 57.1276C113.798 57.1276 113.015 58.8956 114.227 59.7124C114.585 59.8976 114.931 60.1067 115.262 60.3383" stroke="#ADB2C2" stroke-width="0.791667" stroke-linecap="round" stroke-linejoin="round"/>
<path d="M111.799 57.7994C111.799 57.7994 113.17 58.3723 113.521 59.4296C113.586 59.6448 113.59 59.8734 113.534 60.0909C113.478 60.3083 113.363 60.5064 113.202 60.6636C113.115 60.7525 113.032 60.8457 112.954 60.943" stroke="#ADB2C2" stroke-width="0.791667" stroke-linecap="round" stroke-linejoin="round"/>
<path d="M115.747 55.9749C115.747 55.9749 118.384 58.001 118.189 59.7125" stroke="#ADB2C2" stroke-width="0.791667" stroke-linecap="round" stroke-linejoin="round"/>
<path d="M115.747 63.365C115.747 63.365 115.747 65.964 117.835 65.8402" stroke="#ADB2C2" stroke-width="0.791667" stroke-linecap="round" stroke-linejoin="round"/>
<path d="M116.384 65.2816C116.384 65.2816 116.689 66.5758 116.218 66.5758" stroke="#ADB2C2" stroke-width="0.791667" stroke-linecap="round" stroke-linejoin="round"/>
<path d="M119.266 62.0922C119.266 62.0922 119.011 63.305 120.358 64.6063C120.358 64.6063 120.921 65.2852 120.854 65.5646" stroke="#ADB2C2" stroke-width="0.791667" stroke-linecap="round" stroke-linejoin="round"/>
<path d="M117.834 68.4536L118.536 69.9069" stroke="#ADB2C2" stroke-width="0.791667" stroke-linecap="round" stroke-linejoin="round"/>
<path d="M121.269 66.576C121.269 66.576 122.169 68.6128 122.052 69.1786" stroke="#ADB2C2" stroke-width="0.791667" stroke-linecap="round" stroke-linejoin="round"/>
<path d="M66.4014 88.0645C66.4014 88.0645 67.7871 88.7469 67.7871 86.8693C67.7871 86.8693 67.7162 75.8439 75.7969 68.4571C75.7969 68.4571 82.4175 62.0356 87.1383 66.5794" stroke="#ADB2C2" stroke-width="0.791667" stroke-linecap="round" stroke-linejoin="round"/>
<path d="M114.584 88.6619C114.584 88.6619 114.024 72.7497 104.685 67.1804C104.685 67.1804 97.4728 62.1521 94.7402 66.2716" stroke="#ADB2C2" stroke-width="0.791667" stroke-linecap="round" stroke-linejoin="round"/>
<path d="M71.9766 78.5879C71.9766 78.5879 78.0477 67.4847 84.6647 68.4536C84.6647 68.4536 87.9005 68.6693 87.943 72.0886C87.943 72.0886 87.8828 78.991 90.5516 78.991C90.5516 78.991 93.0112 79.3835 93.5464 75.8864C93.6355 75.2689 93.6451 74.6427 93.5747 74.0228C93.4613 72.8984 93.3727 70.3383 94.7408 69.1785C94.7408 69.1785 98.0475 66.2117 103.739 70.8156C103.739 70.8156 109.205 76.0349 109.449 78.5066" stroke="#ADB2C2" stroke-width="0.791667" stroke-linecap="round" stroke-linejoin="round"/>
<path d="M70.6611 75.3666C70.6611 75.3666 72.9046 80.1685 73.2661 84.1678" stroke="#ADB2C2" stroke-width="0.791667" stroke-linecap="round" stroke-linejoin="round"/>
<path d="M111.427 75.3667C111.427 75.3667 109.006 73.3582 109.555 80.3844C109.034 81.1429 108.685 82.0054 108.531 82.9122C108.378 83.8189 108.424 84.7481 108.666 85.6354" stroke="#ADB2C2" stroke-width="0.791667" stroke-linecap="round" stroke-linejoin="round"/>
<path d="M67.6982 87.6544C67.6982 87.6544 72.0824 82.2619 82.8886 83.7647C82.8886 83.7647 89.3283 84.6169 90.7141 86.4026C90.763 86.4692 90.8337 86.5166 90.914 86.5366C90.9943 86.5566 91.079 86.548 91.1536 86.5122C92.1353 86.0313 95.5803 84.479 99.4009 84.3906C99.6206 84.3906 109.594 84.0016 114.226 89.0299" stroke="#ADB2C2" stroke-width="0.791667" stroke-linecap="round" stroke-linejoin="round"/>
<path d="M58.3171 88.1389C58.3171 88.1389 59.7347 84.7831 63.371 87.8666C63.4115 87.9035 63.4609 87.9292 63.5144 87.941C63.5679 87.9527 63.6236 87.9503 63.6759 87.9338C64.413 87.7075 67.3866 87.025 67.9714 90.6813C67.9714 90.6813 67.6666 92.7393 66.9967 92.619C66.9967 92.619 65.8449 92.0851 64.934 92.619C64.934 92.619 60.8689 92.1275 60.2593 93.7647C60.2557 93.7718 56.7399 92.2548 58.3171 88.1389Z" stroke="#ADB2C2" stroke-width="0.791667" stroke-linecap="round" stroke-linejoin="round"/>
<path d="M60.2556 93.7716C60.2556 93.7716 57.9484 97.6613 62.3219 100.674C62.3219 100.674 63.7147 98.7857 65.7172 99.0014C65.882 99.0224 66.0493 98.9915 66.1957 98.913C66.8478 98.5594 68.7829 97.6507 69.6831 99.1005C69.6831 99.1005 69.9702 96.1089 69.233 95.1719C68.9718 94.8355 68.735 94.481 68.5242 94.1111C68.1897 93.4555 67.6513 92.9257 66.9895 92.6012" stroke="#ADB2C2" stroke-width="0.791667" stroke-linecap="round" stroke-linejoin="round"/>
<path d="M62.3255 100.674C62.3255 100.674 62.0738 105.582 64.5654 105.883C64.5654 105.883 65.7243 102.902 67.9713 103.28C67.9713 103.28 70.4522 102.612 71.2461 103.28C71.2801 102.515 71.1596 101.75 70.8917 101.032C70.6238 100.314 70.214 99.6575 69.6867 99.1006" stroke="#ADB2C2" stroke-width="0.791667" stroke-linecap="round" stroke-linejoin="round"/>
<path d="M69.4707 112.481C69.4707 112.481 66.4049 112.608 65.8591 110.246C65.8591 110.246 63.0238 107.944 64.5797 105.883" stroke="#ADB2C2" stroke-width="0.791667" stroke-linecap="round" stroke-linejoin="round"/>
<path d="M72.5215 106.551C72.5215 106.551 73.4394 106.639 74.5488 107.926C75.1754 108.655 75.6275 109.516 75.8707 110.444C75.9522 110.745 75.9912 110.996 75.9204 111.07" stroke="#ADB2C2" stroke-width="0.791667" stroke-linecap="round" stroke-linejoin="round"/>
<path d="M74.3829 117.17C74.8507 117.699 75.3899 118.161 75.9849 118.542C77.9697 119.659 79.4936 119.79 80.1174 117.835C80.4435 116.816 80.0572 115.971 80.0359 114.907C80.0359 114.475 80.3301 113.779 80.2911 113.429C80.1919 112.534 78.0299 110.663 76.9667 110.646C75.3363 110.617 74.8898 112.983 74.7586 114.489C74.709 115.062 74.6381 115.628 74.5424 116.194L74.3829 117.152C72.9263 117.152 71.3491 115.844 71.3491 115.844C69.1234 113.8 69.1234 110.409 70.0945 107.987C71.5512 107.987 72.5223 107.502 72.5223 106.533C72.5223 105.564 72.5223 103.627 71.2464 103.262" stroke="#ADB2C2" stroke-width="0.791667" stroke-linecap="round" stroke-linejoin="round"/>
<path d="M80.2236 117.368C80.2236 117.368 81.9532 121.042 83.3638 121.71C83.4841 121.762 83.6137 121.788 83.7448 121.788C83.8758 121.788 84.0054 121.762 84.1257 121.71C84.6538 121.512 85.5434 120.876 85.6745 118.853C85.6745 118.853 85.6745 114.009 84.746 113.687C84.746 113.687 82.6195 111.827 80.291 113.436" stroke="#ADB2C2" stroke-width="0.791667" stroke-linecap="round" stroke-linejoin="round"/>
<path d="M85.5004 115.865C85.5004 115.865 85.2168 113.991 86.6062 113.818C86.6062 113.818 90.9371 113.089 90.8131 114.684C90.8131 114.684 91.0258 118.096 90.4587 119.832C90.4587 119.832 89.6896 122.35 88.1479 121.813C86.9873 121.165 86.1047 120.116 85.667 118.863" stroke="#ADB2C2" stroke-width="0.791667" stroke-linecap="round" stroke-linejoin="round"/>
<path d="M90.8133 114.684C90.8133 114.684 90.8133 113.644 92.3409 113.623C92.6528 113.623 92.9611 113.623 93.2659 113.591C94.12 113.517 95.8425 113.513 95.8744 114.68C95.8744 114.68 95.7929 119.104 95.1868 119.91C95.1868 119.91 93.9641 122.163 92.7059 121.912C92.5311 121.871 92.3722 121.78 92.2487 121.65C91.3876 120.811 90.8516 119.695 90.7354 118.499" stroke="#ADB2C2" stroke-width="0.791667" stroke-linecap="round" stroke-linejoin="round"/>
<path d="M95.8746 114.684C95.8746 114.684 95.8746 113.772 97.8699 113.595C98.2583 113.563 98.6442 113.506 99.0253 113.425C99.7944 113.259 101.077 113.093 101.152 113.857C101.403 115.75 101.049 117.674 100.142 119.355C100.142 119.355 99.0218 121.873 97.3879 121.533C97.0788 121.459 96.8002 121.291 96.5905 121.052C96.1723 120.603 95.4315 119.68 95.5485 118.86" stroke="#ADB2C2" stroke-width="0.791667" stroke-linecap="round" stroke-linejoin="round"/>
<path d="M100.875 113.439C101.053 113.052 101.313 112.708 101.637 112.431C101.961 112.155 102.342 111.952 102.753 111.837C102.753 111.837 104.696 109.776 105.709 111.07C105.709 111.07 107.286 114.341 106.315 116.887C106.315 116.887 105.649 119.507 103.898 119.716C103.572 119.748 103.243 119.689 102.948 119.546C102.328 119.263 101.134 118.612 100.875 117.707" stroke="#ADB2C2" stroke-width="0.791667" stroke-linecap="round" stroke-linejoin="round"/>
<path d="M105.323 110.748C105.329 110.274 105.435 109.806 105.635 109.375C105.835 108.944 106.123 108.56 106.482 108.248C106.57 108.173 106.651 108.089 106.723 107.997C107 107.644 107.914 106.636 109.204 107.205C109.474 107.335 109.72 107.509 109.934 107.718C110.078 107.844 110.248 107.938 110.431 107.994C110.614 108.05 110.807 108.067 110.997 108.043C110.997 108.043 112.061 107.718 111.806 111.07C111.806 111.07 111.845 113.118 111.065 114.528C110.91 114.801 110.697 115.037 110.441 115.218C109.548 115.876 107.209 117.421 106.518 116.12" stroke="#ADB2C2" stroke-width="0.791667" stroke-linecap="round" stroke-linejoin="round"/>
<path d="M108.591 107.042C108.575 106.43 108.705 105.822 108.969 105.269C109.233 104.716 109.625 104.233 110.112 103.86C110.35 103.661 110.627 103.515 110.927 103.432C111.65 103.232 112.418 103.26 113.124 103.513C113.26 103.566 113.408 103.584 113.553 103.566C114.127 103.489 115.821 103.471 116.828 105.723C116.948 105.992 116.987 106.289 116.941 106.579C116.746 107.856 115.974 111.512 113.603 111.48C113.322 111.597 113.021 111.657 112.717 111.657C112.412 111.657 112.111 111.597 111.83 111.48" stroke="#ADB2C2" stroke-width="0.791667" stroke-linecap="round" stroke-linejoin="round"/>
<path d="M110.264 103.74C110.264 103.74 109.52 102.074 111.349 99.8994L111.427 99.8075C111.583 99.6272 111.724 99.4539 111.855 99.3231C113.103 97.9511 113.273 98.1668 114.443 98.4674C114.812 98.56 115.189 98.6192 115.57 98.6442C116.243 98.6937 117.732 98.9624 118.497 100.37C118.497 100.37 119.599 102.035 118.703 103.46C118.554 103.7 118.419 103.948 118.299 104.203C118.019 104.793 117.473 105.745 116.853 105.776" stroke="#ADB2C2" stroke-width="0.791667" stroke-linecap="round" stroke-linejoin="round"/>
<path d="M111.855 99.3234C111.855 99.3234 111.458 96.7385 112.791 94.8396C112.791 94.8396 112.752 92.7428 115.389 92.5518C115.534 92.5518 115.679 92.5235 115.821 92.4988C116.704 92.3326 120.326 91.834 121.187 94.6204C121.373 95.2758 121.373 95.97 121.187 96.6254C120.815 98.0398 119.893 101.113 118.897 101.258" stroke="#ADB2C2" stroke-width="0.791667" stroke-linecap="round" stroke-linejoin="round"/>
<path d="M114.173 92.8345C114.173 92.8345 112.667 90.5573 114.464 88.7751C114.955 88.3058 115.569 87.9836 116.236 87.8452C116.77 87.7199 117.321 87.6876 117.866 87.7497C117.909 87.7566 117.952 87.7542 117.994 87.7426C118.036 87.731 118.074 87.7105 118.107 87.6825C118.571 87.2758 120.588 85.7377 122.651 87.4703C123.052 87.7971 123.357 88.226 123.533 88.7115C123.863 89.6309 124.118 91.3494 122.704 93.3862C122.704 93.3862 121.672 94.7794 121.095 94.3869" stroke="#ADB2C2" stroke-width="0.791667" stroke-linecap="round" stroke-linejoin="round"/>
<path d="M115.747 88.9061C115.747 88.9061 116.516 88.9839 117.002 90.2781C117.002 90.2781 117.356 88.3757 118.519 88.457" stroke="#ADB2C2" stroke-width="0.791667" stroke-linecap="round" stroke-linejoin="round"/>
<path d="M121.371 87.6543C121.371 87.6543 121.573 90.7625 118.741 90.2781" stroke="#ADB2C2" stroke-width="0.791667" stroke-linecap="round" stroke-linejoin="round"/>
<path d="M115.098 94.2348C115.098 94.2348 116.189 94.8395 116.189 95.6881C116.189 95.6881 117.253 93.9201 117.727 94.2348" stroke="#ADB2C2" stroke-width="0.791667" stroke-linecap="round" stroke-linejoin="round"/>
<path d="M116.189 95.6882C116.189 95.6882 115.987 97.1027 115.098 97.184" stroke="#ADB2C2" stroke-width="0.791667" stroke-linecap="round" stroke-linejoin="round"/>
<path d="M115.098 95.9323C115.098 95.9323 115.721 94.9316 116.14 95.37" stroke="#ADB2C2" stroke-width="0.791667" stroke-linecap="round" stroke-linejoin="round"/>
<path d="M119.752 94.8396C119.752 94.8396 119.33 97.5058 117.133 97.5871" stroke="#ADB2C2" stroke-width="0.791667" stroke-linecap="round" stroke-linejoin="round"/>
<path d="M113.581 99.4436C113.581 99.4436 114.29 99.4012 114.29 100.246" stroke="#ADB2C2" stroke-width="0.791667" stroke-linecap="round" stroke-linejoin="round"/>
<path d="M115.261 99.9279C115.261 99.9279 112.993 100.635 113.237 101.272" stroke="#ADB2C2" stroke-width="0.791667" stroke-linecap="round" stroke-linejoin="round"/>
<path d="M117.132 100.6C117.132 100.6 116.232 103.4 115.098 102.753" stroke="#ADB2C2" stroke-width="0.791667" stroke-linecap="round" stroke-linejoin="round"/>
<path d="M113.22 105.055C113.22 105.055 111.214 105.617 111.618 107.477" stroke="#ADB2C2" stroke-width="0.791667" stroke-linecap="round" stroke-linejoin="round"/>
<path d="M111.855 104.61C111.855 104.61 112.064 106.731 110.792 106.59" stroke="#ADB2C2" stroke-width="0.791667" stroke-linecap="round" stroke-linejoin="round"/>
<path d="M115.098 105.055C115.098 105.055 114.496 107.53 113.22 107.842" stroke="#ADB2C2" stroke-width="0.791667" stroke-linecap="round" stroke-linejoin="round"/>
<path d="M108.176 108.69C108.176 108.69 108.58 110.105 107.205 110.458" stroke="#ADB2C2" stroke-width="0.791667" stroke-linecap="round" stroke-linejoin="round"/>
<path d="M108.021 109.921C108.021 109.921 108.864 109.012 109.311 109.415" stroke="#ADB2C2" stroke-width="0.791667" stroke-linecap="round" stroke-linejoin="round"/>
<path d="M110.81 109.578C110.81 109.578 110.03 111.554 108.233 111.395" stroke="#ADB2C2" stroke-width="0.791667" stroke-linecap="round" stroke-linejoin="round"/>
<path d="M102.389 113.015C102.389 113.015 103.657 110.642 104.49 110.695" stroke="#ADB2C2" stroke-width="0.791667" stroke-linecap="round" stroke-linejoin="round"/>
<path d="M76.9668 110.663C77.7883 111.31 78.4777 112.109 78.9976 113.015" stroke="#ADB2C2" stroke-width="0.791667" stroke-linecap="round" stroke-linejoin="round"/>
<path d="M73.291 108.69C73.3107 109.041 73.4057 109.383 73.5696 109.693C73.7335 110.004 73.9624 110.276 74.2408 110.49" stroke="#ADB2C2" stroke-width="0.791667" stroke-linecap="round" stroke-linejoin="round"/>
<path d="M73.5068 109.578C73.5068 109.578 72.6278 109.054 72.4932 109.578" stroke="#ADB2C2" stroke-width="0.791667" stroke-linecap="round" stroke-linejoin="round"/>
<path d="M70.417 109.461C70.417 109.461 70.5481 111.618 73.0007 111.657" stroke="#ADB2C2" stroke-width="0.791667" stroke-linecap="round" stroke-linejoin="round"/>
<path d="M67.9717 104.61C67.9717 104.61 70.1974 106.303 69.7438 107.477" stroke="#ADB2C2" stroke-width="0.791667" stroke-linecap="round" stroke-linejoin="round"/>
<path d="M69.2434 104.61C69.2434 104.61 68.3148 105.861 70.4165 106.045" stroke="#ADB2C2" stroke-width="0.791667" stroke-linecap="round" stroke-linejoin="round"/>
<path d="M66.21 105.055C66.21 105.055 66.5325 107.396 67.9821 107.842" stroke="#ADB2C2" stroke-width="0.791667" stroke-linecap="round" stroke-linejoin="round"/>
<path d="M67.9712 99.1216C67.9712 99.1216 66.2913 99.7899 68.152 101.271" stroke="#ADB2C2" stroke-width="0.791667" stroke-linecap="round" stroke-linejoin="round"/>
<path d="M67.3016 100.197C67.3016 100.197 66.412 99.4434 66.21 99.9279" stroke="#ADB2C2" stroke-width="0.791667" stroke-linecap="round" stroke-linejoin="round"/>
<path d="M64.0977 100.6C64.0977 100.6 64.9553 102.432 66.0079 102.633" stroke="#ADB2C2" stroke-width="0.791667" stroke-linecap="round" stroke-linejoin="round"/>
<path d="M59.9007 87.6543C59.9007 87.6543 59.7412 91.0029 62.9274 90.3594" stroke="#ADB2C2" stroke-width="0.791667" stroke-linecap="round" stroke-linejoin="round"/>
<path d="M65.7247 89.0477C65.7247 89.0477 64.8245 89.4508 65.0513 90.1686C65.2781 90.8865 62.6094 88.4572 62.6094 88.4572" stroke="#ADB2C2" stroke-width="0.791667" stroke-linecap="round" stroke-linejoin="round"/>
<path d="M66.2093 97.1841C66.025 96.1233 63.8418 94.1962 63.8418 94.1962" stroke="#ADB2C2" stroke-width="0.791667" stroke-linecap="round" stroke-linejoin="round"/>
<path d="M62.0811 95.2568C62.0811 95.2568 62.1838 97.283 64.165 97.5871" stroke="#ADB2C2" stroke-width="0.791667" stroke-linecap="round" stroke-linejoin="round"/>
<path d="M66.2094 94.1962C66.2094 94.1962 66.0393 95.7237 65.3057 95.5929" stroke="#ADB2C2" stroke-width="0.791667" stroke-linecap="round" stroke-linejoin="round"/>
<path d="M90.884 90.561C90.884 90.561 89.4663 99.7548 90.884 106.265" stroke="#ADB2C2" stroke-width="0.791667" stroke-linecap="round" stroke-linejoin="round"/>
<path d="M71.1181 85.2145C71.1181 85.2145 65.4474 87.3361 74.0385 102.633C74.0385 102.633 80.2904 113.446 90.8839 113.015C90.8839 113.015 101.272 113.616 108.077 103.277C108.472 102.677 108.805 102.04 109.073 101.374C110.412 98.0574 114.268 87.3043 108.665 85.6353" stroke="#ADB2C2" stroke-width="0.791667" stroke-linecap="round" stroke-linejoin="round"/>
<path d="M90.4658 33.6268C90.9076 32.1659 90.9076 30.6075 90.4658 29.1466" stroke="#ADB2C2" stroke-width="0.791667" stroke-linecap="round" stroke-linejoin="round"/>
<path d="M87.1519 33.0222C87.1519 33.0222 87.1519 30.1014 85.4472 29.9918C85.4472 29.9918 75.1478 30.0838 69.0412 38.0328C69.0412 38.0328 66.3795 40.7096 69.3673 42.1912" stroke="#ADB2C2" stroke-width="0.791667" stroke-linecap="round" stroke-linejoin="round"/>
<path d="M66.7557 44.7725C66.7557 44.7725 66.5112 42.1027 64.8277 43.1529C64.8277 43.1529 56.4953 48.404 55.1592 62.092" stroke="#ADB2C2" stroke-width="0.791667" stroke-linecap="round" stroke-linejoin="round"/>
<path d="M93.3125 32.2939C93.3125 32.2939 94.0213 29.3872 97.7781 31.3851C97.7781 31.3851 109.612 35.685 111.345 40.0484C111.345 40.0484 111.313 41.2542 109.928 42.1029" stroke="#ADB2C2" stroke-width="0.791667" stroke-linecap="round" stroke-linejoin="round"/>
<path d="M113.358 44.4084C113.358 44.4084 113.904 41.9862 116.587 44.4084C116.587 44.4084 124.973 51.2719 126.915 63.8285" stroke="#ADB2C2" stroke-width="0.791667" stroke-linecap="round" stroke-linejoin="round"/>
<path d="M125.093 69.5532C125.093 69.5532 125.253 78.2696 118.756 75.7767C118.222 75.5667 117.723 75.2756 117.278 74.9139C116.148 74.0051 113.684 72.2583 113.358 72.1487" stroke="#ADB2C2" stroke-width="0.791667" stroke-linecap="round" stroke-linejoin="round"/>
<path d="M61.0781 75.3664C61.0781 75.3664 65.239 79.1677 67.9715 72.6896C68.5424 71.4669 69.2121 70.2926 69.974 69.1783" stroke="#ADB2C2" stroke-width="0.791667" stroke-linecap="round" stroke-linejoin="round"/>
<path d="M90.8379 126.657C90.8379 126.657 90.6748 130.547 90.8839 131.021" stroke="#ADB2C2" stroke-width="0.791667" stroke-linecap="round" stroke-linejoin="round"/>
<path d="M90.4909 124.719C90.4909 124.719 89.2824 129.316 80.2943 126.657C80.2943 126.657 62.6515 120.239 66.9186 114.666" stroke="#ADB2C2" stroke-width="0.791667" stroke-linecap="round" stroke-linejoin="round"/>
<path d="M65.5259 113.283C65.5259 113.283 62.3609 115.607 57.9095 106.597C57.9095 106.597 53.7025 96.0487 53.582 94.454" stroke="#ADB2C2" stroke-width="0.791667" stroke-linecap="round" stroke-linejoin="round"/>
<path d="M56.5369 89.0328C57.3769 85.0347 61.2264 84.6396 63.3701 85.2064C64.978 85.2064 69.3994 87.3322 69.3994 90.7334C69.3994 94.1346 66.5858 96.6855 62.5662 95.8352C58.5467 94.9849 55.733 92.8592 56.5369 89.0328Z" stroke="#2E78C5" stroke-width="0.7"/>
<path d="M92.3125 124.839C92.3125 124.839 92.3586 128.839 99.6808 125.932C99.6808 125.932 116.693 120.087 113.549 115.193" stroke="#ADB2C2" stroke-width="0.791667" stroke-linecap="round" stroke-linejoin="round"/>
<path d="M115.619 113.284C115.619 113.284 121.329 121.208 129.828 97.587C129.828 97.587 131.408 92.9229 129.828 90.1613" stroke="#ADB2C2" stroke-width="0.791667" stroke-linecap="round" stroke-linejoin="round"/>
<path d="M90.8379 46.3391C90.8379 46.3391 91.3624 52.7995 90.884 55.9607" stroke="#ADB2C2" stroke-width="0.791667" stroke-linecap="round" stroke-linejoin="round"/>
<path d="M91.0469 58.7328V60.3382" stroke="#ADB2C2" stroke-width="0.791667" stroke-linecap="round" stroke-linejoin="round"/>
<path d="M91.0512 61.6078C91.0512 61.6078 90.8811 63.6269 91.0512 63.8284" stroke="#ADB2C2" stroke-width="0.791667" stroke-linecap="round" stroke-linejoin="round"/>
<path d="M80.3154 50.9535C80.3154 50.9535 81.2688 50.8686 82.169 50.8403C83.2563 50.8058 84.3387 50.6804 85.4049 50.4655H85.451C86.3296 50.2732 87.2199 50.1386 88.1162 50.0624" stroke="#ADB2C2" stroke-width="0.791667" stroke-linecap="round" stroke-linejoin="round"/>
<path d="M80.8115 54.182C80.8115 54.182 81.6338 54.1501 82.4135 54.182C83.2848 54.2051 84.1565 54.1519 85.0185 54.0228L85.3162 53.9733C86.0894 53.8268 86.8724 53.7382 87.6589 53.7081" stroke="#ADB2C2" stroke-width="0.791667" stroke-linecap="round" stroke-linejoin="round"/>
<path d="M93.6523 53.1884C93.6523 53.1884 94.4604 53.3581 95.2118 53.5632C96.0363 53.7928 96.8795 53.949 97.7317 54.0299L98.0861 54.0582C98.8713 54.1036 99.6521 54.2077 100.422 54.3694" stroke="#ADB2C2" stroke-width="0.791667" stroke-linecap="round" stroke-linejoin="round"/>
<path d="M93.4824 49.8751C93.4824 49.8751 94.4181 50.0873 95.2829 50.3313C96.3264 50.6296 97.3935 50.839 98.4726 50.9572H98.5329C99.4295 51.0396 100.32 51.1801 101.198 51.3779" stroke="#ADB2C2" stroke-width="0.791667" stroke-linecap="round" stroke-linejoin="round"/>
<path d="M90.4662 20.3029C90.4662 20.3029 70.6188 19.5745 60.3407 33.6268C60.3407 33.6268 52.6215 45.6494 47.766 47.817C47.766 47.817 29.0669 55.469 15.833 46.6076L16.2477 50.7908L19.2319 81.1125L16.3186 113.644C16.3186 113.644 36.4743 107.735 49.9492 121.07C49.9492 121.07 66.6068 140.582 91.0616 139.613C91.0616 139.613 112.125 139.846 126.333 123.821C126.919 123.149 127.572 122.539 128.282 122C132.036 119.213 143.707 112.725 164.805 119.348L158.816 83.5134L166.9 43.7222C166.9 43.7222 135.218 52.6649 123.459 38.9874C123.459 38.9874 108.899 18.3652 90.4662 20.3029Z" stroke="#ADB2C2" stroke-width="0.791667" stroke-linecap="round" stroke-linejoin="round"/>
<path d="M28.6523 64.928C28.6523 64.928 30.7576 69.6592 32.8628 64.928" stroke="#ADB2C2" stroke-width="0.791667" stroke-linecap="round" stroke-linejoin="round"/>
<path d="M143.189 62.916C143.189 62.916 145.295 67.6473 147.396 62.916" stroke="#ADB2C2" stroke-width="0.791667" stroke-linecap="round" stroke-linejoin="round"/>
<path d="M53.582 42.803C56.7044 35.8263 60.642 29.0123 66.2383 23.7083C69.0111 21.0492 72.2033 18.863 75.687 17.2373C77.8352 16.2249 80.2221 15.8247 82.584 16.081C84.6467 16.2932 87.0107 17.5909 89.0521 17.0216C89.0521 17.0216 97.3313 14.9707 100.393 16.2578C100.393 16.2578 110.789 19.4933 115.609 27.0852C115.609 27.0852 122.119 37.0604 125.072 40.6354" stroke="#ADB2C2" stroke-width="0.791667" stroke-linecap="round" stroke-linejoin="round"/>
<path d="M48.4922 119.741C48.4922 119.741 61.8502 135.936 68.8853 139.656C68.8853 139.656 78.9969 145.388 89.8846 145.313C89.8846 145.313 103.331 145.313 112.39 138.772C112.39 138.772 121.208 134.047 127.765 125.688C127.765 125.688 130.976 120.922 133.559 119.065" stroke="#ADB2C2" stroke-width="0.791667" stroke-linecap="round" stroke-linejoin="round"/>
<path d="M74.9643 86.3849C74.9587 86.5108 74.9162 86.6323 74.842 86.7344C74.7679 86.8364 74.6653 86.9145 74.547 86.9589C74.4288 87.0033 74.3001 87.0121 74.1769 86.9841C74.0537 86.9562 73.9414 86.8928 73.854 86.8018C73.7666 86.7107 73.708 86.5961 73.6853 86.4721C73.6626 86.3481 73.6769 86.2202 73.7265 86.1042C73.776 85.9883 73.8586 85.8894 73.964 85.8198C74.0694 85.7503 74.1929 85.7131 74.3192 85.713C74.4058 85.7149 74.4912 85.7337 74.5704 85.7685C74.6497 85.8032 74.7214 85.8532 74.7813 85.9156C74.8412 85.978 74.8881 86.0516 74.9195 86.1321C74.9509 86.2126 74.9661 86.2985 74.9643 86.3849Z" stroke="#ADB2C2" stroke-width="0.791667"/>
<path d="M80.1274 85.416C80.1218 85.5419 80.0793 85.6635 80.0051 85.7655C79.931 85.8676 79.8284 85.9456 79.7101 85.99C79.5919 86.0344 79.4632 86.0432 79.34 86.0153C79.2168 85.9873 79.1045 85.9239 79.0171 85.8329C78.9297 85.7419 78.871 85.6272 78.8484 85.5032C78.8257 85.3792 78.84 85.2513 78.8896 85.1353C78.9391 85.0194 79.0217 84.9205 79.1271 84.851C79.2324 84.7814 79.356 84.7443 79.4823 84.7441C79.5689 84.746 79.6542 84.7648 79.7335 84.7996C79.8128 84.8343 79.8844 84.8843 79.9443 84.9467C80.0042 85.0091 80.0512 85.0827 80.0826 85.1632C80.114 85.2437 80.1292 85.3296 80.1274 85.416V85.416Z" stroke="#ADB2C2" stroke-width="0.791667"/>
<path d="M85.8305 86.3849C85.8249 86.511 85.7823 86.6326 85.708 86.7347C85.6336 86.8369 85.5309 86.9149 85.4124 86.9592C85.294 87.0035 85.1651 87.0121 85.0418 86.9839C84.9185 86.9556 84.8063 86.8919 84.719 86.8005C84.6318 86.7091 84.5734 86.5941 84.5511 86.4699C84.5288 86.3457 84.5436 86.2177 84.5937 86.1018C84.6438 85.9859 84.7269 85.8872 84.8328 85.8181C84.9386 85.749 85.0625 85.7124 85.189 85.713C85.2754 85.7149 85.3606 85.7337 85.4397 85.7685C85.5188 85.8033 85.5901 85.8534 85.6498 85.9158C85.7094 85.9783 85.7561 86.0519 85.7871 86.1324C85.8181 86.2129 85.8328 86.2987 85.8305 86.3849V86.3849Z" stroke="#ADB2C2" stroke-width="0.791667"/>
<path d="M96.356 87.1663C96.3511 87.2924 96.3092 87.4143 96.2355 87.5168C96.1617 87.6193 96.0593 87.698 95.9411 87.7429C95.8229 87.7878 95.6941 87.7971 95.5706 87.7695C95.4472 87.742 95.3346 87.6788 95.2468 87.5879C95.1591 87.497 95.1 87.3823 95.0771 87.2582C95.0542 87.1341 95.0683 87.006 95.1178 86.8898C95.1672 86.7737 95.2498 86.6746 95.3553 86.6049C95.4608 86.5352 95.5845 86.498 95.711 86.4979C95.8852 86.5016 96.0509 86.574 96.1717 86.6993C96.2926 86.8245 96.3589 86.9924 96.356 87.1663Z" stroke="#ADB2C2" stroke-width="0.791667"/>
<path d="M101.889 86.498C101.884 86.6241 101.842 86.746 101.769 86.8486C101.695 86.9511 101.593 87.0297 101.474 87.0747C101.356 87.1196 101.227 87.1288 101.104 87.1013C100.98 87.0737 100.868 87.0106 100.78 86.9197C100.692 86.8288 100.633 86.7141 100.61 86.59C100.587 86.4659 100.602 86.3378 100.651 86.2216C100.7 86.1055 100.783 86.0064 100.889 85.9367C100.994 85.867 101.118 85.8298 101.244 85.8297C101.418 85.8334 101.584 85.9058 101.705 86.0311C101.826 86.1563 101.892 86.3242 101.889 86.498Z" stroke="#ADB2C2" stroke-width="0.791667"/>
<path d="M107.343 87.1663C107.338 87.2924 107.297 87.4143 107.223 87.5168C107.149 87.6193 107.047 87.698 106.928 87.7429C106.81 87.7878 106.681 87.7971 106.558 87.7695C106.434 87.742 106.322 87.6788 106.234 87.5879C106.146 87.497 106.087 87.3823 106.064 87.2582C106.041 87.1341 106.056 87.006 106.105 86.8898C106.155 86.7737 106.237 86.6746 106.343 86.6049C106.448 86.5352 106.572 86.498 106.698 86.4979C106.872 86.5016 107.038 86.574 107.159 86.6993C107.28 86.8245 107.346 86.9924 107.343 87.1663V87.1663Z" stroke="#ADB2C2" stroke-width="0.791667"/>
<path d="M234.92 67.8338C234.902 67.8963 234.867 67.9525 234.818 67.9962C234.77 68.04 234.711 68.0696 234.647 68.0818C234.583 68.0941 234.516 68.0885 234.455 68.0656C234.394 68.0427 234.341 68.0035 234.301 67.9522C234.261 67.901 234.235 67.8397 234.228 67.775C234.22 67.7104 234.231 67.645 234.258 67.586C234.286 67.5269 234.329 67.4766 234.383 67.4405C234.437 67.4043 234.501 67.3838 234.566 67.3812C234.672 67.3954 234.769 67.4507 234.836 67.5353C234.902 67.62 234.932 67.7271 234.92 67.8338Z" fill="#ADB2C2" stroke="#ADB2C2" stroke-width="0.791667" stroke-linecap="round" stroke-linejoin="round"/>
<path d="M243.03 67.9646C243.012 68.0274 242.977 68.0841 242.929 68.1284C242.881 68.1727 242.822 68.2029 242.758 68.2157C242.693 68.2284 242.627 68.2232 242.566 68.2006C242.504 68.178 242.45 68.1389 242.41 68.0876C242.369 68.0364 242.344 67.9749 242.336 67.9101C242.329 67.8453 242.339 67.7797 242.367 67.7204C242.394 67.6612 242.437 67.6107 242.492 67.5746C242.546 67.5384 242.61 67.5179 242.675 67.5155C242.781 67.5305 242.877 67.5855 242.943 67.6692C243.009 67.7528 243.04 67.8586 243.03 67.9646Z" fill="#ADB2C2" stroke="#ADB2C2" stroke-width="0.791667" stroke-linecap="round" stroke-linejoin="round"/>
<path d="M212.167 59.7646C212.167 59.7646 216.991 62.5934 222.445 48.2476C222.445 48.2476 227.974 31.5646 238.851 31.6671C238.851 31.6671 250.749 31.8687 255.895 49.7363C255.895 49.7363 260.077 61.6988 264.901 60.9633" stroke="#ADB2C2" stroke-width="0.791667" stroke-linecap="round" stroke-linejoin="round"/>
<path d="M238.476 33.4988L238.469 53.7285" stroke="#ADB2C2" stroke-width="0.791667" stroke-linecap="round" stroke-linejoin="round"/>
<path d="M238.599 57.6428C238.599 57.6428 238.801 67.6322 237.621 68.3924" stroke="#ADB2C2" stroke-width="0.791667" stroke-linecap="round" stroke-linejoin="round"/>
<path d="M240.322 67.7986C240.322 67.7986 238.333 65.8502 238.475 64.4535" stroke="#ADB2C2" stroke-width="0.791667" stroke-linecap="round" stroke-linejoin="round"/>
<path d="M188.417 128.784C188.417 128.784 200.74 120.446 206.542 115.114C206.542 115.114 216.788 103.509 227.371 104.506C227.371 104.506 238.521 105.107 232.265 111.893C231.673 112.528 231.025 113.11 230.33 113.632C228.53 114.997 223.508 119.11 222.179 123.36C222.108 123.586 222.048 123.813 221.97 124.035C221.615 125.061 221.084 127.95 221.392 129.782" stroke="#ADB2C2" stroke-width="0.791667" stroke-linecap="round" stroke-linejoin="round"/>
<path d="M229.849 107.554C229.849 107.554 222.789 109.471 220.166 112.444" stroke="#ADB2C2" stroke-width="0.791667" stroke-linecap="round" stroke-linejoin="round"/>
<path d="M217.128 115.114C217.128 115.114 217.015 115.418 216.225 115.98" stroke="#ADB2C2" stroke-width="0.791667" stroke-linecap="round" stroke-linejoin="round"/>
<path d="M211.295 120.135C211.295 120.135 205.029 124.782 203.055 128.449" stroke="#ADB2C2" stroke-width="0.791667" stroke-linecap="round" stroke-linejoin="round"/>
<path d="M288.127 128.784C288.127 128.784 275.804 120.446 270.002 115.114C270.002 115.114 259.756 103.509 249.173 104.506C249.173 104.506 238.023 105.107 244.278 111.893C244.871 112.528 245.519 113.11 246.214 113.632C248.014 114.997 253.036 119.11 254.365 123.36C254.436 123.586 254.496 123.813 254.574 124.035C254.929 125.061 255.46 127.95 255.152 129.782" stroke="#ADB2C2" stroke-width="0.791667" stroke-linecap="round" stroke-linejoin="round"/>
<path d="M246.695 107.554C246.695 107.554 253.755 109.471 256.378 112.444" stroke="#ADB2C2" stroke-width="0.791667" stroke-linecap="round" stroke-linejoin="round"/>
<path d="M259.416 115.114C259.416 115.114 259.529 115.418 260.319 115.98" stroke="#ADB2C2" stroke-width="0.791667" stroke-linecap="round" stroke-linejoin="round"/>
<path d="M265.249 120.135C265.249 120.135 271.515 124.782 273.489 128.449" stroke="#ADB2C2" stroke-width="0.791667" stroke-linecap="round" stroke-linejoin="round"/>
</svg>
