<svg width="16" height="16" viewBox="0 0 16 16" fill="none" xmlns="http://www.w3.org/2000/svg">
<mask id="path-1-inside-1_4_12631" fill="white">
<path fill-rule="evenodd" clip-rule="evenodd" d="M4 1.66667C4 1.29848 4.29848 1 4.66667 1C5.03486 1 5.33333 1.29848 5.33333 1.66667V3H10.6665V1.66667C10.6665 1.29848 10.9649 1 11.3331 1C11.7013 1 11.9998 1.29848 11.9998 1.66667V3H12.6664C13.771 3 14.6664 3.89543 14.6664 5V6.33334H1.33306V5C1.33306 3.89543 2.22849 3 3.33306 3H4V1.66667ZM14.6663 7.6665H1.33301V12.3332C1.33301 13.4377 2.22844 14.3332 3.33301 14.3332H12.6663C13.7709 14.3332 14.6663 13.4377 14.6663 12.3332V7.6665Z"/>
</mask>
<path fill-rule="evenodd" clip-rule="evenodd" d="M4 1.66667C4 1.29848 4.29848 1 4.66667 1C5.03486 1 5.33333 1.29848 5.33333 1.66667V3H10.6665V1.66667C10.6665 1.29848 10.9649 1 11.3331 1C11.7013 1 11.9998 1.29848 11.9998 1.66667V3H12.6664C13.771 3 14.6664 3.89543 14.6664 5V6.33334H1.33306V5C1.33306 3.89543 2.22849 3 3.33306 3H4V1.66667ZM14.6663 7.6665H1.33301V12.3332C1.33301 13.4377 2.22844 14.3332 3.33301 14.3332H12.6663C13.7709 14.3332 14.6663 13.4377 14.6663 12.3332V7.6665Z" fill="#6A6F81"/>
<path d="M5.33333 3H4.33333V4H5.33333V3ZM10.6665 3V4H11.6665V3H10.6665ZM11.9998 3H10.9998V4H11.9998V3ZM14.6664 6.33334V7.33334H15.6664V6.33334H14.6664ZM1.33306 6.33334H0.333057V7.33334H1.33306V6.33334ZM4 3V4H5V3H4ZM1.33301 7.6665V6.6665H0.333008V7.6665H1.33301ZM14.6663 7.6665H15.6663V6.6665H14.6663V7.6665ZM4.66667 0C3.74619 0 3 0.74619 3 1.66667H5C5 1.85076 4.85076 2 4.66667 2V0ZM6.33333 1.66667C6.33333 0.746192 5.58714 0 4.66667 0V2C4.48257 2 4.33333 1.85076 4.33333 1.66667H6.33333ZM6.33333 3V1.66667H4.33333V3H6.33333ZM10.6665 2H5.33333V4H10.6665V2ZM11.6665 3V1.66667H9.66646V3H11.6665ZM11.6665 1.66667C11.6665 1.85077 11.5172 2 11.3331 2V3.03984e-06C10.4126 3.03984e-06 9.66646 0.746193 9.66646 1.66667H11.6665ZM11.3331 2C11.149 2 10.9998 1.85076 10.9998 1.66667H12.9998C12.9998 0.746196 12.2536 3.03984e-06 11.3331 3.03984e-06V2ZM10.9998 1.66667V3H12.9998V1.66667H10.9998ZM12.6664 2H11.9998V4H12.6664V2ZM15.6664 5C15.6664 3.34315 14.3232 2 12.6664 2V4C13.2187 4 13.6664 4.44772 13.6664 5H15.6664ZM15.6664 6.33334V5H13.6664V6.33334H15.6664ZM1.33306 7.33334H14.6664V5.33334H1.33306V7.33334ZM0.333057 5V6.33334H2.33306V5H0.333057ZM3.33306 2C1.6762 2 0.333057 3.34315 0.333057 5H2.33306C2.33306 4.44772 2.78077 4 3.33306 4V2ZM4 2H3.33306V4H4V2ZM3 1.66667V3H5V1.66667H3ZM1.33301 8.6665H14.6663V6.6665H1.33301V8.6665ZM2.33301 12.3332V7.6665H0.333008V12.3332H2.33301ZM3.33301 13.3332C2.78072 13.3332 2.33301 12.8855 2.33301 12.3332H0.333008C0.333008 13.99 1.67615 15.3332 3.33301 15.3332V13.3332ZM12.6663 13.3332H3.33301V15.3332H12.6663V13.3332ZM13.6663 12.3332C13.6663 12.8855 13.2186 13.3332 12.6663 13.3332V15.3332C14.3232 15.3332 15.6663 13.99 15.6663 12.3332H13.6663ZM13.6663 7.6665V12.3332H15.6663V7.6665H13.6663Z" fill="#6A6F81" mask="url(#path-1-inside-1_4_12631)"/>
</svg>
