<svg width="775" height="550" fill="none" xmlns="http://www.w3.org/2000/svg"><path d="M472.431 186.44a118.697 118.697 0 0016.842 28.466l-10.003 21.02 20.217 15.192 20.217 15.192 17.387-15.517a118.32 118.32 0 0032.048 8.228L576.91 281l25.069-3.578 25.06-3.578 1.319-23.254a118.514 118.514 0 0028.462-16.87l21.034 10.031 15.189-20.22 15.198-20.221-15.452-17.495a118.71 118.71 0 008.236-32.053L723 145.99l-3.586-25.064-3.578-25.073-23.241-1.319a118.523 118.523 0 00-16.868-28.467l10.03-21.037-20.217-15.192-20.218-15.192-17.483 15.561a118.31 118.31 0 00-32.048-8.229L588.02 0l-25.069 3.578-25.06 3.578-1.319 23.254a118.523 118.523 0 00-28.462 16.87l-21.035-10.04-15.198 20.22-15.189 20.22 15.515 17.39a118.92 118.92 0 00-8.228 32.045L442 134.895l3.578 25.065 3.577 25.064 23.276 1.416zm97.57-133.78a88.71 88.71 0 0188.873 42.632 88.73 88.73 0 01-46.899 128.897 88.702 88.702 0 01-95.483-24.467 88.742 88.742 0 01-4.931-112.45 88.717 88.717 0 0158.396-34.611h.044z" fill="#5C80FF" fill-opacity=".1"/><path d="M88.506 523H695.53c31.244-20.984 54.111-56.432 59.199-101.065 9.015-79.089-31.159-132.49-82.82-154.164-51.66-21.674-9.831-121.057-104.975-159.379-75.166-30.306-168.498 3.7-205.699 56.735-42.101 60.059-100.881 8.361-170.666 13.586-69.784 5.225-107.11 67.384-88.421 139.251 16.375 63.12-77.26 38.907-70.832 126.867 2.806 38.405 30.427 63.11 57.189 78.169z" fill="#E1EDFF"/><path d="M210.748 303h187.504c8.697 0 15.748-6.4 15.748-14.295V54.295C414 46.4 406.949 40 398.252 40H210.748C202.051 40 195 46.4 195 54.295v234.41C195 296.6 202.051 303 210.748 303z" fill="#ADC0FF"/><path d="M217.582 50h169.709c7.179 0 13 5.82 13 13v268.15H207V59.61c0-1.261.273-2.51.805-3.676a9.602 9.602 0 012.293-3.118 10.72 10.72 0 013.434-2.084 11.523 11.523 0 014.05-.732z" fill="#fff"/><path d="M379.479 93h-51.745v6.543h51.745V93zm-4.245 27.428h-47.5v6.543h47.5v-6.543zm-6.402-13.714h-41.098v6.543h41.098v-6.543z" fill="#ADC0FF"/><path d="M267.5 152a41.15 41.15 0 01-17.151-3.698A41.61 41.61 0 01226 110.501C226 87.617 244.617 69 267.5 69S309 87.617 309 110.501a41.609 41.609 0 01-24.349 37.801A41.15 41.15 0 01267.5 152z" fill="#ADC0FF" fill-opacity=".4"/><path d="M284.377 87.097c-5.244-3.777-11.23-1.453-12.806-.677-1.051.518-2.919 1.106-4.069 1.106-1.151 0-3.019-.588-4.07-1.106-1.569-.776-7.557-3.1-12.805.677-5.249 3.777-6.141 11.909-2.118 19.753 3.292 6.415 3.533 13.069 3.732 17.622.198 4.553 1.373 13.168 5.888 12.49 4.515-.677 5.202-6.779 5.593-12.974.276-4.356 2.318-6.772 3.775-6.772 1.457 0 3.5 2.425 3.776 6.772.393 6.195 1.079 12.297 5.594 12.974 4.516.678 5.692-7.94 5.889-12.49.196-4.55.441-11.207 3.729-17.622 4.032-7.844 3.135-15.978-2.108-19.753z" fill="#fff"/><path d="M302 171h-73v6h73v-6zm-13 16h-60v6h60v-6zm0 15h-60v6h60v-6z" fill="#E0E0E0"/><path d="M342.846 167.993h-9.926v5.834h9.926v-5.834zm0 15.695h-9.926v5.834h9.926v-5.834z" fill="#4E7ED6"/><path d="M463.225 146h-87.45C365.406 146 357 154.016 357 163.904v145.192c0 9.888 8.406 17.904 18.775 17.904h87.45c10.369 0 18.775-8.016 18.775-17.904V163.904c0-9.888-8.406-17.904-18.775-17.904z" fill="#fff"/><path d="M375.775 147.5h87.45c9.609 0 17.275 7.411 17.275 16.404v145.192c0 8.993-7.666 16.404-17.275 16.404h-87.45c-9.609 0-17.275-7.411-17.275-16.404V163.904c0-8.993 7.666-16.404 17.275-16.404z" stroke="#ADC0FF" stroke-opacity=".5" stroke-width="3"/><path d="M464.913 174.243a19.45 19.45 0 00-9.973-11.152 19.45 19.45 0 00-21.482 3.159 19.438 19.438 0 00-5.162 21.086 19.442 19.442 0 0025.465 11.53 19.44 19.44 0 0011.152-24.623zm-13.4 20.271a14.567 14.567 0 01-18.635-8.818 14.571 14.571 0 013.938-15.713 14.585 14.585 0 0116.028-2.371 14.576 14.576 0 015.462 21.866 14.579 14.579 0 01-6.804 5.036h.011z" fill="#E4E6EC"/><path d="M432.687 176.443l-4.646-1.456a19.475 19.475 0 0117.981-13.642l.146 4.862a14.614 14.614 0 00-13.481 10.229v.007z" fill="#5C80FF"/><path d="M433.236 186.605l-4.463 1.941c-.172-.394-.331-.8-.477-1.21a19.37 19.37 0 01-.256-12.342l4.647 1.449a14.497 14.497 0 00.191 9.253c.11.31.229.613.358.909z" fill="#ADC0FF"/><path d="M431.789 193.387a19.3 19.3 0 01-3.016-4.841l4.463-1.941a14.482 14.482 0 002.258 3.628l-3.705 3.154z" fill="#CAD6FF"/><path d="M443.43 286.049h-10.482v34.36h10.482v-34.36zm-15.582 9.637h-10.481v24.723h10.481v-24.723zm30.7-25.561h-10.481v50.286h10.481v-50.286zm-85.67 12.384l-.91-.699 17.079-22.219 21.08 1.143 15.897-25.308 17.124-1.766 10.291-20.35 1.027.518-10.575 20.908-17.191 1.774-15.959 25.408-21.152-1.148-16.711 21.739z" fill="#46BBED"/><path d="M408.192 173.023h-29.817a3.417 3.417 0 01-2.409-.998 3.412 3.412 0 010-4.817 3.408 3.408 0 012.409-.998h29.817a3.408 3.408 0 110 6.813z" fill="#5C80FF"/><path d="M408.192 184.908h-29.817a3.408 3.408 0 01-1.305-6.558c.414-.171.857-.26 1.305-.26h29.817a3.417 3.417 0 012.411.997 3.413 3.413 0 01.002 4.822 3.405 3.405 0 01-2.413.999zm0 11.885h-29.817a3.408 3.408 0 010-6.813h29.817a3.417 3.417 0 012.411.997 3.413 3.413 0 01.739 3.714 3.41 3.41 0 01-3.15 2.102z" fill="#E4E6EC"/><path d="M20.041 305.57s-27.275-9.624-18.187-36.364c9.088-26.739 50.923-27.408 53.064.795.97 12.852-6.4 44.012-34.877 35.569zm720.466-91.424s12.763-10.925 23.574 1.412c10.811 12.338-1.002 33.576-15.81 26.462-6.747-3.245-20.281-16.002-7.764-27.874z" fill="#E1EDFF"/><path d="M653 202v-37.727a24.237 24.237 0 00-7.133-17.164A24.397 24.397 0 00628.645 140h-89.29a24.417 24.417 0 00-17.222 7.109 24.277 24.277 0 00-5.279 7.875 24.204 24.204 0 00-1.854 9.289V202h138z" fill="#ADC0FF"/><path d="M515 190v34.479c0 3.22.63 6.409 1.854 9.384a24.541 24.541 0 005.279 7.955 24.345 24.345 0 007.902 5.315 24.192 24.192 0 009.32 1.867h89.29c3.199 0 6.365-.634 9.32-1.867a24.345 24.345 0 007.902-5.315 24.541 24.541 0 005.279-7.955 24.667 24.667 0 001.854-9.384V190H515z" fill="#A0B7FF"/><path d="M608.456 159.989c-7.375-5.373-15.92-2.087-18.154-.96a11.337 11.337 0 01-5.795 1.591c-2.042 0-4.045-.55-5.795-1.591-2.223-1.106-10.715-4.413-18.154.96s-8.703 16.955-3.003 28.171c4.668 9.129 5.015 18.603 5.268 25.041.253 6.437 1.95 18.78 8.356 17.737 6.406-1.044 7.375-9.641 7.933-18.468.39-6.187 3.277-9.64 5.353-9.64 2.075 0 4.962 3.453 5.352 9.64.559 8.827 1.528 17.508 7.934 18.468 6.406.96 8.071-11.3 8.345-17.737.274-6.438.622-15.953 5.268-25.041 5.806-11.195 4.531-22.787-2.908-28.171z" fill="#FBFCFF"/><path d="M296 431.122L274.696 455 261 441.462 279.516 418 296 431.122z" fill="#933F1F"/><path d="M287 496l-45-39.948L261.507 436l21.086 18.688-4.913 6.509L287 496z" fill="#050048"/><path d="M301.571 443L271 417.768l20.882-43.789L303.138 314 342 319.057l-10.102 72.785L301.571 443z" fill="#79BBC8"/><path d="M332 392l-30.378 51L271 417.846" stroke="#0F110E" stroke-width="1.26" stroke-miterlimit="10" stroke-linecap="round"/><path d="M341 475.988V444h-20l.621 34L341 475.988z" fill="#933F1F"/><path d="M377 496.134L316 497l1.624-26.209 28.475-.791.475 6.221L377 496.134z" fill="#050048"/><path d="M302 317.051L311.307 450h39.632L358 315l-56 2.051z" fill="#79BBC8"/><path d="M302 317l9.319 133H351" stroke="#000" stroke-width="1.26" stroke-miterlimit="10" stroke-linecap="round"/><path d="M395.648 238L383 229.197s6.461-9.974 7.736-12.077c1.276-2.103 3.236-4.032 5.502-2.657 2.267 1.374 7.874 8.67 6.567 10.917-1.307 2.247-7.157 12.62-7.157 12.62z" fill="#FCD7C8"/><path d="M331.952 225.194l22.398 16.337L382.181 224 399 240.644s-13.476 33.139-24.55 43.823c-10.28 9.934-32.97.634-36.104-.655-3.134-1.289-22.346-14.488-22.346-14.488l15.952-44.13z" fill="#fff" stroke="#6D6D6D" stroke-width="1.26" stroke-miterlimit="10"/><path d="M323.322 211.37l6.541-1.37s9.582 2.783 15.924 20.013c6.342 17.231 26.285 57.14 28.78 115.663 2.495 58.522-6.609 47.498-6.609 47.498L274 387.431l24.666-138.095 21.574-37.986 3.082.02z" fill="#fff" stroke="#6D6D6D" stroke-width="1.26" stroke-miterlimit="10"/><path d="M346.887 227.181C350.76 235.88 354.412 247.488 358 265c-5.02-14.843-14.154-37.745-27.992-50.725a6.38 6.38 0 011.41-4.323c2.757.764.284-5.087 4.209.471 1.232 1.685 7.924 9.284 11.26 16.758z" fill="#ADC0FF" stroke="#6D6D6D" stroke-width="1.26" stroke-miterlimit="10"/><path d="M349.183 185c.581 2.132 1.513 4.107 2.744 5.814a.228.228 0 01.073.14c0 .076-.055.14-.101.183-.593.495-1.223.924-1.884 1.282L349 193l.183-8z" fill="#FCD7C8"/><path d="M348.218 185.559a16.12 16.12 0 002.451 4.79c.124.163.256.316.389.46l.056.057c.133.163.133.058 0-.287-.11.06-.215.13-.312.21-.456.298-.93.567-1.42.805l-1.164.565.672.393.17-6.217v-.9c0-.585-.88-.575-.89 0l-.17 6.226v.891a.48.48 0 00.234.387.46.46 0 00.448.006l1.391-.68a12.77 12.77 0 001.401-.834c.218-.153.464-.297.521-.574a.676.676 0 00-.256-.623 10.52 10.52 0 01-1.533-2.28 16.957 16.957 0 01-1.127-2.634c-.17-.518-.994-.316-.861.239z" fill="#191D2B"/><path d="M340.579 173h-6.994c-4.652 0-8.462 4.413-8.462 9.796v11.017a9.574 9.574 0 000 .928c-.085.341-1.127.692-1.123 1.044v13.792c.003 1.172 1.463 2.295 2.279 3.124a4.33 4.33 0 003.075 1.299h2.783a4.334 4.334 0 003.073-1.302 4.48 4.48 0 001.282-3.121v-5.947h4.046c4.652 0 8.462-4.413 8.462-9.796v-11.048c.041-5.383-3.769-9.786-8.421-9.786z" fill="#FCD7C8"/><path d="M344.837 187.818c.135.265.188.564.152.858a1.496 1.496 0 01-1.082 1.268 1.498 1.498 0 01-1.902-1.327 1.504 1.504 0 01.812-1.456 1.508 1.508 0 012.02.657zm3.597 8.176l-.267.08h-.053c.071 0 .08 0 0 0h-.346c-.08 0 .089 0 0 0h-.248l-.169-.11a.154.154 0 01-.062-.049c-.062 0 .08.079 0 0l-.133-.14-.053-.07c0-.06.062.09 0 0l.008-.219a2.967 2.967 0 01-.151-.329c0-.1 0 .119 0 0v-.07l-.053-.16c0-.089-.053-.189-.071-.279-.018-.09 0-.139 0-.219v-.06.1a.501.501 0 00-.122-.332.394.394 0 00-.295-.137c-.204 0-.444.209-.417.469.018.516.163 1.016.42 1.444.258.428.616.767 1.036.979.413.144.855.144 1.269 0a.451.451 0 00.228-.233.534.534 0 00.029-.344.48.48 0 00-.185-.277.388.388 0 00-.303-.064l-.062.02zm-5.256-11.866c-.321.175-.652.35-.946.515l-.245.113s-.133.062 0 0l-.152.062-.51.227a.453.453 0 00-.269.231.534.534 0 00-.039.371.484.484 0 00.213.292.416.416 0 00.34.042 24.407 24.407 0 002.147-1.029.497.497 0 00.259-.299.545.545 0 00-.038-.408.482.482 0 00-.131-.155.42.42 0 00-.371-.075.442.442 0 00-.173.093l-.085.02z" fill="#191D2B"/><path d="M328.139 166.17c-7.491 2.089-17.543 5.629-15.976 22.745 0 0 1.996 10.443 12.215 13.085l-.063-10.579 1.411-1.044 1.128 3.384s4.023.72 6.384-5.702a33.868 33.868 0 0015.841-8.772c4.179-4.178 1.306-11.279-6.353-13.096-8.317-1.995-10.606-1.117-14.587-.021z" fill="#191D2B"/><path d="M318.008 193.778a5.498 5.498 0 009.575 3.407 5.5 5.5 0 00-4.367-9.178 5.487 5.487 0 00-3.804 1.802 5.47 5.47 0 00-1.404 3.969z" fill="#FCD7C8"/><path d="M327 193.677a4.944 4.944 0 00-.211-1.394 3.437 3.437 0 00-.604-1.257 2.781 2.781 0 00-1.006-.822 3.198 3.198 0 00-1.873-.115.39.39 0 00-.146.086.468.468 0 00-.106.144.56.56 0 00-.039.373.527.527 0 00.072.172.448.448 0 00.123.126c.047.031.1.052.154.06a.34.34 0 00.161-.015h.924c.106 0-.062 0 0 0h.079c.105.017.208.045.308.084l.141.062c.07 0 0 0 0 0h.07c.083.044.163.096.238.156 0 0 .149.135 0 0l.105.104c.062.062.115.135.176.208l.079.114c-.088-.114 0 0 0 0 .046.076.088.156.123.24.038.073.07.149.097.228v.063-.052a.393.393 0 010 .145c.052.148.09.301.115.458.004.066.004.132 0 .197a1.309 1.309 0 000 .198c0-.094 0-.125 0 0v.333a.522.522 0 00.141.305.386.386 0 00.276.122c.102 0 .2-.043.277-.122a.529.529 0 00.141-.305l.185.104z" fill="#191D2B"/><path d="M340.997 192.365a3.497 3.497 0 01-2.032 3.314 3.495 3.495 0 01-3.84-.609 3.492 3.492 0 01-.909-3.78 3.496 3.496 0 013.143-2.287 3.494 3.494 0 012.516.927 3.497 3.497 0 011.122 2.435z" fill="#FFA6A6"/><path d="M361 273.061s-10.836-32.851-18.797-45.206c-5.116-7.814-12.194-17.132-18.703-23.855l-4.5 6.153 18.21 21.523-7.018 1.62L356.72 282l4.28-8.939z" fill="#fff"/><path d="M354.227 277l-24.139-44.045 6.952-1.634-12.19-15.372-5.85-6.336 4.749-5.613s14.455 15.865 20.783 27.855C350.86 243.846 356.5 258 356.5 258" stroke="#6D6D6D" stroke-width="1.26" stroke-miterlimit="10" stroke-linecap="round"/><path d="M422 215l5 5m-12 0l6 5m-7-1l5 4" stroke="#000" stroke-width="1.26" stroke-miterlimit="10" stroke-linecap="round"/><path d="M313.041 279s13.306 3.178 18.404 3.327c5.098.148 13.368-1.473 14.174.699.806 2.172-5.328 2.914-5.328 2.914s9.013.476 10.039 2.235c1.026 1.759 0 2.882-3.79 2.734 0 0 4.46.296 4.46 2.542 0 2.247-4.585 1.06-6.135.986 0 0 5.528.424 5.465 2.723-.063 2.299-7.255.678-7.255.678s5.936.477 5.779 2.564c-.157 2.087-7.433 1.981-14.509.54-7.077-1.441-25.345-6.505-25.345-6.505L313.041 279z" fill="#FCD7C8"/><path d="M347 298l-8-1m9-3l-9-1m10-2.011c-.159.133-9-.989-9-.989" stroke="#6D6D6D" stroke-width="1.26" stroke-miterlimit="10" stroke-linecap="round"/><path d="M327 239.485l-9.231-17.643 6.731-5.342-5.944-6.5s-12.587 3.808-18.766 7.94c-18.482 12.283-38.653 35.454-37.761 56.893.335 8.444 3.146 13.164 7.541 16.961 6.2 5.392 15.546 7.983 25.92 8.801 6.475.49 12.976.535 19.458.136l4.972-21.198-18.336-9.713C313.028 245.59 327 239.485 327 239.485z" fill="#fff"/><path d="M293.415 265.556L320 279.643l-4.981 21.218s-11.769.977-34.067-2.248c0 0-22.928-7.048-18.347-28.918 4.582-21.87 19.692-37.699 25.945-43.34 12.326-11.124 26.049-15.756 30.546-16.355" stroke="#6D6D6D" stroke-width="1.26" stroke-miterlimit="10" stroke-linecap="round"/><path d="M302 270a200.66 200.66 0 0111.889-19.516A89.816 89.816 0 01320 243" stroke="#6D6D6D" stroke-width="1.26" stroke-miterlimit="10" stroke-linecap="round"/><path d="M399.3 225.945s-5.722-9.669-6.175-11.637c-.453-1.967.35-3.681 2.058-2.306 0 0-1.853-2.116-1.276-2.846.576-.73 2.058-.835 4.261 1.185 0 0-3.088-2.518-2.398-4.03.689-1.513 3.736-.096 5.702 1.565 0 0-4.539-3.237-1.956-3.819 2.584-.582 8.986 3.407 10.2 5.924 1.215 2.518-1.842 6.824-2.192 10.124-.35 3.301-2.594 5.47-4.169 6.845a30.278 30.278 0 00-7.091 10.05l-1.143-4.549 4.179-6.506z" fill="#FCD7C8"/><path d="M402.844 219.859a115.323 115.323 0 00-7.773-8.674c-.583-.582-1.462.343-.879.924a122.875 122.875 0 017.763 8.674c.524.644 1.403-.291.889-.924zm2.965-3.88a108.904 108.904 0 00-9.683-7.816.73.73 0 00-.464-.163.731.731 0 00-.465.163.606.606 0 00-.146.196.544.544 0 000 .462c.034.073.084.14.146.195a110.104 110.104 0 019.683 7.806c.595.55 1.523-.303.929-.843zm1.006-4.083a219.9 219.9 0 00-8.879-6.774c-.676-.493-1.322.637-.656 1.121a200.337 200.337 0 018.612 6.579.69.69 0 00.923 0 .672.672 0 000-.926z" fill="#6D6D6D"/><path d="M627.674 487.385l-19.462-140.04C606.117 332.208 594.103 321 579.983 321H229.017c-14.12 0-26.124 11.208-28.229 26.345l-19.462 140.04C178.718 506.114 192.094 523 209.545 523h389.91c17.451-.042 30.827-16.886 28.219-35.615z" fill="#F2B4C9"/><path d="M80 523h635" stroke="#525F80" stroke-width="2" stroke-linecap="round" stroke-linejoin="round"/><path d="M160 432c3.407-1.659 1.809-.963 0 0zm450.584-63.066a245.19 245.19 0 01-15.89 11.317 235.587 235.587 0 01-19.902 11.611l-1.519.799-.607.294c-1.676.694-3.352 1.398-5.039 2.102a223.568 223.568 0 01-10.956 4.035c-7.144 2.438-14.33 4.854-21.589 6.893a207.081 207.081 0 01-10.611 2.7c-.482.105-1.613.515-2.713.841l-1.414.168-3.038.357a317.97 317.97 0 01-48.058 2.102c-4.62-.2-9.218-.609-13.816-1.124a27.358 27.358 0 00-3.268-.505c-2.42-.441-4.85-.924-7.249-1.502-9.941-2.428-19.619-6.841-28.984-11.128l6.777 3.152c-22.07-10.245-44.549-19.565-67.196-28.213-20.698-7.902-41.731-14.848-63.299-19.335-29.884-6.21-61.99-9.11-92.471-3.51L190 420.265a235.401 235.401 0 0124.679-5.443 211.158 211.158 0 0152.133.42c25.988 4.267 51.326 12.116 76.288 21.142 12.989 4.708 25.862 9.783 38.757 14.795a206.634 206.634 0 0040.244 11.034c3.142.535 6.285.935 9.427 1.418l1.446.273c4.692.904 9.427 1.482 14.203 2.018a169.111 169.111 0 0022.113 1.051c14.602-.211 29.424-1.745 43.575-5.685 24.721-6.883 49.158-16.224 71.124-30.473A356.77 356.77 0 00616 408.002l-5.416-39.068zM454.51 410.85c-4.012-.462-.733-.179.744.074l-.744-.074zm64.64-1.051a17.247 17.247 0 002.378-.241c-1.027.315-2.074.504-2.399.252l.021-.011z" fill="#EED0DB"/><path d="M568.065 213.082c-24.877-18.159-53.274-6.985-60.753-3.257-4.986 2.493-13.847 5.32-19.305 5.32-5.457 0-14.319-2.827-19.305-5.32-7.447-3.728-35.854-14.902-60.753 3.257-24.898 18.16-29.13 57.253-10.045 94.965 15.618 30.841 16.76 62.835 17.702 84.722.943 21.888 6.516 63.307 27.936 60.05 21.421-3.257 24.679-32.591 26.533-62.375 1.309-20.945 10.998-32.558 17.911-32.558 6.914 0 16.603 11.655 17.912 32.558 1.865 29.784 5.122 59.118 26.543 62.375 21.421 3.257 27.004-38.173 27.936-60.05.932-21.877 2.095-53.881 17.692-84.722 19.126-37.712 14.874-76.816-10.004-94.965z" fill="#fff" stroke="#6D6D6D" stroke-width="1.26" stroke-miterlimit="10"/><path d="M231 317l16.623 97h72.754L337 317H231zm100.679-24h-95.358c-4.043 0-7.321 3.235-7.321 7.225v6.55c0 3.99 3.278 7.225 7.321 7.225h95.358c4.043 0 7.321-3.235 7.321-7.225v-6.55c0-3.99-3.278-7.225-7.321-7.225z" fill="#5C80FF"/><path d="M348.501 321H219.499a6.5 6.5 0 110-13h129.002a6.501 6.501 0 016.007 4.017c.326.789.493 1.634.492 2.488a6.5 6.5 0 01-6.499 6.495zm-22.28 83h-84.442a2.678 2.678 0 01-1.965-.879A3.124 3.124 0 01239 401c0-.796.293-1.559.814-2.121a2.678 2.678 0 011.965-.879h84.442c.736.003 1.441.32 1.962.882.521.562.814 1.323.817 2.118a3.135 3.135 0 01-.817 2.118 2.691 2.691 0 01-1.962.882zm2.004-14h-88.44a2.698 2.698 0 01-1.966-.882A3.132 3.132 0 01237 387a3.132 3.132 0 01.819-2.118 2.698 2.698 0 011.966-.882h88.44c.737.003 1.443.32 1.963.883A3.12 3.12 0 01331 387a3.12 3.12 0 01-.812 2.117c-.52.563-1.226.88-1.963.883zm2.006-15H237.78a2.944 2.944 0 01-1.966-.734c-.521-.469-.814-1.106-.814-1.771.003-.662.297-1.297.818-1.765a2.945 2.945 0 011.962-.73h92.451c.363 0 .724.065 1.06.19.336.125.641.309.898.541.257.232.461.507.6.809a2.29 2.29 0 01.003 1.913 2.49 2.49 0 01-.599.813 2.806 2.806 0 01-.9.543 3.038 3.038 0 01-1.062.191zm2.957-14h-98.376a3.108 3.108 0 01-1.076-.187 2.846 2.846 0 01-.912-.541 2.503 2.503 0 01-.61-.81 2.27 2.27 0 01-.003-1.917 2.5 2.5 0 01.609-.814 2.86 2.86 0 01.914-.543 3.12 3.12 0 011.078-.188h98.376c.746 0 1.461.264 1.988.734.528.469.824 1.106.824 1.771-.003.662-.3 1.297-.827 1.765a3.001 3.001 0 01-1.985.73zm3.014-14H231.787c-.366 0-.728-.065-1.066-.19a2.813 2.813 0 01-.905-.541 2.516 2.516 0 01-.604-.809 2.275 2.275 0 01-.003-1.913c.14-.304.345-.58.604-.813.259-.233.566-.417.905-.543a3.072 3.072 0 011.069-.191h104.415c.368-.001.732.063 1.072.188.341.126.65.31.91.543.26.233.466.509.606.814a2.273 2.273 0 01-.003 1.917 2.493 2.493 0 01-.607.81c-.26.232-.569.416-.908.541a3.074 3.074 0 01-1.07.187zm2.032-14H229.776a2.94 2.94 0 01-1.959-.73c-.52-.468-.814-1.103-.817-1.765 0-.665.293-1.302.813-1.771a2.936 2.936 0 011.963-.734h108.458c.364 0 .725.065 1.061.191.336.126.642.31.899.543.257.233.46.509.598.813.139.304.209.629.208.958 0 .661-.291 1.296-.81 1.764a2.925 2.925 0 01-1.956.731z" fill="#3B64ED"/><path d="M151.189 535.884L149 513h19.715L171 538l-19.811-2.116z" fill="#87524E"/><path d="M148.131 529.38l24.286-.38 1.442 7.575 12.113 8.78c1.573 1.14.761 3.628-1.182 3.62l-38.79-.159 2.131-19.436z" fill="#191D2B"/><path d="M141.184 517.151L177 518s-8.474-102.143-8.184-122.255c.291-20.112 0-25.387 0-25.387L157.573 365 121 376.765l20.184 140.386z" fill="#3B64ED"/><path d="M126 408l14.945 109.163L177 518" fill="#274ECE"/><path d="M126 408l14.945 109.163L177 518" stroke="#191D2B" stroke-width="1.26" stroke-miterlimit="10" stroke-linecap="round"/><path d="M66.559 491L52 510.026 66.907 520 85 499.661 66.559 491z" fill="#87524E"/><path d="M54.331 503l18.999 15.408-2.569 5.871 5.058 13.78c.674 1.834-1.413 3.446-3.018 2.332L41 518.313 54.331 503z" fill="#191D2B"/><path d="M132.366 405.581s7.172 21.044-8.536 49.064C108.121 482.665 81.786 506 81.786 506L55 486.268s26.85-40.297 34.2-70.493C97.222 382.788 95.605 373 95.605 373l36.257 12.131.504 20.45z" fill="#3B64ED"/><path d="M55 485.741L82.177 506s26.771-23.105 41.729-51.61C138.49 426.638 140 378 140 378" stroke="#191D2B" stroke-width="1.26" stroke-miterlimit="10" stroke-linecap="round"/><path d="M152.25 271.144s15.3 11.166 16.926 22.489C170.802 304.956 172 393 172 393H89.76s-4.69-64.63 9.224-88.46C112.897 280.709 136.92 270 136.92 270l15.33 1.144z" fill="#3B64ED" stroke="#191D2B" stroke-width="1.26" stroke-linecap="round" stroke-linejoin="round"/><path d="M78.949 340l19.129-16.65.946-1.613-.179-.32L108 307.03 88.566 291c-31.09 21.239-17.521 40.308-10.51 48.07.252.3.567.61.893.93z" fill="#87524E"/><path d="M126.147 307.883L110.663 324 73 299.272s6.337-9.291 19.592-17.69c28.01-17.743 45.183-15.49 45.183-15.49L142 278.733l-15.853 29.15z" fill="#3B64ED"/><path d="M138 266.092s-17.233-2.253-45.34 15.487C79.35 289.976 73 299.266 73 299.266L110.794 324l15.537-16.103M80 292l38 24" stroke="#191D2B" stroke-width="1.26" stroke-linecap="round" stroke-linejoin="round"/><path d="M129 266.735L144.105 297 154 272.175s-2.852-4.428-10.235-5.44c-7.382-1.012-10.111-.948-14.765 0z" fill="#3B55F1" stroke="#191D2B" stroke-width="1.26" stroke-linecap="round" stroke-linejoin="round"/><path d="M142.958 285L151 269.142a18.347 18.347 0 00-7.234-2.442 53.154 53.154 0 00-10.766-.656L142.958 285z" fill="#87524E" stroke="#191D2B" stroke-width="1.26" stroke-linecap="round" stroke-linejoin="round"/><path d="M226.904 281.69c-21.502-5.496-32.285 3.96-38.178 6.415a22.59 22.59 0 01-8.16 1.525 22.952 22.952 0 01-8.222-1.118c-6.06-2.037-17.25-11.074-38.449-4.523-21.199 6.55-25.42 24.176-24.846 47.172C109.624 354.156 127.48 389 127.48 389l41.792-1.045 27.405-.679 41.793-1.045s16.09-35.721 15.515-58.706c-.575-22.986-5.59-40.381-27.081-45.835z" fill="#fff"/><path d="M138.502 255.457c0-.301 0-.611.095-.922l1.542-10.933c.765-5.333 5.314-9.174 10.139-8.532l7.239.984c4.814.642 8.131 5.539 7.376 10.882l-1.552 10.933c-.754 5.343-5.314 9.184-10.129 8.532l-3.667-.497-.808 4.307c-.08.439-.249.858-.497 1.233a3.416 3.416 0 01-.945.953 3.556 3.556 0 01-2.607.547l-5.814-1.035a3.555 3.555 0 01-1.27-.485 3.446 3.446 0 01-.982-.923 3.322 3.322 0 01-.565-2.547s2.328-12.176 2.445-12.497z" fill="#87524E"/><path d="M141.127 249.033s2.867-9.351 3.105-7.875c.342 2.155-1.211 13.284.735 14.566 2.587 1.691 4.253-3.071 9.832-2.468 5.578.604 9.056 3.588 9.18 5.99.072 1.487.228 5.592-4.73 7.822-4.233 1.896-9.842.312-9.842.312s-5.268-1.454-7.121-5.16c-1.852-3.706-1.159-13.187-1.159-13.187z" fill="#191D2B"/><path d="M150.008 248.341a1.504 1.504 0 001.289 1.645 1.5 1.5 0 10-1.289-1.645zm11.002 1.518a.996.996 0 00.482 1.002 1 1 0 10.646-1.851 1 1 0 00-1.128.849z" fill="#191D2B"/><path d="M156.73 255.906c.64.156.94.878.459 1.328-.441.415-1.045.792-1.765.765-1.105-.043-1.909-.911-2.247-1.852-.208-.577.369-1.016.966-.871l2.587.63z" fill="#fff"/><path d="M157.451 248.653a18.194 18.194 0 001.546 4.101l.462-.728-1.985-.072a.577.577 0 00-.339.165.463.463 0 00-.135.322.46.46 0 00.135.322c.087.09.207.148.339.165l1.985.072a.61.61 0 00.27-.069.535.535 0 00.197-.177.446.446 0 00.006-.482 18.123 18.123 0 01-1.431-3.916.452.452 0 00-.095-.169.517.517 0 00-.16-.124.605.605 0 00-.414-.045.548.548 0 00-.326.229.442.442 0 00-.055.365v.041zm-6.992-1.672c.36-.121.731-.208 1.107-.26h-.1.17a.38.38 0 00.255-.1.337.337 0 00.109-.26c0-.176-.163-.382-.364-.359a6.09 6.09 0 00-1.37.29.376.376 0 00-.256.444.374.374 0 00.449.252v-.007zm10.963.707a22.72 22.72 0 011.868.3.882.882 0 00.426-.033.556.556 0 00.166-.088.34.34 0 00.098-.12.223.223 0 00.016-.134.283.283 0 00-.069-.128.492.492 0 00-.144-.101.736.736 0 00-.196-.06 22.583 22.583 0 00-1.868-.3 1.02 1.02 0 00-.44 0 .473.473 0 00-.262.205c-.036.089-.014.183.061.262a.62.62 0 00.344.161v.036z" fill="#191D2B"/><path d="M141.009 251.407l2.511-8.652s24.388 9.529 28.134-4.385c2.375-8.834-7.921-14.758-16.866-11.432 0 0-15.579-3.733-22.233 5.272s-3.389 17.336 5.001 28.79l1.245-6.684 2.208-2.909z" fill="#191D2B"/><path d="M131.037 250.832a5.972 5.972 0 00.5 3.149 5.307 5.307 0 002.008 2.311 4.636 4.636 0 002.839.692 4.75 4.75 0 002.708-1.162 5.525 5.525 0 001.664-2.621 6.02 6.02 0 00.055-3.196 5.582 5.582 0 00-1.572-2.69 4.796 4.796 0 00-2.667-1.273 4.526 4.526 0 00-1.941.157 4.795 4.795 0 00-1.736.967 5.337 5.337 0 00-1.263 1.628 5.837 5.837 0 00-.595 2.038z" fill="#87524E"/><path d="M138.918 252.685a4.52 4.52 0 00-.154-2.3 3.892 3.892 0 00-1.24-1.807 3.628 3.628 0 00-2.035-.577.457.457 0 00-.342.161.61.61 0 00-.147.392.625.625 0 00.146.396.467.467 0 00.343.169c.155-.011.312-.011.468 0h.366l.326.118s.203.082.081 0l.183.106.275.188.102.106.193.247c.071.082 0-.094 0 0v.059l.081.153c.042.08.079.162.112.247a.282.282 0 010 .082v.165c.052.177.093.358.122.542a.557.557 0 010 .129c0 .141 0-.129 0 0 .006.09.006.181 0 .271.011.141.011.282 0 .423.006.114.006.228 0 .342 0 .141 0-.153 0 0a.662.662 0 00.052.417.52.52 0 00.284.265.43.43 0 00.37-.051.563.563 0 00.231-.337l.183.094z" fill="#191D2B"/><path d="M140.247 365.31c-1.045-.997-6.268-5.502-6.268-5.502s6.132 2.825 7.458 1.407c.951-1.05 1.045-2.825-4.418-5.965 0 0-13.204-7.982-14.301-8.885-13.496-12.318-22.563-22.337-23.837-24.637l-10.99-.787L71.252 309c-6.205 13.6 1.87 24.753 6.738 30.266 4.69 5.251 18.886 14.64 27.692 20.195 0 0 23.409 19.554 26.47 20.373 3.353.904 2.841-2.1 1.159-3.875 1.16.861 3.04 1.964 3.949.924 1.546-1.774-1.044-3.686-2.716-4.883 0 0 3.499 2.489 4.857 1.313 1.912-1.659-1.211-4.096-2.548-4.947 0 0 3.186 2.101 4.46 1.124 1.661-1.229-.083-3.192-1.065-4.18z" fill="#87524E"/><path d="M94 318l10 10" stroke="#191D2B" stroke-width="1.26" stroke-linecap="round" stroke-linejoin="round"/><path d="M133 376l-7-5m9 2l-7-6m10 2c-.19 0-8-5-8-5" stroke="#191D2B" stroke-width="1.26" stroke-miterlimit="10" stroke-linecap="round"/><path d="M238.19 288.884a2.974 2.974 0 003.245-1.128 3.006 3.006 0 00-1.373-4.565 2.981 2.981 0 00-3.324.866 3 3 0 00-.698 1.667 2.753 2.753 0 002.15 3.16z" fill="#87524E"/><path d="M241.325 291.909a2.149 2.149 0 001.761-.24c.256-.163.47-.379.627-.632.157-.253.252-.536.279-.829a1.873 1.873 0 00-.124-.863 1.944 1.944 0 00-.503-.726 2.082 2.082 0 00-.782-.448 2.162 2.162 0 00-.908-.08 2.149 2.149 0 00-1.761.24c-.256.163-.47.379-.627.632a1.901 1.901 0 00-.279.829c-.027.293.015.588.124.863.108.275.28.523.503.726.222.203.489.356.782.448.293.091.603.118.908.08zm-8.152-5.922a4 4 0 001.996-.35 3.288 3.288 0 001.43-1.243 2.64 2.64 0 00.381-1.716 2.807 2.807 0 00-.799-1.606 3.588 3.588 0 00-1.707-.953 4.051 4.051 0 00-2.037.023 3.554 3.554 0 00-1.677.991 2.773 2.773 0 00-.748 1.624c-.075.786.215 1.567.807 2.171.592.605 1.437.985 2.354 1.059z" fill="#87524E"/><path d="M227.738 282.99a3.493 3.493 0 001.704-.298c.52-.238.945-.599 1.219-1.037.274-.439.386-.935.321-1.427a2.307 2.307 0 00-.684-1.335 3.109 3.109 0 00-1.458-.793 3.578 3.578 0 00-1.742.016 3.07 3.07 0 00-1.438.819 2.294 2.294 0 00-.649 1.347c-.069.66.179 1.317.691 1.825.511.508 1.243.825 2.036.883z" fill="#87524E"/><path d="M226 282.676a2.693 2.693 0 002.325.113 2.93 2.93 0 001.004-.704c.288-.307.516-.677.671-1.085m.097 1a3.264 3.264 0 00.086 1.867 3.383 3.383 0 001.101 1.539 3.269 3.269 0 002.632.505 3.188 3.188 0 001.231-.59c.36-.281.651-.635.853-1.038m.123.717s-.648 2.56 1.029 3.607c1.677 1.046 3.642-.05 3.848-2.621" stroke="#191D2B" stroke-width="1.26" stroke-linecap="round" stroke-linejoin="round"/><path d="M635.818 500L628 531.143 648.72 533l7.28-30.648L635.818 500z" fill="#FCD7C8"/><path d="M623.693 525L656 526.941 652.074 550l-47.542-.234c-2.051-.01-2.759-2.733-.974-3.742l14.428-8.148L623.693 525z" fill="#191D2B"/><path d="M693.297 500.274L693 533l20-2.895-.092-32.105-19.611 2.274z" fill="#FCD7C8"/><path d="M686.214 526l31.415.702L720 550l-47.504-.235c-2.048-.01-2.759-2.728-.978-3.739l14.436-8.199.26-11.827z" fill="#191D2B"/><path d="M683.35 385.704L662.548 511 619 507.513 648.991 358H689l-5.65 27.704z" fill="#3B64ED"/><path d="M670 381l6.906.591L681 436" stroke="#3A4A36" stroke-width=".32" stroke-miterlimit="10"/><path d="M670.109 380.897l6.748.588L683.072 509l44.928-.619-18.782-140.418-2.016-13.281L661 342l9.109 38.897z" fill="#3B64ED"/><path d="M703.912 276.432c-16.986-12.39-25.254-10.299-25.254-10.299-10.693-1.484-28.411 13.927-31.034 15.892-2.624 1.966-13.39 25.449-16.097 35.862-2.708 10.414 5.905 24.633 5.905 24.633s83.925 2.363 86.883-3.398c2.958-5.761-3.637-50.447-20.403-62.69z" fill="#fff"/><path d="M708.155 370c1.281-7.444.725-19.206.725-27.452 0-41.316-9.694-75.558-31.078-76.54-13.086-.602-30.332 33.101-32.758 74.28-.483 8.267-1.775 21.825-.493 29.258l63.604.454z" fill="#F2B4C9"/><path d="M647.611 305.284C634.945 344.811 617 466.12 617 466.12l46.445 4.88 5.162-180.062L670 268s-13.311 9.04-22.389 37.284z" fill="#fff"/><path d="M667 271c-1.33 4.103-6.278 19.872-6.278 19.872l3.063.778v.158L659 295.385 664.923 356M637 376l20-2m-9.682-69C634.773 344.594 617 466.112 617 466.112L663 471" stroke="#6D6D6D" stroke-width="1.26" stroke-miterlimit="10" stroke-linecap="round"/><path d="M710.089 305.284C722.575 344.811 742 469.123 742 469.123L694.451 471l-5.078-180.062L688 268s13.141 9.04 22.089 37.284z" fill="#fff"/><path d="M690 271c1.507 4.102 7.073 19.87 7.073 19.87l-3.456.779v.157l5.383 3.577L693.434 360M720 376l-19-2m8.786-69C722.39 344.594 742 469.12 742 469.12L694 471" stroke="#6D6D6D" stroke-width="1.26" stroke-miterlimit="10" stroke-linecap="round"/><path d="M647.048 326.12s8.42-13.002 10.956-13.118c2.537-.116-.195 4.671-.195 4.671s7.527-3.363 10.392-2.963c2.865.401 3.799 15.174 3.799 15.174s-14.037 5.515-20.536 5.093c-5.247-.337-4.416-8.857-4.416-8.857z" fill="#FCD7C8"/><path d="M657.305 318L651 307.966l4.436-2.966L661 316.533 657.305 318z" fill="#274ECE"/><path d="M638.947 322.718l1.336-13.434 19.765-24.534L662 272c-12.842 6.79-32.189 20.645-42.807 45.914-16.705 40.017 5.137 40.49 10.054 40.007 4.918-.484 29.234-13.392 29.234-13.392l-8.112-26.615-11.422 4.804z" fill="#fff"/><path d="M624.76 328.845l26.069-10.789 8.207 26.521s-24.569 12.863-29.576 13.344c-5.006.482-27.114 0-10.172-39.865 0 0 5.409-16.088 21.284-30.27C656.448 273.604 670 268 670 268" stroke="#6D6D6D" stroke-width="1.26" stroke-miterlimit="10" stroke-linecap="round"/><path d="M697.98 303h-27.96c-4.429 0-8.02 3.576-8.02 7.987v42.026c0 4.411 3.591 7.987 8.02 7.987h27.96c4.429 0 8.02-3.576 8.02-7.987v-42.026c0-4.411-3.591-7.987-8.02-7.987z" fill="#191D2B"/><path d="M691.971 301h-15.942c-1.673 0-3.029 1.285-3.029 2.869v.262c0 1.584 1.356 2.869 3.029 2.869h15.942c1.673 0 3.029-1.285 3.029-2.869v-.262c0-1.584-1.356-2.869-3.029-2.869z" fill="#274ECE"/><path d="M684 297c-.989 0-1.956.264-2.778.758a4.642 4.642 0 00-1.841 2.02 4.08 4.08 0 00-.285 2.6 4.38 4.38 0 001.368 2.304 5.206 5.206 0 002.561 1.232c.97.173 1.975.084 2.888-.257a4.916 4.916 0 002.244-1.657c.55-.74.843-1.61.843-2.5 0-1.193-.527-2.338-1.464-3.182-.938-.844-2.21-1.318-3.536-1.318zm0 6.955a2.961 2.961 0 01-1.526-.411 2.537 2.537 0 01-1.013-1.106 2.236 2.236 0 01-.159-1.426c.105-.479.367-.92.75-1.265.384-.345.873-.58 1.405-.675a3.018 3.018 0 011.585.143c.501.187.929.505 1.229.912.3.407.459.885.457 1.373 0 .651-.287 1.276-.799 1.736a2.884 2.884 0 01-1.929.719z" fill="#274ECE"/><path d="M705.685 324.005v4.398s-8.901-4.71-10.903-4.387c-2.002.323-2.792 1.994-1.117 3.6 0 0-2.475-.668-3.16.97-.685 1.639.537 3.019 2.107 3.913 0 0-2.255-.808-2.592.712-.337 1.52 3.635 3.923 3.635 3.923s-1.812-1.401-2.413-.539c-.6.863.221 3.18 6.605 6.252A206.697 206.697 0 00709.435 348L718 333.825l-12.315-9.82z" fill="#FCD7C8"/><path d="M693 337l7 3m-9-8l11 5m-9-9l11 6" stroke="#6D6D6D" stroke-width="1.26" stroke-miterlimit="10" stroke-linecap="round"/><path d="M738.446 315.295C727.064 292.655 707.425 276.657 694 272l2.906 4.355c5.149 4.177 10.288 9.398 13.226 15.12 6.244 12.114 11.109 29.239 12.509 34.398-2.706-.71-4.665-1.17-4.665-1.17l-9.708 27.412s12.636 5.89 17.806 7.686c4.591 1.577 15.637 2.872 20.133-4.835 3.748-6.391 1.832-20.603-7.761-39.671z" fill="#fff"/><path d="M734.903 329.234a161.39 161.39 0 00-16.812-4.932l-9.652 27.427s12.562 5.81 17.702 7.69c15.409 5.622 33.278-2.518 12.289-44.541a110.208 110.208 0 00-26.725-33.07C697.364 269.699 689.722 266.721 687 266" stroke="#6D6D6D" stroke-width="1.26" stroke-miterlimit="10" stroke-linecap="round"/><path d="M700 241a21.004 21.004 0 01-12.964 19.401 20.995 20.995 0 01-28.632-15.304A20.996 20.996 0 01679 220a21 21 0 0121 21z" fill="#191D2B"/><path d="M705 217.489a11.872 11.872 0 01-1.85 6.393 11.116 11.116 0 01-4.936 4.241c-2.01.871-4.223 1.1-6.357.657a10.865 10.865 0 01-5.635-3.148 11.67 11.67 0 01-3.011-5.891 11.987 11.987 0 01.628-6.647 11.403 11.403 0 014.056-5.16A10.664 10.664 0 01694.01 206c2.915 0 5.71 1.21 7.771 3.365 2.061 2.155 3.219 5.077 3.219 8.124z" fill="#191D2B"/><path d="M688 270c0 3.312-4.032 6-9.005 6-4.974 0-8.995-2.688-8.995-6s4.021-6 8.995-6c4.973 0 9.005 2.688 9.005 6z" fill="#EE80A6"/><path d="M677.825 231.364l-7.145-.354c-4.749-.24-8.857 3.949-9.13 9.315l-.536 11.013c-.273 5.366 3.394 9.951 8.132 10.18l2.448.125v3.741c0 1.489.597 2.918 1.659 3.971a5.69 5.69 0 004.005 1.645h2.185a5.687 5.687 0 004.004-1.645 5.593 5.593 0 001.659-3.971v-5.085l.305-5.845a4.606 4.606 0 00-.074-1.042 8.8 8.8 0 00.084-.917l.568-10.972c.241-5.335-3.384-9.919-8.164-10.159z" fill="#FCD7C8"/><path d="M675.997 244.58a1.51 1.51 0 01-.296.819 1.505 1.505 0 01-2.316.105 1.498 1.498 0 01-.239-1.649 1.502 1.502 0 012.77.144c.066.186.093.384.081.581zm-10.998-.998c-.011.295-.08.579-.198.816a1.152 1.152 0 01-.467.516.683.683 0 01-.578.04c-.192-.072-.365-.228-.497-.447a1.885 1.885 0 01-.248-.785c-.029-.293 0-.592.084-.86s.219-.493.388-.646a.759.759 0 01.561-.215c.267.021.516.199.695.495.179.296.272.687.26 1.086z" fill="#191D2B"/><path d="M666 250.399s.731 2.333 2.524 2.578c1.793.246 3.321-1.534 3.476-2.977" stroke="#191D2B" stroke-width=".95" stroke-linecap="round" stroke-linejoin="round"/><path d="M680.995 251.204a4.004 4.004 0 01-2.653 3.564 4 4 0 112.653-3.564zm-18.975-4.184a3.482 3.482 0 00-.75 0l-.22 4.121a7.933 7.933 0 000 1.783c.193.034.388.058.584.072a3.342 3.342 0 002.309-.766 2.92 2.92 0 001.053-2.067 2.877 2.877 0 00-.82-2.159 3.294 3.294 0 00-2.211-.984h.055z" fill="#FFA6A6" fill-opacity=".3"/><path d="M694.993 249.73a5.21 5.21 0 01-1.153 3.019 5.976 5.976 0 01-2.792 1.92 6.516 6.516 0 01-3.484.171 6.127 6.127 0 01-2.999-1.635 5.326 5.326 0 01-1.499-2.889 5.093 5.093 0 01.509-3.165c.507-.986 1.323-1.81 2.343-2.37a6.435 6.435 0 013.386-.774 6.424 6.424 0 012.263.512c.71.305 1.348.736 1.876 1.268a5.388 5.388 0 011.204 1.83c.266.677.383 1.395.346 2.113z" fill="#FCD7C8"/><path d="M686 250s0-3.503 4-2.938M663 241h2m8-1c1.358.167 2.698.502 4 1" stroke="#191D2B" stroke-width="1.26" stroke-miterlimit="10" stroke-linecap="round"/><path d="M668.686 243a30.483 30.483 0 01-1.686 3.557c.656.19 1.324.338 2 .443" stroke="#191D2B" stroke-width=".95" stroke-linecap="round" stroke-linejoin="round"/><path d="M686.244 231.042c-3.816-4.199-23.268-9.423-26.244 9.024 3.885-1.325 7.209-3.844 9.46-7.17 0 0 .617 4.097 11.129 8.706.935.4 1.775.717 2.54.963l.521 4.435 3.189-3.8c5.782-.348 2.434-8.808-.595-12.158z" fill="#191D2B"/></svg>