<svg width="24" height="24" viewBox="0 0 24 24" fill="none" xmlns="http://www.w3.org/2000/svg">
<path d="M8.19727 6.20508L8.6458 18.8521L12.1237 14.8389L17.4334 14.8566L8.19727 6.20508Z" fill="#9FA0A5"/>
<path d="M8.64635 19.0501C8.62402 19.0498 8.60196 19.0458 8.58115 19.0382C8.50478 19.0116 8.45226 18.9412 8.44868 18.8604L8.00014 6.20564C7.99711 6.12514 8.04329 6.05084 8.11676 6.0179C8.18967 5.98454 8.27555 5.9986 8.33413 6.05346L17.5685 14.7126C17.6276 14.7681 17.6469 14.8538 17.6173 14.9292C17.5877 15.0046 17.5152 15.0542 17.4341 15.0545L12.2232 15.0388L8.80654 18.991C8.76491 19.0338 8.70605 19.0558 8.6465 19.0502L8.64635 19.0501ZM8.41312 6.67761L8.82609 18.3366L11.9741 14.7027C12.0116 14.6587 12.0665 14.6335 12.1242 14.6335L16.9321 14.6493L8.41312 6.67761Z" fill="#9FA0A5"/>
</svg>
