<svg version="1.2" xmlns="http://www.w3.org/2000/svg" viewBox="0 0 24 24" width="24" height="24">
	<title>icon_clear_dark-svg</title>
	<style>
		.s0 { fill: #9fa0a5 } 
	</style>
	<path id="Layer" fill-rule="evenodd" class="s0" d="m16.7 13.6c0-2.6-2.1-4.8-4.7-4.8v-1.3c3.4 0 6.1 2.7 6.1 6.1c0 3.3-2.7 6.1-6.1 6.1c-3.4 0-6.1-2.8-6.1-6.1q0-1.2 0.4-2.2l1.3 0.5q-0.3 0.8-0.3 1.7c0 2.6 2.1 4.7 4.7 4.7c2.6 0 4.7-2.1 4.7-4.7z" />
	<path id="Layer" class="s0" d="m12.2 11.2l-3.5-2.8c-0.2-0.1-0.2-0.4 0-0.5l3.5-2.8c0.2-0.2 0.6 0 0.6 0.3v5.5c0 0.3-0.4 0.5-0.6 0.3z" />
</svg>