<svg width="24" height="24" viewBox="0 0 24 24" fill="none" xmlns="http://www.w3.org/2000/svg">
<rect x="5" y="5" width="14" height="14" rx="1" fill="#6A6F81"/>
<path fill-rule="evenodd" clip-rule="evenodd" d="M18 15.1162L16.6579 13.64C16.0375 12.9575 14.9726 12.9322 14.3204 13.5843L13.0982 14.8065L10.3084 11.4612C9.67058 10.6963 8.49933 10.6852 7.84709 11.4378L6 13.569V15.2134L8.66091 12.1431C8.87832 11.8922 9.26874 11.8959 9.48135 12.1509L14.3592 18H15.7615L13.7908 15.6369L15.0819 14.3458C15.2993 14.1285 15.6543 14.1369 15.8611 14.3644L18 16.7172V15.1162ZM15.5901 9.08325C15.5901 9.45498 15.2888 9.75633 14.917 9.75633C14.5453 9.75633 14.244 9.45498 14.244 9.08325C14.244 8.71152 14.5453 8.41018 14.917 8.41018C15.2888 8.41018 15.5901 8.71152 15.5901 9.08325ZM16.667 9.08325C16.667 10.0498 15.8835 10.8333 14.917 10.8333C13.9505 10.8333 13.167 10.0498 13.167 9.08325C13.167 8.11675 13.9505 7.33325 14.917 7.33325C15.8835 7.33325 16.667 8.11675 16.667 9.08325Z" fill="white"/>
</svg>
