<svg width="24" height="24" viewBox="0 0 24 24" fill="none" xmlns="http://www.w3.org/2000/svg">
<path d="M16.0201 5.78955L18.6701 8.43958C18.7624 8.53473 18.814 8.66203 18.814 8.79456C18.814 8.92708 18.7624 9.05439 18.6701 9.14954L13.2301 14.5896L9.87012 11.2296L15.3101 5.78955C15.3566 5.74269 15.4119 5.70556 15.4728 5.68018C15.5338 5.65479 15.5991 5.6416 15.6651 5.6416C15.7311 5.6416 15.7965 5.65479 15.8574 5.68018C15.9184 5.70556 15.9736 5.74269 16.0201 5.78955Z" fill="#637EDD"/>
<path d="M7.17676 14.13C7.17676 13.9991 7.22809 13.8735 7.3197 13.78L9.01968 12.0801L12.3797 15.4401L10.6797 17.13C10.6348 17.1778 10.5806 17.216 10.5204 17.2421C10.4602 17.2681 10.3953 17.2816 10.3297 17.2816C10.2641 17.2816 10.1992 17.2681 10.139 17.2421C10.0788 17.216 10.0246 17.1778 9.97971 17.13L9.52969 16.6901L7.86969 18.3501L5.17969 17.51L7.76968 14.92L7.3197 14.4801C7.22809 14.3866 7.17676 14.2609 7.17676 14.13Z" fill="#637EDD"/>
</svg>
