<svg width="24" height="24" viewBox="0 0 24 24" fill="none" xmlns="http://www.w3.org/2000/svg">
<path fill-rule="evenodd" clip-rule="evenodd" d="M6 5C5.44772 5 5 5.44772 5 6V18C5 18.5523 5.44772 19 6 19H18C18.5523 19 19 18.5523 19 18V6C19 5.44772 18.5523 5 18 5H6ZM16.6579 13.6397L18 15.116V16.717L15.8611 14.3641C15.6543 14.1367 15.2993 14.1282 15.0819 14.3456L13.7908 15.6367L15.7615 17.9998H14.3592L9.48135 12.1506C9.26874 11.8957 8.87832 11.892 8.66091 12.1429L6 15.2131V13.5688L7.84709 11.4375C8.49933 10.685 9.67058 10.6961 10.3084 11.4609L13.0982 14.8062L14.3204 13.5841C14.9726 12.9319 16.0375 12.9573 16.6579 13.6397ZM14.917 9.75608C15.2888 9.75608 15.5901 9.45474 15.5901 9.08301C15.5901 8.71128 15.2888 8.40993 14.917 8.40993C14.5453 8.40993 14.244 8.71128 14.244 9.08301C14.244 9.45474 14.5453 9.75608 14.917 9.75608ZM14.917 10.833C15.8835 10.833 16.667 10.0495 16.667 9.08301C16.667 8.11651 15.8835 7.33301 14.917 7.33301C13.9505 7.33301 13.167 8.11651 13.167 9.08301C13.167 10.0495 13.9505 10.833 14.917 10.833Z" fill="#9FA0A5"/>
</svg>
