<svg width="24" height="24" viewBox="0 0 24 24" fill="none" xmlns="http://www.w3.org/2000/svg">
<path fill-rule="evenodd" clip-rule="evenodd" d="M4.71904 13.9332C4.48404 14.1682 4.48483 14.5494 4.72082 14.7835L7.89267 17.9289C8.17361 18.2075 8.55324 18.3638 8.94889 18.3638L20.4453 18.3638L20.4453 17.3638L12.6021 17.3638L13.1828 16.7831L18.5918 11.3741C18.8261 11.1398 18.8261 10.7599 18.5918 10.5256L13.7835 5.71724C13.5492 5.48293 13.1693 5.48292 12.935 5.71724L8.0722 10.58L6.99527 11.6569L4.71904 13.9332ZM11.945 16.6067L7.70238 12.364L5.71018 14.3562L8.59682 17.2189C8.69046 17.3117 8.817 17.3638 8.94889 17.3638L11.188 17.3638L11.945 16.6067Z" fill="#9FA0A5"/>
</svg>
