<svg width="24" height="24" viewBox="0 0 24 24" fill="none" xmlns="http://www.w3.org/2000/svg">
<path d="M11.9496 5.5C11.9496 5.5 16.0796 10.4499 16.0796 13.6899C16.0765 13.9892 16.0431 14.2873 15.9796 14.5798L9.84961 8.43994C10.4883 7.41753 11.1896 6.43571 11.9496 5.5Z" fill="#979DAF"/>
<path d="M6.71002 6.75L17.84 17.8799L17.14 18.5898L14.99 16.4399C14.4335 17.0618 13.7013 17.4998 12.8903 17.6963C12.0792 17.8928 11.2276 17.8384 10.4482 17.5403C9.66875 17.2422 8.99821 16.7144 8.52533 16.0269C8.05245 15.3393 7.79951 14.5244 7.79999 13.6899C7.87942 12.4874 8.22072 11.3166 8.79999 10.2598L6 7.45996L6.71002 6.75Z" fill="#979DAF"/>
</svg>
