<svg width="24" height="24" viewBox="0 0 24 24" fill="none" xmlns="http://www.w3.org/2000/svg">
<g clip-path="url(#clip0_377_2491)">
<path fill-rule="evenodd" clip-rule="evenodd" d="M18.9824 8.97421C18.6893 4.42016 15.4353 4.82261 14.1713 5.23821C14.093 5.26394 14.0125 5.29104 13.9301 5.31879C13.3443 5.51602 12.6616 5.7459 12.0018 5.7459C11.3395 5.7459 10.6606 5.51692 10.0691 5.31743C9.9885 5.29026 9.90955 5.26363 9.83249 5.23821C8.57286 4.82261 5.3188 4.42016 5.02138 8.97421C4.97066 9.85089 5.01024 10.7305 5.13948 11.599C5.23133 12.1677 6.39473 12.6621 8.12673 12.9639L8.51599 14.4863H8.37606C8.26006 14.4944 8.15202 14.5483 8.07574 14.6361C7.99946 14.7239 7.96116 14.8384 7.96928 14.9544C7.9774 15.0704 8.03127 15.1785 8.11904 15.2548C8.2068 15.3311 8.32125 15.3694 8.43724 15.3613H8.49848L15.9601 14.3113C16.0761 14.2951 16.1809 14.2334 16.2515 14.1399C16.322 14.0464 16.3525 13.9286 16.3362 13.8126C16.32 13.6966 16.2584 13.5918 16.1649 13.5212C16.0713 13.4507 15.9536 13.4201 15.8376 13.4364H15.807L15.9382 12.9246C17.6571 12.6183 18.7987 12.1196 18.8599 11.5465C18.9846 10.6952 19.0256 9.8336 18.9824 8.97421ZM9.51763 18.345C9.56599 18.5323 9.67504 18.6983 9.82777 18.8171C9.98051 18.9358 10.1683 19.0005 10.3617 19.0012H13.712C13.9062 19.0015 14.095 18.9372 14.2486 18.8184C14.4022 18.6996 14.512 18.533 14.5605 18.345L14.8289 17.3043L9.44066 18.0513L9.51763 18.345ZM15.2684 15.6009L15.3881 15.1368L8.91818 16.0338L9.04947 16.5426H8.90078C8.84389 16.5512 8.78924 16.5708 8.73997 16.6006C8.6907 16.6303 8.64778 16.6694 8.61365 16.7157C8.57952 16.7621 8.55486 16.8147 8.54109 16.8706C8.52732 16.9264 8.52471 16.9844 8.5334 17.0413C8.54922 17.1456 8.60215 17.2408 8.68252 17.3091C8.7629 17.3774 8.8653 17.4144 8.97078 17.4132H9.03634L15.3914 16.477C15.5074 16.4596 15.6117 16.3968 15.6815 16.3025C15.7512 16.2081 15.7805 16.09 15.7631 15.9739C15.7457 15.8579 15.683 15.7535 15.5887 15.6838C15.4966 15.6157 15.3818 15.5861 15.2684 15.6009Z" fill="#9FA0A5"/>
</g>
<defs>
<clipPath id="clip0_377_2491">
<rect width="13.999" height="13.999" fill="white" transform="translate(5 5.00049)"/>
</clipPath>
</defs>
</svg>
