<svg width="24" height="24" viewBox="0 0 24 24" fill="none" xmlns="http://www.w3.org/2000/svg">
<path d="M16.5493 6.77366C16.0238 6.77366 15.5984 7.15465 15.5984 7.62466V11.4339C15.5984 11.5565 15.4989 11.6559 15.3763 11.6559C15.2536 11.6559 15.1542 11.5565 15.1542 11.4339L15.1543 6.34729C15.1543 5.87728 14.7286 5.49643 14.2034 5.49643C13.6781 5.49643 13.253 5.87728 13.253 6.34729V11.4339C13.253 11.5565 13.1536 11.6559 13.0309 11.6559C12.9083 11.6559 12.8089 11.5565 12.8089 11.4339V5.351C12.8089 4.88099 12.3829 4.5 11.8577 4.5C11.3328 4.5 10.9073 4.88086 10.9073 5.351V11.4338C10.9073 11.5565 10.8078 11.6559 10.6851 11.6559C10.5624 11.6559 10.4629 11.5565 10.4629 11.4338L10.4628 6.34729C10.4628 5.87728 10.0368 5.49643 9.51186 5.49643C8.98682 5.49643 8.56125 5.87728 8.56125 6.34729V13.2288C8.56125 13.4676 8.25852 13.5705 8.11303 13.3812L7.24892 12.2568C6.96289 11.8624 6.37414 11.7502 5.93332 12.0065C5.49281 12.2622 5.36748 12.7891 5.65336 13.1838C5.65336 13.1838 7.50921 16.0595 8.33298 17.3334C9.12216 18.4756 10.8661 19.5 12.6779 19.5C15.5711 19.5 17.3755 17.698 17.3755 15.4716L17.5 11.6563V7.62435C17.4999 7.15421 17.0742 6.77366 16.5493 6.77366Z" fill="#9FA0A5"/>
</svg>
