<svg width="24" height="24" viewBox="0 0 24 24" fill="none" xmlns="http://www.w3.org/2000/svg">
<path fill-rule="evenodd" clip-rule="evenodd" d="M16.3976 7.9465L18.9048 5.94831C19.0311 5.84768 19.0311 5.65281 18.9048 5.55217L16.3976 3.55399C16.2358 3.42507 15.9995 3.54265 15.9995 3.75206V5.25021L7.99951 5.25021V3.75212C7.99951 3.54271 7.7632 3.42513 7.60143 3.55405L5.09421 5.55223C4.96794 5.65287 4.96794 5.84774 5.09421 5.94838L7.60143 7.94656C7.7632 8.07548 7.99951 7.9579 7.99951 7.74849V6.25021L15.9995 6.25021V7.74843C15.9995 7.95784 16.2358 8.07542 16.3976 7.9465ZM13.2675 19.0002H17.9325C18.4487 19.0002 18.7691 18.4387 18.5065 17.9943L13.8414 10.0997C13.4963 9.51552 12.6008 9.76031 12.6008 10.4388V18.3335C12.6008 18.7017 12.8993 19.0002 13.2675 19.0002ZM10.7342 19.0002H6.06918C5.55298 19.0002 5.23262 18.4388 5.49523 17.9944L10.1603 10.0997C10.5054 9.51555 11.4009 9.76034 11.4009 10.4388V18.3335C11.4009 18.7017 11.1024 19.0002 10.7342 19.0002Z" fill="#9FA0A5"/>
</svg>
