<svg width="24" height="24" viewBox="0 0 24 24" fill="none" xmlns="http://www.w3.org/2000/svg">
<path fill-rule="evenodd" clip-rule="evenodd" d="M5.55193 18.9053L3.55375 16.3981C3.42482 16.2363 3.5424 16 3.75182 16L5.25 16L5.25 8.00012L3.75182 8.00012C3.54241 8.00012 3.42482 7.76381 3.55375 7.60204L5.55193 5.09482C5.65256 4.96855 5.84744 4.96855 5.94807 5.09482L7.94625 7.60204C8.07518 7.76381 7.9576 8.00012 7.74818 8.00012L6.25 8.00012L6.25 16L7.74818 16C7.95759 16 8.07518 16.2363 7.94625 16.3981L5.94807 18.9053C5.84744 19.0316 5.65256 19.0316 5.55193 18.9053ZM19 13.2657L19 17.9307C19 18.4469 18.4386 18.7673 17.9942 18.5047L10.0995 13.8396C9.51536 13.4944 9.76015 12.599 10.4387 12.599L18.3333 12.599C18.7015 12.599 19 12.8975 19 13.2657ZM19 10.7323L19 6.06722C19 5.55102 18.4386 5.23067 17.9942 5.49327L10.0995 10.1583C9.51536 10.5035 9.76015 11.3989 10.4387 11.3989L18.3333 11.3989C18.7015 11.3989 19 11.1004 19 10.7323Z" fill="#9FA0A5"/>
</svg>
