<svg width="24" height="24" viewBox="0 0 24 24" fill="none" xmlns="http://www.w3.org/2000/svg">
<path fill-rule="evenodd" clip-rule="evenodd" d="M5.94818 10.1801L5.95024 10.1761L5.96135 10.155C5.97175 10.1354 5.98807 10.1051 6.01018 10.0657C6.05444 9.98668 6.12167 9.87122 6.21069 9.73086C6.38933 9.4492 6.65257 9.07232 6.9905 8.69031C7.67995 7.91094 8.6095 7.18919 9.70454 7.08884C10.3437 7.03026 10.7373 7.36828 10.8021 7.84605C10.8751 8.3845 10.5699 9.35548 9.15064 10.5125C8.16629 11.315 7.14357 12.3354 6.5941 13.4654C6.31593 14.0374 6.14848 14.659 6.1876 15.3055C6.22714 15.9589 6.47553 16.5969 6.96313 17.1952C7.74828 18.1588 8.89646 18.5738 10.1224 18.5888C11.3419 18.6038 12.6713 18.2271 13.9186 17.5725C16.4032 16.2684 18.7148 13.7755 19.2419 10.6908C19.2942 10.3845 19.0883 10.0939 18.7821 10.0416C18.4759 9.98925 18.1852 10.1951 18.1329 10.5013C17.6795 13.155 15.6558 15.3901 13.3957 16.5764C12.2707 17.1669 11.1255 17.476 10.1362 17.4639C9.15344 17.4519 8.3588 17.1271 7.83525 16.4846C7.48361 16.0531 7.33467 15.6361 7.31054 15.2375C7.28599 14.8319 7.38855 14.4042 7.60582 13.9574C8.04724 13.0496 8.9172 12.1543 9.86149 11.3845C11.409 10.1229 12.0671 8.80242 11.9169 7.69484C11.7584 6.52661 10.7421 5.86403 9.60187 5.96853C8.08257 6.10777 6.90849 7.08511 6.14788 7.94492C5.76079 8.38251 5.4624 8.81024 5.26066 9.12831C5.1595 9.28781 5.08185 9.42099 5.02878 9.51568C5.00223 9.56306 4.98178 9.6009 4.96757 9.62769L4.95092 9.65944L4.94612 9.66878L4.94461 9.67175L4.94407 9.6728L4.94386 9.67322C4.94377 9.6734 4.94369 9.67356 5.44587 9.92683L4.94369 9.67356C4.8038 9.95095 4.91526 10.2892 5.19264 10.4291C5.46993 10.5689 5.80806 10.4576 5.94804 10.1804L5.94807 10.1804L5.94818 10.1801Z" fill="#6A6F81"/>
</svg>
