<svg width="24" height="24" viewBox="0 0 24 24" fill="none" xmlns="http://www.w3.org/2000/svg">
<path fill-rule="evenodd" clip-rule="evenodd" d="M16.3976 7.94625L18.9048 5.94807C19.0311 5.84744 19.0311 5.65256 18.9048 5.55193L16.3976 3.55375C16.2358 3.42482 15.9995 3.54241 15.9995 3.75182V5.24997L7.99951 5.24997V3.75188C7.99951 3.54247 7.7632 3.42488 7.60143 3.55381L5.09421 5.55199C4.96794 5.65262 4.96794 5.8475 5.09421 5.94813L7.60143 7.94631C7.7632 8.07524 7.99951 7.95766 7.99951 7.74824V6.24997L15.9995 6.24997V7.74818C15.9995 7.95759 16.2358 8.07518 16.3976 7.94625ZM13.2675 18.9999H17.9325C18.4487 18.9999 18.7691 18.4385 18.5065 17.9941L13.8414 10.0994C13.4963 9.51527 12.6008 9.76006 12.6008 10.4386V18.3332C12.6008 18.7014 12.8993 18.9999 13.2675 18.9999ZM10.7342 18.9999H6.06918C5.55298 18.9999 5.23262 18.4385 5.49523 17.9941L10.1603 10.0994C10.5054 9.5153 11.4009 9.76009 11.4009 10.4386V18.3333C11.4009 18.7015 11.1024 18.9999 10.7342 18.9999Z" fill="#6A6F81"/>
</svg>
