<svg width="24" height="24" viewBox="0 0 24 24" fill="none" xmlns="http://www.w3.org/2000/svg">
<path fill-rule="evenodd" clip-rule="evenodd" d="M6.39184 10.2553L6.39391 10.2515L6.4085 10.2252C6.42232 10.2005 6.44422 10.162 6.47374 10.1119C6.53289 10.0115 6.6221 9.86541 6.73784 9.69081C6.9713 9.33862 7.30305 8.8852 7.70394 8.45965C8.57334 7.53676 9.44423 7.07294 10.2198 7.28123C10.4715 7.34881 10.7226 7.58927 10.7434 7.99494C10.7643 8.40384 10.5455 9.20943 9.30028 10.2255C8.43465 10.9319 7.50786 11.8496 6.97099 12.9153C6.40815 14.0324 6.2589 15.3662 7.08906 16.6763C7.74512 17.7115 8.85944 18.1886 10.0174 18.268C11.1706 18.3471 12.4529 18.0477 13.68 17.4471C16.1445 16.2408 18.5671 13.7332 19.5426 10.0358C19.6852 9.49507 19.3625 8.94112 18.8219 8.79848C18.2812 8.65583 17.7272 8.97851 17.5846 9.5192C16.7659 12.6224 14.7505 14.6685 12.7897 15.6283C11.8042 16.1107 10.877 16.2972 10.156 16.2478C9.43974 16.1986 9.0151 15.9325 8.79953 15.5923C8.43547 15.0178 8.45854 14.4633 8.77944 13.8264C9.12631 13.1379 9.7947 12.4357 10.5806 11.7945C12.1084 10.5477 12.8316 9.18013 12.7657 7.89153C12.6997 6.59971 11.8352 5.6183 10.745 5.32552C8.79026 4.80057 7.16956 6.07371 6.22997 7.0711C5.72636 7.60569 5.32426 8.15823 5.05 8.57197C4.91187 8.78033 4.80374 8.95719 4.72903 9.084C4.69162 9.14749 4.66245 9.19868 4.64194 9.23528C4.63168 9.25359 4.62358 9.26827 4.61769 9.27904L4.6105 9.29223L4.60816 9.29656L4.60731 9.29815C4.60716 9.29843 4.60666 9.29935 5.49925 9.7773L4.60666 9.29935C4.3427 9.79231 4.52833 10.4059 5.0213 10.6699C5.51411 10.9338 6.12774 10.7479 6.39184 10.2553Z" fill="#6A6F81"/>
</svg>
