<svg width="32" height="32" viewBox="0 0 32 32" fill="none" xmlns="http://www.w3.org/2000/svg">
<path fill-rule="evenodd" clip-rule="evenodd" d="M7.9309 13.5737L7.93366 13.5683L7.94847 13.5401C7.96233 13.514 7.9841 13.4737 8.01358 13.421C8.07259 13.3157 8.16223 13.1618 8.28092 12.9746C8.51911 12.5991 8.8701 12.0966 9.32067 11.5872C10.2399 10.5481 11.4793 9.58575 12.9394 9.45195C13.7917 9.37384 14.3164 9.82453 14.4028 10.4616C14.5002 11.1795 14.0932 12.4741 12.2009 14.0168C10.8884 15.0868 9.52476 16.4474 8.79213 17.954C8.42123 18.7167 8.19797 19.5455 8.25013 20.4074C8.30285 21.2787 8.63405 22.1293 9.28417 22.9272C10.331 24.2119 11.862 24.7653 13.4966 24.7853C15.1225 24.8052 16.8951 24.303 18.5581 23.4301C21.8709 21.6913 24.9531 18.3675 25.6558 14.2545C25.7256 13.8462 25.4511 13.4587 25.0428 13.3889C24.6345 13.3192 24.247 13.5936 24.1772 14.0019C23.5727 17.5402 20.8744 20.5203 17.861 22.102C16.3609 22.8893 14.834 23.3015 13.5149 23.2854C12.2046 23.2693 11.1451 22.8363 10.447 21.9796C9.97815 21.4042 9.77955 20.8484 9.74739 20.3168C9.71466 19.776 9.8514 19.2057 10.1411 18.61C10.7297 17.3996 11.8896 16.2059 13.1487 15.1794C15.212 13.4973 16.0895 11.7367 15.8892 10.26C15.6779 8.70231 14.3228 7.81887 12.8025 7.95821C10.7768 8.14385 9.21132 9.44697 8.19718 10.5934C7.68105 11.1768 7.28319 11.7472 7.01422 12.1712C6.87933 12.3839 6.7758 12.5615 6.70505 12.6877C6.66964 12.7509 6.64238 12.8014 6.62342 12.8371L6.60122 12.8794L6.59483 12.8919L6.59281 12.8958L6.5921 12.8972L6.59182 12.8978C6.59169 12.898 6.59158 12.8982 7.26117 13.2359L6.59158 12.8982C6.40506 13.2681 6.55368 13.7191 6.92352 13.9056C7.29324 14.0921 7.74408 13.9436 7.93072 13.5741L7.93076 13.574L7.9309 13.5737Z" fill="#9FA0A5"/>
</svg>
