<svg width="24" height="24" viewBox="0 0 24 24" fill="none" xmlns="http://www.w3.org/2000/svg">
<g clip-path="url(#clip0_377_2502)">
<path fill-rule="evenodd" clip-rule="evenodd" d="M5.01666 15.0275C5.3097 19.5815 8.56376 19.1791 9.82776 18.7635C9.90601 18.7378 9.98652 18.7107 10.0689 18.6829C10.6547 18.4857 11.3375 18.2558 11.9972 18.2558C12.6595 18.2558 13.3385 18.4848 13.93 18.6843C14.0105 18.7115 14.0895 18.7381 14.1665 18.7635C15.4262 19.1791 18.6802 19.5816 18.9776 15.0275C19.0284 14.1508 18.9888 13.2713 18.8595 12.4027C18.7677 11.834 17.6043 11.3396 15.8723 11.0378L15.483 9.51539L15.623 9.51539C15.739 9.50727 15.847 9.45338 15.9233 9.3656C15.9996 9.27781 16.0379 9.16334 16.0297 9.04732C16.0216 8.9313 15.9678 8.82323 15.88 8.74693C15.7922 8.67063 15.6778 8.63233 15.5618 8.64045L15.5005 8.64045L8.03892 9.69039C7.92292 9.70663 7.81811 9.76828 7.74757 9.86181C7.67703 9.95533 7.64655 10.0731 7.66279 10.1891C7.67903 10.3051 7.74066 10.4099 7.83417 10.4805C7.92768 10.551 8.0454 10.5816 8.1614 10.5653L8.19199 10.5653L8.06081 11.0771C6.34193 11.3834 5.20037 11.8821 5.13913 12.4552C5.01444 13.3066 4.97341 14.1681 5.01666 15.0275ZM14.4814 5.65676C14.433 5.46941 14.324 5.30336 14.1713 5.18463C14.0185 5.06589 13.8307 5.00118 13.6373 5.00055L10.287 5.00055C10.0928 5.00021 9.90405 5.06448 9.75043 5.18329C9.5968 5.3021 9.48707 5.46869 9.43852 5.65675L9.17009 6.69743L14.5584 5.95039L14.4814 5.65676ZM8.73063 8.40076L8.6109 8.86492L15.0808 7.96792L14.9496 7.4591L15.0982 7.4591C15.1551 7.45055 15.2098 7.43086 15.2591 7.40116C15.3083 7.37145 15.3512 7.3323 15.3854 7.28597C15.4195 7.23964 15.4442 7.18703 15.4579 7.13116C15.4717 7.07528 15.4743 7.01726 15.4656 6.96038C15.4498 6.85606 15.3969 6.76095 15.3165 6.69262C15.2361 6.62429 15.1337 6.58734 15.0282 6.58854L14.9627 6.58854L8.60763 7.52467C8.49164 7.54208 8.38728 7.6049 8.31756 7.69925C8.24784 7.79359 8.21848 7.91175 8.23588 8.02778C8.25328 8.1438 8.31603 8.24817 8.41036 8.31791C8.50246 8.386 8.61727 8.41561 8.73063 8.40076Z" fill="#9FA0A5"/>
</g>
<defs>
<clipPath id="clip0_377_2502">
<rect width="13.999" height="13.999" fill="white" transform="translate(5 5.00049)"/>
</clipPath>
</defs>
</svg>
