<svg width="24" height="24" viewBox="0 0 24 24" fill="none" xmlns="http://www.w3.org/2000/svg">
<path d="M8.24496 11.3305C8.11593 11.4195 7.99064 11.5147 7.86959 11.6161C6.95827 12.379 6.34475 13.4385 6.13671 14.6087L4.8623 14.3821C5.12359 12.9125 5.89413 11.5818 7.03869 10.6236C8.18315 9.66546 9.62882 9.1409 11.1214 9.14209C12.2362 9.14251 13.3313 9.43554 14.2973 9.99169C14.918 10.349 15.4714 10.8069 15.9363 11.3443L17.4429 9.81506C17.4894 9.76989 17.5482 9.73945 17.6119 9.72764C17.6756 9.71584 17.7414 9.72324 17.801 9.74877C17.8606 9.7743 17.9113 9.81687 17.9466 9.87115C17.982 9.92544 18.0006 9.98896 17.9999 10.0538V14.0322C17.9999 14.1299 17.9611 14.2234 17.8921 14.2924C17.8231 14.3615 17.7295 14.4003 17.6319 14.4003H13.6534C13.5948 14.3909 13.5398 14.3657 13.4943 14.3275C13.4488 14.2893 13.4145 14.2396 13.3951 14.1834C13.3757 14.1273 13.3719 14.0668 13.3841 14.0087C13.3963 13.9506 13.4241 13.8969 13.4644 13.8533L15.0243 12.27C14.6405 11.8077 14.1761 11.4155 13.6515 11.1135C12.8816 10.6702 12.0086 10.4368 11.1203 10.4365C10.0897 10.4356 9.08735 10.7496 8.24496 11.3305Z" fill="#ADB2C2"/>
</svg>
