<svg width="24" height="24" viewBox="0 0 24 24" fill="none" xmlns="http://www.w3.org/2000/svg">
<path d="M19 14.5C19 16.9853 16.9853 19 14.5 19C12.0147 19 10 16.9853 10 14.5C10 12.0147 12.0147 10 14.5 10C16.9853 10 19 12.0147 19 14.5Z" fill="#6A6F81"/>
<path fill-rule="evenodd" clip-rule="evenodd" d="M5.75 5.25C5.47386 5.25 5.25 5.47386 5.25 5.75V13.75C5.25 14.0261 5.47386 14.25 5.75 14.25H8.80543C8.93268 11.3009 11.3009 8.93264 14.25 8.80534V5.75C14.25 5.47386 14.0261 5.25 13.75 5.25H5.75ZM14.25 10.0068C11.9638 10.132 10.132 11.9638 10.0069 14.25H13.75C14.0261 14.25 14.25 14.0261 14.25 13.75V10.0068Z" fill="#6A6F81"/>
</svg>
