<svg width="24" height="24" viewBox="0 0 24 24" fill="none" xmlns="http://www.w3.org/2000/svg">
<g clip-path="url(#clip0_8_1007)">
<path fill-rule="evenodd" clip-rule="evenodd" d="M5.01666 15.0272C5.3097 19.5813 8.56376 19.1789 9.82776 18.7633C9.90601 18.7375 9.98652 18.7104 10.0689 18.6827C10.6547 18.4854 11.3375 18.2556 11.9972 18.2556C12.6595 18.2556 13.3385 18.4845 13.93 18.684C14.0105 18.7112 14.0895 18.7378 14.1665 18.7633C15.4262 19.1789 18.6802 19.5813 18.9776 15.0273C19.0284 14.1506 18.9888 13.271 18.8595 12.4024C18.7677 11.8337 17.6043 11.3394 15.8723 11.0375L15.483 9.51514L15.623 9.51515C15.739 9.50702 15.847 9.45314 15.9233 9.36535C15.9996 9.27757 16.0379 9.1631 16.0297 9.04708C16.0216 8.93105 15.9678 8.82299 15.88 8.74669C15.7922 8.67039 15.6778 8.63208 15.5618 8.64021L15.5005 8.64021L8.03892 9.69014C7.92292 9.70639 7.81811 9.76804 7.74757 9.86156C7.67703 9.95509 7.64655 10.0728 7.66279 10.1889C7.67903 10.3049 7.74066 10.4097 7.83417 10.4802C7.92768 10.5508 8.0454 10.5813 8.1614 10.5651L8.19199 10.5651L8.06081 11.0769C6.34193 11.3831 5.20037 11.8818 5.13913 12.4549C5.01444 13.3063 4.97341 14.1679 5.01666 15.0272ZM14.4814 5.65651C14.433 5.46917 14.324 5.30312 14.1713 5.18438C14.0185 5.06565 13.8307 5.00093 13.6373 5.00031L10.287 5.00031C10.0928 4.99996 9.90405 5.06424 9.75043 5.18305C9.5968 5.30186 9.48707 5.46844 9.43852 5.65651L9.17009 6.69718L14.5584 5.95015L14.4814 5.65651ZM8.73063 8.40052L8.6109 8.86467L15.0808 7.96768L14.9496 7.45885L15.0982 7.45885C15.1551 7.45031 15.2098 7.43062 15.2591 7.40091C15.3083 7.37121 15.3512 7.33205 15.3854 7.28572C15.4195 7.2394 15.4442 7.18678 15.4579 7.13091C15.4717 7.07504 15.4743 7.01702 15.4656 6.96013C15.4498 6.85582 15.3969 6.76071 15.3165 6.69237C15.2361 6.62404 15.1337 6.5871 15.0282 6.58829L14.9627 6.58829L8.60763 7.52443C8.49164 7.54183 8.38728 7.60465 8.31756 7.699C8.24784 7.79335 8.21848 7.91151 8.23588 8.02753C8.25328 8.14356 8.31603 8.24793 8.41036 8.31766C8.50246 8.38576 8.61727 8.41537 8.73063 8.40052Z" fill="#6A6F81"/>
</g>
<defs>
<clipPath id="clip0_8_1007">
<rect width="13.999" height="13.999" fill="white" transform="translate(5 5.00049)"/>
</clipPath>
</defs>
</svg>
