<svg width="24" height="24" viewBox="0 0 24 24" fill="none" xmlns="http://www.w3.org/2000/svg">
<path fill-rule="evenodd" clip-rule="evenodd" d="M10.3981 2.81595L12.9053 4.81414C13.0316 4.91477 13.0316 5.10964 12.9053 5.21028L10.3981 7.20846C10.2363 7.33738 10 7.2198 10 7.01039V5.5H9C7.067 5.5 5.5 7.067 5.5 9V11H4.5V9C4.5 6.51472 6.51472 4.5 9 4.5H10V3.01403C10 2.80461 10.2363 2.68703 10.3981 2.81595ZM18 10C18 9.44772 17.5523 9 17 9H9.25C8.69771 9 8.25 9.44772 8.25 10V17.75C8.25 18.3023 8.69771 18.75 9.25 18.75H17C17.5523 18.75 18 18.3023 18 17.75V10Z" fill="#6A6F81"/>
</svg>
