<svg width="32" height="32" viewBox="0 0 32 32" fill="none" xmlns="http://www.w3.org/2000/svg">
<path fill-rule="evenodd" clip-rule="evenodd" d="M18.1357 3.75428L14.7928 6.41852C14.6244 6.5527 14.6244 6.81253 14.7928 6.94671L18.1357 9.61095C18.3514 9.78285 18.6665 9.62608 18.6665 9.34686V7.33309H20.0002C22.5775 7.33309 24.6668 9.42243 24.6668 11.9998V14.6664H26.0002V11.9998C26.0002 8.68605 23.3139 5.99976 20.0002 5.99976H18.6665V4.01837C18.6665 3.73916 18.3514 3.58238 18.1357 3.75428ZM8 13.3331C8 12.5967 8.59695 11.9998 9.33333 11.9998H19.6667C20.403 11.9998 21 12.5967 21 13.3331V23.6664C21 24.4028 20.403 24.9998 19.6667 24.9998H9.33333C8.59695 24.9998 8 24.4028 8 23.6664V13.3331Z" fill="#9FA0A5"/>
</svg>
