<svg width="24" height="24" viewBox="0 0 24 24" fill="none" xmlns="http://www.w3.org/2000/svg">
<path d="M15.755 11.33C15.884 11.419 16.0093 11.5142 16.1303 11.6156C17.0417 12.3785 17.6552 13.438 17.8632 14.6082L19.1376 14.3816C18.8763 12.912 18.1058 11.5813 16.9612 10.6231C15.8168 9.66497 14.3711 9.14041 12.8785 9.1416C11.7638 9.14203 10.6687 9.43505 9.70262 9.9912C9.08197 10.3485 8.52853 10.8064 8.06359 11.3438L6.557 9.81457C6.51053 9.7694 6.45173 9.73896 6.38801 9.72715C6.32429 9.71535 6.25849 9.72275 6.19892 9.74828C6.13936 9.77381 6.08869 9.81638 6.05329 9.87066C6.01789 9.92495 5.99935 9.98847 6.00002 10.0533V14.0318C6.00002 14.1294 6.03879 14.2229 6.1078 14.292C6.17682 14.361 6.27042 14.3998 6.36802 14.3998H10.3465C10.4052 14.3904 10.4602 14.3652 10.5057 14.327C10.5512 14.2888 10.5854 14.2391 10.6048 14.1829C10.6242 14.1268 10.628 14.0663 10.6158 14.0082C10.6036 13.9501 10.5758 13.8964 10.5355 13.8528L8.97564 12.2695C9.35947 11.8072 9.82382 11.415 10.3484 11.113C11.1183 10.6698 11.9913 10.4363 12.8796 10.436C13.9102 10.4351 14.9126 10.7491 15.755 11.33Z" fill="#ADB2C2"/>
</svg>
