<svg width="24" height="24" viewBox="0 0 24 24" fill="none" xmlns="http://www.w3.org/2000/svg">
<path d="M18.9202 13C19.0269 12.3376 19.0269 11.6624 18.9202 11L20.6202 9.61999C20.7101 9.54271 20.7702 9.43655 20.7902 9.31976C20.8103 9.20297 20.7891 9.08285 20.7302 8.98001L18.9802 5.98001C18.9198 5.87828 18.826 5.80069 18.7147 5.76055C18.6034 5.72042 18.4816 5.72024 18.3702 5.76L16.3702 6.54C15.8472 6.12144 15.264 5.7843 14.6402 5.54L14.2802 3.39001C14.2633 3.27253 14.2042 3.16519 14.1141 3.08795C14.024 3.0107 13.9089 2.96878 13.7902 2.97H10.3002C10.1809 2.97046 10.0655 3.01273 9.97419 3.08947C9.88283 3.16621 9.82128 3.27257 9.80022 3.39001L9.45022 5.54C8.82446 5.7865 8.23822 6.12341 7.71021 6.54L5.71021 5.76C5.5988 5.72024 5.47703 5.72042 5.36575 5.76055C5.25446 5.80069 5.1606 5.87828 5.10021 5.98001L3.35021 8.98001C3.29248 9.08394 3.27288 9.20479 3.29479 9.32165C3.3167 9.43851 3.37875 9.54403 3.47022 9.61999L5.16022 11C5.05356 11.6624 5.05356 12.3376 5.16022 13L3.39022 14.38C3.29875 14.456 3.2367 14.5615 3.21479 14.6784C3.19288 14.7952 3.21249 14.9161 3.27023 15.02L5.02023 18.02C5.08061 18.1217 5.17446 18.1993 5.28574 18.2394C5.39703 18.2796 5.5188 18.2798 5.63021 18.24L7.63021 17.46C8.15822 17.8766 8.74446 18.2135 9.37022 18.46L9.72022 20.61C9.74128 20.7274 9.80283 20.8338 9.89419 20.9105C9.98554 20.9873 10.1009 21.0295 10.2202 21.03H13.7102C13.8289 21.0312 13.944 20.9893 14.0341 20.9121C14.1243 20.8348 14.1833 20.7275 14.2002 20.61L14.5602 18.46C15.1839 18.2157 15.7672 17.8786 16.2902 17.46L18.2902 18.24C18.4016 18.2798 18.5234 18.2796 18.6347 18.2394C18.746 18.1993 18.8398 18.1217 18.9002 18.02L20.6502 15.02C20.7091 14.9172 20.7303 14.797 20.7103 14.6802C20.6902 14.5634 20.63 14.4573 20.5402 14.38L18.9202 13ZM12.0002 15.17C11.3733 15.17 10.7604 14.9841 10.2391 14.6358C9.71776 14.2874 9.31146 13.7923 9.07153 13.2131C8.8316 12.6339 8.76882 11.9965 8.89114 11.3816C9.01345 10.7666 9.31536 10.2018 9.75869 9.75848C10.202 9.31515 10.7669 9.01324 11.3818 8.89093C11.9967 8.76861 12.6341 8.83139 13.2133 9.07131C13.7926 9.31124 14.2877 9.71755 14.636 10.2389C14.9843 10.7602 15.1702 11.373 15.1702 12C15.1702 12.4163 15.0882 12.8285 14.9289 13.2131C14.7696 13.5977 14.5361 13.9472 14.2418 14.2415C13.9474 14.5359 13.5979 14.7694 13.2133 14.9287C12.8287 15.088 12.4165 15.17 12.0002 15.17Z" fill="white"/>
</svg>
