<svg width="24" height="24" viewBox="0 0 24 24" fill="none" xmlns="http://www.w3.org/2000/svg">
<path fill-rule="evenodd" clip-rule="evenodd" d="M12.3175 2.09546C12.1115 2.02645 11.8885 2.02645 11.6825 2.09546L3.68246 4.7744C3.27479 4.91092 3 5.29272 3 5.72265V9.03747C3 11.0513 4 15.8844 8 19.1065L11.3974 21.6722C11.754 21.9415 12.246 21.9415 12.6026 21.6722L16 19.1065C20 15.8844 21 11.0513 21 9.03747V5.72265C21 5.29272 20.7252 4.91092 20.3175 4.7744L12.3175 2.09546Z" fill="white"/>
<path fill-rule="evenodd" clip-rule="evenodd" d="M10.75 8.5C10.75 8.28668 10.8202 7.95002 11.0087 7.68823C11.1696 7.46468 11.4444 7.25 12 7.25C12.2133 7.25 12.55 7.32016 12.8118 7.50865C13.0353 7.6696 13.25 7.94444 13.25 8.5V9.5H10.75V8.5ZM9.25 9.5V8.5C9.25 8.04665 9.37984 7.38332 9.79135 6.81177C10.2304 6.20198 10.9556 5.75 12 5.75C12.4534 5.75 13.1167 5.87984 13.6882 6.29135C14.298 6.7304 14.75 7.45556 14.75 8.5V9.5H15.5C15.7761 9.5 16 9.72386 16 10V15C16 15.2761 15.7761 15.5 15.5 15.5H8.5C8.22386 15.5 8 15.2761 8 15V10C8 9.72386 8.22386 9.5 8.5 9.5H9.25Z" fill="#637EDD"/>
</svg>
