<svg width="24" height="24" viewBox="0 0 24 24" fill="none" xmlns="http://www.w3.org/2000/svg">
<circle cx="12" cy="12" r="12" fill="#A8BDFF"/>
<path d="M19.9704 10.6176C20.0527 10.3221 20.0963 10.0171 20.1 9.7104C20.098 8.85436 19.7916 8.02692 19.2357 7.37599C18.6797 6.72505 17.9104 6.29303 17.0652 6.1572C16.7939 5.38695 16.3228 4.70257 15.7003 4.17402C15.0778 3.64547 14.326 3.29173 13.522 3.14893C12.7179 3.00613 11.8903 3.07942 11.1239 3.36128C10.3574 3.64315 9.67956 4.12349 9.15959 4.75321H9.06236C8.3821 4.75179 7.70824 4.88453 7.07935 5.14387C6.45046 5.40321 5.87891 5.78406 5.39739 6.26458C4.91587 6.74509 4.53388 7.31585 4.27322 7.9442C4.01257 8.57255 3.87837 9.24615 3.87837 9.92642C3.88225 10.2241 3.91483 10.5206 3.9756 10.812C3.47677 11.2997 3.10153 11.8995 2.88104 12.5614C2.66054 13.2232 2.60113 13.9282 2.7078 14.6176C2.81448 15.3071 3.08412 15.9611 3.49434 16.5254C3.90455 17.0897 4.44351 17.548 5.06641 17.8622C5.68932 18.1764 6.37823 18.3374 7.07586 18.3318C7.77349 18.3263 8.45968 18.1544 9.07752 17.8304C9.69536 17.5064 10.227 17.0396 10.6282 16.4688C11.0295 15.8981 11.2887 15.2399 11.3844 14.5488C11.6004 14.43 11.8164 14.322 12.0216 14.1816C12.0808 14.9193 12.3163 15.6321 12.7083 16.2598C13.1003 16.8876 13.6372 17.4122 14.274 17.7892C14.9109 18.1663 15.629 18.385 16.3679 18.4268C17.1068 18.4686 17.845 18.3324 18.5203 18.0296C19.1957 17.7268 19.7884 17.2663 20.2487 16.6868C20.709 16.1072 21.0235 15.4256 21.1656 14.6993C21.3077 13.9729 21.2733 13.2231 21.0653 12.5128C20.8573 11.8025 20.4818 11.1526 19.9704 10.6176Z" fill="#848A9F"/>
<path d="M6.08169 15.9528C5.58902 15.9528 5.11658 15.7571 4.76821 15.4087C4.41984 15.0603 4.22412 14.5879 4.22412 14.0952C4.22412 13.6025 4.41984 13.13 4.76821 12.7817C5.11658 12.4333 5.58902 12.2376 6.08169 12.2376" fill="#F5C7A8"/>
<path d="M17.9185 12.1836C18.1624 12.1836 18.4039 12.2317 18.6293 12.325C18.8547 12.4184 19.0595 12.5552 19.232 12.7277C19.4045 12.9002 19.5413 13.105 19.6346 13.3303C19.728 13.5557 19.7761 13.7973 19.7761 14.0412C19.7761 14.2852 19.728 14.5267 19.6346 14.7521C19.5413 14.9775 19.4045 15.1822 19.232 15.3547C19.0595 15.5272 18.8547 15.664 18.6293 15.7574C18.4039 15.8508 18.1624 15.8988 17.9185 15.8988" fill="#F5C7A8"/>
<path d="M12.0001 20.5968C15.6624 20.5968 18.6313 17.2798 18.6313 13.188C18.6313 9.09624 15.6624 5.77921 12.0001 5.77921C8.33779 5.77921 5.3689 9.09624 5.3689 13.188C5.3689 17.2798 8.33779 20.5968 12.0001 20.5968Z" fill="#FEE0C8"/>
<path d="M9.32174 13.9116C9.72138 13.9116 10.0453 13.5876 10.0453 13.188C10.0453 12.7884 9.72138 12.4644 9.32174 12.4644C8.92211 12.4644 8.59814 12.7884 8.59814 13.188C8.59814 13.5876 8.92211 13.9116 9.32174 13.9116Z" fill="#3F3D3C"/>
<path d="M14.6787 13.9116C15.0783 13.9116 15.4023 13.5876 15.4023 13.188C15.4023 12.7884 15.0783 12.4644 14.6787 12.4644C14.279 12.4644 13.9551 12.7884 13.9551 13.188C13.9551 13.5876 14.279 13.9116 14.6787 13.9116Z" fill="#3F3D3C"/>
<path d="M12.2918 13.4796H11.6654C11.4746 13.4796 11.3198 13.6343 11.3198 13.8252V15.618C11.3198 15.8089 11.4746 15.9636 11.6654 15.9636H12.2918C12.4827 15.9636 12.6374 15.8089 12.6374 15.618V13.8252C12.6374 13.6343 12.4827 13.4796 12.2918 13.4796Z" fill="#F2BB96"/>
<path d="M12.0001 18.2748C11.6583 18.2744 11.3206 18.201 11.0095 18.0594C10.6984 17.9179 10.4212 17.7115 10.1964 17.454C10.1654 17.4238 10.1407 17.3877 10.1239 17.3478C10.1071 17.3079 10.0984 17.2651 10.0984 17.2218C10.0984 17.1785 10.1071 17.1357 10.1239 17.0958C10.1407 17.0559 10.1654 17.0198 10.1964 16.9896C10.2257 16.9589 10.2608 16.9344 10.2998 16.9177C10.3388 16.901 10.3808 16.8924 10.4232 16.8924C10.4656 16.8924 10.5076 16.901 10.5466 16.9177C10.5856 16.9344 10.6208 16.9589 10.6501 16.9896C10.819 17.1736 11.0243 17.3204 11.2529 17.4209C11.4816 17.5214 11.7287 17.5732 11.9784 17.5732C12.2282 17.5732 12.4753 17.5214 12.7039 17.4209C12.9326 17.3204 13.1379 17.1736 13.3068 16.9896C13.3361 16.9589 13.3713 16.9344 13.4102 16.9177C13.4492 16.901 13.4912 16.8924 13.5336 16.8924C13.5761 16.8924 13.6181 16.901 13.657 16.9177C13.696 16.9344 13.7312 16.9589 13.7605 16.9896C13.7915 17.0198 13.8161 17.0559 13.833 17.0958C13.8498 17.1357 13.8585 17.1785 13.8585 17.2218C13.8585 17.2651 13.8498 17.3079 13.833 17.3478C13.8161 17.3877 13.7915 17.4238 13.7605 17.454C13.5397 17.705 13.2692 17.9076 12.9662 18.0488C12.6632 18.1901 12.3343 18.267 12.0001 18.2748Z" fill="#D8684E"/>
<path d="M8.73833 18.1128C8.68273 18.1023 8.63346 18.0704 8.60115 18.0239C8.56884 17.9775 8.55608 17.9202 8.56555 17.8644C8.72625 17.0832 9.10005 16.3618 9.64555 15.78C9.68715 15.7488 9.73858 15.7337 9.79044 15.7373C9.84231 15.741 9.89112 15.7633 9.92788 15.8001C9.96465 15.8368 9.98688 15.8856 9.99057 15.9375C9.99426 15.9893 9.97912 16.0408 9.94792 16.0824C9.48458 16.612 9.16481 17.2516 9.01914 17.94C9.01891 17.973 9.01027 18.0053 8.99409 18.0341C8.9779 18.0628 8.95467 18.0869 8.92659 18.1042C8.89851 18.1215 8.86652 18.1314 8.83358 18.1329C8.80064 18.1344 8.76786 18.1275 8.73833 18.1128Z" fill="#E3B89C"/>
<path d="M15.2617 18.1128C15.2124 18.1134 15.1646 18.0963 15.1269 18.0646C15.0892 18.0329 15.0642 17.9886 15.0564 17.94C14.921 17.248 14.6 16.6059 14.1277 16.0824C14.0965 16.0408 14.0813 15.9893 14.085 15.9375C14.0887 15.8856 14.111 15.8368 14.1478 15.8001C14.1845 15.7633 14.2333 15.741 14.2851 15.7373C14.337 15.7337 14.3885 15.7488 14.4301 15.78C14.9804 16.3584 15.3549 17.0813 15.5101 17.8644C15.5196 17.9202 15.5067 17.9775 15.4744 18.0239C15.4421 18.0704 15.3929 18.1023 15.3373 18.1128H15.2617Z" fill="#E3B89C"/>
<path d="M19.1607 11.3952L18.5883 10.4124C18.8077 10.0895 18.9483 9.71956 18.9987 9.33241L17.9187 9.13801L16.8387 7.32362C16.9495 7.06843 17.0398 6.80478 17.1087 6.53521L16.2771 6.34082L15.7587 5.45521L11.1147 4.71001L11.6763 5.27159L10.1427 4.91521C8.83588 4.77481 6.26553 5.8332 6.48153 6.6648C6.48153 6.8592 6.60031 7.04283 6.66511 7.22643L5.58511 7.48561L4.8291 11.7084L5.45552 12.2592C5.81262 10.9115 6.52499 9.68439 7.51829 8.70602C8.28102 9.67259 9.35121 10.3495 10.5514 10.6245C11.7515 10.8995 13.0096 10.7561 14.1171 10.218C14.3028 10.5431 14.5554 10.825 14.8582 11.0452C15.161 11.2654 15.507 11.4189 15.8735 11.4954C16.2399 11.572 16.6184 11.5699 16.984 11.4893C17.3496 11.4088 17.694 11.2515 17.9943 11.028C18.273 11.3989 18.485 11.8155 18.6207 12.2592L19.1607 11.3952Z" fill="#848A9F"/>
</svg>
