<svg width="24" height="24" viewBox="0 0 24 24" fill="none" xmlns="http://www.w3.org/2000/svg">
<circle cx="12" cy="12" r="12" fill="#A8BDFF"/>
<mask id="mask0_3_7534" style="mask-type:alpha" maskUnits="userSpaceOnUse" x="0" y="0" width="24" height="24">
<circle cx="12" cy="12" r="12" fill="#ADC0FF"/>
</mask>
<g mask="url(#mask0_3_7534)">
<path fill-rule="evenodd" clip-rule="evenodd" d="M21.5168 25.2C18.6225 25.2 11.9897 25.2 11.9897 25.2C11.9897 25.2 5.30863 25.2 2.43842 25.2C1.54601 25.2 1.13598 24.7189 1.20834 23.8289C1.40129 22.4098 2.17311 20.269 4.99508 19.355C7.98588 18.2004 8.20295 18.0802 8.20295 18.0802C8.20295 18.0802 8.90241 16.9256 9.21596 16.8534C9.52952 16.7813 9.2642 16.3243 9.21596 16.204C9.16773 16.0837 8.7577 16.204 8.7577 14.5443C8.7577 13.9911 8.83005 13.967 8.56474 13.967C8.29943 13.967 7.67233 13.5822 7.67233 12.2592C7.67233 10.9363 7.67233 10.8641 7.91352 10.8401C7.93764 10.3349 7.67233 9.51712 7.67233 7.64096C7.67233 5.78884 9.16773 4.03294 12.0138 4.03294C12.8339 4.03294 13.5333 3.64808 14.3052 3.59998C14.4016 3.84051 14.5222 4.24942 14.6911 4.34563C15.294 4.73049 16.0659 5.71668 16.3553 7.66501C16.3553 9.51713 16.0659 10.359 16.1141 10.8641C16.3553 10.9122 16.3553 10.9603 16.3553 12.2833C16.3553 13.6062 15.7282 13.9911 15.4629 13.9911C15.1976 13.9911 15.2699 14.0392 15.2699 14.5683C15.2699 16.228 14.8599 16.1078 14.8117 16.228C14.7634 16.3483 14.4981 16.8053 14.8117 16.8775C15.1252 16.9496 15.8247 18.1042 15.8247 18.1042C15.8247 18.1042 15.9935 18.2245 18.9843 19.355C21.8304 20.269 22.6022 22.4338 22.7952 23.853C22.8434 24.7911 22.554 25.2 21.5168 25.2Z" fill="white"/>
</g>
</svg>
