<svg width="24" height="24" viewBox="0 0 24 24" fill="none" xmlns="http://www.w3.org/2000/svg">
<circle cx="12" cy="12" r="12" fill="#A8BDFF"/>
<path d="M5.85487 15.9312C5.601 15.9312 5.34962 15.8812 5.11508 15.784C4.88053 15.6869 4.66738 15.5445 4.48787 15.365C4.30835 15.1855 4.16598 14.9724 4.06883 14.7378C3.97167 14.5033 3.92163 14.2519 3.92163 13.998C3.92163 13.7441 3.97167 13.4927 4.06883 13.2582C4.16598 13.0236 4.30835 12.8105 4.48787 12.631C4.66738 12.4515 4.88053 12.3091 5.11508 12.212C5.34962 12.1148 5.601 12.0648 5.85487 12.0648" fill="#F5C7A8"/>
<path d="M18.1453 12.0648C18.3991 12.0648 18.6505 12.1148 18.8851 12.212C19.1196 12.3091 19.3327 12.4515 19.5122 12.631C19.6917 12.8105 19.8342 13.0236 19.9313 13.2582C20.0285 13.4927 20.0784 13.7441 20.0784 13.998C20.0784 14.2519 20.0285 14.5033 19.9313 14.7378C19.8342 14.9724 19.6917 15.1855 19.5122 15.365C19.3327 15.5445 19.1196 15.6869 18.8851 15.784C18.6505 15.8812 18.3991 15.9312 18.1453 15.9312" fill="#F5C7A8"/>
<path d="M12 20.8128C15.8055 20.8128 18.8904 17.3652 18.8904 13.1124C18.8904 8.85957 15.8055 5.41199 12 5.41199C8.19456 5.41199 5.10962 8.85957 5.10962 13.1124C5.10962 17.3652 8.19456 20.8128 12 20.8128Z" fill="#FEE0C8"/>
<path d="M9.21376 13.5768C9.63129 13.5768 9.96976 13.2383 9.96976 12.8208C9.96976 12.4033 9.63129 12.0648 9.21376 12.0648C8.79624 12.0648 8.45776 12.4033 8.45776 12.8208C8.45776 13.2383 8.79624 13.5768 9.21376 13.5768Z" fill="#3F3D3C"/>
<path d="M14.7865 13.5768C15.204 13.5768 15.5425 13.2383 15.5425 12.8208C15.5425 12.4033 15.204 12.0648 14.7865 12.0648C14.369 12.0648 14.0305 12.4033 14.0305 12.8208C14.0305 13.2383 14.369 13.5768 14.7865 13.5768Z" fill="#3F3D3C"/>
<path d="M5.2611 14.7108C5.2611 14.7108 2.86349 9.56998 5.99549 7.64758C5.99549 7.64758 5.53106 3.52198 11.8383 4.00798C15.3051 4.26718 16.5471 6.48116 19.1931 4.95836C19.3429 5.58273 19.3438 6.23362 19.1956 6.85838C19.0473 7.48313 18.7542 8.06425 18.3399 8.55477C20.3055 9.34317 18.7718 14.5596 18.7718 14.5596C18.7139 13.012 18.3467 11.4917 17.6918 10.0884C13.9442 10.65 7.97184 8.78157 7.97184 8.78157C7.97184 8.78157 5.3907 10.434 5.2611 14.7108Z" fill="#5D4F4B"/>
<path d="M12.3025 13.35H11.6653C11.4625 13.35 11.2981 13.5144 11.2981 13.7172V15.6936C11.2981 15.8964 11.4625 16.0608 11.6653 16.0608H12.3025C12.5053 16.0608 12.6697 15.8964 12.6697 15.6936V13.7172C12.6697 13.5144 12.5053 13.35 12.3025 13.35Z" fill="#F2BB96"/>
<path fill-rule="evenodd" clip-rule="evenodd" d="M9.66985 17.0483C9.80445 16.9304 10.0091 16.9439 10.1271 17.0785C10.3651 17.3503 10.6593 17.5671 10.9894 17.714C11.3195 17.8609 11.6775 17.9343 12.0388 17.9292L12.0462 17.9291L12.0462 17.9292C12.4077 17.9324 12.7657 17.858 13.096 17.711C13.4262 17.5641 13.7211 17.3479 13.9607 17.0772C14.0793 16.9432 14.2841 16.9308 14.4181 17.0494C14.5521 17.168 14.5645 17.3728 14.4459 17.5068C14.1449 17.8468 13.7744 18.1184 13.3594 18.3031C12.9456 18.4872 12.4971 18.5807 12.0442 18.5772C11.5904 18.5831 11.1406 18.4905 10.7259 18.306C10.3101 18.121 9.93948 17.8478 9.63961 17.5055C9.5217 17.3709 9.53524 17.1662 9.66985 17.0483Z" fill="#D8684E"/>
</svg>
