<svg width="24" height="24" viewBox="0 0 24 24" fill="none" xmlns="http://www.w3.org/2000/svg">
<circle cx="12" cy="12" r="12" fill="#A8BDFF"/>
<path d="M3.38152 12.2397C3.19792 15.3177 3.50031 16.7325 3.78111 17.3805C3.85843 17.5429 3.98119 17.6793 4.13456 17.7733C4.28794 17.8672 4.46531 17.9146 4.6451 17.9097H19.5599C19.7228 17.9122 19.8823 17.8636 20.016 17.7705C20.1497 17.6775 20.2508 17.5449 20.3051 17.3913C20.683 15.8154 20.7962 14.1875 20.6399 12.5745C20.4887 7.98449 18.7931 4.92811 14.8295 3.41611C14.8295 3.41611 10.8119 1.65569 8.4251 3.90209C8.4251 3.90209 3.84592 4.7013 3.38152 12.2397Z" fill="#5D4F4B"/>
<path d="M6.08176 15.4257C5.58909 15.4257 5.11658 15.23 4.76821 14.8816C4.41984 14.5333 4.22412 14.0608 4.22412 13.5681C4.22412 13.0754 4.41984 12.603 4.76821 12.2546C5.11658 11.9062 5.58909 11.7105 6.08176 11.7105" fill="#F5C7A8"/>
<path d="M17.9075 11.7429C18.4001 11.7429 18.8727 11.9386 19.221 12.287C19.5694 12.6354 19.7651 13.1079 19.7651 13.6005C19.7651 14.0932 19.5694 14.5657 19.221 14.914C18.8727 15.2624 18.4001 15.4581 17.9075 15.4581" fill="#F5C7A8"/>
<path d="M11.9999 20.1237C15.6622 20.1237 18.6311 16.8067 18.6311 12.7149C18.6311 8.62314 15.6622 5.30611 11.9999 5.30611C8.33754 5.30611 5.36865 8.62314 5.36865 12.7149C5.36865 16.8067 8.33754 20.1237 11.9999 20.1237Z" fill="#FEE0C8"/>
<path d="M9.32174 13.2657C9.72138 13.2657 10.0453 12.9417 10.0453 12.5421C10.0453 12.1425 9.72138 11.8185 9.32174 11.8185C8.92211 11.8185 8.59814 12.1425 8.59814 12.5421C8.59814 12.9417 8.92211 13.2657 9.32174 13.2657Z" fill="#3F3D3C"/>
<path d="M14.6782 13.2657C15.0778 13.2657 15.4018 12.9417 15.4018 12.5421C15.4018 12.1425 15.0778 11.8185 14.6782 11.8185C14.2786 11.8185 13.9546 12.1425 13.9546 12.5421C13.9546 12.9417 14.2786 13.2657 14.6782 13.2657Z" fill="#3F3D3C"/>
<path d="M12.2913 12.9417H11.6649C11.4741 12.9417 11.3193 13.0964 11.3193 13.2873V15.0801C11.3193 15.271 11.4741 15.4257 11.6649 15.4257H12.2913C12.4822 15.4257 12.6369 15.271 12.6369 15.0801V13.2873C12.6369 13.0964 12.4822 12.9417 12.2913 12.9417Z" fill="#F2BB96"/>
<path fill-rule="evenodd" clip-rule="evenodd" d="M9.74594 16.283C9.88086 16.1655 10.0855 16.1795 10.2031 16.3145C10.4261 16.5705 10.7014 16.7757 11.0104 16.9163C11.3195 17.057 11.6551 17.1297 11.9946 17.1297C12.3341 17.1297 12.6697 17.057 12.9787 16.9163C13.2878 16.7757 13.5631 16.5705 13.7861 16.3145C13.9036 16.1795 14.1083 16.1655 14.2432 16.283C14.3781 16.4005 14.3922 16.6052 14.2747 16.7401C13.9908 17.0659 13.6405 17.3271 13.2471 17.5061C12.8538 17.6851 12.4267 17.7777 11.9946 17.7777C11.5625 17.7777 11.1353 17.6851 10.742 17.5061C10.3487 17.3271 9.99833 17.0659 9.71447 16.7401C9.59693 16.6052 9.61102 16.4005 9.74594 16.283Z" fill="#D8684E"/>
<path d="M18.5018 11.1921L18.2966 9.08612L16.8385 6.67771L14.6785 5.4249L12.0002 5.05771L9.32178 5.4249L7.16178 6.67771L5.70374 9.08612L5.49854 11.1921C7.09977 10.2519 8.49256 8.99509 9.59178 7.49852C10.0562 8.23292 14.2682 11.1921 18.5018 11.1921Z" fill="#5D4F4B"/>
</svg>
