<svg width="24" height="24" viewBox="0 0 24 24" fill="none" xmlns="http://www.w3.org/2000/svg">
<circle cx="12" cy="12" r="12" fill="#A8BDFF"/>
<path d="M5.84396 15.8071C5.57867 15.827 5.31213 15.7919 5.06102 15.704C4.80991 15.6161 4.57965 15.4774 4.38463 15.2964C4.18962 15.1155 4.03404 14.8962 3.92766 14.6524C3.82127 14.4085 3.76636 14.1453 3.76636 13.8793C3.76636 13.6133 3.82127 13.3501 3.92766 13.1063C4.03404 12.8624 4.18962 12.6432 4.38463 12.4622C4.57965 12.2812 4.80991 12.1425 5.06102 12.0546C5.31213 11.9668 5.57867 11.9317 5.84396 11.9515" fill="#F5C7A8"/>
<path d="M18.1453 11.9515C18.4106 11.9317 18.6771 11.9668 18.9282 12.0546C19.1793 12.1425 19.4096 12.2812 19.6046 12.4622C19.7996 12.6432 19.9552 12.8624 20.0616 13.1063C20.1679 13.3501 20.2229 13.6133 20.2229 13.8793C20.2229 14.1453 20.1679 14.4085 20.0616 14.6524C19.9552 14.8962 19.7996 15.1155 19.6046 15.2964C19.4096 15.4774 19.1793 15.6161 18.9282 15.704C18.6771 15.7919 18.4106 15.827 18.1453 15.8071" fill="#F5C7A8"/>
<path d="M12 20.6887C15.8055 20.6887 18.8904 17.2411 18.8904 12.9883C18.8904 8.73549 15.8055 5.2879 12 5.2879C8.19456 5.2879 5.10962 8.73549 5.10962 12.9883C5.10962 17.2411 8.19456 20.6887 12 20.6887Z" fill="#FEE0C8"/>
<path d="M9.21376 13.4636C9.63129 13.4636 9.96976 13.1251 9.96976 12.7076C9.96976 12.29 9.63129 11.9516 9.21376 11.9516C8.79624 11.9516 8.45776 12.29 8.45776 12.7076C8.45776 13.1251 8.79624 13.4636 9.21376 13.4636Z" fill="#3F3D3C"/>
<path d="M14.7863 13.4636C15.2038 13.4636 15.5423 13.1251 15.5423 12.7076C15.5423 12.29 15.2038 11.9516 14.7863 11.9516C14.3687 11.9516 14.0303 12.29 14.0303 12.7076C14.0303 13.1251 14.3687 13.4636 14.7863 13.4636Z" fill="#3F3D3C"/>
<path d="M5.8441 7.18874C2.7121 9.11114 5.26089 14.5975 5.26089 14.5975C5.57276 12.307 6.59659 10.1725 8.18768 8.49553C8.18768 8.49553 13.9009 10.5259 17.6485 9.96432C18.3034 11.3677 18.6706 12.888 18.7285 14.4355C18.7285 14.4355 21.8605 6.68114 14.4085 4.04594C12.8647 3.55798 11.2224 3.46878 9.63487 3.78672C8.76407 3.98055 7.95788 4.39538 7.29393 4.99124C6.62998 5.58709 6.13067 6.34391 5.8441 7.18874Z" fill="#848A9F"/>
<path d="M12.3456 12.9883H11.6004C11.3916 12.9883 11.2224 13.1575 11.2224 13.3663V15.3211C11.2224 15.5299 11.3916 15.6991 11.6004 15.6991H12.3456C12.5544 15.6991 12.7236 15.5299 12.7236 15.3211V13.3663C12.7236 13.1575 12.5544 12.9883 12.3456 12.9883Z" fill="#F2BB96"/>
<path d="M14.8081 15.8339C13.1989 14.1167 12.0218 15.3803 12.0218 15.3803C12.0218 15.3803 10.8446 14.1167 9.23538 15.8339C8.9677 16.0965 8.64401 16.2951 8.28863 16.4148C7.93325 16.5346 7.55537 16.5722 7.18335 16.5251C8.26335 18.1667 10.4233 18.7067 12.0218 17.0481C13.6634 18.7067 15.8233 18.1667 16.9033 16.5251C16.5245 16.5791 16.1382 16.5448 15.7748 16.4249C15.4114 16.305 15.0805 16.1027 14.8081 15.8339Z" fill="#848A9F"/>
</svg>
