<svg width="24" height="24" viewBox="0 0 24 24" fill="none" xmlns="http://www.w3.org/2000/svg">
<circle cx="12" cy="12" r="12" fill="#A8BDFF"/>
<path d="M4.93216 14.064C4.38476 14.064 3.85974 13.8465 3.47267 13.4595C3.08559 13.0724 2.86816 12.5474 2.86816 12C2.86816 11.4526 3.08559 10.9276 3.47267 10.5405C3.85974 10.1535 4.38476 9.936 4.93216 9.936" fill="#F5C7A8"/>
<path d="M19.0681 9.936C19.6155 9.936 20.1405 10.1535 20.5276 10.5405C20.9146 10.9276 21.1321 11.4526 21.1321 12C21.1321 12.5474 20.9146 13.0724 20.5276 13.4595C20.1405 13.8465 19.6155 14.064 19.0681 14.064" fill="#F5C7A8"/>
<path d="M12.0001 19.392C16.2085 19.392 19.6201 16.0825 19.6201 12C19.6201 7.91751 16.2085 4.608 12.0001 4.608C7.79171 4.608 4.38013 7.91751 4.38013 12C4.38013 16.0825 7.79171 19.392 12.0001 19.392Z" fill="#FEE0C8"/>
<path d="M8.90416 11.832C9.31505 11.832 9.64815 11.4989 9.64815 11.088C9.64815 10.6771 9.31505 10.344 8.90416 10.344C8.49326 10.344 8.16016 10.6771 8.16016 11.088C8.16016 11.4989 8.49326 11.832 8.90416 11.832Z" fill="#3F3D3C"/>
<path d="M15.0963 11.832C15.5072 11.832 15.8403 11.4989 15.8403 11.088C15.8403 10.6771 15.5072 10.344 15.0963 10.344C14.6854 10.344 14.3523 10.6771 14.3523 11.088C14.3523 11.4989 14.6854 11.832 15.0963 11.832Z" fill="#3F3D3C"/>
<path d="M7.26003 15.66C8.04869 15.66 8.68803 15.0207 8.68803 14.232C8.68803 13.4433 8.04869 12.804 7.26003 12.804C6.47137 12.804 5.83203 13.4433 5.83203 14.232C5.83203 15.0207 6.47137 15.66 7.26003 15.66Z" fill="#F9B6B4"/>
<path d="M16.7403 15.66C17.5289 15.66 18.1683 15.0207 18.1683 14.232C18.1683 13.4433 17.5289 12.804 16.7403 12.804C15.9516 12.804 15.3123 13.4433 15.3123 14.232C15.3123 15.0207 15.9516 15.66 16.7403 15.66Z" fill="#F9B6B4"/>
<path fill-rule="evenodd" clip-rule="evenodd" d="M12.0498 4.30825C12.0812 4.30964 12.1117 4.31596 12.1404 4.3266C12.1896 4.3447 12.2315 4.37466 12.2638 4.41226C12.3158 4.47273 12.3429 4.55296 12.3352 4.63539C12.3334 4.65483 12.3298 4.67388 12.3244 4.69231C12.1752 5.22987 12.2262 5.8033 12.4679 6.30618C12.7102 6.8102 13.1274 7.20891 13.6419 7.42797C13.7944 7.49288 13.8653 7.66908 13.8004 7.82152C13.7355 7.97396 13.5593 8.04492 13.4069 7.98001C12.7584 7.7039 12.2325 7.20135 11.9272 6.56609C11.7074 6.10895 11.6128 5.60553 11.6476 5.10619C11.5365 5.17556 11.4181 5.26532 11.306 5.3801C10.9489 5.7458 10.6093 6.41283 10.8888 7.63723C10.9257 7.79876 10.8247 7.9596 10.6631 7.99647C10.5016 8.03335 10.3408 7.9323 10.3039 7.77078C9.98344 6.36717 10.3638 5.48622 10.8767 4.96092C11.1256 4.70604 11.3945 4.5464 11.6001 4.45039C11.7033 4.40219 11.7919 4.36937 11.8563 4.34823C11.8886 4.33765 11.9149 4.32994 11.9341 4.32466L11.9574 4.3185L11.96 4.31787C11.9889 4.31022 12.0191 4.30684 12.0498 4.30825Z" fill="#594D4B"/>
<path d="M12 18.144C13.0935 18.144 13.98 17.5154 13.98 16.74C13.98 15.9646 13.0935 15.336 12 15.336C10.9065 15.336 10.02 15.9646 10.02 16.74C10.02 17.5154 10.9065 18.144 12 18.144Z" fill="#58CAE9"/>
<path d="M12 20.196C13.0935 20.196 13.98 19.3095 13.98 18.216C13.98 17.1225 13.0935 16.236 12 16.236C10.9065 16.236 10.02 17.1225 10.02 18.216C10.02 19.3095 10.9065 20.196 12 20.196Z" fill="#90E2F1"/>
</svg>
