<svg width="14" height="14" viewBox="0 0 14 14" fill="none" xmlns="http://www.w3.org/2000/svg">
<path d="M11.2916 7.62006C11.3577 7.20927 11.3577 6.79054 11.2916 6.37975L12.3458 5.52393C12.4016 5.47601 12.4388 5.41017 12.4513 5.33774C12.4637 5.26532 12.4506 5.19082 12.4141 5.12705L11.3288 3.26659C11.2913 3.2035 11.2331 3.15538 11.1641 3.13049C11.0951 3.1056 11.0196 3.10549 10.9505 3.13015L9.71019 3.61387C9.38585 3.3543 9.02414 3.14522 8.63732 2.99372L8.41406 1.66039C8.40355 1.58754 8.36695 1.52097 8.31106 1.47307C8.25518 1.42516 8.18379 1.39916 8.11019 1.39992H5.94586C5.87187 1.40021 5.80032 1.42642 5.74367 1.47401C5.68701 1.5216 5.64884 1.58756 5.63578 1.66039L5.41873 2.99372C5.03066 3.14658 4.6671 3.35552 4.33966 3.61387L3.09935 3.13015C3.03026 3.10549 2.95474 3.1056 2.88573 3.13049C2.81671 3.15538 2.7585 3.2035 2.72105 3.26659L1.63579 5.12705C1.59998 5.1915 1.58783 5.26645 1.60142 5.33892C1.61501 5.41139 1.65349 5.47683 1.71021 5.52393L2.75827 6.37975C2.69212 6.79054 2.69212 7.20927 2.75827 7.62006L1.6606 8.47587C1.60387 8.52298 1.56539 8.58843 1.5518 8.66091C1.53822 8.73338 1.55038 8.80832 1.58618 8.87278L2.67145 10.7332C2.7089 10.7963 2.7671 10.8444 2.83611 10.8693C2.90512 10.8942 2.98064 10.8943 3.04974 10.8697L4.29004 10.3859C4.61749 10.6443 4.98104 10.8532 5.36911 11.0061L5.58617 12.3394C5.59923 12.4123 5.6374 12.4782 5.69405 12.5258C5.75071 12.5734 5.82226 12.5996 5.89625 12.5999H8.06058C8.13419 12.6006 8.20557 12.5747 8.26146 12.5268C8.31735 12.4789 8.35394 12.4123 8.36445 12.3394L8.5877 11.0061C8.97452 10.8546 9.33623 10.6455 9.66057 10.3859L10.9009 10.8697C10.97 10.8943 11.0455 10.8942 11.1145 10.8693C11.1835 10.8444 11.2417 10.7963 11.2792 10.7332L12.3645 8.87278C12.401 8.809 12.4141 8.73449 12.4017 8.66206C12.3892 8.58963 12.3519 8.5238 12.2962 8.47587L11.2916 7.62006ZM7.00012 8.9658C6.6113 8.9658 6.23122 8.8505 5.90793 8.63449C5.58464 8.41847 5.33267 8.11143 5.18388 7.75221C5.03508 7.39299 4.99615 6.99772 5.07201 6.61638C5.14786 6.23503 5.33509 5.88475 5.61002 5.60982C5.88496 5.33488 6.23525 5.14766 6.61659 5.0718C6.99794 4.99595 7.39321 5.03488 7.75243 5.18367C8.11165 5.33246 8.41868 5.58444 8.63469 5.90773C8.85071 6.23101 8.966 6.61109 8.966 6.9999C8.966 7.25807 8.91515 7.5137 8.81636 7.75221C8.71756 7.99073 8.57276 8.20746 8.39021 8.39001C8.20766 8.57255 7.99094 8.71736 7.75243 8.81615C7.51392 8.91495 7.25828 8.9658 7.00012 8.9658Z" fill="#6A6F81"/>
</svg>
