<svg width="24" height="24" viewBox="0 0 24 24" fill="none" xmlns="http://www.w3.org/2000/svg">
<path fill-rule="evenodd" clip-rule="evenodd" d="M21.0303 3.53033C21.3232 3.23744 21.3232 2.76256 21.0303 2.46967C20.7374 2.17678 20.2626 2.17678 19.9697 2.46967L15.8722 6.5671C14.6896 6.21374 13.3598 6 11.8804 6C5.91793 6 2.38573 9.47183 1.12206 11.5637C0.959313 11.8331 0.959313 12.1669 1.12206 12.4363C1.87424 13.6814 3.43019 15.4155 5.824 16.6153L2.46967 19.9697C2.17678 20.2626 2.17678 20.7374 2.46967 21.0303C2.76256 21.3232 3.23744 21.3232 3.53033 21.0303L21.0303 3.53033ZM8.06015 14.3792L8.79182 13.6475C8.52938 13.1565 8.38059 12.5956 8.38059 12C8.38059 10.067 9.9476 8.5 11.8806 8.5C12.4762 8.5 13.0371 8.64879 13.5281 8.91123L14.2597 8.17967C13.5694 7.74891 12.754 7.5 11.8805 7.5C9.39519 7.5 7.38048 9.51472 7.38048 12C7.38048 12.8736 7.62938 13.689 8.06015 14.3792ZM15.1933 10.8674L10.748 15.3127C11.1032 15.4341 11.4842 15.5 11.8806 15.5C13.8136 15.5 15.3806 13.933 15.3806 12C15.3806 11.6036 15.3147 11.2226 15.1933 10.8674ZM11.8805 16.5C11.2015 16.5 10.5576 16.3496 9.98033 16.0803L8.46885 17.5918C9.50153 17.8493 10.6382 18 11.8804 18C17.8429 18 21.3752 14.5282 22.6389 12.4363C22.8016 12.1669 22.8016 11.8331 22.6389 11.5637C21.9386 10.4045 20.5416 8.82141 18.4204 7.64029L15.9608 10.0999C16.2301 10.6771 16.3805 11.321 16.3805 12C16.3805 14.4853 14.3658 16.5 11.8805 16.5Z" fill="#6A6F81"/>
</svg>
