<svg width="24" height="24" viewBox="0 0 24 24" fill="none" xmlns="http://www.w3.org/2000/svg">
<path fill-rule="evenodd" clip-rule="evenodd" d="M11.8803 6C5.91781 6 2.38561 9.47183 1.12194 11.5637C0.959191 11.8331 0.959191 12.1669 1.12194 12.4363C2.38561 14.5282 5.91781 18 11.8803 18C17.8427 18 21.3751 14.5282 22.6388 12.4363C22.8015 12.1669 22.8015 11.8331 22.6388 11.5637C21.3751 9.47183 17.8427 6 11.8803 6ZM16.3804 12C16.3804 14.4853 14.3656 16.5 11.8804 16.5C9.39507 16.5 7.38035 14.4853 7.38035 12C7.38035 9.51472 9.39507 7.5 11.8804 7.5C14.3656 7.5 16.3804 9.51472 16.3804 12ZM11.8805 15.5C13.8135 15.5 15.3805 13.933 15.3805 12C15.3805 10.067 13.8135 8.5 11.8805 8.5C9.94748 8.5 8.38047 10.067 8.38047 12C8.38047 13.933 9.94748 15.5 11.8805 15.5Z" fill="#9FA0A5"/>
</svg>
