<svg width="14" height="14" viewBox="0 0 14 14" fill="none" xmlns="http://www.w3.org/2000/svg">
<circle cx="7" cy="7" r="6" fill="#626368"/>
<path d="M7 3.5C6.87021 3.5 6.74333 3.53849 6.63541 3.6106C6.52749 3.68271 6.44337 3.7852 6.3937 3.90511C6.34403 4.02503 6.33104 4.15698 6.35636 4.28428C6.38168 4.41158 6.44418 4.52851 6.53596 4.62029C6.62774 4.71207 6.74467 4.77457 6.87197 4.79989C6.99927 4.82521 7.13122 4.81222 7.25114 4.76255C7.37105 4.71288 7.47354 4.62876 7.54565 4.52084C7.61776 4.41292 7.65625 4.28604 7.65625 4.15625C7.65625 3.9822 7.58711 3.81528 7.46404 3.69221C7.34097 3.56914 7.17405 3.5 7 3.5Z" fill="#1B1C1E"/>
<rect x="6.5498" y="6" width="0.9" height="4.5" fill="#1B1C1E"/>
</svg>
