<svg width="16" height="11" viewBox="0 0 16 11" fill="none" xmlns="http://www.w3.org/2000/svg">
<path fill-rule="evenodd" clip-rule="evenodd" d="M15.2019 0.530669L15.2035 0.53226L15.2051 0.533851C15.6124 0.941124 15.614 1.59976 15.2067 2.00862L7.83603 9.40953L7.18376 10.1095C6.99513 10.312 6.7338 10.4313 6.45724 10.4412C6.18068 10.451 5.91153 10.3506 5.70899 10.162L0.823305 5.60408C0.620776 5.41526 0.501548 5.15372 0.491852 4.877C0.482156 4.60028 0.582784 4.33104 0.7716 4.12851C0.960416 3.92598 1.22195 3.80675 1.49868 3.79706C1.7754 3.78736 2.04464 3.88799 2.24717 4.07681L6.36921 7.92203L13.7288 0.533851C13.9237 0.338158 14.1884 0.227894 14.4647 0.227297C14.7409 0.226701 15.0061 0.33582 15.2019 0.530669Z" fill="white"/>
</svg>
