<svg width="24" height="24" viewBox="0 0 24 24" fill="none" xmlns="http://www.w3.org/2000/svg">
<path d="M12 2C12.5523 2 13 2.44772 13 3L13 13.5858L16.2929 10.2929C16.6834 9.90237 17.3166 9.90237 17.7071 10.2929C18.0976 10.6834 18.0976 11.3166 17.7071 11.7071L12.7079 16.7063C12.7055 16.7087 12.703 16.7112 12.7005 16.7136C12.6062 16.8063 12.498 16.8764 12.3828 16.9241C12.2657 16.9727 12.1375 16.9996 12.003 17L12 17L11.997 17C11.8625 16.9996 11.7343 16.9727 11.6172 16.9241C11.4993 16.8753 11.3888 16.803 11.2929 16.7071L6.29289 11.7071C5.90237 11.3166 5.90237 10.6834 6.29289 10.2929C6.68342 9.90237 7.31658 9.90237 7.70711 10.2929L11 13.5858L11 3C11 2.44772 11.4477 2 12 2Z" fill="white"/>
<path d="M2 21C2 20.4477 2.44772 20 3 20H21C21.5523 20 22 20.4477 22 21C22 21.5523 21.5523 22 21 22H3C2.44772 22 2 21.5523 2 21Z" fill="white"/>
</svg>
