<svg width="32" height="32" viewBox="0 0 32 32" fill="none" xmlns="http://www.w3.org/2000/svg">
<mask id="path-1-inside-1_590_2384" fill="white">
<path fill-rule="evenodd" clip-rule="evenodd" d="M2.5 10C2.5 8.89543 3.39543 8 4.5 8H27.5C28.6046 8 29.5 8.89543 29.5 10V22C29.5 23.1046 28.6046 24 27.5 24H4.5C3.39543 24 2.5 23.1046 2.5 22V10ZM4.5 10.75C4.5 10.6119 4.61193 10.5 4.75 10.5H7.25C7.38807 10.5 7.5 10.6119 7.5 10.75V13.25C7.5 13.3881 7.38807 13.5 7.25 13.5H4.75C4.61193 13.5 4.5 13.3881 4.5 13.25V10.75ZM4.75 14.5C4.61193 14.5 4.5 14.6119 4.5 14.75V17.25C4.5 17.3881 4.61193 17.5 4.75 17.5H9.25C9.38807 17.5 9.5 17.3881 9.5 17.25V14.75C9.5 14.6119 9.38807 14.5 9.25 14.5H4.75ZM7.5 18.75C7.5 18.6119 7.61193 18.5 7.75 18.5H24.25C24.3881 18.5 24.5 18.6119 24.5 18.75V21.25C24.5 21.3881 24.3881 21.5 24.25 21.5H7.75C7.61193 21.5 7.5 21.3881 7.5 21.25V18.75ZM22.75 14.5C22.6119 14.5 22.5 14.6119 22.5 14.75V17.25C22.5 17.3881 22.6119 17.5 22.75 17.5H27.25C27.3881 17.5 27.5 17.3881 27.5 17.25V14.75C27.5 14.6119 27.3881 14.5 27.25 14.5H22.75ZM8.5 10.75C8.5 10.6119 8.61193 10.5 8.75 10.5H11.25C11.3881 10.5 11.5 10.6119 11.5 10.75V13.25C11.5 13.3881 11.3881 13.5 11.25 13.5H8.75C8.61193 13.5 8.5 13.3881 8.5 13.25V10.75ZM10.75 14.5C10.6119 14.5 10.5 14.6119 10.5 14.75V17.25C10.5 17.3881 10.6119 17.5 10.75 17.5H13.25C13.3881 17.5 13.5 17.3881 13.5 17.25V14.75C13.5 14.6119 13.3881 14.5 13.25 14.5H10.75ZM14.5 14.75C14.5 14.6119 14.6119 14.5 14.75 14.5H17.25C17.3881 14.5 17.5 14.6119 17.5 14.75V17.25C17.5 17.3881 17.3881 17.5 17.25 17.5H14.75C14.6119 17.5 14.5 17.3881 14.5 17.25V14.75ZM18.75 14.5C18.6119 14.5 18.5 14.6119 18.5 14.75V17.25C18.5 17.3881 18.6119 17.5 18.75 17.5H21.25C21.3881 17.5 21.5 17.3881 21.5 17.25V14.75C21.5 14.6119 21.3881 14.5 21.25 14.5H18.75ZM12.5 10.75C12.5 10.6119 12.6119 10.5 12.75 10.5H15.25C15.3881 10.5 15.5 10.6119 15.5 10.75V13.25C15.5 13.3881 15.3881 13.5 15.25 13.5H12.75C12.6119 13.5 12.5 13.3881 12.5 13.25V10.75ZM16.75 10.5C16.6119 10.5 16.5 10.6119 16.5 10.75V13.25C16.5 13.3881 16.6119 13.5 16.75 13.5H19.25C19.3881 13.5 19.5 13.3881 19.5 13.25V10.75C19.5 10.6119 19.3881 10.5 19.25 10.5H16.75ZM20.5 10.75C20.5 10.6119 20.6119 10.5 20.75 10.5H23.25C23.3881 10.5 23.5 10.6119 23.5 10.75V13.25C23.5 13.3881 23.3881 13.5 23.25 13.5H20.75C20.6119 13.5 20.5 13.3881 20.5 13.25V10.75ZM24.75 10.5C24.6119 10.5 24.5 10.6119 24.5 10.75V13.25C24.5 13.3881 24.6119 13.5 24.75 13.5H27.25C27.3881 13.5 27.5 13.3881 27.5 13.25V10.75C27.5 10.6119 27.3881 10.5 27.25 10.5H24.75Z"/>
</mask>
<path fill-rule="evenodd" clip-rule="evenodd" d="M2.5 10C2.5 8.89543 3.39543 8 4.5 8H27.5C28.6046 8 29.5 8.89543 29.5 10V22C29.5 23.1046 28.6046 24 27.5 24H4.5C3.39543 24 2.5 23.1046 2.5 22V10ZM4.5 10.75C4.5 10.6119 4.61193 10.5 4.75 10.5H7.25C7.38807 10.5 7.5 10.6119 7.5 10.75V13.25C7.5 13.3881 7.38807 13.5 7.25 13.5H4.75C4.61193 13.5 4.5 13.3881 4.5 13.25V10.75ZM4.75 14.5C4.61193 14.5 4.5 14.6119 4.5 14.75V17.25C4.5 17.3881 4.61193 17.5 4.75 17.5H9.25C9.38807 17.5 9.5 17.3881 9.5 17.25V14.75C9.5 14.6119 9.38807 14.5 9.25 14.5H4.75ZM7.5 18.75C7.5 18.6119 7.61193 18.5 7.75 18.5H24.25C24.3881 18.5 24.5 18.6119 24.5 18.75V21.25C24.5 21.3881 24.3881 21.5 24.25 21.5H7.75C7.61193 21.5 7.5 21.3881 7.5 21.25V18.75ZM22.75 14.5C22.6119 14.5 22.5 14.6119 22.5 14.75V17.25C22.5 17.3881 22.6119 17.5 22.75 17.5H27.25C27.3881 17.5 27.5 17.3881 27.5 17.25V14.75C27.5 14.6119 27.3881 14.5 27.25 14.5H22.75ZM8.5 10.75C8.5 10.6119 8.61193 10.5 8.75 10.5H11.25C11.3881 10.5 11.5 10.6119 11.5 10.75V13.25C11.5 13.3881 11.3881 13.5 11.25 13.5H8.75C8.61193 13.5 8.5 13.3881 8.5 13.25V10.75ZM10.75 14.5C10.6119 14.5 10.5 14.6119 10.5 14.75V17.25C10.5 17.3881 10.6119 17.5 10.75 17.5H13.25C13.3881 17.5 13.5 17.3881 13.5 17.25V14.75C13.5 14.6119 13.3881 14.5 13.25 14.5H10.75ZM14.5 14.75C14.5 14.6119 14.6119 14.5 14.75 14.5H17.25C17.3881 14.5 17.5 14.6119 17.5 14.75V17.25C17.5 17.3881 17.3881 17.5 17.25 17.5H14.75C14.6119 17.5 14.5 17.3881 14.5 17.25V14.75ZM18.75 14.5C18.6119 14.5 18.5 14.6119 18.5 14.75V17.25C18.5 17.3881 18.6119 17.5 18.75 17.5H21.25C21.3881 17.5 21.5 17.3881 21.5 17.25V14.75C21.5 14.6119 21.3881 14.5 21.25 14.5H18.75ZM12.5 10.75C12.5 10.6119 12.6119 10.5 12.75 10.5H15.25C15.3881 10.5 15.5 10.6119 15.5 10.75V13.25C15.5 13.3881 15.3881 13.5 15.25 13.5H12.75C12.6119 13.5 12.5 13.3881 12.5 13.25V10.75ZM16.75 10.5C16.6119 10.5 16.5 10.6119 16.5 10.75V13.25C16.5 13.3881 16.6119 13.5 16.75 13.5H19.25C19.3881 13.5 19.5 13.3881 19.5 13.25V10.75C19.5 10.6119 19.3881 10.5 19.25 10.5H16.75ZM20.5 10.75C20.5 10.6119 20.6119 10.5 20.75 10.5H23.25C23.3881 10.5 23.5 10.6119 23.5 10.75V13.25C23.5 13.3881 23.3881 13.5 23.25 13.5H20.75C20.6119 13.5 20.5 13.3881 20.5 13.25V10.75ZM24.75 10.5C24.6119 10.5 24.5 10.6119 24.5 10.75V13.25C24.5 13.3881 24.6119 13.5 24.75 13.5H27.25C27.3881 13.5 27.5 13.3881 27.5 13.25V10.75C27.5 10.6119 27.3881 10.5 27.25 10.5H24.75Z" fill="#6A6F81"/>
<path d="M4.5 7C2.84315 7 1.5 8.34315 1.5 10H3.5C3.5 9.44772 3.94772 9 4.5 9V7ZM27.5 7H4.5V9H27.5V7ZM30.5 10C30.5 8.34315 29.1569 7 27.5 7V9C28.0523 9 28.5 9.44772 28.5 10H30.5ZM30.5 22V10H28.5V22H30.5ZM27.5 25C29.1569 25 30.5 23.6569 30.5 22H28.5C28.5 22.5523 28.0523 23 27.5 23V25ZM4.5 25H27.5V23H4.5V25ZM1.5 22C1.5 23.6569 2.84315 25 4.5 25V23C3.94772 23 3.5 22.5523 3.5 22H1.5ZM1.5 10V22H3.5V10H1.5ZM4.75 9.5C4.05964 9.5 3.5 10.0596 3.5 10.75H5.5C5.5 11.1642 5.16421 11.5 4.75 11.5V9.5ZM7.25 9.5H4.75V11.5H7.25V9.5ZM8.5 10.75C8.5 10.0596 7.94036 9.5 7.25 9.5V11.5C6.83579 11.5 6.5 11.1642 6.5 10.75H8.5ZM8.5 13.25V10.75H6.5V13.25H8.5ZM7.25 14.5C7.94036 14.5 8.5 13.9404 8.5 13.25H6.5C6.5 12.8358 6.83579 12.5 7.25 12.5V14.5ZM4.75 14.5H7.25V12.5H4.75V14.5ZM3.5 13.25C3.5 13.9404 4.05964 14.5 4.75 14.5V12.5C5.16421 12.5 5.5 12.8358 5.5 13.25H3.5ZM3.5 10.75V13.25H5.5V10.75H3.5ZM5.5 14.75C5.5 15.1642 5.16421 15.5 4.75 15.5V13.5C4.05964 13.5 3.5 14.0596 3.5 14.75H5.5ZM5.5 17.25V14.75H3.5V17.25H5.5ZM4.75 16.5C5.16421 16.5 5.5 16.8358 5.5 17.25H3.5C3.5 17.9404 4.05964 18.5 4.75 18.5V16.5ZM9.25 16.5H4.75V18.5H9.25V16.5ZM8.5 17.25C8.5 16.8358 8.83579 16.5 9.25 16.5V18.5C9.94036 18.5 10.5 17.9404 10.5 17.25H8.5ZM8.5 14.75V17.25H10.5V14.75H8.5ZM9.25 15.5C8.83579 15.5 8.5 15.1642 8.5 14.75H10.5C10.5 14.0596 9.94036 13.5 9.25 13.5V15.5ZM4.75 15.5H9.25V13.5H4.75V15.5ZM7.75 17.5C7.05964 17.5 6.5 18.0596 6.5 18.75H8.5C8.5 19.1642 8.16421 19.5 7.75 19.5V17.5ZM24.25 17.5H7.75V19.5H24.25V17.5ZM25.5 18.75C25.5 18.0596 24.9404 17.5 24.25 17.5V19.5C23.8358 19.5 23.5 19.1642 23.5 18.75H25.5ZM25.5 21.25V18.75H23.5V21.25H25.5ZM24.25 22.5C24.9404 22.5 25.5 21.9404 25.5 21.25H23.5C23.5 20.8358 23.8358 20.5 24.25 20.5V22.5ZM7.75 22.5H24.25V20.5H7.75V22.5ZM6.5 21.25C6.5 21.9404 7.05964 22.5 7.75 22.5V20.5C8.16421 20.5 8.5 20.8358 8.5 21.25H6.5ZM6.5 18.75V21.25H8.5V18.75H6.5ZM23.5 14.75C23.5 15.1642 23.1642 15.5 22.75 15.5V13.5C22.0596 13.5 21.5 14.0596 21.5 14.75H23.5ZM23.5 17.25V14.75H21.5V17.25H23.5ZM22.75 16.5C23.1642 16.5 23.5 16.8358 23.5 17.25H21.5C21.5 17.9404 22.0596 18.5 22.75 18.5V16.5ZM27.25 16.5H22.75V18.5H27.25V16.5ZM26.5 17.25C26.5 16.8358 26.8358 16.5 27.25 16.5V18.5C27.9404 18.5 28.5 17.9404 28.5 17.25H26.5ZM26.5 14.75V17.25H28.5V14.75H26.5ZM27.25 15.5C26.8358 15.5 26.5 15.1642 26.5 14.75H28.5C28.5 14.0596 27.9404 13.5 27.25 13.5V15.5ZM22.75 15.5H27.25V13.5H22.75V15.5ZM8.75 9.5C8.05964 9.5 7.5 10.0596 7.5 10.75H9.5C9.5 11.1642 9.16421 11.5 8.75 11.5V9.5ZM11.25 9.5H8.75V11.5H11.25V9.5ZM12.5 10.75C12.5 10.0596 11.9404 9.5 11.25 9.5V11.5C10.8358 11.5 10.5 11.1642 10.5 10.75H12.5ZM12.5 13.25V10.75H10.5V13.25H12.5ZM11.25 14.5C11.9404 14.5 12.5 13.9404 12.5 13.25H10.5C10.5 12.8358 10.8358 12.5 11.25 12.5V14.5ZM8.75 14.5H11.25V12.5H8.75V14.5ZM7.5 13.25C7.5 13.9404 8.05964 14.5 8.75 14.5V12.5C9.16421 12.5 9.5 12.8358 9.5 13.25H7.5ZM7.5 10.75V13.25H9.5V10.75H7.5ZM11.5 14.75C11.5 15.1642 11.1642 15.5 10.75 15.5V13.5C10.0596 13.5 9.5 14.0596 9.5 14.75H11.5ZM11.5 17.25V14.75H9.5V17.25H11.5ZM10.75 16.5C11.1642 16.5 11.5 16.8358 11.5 17.25H9.5C9.5 17.9404 10.0596 18.5 10.75 18.5V16.5ZM13.25 16.5H10.75V18.5H13.25V16.5ZM12.5 17.25C12.5 16.8358 12.8358 16.5 13.25 16.5V18.5C13.9404 18.5 14.5 17.9404 14.5 17.25H12.5ZM12.5 14.75V17.25H14.5V14.75H12.5ZM13.25 15.5C12.8358 15.5 12.5 15.1642 12.5 14.75H14.5C14.5 14.0596 13.9404 13.5 13.25 13.5V15.5ZM10.75 15.5H13.25V13.5H10.75V15.5ZM14.75 13.5C14.0596 13.5 13.5 14.0596 13.5 14.75H15.5C15.5 15.1642 15.1642 15.5 14.75 15.5V13.5ZM17.25 13.5H14.75V15.5H17.25V13.5ZM18.5 14.75C18.5 14.0596 17.9404 13.5 17.25 13.5V15.5C16.8358 15.5 16.5 15.1642 16.5 14.75H18.5ZM18.5 17.25V14.75H16.5V17.25H18.5ZM17.25 18.5C17.9404 18.5 18.5 17.9404 18.5 17.25H16.5C16.5 16.8358 16.8358 16.5 17.25 16.5V18.5ZM14.75 18.5H17.25V16.5H14.75V18.5ZM13.5 17.25C13.5 17.9404 14.0596 18.5 14.75 18.5V16.5C15.1642 16.5 15.5 16.8358 15.5 17.25H13.5ZM13.5 14.75V17.25H15.5V14.75H13.5ZM19.5 14.75C19.5 15.1642 19.1642 15.5 18.75 15.5V13.5C18.0596 13.5 17.5 14.0596 17.5 14.75H19.5ZM19.5 17.25V14.75H17.5V17.25H19.5ZM18.75 16.5C19.1642 16.5 19.5 16.8358 19.5 17.25H17.5C17.5 17.9404 18.0596 18.5 18.75 18.5V16.5ZM21.25 16.5H18.75V18.5H21.25V16.5ZM20.5 17.25C20.5 16.8358 20.8358 16.5 21.25 16.5V18.5C21.9404 18.5 22.5 17.9404 22.5 17.25H20.5ZM20.5 14.75V17.25H22.5V14.75H20.5ZM21.25 15.5C20.8358 15.5 20.5 15.1642 20.5 14.75H22.5C22.5 14.0596 21.9404 13.5 21.25 13.5V15.5ZM18.75 15.5H21.25V13.5H18.75V15.5ZM12.75 9.5C12.0596 9.5 11.5 10.0596 11.5 10.75H13.5C13.5 11.1642 13.1642 11.5 12.75 11.5V9.5ZM15.25 9.5H12.75V11.5H15.25V9.5ZM16.5 10.75C16.5 10.0596 15.9404 9.5 15.25 9.5V11.5C14.8358 11.5 14.5 11.1642 14.5 10.75H16.5ZM16.5 13.25V10.75H14.5V13.25H16.5ZM15.25 14.5C15.9404 14.5 16.5 13.9404 16.5 13.25H14.5C14.5 12.8358 14.8358 12.5 15.25 12.5V14.5ZM12.75 14.5H15.25V12.5H12.75V14.5ZM11.5 13.25C11.5 13.9404 12.0596 14.5 12.75 14.5V12.5C13.1642 12.5 13.5 12.8358 13.5 13.25H11.5ZM11.5 10.75V13.25H13.5V10.75H11.5ZM17.5 10.75C17.5 11.1642 17.1642 11.5 16.75 11.5V9.5C16.0596 9.5 15.5 10.0596 15.5 10.75H17.5ZM17.5 13.25V10.75H15.5V13.25H17.5ZM16.75 12.5C17.1642 12.5 17.5 12.8358 17.5 13.25H15.5C15.5 13.9404 16.0596 14.5 16.75 14.5V12.5ZM19.25 12.5H16.75V14.5H19.25V12.5ZM18.5 13.25C18.5 12.8358 18.8358 12.5 19.25 12.5V14.5C19.9404 14.5 20.5 13.9404 20.5 13.25H18.5ZM18.5 10.75V13.25H20.5V10.75H18.5ZM19.25 11.5C18.8358 11.5 18.5 11.1642 18.5 10.75H20.5C20.5 10.0596 19.9404 9.5 19.25 9.5V11.5ZM16.75 11.5H19.25V9.5H16.75V11.5ZM20.75 9.5C20.0596 9.5 19.5 10.0596 19.5 10.75H21.5C21.5 11.1642 21.1642 11.5 20.75 11.5V9.5ZM23.25 9.5H20.75V11.5H23.25V9.5ZM24.5 10.75C24.5 10.0596 23.9404 9.5 23.25 9.5V11.5C22.8358 11.5 22.5 11.1642 22.5 10.75H24.5ZM24.5 13.25V10.75H22.5V13.25H24.5ZM23.25 14.5C23.9404 14.5 24.5 13.9404 24.5 13.25H22.5C22.5 12.8358 22.8358 12.5 23.25 12.5V14.5ZM20.75 14.5H23.25V12.5H20.75V14.5ZM19.5 13.25C19.5 13.9404 20.0596 14.5 20.75 14.5V12.5C21.1642 12.5 21.5 12.8358 21.5 13.25H19.5ZM19.5 10.75V13.25H21.5V10.75H19.5ZM25.5 10.75C25.5 11.1642 25.1642 11.5 24.75 11.5V9.5C24.0596 9.5 23.5 10.0596 23.5 10.75H25.5ZM25.5 13.25V10.75H23.5V13.25H25.5ZM24.75 12.5C25.1642 12.5 25.5 12.8358 25.5 13.25H23.5C23.5 13.9404 24.0596 14.5 24.75 14.5V12.5ZM27.25 12.5H24.75V14.5H27.25V12.5ZM26.5 13.25C26.5 12.8358 26.8358 12.5 27.25 12.5V14.5C27.9404 14.5 28.5 13.9404 28.5 13.25H26.5ZM26.5 10.75V13.25H28.5V10.75H26.5ZM27.25 11.5C26.8358 11.5 26.5 11.1642 26.5 10.75H28.5C28.5 10.0596 27.9404 9.5 27.25 9.5V11.5ZM24.75 11.5H27.25V9.5H24.75V11.5Z" fill="#6A6F81" mask="url(#path-1-inside-1_590_2384)"/>
</svg>
