<svg width="32" height="32" viewBox="0 0 32 32" fill="none" xmlns="http://www.w3.org/2000/svg">
<path fill-rule="evenodd" clip-rule="evenodd" d="M2.5 10C2.5 8.89543 3.39543 8 4.5 8H27.5C28.6046 8 29.5 8.89543 29.5 10V22C29.5 23.1046 28.6046 24 27.5 24H4.5C3.39543 24 2.5 23.1046 2.5 22V10ZM4.5 10.75C4.5 10.6119 4.61193 10.5 4.75 10.5H7.25C7.38807 10.5 7.5 10.6119 7.5 10.75V13.25C7.5 13.3881 7.38807 13.5 7.25 13.5H4.75C4.61193 13.5 4.5 13.3881 4.5 13.25V10.75ZM4.75 14.5C4.61193 14.5 4.5 14.6119 4.5 14.75V17.25C4.5 17.3881 4.61193 17.5 4.75 17.5H9.25C9.38807 17.5 9.5 17.3881 9.5 17.25V14.75C9.5 14.6119 9.38807 14.5 9.25 14.5H4.75ZM7.5 18.75C7.5 18.6119 7.61193 18.5 7.75 18.5H24.25C24.3881 18.5 24.5 18.6119 24.5 18.75V21.25C24.5 21.3881 24.3881 21.5 24.25 21.5H7.75C7.61193 21.5 7.5 21.3881 7.5 21.25V18.75ZM22.75 14.5C22.6119 14.5 22.5 14.6119 22.5 14.75V17.25C22.5 17.3881 22.6119 17.5 22.75 17.5H27.25C27.3881 17.5 27.5 17.3881 27.5 17.25V14.75C27.5 14.6119 27.3881 14.5 27.25 14.5H22.75ZM8.5 10.75C8.5 10.6119 8.61193 10.5 8.75 10.5H11.25C11.3881 10.5 11.5 10.6119 11.5 10.75V13.25C11.5 13.3881 11.3881 13.5 11.25 13.5H8.75C8.61193 13.5 8.5 13.3881 8.5 13.25V10.75ZM10.75 14.5C10.6119 14.5 10.5 14.6119 10.5 14.75V17.25C10.5 17.3881 10.6119 17.5 10.75 17.5H13.25C13.3881 17.5 13.5 17.3881 13.5 17.25V14.75C13.5 14.6119 13.3881 14.5 13.25 14.5H10.75ZM14.5 14.75C14.5 14.6119 14.6119 14.5 14.75 14.5H17.25C17.3881 14.5 17.5 14.6119 17.5 14.75V17.25C17.5 17.3881 17.3881 17.5 17.25 17.5H14.75C14.6119 17.5 14.5 17.3881 14.5 17.25V14.75ZM18.75 14.5C18.6119 14.5 18.5 14.6119 18.5 14.75V17.25C18.5 17.3881 18.6119 17.5 18.75 17.5H21.25C21.3881 17.5 21.5 17.3881 21.5 17.25V14.75C21.5 14.6119 21.3881 14.5 21.25 14.5H18.75ZM12.5 10.75C12.5 10.6119 12.6119 10.5 12.75 10.5H15.25C15.3881 10.5 15.5 10.6119 15.5 10.75V13.25C15.5 13.3881 15.3881 13.5 15.25 13.5H12.75C12.6119 13.5 12.5 13.3881 12.5 13.25V10.75ZM16.75 10.5C16.6119 10.5 16.5 10.6119 16.5 10.75V13.25C16.5 13.3881 16.6119 13.5 16.75 13.5H19.25C19.3881 13.5 19.5 13.3881 19.5 13.25V10.75C19.5 10.6119 19.3881 10.5 19.25 10.5H16.75ZM20.5 10.75C20.5 10.6119 20.6119 10.5 20.75 10.5H23.25C23.3881 10.5 23.5 10.6119 23.5 10.75V13.25C23.5 13.3881 23.3881 13.5 23.25 13.5H20.75C20.6119 13.5 20.5 13.3881 20.5 13.25V10.75ZM24.75 10.5C24.6119 10.5 24.5 10.6119 24.5 10.75V13.25C24.5 13.3881 24.6119 13.5 24.75 13.5H27.25C27.3881 13.5 27.5 13.3881 27.5 13.25V10.75C27.5 10.6119 27.3881 10.5 27.25 10.5H24.75Z" fill="#9FA0A5"/>
</svg>
