<svg width="16" height="16" viewBox="0 0 16 16" fill="none" xmlns="http://www.w3.org/2000/svg">
<path d="M4.5 2.5C4.5 2.22386 4.72386 2 5 2H11C11.2761 2 11.5 2.22386 11.5 2.5V4H4.5V2.5Z" fill="#9FA0A5"/>
<path fill-rule="evenodd" clip-rule="evenodd" d="M2 5.5C2 5.22386 2.22386 5 2.5 5H13.5C13.7761 5 14 5.22386 14 5.5V11.5C14 11.7761 13.7761 12 13.5 12H12.5V10C12.5 9.44772 12.0523 9 11.5 9H4.5C3.94772 9 3.5 9.44772 3.5 10V12H2.5C2.22386 12 2 11.7761 2 11.5V5.5ZM10.5 6.5C10.2239 6.5 10 6.72386 10 7C10 7.27614 10.2239 7.5 10.5 7.5H12C12.2761 7.5 12.5 7.27614 12.5 7C12.5 6.72386 12.2761 6.5 12 6.5H10.5Z" fill="#9FA0A5"/>
<rect x="4.5" y="10" width="7" height="4" rx="0.5" fill="#9FA0A5"/>
</svg>
