<svg width="16" height="16" viewBox="0 0 16 16" fill="none" xmlns="http://www.w3.org/2000/svg">
<path d="M2.46143 3.42285C2.46143 3.14671 2.68528 2.92285 2.96143 2.92285H13.0384C13.3145 2.92285 13.5383 3.14671 13.5383 3.42285V4.76901H2.46143V3.42285Z" fill="#9FA0A5"/>
<path fill-rule="evenodd" clip-rule="evenodd" d="M12.615 5.69238H3.38428L4.20851 13.1105C4.26478 13.6169 4.69285 14.0001 5.2024 14.0001H10.7969C11.3065 14.0001 11.7345 13.6169 11.7908 13.1105L12.615 5.69238ZM7.5 7V12.5H8.5V7H7.5ZM5.5 12.5V7H6.5V12.5H5.5ZM9.5 7V12.5H10.5V7H9.5Z" fill="#9FA0A5"/>
<path d="M5.23096 2.5C5.23096 2.22386 5.45481 2 5.73096 2H10.2694C10.5456 2 10.7694 2.22386 10.7694 2.5V3.84615H5.23096V2.5Z" fill="#9FA0A5"/>
</svg>
