<svg width="16" height="16" viewBox="0 0 16 16" fill="none" xmlns="http://www.w3.org/2000/svg">
<circle cx="11.5" cy="11" r="3" fill="#6A6F81"/>
<path d="M12.6732 9.64562L10.9623 11.3836L10.3268 10.739C10.1435 10.5549 9.85016 10.5434 9.65462 10.716C9.45909 10.8887 9.44687 11.1649 9.63018 11.349L10.6079 12.3504C10.6934 12.4425 10.8278 12.5 10.9623 12.5C11.0967 12.5 11.2189 12.454 11.3167 12.3619L13.3698 10.2556C13.5531 10.0715 13.5409 9.79525 13.3454 9.6226C13.1498 9.44996 12.8565 9.46147 12.6732 9.64562Z" fill="white"/>
<path fill-rule="evenodd" clip-rule="evenodd" d="M2 2C1.72386 2 1.5 2.22386 1.5 2.5V13.5C1.5 13.7761 1.72386 14 2 14H8.85418C8.02375 13.2671 7.5 12.1947 7.5 11C7.5 8.79086 9.29086 7 11.5 7V2.5C11.5 2.22386 11.2761 2 11 2H2ZM3.5 4H9.5V5H3.5V4ZM7.5 6H3.5V7H7.5V6Z" fill="#6A6F81"/>
</svg>
