<svg width="32" height="32" viewBox="0 0 32 32" fill="none" xmlns="http://www.w3.org/2000/svg">
<path fill-rule="evenodd" clip-rule="evenodd" d="M25 28H7C6.44772 28 6 27.5523 6 27V5C6 4.44772 6.44772 4 7 4H17.25V11C17.25 11.9665 18.0335 12.75 19 12.75H26V27C26 27.5523 25.5523 28 25 28ZM25.9864 11.25C25.9524 11.0457 25.8555 10.8555 25.7071 10.7071L19.2929 4.29289C19.1445 4.14452 18.9543 4.04758 18.75 4.01357V11C18.75 11.1381 18.8619 11.25 19 11.25H25.9864ZM11 16.25V17.75H20.9997L20.9993 16.25H11ZM11 22.75V21.25H20.9993L20.9997 22.75H11Z" fill="#5C81FF"/>
</svg>
