<svg width="32" height="32" viewBox="0 0 32 32" fill="none" xmlns="http://www.w3.org/2000/svg">
<path fill-rule="evenodd" clip-rule="evenodd" d="M5 4.75H10V3.25H5C4.0335 3.25 3.25 4.0335 3.25 5V10H4.75V5C4.75 4.86193 4.86193 4.75 5 4.75ZM27 4.75H22V3.25H27C27.9665 3.25 28.75 4.0335 28.75 5V10H27.25V5C27.25 4.86193 27.1381 4.75 27 4.75ZM22 27.25H27C27.1381 27.25 27.25 27.1381 27.25 27V22H28.75V27C28.75 27.9665 27.9665 28.75 27 28.75H22V27.25ZM5 27.25H10V28.75H5C4.0335 28.75 3.25 27.9665 3.25 27V22H4.75V27C4.75 27.1381 4.86193 27.25 5 27.25ZM19.6968 23.9688C21.3056 23.9688 21.8341 20.1069 21.8341 17.0663C21.8341 16.4885 22.0683 15.7705 22.3267 14.9782C22.8669 13.3224 23.513 11.3417 22.3494 9.63597C20.867 7.46539 19.5328 7.94331 18.0788 8.46411C17.4044 8.70567 16.7043 8.95647 15.9517 8.95647C15.2114 8.95647 14.509 8.70111 13.83 8.45428C12.363 7.92094 11.0055 7.42743 9.61291 9.63597C8.49726 11.4052 9.14205 13.33 9.68596 14.9536C9.95197 15.7477 10.1938 16.4697 10.1938 17.0663C10.1938 20.0637 10.801 24 12.3274 24C13.4005 24 13.7555 22.5468 14.1145 21.077C14.4817 19.5733 14.8532 18.0523 16.0023 18.0523C17.0961 18.0523 17.382 19.4235 17.6784 20.8457C17.9978 22.3777 18.3295 23.9688 19.6968 23.9688Z" fill="#5C81FF"/>
</svg>
