<svg width="32" height="32" viewBox="0 0 32 32" fill="none" xmlns="http://www.w3.org/2000/svg">
<path fill-rule="evenodd" clip-rule="evenodd" d="M5.06641 4C4.51412 4 4.06641 4.44772 4.06641 5V20.9321L9.72967 14.3976C10.4363 13.5823 11.7051 13.5943 12.3961 14.4229L17.9378 21.0681L20.7946 18.2113C21.5012 17.5048 22.6548 17.5322 23.327 18.2716L28.0664 23.485V5C28.0664 4.44772 27.6187 4 27.0664 4H5.06641ZM28.0664 23.6047L27.0161 24.5595L22.217 19.2806C22.121 19.1749 21.9562 19.171 21.8553 19.272L18.9025 22.2248L22.9011 27.0196L21.7491 27.9803L11.2441 15.3836C11.1454 15.2652 10.9641 15.2635 10.8632 15.38L5.13353 21.9911L4.06641 21.0663V27C4.06641 27.5523 4.51412 28 5.06641 28H27.0664C27.6187 28 28.0664 27.5523 28.0664 27V23.6047ZM21.0664 12.5C21.8948 12.5 22.5664 11.8284 22.5664 11C22.5664 10.1716 21.8948 9.5 21.0664 9.5C20.238 9.5 19.5664 10.1716 19.5664 11C19.5664 11.8284 20.238 12.5 21.0664 12.5ZM21.0664 14C22.7233 14 24.0664 12.6569 24.0664 11C24.0664 9.34315 22.7233 8 21.0664 8C19.4096 8 18.0664 9.34315 18.0664 11C18.0664 12.6569 19.4096 14 21.0664 14Z" fill="#637EDD"/>
<path fill-rule="evenodd" clip-rule="evenodd" d="M5.56641 5.5V26.5H26.5664V5.5H5.56641ZM5.06641 4C4.51412 4 4.06641 4.44772 4.06641 5V27C4.06641 27.5523 4.51412 28 5.06641 28H27.0664C27.6187 28 28.0664 27.5523 28.0664 27V5C28.0664 4.44772 27.6187 4 27.0664 4H5.06641Z" fill="#637EDD"/>
</svg>
