<svg width="32" height="32" viewBox="0 0 32 32" fill="none" xmlns="http://www.w3.org/2000/svg">
<path fill-rule="evenodd" clip-rule="evenodd" d="M4 7C3.44772 7 3 7.44771 3 8V25C3 25.5523 3.44772 26 4 26H28C28.5523 26 29 25.5523 29 25V8C29 7.44772 28.5523 7 28 7H23L21.2969 4.4453C21.1114 4.1671 20.7992 4 20.4648 4H11.5352C11.2008 4 10.8886 4.1671 10.7031 4.4453L9 7H4ZM20.5 16C20.5 18.4853 18.4853 20.5 16 20.5C13.5147 20.5 11.5 18.4853 11.5 16C11.5 13.5147 13.5147 11.5 16 11.5C18.4853 11.5 20.5 13.5147 20.5 16ZM22 16C22 19.3137 19.3137 22 16 22C12.6863 22 10 19.3137 10 16C10 12.6863 12.6863 10 16 10C19.3137 10 22 12.6863 22 16Z" fill="#637EDD"/>
</svg>
