<svg width="32" height="32" viewBox="0 0 32 32" fill="none" xmlns="http://www.w3.org/2000/svg">
<path fill-rule="evenodd" clip-rule="evenodd" d="M10 4.75H5C4.86193 4.75 4.75 4.86193 4.75 5V10H3.25V5C3.25 4.0335 4.0335 3.25 5 3.25H10V4.75ZM27 4.75H22V3.25H27C27.9665 3.25 28.75 4.0335 28.75 5V10H27.25V5C27.25 4.86193 27.1381 4.75 27 4.75ZM10.8817 10.436L10.8817 10.436C10.3906 11.2149 10.4113 12.0972 10.7281 13.2653C10.8379 13.6701 10.9601 14.0345 11.0912 14.4254C11.158 14.6246 11.2272 14.8306 11.2981 15.0524C11.4816 15.626 11.6938 16.3535 11.6938 17.0663C11.6938 18.4888 11.8401 20.0903 12.1427 21.2905C12.2051 21.5381 12.2701 21.7513 12.3345 21.9317C12.4412 21.598 12.5447 21.182 12.6697 20.6701L12.682 20.6201C12.8505 19.9298 13.0703 19.0297 13.4357 18.3058C13.8213 17.5417 14.5971 16.5523 16.0023 16.5523C16.6487 16.5523 17.2225 16.7757 17.6795 17.166C18.1024 17.5272 18.365 17.9787 18.5377 18.3668C18.8361 19.0371 19.0086 19.871 19.142 20.5154C19.1553 20.5799 19.1683 20.6425 19.1809 20.7029C19.3277 21.4031 19.4489 21.8978 19.6002 22.2348C19.7018 22.017 19.811 21.7081 19.9127 21.2972C20.2051 20.1167 20.3341 18.5257 20.3341 17.0663C20.3341 16.3633 20.5454 15.6322 20.7251 15.0584C20.79 14.8513 20.8538 14.6558 20.9158 14.4659L20.916 14.4654C21.0502 14.0542 21.1759 13.6691 21.2854 13.249C21.5978 12.0505 21.594 11.1904 21.1103 10.4812C20.6696 9.8362 20.3544 9.64117 20.1967 9.57617C20.0575 9.5188 19.8838 9.49605 19.5504 9.56954C19.2709 9.63113 19.0178 9.72184 18.6728 9.8455L18.6728 9.84551C18.5154 9.90192 18.3389 9.96518 18.132 10.0357C17.551 10.2336 16.7994 10.4565 15.9517 10.4565C15.1065 10.4565 14.35 10.2267 13.7697 10.0257C13.5643 9.95458 13.3881 9.8905 13.2305 9.83319L13.2305 9.83317C12.8801 9.70574 12.6216 9.61174 12.3389 9.54799C11.9983 9.47119 11.8363 9.49817 11.7197 9.54767C11.5873 9.60384 11.2918 9.78573 10.8817 10.436ZM22.3494 9.63597C23.513 11.3417 22.8669 13.3224 22.3267 14.9782C22.0683 15.7705 21.8341 16.4885 21.8341 17.0663C21.8341 20.1069 21.3056 23.9688 19.6968 23.9688C18.3295 23.9688 17.9978 22.3777 17.6784 20.8457C17.382 19.4235 17.0961 18.0523 16.0023 18.0523C14.8532 18.0523 14.4817 19.5733 14.1145 21.077C13.7555 22.5468 13.4005 24 12.3274 24C10.801 24 10.1938 20.0637 10.1938 17.0663C10.1938 16.4697 9.95197 15.7477 9.68596 14.9536C9.14205 13.33 8.49726 11.4052 9.61291 9.63597C11.0055 7.42743 12.363 7.92094 13.83 8.45428C14.509 8.70111 15.2114 8.95647 15.9517 8.95647C16.7043 8.95647 17.4044 8.70567 18.0788 8.46411C19.5328 7.94331 20.867 7.46539 22.3494 9.63597ZM12.0354 22.6116C12.0353 22.6112 12.0384 22.6071 12.0446 22.6007C12.0385 22.6089 12.0354 22.6121 12.0354 22.6116ZM12.6723 22.6084C12.6769 22.6125 12.6791 22.615 12.6791 22.6152C12.679 22.6154 12.6768 22.6134 12.6723 22.6084ZM27 27.25H22V28.75H27C27.9665 28.75 28.75 27.9665 28.75 27V22H27.25V27C27.25 27.1381 27.1381 27.25 27 27.25ZM10 27.25H5C4.86193 27.25 4.75 27.1381 4.75 27V22H3.25V27C3.25 27.9665 4.0335 28.75 5 28.75H10V27.25Z" fill="#6A6F81"/>
</svg>
