<svg width="32" height="32" viewBox="0 0 32 32" fill="none" xmlns="http://www.w3.org/2000/svg">
<path fill-rule="evenodd" clip-rule="evenodd" d="M7 28H24C24.5523 28 25 27.5523 25 27V20.0317L22.5489 22.4828L17.8485 23.538C17.4905 23.6184 17.1707 23.2986 17.2511 22.9406L18.3063 18.2402L25 11.5464V11V5C25 4.44772 24.5523 4 24 4H18.6667H17.6111H7C6.44772 4 6 4.44772 6 5V27C6 27.5523 6.44771 28 7 28ZM25 13.6678L19.6746 18.9932L19.0605 21.7286L21.7959 21.1145L25 17.9104V13.6678ZM9 23.75V22.25H15V23.75H9Z" fill="#637EDD"/>
<path d="M28.6064 10.0601L30.7278 12.1814L28.7739 14.1352L21.7959 21.1133L19.0605 21.7273L19.6746 18.9919L26.6526 12.0139L28.6064 10.0601Z" fill="#637EDD"/>
</svg>
