<svg width="32" height="32" viewBox="0 0 32 32" fill="none" xmlns="http://www.w3.org/2000/svg">
<path fill-rule="evenodd" clip-rule="evenodd" d="M5.5 26.5V21.4916L10.7968 15.38C10.8977 15.2635 11.079 15.2652 11.1777 15.3836L20.4483 26.5H5.5ZM4 27V21.0663L3.93359 21.0087L4 20.9321V5C4 4.44772 4.44772 4 5 4H27C27.5523 4 28 4.44772 28 5V27C28 27.5523 27.5523 28 27 28H5C4.44772 28 4 27.5523 4 27ZM9.66326 14.3976L5.5 19.2013V5.5H26.5V21.8351L23.2604 18.2716C22.5883 17.5322 21.4346 17.5048 20.7281 18.2113L17.8714 21.068L12.3297 14.4229C11.6387 13.5943 10.3699 13.5823 9.66326 14.3976ZM18.836 22.2247L22.4014 26.5H26.5V24.0591C26.481 24.0421 26.4626 24.0239 26.445 24.0046L22.1505 19.2806C22.0545 19.1749 21.8897 19.171 21.7888 19.272L18.836 22.2247ZM22.5 11C22.5 11.8284 21.8284 12.5 21 12.5C20.1716 12.5 19.5 11.8284 19.5 11C19.5 10.1716 20.1716 9.5 21 9.5C21.8284 9.5 22.5 10.1716 22.5 11ZM24 11C24 12.6569 22.6569 14 21 14C19.3431 14 18 12.6569 18 11C18 9.34315 19.3431 8 21 8C22.6569 8 24 9.34315 24 11Z" fill="#6A6F81"/>
</svg>
