<svg width="32" height="32" viewBox="0 0 32 32" fill="none" xmlns="http://www.w3.org/2000/svg">
<path fill-rule="evenodd" clip-rule="evenodd" d="M25 17.0029L23.5 18.5029L20.8896 21.1132L18.1543 21.7273L18.7683 18.9919L23.5 14.2603L25 12.7603L27.7002 10.06L29.8215 12.1814L25 17.0029ZM17.4 18.2389L23.5 12.1389V5.5H7.5V26.5H23.5V20.6242L21.6427 22.4815L16.1719 23.7097L17.4 18.2389ZM25 5V10.6389L27.7002 7.93872L31.9428 12.1814L25 19.1242V27C25 27.5523 24.5523 28 24 28H7C6.44771 28 6 27.5523 6 27V5C6 4.44772 6.44772 4 7 4H24C24.5523 4 25 4.44772 25 5ZM9 22.25V23.75H14.9998L15 22.25H9Z" fill="#6A6F81"/>
</svg>
