<svg width="32" height="32" viewBox="0 0 32 32" fill="none" xmlns="http://www.w3.org/2000/svg">
<path fill-rule="evenodd" clip-rule="evenodd" d="M17.25 11V5.5H7.5V26.5H24.5V12.75H19C18.0335 12.75 17.25 11.9665 17.25 11ZM25.9864 11.25C25.9954 11.3039 26 11.3588 26 11.4142V27C26 27.5523 25.5523 28 25 28H7C6.44772 28 6 27.5523 6 27V5C6 4.44772 6.44772 4 7 4H18.5858C18.6412 4 18.6961 4.00459 18.75 4.01357C18.9543 4.04758 19.1445 4.14452 19.2929 4.29289L25.7071 10.7071C25.8555 10.8555 25.9524 11.0457 25.9864 11.25ZM18.75 5.87132L24.1287 11.25H19C18.8619 11.25 18.75 11.1381 18.75 11V5.87132ZM11 17.75V16.25H20.9993L20.9997 17.75H11ZM11 21.25V22.75H20.9997L20.9993 21.25H11Z" fill="#6A6F81"/>
</svg>
