<svg width="32" height="32" viewBox="0 0 32 32" fill="none" xmlns="http://www.w3.org/2000/svg">
<path fill-rule="evenodd" clip-rule="evenodd" d="M25.4488 6.51321C25.3003 6.50444 25.1507 6.5 25 6.5C20.8579 6.5 17.5 9.85786 17.5 14C17.5 17.8068 20.3361 20.9511 24.0106 21.4353C23.6683 25.3367 22.7274 28.9494 20.8093 28.9494C18.6606 28.9494 18.1393 26.3638 17.6375 23.8743C17.1716 21.5632 16.7225 19.3351 15.0035 19.3351C13.1979 19.3351 12.6141 21.8066 12.037 24.2501C11.4729 26.6385 10.9151 29 9.22873 29C6.83017 29 5.87604 22.6035 5.87604 17.7327C5.87604 16.7633 5.49595 15.59 5.07793 14.2996C4.22323 11.6613 3.20998 8.53352 4.96315 5.65845C7.15144 2.06957 9.28468 2.87153 11.5901 3.7382C12.657 4.1393 13.7608 4.55426 14.924 4.55426C16.1067 4.55426 17.207 4.14672 18.2667 3.75418C20.5515 2.90787 22.6481 2.13125 24.9777 5.65845C25.1628 5.93912 25.3188 6.22438 25.4488 6.51321Z" fill="#5C81FF"/>
<path fill-rule="evenodd" clip-rule="evenodd" d="M25 20C28.3137 20 31 17.3137 31 14C31 10.6863 28.3137 8 25 8C21.6863 8 19 10.6863 19 14C19 17.3137 21.6863 20 25 20ZM24.9467 16.037L28.5606 12.5135L27.5135 11.4395L24.4231 14.4525L22.4866 12.5645L21.4395 13.6385L23.8995 16.037C24.1908 16.321 24.6554 16.321 24.9467 16.037Z" fill="#5C81FF"/>
</svg>
