<svg width="32" height="32" viewBox="0 0 32 32" fill="none" xmlns="http://www.w3.org/2000/svg">
<path fill-rule="evenodd" clip-rule="evenodd" d="M13.5 5.5V26.5H17.5V5.5H13.5ZM13 4C12.4477 4 12 4.44772 12 5V27C12 27.5523 12.4477 28 13 28H18C18.5523 28 19 27.5523 19 27V5C19 4.44772 18.5523 4 18 4H13ZM4.5 18.5V26.5H8.5V18.5H4.5ZM4 17C3.44772 17 3 17.4477 3 18V27C3 27.5523 3.44772 28 4 28H9C9.55228 28 10 27.5523 10 27V18C10 17.4477 9.55228 17 9 17H4ZM22.5 26.5V11.5H26.5V26.5H22.5ZM21 11C21 10.4477 21.4477 10 22 10H27C27.5523 10 28 10.4477 28 11V27C28 27.5523 27.5523 28 27 28H22C21.4477 28 21 27.5523 21 27V11Z" fill="#6A6F81"/>
</svg>
