<svg width="32" height="32" viewBox="0 0 32 32" fill="none" xmlns="http://www.w3.org/2000/svg">
<path fill-rule="evenodd" clip-rule="evenodd" d="M6.24383 6.43938L6.24385 6.43935C6.95051 5.28039 7.53809 4.82799 7.95572 4.64471C8.35218 4.47073 8.79371 4.45138 9.42463 4.59849C9.92166 4.71438 10.3953 4.89243 10.9748 5.11028L10.9748 5.11028L10.9749 5.11032L10.975 5.11034C11.2156 5.20079 11.4745 5.29811 11.7609 5.40069C12.6526 5.72005 13.7358 6.05426 14.924 6.05426C16.1197 6.05426 17.1978 5.72929 18.0885 5.41547C18.3765 5.31399 18.6358 5.21794 18.8763 5.12888C19.448 4.91707 19.9133 4.74472 20.4051 4.63264C21.027 4.4909 21.4806 4.50672 21.9049 4.68758C22.3527 4.87843 22.9695 5.3399 23.7256 6.4844C24.0482 6.9735 24.2581 7.48915 24.3769 8.03196C21.356 8.34366 19 10.8967 19 14C19 16.4723 20.4953 18.5954 22.6309 19.5142C22.5525 21.3989 22.3459 23.3079 21.9779 24.8446C21.7324 25.8694 21.4407 26.6168 21.1436 27.0731C20.9996 27.2942 20.8883 27.3938 20.8319 27.4325C20.8183 27.4418 20.809 27.4468 20.8038 27.4493C20.6049 27.4484 20.4998 27.3984 20.4153 27.3353C20.306 27.2535 20.1572 27.0887 19.9926 26.7658C19.6425 26.0792 19.4136 25.0869 19.1617 23.8442C19.142 23.7471 19.1222 23.648 19.1019 23.5474L19.1019 23.5473C18.8876 22.4794 18.637 21.2314 18.2122 20.2443C17.735 19.1357 16.7964 17.8351 15.0035 17.8351C13.247 17.8351 12.2609 19.0926 11.7266 20.1873C11.2013 21.2636 10.8774 22.6345 10.6046 23.7892L10.5967 23.8226C10.2981 25.0862 10.0515 26.1207 9.70864 26.8561C9.5432 27.211 9.40374 27.3841 9.31924 27.4584C9.29492 27.4798 9.28011 27.4903 9.26803 27.4953C9.21803 27.4603 9.11315 27.3641 8.96126 27.1235C8.66061 26.6474 8.36352 25.8764 8.11023 24.8376C7.60942 22.7836 7.37604 20.0946 7.37604 17.7327C7.37604 16.7445 7.08832 15.6938 6.79927 14.7596C6.69628 14.4267 6.59193 14.1048 6.48878 13.7866C6.27743 13.1347 6.07108 12.4982 5.89155 11.8136C5.37052 9.82698 5.26064 8.05174 6.24383 6.43938ZM24.9777 5.65845C25.4892 6.43398 25.7782 7.2445 25.9105 8.06864C28.7921 8.50732 31 10.9958 31 14C31 17.3137 28.3137 20 25 20C24.6987 20 24.4026 19.9778 24.1132 19.9349C23.8925 24.3561 22.9721 28.9494 20.8093 28.9494C18.6606 28.9494 18.1393 26.3638 17.6375 23.8743C17.1716 21.5632 16.7225 19.3351 15.0035 19.3351C13.1979 19.3351 12.6141 21.8066 12.037 24.2501C11.4729 26.6385 10.9151 29 9.22873 29C6.83017 29 5.87604 22.6035 5.87604 17.7327C5.87604 16.7633 5.49595 15.59 5.07793 14.2996C4.22323 11.6613 3.20998 8.53352 4.96315 5.65845C7.15144 2.06957 9.28468 2.87153 11.5901 3.7382C12.657 4.1393 13.7608 4.55426 14.924 4.55426C16.1067 4.55426 17.207 4.14672 18.2667 3.75418C20.5515 2.90787 22.6481 2.13125 24.9777 5.65845ZM9.3015 27.5132C9.30143 27.514 9.29597 27.5125 9.28534 27.5065C9.29626 27.5094 9.30157 27.5125 9.3015 27.5132ZM25 18.5C27.4853 18.5 29.5 16.4853 29.5 14C29.5 11.5147 27.4853 9.5 25 9.5C22.5147 9.5 20.5 11.5147 20.5 14C20.5 16.4853 22.5147 18.5 25 18.5ZM24.9467 16.037L28.5606 12.5135L27.5135 11.4395L24.4231 14.4525L22.4866 12.5645L21.4395 13.6385L23.8995 16.037C24.1908 16.321 24.6554 16.321 24.9467 16.037Z" fill="#9FA0A5"/>
</svg>
