<svg width="32" height="32" viewBox="0 0 32 32" fill="none" xmlns="http://www.w3.org/2000/svg">
<path fill-rule="evenodd" clip-rule="evenodd" d="M3.5 22.4507V6.5H22.5V20.1667H8.25913C7.83427 20.1667 7.41641 20.2749 7.04502 20.4813L3.5 22.4507ZM23 5H3C2.44772 5 2 5.44772 2 6V23.3005C2 24.063 2.81911 24.5449 3.48564 24.1746L7.77348 21.7925C7.92204 21.71 8.08918 21.6667 8.25913 21.6667H23C23.5523 21.6667 24 21.219 24 20.6667V6C24 5.44772 23.5523 5 23 5ZM13 15C13.8284 15 14.5 14.3284 14.5 13.5C14.5 12.6716 13.8284 12 13 12C12.1716 12 11.5 12.6716 11.5 13.5C11.5 14.3284 12.1716 15 13 15ZM18 15C18.8284 15 19.5 14.3284 19.5 13.5C19.5 12.6716 18.8284 12 18 12C17.1716 12 16.5 12.6716 16.5 13.5C16.5 14.3284 17.1716 15 18 15ZM8 15C8.82843 15 9.5 14.3284 9.5 13.5C9.5 12.6716 8.82843 12 8 12C7.17157 12 6.5 12.6716 6.5 13.5C6.5 14.3284 7.17157 15 8 15ZM28.25 12C28.25 11.8619 28.1381 11.75 28 11.75H26V10.25H28C28.9665 10.25 29.75 11.0335 29.75 12V28.8121C29.75 29.4928 28.9898 29.8974 28.4252 29.5171L24.3798 26.7926C24.3385 26.7648 24.2899 26.75 24.2401 26.75H11C10.0335 26.75 9.25 25.9665 9.25 25V24H10.75V25C10.75 25.1381 10.8619 25.25 11 25.25H24.2401C24.5884 25.25 24.9288 25.3539 25.2177 25.5485L28.25 27.5907V12Z" fill="#9FA0A5"/>
</svg>
