<svg width="32" height="32" viewBox="0 0 32 32" fill="none" xmlns="http://www.w3.org/2000/svg">
<path fill-rule="evenodd" clip-rule="evenodd" d="M27 4.1V24C27 26.1801 25.2558 27.9529 23.0868 27.9991C21.1912 27.956 19.6678 26.4059 19.6678 24.5V21.1C19.6678 20.6306 19.2873 20.25 18.8178 20.25H7V4.1C7 4.04477 7.04477 4 7.1 4H26.9C26.9552 4 27 4.04477 27 4.1ZM3 21.75V24C3 26.2091 4.79086 28 7 28L11.8649 28L19.5971 28C18.713 27.0981 18.1678 25.8627 18.1678 24.5V21.75H3ZM11 10.75H23V9.25H11V10.75ZM23 15.75H11V14.25H23V15.75Z" fill="#5C81FF"/>
</svg>
