<svg width="32" height="32" viewBox="0 0 32 32" fill="none" xmlns="http://www.w3.org/2000/svg">
<path fill-rule="evenodd" clip-rule="evenodd" d="M9.25 8V6.5H6C5.72386 6.5 5.5 6.72386 5.5 7V10.25H26.5V7C26.5 6.72386 26.2761 6.5 26 6.5H22.75V8H21.25V6.5H10.75V8H9.25ZM21.25 5H10.75V3H9.25V5H6C4.89543 5 4 5.89543 4 7V10.25V11.75V25C4 26.1046 4.89543 27 6 27H26C27.1046 27 28 26.1046 28 25V11.75V10.25V7C28 5.89543 27.1046 5 26 5H22.75V3H21.25V5ZM26.5 11.75V25C26.5 25.2761 26.2761 25.5 26 25.5H6C5.72386 25.5 5.5 25.2761 5.5 25V11.75H26.5ZM8.5 14H11.5V17H8.5V14ZM11.5 20H8.5V23H11.5V20ZM14.5 14H17.5V17H14.5V14ZM17.5 20H14.5V23H17.5V20ZM20.5 14H23.5V17H20.5V14ZM23.5 20H20.5V23H23.5V20Z" fill="#9FA0A5"/>
</svg>
