<svg width="32" height="32" viewBox="0 0 32 32" fill="none" xmlns="http://www.w3.org/2000/svg">
<path fill-rule="evenodd" clip-rule="evenodd" d="M4.5 8.5H9.80278L11.8028 5.5H20.1972L22.1972 8.5H27.5V24.5H4.5V8.5ZM21.2969 4.4453L23 7H28C28.5523 7 29 7.44772 29 8V25C29 25.5523 28.5523 26 28 26H4C3.44772 26 3 25.5523 3 25V8C3 7.44771 3.44772 7 4 7H9L10.7031 4.4453C10.8886 4.1671 11.2008 4 11.5352 4H20.4648C20.7992 4 21.1114 4.1671 21.2969 4.4453ZM20.5 16C20.5 18.4853 18.4853 20.5 16 20.5C13.5147 20.5 11.5 18.4853 11.5 16C11.5 13.5147 13.5147 11.5 16 11.5C18.4853 11.5 20.5 13.5147 20.5 16ZM22 16C22 19.3137 19.3137 22 16 22C12.6863 22 10 19.3137 10 16C10 12.6863 12.6863 10 16 10C19.3137 10 22 12.6863 22 16Z" fill="#9FA0A5"/>
</svg>
