<svg width="32" height="32" viewBox="0 0 32 32" fill="none" xmlns="http://www.w3.org/2000/svg">
<path fill-rule="evenodd" clip-rule="evenodd" d="M7.1 3.25C6.63056 3.25 6.25 3.63056 6.25 4.1V20.25H3.1C2.63056 20.25 2.25 20.6306 2.25 21.1V24C2.25 26.6234 4.37665 28.75 7 28.75L11.8649 28.75H23C25.6234 28.75 27.75 26.6234 27.75 24V4.1C27.75 3.63056 27.3694 3.25 26.9 3.25H7.1ZM23 27.25C24.7949 27.25 26.25 25.7949 26.25 24V4.75H7.75V20.25H18.8178C19.2873 20.25 19.6678 20.6306 19.6678 21.1V24C19.6678 25.7949 21.1229 27.25 22.9178 27.25L23 27.25ZM19.4537 27.25C18.6563 26.4003 18.1678 25.2572 18.1678 24V21.75H3.75V24C3.75 25.7949 5.20507 27.25 7 27.25L11.8649 27.25L19.4537 27.25ZM23 10.75H11V9.25H23V10.75ZM11 15.75H23V14.25H11V15.75Z" fill="#9FA0A5"/>
</svg>
