<svg width="32" height="32" viewBox="0 0 32 32" fill="none" xmlns="http://www.w3.org/2000/svg">
<path fill-rule="evenodd" clip-rule="evenodd" d="M5.5 13.5V5.5H13.5V13.5H5.5ZM4 5C4 4.44771 4.44772 4 5 4H14C14.5523 4 15 4.44772 15 5V14C15 14.5523 14.5523 15 14 15H5C4.44771 15 4 14.5523 4 14V5ZM18.5 13.5V5.5H26.5V13.5H18.5ZM17 5C17 4.44771 17.4477 4 18 4H27C27.5523 4 28 4.44772 28 5V14C28 14.5523 27.5523 15 27 15H18C17.4477 15 17 14.5523 17 14V5ZM18.5 18.5V26.5H26.5V18.5H18.5ZM18 17C17.4477 17 17 17.4477 17 18V27C17 27.5523 17.4477 28 18 28H27C27.5523 28 28 27.5523 28 27V18C28 17.4477 27.5523 17 27 17H18ZM5.5 26.5V18.5H13.5V26.5H5.5ZM4 18C4 17.4477 4.44772 17 5 17H14C14.5523 17 15 17.4477 15 18V27C15 27.5523 14.5523 28 14 28H5C4.44771 28 4 27.5523 4 27V18Z" fill="#6A6F81"/>
</svg>
