<svg width="32" height="32" viewBox="0 0 32 32" fill="none" xmlns="http://www.w3.org/2000/svg">
<path fill-rule="evenodd" clip-rule="evenodd" d="M3 5H23C23.5523 5 24 5.44772 24 6V20.6667C24 21.219 23.5523 21.6667 23 21.6667H8.25913C8.08918 21.6667 7.92204 21.71 7.77348 21.7925L3.48564 24.1746C2.81911 24.5449 2 24.063 2 23.3005V6C2 5.44772 2.44772 5 3 5ZM13 15C13.8284 15 14.5 14.3284 14.5 13.5C14.5 12.6716 13.8284 12 13 12C12.1716 12 11.5 12.6716 11.5 13.5C11.5 14.3284 12.1716 15 13 15ZM19.5 13.5C19.5 14.3284 18.8284 15 18 15C17.1716 15 16.5 14.3284 16.5 13.5C16.5 12.6716 17.1716 12 18 12C18.8284 12 19.5 12.6716 19.5 13.5ZM8 15C8.82843 15 9.5 14.3284 9.5 13.5C9.5 12.6716 8.82843 12 8 12C7.17157 12 6.5 12.6716 6.5 13.5C6.5 14.3284 7.17157 15 8 15Z" fill="#637EDD"/>
<path d="M29 12V28.8121C29 28.8922 28.9106 28.9398 28.8441 28.895L24.7987 26.1706C24.6336 26.0594 24.4391 26 24.2401 26H11C10.4477 26 10 25.5523 10 25V24.25H24.5C25.6046 24.25 26.5 23.3546 26.5 22.25V11H28C28.5523 11 29 11.4477 29 12Z" fill="#637EDD" stroke="#637EDD" stroke-width="1.5"/>
<path fill-rule="evenodd" clip-rule="evenodd" d="M28 11.75C28.1381 11.75 28.25 11.8619 28.25 12V27.5907L25.2177 25.5485C24.9288 25.3539 24.5884 25.25 24.2401 25.25H11C10.8619 25.25 10.75 25.1381 10.75 25H24.5C26.0188 25 27.25 23.7688 27.25 22.25V11.75H28ZM29.2631 28.273C29.2632 28.2731 29.2629 28.2729 29.2631 28.273V28.273ZM29.75 12C29.75 11.0335 28.9665 10.25 28 10.25H25.75V22.25C25.75 22.9404 25.1904 23.5 24.5 23.5H9.25V25C9.25 25.9665 10.0335 26.75 11 26.75H24.2401C24.2899 26.75 24.3385 26.7648 24.3798 26.7926L28.4252 29.5171C28.9898 29.8974 29.75 29.4928 29.75 28.8121V12Z" fill="#637EDD"/>
</svg>
