<svg width="24" height="24" fill="none" xmlns="http://www.w3.org/2000/svg"><path fill-rule="evenodd" clip-rule="evenodd" d="M12.318 2.095a1 1 0 00-.636 0l-8 2.68A1 1 0 003 5.722v3.314c0 2.014 1 6.847 5 10.07l3.397 2.565a1 1 0 001.206 0L16 19.106c4-3.222 5-8.055 5-10.069V5.723a1 1 0 00-.683-.949l-8-2.679z" fill="#fff"/><path fill-rule="evenodd" clip-rule="evenodd" d="M10.75 8.5c0-.213.07-.55.259-.812.16-.223.435-.438.991-.438.213 0 .55.07.812.259.223.16.438.435.438.991v1h-2.5v-1zm-1.5 1v-1c0-.453.13-1.117.541-1.688.44-.61 1.165-1.062 2.209-1.062.453 0 1.117.13 1.688.541.61.44 1.062 1.165 1.062 2.209v1h.75a.5.5 0 01.5.5v5a.5.5 0 01-.5.5h-7A.5.5 0 018 15v-5a.5.5 0 01.5-.5h.75z" fill="#637EDD"/></svg>