<svg width="24" height="24" fill="none" xmlns="http://www.w3.org/2000/svg"><path d="M18.92 13a6.288 6.288 0 000-2l1.7-1.38a.51.51 0 00.11-.64l-1.75-3a.51.51 0 00-.61-.22l-2 .78a6.65 6.65 0 00-1.73-1l-.36-2.15a.49.49 0 00-.49-.42H10.3a.51.51 0 00-.5.42l-.35 2.15a6.88 6.88 0 00-1.74 1l-2-.78a.51.51 0 00-.61.22l-1.75 3a.51.51 0 00.12.64L5.16 11a6.29 6.29 0 000 2l-1.77 1.38a.51.51 0 00-.12.64l1.75 3a.51.51 0 00.61.22l2-.78a6.88 6.88 0 001.74 1l.35 2.15a.51.51 0 00.5.42h3.49a.49.49 0 00.49-.42l.36-2.15a6.65 6.65 0 001.73-1l2 .78a.51.51 0 00.61-.22l1.75-3a.51.51 0 00-.11-.64L18.92 13zM12 15.17a3.17 3.17 0 110-6.34 3.17 3.17 0 010 6.34z" fill="#fff"/></svg>