<svg width="24" height="24" fill="none" xmlns="http://www.w3.org/2000/svg"><circle cx="12" cy="12" r="12" fill="#A8BDFF"/><path d="M5.855 15.931a1.932 1.932 0 110-3.866m12.29 0a1.933 1.933 0 010 3.866" fill="#F5C7A8"/><path d="M12 20.813c3.806 0 6.89-3.448 6.89-7.7 0-4.253-3.085-7.701-6.89-7.701-3.805 0-6.89 3.448-6.89 7.7 0 4.253 3.085 7.7 6.89 7.7z" fill="#FEE0C8"/><path d="M9.214 13.577a.756.756 0 100-1.512.756.756 0 000 1.512zm5.573 0a.756.756 0 100-1.512.756.756 0 000 1.512z" fill="#3F3D3C"/><path d="M5.261 14.71s-2.398-5.14.734-7.062c0 0-.464-4.126 5.843-3.64 3.467.26 4.71 2.473 7.355.95a4.094 4.094 0 01-.853 3.597c1.965.788.432 6.005.432 6.005a11.598 11.598 0 00-1.08-4.472c-3.748.562-9.72-1.306-9.72-1.306s-2.581 1.652-2.71 5.929z" fill="#5D4F4B"/><path d="M12.303 13.35h-.638a.367.367 0 00-.367.367v1.977c0 .202.165.367.367.367h.638a.367.367 0 00.367-.367v-1.977a.367.367 0 00-.367-.367z" fill="#F2BB96"/><path fill-rule="evenodd" clip-rule="evenodd" d="M9.67 17.048a.324.324 0 01.457.03 2.494 2.494 0 001.912.851h.007a2.527 2.527 0 001.915-.852.324.324 0 01.485.43 3.176 3.176 0 01-2.402 1.07 3.143 3.143 0 01-2.404-1.072.324.324 0 01.03-.457z" fill="#D8684E"/></svg>