<svg width="24" height="24" fill="none" xmlns="http://www.w3.org/2000/svg"><circle cx="12" cy="12" r="12" fill="#A8BDFF"/><path d="M3.382 12.24c-.184 3.078.118 4.493.4 5.14a.93.93 0 00.863.53H19.56a.777.777 0 00.745-.519c.378-1.576.491-3.203.335-4.816-.151-4.59-1.847-7.647-5.81-9.159 0 0-4.018-1.76-6.405.486 0 0-4.58.8-5.043 8.338z" fill="#5D4F4B"/><path d="M6.082 15.426a1.858 1.858 0 110-3.716m11.825.033a1.857 1.857 0 110 3.715" fill="#F5C7A8"/><path d="M12 20.124c3.662 0 6.631-3.317 6.631-7.41 0-4.09-2.969-7.408-6.631-7.408-3.662 0-6.631 3.317-6.631 7.409s2.969 7.409 6.63 7.409z" fill="#FEE0C8"/><path d="M9.322 13.266a.724.724 0 100-1.447.724.724 0 000 1.447zm5.356 0a.724.724 0 100-1.448.724.724 0 000 1.448z" fill="#3F3D3C"/><path d="M12.291 12.942h-.626a.346.346 0 00-.346.345v1.793c0 .191.155.346.346.346h.626a.346.346 0 00.346-.346v-1.793a.346.346 0 00-.346-.345z" fill="#F2BB96"/><path fill-rule="evenodd" clip-rule="evenodd" d="M9.746 16.283a.324.324 0 01.457.031 2.375 2.375 0 003.583 0 .324.324 0 11.489.426 3.024 3.024 0 01-4.56 0 .324.324 0 01.03-.457z" fill="#D8684E"/><path d="M18.502 11.192l-.205-2.106-1.459-2.408-2.16-1.253L12 5.058l-2.678.367-2.16 1.253-1.458 2.408-.205 2.106A13.662 13.662 0 009.592 7.5c.464.734 4.676 3.693 8.91 3.693z" fill="#5D4F4B"/></svg>