<svg width="24" height="24" fill="none" xmlns="http://www.w3.org/2000/svg"><circle cx="12" cy="12" r="12" fill="#A8BDFF"/><path d="M4.932 14.064a2.064 2.064 0 010-4.128m14.136 0a2.064 2.064 0 010 4.128" fill="#F5C7A8"/><path d="M12 19.392c4.209 0 7.62-3.31 7.62-7.392 0-4.082-3.412-7.392-7.62-7.392S4.38 7.918 4.38 12c0 4.082 3.412 7.392 7.62 7.392z" fill="#FEE0C8"/><path d="M8.904 11.832a.744.744 0 100-1.488.744.744 0 000 1.488zm6.192 0a.744.744 0 100-1.488.744.744 0 000 1.488z" fill="#3F3D3C"/><path d="M7.26 15.66a1.428 1.428 0 100-2.856 1.428 1.428 0 000 2.856zm9.48 0a1.428 1.428 0 100-2.856 1.428 1.428 0 000 2.856z" fill="#F9B6B4"/><path fill-rule="evenodd" clip-rule="evenodd" d="M12.05 4.308a.298.298 0 01.214.104.3.3 0 01.06.28 2.303 2.303 0 001.318 2.736.3.3 0 11-.235.552 2.904 2.904 0 01-1.76-2.874c-.11.07-.229.16-.341.274-.357.366-.697 1.033-.417 2.257a.3.3 0 11-.585.134c-.32-1.404.06-2.285.573-2.81a2.484 2.484 0 011.057-.636l.023-.006.003-.001a.297.297 0 01.09-.01z" fill="#594D4B"/><path d="M12 18.144c1.094 0 1.98-.629 1.98-1.404 0-.775-.886-1.404-1.98-1.404-1.094 0-1.98.629-1.98 1.404 0 .775.886 1.404 1.98 1.404z" fill="#58CAE9"/><path d="M12 20.196a1.98 1.98 0 100-3.96 1.98 1.98 0 000 3.96z" fill="#90E2F1"/></svg>