<svg width="24" height="24" fill="none" xmlns="http://www.w3.org/2000/svg"><circle cx="12" cy="12" r="12" fill="#A8BDFF"/><path d="M19.97 10.618c.083-.296.126-.6.13-.908a3.608 3.608 0 00-3.035-3.553A4.612 4.612 0 009.16 4.753h-.098a5.173 5.173 0 00-5.184 5.173c.004.298.037.595.098.886a4.385 4.385 0 107.408 3.737c.216-.119.432-.227.638-.367a4.621 4.621 0 107.948-3.564z" fill="#848A9F"/><path d="M6.082 15.953a1.857 1.857 0 110-3.715m11.837-.054a1.858 1.858 0 010 3.715" fill="#F5C7A8"/><path d="M12 20.597c3.662 0 6.631-3.317 6.631-7.409s-2.969-7.409-6.63-7.409c-3.663 0-6.632 3.317-6.632 7.409S8.338 20.597 12 20.597z" fill="#FEE0C8"/><path d="M9.322 13.912a.724.724 0 100-1.448.724.724 0 000 1.448zm5.357 0a.724.724 0 100-1.448.724.724 0 000 1.448z" fill="#3F3D3C"/><path d="M12.292 13.48h-.627a.346.346 0 00-.345.345v1.793c0 .19.155.346.345.346h.627c.19 0 .345-.155.345-.346v-1.793a.346.346 0 00-.345-.345z" fill="#F2BB96"/><path d="M12 18.275a2.398 2.398 0 01-1.804-.821.324.324 0 010-.464.314.314 0 01.454 0 1.803 1.803 0 002.657 0 .315.315 0 01.454 0 .325.325 0 010 .464 2.419 2.419 0 01-1.76.82z" fill="#D8684E"/><path d="M8.738 18.113a.216.216 0 01-.172-.249 4.32 4.32 0 011.08-2.084.216.216 0 01.302.302 4.115 4.115 0 00-.929 1.858.195.195 0 01-.28.173zm6.524 0a.205.205 0 01-.206-.173 3.887 3.887 0 00-.928-1.858.216.216 0 01.302-.302 4.21 4.21 0 011.08 2.084.216.216 0 01-.173.249h-.075z" fill="#E3B89C"/><path d="M19.16 11.395l-.572-.983c.22-.323.36-.692.41-1.08l-1.08-.194-1.08-1.814c.111-.256.202-.52.27-.789l-.83-.194-.52-.886-4.643-.745.561.562-1.533-.357c-1.307-.14-3.877.918-3.661 1.75 0 .194.118.378.183.561l-1.08.26-.756 4.222.627.551a7.787 7.787 0 012.062-3.553 5.4 5.4 0 006.6 1.512 2.645 2.645 0 003.876.81c.279.37.491.787.627 1.231l.54-.864z" fill="#848A9F"/></svg>