<svg width="24" height="24" fill="none" xmlns="http://www.w3.org/2000/svg"><circle cx="12" cy="12" r="12" fill="#A8BDFF"/><mask id="mask0_3_7534" style="mask-type:alpha" maskUnits="userSpaceOnUse" x="0" y="0" width="24" height="24"><circle cx="12" cy="12" r="12" fill="#ADC0FF"/></mask><g mask="url(#mask0_3_7534)"><path fill-rule="evenodd" clip-rule="evenodd" d="M21.517 25.2H2.438c-.892 0-1.302-.481-1.23-1.371.193-1.42.965-3.56 3.787-4.474 2.99-1.155 3.208-1.275 3.208-1.275s.7-1.154 1.013-1.227c.314-.072.048-.529 0-.649s-.458 0-.458-1.66c0-.553.072-.577-.193-.577-.266 0-.893-.385-.893-1.708s0-1.395.242-1.419c.024-.505-.242-1.323-.242-3.199 0-1.852 1.496-3.608 4.342-3.608.82 0 1.52-.385 2.291-.433.097.24.217.65.386.746.603.384 1.375 1.37 1.664 3.319 0 1.852-.29 2.694-.24 3.2.24.047.24.095.24 1.418s-.627 1.708-.892 1.708-.193.048-.193.577c0 1.66-.41 1.54-.458 1.66-.049.12-.314.577 0 .65.313.072 1.013 1.226 1.013 1.226s.168.12 3.16 1.251c2.845.914 3.617 3.079 3.81 4.498.048.938-.241 1.347-1.278 1.347z" fill="#fff"/></g></svg>