<svg width="24" height="24" fill="none" xmlns="http://www.w3.org/2000/svg"><circle cx="12" cy="12" r="12" fill="#A8BDFF"/><path d="M5.844 15.807a1.932 1.932 0 110-3.856m12.301 0a1.935 1.935 0 012.078 1.928 1.935 1.935 0 01-2.078 1.928" fill="#F5C7A8"/><path d="M12 20.689c3.806 0 6.89-3.448 6.89-7.7 0-4.254-3.085-7.701-6.89-7.701-3.805 0-6.89 3.447-6.89 7.7s3.085 7.7 6.89 7.7z" fill="#FEE0C8"/><path d="M9.214 13.464a.756.756 0 100-1.512.756.756 0 000 1.512zm5.572 0a.756.756 0 100-1.512.756.756 0 000 1.512z" fill="#3F3D3C"/><path d="M5.844 7.189c-3.132 1.922-.583 7.409-.583 7.409a11.027 11.027 0 012.927-6.102s5.713 2.03 9.46 1.468a11.599 11.599 0 011.08 4.471s3.132-7.754-4.32-10.39a9.59 9.59 0 00-4.773-.258 5.195 5.195 0 00-3.79 3.402z" fill="#848A9F"/><path d="M12.346 12.988H11.6a.378.378 0 00-.378.378v1.955c0 .209.17.378.378.378h.746c.208 0 .378-.17.378-.378v-1.955a.378.378 0 00-.378-.378z" fill="#F2BB96"/><path d="M14.808 15.834c-1.61-1.717-2.786-.454-2.786-.454s-1.177-1.263-2.787.454a2.484 2.484 0 01-2.052.691c1.08 1.642 3.24 2.182 4.839.523 1.641 1.659 3.801 1.119 4.881-.523a2.483 2.483 0 01-2.095-.691z" fill="#848A9F"/></svg>