<svg width="304" height="161" fill="none" xmlns="http://www.w3.org/2000/svg"><path fill="#fff" stroke="#EDEEF2" stroke-width=".792" d="M.396.396h303.208v160.208H.396z"/><path d="M28.377 23.154a.14.14 0 01.087.035c.03.017.044.044.044.078v.296c0 .03-.015.056-.044.079a.14.14 0 01-.087.035h-7.402a.15.15 0 01-.096-.035.108.108 0 01-.035-.079v-.296c0-.034.012-.06.035-.078a.15.15 0 01.096-.035h3.379v-1.811a4.743 4.743 0 01-.871-.157c-.29-.081-.558-.2-.801-.357a1.995 1.995 0 01-.584-.584 1.5 1.5 0 01-.226-.835c0-.355.087-.654.261-.897.18-.25.407-.45.68-.601.278-.151.58-.261.905-.331.33-.07.644-.105.94-.105.302 0 .619.035.95.105.33.07.63.18.897.33.273.152.496.352.67.602.18.243.27.542.27.896 0 .326-.075.607-.226.845a1.996 1.996 0 01-.584.584c-.238.15-.505.27-.8.357-.297.081-.59.13-.88.148v1.811h3.422zm-3.718-5.13c-.204 0-.43.021-.68.062-.244.04-.476.113-.696.218a1.648 1.648 0 00-.549.426c-.145.18-.218.41-.218.688 0 .279.073.508.218.688.15.18.334.322.549.427.22.099.452.168.696.209.25.04.476.06.68.06.197 0 .418-.02.661-.06.25-.04.482-.11.697-.21.22-.104.406-.246.557-.426.151-.18.227-.41.227-.688 0-.278-.076-.508-.227-.688a1.624 1.624 0 00-.557-.426 2.5 2.5 0 00-.697-.218 4.053 4.053 0 00-.662-.061zm11.907 3.45a.14.14 0 01.088.034.087.087 0 01.043.079v.296c0 .029-.014.055-.043.078a.14.14 0 01-.088.035h-7.402a.15.15 0 01-.095-.035.108.108 0 01-.035-.078v-.296c0-.035.011-.061.035-.079a.15.15 0 01.096-.035h7.401zm-.879 3.317a.087.087 0 01-.043.079.168.168 0 01-.088.026h-4.659c-.272 0-.452-.058-.54-.174-.08-.11-.121-.285-.121-.523v-1.385c0-.08.04-.121.122-.121h.357c.08 0 .122.04.122.121v1.376c0 .082.011.131.034.148.03.024.085.035.166.035h4.52c.028 0 .057.009.087.026.029.024.043.05.043.079v.313zm-.052-4.232c0 .03-.015.055-.044.078a.116.116 0 01-.07.026h-4.589c-.273 0-.453-.049-.54-.148-.08-.104-.122-.278-.122-.522v-.688c0-.25.05-.415.149-.496.104-.082.287-.122.548-.122h3.701c.081 0 .13-.012.148-.035.023-.023.035-.079.035-.166v-.574c0-.087-.012-.142-.035-.166-.017-.023-.067-.035-.148-.035h-4.276a.168.168 0 01-.087-.026.083.083 0 01-.035-.07v-.313c0-.029.012-.052.035-.07a.168.168 0 01.087-.026h4.372c.14 0 .252.012.34.035a.45.45 0 01.209.096.35.35 0 01.104.2c.023.082.035.183.035.305v.714c0 .25-.052.415-.157.496-.099.082-.279.122-.54.122h-3.71c-.08 0-.133.012-.156.035-.018.024-.026.079-.026.166v.592c0 .081.011.136.034.165.024.024.076.035.157.035h4.459c.029 0 .055.009.078.026.03.018.044.04.044.07v.296zm4.967-2.5a5.04 5.04 0 01-.165.21c-.052.07-.11.136-.174.2.162.163.342.308.54.435.197.128.397.241.6.34.325-.197.596-.4.81-.61.215-.209.4-.444.558-.705.029-.046.037-.087.026-.122-.012-.04-.05-.06-.113-.06h-1.498c-.07 0-.105-.041-.105-.123v-.278c0-.07.04-.105.122-.105h1.698c.325 0 .523.064.592.192.076.128.05.302-.078.522a5.47 5.47 0 01-.235.366c-.076.116-.16.226-.253.33.1.076.212.152.34.227.133.07.264.14.392.21.133.063.261.121.383.174.128.046.238.084.33.113.042.011.065.035.07.07.012.034.006.072-.017.113l-.148.252c-.035.064-.101.073-.2.026a9.87 9.87 0 01-.357-.148 8.814 8.814 0 01-.392-.209l-.4-.226a4.537 4.537 0 01-.349-.244 4.982 4.982 0 01-.705.531c-.262.163-.575.334-.94.514-.076.04-.14.026-.192-.044l-.14-.191c-.029-.035-.037-.07-.026-.105a.17.17 0 01.078-.078 2.1 2.1 0 00.114-.052l.104-.052a5.27 5.27 0 01-.967-.732c-.528.435-1.17.795-1.924 1.08a.767.767 0 01-.113.035c-.023 0-.047-.02-.07-.061l-.13-.253c-.024-.04-.03-.072-.018-.096a.142.142 0 01.07-.06 4.93 4.93 0 00.679-.288c.232-.122.45-.25.653-.383.203-.14.386-.282.549-.427a2.03 2.03 0 00.374-.427c.03-.04.038-.078.026-.113-.005-.04-.04-.06-.104-.06h-1.568c-.075 0-.113-.041-.113-.123v-.278c0-.035.012-.061.035-.079a.183.183 0 01.096-.026h1.785c.703 0 .86.273.47.819zm4.285 3.423c0 .03-.015.055-.044.079a.14.14 0 01-.087.034h-7.402a.15.15 0 01-.096-.034.108.108 0 01-.035-.079v-.305c0-.035.012-.06.035-.078a.182.182 0 01.096-.026h3.475v-.732c0-.08.04-.122.122-.122h.357c.08 0 .121.041.121.122v.732h3.327a.14.14 0 01.087.035.085.085 0 01.044.078v.296zm-1.22 3.536c0 .081-.04.122-.121.122h-.357c-.082 0-.122-.041-.122-.122v-1.82c0-.082-.015-.131-.044-.148-.023-.024-.075-.035-.157-.035h-4.484a.168.168 0 01-.087-.026c-.03-.024-.044-.05-.044-.079v-.313c0-.035.015-.061.044-.079a.168.168 0 01.087-.026h4.624c.273 0 .45.052.531.157.087.099.13.267.13.505v1.864zm98.482-6.053a1.394 1.394 0 01-.444 1.028 1.83 1.83 0 01-.531.348 2.205 2.205 0 01-.706.174v.95c.448-.012.877-.03 1.289-.052.413-.03.784-.064 1.115-.105.052-.006.084 0 .096.017.017.012.029.032.035.061l.034.296a.11.11 0 01-.017.088c-.012.017-.044.029-.096.034a36.49 36.49 0 01-1.68.148 31.81 31.81 0 01-1.812.053h-1.811a.15.15 0 01-.096-.035.11.11 0 01-.035-.079v-.304c0-.035.012-.061.035-.079a.183.183 0 01.096-.026h2.247v-.966a2.096 2.096 0 01-.688-.175 1.969 1.969 0 01-.523-.34 1.456 1.456 0 01-.331-.47 1.458 1.458 0 01-.113-.566c0-.238.044-.452.131-.644a1.36 1.36 0 01.392-.496c.174-.14.38-.247.618-.323.244-.075.514-.113.81-.113.284 0 .545.038.783.113.244.076.453.183.627.323.18.133.32.299.418.496.105.192.157.406.157.644zm-.592-.008a.815.815 0 00-.113-.436.929.929 0 00-.305-.313 1.341 1.341 0 00-.444-.192 2.26 2.26 0 00-.531-.06c-.192 0-.372.02-.54.06-.163.04-.305.105-.427.192a.868.868 0 00-.392.749c0 .156.032.299.096.426.07.128.165.236.287.323.122.087.265.154.427.2.168.046.351.07.549.07.185 0 .363-.024.531-.07.168-.052.316-.122.444-.21.128-.092.229-.2.305-.321a.811.811 0 00.113-.418zm2.804 5.834a.087.087 0 01-.043.079.169.169 0 01-.088.026h-4.571c-.273 0-.453-.053-.54-.157-.082-.105-.122-.276-.122-.514v-1.428c0-.081.04-.122.122-.122h.357c.081 0 .122.04.122.122v1.393c0 .082.011.131.034.148.03.024.085.035.166.035h4.432c.03 0 .059.009.088.026.029.024.043.05.043.079v.313zm-.27-1.811c0 .081-.04.122-.122.122h-.357c-.081 0-.122-.04-.122-.122v-5.835c0-.08.041-.122.122-.122h.357c.082 0 .122.041.122.122v5.835zm4.82-4.92a5.97 5.97 0 01-.166.209c-.052.07-.11.136-.174.2.163.163.342.308.54.435.197.128.398.241.601.34.325-.197.595-.4.81-.61.214-.209.4-.444.557-.705.029-.046.038-.087.026-.122-.012-.04-.049-.06-.113-.06h-1.498c-.07 0-.104-.041-.104-.123v-.278c0-.07.04-.105.121-.105h1.699c.325 0 .522.064.592.192.075.128.049.302-.079.522-.075.128-.153.25-.235.366a2.705 2.705 0 01-.252.33c.098.076.212.152.339.227.134.07.264.14.392.21.134.063.261.121.383.174.128.046.238.084.331.113.041.011.064.035.07.07.012.034.006.072-.017.113l-.148.252c-.035.064-.102.073-.201.026a9.645 9.645 0 01-.357-.148 8.872 8.872 0 01-.392-.209l-.4-.226a4.613 4.613 0 01-.349-.244 4.967 4.967 0 01-.705.531c-.261.163-.575.334-.94.514-.076.04-.14.026-.192-.044l-.139-.191c-.029-.035-.038-.07-.027-.105a.174.174 0 01.079-.078 2.57 2.57 0 00.218-.104 5.26 5.26 0 01-.967-.732c-.528.435-1.17.795-1.925 1.08a.755.755 0 01-.113.035c-.023 0-.046-.02-.069-.061l-.131-.253c-.023-.04-.029-.072-.018-.096a.145.145 0 01.07-.06c.227-.076.453-.172.679-.288.233-.122.45-.25.654-.383a5.52 5.52 0 00.548-.427 2.02 2.02 0 00.375-.427c.029-.04.037-.078.026-.113-.006-.04-.041-.06-.105-.06h-1.567c-.076 0-.113-.041-.113-.123v-.278c0-.035.011-.061.034-.079a.183.183 0 01.096-.026h1.785c.703 0 .86.273.471.819zm4.284 3.422c0 .03-.014.055-.043.079a.142.142 0 01-.088.034h-7.402a.15.15 0 01-.095-.034.105.105 0 01-.035-.079v-.305c0-.035.011-.06.035-.078a.181.181 0 01.095-.026h3.475v-.732c0-.08.041-.122.122-.122h.357c.081 0 .122.041.122.122v.732h3.326c.029 0 .059.011.088.035a.085.085 0 01.043.078v.296zm-1.219 3.536c0 .081-.041.122-.122.122h-.357c-.081 0-.122-.041-.122-.122v-1.82c0-.082-.014-.131-.043-.148-.024-.024-.076-.035-.157-.035h-4.485a.168.168 0 01-.087-.026c-.029-.024-.044-.05-.044-.079v-.313c0-.035.015-.061.044-.079a.168.168 0 01.087-.026h4.624c.273 0 .45.052.531.157.087.099.131.267.131.505v1.864zm73.936-3.283c0 .238-.049.458-.148.662a1.687 1.687 0 01-.392.54 1.87 1.87 0 01-.6.357c-.233.087-.482.13-.749.13-.273 0-.526-.043-.758-.13a1.897 1.897 0 01-.592-.358 1.722 1.722 0 01-.401-.53 1.63 1.63 0 01-.139-.671c0-.244.046-.468.139-.67.099-.21.233-.39.401-.54.168-.152.366-.27.592-.358.232-.087.485-.13.758-.13.267 0 .516.046.749.139.232.087.432.206.6.357.169.15.299.33.392.54.099.209.148.43.148.662zm1.585-1.672v-2.918c0-.08.041-.122.122-.122h.357c.082 0 .122.041.122.122v7.786c0 .08-.04.121-.122.121h-.357c-.081 0-.122-.04-.122-.121v-2.639h-1.236c-.076 0-.113-.035-.113-.105v-.304c0-.07.037-.105.113-.105h1.236v-1.201h-1.323c-.076 0-.114-.035-.114-.105v-.305c0-.07.038-.104.114-.104h1.323zm-2.177 1.672c0-.169-.032-.325-.096-.47a1.064 1.064 0 00-.27-.375 1.165 1.165 0 00-.418-.253 1.346 1.346 0 00-.513-.095c-.186 0-.36.032-.523.095a1.18 1.18 0 00-.409.253 1.2 1.2 0 00-.279.374 1.153 1.153 0 00-.096.47c0 .169.032.326.096.47.07.14.163.265.279.375.116.105.252.19.409.253.163.058.337.087.523.087a1.354 1.354 0 00.931-.34 1.06 1.06 0 00.27-.374c.064-.145.096-.302.096-.47zm1.089-2.43c0 .076-.044.113-.131.113h-4.65a.14.14 0 01-.087-.035.12.12 0 01-.035-.087v-.278a.12.12 0 01.035-.087.14.14 0 01.087-.035h4.65c.087 0 .131.037.131.113v.296zm-1.115-1.48c0 .08-.043.122-.131.122h-2.386a.168.168 0 01-.087-.027.12.12 0 01-.035-.087v-.296c0-.035.012-.064.035-.087a.11.11 0 01.079-.035h2.394c.088 0 .131.041.131.122v.288zm11.231 2.516c0 .325-.04.653-.122.984-.075.331-.197.63-.365.897a2.152 2.152 0 01-.654.662c-.261.168-.577.253-.949.253-.383 0-.708-.085-.975-.253a2.018 2.018 0 01-.636-.653 3.05 3.05 0 01-.339-.906 4.745 4.745 0 010-1.994c.069-.337.182-.638.339-.905.163-.268.375-.482.636-.645.267-.162.592-.244.975-.244.372 0 .688.082.949.244.268.163.485.377.654.645.168.26.29.56.365.897.082.33.122.67.122 1.018zm-.618-.008c0-.262-.029-.526-.087-.793a2.529 2.529 0 00-.253-.723 1.53 1.53 0 00-.452-.522 1.135 1.135 0 00-.68-.2c-.278 0-.511.066-.696.2a1.49 1.49 0 00-.436.522c-.11.215-.188.456-.235.723a4.663 4.663 0 00-.009 1.568c.047.267.125.51.235.731.111.215.259.392.445.531.185.14.418.21.696.21.267 0 .494-.07.68-.21.185-.139.336-.316.452-.53a2.66 2.66 0 00.253-.732 3.65 3.65 0 00.087-.775zm2.517 4.598c0 .08-.041.121-.122.121h-.357c-.082 0-.122-.04-.122-.121v-7.786c0-.08.04-.122.122-.122h.357c.081 0 .122.041.122.122v3.17h1.201c.035 0 .064.012.088.035a.085.085 0 01.043.078v.296c0 .03-.014.056-.043.079a.121.121 0 01-.088.035h-1.201v4.093zm2.851-3.144c-.261-.012-.438-.064-.531-.157-.087-.098-.131-.27-.131-.514v-1.132c0-.244.05-.406.148-.487.105-.087.288-.131.549-.131h1.611c.081 0 .133-.012.157-.035.023-.023.035-.078.035-.165v-.967c0-.087-.012-.142-.035-.165-.018-.024-.067-.035-.148-.035h-2.16a.168.168 0 01-.087-.026.084.084 0 01-.035-.07v-.33c0-.03.012-.053.035-.07a.168.168 0 01.087-.027h2.255c.14 0 .253.012.34.035.087.018.157.05.209.096a.356.356 0 01.105.2c.023.082.034.183.034.305v1.158c0 .244-.052.41-.156.497-.099.08-.279.122-.54.122h-1.62c-.081 0-.134.011-.157.034-.017.024-.026.079-.026.166v.984c0 .133.064.2.192.2a12.247 12.247 0 002.708-.313c.087-.03.139 0 .157.087l.052.287c.012.076-.026.125-.113.148-.441.11-.918.192-1.428.244a11.73 11.73 0 01-1.507.06zm4.25-2.334h1.106v-2.308c0-.08.04-.122.122-.122h.331c.081 0 .121.041.121.122v5.138c0 .082-.04.122-.121.122h-.331c-.082 0-.122-.04-.122-.122v-2.307h-1.106v1.802c0 .082-.041.122-.122.122h-.331c-.081 0-.122-.04-.122-.122v-4.485c0-.08.041-.121.122-.121h.331c.081 0 .122.04.122.121v2.16zm-.845 2.839c-.012.046-.02.09-.026.13a1.512 1.512 0 01-.026.131c.023.064.049.122.078.174.029.053.061.105.096.157.221.337.557.645 1.01.923.453.273 1.002.48 1.646.619.075.017.096.066.061.148l-.131.304c-.029.07-.084.093-.165.07-.679-.186-1.266-.433-1.759-.74-.488-.302-.859-.636-1.115-1.002-.244.395-.604.746-1.08 1.054-.47.308-1.03.552-1.68.732a.314.314 0 01-.122.008c-.024 0-.041-.017-.053-.052l-.122-.322c-.034-.081-.011-.137.07-.166.418-.11.793-.25 1.124-.418.336-.162.621-.342.853-.54.238-.197.418-.403.54-.618.128-.215.197-.43.209-.644 0-.07.035-.105.104-.105l.418.035c.058 0 .082.04.07.122zm10.428.348c0 .082-.041.122-.122.122h-.357c-.082 0-.122-.04-.122-.122v-2.046h-1.724v.209c0 .244-.047.41-.14.496-.093.082-.267.122-.522.122h-2.395a1.79 1.79 0 01-.34-.026.43.43 0 01-.2-.096.438.438 0 01-.096-.191 1.52 1.52 0 01-.026-.305v-2.691c0-.244.047-.406.139-.488.093-.087.267-.13.523-.13h2.395c.139 0 .249.008.331.026.087.017.153.05.2.096a.34.34 0 01.104.191c.018.082.027.183.027.305v.314h1.724v-1.28c0-.082.04-.123.122-.123h.357c.081 0 .122.041.122.122v5.495zm-5.234-4.624c-.081 0-.136.018-.166.053-.029.029-.043.087-.043.174v2.43c0 .086.014.147.043.182.03.03.085.044.166.044h2.099c.081 0 .136-.015.165-.044.029-.035.044-.096.044-.183v-2.43c0-.087-.015-.145-.044-.174-.029-.034-.084-.052-.165-.052h-2.099zm5.504 6.775a.087.087 0 01-.044.079.168.168 0 01-.087.026h-4.363c-.273 0-.453-.053-.54-.157-.081-.099-.122-.267-.122-.505v-1.768c0-.081.041-.122.122-.122h.357c.082 0 .122.04.122.122v1.724c0 .082.012.131.035.148.029.024.084.035.165.035h4.224c.029 0 .058.009.087.026.029.024.044.05.044.079v.313zm-2.595-4.71h1.724v-1.142h-1.724v1.141zm-22.776 74.487c0 .238-.049.459-.148.662a1.705 1.705 0 01-.392.54 1.89 1.89 0 01-.601.357c-.232.087-.482.13-.749.13-.273 0-.525-.043-.757-.13a1.904 1.904 0 01-.593-.357 1.704 1.704 0 01-.4-.531 1.631 1.631 0 01-.14-.671 1.589 1.589 0 01.54-1.21c.169-.151.366-.27.593-.358.232-.087.484-.13.757-.13.267 0 .517.046.749.14.232.086.433.205.601.356.168.151.299.331.392.54.099.21.148.43.148.662zm1.585-1.672v-2.917c0-.082.04-.122.122-.122h.357c.081 0 .122.04.122.122v7.785c0 .081-.041.122-.122.122h-.357c-.082 0-.122-.04-.122-.122v-2.639h-1.237c-.075 0-.113-.035-.113-.104v-.305c0-.07.038-.104.113-.104h1.237V93.41h-1.324c-.075 0-.113-.035-.113-.105V93c0-.07.038-.104.113-.104h1.324zm-2.177 1.672c0-.168-.032-.325-.096-.47a1.09 1.09 0 00-.27-.375 1.163 1.163 0 00-.418-.252 1.35 1.35 0 00-.514-.096c-.186 0-.36.032-.522.096a1.183 1.183 0 00-.41.252c-.116.105-.209.23-.278.375a1.152 1.152 0 00-.096.47c0 .168.032.325.096.47.069.14.162.264.278.375a1.4 1.4 0 00.41.252c.162.058.336.087.522.087s.357-.029.514-.087c.163-.064.302-.148.418-.252a1.09 1.09 0 00.27-.375c.064-.145.096-.302.096-.47zm1.088-2.43c0 .076-.043.113-.13.113h-4.651a.14.14 0 01-.087-.034.12.12 0 01-.035-.087v-.28a.12.12 0 01.035-.086.14.14 0 01.087-.035h4.651c.087 0 .13.038.13.113v.296zm-1.114-1.48c0 .081-.044.122-.131.122h-2.386a.168.168 0 01-.087-.026.12.12 0 01-.035-.087v-.296a.12.12 0 01.035-.088.107.107 0 01.078-.034h2.395c.087 0 .131.04.131.122v.287zm13.434 3.7c0 .082-.041.123-.122.123h-.357c-.081 0-.122-.04-.122-.122v-1.054h-1.907c-.192.227-.43.404-.714.531a2.294 2.294 0 01-.949.192c-.285 0-.552-.046-.802-.14a2.008 2.008 0 01-.653-.391 2.035 2.035 0 01-.444-.61 1.959 1.959 0 01-.157-.792c0-.302.053-.572.157-.81.111-.244.259-.447.444-.61.186-.168.404-.296.653-.383.25-.093.517-.14.802-.14.371 0 .72.082 1.045.245.331.162.589.397.775.705h1.75v-1.123c0-.082.041-.122.122-.122h.357c.081 0 .122.04.122.122v4.38zm.522 3.345c0 .075-.043.113-.13.113h-5.547a.14.14 0 01-.087-.035.115.115 0 01-.035-.087v-.27c0-.035.011-.064.035-.087a.139.139 0 01.087-.035h1.219v-1.846h-.958a.139.139 0 01-.087-.035.119.119 0 01-.035-.087v-.27a.12.12 0 01.035-.087.14.14 0 01.087-.035h5.025c.087 0 .13.038.13.114v.287c0 .075-.043.113-.13.113h-.924v1.846h1.185c.087 0 .13.038.13.113v.288zm-3.213-5.617a1.41 1.41 0 00-.122-.6 1.323 1.323 0 00-.801-.697 1.749 1.749 0 00-.557-.088c-.204 0-.392.03-.566.088a1.34 1.34 0 00-.462.26 1.254 1.254 0 00-.305.436 1.507 1.507 0 00-.113.601c0 .215.035.41.105.584a1.296 1.296 0 00.757.714 1.737 1.737 0 001.141 0c.18-.064.337-.157.47-.28.14-.121.25-.266.331-.434.081-.175.122-.37.122-.584zm-.653 5.216h1.959v-1.846h-1.959v1.846zm1.263-5.207c0 .255-.044.487-.131.696h1.611v-1.175h-1.541c.017.075.032.154.043.235.012.081.018.162.018.244zm10.271 3.379c0 .08-.041.121-.122.121h-.357c-.082 0-.122-.04-.122-.121v-2.047h-1.725v.21c0 .243-.046.408-.139.495-.093.082-.267.122-.522.122h-2.395c-.14 0-.253-.008-.34-.026a.43.43 0 01-.2-.096.418.418 0 01-.096-.191 1.52 1.52 0 01-.026-.305v-2.69c0-.245.046-.407.139-.488.093-.087.267-.131.523-.131h2.395c.139 0 .249.009.33.026a.39.39 0 01.201.096.34.34 0 01.104.192c.018.08.026.182.026.304v.314h1.725v-1.28c0-.082.04-.122.122-.122h.357c.081 0 .122.04.122.122v5.495zm-5.234-4.624c-.081 0-.137.017-.166.052-.029.029-.043.087-.043.174v2.43c0 .087.014.147.043.182.029.03.085.044.166.044h2.099c.081 0 .136-.015.165-.044.029-.035.044-.095.044-.183v-2.43c0-.086-.015-.144-.044-.173-.029-.035-.084-.052-.165-.052h-2.099zm5.503 6.775a.085.085 0 01-.043.078.168.168 0 01-.087.026h-4.363c-.273 0-.453-.052-.54-.157-.081-.098-.122-.267-.122-.505V95.3c0-.08.041-.122.122-.122h.357c.081 0 .122.041.122.122v1.725c0 .08.012.13.035.148.029.023.084.035.165.035h4.224c.029 0 .058.008.087.026.029.023.043.049.043.078v.313zm-2.595-4.712h1.725v-1.14h-1.725v1.14zm-50.511 48.991a.14.14 0 01.087.035.085.085 0 01.044.078v.296c0 .029-.015.056-.044.079a.14.14 0 01-.087.035h-7.402a.151.151 0 01-.096-.035.11.11 0 01-.034-.079v-.296c0-.035.011-.061.034-.078a.151.151 0 01.096-.035h3.379v-1.811a4.76 4.76 0 01-.871-.157c-.29-.081-.557-.2-.801-.357a1.987 1.987 0 01-.583-.583 1.502 1.502 0 01-.227-.836c0-.355.087-.654.261-.897.18-.25.407-.45.68-.601a3.34 3.34 0 01.905-.331c.331-.07.645-.105.941-.105.302 0 .618.035.949.105.331.069.63.18.897.331.273.151.496.351.671.601.179.243.269.542.269.897 0 .325-.075.606-.226.844a2.003 2.003 0 01-.583.584c-.238.151-.505.27-.802.357-.296.081-.589.13-.879.148v1.811h3.422zm-3.718-5.129c-.203 0-.43.02-.679.061a2.618 2.618 0 00-.697.218 1.64 1.64 0 00-.549.426c-.145.18-.217.41-.217.688 0 .279.072.508.217.688.151.18.334.322.549.427.22.099.453.168.697.209.249.041.476.061.679.061.197 0 .418-.02.662-.061.249-.041.481-.11.696-.209a1.63 1.63 0 00.558-.427c.151-.18.226-.409.226-.688 0-.278-.075-.508-.226-.688a1.616 1.616 0 00-.558-.426 2.502 2.502 0 00-.696-.218 4.028 4.028 0 00-.662-.061zm11.908 3.448a.14.14 0 01.087.035.087.087 0 01.043.079v.296c0 .029-.014.055-.043.078a.14.14 0 01-.087.035h-7.402a.151.151 0 01-.096-.035.108.108 0 01-.035-.078v-.296c0-.035.012-.061.035-.079a.151.151 0 01.096-.035h7.402zm-.88 3.318a.087.087 0 01-.043.079.172.172 0 01-.087.026h-4.659c-.273 0-.453-.058-.54-.174-.081-.111-.122-.285-.122-.523v-1.385c0-.081.041-.121.122-.121h.357c.081 0 .122.04.122.121v1.376c0 .082.011.131.035.148.029.024.084.035.165.035h4.52c.029 0 .058.009.087.026.029.024.043.05.043.079v.313zm-.052-4.232c0 .029-.014.055-.043.078a.117.117 0 01-.07.027h-4.589c-.273 0-.453-.05-.54-.149-.082-.104-.122-.278-.122-.522v-.688c0-.25.049-.415.148-.496.104-.082.287-.122.548-.122h3.701c.082 0 .131-.012.148-.035.024-.023.035-.078.035-.166v-.574c0-.087-.011-.143-.035-.166-.017-.023-.066-.035-.148-.035h-4.275a.162.162 0 01-.087-.026.08.08 0 01-.035-.069v-.314c0-.029.011-.052.035-.07a.172.172 0 01.087-.026h4.371c.14 0 .253.012.34.035.087.018.157.05.209.096a.347.347 0 01.104.2c.024.082.035.183.035.305v.714c0 .25-.052.415-.157.496-.098.082-.278.122-.539.122h-3.71c-.082 0-.134.012-.157.035-.017.023-.026.079-.026.166v.592c0 .081.011.136.035.165.023.024.075.035.156.035h4.459c.029 0 .055.009.079.026.029.018.043.041.043.07v.296zm4.968-2.499a7.21 7.21 0 01-.34.409c.162.163.342.308.54.435.197.128.398.241.601.34.325-.197.595-.401.81-.61.214-.209.4-.444.557-.705.029-.046.038-.087.026-.122-.012-.04-.049-.061-.113-.061h-1.498c-.07 0-.105-.04-.105-.122v-.278c0-.07.041-.105.122-.105h1.699c.325 0 .522.064.592.192.075.127.049.302-.079.522a5.47 5.47 0 01-.235.366 2.753 2.753 0 01-.252.331c.098.075.212.151.339.226.134.07.264.14.392.209.134.064.261.122.383.174.128.047.238.085.331.114.041.011.064.035.07.069.012.035.006.073-.018.114l-.148.252c-.034.064-.101.073-.2.026a9.645 9.645 0 01-.357-.148 8.469 8.469 0 01-.392-.209l-.4-.226a4.584 4.584 0 01-.349-.244 4.914 4.914 0 01-.705.531c-.261.163-.575.334-.941.514-.075.041-.139.026-.191-.044l-.139-.191c-.029-.035-.038-.07-.027-.105a.17.17 0 01.079-.078c.04-.017.078-.035.113-.052l.104-.053a5.403 5.403 0 01-.966-.731c-.528.435-1.17.795-1.925 1.08a.84.84 0 01-.113.035c-.023 0-.046-.021-.07-.061l-.13-.253c-.023-.041-.029-.072-.018-.096a.147.147 0 01.07-.061c.226-.075.453-.171.679-.287.233-.122.45-.25.653-.383.204-.14.387-.282.549-.427a2.03 2.03 0 00.375-.427c.029-.04.037-.078.026-.113-.006-.04-.041-.061-.105-.061h-1.567c-.076 0-.114-.04-.114-.122v-.278c0-.035.012-.061.035-.079a.187.187 0 01.096-.026h1.785c.703 0 .86.273.471.819zm4.284 3.422c0 .029-.014.055-.044.078a.135.135 0 01-.087.035h-7.402a.143.143 0 01-.095-.035.104.104 0 01-.035-.078v-.305c0-.035.011-.061.035-.078a.183.183 0 01.095-.026h3.475v-.732c0-.081.041-.122.122-.122h.357c.081 0 .122.041.122.122v.732h3.326c.029 0 .058.011.087.035.03.017.044.043.044.078v.296zm-1.219 3.536c0 .081-.041.122-.122.122h-.357c-.081 0-.122-.041-.122-.122v-1.82c0-.082-.015-.131-.044-.148-.023-.024-.075-.035-.156-.035h-4.485a.172.172 0 01-.087-.026c-.029-.024-.044-.05-.044-.079v-.313c0-.035.015-.061.044-.079a.172.172 0 01.087-.026h4.624c.273 0 .45.053.531.157.087.099.131.267.131.505v1.864zm56.932-6.053a1.395 1.395 0 01-.444 1.028 1.838 1.838 0 01-.531.348 2.198 2.198 0 01-.706.174v.95c.448-.012.877-.029 1.289-.053.413-.029.784-.063 1.115-.104.052-.006.084 0 .096.017.017.012.029.032.035.061l.034.296a.11.11 0 01-.017.087c-.012.018-.044.03-.096.035-.511.058-1.071.108-1.68.148-.61.035-1.214.053-1.812.053h-1.811a.151.151 0 01-.096-.035.11.11 0 01-.035-.079v-.304c0-.035.012-.061.035-.079a.187.187 0 01.096-.026h2.247v-.967a2.089 2.089 0 01-.688-.174 1.982 1.982 0 01-.523-.339 1.457 1.457 0 01-.331-.471 1.455 1.455 0 01-.113-.566c0-.238.044-.452.131-.644a1.36 1.36 0 01.392-.496c.174-.14.38-.247.618-.323.244-.075.514-.113.81-.113.284 0 .545.038.783.113.244.076.453.183.627.323.18.133.32.299.418.496.105.192.157.406.157.644zm-.592-.008a.816.816 0 00-.113-.436.931.931 0 00-.305-.313 1.352 1.352 0 00-.444-.192 2.292 2.292 0 00-.531-.061c-.192 0-.372.021-.54.061a1.253 1.253 0 00-.427.192.87.87 0 00-.392.749c0 .156.032.299.096.426.07.128.165.236.287.323.122.087.265.153.427.2.168.046.351.07.549.07.185 0 .363-.024.531-.07.168-.052.316-.122.444-.209.128-.093.229-.2.305-.322a.812.812 0 00.113-.418zm2.804 5.834a.087.087 0 01-.043.079.172.172 0 01-.088.026h-4.571c-.273 0-.453-.052-.54-.157-.082-.104-.122-.276-.122-.514v-1.428c0-.081.04-.122.122-.122h.357c.081 0 .122.041.122.122v1.393c0 .082.011.131.034.148.03.024.085.035.166.035h4.432c.03 0 .059.009.088.026.029.024.043.05.043.079v.313zm-.27-1.811c0 .081-.04.122-.122.122h-.357c-.081 0-.122-.041-.122-.122v-5.835c0-.081.041-.122.122-.122h.357c.082 0 .122.041.122.122v5.835zm4.82-4.92a7.21 7.21 0 01-.34.409c.163.163.342.308.54.435.197.128.398.241.601.34.325-.197.595-.401.81-.61.214-.209.4-.444.557-.705.029-.046.038-.087.026-.122-.012-.04-.049-.061-.113-.061h-1.498c-.07 0-.104-.04-.104-.122v-.278c0-.07.04-.105.121-.105h1.699c.325 0 .522.064.592.192.075.127.049.302-.079.522-.075.128-.153.25-.235.366a2.753 2.753 0 01-.252.331c.098.075.212.151.339.226.134.07.264.14.392.209.134.064.261.122.383.174.128.047.238.085.331.114.041.011.064.035.07.069.012.035.006.073-.017.114l-.148.252c-.035.064-.102.073-.201.026a9.645 9.645 0 01-.357-.148 8.469 8.469 0 01-.392-.209l-.4-.226a4.584 4.584 0 01-.349-.244 4.914 4.914 0 01-.705.531c-.261.163-.575.334-.94.514-.076.041-.14.026-.192-.044l-.139-.191c-.029-.035-.038-.07-.027-.105a.17.17 0 01.079-.078c.04-.017.078-.035.113-.052l.105-.053a5.403 5.403 0 01-.967-.731c-.528.435-1.17.795-1.925 1.08a.84.84 0 01-.113.035c-.023 0-.046-.021-.069-.061l-.131-.253c-.023-.041-.029-.072-.018-.096a.147.147 0 01.07-.061c.227-.075.453-.171.679-.287.233-.122.45-.25.654-.383a5.52 5.52 0 00.548-.427 2 2 0 00.375-.427c.029-.04.037-.078.026-.113-.006-.04-.041-.061-.105-.061h-1.567c-.076 0-.113-.04-.113-.122v-.278c0-.035.011-.061.034-.079a.187.187 0 01.096-.026h1.785c.703 0 .86.273.471.819zm4.284 3.422c0 .029-.014.055-.043.078a.138.138 0 01-.088.035h-7.402a.145.145 0 01-.095-.035.104.104 0 01-.035-.078v-.305c0-.035.011-.061.035-.078a.186.186 0 01.095-.026h3.475v-.732c0-.081.041-.122.122-.122h.357c.081 0 .122.041.122.122v.732h3.326c.029 0 .059.011.088.035a.084.084 0 01.043.078v.296zm-1.219 3.536c0 .081-.041.122-.122.122h-.357c-.081 0-.122-.041-.122-.122v-1.82c0-.082-.014-.131-.043-.148-.024-.024-.076-.035-.157-.035h-4.485a.172.172 0 01-.087-.026c-.029-.024-.044-.05-.044-.079v-.313c0-.035.015-.061.044-.079a.172.172 0 01.087-.026h4.624c.273 0 .45.053.531.157.087.099.131.267.131.505v1.864z" fill="#3E4356"/><path d="M60.38 67.704s-.919.085-.66 3.07c0 0 .068 1.36 2.836 1.435 0 0 2.548 1.768 3.523.353a4.062 4.062 0 001.882-3.33s-2.715.862-4.15-1.539c0 0-3.017.63-3.442-1.856 0 0-1.202-.078-1.294 2.182a1.96 1.96 0 00.542 1.524" stroke="#ADB2C2" stroke-width=".792" stroke-linecap="round" stroke-linejoin="round"/><path d="M63.513 68.694s-.582-.251-.4.785c0 0 .12 1.337-.71.852m5.568-.851s1.698-1.087 1.772-6.012a3.381 3.381 0 01-3.339-1.514s-2.427 1.153-4.004-2.602a6.749 6.749 0 00-2.006 6.478" stroke="#ADB2C2" stroke-width=".792" stroke-linecap="round" stroke-linejoin="round"/><path d="M60.33 65.564s.539-1.35 1.386-1.768c0 0 .244-1.273 0-1.697m4.008 1.266s-.585.544-.748 1.938a2.35 2.35 0 000 1.273m0-1.273s-.588.297-1.134.544m5.888-2.361s2.427-1.454 2.066-6.783c0 0-1.457.605-3.218-.908 0 0-2.612.544-2.067-3.696 0 0-4.43 3.636-4.125 7.27" stroke="#ADB2C2" stroke-width=".792" stroke-linecap="round" stroke-linejoin="round"/><path d="M67.1 57.368s.567 1.517.262 2.475l.61 1.09m1.757-2.897s-2.793 2.362-3.704 2.302m-.719-3.878s-3.02 2.768-2.768 3.252M66.51 52.1s1.216-5.814 3.219-5.21c0 0-.546 2.727 1.64 2.967 0 0 2.127 1.878 2.794 1.578 0 0-1.096 4.844-2.368 5.268m-.907-5.573s-.244 2.362-1.822 2.362m2.364-1.718s-1.456.93-1.091 1.719m3.824-2.059s1.772-1.45 1.74-2.061a.374.374 0 01.132-.354c.482-.353 1.53-1.195 1.343-1.711 0 0-2.428.728-2.669 0 0 0-.73-4.724.727-5.873 0 0-5.402 3.39-5.707 5.449" stroke="#ADB2C2" stroke-width=".792" stroke-linecap="round" stroke-linejoin="round"/><path d="M75.436 41.442s3.037-4.424 4.433-1.394c0 0-1.772 4.244-.85 6.118a1.656 1.656 0 01-1.641 1.149m2.492-7.267s2.427-4.848 4.188 0l-.304 4.664s-.73 2.179-4.735 1.454m5.039-6.118s1.478-4.328 4.296-3.228c.506.206.92.59 1.162 1.078.447.85.73 1.744.915 3.536 0 0 .305 3.512-.666 3.512 0 0-3.027.619-4.608.353 0 0-1.031-.244-1.396-.604" stroke="#ADB2C2" stroke-width=".792" stroke-linecap="round" stroke-linejoin="round"/><path d="M90.324 40.561s1.064-3.656 3.162-3.96a1.604 1.604 0 011.19.353c.738.566 2.205 1.949 2.432 4.074 0 0 .588 4.066-1.336 4.367 0 0-4.005.24-4.856-.789 0 0-.45-.403-.454-1.435" stroke="#ADB2C2" stroke-width=".792" stroke-linecap="round" stroke-linejoin="round"/><path d="M97.054 40.639s.964-3.44 2.836-2.228c0 0 2.126 1.203 2.427 6.991 0 0 .277 1.598-2.792.912 0 0-2.627-.52-2.499-2.429" stroke="#ADB2C2" stroke-width=".792" stroke-linecap="round" stroke-linejoin="round"/><path d="M101.368 40.5s.886-2.202 2.662-.452c0 0 3.278 3.006 2.548 6.56 0 0-.064 1.835-2.247 1.312 0 0-2.126-.354-2.304-1.606" stroke="#ADB2C2" stroke-width=".792" stroke-linecap="round" stroke-linejoin="round"/><path d="M105.692 42.191s3.501-.512 5.522 4.18c.073.166.114.345.12.527.043.902 0 3.585-1.963 3.384a3.66 3.66 0 01-2.687 1.492s-.709.05-.992-1.793c0 0-2.152-1.149-1.939-2.21" stroke="#ADB2C2" stroke-width=".792" stroke-linecap="round" stroke-linejoin="round"/><path d="M106.943 51.774s.22 2.878 1.638 3.96c0 0 1.641 1.864 3.229.849.111-.076.23-.14.354-.191.563-.223 2.265-.987 2.371-2.062 0 0 .23-3.345-1.092-5.622 0 0-1.095-1.899-2.126-2.1" stroke="#ADB2C2" stroke-width=".792" stroke-linecap="round" stroke-linejoin="round"/><path d="M114.552 52.1a4.54 4.54 0 011.928 2.192c.172.391.384.764.635 1.11.358.467.673.965.942 1.489.124.264.195.55.21.841.06.831.081 2.879-.933 3.964-.251.26-.589.42-.949.45a6.188 6.188 0 01-1.677 0 .254.254 0 00-.259.088c-.283.353-1.116 1.234-2.218 1.27a1.877 1.877 0 01-1.772-1.235c-.535-1.414-1.553-4.434-.986-5.806" stroke="#ADB2C2" stroke-width=".792" stroke-linecap="round" stroke-linejoin="round"/><path d="M111.426 63.365s-.064 5.838 3.009 6.104c.101.01.203.01.305 0a2.783 2.783 0 002.339-1.744s3.058.45 3.704-1.877c0 0 1.35-4.17-2.481-6.69" stroke="#ADB2C2" stroke-width=".792" stroke-linecap="round" stroke-linejoin="round"/><path d="M113.55 69.203s.666 4.243 3.898 3.37c.306-.09.587-.25.823-.463.433-.396.96-.674 1.531-.81a2.893 2.893 0 001.79-1.124 2.65 2.65 0 00.513-1.687c-.031-1.195-.226-3.455-1.212-3.183m-51.83-15.265s-2.248 1.878-2.552 3.756m5.319-7.935s-2.161 1.768-1.856 3.118m4.189-1.661s-.73 1.39-1.942 1.269m.971.007c-.035.34-.035.682 0 1.022m5.036-3.755s-2.126 1.167-2.431 1.768m27.442-1.768s2.127 2.68 2.892 1.768m.812-.004s1.337 1.096 2.003.97m.358-2.734s2.194 1.92 1.91 2.744m-2.988-.163v1.174m2.045 1.878s.191 2.241 1.952 2.302m-2.668-1.485s1.68.682 1.683 1.65m.986-3.921s1.804 1.121 2.268 3.013m-.694 4.074s-.783 1.768.429 2.584c.358.186.704.395 1.035.626m-3.463-2.538s1.371.572 1.722 1.63a1.228 1.228 0 01-.319 1.234c-.087.088-.17.182-.248.279m2.793-4.968s2.637 2.026 2.442 3.737m-2.442 3.653s0 2.599 2.088 2.475m-1.451-.558s.305 1.294-.166 1.294" stroke="#ADB2C2" stroke-width=".792" stroke-linecap="round" stroke-linejoin="round"/><path d="M119.266 62.092s-.255 1.213 1.092 2.514c0 0 .563.68.496.959m-3.02 2.889l.702 1.453m2.733-3.331s.9 2.037.783 2.603M66.401 88.064s1.386.683 1.386-1.195c0 0-.07-11.025 8.01-18.412 0 0 6.62-6.421 11.341-1.878m27.446 22.083s-.56-15.912-9.899-21.482c0 0-7.212-5.028-9.945-.908" stroke="#ADB2C2" stroke-width=".792" stroke-linecap="round" stroke-linejoin="round"/><path d="M71.977 78.588s6.07-11.103 12.688-10.134c0 0 3.235.215 3.278 3.635 0 0-.06 6.902 2.609 6.902 0 0 2.46.392 2.994-3.105.09-.617.1-1.243.029-1.863-.114-1.125-.202-3.685 1.166-4.844 0 0 3.306-2.967 8.998 1.637 0 0 5.466 5.219 5.71 7.69m-38.788-3.139s2.244 4.801 2.605 8.8" stroke="#ADB2C2" stroke-width=".792" stroke-linecap="round" stroke-linejoin="round"/><path d="M111.427 75.367s-2.421-2.009-1.872 5.017a6.338 6.338 0 00-.889 5.251" stroke="#ADB2C2" stroke-width=".792" stroke-linecap="round" stroke-linejoin="round"/><path d="M67.698 87.654s4.384-5.392 15.19-3.89c0 0 6.44.853 7.826 2.639a.354.354 0 00.44.11c.981-.482 4.426-2.034 8.247-2.122.22 0 10.193-.39 14.825 4.639m-55.909-.891s1.418-3.356 5.054-.272a.313.313 0 00.305.067c.737-.227 3.71-.909 4.295 2.747 0 0-.304 2.058-.974 1.938 0 0-1.152-.534-2.063 0 0 0-4.065-.492-4.675 1.146-.003.007-3.52-1.51-1.942-5.626z" stroke="#ADB2C2" stroke-width=".792" stroke-linecap="round" stroke-linejoin="round"/><path d="M60.256 93.772s-2.308 3.89 2.066 6.902c0 0 1.393-1.888 3.395-1.673a.799.799 0 00.479-.088c.652-.354 2.587-1.262 3.487.188 0 0 .287-2.992-.45-3.93a8.977 8.977 0 01-.709-1.06 3.406 3.406 0 00-1.534-1.51" stroke="#ADB2C2" stroke-width=".792" stroke-linecap="round" stroke-linejoin="round"/><path d="M62.325 100.674s-.251 4.908 2.24 5.209c0 0 1.16-2.981 3.406-2.603 0 0 2.481-.668 3.275 0a5.708 5.708 0 00-1.56-4.18m-.216 13.381s-3.065.127-3.61-2.235c0 0-2.836-2.302-1.28-4.363m7.942.668s.917.088 2.027 1.375a6.322 6.322 0 011.322 2.518c.081.301.12.552.05.626" stroke="#ADB2C2" stroke-width=".792" stroke-linecap="round" stroke-linejoin="round"/><path d="M74.383 117.17a7.635 7.635 0 001.602 1.372c1.985 1.117 3.509 1.248 4.132-.707.326-1.019-.06-1.864-.081-2.928 0-.432.294-1.128.255-1.478-.1-.895-2.261-2.766-3.324-2.783-1.63-.029-2.077 2.337-2.208 3.843a21.13 21.13 0 01-.217 1.705l-.16.958c-1.456 0-3.033-1.308-3.033-1.308-2.226-2.044-2.226-5.435-1.255-7.857 1.457 0 2.428-.485 2.428-1.454s0-2.906-1.276-3.271" stroke="#ADB2C2" stroke-width=".792" stroke-linecap="round" stroke-linejoin="round"/><path d="M80.224 117.368s1.73 3.674 3.14 4.342a.96.96 0 00.762 0c.528-.198 1.417-.834 1.548-2.857 0 0 0-4.844-.928-5.166 0 0-2.126-1.86-4.455-.251" stroke="#ADB2C2" stroke-width=".792" stroke-linecap="round" stroke-linejoin="round"/><path d="M85.5 115.865s-.283-1.874 1.106-2.047c0 0 4.331-.729 4.207.866 0 0 .213 3.412-.354 5.148 0 0-.77 2.518-2.311 1.981a5.43 5.43 0 01-2.481-2.95" stroke="#ADB2C2" stroke-width=".792" stroke-linecap="round" stroke-linejoin="round"/><path d="M90.813 114.684s0-1.04 1.528-1.061c.312 0 .62 0 .925-.032.854-.074 2.576-.078 2.608 1.089 0 0-.081 4.424-.687 5.23 0 0-1.223 2.253-2.481 2.002a.92.92 0 01-.457-.262 5.086 5.086 0 01-1.514-3.151" stroke="#ADB2C2" stroke-width=".792" stroke-linecap="round" stroke-linejoin="round"/><path d="M95.875 114.684s0-.912 1.995-1.089a9.186 9.186 0 001.155-.17c.77-.166 2.052-.332 2.127.432a9.069 9.069 0 01-1.01 5.498s-1.12 2.518-2.754 2.178a1.537 1.537 0 01-.797-.481c-.419-.449-1.16-1.372-1.042-2.192" stroke="#ADB2C2" stroke-width=".792" stroke-linecap="round" stroke-linejoin="round"/><path d="M100.875 113.439a2.946 2.946 0 011.878-1.602s1.943-2.061 2.956-.767c0 0 1.577 3.271.606 5.817 0 0-.666 2.62-2.417 2.829a1.78 1.78 0 01-.95-.17c-.62-.283-1.814-.934-2.073-1.839" stroke="#ADB2C2" stroke-width=".792" stroke-linecap="round" stroke-linejoin="round"/><path d="M105.323 110.748a3.363 3.363 0 011.159-2.5c.088-.075.169-.159.241-.251.277-.353 1.191-1.361 2.481-.792.27.13.516.304.73.513a1.36 1.36 0 001.063.325s1.064-.325.809 3.027c0 0 .039 2.048-.741 3.458a2.137 2.137 0 01-.624.69c-.893.658-3.232 2.203-3.923.902" stroke="#ADB2C2" stroke-width=".792" stroke-linecap="round" stroke-linejoin="round"/><path d="M108.591 107.042a3.882 3.882 0 011.521-3.182c.238-.199.515-.345.815-.428a3.64 3.64 0 012.197.081.884.884 0 00.429.053c.574-.077 2.268-.095 3.275 2.157.12.269.159.566.113.856-.195 1.277-.967 4.933-3.338 4.901a2.304 2.304 0 01-1.773 0" stroke="#ADB2C2" stroke-width=".792" stroke-linecap="round" stroke-linejoin="round"/><path d="M110.264 103.74s-.744-1.666 1.085-3.84l.078-.093c.156-.18.297-.353.428-.484 1.248-1.372 1.418-1.156 2.588-.856.369.093.746.152 1.127.177.673.05 2.162.318 2.927 1.726 0 0 1.102 1.665.206 3.09a7.31 7.31 0 00-.404.743c-.28.59-.826 1.542-1.446 1.573" stroke="#ADB2C2" stroke-width=".792" stroke-linecap="round" stroke-linejoin="round"/><path d="M111.855 99.323s-.397-2.584.936-4.483c0 0-.039-2.097 2.598-2.288.145 0 .29-.029.432-.053.883-.166 4.505-.665 5.366 2.121.186.656.186 1.35 0 2.005-.372 1.415-1.294 4.488-2.29 4.633" stroke="#ADB2C2" stroke-width=".792" stroke-linecap="round" stroke-linejoin="round"/><path d="M114.173 92.835s-1.506-2.278.291-4.06a3.632 3.632 0 011.772-.93 4.77 4.77 0 011.63-.095.3.3 0 00.241-.067c.464-.407 2.481-1.945 4.544-.213.401.327.706.756.882 1.242.33.919.585 2.637-.829 4.674 0 0-1.032 1.393-1.609 1" stroke="#ADB2C2" stroke-width=".792" stroke-linecap="round" stroke-linejoin="round"/><path d="M115.747 88.906s.769.078 1.255 1.372c0 0 .354-1.902 1.517-1.821m2.852-.803s.202 3.109-2.63 2.624m-3.643 3.957s1.091.605 1.091 1.453c0 0 1.064-1.768 1.538-1.453m-1.538 1.453s-.202 1.415-1.091 1.496m0-1.252s.623-1 1.042-.562m3.612-.53s-.422 2.666-2.619 2.747m-3.552 1.857s.709-.043.709.802m.971-.318s-2.268.707-2.024 1.344m3.895-.672s-.9 2.8-2.034 2.153m-1.878 2.302s-2.006.562-1.602 2.422m.237-2.867s.209 2.121-1.063 1.98m4.306-1.535s-.602 2.475-1.878 2.787m-5.044.848s.404 1.415-.971 1.768m.816-.537s.843-.909 1.29-.506m1.499.163s-.78 1.976-2.577 1.817m-5.844 1.62s1.268-2.373 2.101-2.32m-27.523-.032a8.17 8.17 0 012.03 2.352m-5.706-4.325a2.438 2.438 0 00.95 1.8m-.734-.912s-.88-.524-1.014 0m-2.076-.117s.131 2.157 2.584 2.196m-5.029-7.047s2.225 1.693 1.772 2.867m-.501-2.867s-.928 1.251 1.174 1.435m-4.207-.99s.323 2.341 1.772 2.787m-.011-8.72s-1.68.668.181 2.149m-.85-1.074s-.89-.754-1.092-.27m-2.112.673s.857 1.832 1.91 2.033M59.9 87.654s-.159 3.349 3.027 2.705m2.798-1.311s-.9.403-.674 1.12c.227.718-2.442-1.71-2.442-1.71m3.601 8.726c-.185-1.06-2.368-2.988-2.368-2.988m-1.761 1.061s.103 2.026 2.084 2.33m2.045-3.391s-.17 1.528-.904 1.397m25.578-5.032s-1.418 9.194 0 15.704" stroke="#ADB2C2" stroke-width=".792" stroke-linecap="round" stroke-linejoin="round"/><path d="M71.118 85.215s-5.67 2.121 2.92 17.418c0 0 6.252 10.813 16.846 10.382 0 0 10.388.601 17.193-9.738.395-.6.728-1.237.996-1.903 1.339-3.317 5.195-14.07-.408-15.739M90.466 33.627a7.738 7.738 0 000-4.48m-3.314 3.875s0-2.92-1.705-3.03c0 0-10.3.092-16.406 8.04 0 0-2.662 2.678.326 4.16m-2.611 2.581s-.245-2.67-1.928-1.62c0 0-8.333 5.251-9.669 18.939m38.154-29.798s.708-2.907 4.465-.909c0 0 11.834 4.3 13.567 8.663 0 0-.032 1.206-1.417 2.055m3.43 2.305s.546-2.422 3.229 0c0 0 8.386 6.864 10.328 19.42m-1.822 5.725s.16 8.717-6.337 6.224a5.584 5.584 0 01-1.478-.863c-1.13-.909-3.594-2.656-3.92-2.765m-52.28 3.217s4.161 3.802 6.894-2.676a24.84 24.84 0 012.002-3.512m20.864 57.479s-.163 3.89.046 4.364m-.394-6.302s-1.208 4.597-10.196 1.938c0 0-17.642-6.418-13.375-11.991m-1.393-1.383s-3.165 2.324-7.616-6.686c0 0-4.207-10.548-4.328-12.143" stroke="#ADB2C2" stroke-width=".792" stroke-linecap="round" stroke-linejoin="round"/><path d="M56.537 89.033c.84-3.998 4.69-4.393 6.833-3.827 1.608 0 6.03 2.126 6.03 5.527 0 3.402-2.814 5.953-6.834 5.102-4.02-.85-6.833-2.976-6.03-6.802z" stroke="#2E78C5" stroke-width=".7"/><path d="M92.313 124.839s.046 4 7.368 1.093c0 0 17.012-5.845 13.868-10.739m2.07-1.909s5.71 7.924 14.209-15.697c0 0 1.58-4.664 0-7.426M90.838 46.34s.524 6.46.046 9.62m.163 2.773v1.605m.004 1.27s-.17 2.019 0 2.22M80.315 50.953s.954-.084 1.854-.113c1.087-.034 2.17-.16 3.236-.375h.046a20.644 20.644 0 012.665-.403m-7.305 4.12s.823-.032 1.602 0c.872.023 1.743-.03 2.606-.16l.297-.049a15.837 15.837 0 012.343-.265m5.993-.52s.808.17 1.56.375c.824.23 1.667.386 2.52.467l.354.028c.785.046 1.566.15 2.336.311m-6.94-4.494s.936.212 1.8.456c1.044.299 2.112.508 3.19.626h.06c.898.083 1.788.223 2.666.42" stroke="#ADB2C2" stroke-width=".792" stroke-linecap="round" stroke-linejoin="round"/><path d="M90.466 20.303s-19.847-.729-30.125 13.324c0 0-7.72 12.022-12.575 14.19 0 0-18.7 7.652-31.933-1.21l.415 4.184 2.984 30.322-2.913 32.531s20.155-5.909 33.63 7.426c0 0 16.658 19.512 41.113 18.543 0 0 21.063.233 35.271-15.792a13.076 13.076 0 011.949-1.821c3.754-2.787 15.425-9.275 36.523-2.652l-5.989-35.835 8.084-39.79s-31.682 8.942-43.441-4.736c0 0-14.56-20.622-32.993-18.684zM28.652 64.928s2.106 4.731 4.21 0m110.327-2.012s2.106 4.731 4.207 0" stroke="#ADB2C2" stroke-width=".792" stroke-linecap="round" stroke-linejoin="round"/><path d="M53.582 42.803c3.122-6.977 7.06-13.79 12.656-19.095a35.089 35.089 0 019.449-6.47 12.912 12.912 0 016.897-1.157c2.063.212 4.427 1.51 6.468.94 0 0 8.28-2.05 11.341-.763 0 0 10.396 3.235 15.216 10.827 0 0 6.51 9.975 9.463 13.55m-76.58 79.106s13.358 16.195 20.393 19.915c0 0 10.112 5.732 21 5.657 0 0 13.446 0 22.505-6.541 0 0 8.818-4.725 15.375-13.084 0 0 3.211-4.766 5.794-6.623" stroke="#ADB2C2" stroke-width=".792" stroke-linecap="round" stroke-linejoin="round"/><path d="M74.964 86.385a.643.643 0 01-.787.6.645.645 0 01-.45-.88.644.644 0 01.592-.392.66.66 0 01.645.672zm5.163-.969a.643.643 0 01-.787.6.646.646 0 01-.45-.88.643.643 0 01.592-.392.66.66 0 01.645.672v0zm5.703.969a.643.643 0 01-.788.599.646.646 0 01-.448-.882.644.644 0 01.846-.334.657.657 0 01.39.617v0zm10.526.781a.643.643 0 01-.785.603.645.645 0 01-.453-.88.644.644 0 01.593-.391.66.66 0 01.645.668zm5.533-.668a.644.644 0 01-1.109.422.642.642 0 11.925-.889.655.655 0 01.184.467zm5.454.668a.641.641 0 01-.785.603.644.644 0 01.14-1.271.66.66 0 01.645.668v0z" stroke="#ADB2C2" stroke-width=".792"/><path d="M234.92 67.834a.35.35 0 01-.465.232.352.352 0 01-.227-.291.351.351 0 01.338-.394.41.41 0 01.354.453zm8.11.131a.357.357 0 01-.464.236.352.352 0 01.109-.685.415.415 0 01.355.449z" fill="#ADB2C2" stroke="#ADB2C2" stroke-width=".792" stroke-linecap="round" stroke-linejoin="round"/><path d="M212.167 59.765s4.824 2.828 10.278-11.517c0 0 5.529-16.683 16.406-16.58 0 0 11.898.2 17.044 18.068 0 0 4.182 11.963 9.006 11.227m-26.425-27.464l-.007 20.23m.13 3.914s.202 9.99-.978 10.75m2.701-.594s-1.989-1.949-1.847-3.346m-50.058 64.331s12.323-8.338 18.125-13.67c0 0 10.246-11.605 20.829-10.608 0 0 11.15.601 4.894 7.387a14.785 14.785 0 01-1.935 1.739c-1.8 1.365-6.822 5.478-8.151 9.728-.071.226-.131.453-.209.675-.355 1.026-.886 3.915-.578 5.747m8.457-22.228s-7.06 1.917-9.683 4.89m-3.038 2.67s-.113.304-.903.866m-4.93 4.155s-6.266 4.647-8.24 8.314m85.072.335s-12.323-8.338-18.125-13.67c0 0-10.246-11.605-20.829-10.608 0 0-11.15.601-4.895 7.387a14.858 14.858 0 001.936 1.739c1.8 1.365 6.822 5.478 8.151 9.728.071.226.131.453.209.675.355 1.026.886 3.915.578 5.747m-8.457-22.228s7.06 1.917 9.683 4.89m3.038 2.67s.113.304.903.866m4.93 4.155s6.266 4.647 8.24 8.314" stroke="#ADB2C2" stroke-width=".792" stroke-linecap="round" stroke-linejoin="round"/></svg>