<svg width="304" height="161" fill="none" xmlns="http://www.w3.org/2000/svg"><path stroke="#2F2F30" stroke-width=".792" d="M.396.396h303.208v160.208H.396z"/><path d="M28.377 23.154a.14.14 0 01.087.035c.03.017.044.044.044.078v.297c0 .029-.015.055-.044.078a.14.14 0 01-.087.035h-7.402a.15.15 0 01-.096-.035.108.108 0 01-.035-.078v-.297c0-.034.012-.06.035-.078a.15.15 0 01.096-.035h3.379v-1.811a4.75 4.75 0 01-.871-.157c-.29-.081-.558-.2-.801-.357a1.995 1.995 0 01-.584-.583 1.5 1.5 0 01-.226-.836c0-.355.087-.654.261-.897.18-.25.407-.45.68-.601.278-.151.58-.261.905-.331.33-.07.644-.105.94-.105.302 0 .619.035.95.105.33.07.63.18.897.33.273.152.496.352.67.602.18.243.27.542.27.897 0 .325-.075.606-.226.844a1.996 1.996 0 01-.584.584 3.14 3.14 0 01-.8.357 4.29 4.29 0 01-.88.148v1.811h3.422zm-3.718-5.129c-.204 0-.43.02-.68.061-.244.04-.476.113-.696.218a1.648 1.648 0 00-.549.426c-.145.18-.218.41-.218.688 0 .279.073.508.218.688.15.18.334.322.549.427.22.099.452.168.696.209.25.04.476.061.68.061.197 0 .418-.02.661-.061.25-.04.482-.11.697-.209.22-.105.406-.247.557-.427.151-.18.227-.409.227-.688 0-.278-.076-.508-.227-.688a1.624 1.624 0 00-.557-.426 2.5 2.5 0 00-.697-.218 4.065 4.065 0 00-.662-.061zm11.907 3.449a.14.14 0 01.088.034.087.087 0 01.043.079v.296c0 .029-.014.055-.043.078a.14.14 0 01-.088.035h-7.402a.15.15 0 01-.095-.035.108.108 0 01-.035-.078v-.296c0-.035.011-.061.035-.079a.15.15 0 01.096-.034h7.401zm-.879 3.317a.086.086 0 01-.043.079.168.168 0 01-.088.026h-4.659c-.272 0-.452-.058-.54-.174-.08-.11-.121-.285-.121-.523v-1.384c0-.082.04-.122.122-.122h.357c.08 0 .122.04.122.122v1.375c0 .082.011.131.034.149.03.023.085.034.166.034h4.52c.028 0 .057.01.087.026.029.024.043.05.043.079v.313zm-.052-4.232c0 .03-.015.055-.044.078a.115.115 0 01-.07.027h-4.589c-.273 0-.453-.05-.54-.148-.08-.105-.122-.279-.122-.523v-.688c0-.25.05-.415.149-.496.104-.082.287-.122.548-.122h3.701c.081 0 .13-.012.148-.035.023-.023.035-.078.035-.165v-.575c0-.087-.012-.142-.035-.166-.017-.023-.067-.034-.148-.034h-4.276a.168.168 0 01-.087-.027.083.083 0 01-.035-.07v-.313c0-.029.012-.052.035-.07a.168.168 0 01.087-.026h4.372c.14 0 .252.012.34.035a.45.45 0 01.209.096.35.35 0 01.104.2c.023.082.035.183.035.305v.714c0 .25-.052.415-.157.497-.099.08-.279.121-.54.121h-3.71c-.08 0-.133.012-.156.035-.018.024-.026.079-.026.166v.592c0 .081.011.136.034.166.024.023.076.034.157.034h4.459c.029 0 .055.009.078.026.03.018.044.041.044.07v.296zm4.967-2.5a5.04 5.04 0 01-.165.21c-.052.07-.11.136-.174.2.162.163.342.308.54.436.197.127.397.24.6.34.325-.198.596-.401.81-.61.215-.21.4-.445.558-.706.029-.046.037-.087.026-.122-.012-.04-.05-.06-.113-.06h-1.498c-.07 0-.105-.041-.105-.122v-.28c0-.069.04-.104.122-.104h1.698c.325 0 .523.064.592.192.076.128.05.302-.078.522a5.47 5.47 0 01-.235.366 2.87 2.87 0 01-.253.331c.1.075.212.151.34.226.133.07.264.14.392.21.133.063.261.121.383.174.128.046.238.084.33.113.042.011.065.035.07.07.012.034.006.072-.017.113l-.148.252c-.035.064-.101.073-.2.026a8.398 8.398 0 01-.357-.148 8.711 8.711 0 01-.392-.209l-.4-.226a4.51 4.51 0 01-.349-.244 4.975 4.975 0 01-.705.531c-.262.163-.575.334-.94.514-.076.04-.14.026-.192-.043l-.14-.192c-.029-.035-.037-.07-.026-.104a.17.17 0 01.078-.079 2.1 2.1 0 00.114-.052l.104-.052a5.287 5.287 0 01-.967-.732c-.528.435-1.17.795-1.924 1.08a.767.767 0 01-.113.035c-.023 0-.047-.02-.07-.061l-.13-.253c-.024-.04-.03-.072-.018-.095a.13.13 0 01.07-.061 4.93 4.93 0 00.679-.288c.232-.122.45-.25.653-.383.203-.14.386-.282.549-.427.162-.145.287-.287.374-.427.03-.04.038-.078.026-.113-.005-.04-.04-.06-.104-.06h-1.568c-.075 0-.113-.041-.113-.122v-.28c0-.034.012-.06.035-.078a.183.183 0 01.096-.026h1.785c.703 0 .86.273.47.819zm4.285 3.423c0 .03-.015.055-.044.079a.14.14 0 01-.087.035h-7.402a.15.15 0 01-.096-.035.108.108 0 01-.035-.079v-.305c0-.034.012-.06.035-.078a.183.183 0 01.096-.026h3.475v-.732c0-.08.04-.122.122-.122h.357c.08 0 .121.041.121.122v.732h3.327a.14.14 0 01.087.035.086.086 0 01.044.078v.296zm-1.22 3.536c0 .081-.04.122-.121.122h-.357c-.082 0-.122-.04-.122-.122v-1.82c0-.082-.015-.13-.044-.148-.023-.024-.075-.035-.157-.035h-4.484a.168.168 0 01-.087-.026c-.03-.023-.044-.05-.044-.079v-.313c0-.035.015-.061.044-.079a.168.168 0 01.087-.026h4.624c.273 0 .45.053.531.157.087.099.13.267.13.505v1.864zm98.482-6.053a1.395 1.395 0 01-.444 1.028 1.83 1.83 0 01-.531.349c-.209.092-.444.15-.706.174v.949c.448-.012.877-.03 1.289-.052.413-.03.784-.064 1.115-.105.052-.006.084 0 .096.018.017.011.029.031.035.06l.034.297a.11.11 0 01-.017.087c-.012.017-.044.029-.096.035-.511.058-1.071.107-1.68.148a31.81 31.81 0 01-1.812.052h-1.811a.15.15 0 01-.096-.035.11.11 0 01-.035-.078v-.305c0-.035.012-.061.035-.079a.183.183 0 01.096-.026h2.247v-.966a2.099 2.099 0 01-.688-.174 1.967 1.967 0 01-.523-.34 1.456 1.456 0 01-.331-.47 1.458 1.458 0 01-.113-.567c0-.238.044-.452.131-.644a1.36 1.36 0 01.392-.496c.174-.14.38-.247.618-.322.244-.076.514-.114.81-.114.284 0 .545.038.783.114.244.075.453.182.627.322.18.133.32.299.418.496.105.192.157.406.157.644zm-.592-.008a.815.815 0 00-.113-.436.929.929 0 00-.305-.313 1.343 1.343 0 00-.444-.192 2.26 2.26 0 00-.531-.06c-.192 0-.372.02-.54.06a1.253 1.253 0 00-.427.192.868.868 0 00-.392.749.94.94 0 00.096.427.96.96 0 00.287.322c.122.087.265.154.427.2.168.047.351.07.549.07.185 0 .363-.023.531-.07.168-.052.316-.122.444-.209.128-.093.229-.2.305-.322a.811.811 0 00.113-.418zm2.804 5.834a.085.085 0 01-.043.079.169.169 0 01-.088.026h-4.571c-.273 0-.453-.052-.54-.157-.082-.104-.122-.276-.122-.514v-1.428c0-.081.04-.122.122-.122h.357c.081 0 .122.04.122.122v1.393c0 .082.011.131.034.149.03.023.085.034.166.034h4.432c.03 0 .059.01.088.026.029.024.043.05.043.079v.313zm-.27-1.81c0 .08-.04.121-.122.121h-.357c-.081 0-.122-.04-.122-.122v-5.835c0-.08.041-.121.122-.121h.357c.082 0 .122.04.122.121v5.835zm4.82-4.921c-.053.07-.108.14-.166.209-.052.07-.11.136-.174.2.163.163.342.308.54.436.197.127.398.24.601.34a4.57 4.57 0 00.81-.61c.214-.21.4-.445.557-.706.029-.046.038-.087.026-.122-.012-.04-.049-.06-.113-.06h-1.498c-.07 0-.104-.041-.104-.122v-.28c0-.069.04-.104.121-.104h1.699c.325 0 .522.064.592.192.075.128.049.302-.079.522-.075.128-.153.25-.235.366a2.705 2.705 0 01-.252.331c.098.075.212.151.339.226.134.07.264.14.392.21.134.063.261.121.383.174.128.046.238.084.331.113.041.011.064.035.07.07.012.034.006.072-.017.113l-.148.252c-.035.064-.102.073-.201.026a9.645 9.645 0 01-.357-.148 8.768 8.768 0 01-.392-.209l-.4-.226a4.584 4.584 0 01-.349-.244 4.96 4.96 0 01-.705.531c-.261.163-.575.334-.94.514-.076.04-.14.026-.192-.043l-.139-.192c-.029-.035-.038-.07-.027-.104a.174.174 0 01.079-.079 2.46 2.46 0 00.113-.052l.105-.052a5.279 5.279 0 01-.967-.732c-.528.435-1.17.795-1.925 1.08a.755.755 0 01-.113.035c-.023 0-.046-.02-.069-.061l-.131-.253c-.023-.04-.029-.072-.018-.095a.144.144 0 01.07-.061c.227-.076.453-.172.679-.288.233-.122.45-.25.654-.383a5.52 5.52 0 00.548-.427 2 2 0 00.375-.427c.029-.04.037-.078.026-.113-.006-.04-.041-.06-.105-.06h-1.567c-.076 0-.113-.041-.113-.122v-.28c0-.034.011-.06.034-.078a.183.183 0 01.096-.026h1.785c.703 0 .86.273.471.819zm4.284 3.422c0 .03-.014.055-.043.079a.142.142 0 01-.088.035h-7.402a.15.15 0 01-.095-.035.105.105 0 01-.035-.079v-.305c0-.034.011-.06.035-.078a.182.182 0 01.095-.026h3.475v-.732c0-.08.041-.122.122-.122h.357c.081 0 .122.041.122.122v.732h3.326c.029 0 .059.012.088.035a.085.085 0 01.043.078v.296zm-1.219 3.536c0 .081-.041.122-.122.122h-.357c-.081 0-.122-.04-.122-.122v-1.82c0-.082-.014-.13-.043-.148-.024-.024-.076-.035-.157-.035h-4.485a.168.168 0 01-.087-.026c-.029-.023-.044-.05-.044-.079v-.313c0-.035.015-.061.044-.079a.168.168 0 01.087-.026h4.624c.273 0 .45.053.531.157.087.099.131.267.131.505v1.864zm73.936-3.283c0 .238-.049.458-.148.662a1.687 1.687 0 01-.392.54 1.87 1.87 0 01-.6.357c-.233.087-.482.13-.749.13-.273 0-.526-.043-.758-.13a1.897 1.897 0 01-.592-.358 1.722 1.722 0 01-.401-.53 1.63 1.63 0 01-.139-.671c0-.244.046-.468.139-.67.099-.21.233-.39.401-.54.168-.152.366-.27.592-.358.232-.087.485-.13.758-.13.267 0 .516.046.749.139.232.087.432.206.6.357.169.151.299.331.392.54.099.209.148.43.148.662zm1.585-1.672v-2.918c0-.08.041-.121.122-.121h.357c.082 0 .122.04.122.121v7.786c0 .081-.04.122-.122.122h-.357c-.081 0-.122-.041-.122-.122v-2.639h-1.236c-.076 0-.113-.035-.113-.104v-.305c0-.07.037-.105.113-.105h1.236v-1.201h-1.323c-.076 0-.114-.035-.114-.105v-.305c0-.07.038-.104.114-.104h1.323zm-2.177 1.672c0-.169-.032-.325-.096-.47a1.064 1.064 0 00-.27-.375 1.165 1.165 0 00-.418-.253 1.346 1.346 0 00-.513-.095c-.186 0-.36.032-.523.095a1.18 1.18 0 00-.409.253 1.2 1.2 0 00-.279.375 1.153 1.153 0 00-.096.47c0 .168.032.325.096.47.07.14.163.264.279.375.116.104.252.188.409.252.163.058.337.087.523.087a1.354 1.354 0 00.931-.34 1.06 1.06 0 00.27-.374c.064-.145.096-.302.096-.47zm1.089-2.43c0 .076-.044.113-.131.113h-4.65a.139.139 0 01-.087-.034.119.119 0 01-.035-.087v-.28a.12.12 0 01.035-.086.14.14 0 01.087-.035h4.65c.087 0 .131.038.131.113v.296zm-1.115-1.48c0 .081-.043.122-.131.122h-2.386a.167.167 0 01-.087-.026.119.119 0 01-.035-.087v-.297a.12.12 0 01.035-.087.111.111 0 01.079-.034h2.394c.088 0 .131.04.131.121v.288zm11.231 2.517c0 .325-.04.653-.122.984a2.85 2.85 0 01-.365.896 2.153 2.153 0 01-.654.662c-.261.169-.577.253-.949.253-.383 0-.708-.084-.975-.253a2.019 2.019 0 01-.636-.653 3.052 3.052 0 01-.339-.905 4.744 4.744 0 010-1.995c.069-.336.182-.638.339-.905.163-.267.375-.482.636-.645.267-.162.592-.244.975-.244.372 0 .688.082.949.244.268.163.485.378.654.645.168.26.29.56.365.897.082.33.122.67.122 1.018zm-.618-.01c0-.26-.029-.525-.087-.792a2.529 2.529 0 00-.253-.723 1.53 1.53 0 00-.452-.522 1.136 1.136 0 00-.68-.2c-.278 0-.511.067-.696.2a1.49 1.49 0 00-.436.522c-.11.215-.188.456-.235.723a4.663 4.663 0 00-.009 1.568c.047.267.125.51.235.731.111.215.259.392.445.532.185.139.418.209.696.209.267 0 .494-.07.68-.21.185-.139.336-.316.452-.53a2.66 2.66 0 00.253-.732 3.65 3.65 0 00.087-.775zm2.517 4.599c0 .081-.041.122-.122.122h-.357c-.082 0-.122-.041-.122-.122v-7.786c0-.08.04-.121.122-.121h.357c.081 0 .122.04.122.121v3.17h1.201c.035 0 .064.012.088.035a.085.085 0 01.043.078v.297c0 .029-.014.055-.043.078a.121.121 0 01-.088.035h-1.201v4.093zm2.851-3.144c-.261-.012-.438-.064-.531-.157-.087-.098-.131-.27-.131-.514v-1.132c0-.243.05-.406.148-.487.105-.087.288-.13.549-.13h1.611c.081 0 .133-.012.157-.036.023-.023.035-.078.035-.165v-.967c0-.087-.012-.142-.035-.165-.018-.023-.067-.035-.148-.035h-2.16a.168.168 0 01-.087-.026.084.084 0 01-.035-.07v-.33c0-.03.012-.053.035-.07a.168.168 0 01.087-.027h2.255c.14 0 .253.012.34.035.087.018.157.05.209.096a.356.356 0 01.105.2c.023.082.034.183.034.305v1.158c0 .244-.052.41-.156.497-.099.081-.279.122-.54.122h-1.62c-.081 0-.134.011-.157.035-.017.023-.026.078-.026.165v.984c0 .133.064.2.192.2a12.247 12.247 0 002.708-.313c.087-.03.139 0 .157.087l.052.287c.012.076-.026.125-.113.148-.441.11-.918.192-1.428.244-.505.052-1.008.073-1.507.061zm4.25-2.334h1.106v-2.308c0-.08.04-.121.122-.121h.331c.081 0 .121.04.121.121v5.138c0 .082-.04.122-.121.122h-.331c-.082 0-.122-.04-.122-.122v-2.307h-1.106v1.802c0 .082-.041.122-.122.122h-.331c-.081 0-.122-.04-.122-.122v-4.484c0-.082.041-.122.122-.122h.331c.081 0 .122.04.122.122v2.16zm-.845 2.84c-.012.046-.02.09-.026.13a1.57 1.57 0 01-.026.13c.023.064.049.122.078.174.029.053.061.105.096.157.221.337.557.645 1.01.923.453.273 1.002.48 1.646.619.075.017.096.066.061.148l-.131.304c-.029.07-.084.093-.165.07-.679-.186-1.266-.432-1.759-.74-.488-.302-.859-.636-1.115-1.002-.244.395-.604.747-1.08 1.054-.47.308-1.03.552-1.68.732a.314.314 0 01-.122.008c-.024 0-.041-.017-.053-.052l-.122-.322c-.034-.081-.011-.137.07-.166.418-.11.793-.25 1.124-.418a4 4 0 00.853-.54c.238-.197.418-.403.54-.618.128-.215.197-.43.209-.644 0-.07.035-.105.104-.105l.418.035c.058 0 .082.04.07.122zm10.428.348c0 .08-.041.121-.122.121h-.357c-.082 0-.122-.04-.122-.122v-2.046h-1.724v.209c0 .244-.047.41-.14.496-.093.082-.267.122-.522.122h-2.395c-.139 0-.253-.008-.34-.026a.431.431 0 01-.2-.096.438.438 0 01-.096-.191 1.52 1.52 0 01-.026-.305v-2.69c0-.245.047-.407.139-.488.093-.088.267-.131.523-.131h2.395c.139 0 .249.009.331.026.087.017.153.05.2.096a.34.34 0 01.104.191c.018.082.027.183.027.305v.314h1.724v-1.28c0-.082.04-.122.122-.122h.357c.081 0 .122.04.122.121v5.495zm-5.234-4.625c-.081 0-.136.018-.166.053-.029.029-.043.087-.043.174v2.43c0 .087.014.147.043.182.03.03.085.044.166.044h2.099c.081 0 .136-.015.165-.044.029-.035.044-.096.044-.183v-2.43c0-.086-.015-.144-.044-.173-.029-.035-.084-.053-.165-.053h-2.099zm5.504 6.775a.086.086 0 01-.044.079.168.168 0 01-.087.026h-4.363c-.273 0-.453-.052-.54-.157-.081-.099-.122-.267-.122-.505v-1.768c0-.081.041-.122.122-.122h.357c.082 0 .122.041.122.122v1.724c0 .082.012.131.035.149.029.023.084.034.165.034h4.224c.029 0 .058.01.087.026.029.024.044.05.044.079v.313zm-2.595-4.71h1.724v-1.142h-1.724v1.141zm-22.776 74.487c0 .238-.049.458-.148.662a1.702 1.702 0 01-.392.54 1.89 1.89 0 01-.601.357c-.232.087-.482.13-.749.13-.273 0-.525-.043-.757-.13a1.902 1.902 0 01-.593-.358 1.703 1.703 0 01-.4-.53 1.63 1.63 0 01-.14-.671 1.585 1.585 0 01.54-1.21c.169-.152.366-.27.593-.358.232-.087.484-.13.757-.13.267 0 .517.046.749.139.232.087.433.206.601.357.168.151.299.331.392.54.099.209.148.43.148.662zm1.585-1.672v-2.918c0-.08.04-.121.122-.121h.357c.081 0 .122.04.122.121v7.786c0 .081-.041.122-.122.122h-.357c-.082 0-.122-.041-.122-.122v-2.639h-1.237c-.075 0-.113-.035-.113-.104v-.305c0-.07.038-.105.113-.105h1.237V93.41h-1.324c-.075 0-.113-.035-.113-.105V93c0-.07.038-.104.113-.104h1.324zm-2.177 1.672c0-.169-.032-.325-.096-.47a1.09 1.09 0 00-.27-.375 1.165 1.165 0 00-.418-.252 1.351 1.351 0 00-.514-.096c-.186 0-.36.032-.522.096a1.184 1.184 0 00-.41.252c-.116.105-.209.23-.278.374a1.153 1.153 0 00-.096.47c0 .17.032.326.096.471.069.14.162.264.278.374.116.105.253.19.41.253.162.058.336.087.522.087s.357-.029.514-.087a1.35 1.35 0 00.418-.253 1.09 1.09 0 00.27-.374c.064-.145.096-.302.096-.47zm1.088-2.43c0 .076-.043.113-.13.113h-4.651a.139.139 0 01-.087-.035.119.119 0 01-.035-.087v-.278a.12.12 0 01.035-.087.14.14 0 01.087-.035h4.651c.087 0 .13.038.13.113v.296zm-1.114-1.48c0 .081-.044.122-.131.122h-2.386a.167.167 0 01-.087-.026.119.119 0 01-.035-.088v-.296a.12.12 0 01.035-.087.107.107 0 01.078-.034h2.395c.087 0 .131.04.131.121v.288zm13.434 3.7c0 .082-.041.123-.122.123h-.357c-.081 0-.122-.04-.122-.122v-1.054h-1.907a1.99 1.99 0 01-.714.531 2.294 2.294 0 01-.949.192 2.28 2.28 0 01-.802-.14 2.007 2.007 0 01-.653-.391 2.035 2.035 0 01-.444-.61 1.959 1.959 0 01-.157-.792c0-.302.053-.572.157-.81.111-.244.259-.447.444-.61.186-.168.404-.296.653-.383.25-.093.517-.14.802-.14.371 0 .72.082 1.045.245.331.162.589.397.775.705h1.75v-1.124c0-.08.041-.121.122-.121h.357c.081 0 .122.04.122.121v4.38zm.522 3.345c0 .075-.043.113-.13.113h-5.547a.14.14 0 01-.087-.035.116.116 0 01-.035-.087v-.27c0-.035.011-.064.035-.087a.14.14 0 01.087-.035h1.219v-1.846h-.958a.14.14 0 01-.087-.035.12.12 0 01-.035-.087v-.27a.12.12 0 01.035-.087.14.14 0 01.087-.035h5.025c.087 0 .13.038.13.114v.287c0 .075-.043.113-.13.113h-.924v1.846h1.185c.087 0 .13.038.13.113v.288zm-3.213-5.617a1.41 1.41 0 00-.122-.601 1.323 1.323 0 00-.801-.697 1.749 1.749 0 00-.557-.087c-.204 0-.392.03-.566.087a1.34 1.34 0 00-.462.262 1.255 1.255 0 00-.305.435 1.508 1.508 0 00-.113.6c0 .216.035.41.105.584a1.296 1.296 0 00.757.714 1.737 1.737 0 001.141 0c.18-.063.337-.156.47-.278.14-.122.25-.267.331-.436.081-.174.122-.368.122-.583zm-.653 5.216h1.959v-1.846h-1.959v1.846zm1.263-5.207c0 .255-.044.487-.131.696h1.611v-1.175h-1.541c.017.075.032.153.043.235.012.081.018.162.018.244zm10.271 3.379c0 .08-.041.121-.122.121h-.357c-.082 0-.122-.04-.122-.121v-2.047h-1.725v.209c0 .244-.046.41-.139.496-.093.082-.267.122-.522.122h-2.395c-.14 0-.253-.008-.34-.026a.43.43 0 01-.2-.096.418.418 0 01-.096-.191 1.52 1.52 0 01-.026-.305v-2.69c0-.245.046-.407.139-.489.093-.087.267-.13.523-.13h2.395c.139 0 .249.008.33.026.088.017.154.05.201.096a.34.34 0 01.104.191c.018.082.026.183.026.305v.314h1.725v-1.28c0-.082.04-.122.122-.122h.357c.081 0 .122.04.122.121v5.496zm-5.234-4.625c-.081 0-.137.018-.166.053-.029.029-.043.087-.043.174v2.43c0 .087.014.147.043.182.029.03.085.044.166.044h2.099c.081 0 .136-.015.165-.044.029-.035.044-.096.044-.183v-2.43c0-.086-.015-.144-.044-.173-.029-.035-.084-.053-.165-.053h-2.099zm5.503 6.775a.085.085 0 01-.043.079.168.168 0 01-.087.026h-4.363c-.273 0-.453-.052-.54-.157-.081-.099-.122-.267-.122-.505V95.3c0-.081.041-.122.122-.122h.357c.081 0 .122.041.122.122v1.724c0 .082.012.131.035.149.029.023.084.034.165.034h4.224c.029 0 .058.01.087.026.029.024.043.05.043.079v.313zm-2.595-4.71h1.725v-1.142h-1.725v1.141zm-50.511 48.99a.14.14 0 01.087.035.086.086 0 01.044.078v.297c0 .029-.015.055-.044.078a.14.14 0 01-.087.035h-7.402a.151.151 0 01-.096-.035.107.107 0 01-.034-.078v-.297c0-.034.011-.061.034-.078a.151.151 0 01.096-.035h3.379v-1.811a4.76 4.76 0 01-.871-.157c-.29-.081-.557-.2-.801-.357a1.987 1.987 0 01-.583-.583 1.502 1.502 0 01-.227-.836c0-.354.087-.653.261-.897.18-.25.407-.45.68-.601.278-.151.58-.261.905-.331.331-.07.645-.105.941-.105.302 0 .618.035.949.105.331.07.63.18.897.331.273.151.496.351.671.601.179.244.269.543.269.897 0 .325-.075.606-.226.844a1.99 1.99 0 01-.583.584c-.238.151-.505.27-.802.357-.296.081-.589.13-.879.148v1.811h3.422zm-3.718-5.129c-.203 0-.43.02-.679.061a2.618 2.618 0 00-.697.218 1.64 1.64 0 00-.549.426c-.145.18-.217.41-.217.688 0 .279.072.508.217.688.151.18.334.323.549.427.22.099.453.168.697.209.249.041.476.061.679.061.197 0 .418-.02.662-.061.249-.041.481-.11.696-.209.221-.104.407-.247.558-.427.151-.18.226-.409.226-.688 0-.278-.075-.508-.226-.688a1.616 1.616 0 00-.558-.426 2.502 2.502 0 00-.696-.218 4.028 4.028 0 00-.662-.061zm11.908 3.449a.14.14 0 01.087.034.087.087 0 01.043.079v.296c0 .029-.014.055-.043.078a.14.14 0 01-.087.035h-7.402a.151.151 0 01-.096-.035.108.108 0 01-.035-.078v-.296c0-.035.012-.061.035-.079a.15.15 0 01.096-.034h7.402zm-.88 3.317a.087.087 0 01-.043.079.172.172 0 01-.087.026h-4.659c-.273 0-.453-.058-.54-.174-.081-.111-.122-.285-.122-.523v-1.384c0-.082.041-.122.122-.122h.357c.081 0 .122.04.122.122v1.376c0 .081.011.13.035.148.029.023.084.034.165.034h4.52c.029 0 .058.009.087.027.029.023.043.049.043.078v.313zm-.052-4.232c0 .029-.014.055-.043.079a.122.122 0 01-.07.026h-4.589c-.273 0-.453-.05-.54-.148-.082-.105-.122-.279-.122-.523v-.688c0-.249.049-.415.148-.496.104-.081.287-.122.548-.122h3.701c.082 0 .131-.012.148-.035.024-.023.035-.078.035-.165v-.575c0-.087-.011-.142-.035-.166-.017-.023-.066-.034-.148-.034h-4.275a.164.164 0 01-.087-.027.08.08 0 01-.035-.069v-.314a.08.08 0 01.035-.069.164.164 0 01.087-.027h4.371c.14 0 .253.012.34.035.087.018.157.05.209.096a.35.35 0 01.104.2c.024.082.035.183.035.305v.714c0 .25-.052.415-.157.497-.098.081-.278.122-.539.122h-3.71c-.082 0-.134.011-.157.034-.017.024-.026.079-.026.166v.592c0 .081.011.136.035.165.023.024.075.035.156.035h4.459c.029 0 .055.009.079.026.029.018.043.041.043.07v.296zm4.968-2.499c-.053.07-.108.139-.166.209-.052.07-.11.136-.174.2.162.163.342.308.54.436.197.127.398.241.601.339.325-.197.595-.4.81-.609.214-.209.4-.445.557-.706.029-.046.038-.087.026-.122-.012-.04-.049-.061-.113-.061h-1.498c-.07 0-.105-.04-.105-.122v-.278c0-.07.041-.105.122-.105h1.699c.325 0 .522.064.592.192.075.128.049.302-.079.522a5.47 5.47 0 01-.235.366 2.676 2.676 0 01-.252.331c.098.076.212.151.339.226.134.07.264.14.392.209.134.064.261.122.383.175.128.046.238.084.331.113.041.011.064.035.07.069.012.035.006.073-.018.114l-.148.252c-.034.064-.101.073-.2.026a9.645 9.645 0 01-.357-.148 8.469 8.469 0 01-.392-.209l-.4-.226a4.584 4.584 0 01-.349-.244 4.914 4.914 0 01-.705.531c-.261.163-.575.334-.941.514-.075.041-.139.026-.191-.043l-.139-.192c-.029-.035-.038-.07-.027-.105a.175.175 0 01.079-.078c.04-.017.078-.035.113-.052l.104-.052a5.26 5.26 0 01-.966-.732c-.528.435-1.17.795-1.925 1.08a.84.84 0 01-.113.035c-.023 0-.046-.021-.07-.061l-.13-.253c-.023-.04-.029-.072-.018-.096a.147.147 0 01.07-.061c.226-.075.453-.171.679-.287.233-.122.45-.25.653-.383.204-.139.387-.282.549-.427.163-.145.287-.287.375-.426.029-.041.037-.079.026-.114-.006-.04-.041-.061-.105-.061h-1.567c-.076 0-.114-.04-.114-.122v-.278c0-.035.012-.061.035-.079a.187.187 0 01.096-.026h1.785c.703 0 .86.273.471.819zm4.284 3.422c0 .029-.014.055-.044.079a.14.14 0 01-.087.034h-7.402a.148.148 0 01-.095-.034.108.108 0 01-.035-.079v-.305c0-.034.011-.061.035-.078a.183.183 0 01.095-.026h3.475v-.732c0-.081.041-.121.122-.121h.357c.081 0 .122.04.122.121v.732h3.326a.14.14 0 01.087.035c.03.017.044.043.044.078v.296zm-1.219 3.536c0 .081-.041.122-.122.122h-.357c-.081 0-.122-.041-.122-.122v-1.82c0-.081-.015-.131-.044-.148-.023-.023-.075-.035-.156-.035h-4.485a.172.172 0 01-.087-.026c-.029-.023-.044-.05-.044-.079v-.313c0-.035.015-.061.044-.078a.164.164 0 01.087-.027h4.624c.273 0 .45.053.531.157.087.099.131.267.131.505v1.864zm56.932-6.052a1.394 1.394 0 01-.444 1.027 1.818 1.818 0 01-.531.348 2.224 2.224 0 01-.706.175v.949c.448-.012.877-.029 1.289-.052.413-.029.784-.064 1.115-.105.052-.006.084 0 .096.017.017.012.029.032.035.061l.034.297a.111.111 0 01-.017.087c-.012.017-.044.029-.096.034-.511.059-1.071.108-1.68.148-.61.035-1.214.053-1.812.053h-1.811a.151.151 0 01-.096-.035.108.108 0 01-.035-.078v-.305c0-.035.012-.061.035-.079a.187.187 0 01.096-.026h2.247v-.966a2.114 2.114 0 01-.688-.175 1.958 1.958 0 01-.523-.339 1.463 1.463 0 01-.331-.47 1.459 1.459 0 01-.113-.566c0-.238.044-.453.131-.645a1.36 1.36 0 01.392-.496c.174-.14.38-.247.618-.322.244-.076.514-.114.81-.114.284 0 .545.038.783.114.244.075.453.182.627.322.18.133.32.299.418.496.105.192.157.407.157.645zm-.592-.009a.816.816 0 00-.113-.436.931.931 0 00-.305-.313 1.352 1.352 0 00-.444-.192 2.292 2.292 0 00-.531-.061c-.192 0-.372.021-.54.061a1.253 1.253 0 00-.427.192.87.87 0 00-.392.749.94.94 0 00.096.427.96.96 0 00.287.322c.122.087.265.154.427.2.168.046.351.07.549.07.185 0 .363-.024.531-.07.168-.052.316-.122.444-.209.128-.093.229-.2.305-.322a.812.812 0 00.113-.418zm2.804 5.834a.087.087 0 01-.043.079.172.172 0 01-.088.026h-4.571c-.273 0-.453-.052-.54-.157-.082-.104-.122-.276-.122-.514v-1.428c0-.081.04-.122.122-.122h.357c.081 0 .122.041.122.122v1.394c0 .081.011.13.034.148.03.023.085.034.166.034h4.432c.03 0 .059.009.088.027.029.023.043.049.043.078v.313zm-.27-1.811c0 .081-.04.122-.122.122h-.357c-.081 0-.122-.041-.122-.122v-5.835c0-.081.041-.121.122-.121h.357c.082 0 .122.04.122.121v5.835zm4.82-4.92c-.053.07-.108.139-.166.209-.052.07-.11.136-.174.2.163.163.342.308.54.436.197.127.398.241.601.339.325-.197.595-.4.81-.609.214-.209.4-.445.557-.706.029-.046.038-.087.026-.122-.012-.04-.049-.061-.113-.061h-1.498c-.07 0-.104-.04-.104-.122v-.278c0-.07.04-.105.121-.105h1.699c.325 0 .522.064.592.192.075.128.049.302-.079.522-.075.128-.153.25-.235.366a2.676 2.676 0 01-.252.331c.098.076.212.151.339.226.134.07.264.14.392.209.134.064.261.122.383.175.128.046.238.084.331.113.041.011.064.035.07.069.012.035.006.073-.017.114l-.148.252c-.035.064-.102.073-.201.026a9.645 9.645 0 01-.357-.148 8.469 8.469 0 01-.392-.209l-.4-.226a4.584 4.584 0 01-.349-.244 4.914 4.914 0 01-.705.531c-.261.163-.575.334-.94.514-.076.041-.14.026-.192-.043l-.139-.192c-.029-.035-.038-.07-.027-.105a.175.175 0 01.079-.078c.04-.017.078-.035.113-.052l.105-.052a5.228 5.228 0 01-.967-.732c-.528.435-1.17.795-1.925 1.08a.84.84 0 01-.113.035c-.023 0-.046-.021-.069-.061l-.131-.253c-.023-.04-.029-.072-.018-.096a.147.147 0 01.07-.061c.227-.075.453-.171.679-.287.233-.122.45-.25.654-.383.203-.139.386-.282.548-.427.163-.145.288-.287.375-.426.029-.041.037-.079.026-.114-.006-.04-.041-.061-.105-.061h-1.567c-.076 0-.113-.04-.113-.122v-.278c0-.035.011-.061.034-.079a.187.187 0 01.096-.026h1.785c.703 0 .86.273.471.819zm4.284 3.422c0 .029-.014.055-.043.079a.142.142 0 01-.088.034h-7.402a.15.15 0 01-.095-.034.108.108 0 01-.035-.079v-.305c0-.034.011-.061.035-.078a.186.186 0 01.095-.026h3.475v-.732c0-.081.041-.121.122-.121h.357c.081 0 .122.04.122.121v.732h3.326c.029 0 .059.012.088.035a.084.084 0 01.043.078v.296zm-1.219 3.536c0 .081-.041.122-.122.122h-.357c-.081 0-.122-.041-.122-.122v-1.82c0-.081-.014-.131-.043-.148-.024-.023-.076-.035-.157-.035h-4.485a.172.172 0 01-.087-.026c-.029-.023-.044-.05-.044-.079v-.313c0-.035.015-.061.044-.078a.164.164 0 01.087-.027h4.624c.273 0 .45.053.531.157.087.099.131.267.131.505v1.864z" fill="#DADADA"/><path d="M60.38 67.704s-.919.085-.66 3.07c0 0 .068 1.36 2.836 1.435 0 0 2.548 1.768 3.523.354a4.064 4.064 0 001.882-3.331s-2.715.863-4.15-1.538c0 0-3.017.63-3.442-1.857 0 0-1.202-.078-1.294 2.182a1.959 1.959 0 00.542 1.524" stroke="#626368" stroke-width=".792" stroke-linecap="round" stroke-linejoin="round"/><path d="M63.513 68.694s-.582-.25-.4.785c0 0 .12 1.337-.71.852m5.568-.851s1.698-1.086 1.772-6.012a3.38 3.38 0 01-3.339-1.513s-2.427 1.152-4.004-2.603a6.749 6.749 0 00-2.006 6.478" stroke="#626368" stroke-width=".792" stroke-linecap="round" stroke-linejoin="round"/><path d="M60.33 65.564s.539-1.35 1.386-1.768c0 0 .244-1.273 0-1.697m4.008 1.266s-.585.545-.748 1.938a2.35 2.35 0 000 1.273m0-1.273s-.588.297-1.134.545m5.888-2.362s2.427-1.454 2.066-6.782c0 0-1.457.604-3.218-.91 0 0-2.612.545-2.067-3.694 0 0-4.43 3.635-4.125 7.27" stroke="#626368" stroke-width=".792" stroke-linecap="round" stroke-linejoin="round"/><path d="M67.1 57.368s.567 1.517.262 2.475l.61 1.09m1.757-2.896s-2.793 2.362-3.704 2.302m-.719-3.879s-3.02 2.768-2.768 3.253M66.51 52.1s1.216-5.814 3.219-5.21c0 0-.546 2.727 1.64 2.968 0 0 2.127 1.877 2.794 1.577 0 0-1.096 4.844-2.368 5.268m-.907-5.573s-.244 2.362-1.822 2.362m2.364-1.718s-1.456.93-1.091 1.719m3.824-2.059s1.772-1.45 1.74-2.061a.374.374 0 01.132-.354c.482-.353 1.53-1.195 1.343-1.711 0 0-2.428.728-2.669 0 0 0-.73-4.724.727-5.873 0 0-5.402 3.39-5.707 5.449" stroke="#626368" stroke-width=".792" stroke-linecap="round" stroke-linejoin="round"/><path d="M75.436 41.442s3.037-4.424 4.433-1.394c0 0-1.772 4.244-.85 6.118a1.656 1.656 0 01-1.641 1.149m2.492-7.267s2.427-4.848 4.188 0l-.304 4.664s-.73 2.178-4.735 1.454m5.039-6.118s1.478-4.328 4.296-3.228c.506.206.92.59 1.162 1.079.447.848.73 1.743.915 3.536 0 0 .305 3.51-.666 3.51 0 0-3.027.62-4.608.355 0 0-1.031-.244-1.396-.605" stroke="#626368" stroke-width=".792" stroke-linecap="round" stroke-linejoin="round"/><path d="M90.324 40.561s1.064-3.656 3.162-3.96a1.602 1.602 0 011.19.354c.738.565 2.205 1.948 2.432 4.073 0 0 .588 4.066-1.336 4.367 0 0-4.005.24-4.856-.788 0 0-.45-.404-.454-1.436" stroke="#626368" stroke-width=".792" stroke-linecap="round" stroke-linejoin="round"/><path d="M97.054 40.64s.964-3.441 2.836-2.229c0 0 2.126 1.203 2.427 6.991 0 0 .277 1.598-2.792.912 0 0-2.627-.52-2.499-2.429" stroke="#626368" stroke-width=".792" stroke-linecap="round" stroke-linejoin="round"/><path d="M101.368 40.5s.886-2.202 2.662-.452c0 0 3.278 3.006 2.548 6.56 0 0-.064 1.835-2.247 1.312 0 0-2.126-.354-2.304-1.606" stroke="#626368" stroke-width=".792" stroke-linecap="round" stroke-linejoin="round"/><path d="M105.692 42.191s3.501-.512 5.522 4.18c.073.166.114.345.12.527.043.901 0 3.585-1.963 3.384a3.662 3.662 0 01-2.687 1.492s-.709.05-.992-1.793c0 0-2.152-1.149-1.939-2.21" stroke="#626368" stroke-width=".792" stroke-linecap="round" stroke-linejoin="round"/><path d="M106.943 51.774s.22 2.878 1.638 3.96c0 0 1.641 1.864 3.229.85.111-.076.23-.14.354-.192.563-.223 2.265-.986 2.371-2.061 0 0 .23-3.346-1.092-5.623 0 0-1.095-1.898-2.126-2.1" stroke="#626368" stroke-width=".792" stroke-linecap="round" stroke-linejoin="round"/><path d="M114.552 52.1a4.54 4.54 0 011.928 2.192c.172.391.384.764.635 1.11.358.467.673.966.942 1.489.124.264.195.55.21.842.06.83.081 2.878-.933 3.963-.251.26-.589.42-.949.45a6.18 6.18 0 01-1.677 0 .256.256 0 00-.259.088c-.283.353-1.116 1.234-2.218 1.27a1.877 1.877 0 01-1.772-1.235c-.535-1.414-1.553-4.434-.986-5.806" stroke="#626368" stroke-width=".792" stroke-linecap="round" stroke-linejoin="round"/><path d="M111.426 63.365s-.064 5.838 3.009 6.103c.101.011.203.011.305 0a2.782 2.782 0 002.339-1.743s3.058.45 3.704-1.878c0 0 1.35-4.169-2.481-6.69" stroke="#626368" stroke-width=".792" stroke-linecap="round" stroke-linejoin="round"/><path d="M113.55 69.204s.666 4.243 3.898 3.37c.306-.092.587-.25.823-.464.433-.395.96-.674 1.531-.81a2.893 2.893 0 001.79-1.124 2.65 2.65 0 00.513-1.687c-.031-1.195-.226-3.455-1.212-3.182m-51.83-15.266s-2.248 1.878-2.552 3.756m5.319-7.935s-2.161 1.768-1.856 3.119m4.189-1.662s-.73 1.39-1.942 1.27m.971.006c-.035.34-.035.682 0 1.022m5.036-3.755s-2.126 1.167-2.431 1.768m27.442-1.768s2.127 2.68 2.892 1.768m.812-.003s1.337 1.096 2.003.968m.358-2.733s2.194 1.92 1.91 2.744m-2.988-.163v1.174m2.045 1.878s.191 2.242 1.952 2.302m-2.668-1.485s1.68.682 1.683 1.65m.986-3.921s1.804 1.121 2.268 3.013m-.694 4.073s-.783 1.768.429 2.585c.358.185.704.395 1.035.626m-3.463-2.538s1.371.573 1.722 1.63a1.228 1.228 0 01-.319 1.234c-.087.089-.17.182-.248.28m2.793-4.969s2.637 2.026 2.442 3.738m-2.442 3.652s0 2.6 2.088 2.476m-1.451-.559s.305 1.294-.166 1.294" stroke="#626368" stroke-width=".792" stroke-linecap="round" stroke-linejoin="round"/><path d="M119.266 62.092s-.255 1.213 1.092 2.514c0 0 .563.68.496.959m-3.02 2.889l.702 1.453m2.733-3.331s.9 2.037.783 2.603M66.401 88.065s1.386.682 1.386-1.195c0 0-.07-11.026 8.01-18.413 0 0 6.62-6.421 11.341-1.877m27.446 22.082s-.56-15.912-9.899-21.482c0 0-7.212-5.028-9.945-.908" stroke="#626368" stroke-width=".792" stroke-linecap="round" stroke-linejoin="round"/><path d="M71.977 78.588s6.07-11.103 12.688-10.134c0 0 3.235.215 3.278 3.635 0 0-.06 6.902 2.609 6.902 0 0 2.46.392 2.994-3.105.09-.617.1-1.243.029-1.863-.114-1.125-.202-3.685 1.166-4.844 0 0 3.306-2.967 8.998 1.637 0 0 5.466 5.219 5.71 7.69m-38.788-3.139s2.244 4.802 2.605 8.8" stroke="#626368" stroke-width=".792" stroke-linecap="round" stroke-linejoin="round"/><path d="M111.427 75.367s-2.421-2.009-1.872 5.017a6.339 6.339 0 00-.889 5.251" stroke="#626368" stroke-width=".792" stroke-linecap="round" stroke-linejoin="round"/><path d="M67.698 87.655s4.384-5.393 15.19-3.89c0 0 6.44.852 7.826 2.638a.354.354 0 00.44.11c.981-.482 4.426-2.034 8.247-2.122.22 0 10.193-.39 14.825 4.64m-55.909-.892s1.418-3.356 5.054-.272a.313.313 0 00.305.067c.737-.226 3.71-.909 4.295 2.747 0 0-.304 2.058-.974 1.938 0 0-1.152-.534-2.063 0 0 0-4.065-.491-4.675 1.146-.003.007-3.52-1.51-1.942-5.626z" stroke="#626368" stroke-width=".792" stroke-linecap="round" stroke-linejoin="round"/><path d="M60.256 93.772s-2.308 3.89 2.066 6.902c0 0 1.393-1.888 3.395-1.673a.799.799 0 00.479-.088c.652-.354 2.587-1.262 3.487.187 0 0 .287-2.991-.45-3.928a8.977 8.977 0 01-.709-1.061 3.405 3.405 0 00-1.534-1.51m-4.665 8.073s-.251 4.908 2.24 5.209c0 0 1.16-2.981 3.406-2.603 0 0 2.481-.668 3.275 0a5.708 5.708 0 00-1.56-4.18m-.216 13.381s-3.065.127-3.61-2.235c0 0-2.836-2.302-1.28-4.363m7.942.668s.917.089 2.027 1.376a6.312 6.312 0 011.322 2.517c.081.301.12.552.05.626" stroke="#626368" stroke-width=".792" stroke-linecap="round" stroke-linejoin="round"/><path d="M74.383 117.17a7.635 7.635 0 001.602 1.372c1.985 1.117 3.509 1.248 4.132-.707.326-1.019-.06-1.864-.081-2.928 0-.431.294-1.128.255-1.478-.1-.895-2.261-2.765-3.324-2.783-1.63-.028-2.077 2.337-2.208 3.844-.05.573-.12 1.138-.217 1.704l-.16.958c-1.456 0-3.033-1.308-3.033-1.308-2.226-2.044-2.226-5.435-1.255-7.857 1.457 0 2.428-.485 2.428-1.453 0-.969 0-2.907-1.276-3.271" stroke="#626368" stroke-width=".792" stroke-linecap="round" stroke-linejoin="round"/><path d="M80.224 117.368s1.73 3.674 3.14 4.342a.96.96 0 00.762 0c.528-.198 1.417-.835 1.548-2.857 0 0 0-4.845-.928-5.166 0 0-2.126-1.86-4.455-.251" stroke="#626368" stroke-width=".792" stroke-linecap="round" stroke-linejoin="round"/><path d="M85.5 115.865s-.283-1.874 1.106-2.047c0 0 4.331-.729 4.207.866 0 0 .213 3.413-.354 5.149 0 0-.77 2.517-2.311 1.98a5.428 5.428 0 01-2.481-2.949" stroke="#626368" stroke-width=".792" stroke-linecap="round" stroke-linejoin="round"/><path d="M90.813 114.684s0-1.04 1.528-1.061c.312 0 .62 0 .925-.032.854-.074 2.576-.078 2.608 1.089 0 0-.081 4.424-.687 5.23 0 0-1.223 2.253-2.481 2.002a.92.92 0 01-.457-.262 5.086 5.086 0 01-1.514-3.151" stroke="#626368" stroke-width=".792" stroke-linecap="round" stroke-linejoin="round"/><path d="M95.875 114.684s0-.912 1.995-1.089a9.186 9.186 0 001.155-.17c.77-.166 2.052-.332 2.127.432a9.069 9.069 0 01-1.01 5.498s-1.12 2.518-2.754 2.178a1.537 1.537 0 01-.797-.481c-.419-.449-1.16-1.372-1.042-2.192" stroke="#626368" stroke-width=".792" stroke-linecap="round" stroke-linejoin="round"/><path d="M100.875 113.439a2.946 2.946 0 011.878-1.602s1.943-2.061 2.956-.767c0 0 1.577 3.271.606 5.817 0 0-.666 2.62-2.417 2.829a1.78 1.78 0 01-.95-.17c-.62-.283-1.814-.934-2.073-1.839" stroke="#626368" stroke-width=".792" stroke-linecap="round" stroke-linejoin="round"/><path d="M105.323 110.748a3.363 3.363 0 011.159-2.499c.088-.076.169-.16.241-.252.277-.353 1.191-1.361 2.481-.792.27.13.516.304.73.513a1.36 1.36 0 001.063.325s1.064-.325.809 3.027c0 0 .039 2.048-.741 3.459a2.134 2.134 0 01-.624.689c-.893.658-3.232 2.203-3.923.902" stroke="#626368" stroke-width=".792" stroke-linecap="round" stroke-linejoin="round"/><path d="M108.591 107.042a3.878 3.878 0 011.521-3.182c.238-.199.515-.345.815-.428a3.64 3.64 0 012.197.081.896.896 0 00.429.054c.574-.078 2.268-.096 3.275 2.157.12.268.159.565.113.855-.195 1.277-.967 4.933-3.338 4.901a2.304 2.304 0 01-1.773 0" stroke="#626368" stroke-width=".792" stroke-linecap="round" stroke-linejoin="round"/><path d="M110.264 103.74s-.744-1.666 1.085-3.84l.078-.092c.156-.18.297-.354.428-.485 1.248-1.372 1.418-1.156 2.588-.855.369.092.746.151 1.127.176.673.05 2.162.319 2.927 1.726 0 0 1.102 1.665.206 3.09a7.31 7.31 0 00-.404.743c-.28.59-.826 1.542-1.446 1.574" stroke="#626368" stroke-width=".792" stroke-linecap="round" stroke-linejoin="round"/><path d="M111.855 99.324s-.397-2.585.936-4.484c0 0-.039-2.097 2.598-2.288.145 0 .29-.028.432-.053.883-.166 4.505-.665 5.366 2.122.186.655.186 1.35 0 2.005-.372 1.414-1.294 4.487-2.29 4.632" stroke="#626368" stroke-width=".792" stroke-linecap="round" stroke-linejoin="round"/><path d="M114.173 92.834s-1.506-2.277.291-4.059a3.633 3.633 0 011.772-.93 4.772 4.772 0 011.63-.095.3.3 0 00.241-.068c.464-.406 2.481-1.945 4.544-.212.401.327.706.756.882 1.241.33.92.585 2.638-.829 4.675 0 0-1.032 1.393-1.609 1" stroke="#626368" stroke-width=".792" stroke-linecap="round" stroke-linejoin="round"/><path d="M115.747 88.906s.769.078 1.255 1.372c0 0 .354-1.902 1.517-1.82m2.852-.804s.202 3.109-2.63 2.624m-3.643 3.957s1.091.605 1.091 1.453c0 0 1.064-1.768 1.538-1.453m-1.538 1.454s-.202 1.414-1.091 1.495m0-1.252s.623-1 1.042-.562m3.612-.53s-.422 2.666-2.619 2.747m-3.552 1.857s.709-.043.709.802m.971-.318s-2.268.707-2.024 1.344m3.895-.672s-.9 2.801-2.034 2.154m-1.878 2.301s-2.006.562-1.602 2.422m.237-2.867s.209 2.122-1.063 1.98m4.306-1.535s-.602 2.475-1.878 2.787m-5.044.848s.404 1.415-.971 1.768m.816-.537s.843-.908 1.29-.505m1.499.162s-.78 1.977-2.577 1.818m-5.844 1.619s1.268-2.373 2.101-2.32m-27.523-.031a8.154 8.154 0 012.03 2.351m-5.706-4.325a2.438 2.438 0 00.95 1.8m-.734-.912s-.88-.524-1.014 0m-2.076-.117s.131 2.157 2.584 2.196m-5.029-7.047s2.225 1.694 1.772 2.868m-.501-2.868s-.928 1.252 1.174 1.436m-4.207-.991s.323 2.341 1.772 2.787m-.011-8.72s-1.68.668.181 2.149m-.85-1.074s-.89-.753-1.092-.269m-2.112.672s.857 1.832 1.91 2.033M59.9 87.654s-.159 3.349 3.027 2.705m2.798-1.311s-.9.403-.674 1.12c.227.718-2.442-1.711-2.442-1.711m3.601 8.727c-.185-1.06-2.368-2.988-2.368-2.988m-1.761 1.061s.103 2.026 2.084 2.33m2.045-3.391s-.17 1.528-.904 1.397m25.578-5.032s-1.418 9.194 0 15.704" stroke="#626368" stroke-width=".792" stroke-linecap="round" stroke-linejoin="round"/><path d="M71.118 85.214s-5.67 2.122 2.92 17.419c0 0 6.252 10.813 16.846 10.382 0 0 10.388.601 17.193-9.738.395-.6.728-1.237.996-1.903 1.339-3.317 5.195-14.07-.408-15.739M90.466 33.627a7.738 7.738 0 000-4.48m-3.314 3.875s0-2.92-1.705-3.03c0 0-10.3.092-16.406 8.04 0 0-2.662 2.678.326 4.16m-2.611 2.581s-.245-2.67-1.928-1.62c0 0-8.333 5.251-9.669 18.939m38.154-29.798s.708-2.907 4.465-.909c0 0 11.834 4.3 13.567 8.664 0 0-.032 1.205-1.417 2.054m3.43 2.306s.546-2.423 3.229 0c0 0 8.386 6.863 10.328 19.42m-1.822 5.724s.16 8.717-6.337 6.224a5.584 5.584 0 01-1.478-.863c-1.13-.909-3.594-2.656-3.92-2.765m-52.28 3.218s4.161 3.801 6.894-2.677a24.84 24.84 0 012.002-3.511m20.864 57.478s-.163 3.89.046 4.364m-.394-6.302s-1.208 4.597-10.196 1.938c0 0-17.642-6.418-13.375-11.99m-1.393-1.383s-3.165 2.323-7.616-6.687c0 0-4.207-10.548-4.328-12.143" stroke="#626368" stroke-width=".792" stroke-linecap="round" stroke-linejoin="round"/><path d="M56.537 89.033c.84-3.998 4.69-4.393 6.833-3.827 1.608 0 6.03 2.126 6.03 5.527 0 3.402-2.814 5.953-6.834 5.102-4.02-.85-6.833-2.976-6.03-6.802z" stroke="#2E78C5" stroke-width=".7"/><path d="M92.313 124.84s.046 3.999 7.368 1.092c0 0 17.012-5.845 13.868-10.739m2.07-1.909s5.71 7.924 14.209-15.697c0 0 1.58-4.664 0-7.425M90.838 46.34s.524 6.46.046 9.621m.163 2.772v1.605m.004 1.27s-.17 2.019 0 2.22M80.315 50.954s.954-.085 1.854-.114c1.087-.034 2.17-.16 3.236-.374h.046a20.662 20.662 0 012.665-.404m-7.305 4.12s.823-.032 1.602 0a14.95 14.95 0 002.606-.159l.297-.05a15.824 15.824 0 012.343-.264m5.993-.521s.808.17 1.56.375c.824.23 1.667.386 2.52.467l.354.028c.785.046 1.566.15 2.336.312m-6.94-4.495s.936.212 1.8.456c1.044.298 2.112.508 3.19.626h.06a20.8 20.8 0 012.666.42" stroke="#626368" stroke-width=".792" stroke-linecap="round" stroke-linejoin="round"/><path d="M90.466 20.303s-19.847-.729-30.125 13.324c0 0-7.72 12.022-12.575 14.19 0 0-18.7 7.652-31.933-1.21l.415 4.184 2.984 30.321-2.913 32.532s20.155-5.909 33.63 7.426c0 0 16.658 19.512 41.113 18.543 0 0 21.063.233 35.271-15.792a13.024 13.024 0 011.949-1.821c3.754-2.787 15.425-9.275 36.523-2.652l-5.989-35.835 8.084-39.79s-31.682 8.942-43.441-4.736c0 0-14.56-20.622-32.993-18.684zM28.652 64.928s2.106 4.731 4.21 0m110.327-2.012s2.106 4.731 4.207 0" stroke="#626368" stroke-width=".792" stroke-linecap="round" stroke-linejoin="round"/><path d="M53.582 42.803c3.122-6.977 7.06-13.79 12.656-19.095a35.091 35.091 0 019.449-6.47 12.913 12.913 0 016.897-1.157c2.063.212 4.427 1.51 6.468.94 0 0 8.28-2.05 11.341-.763 0 0 10.396 3.235 15.216 10.827 0 0 6.51 9.975 9.463 13.55m-76.58 79.106s13.358 16.195 20.393 19.915c0 0 10.112 5.732 21 5.658 0 0 13.446 0 22.505-6.542 0 0 8.818-4.724 15.375-13.084 0 0 3.211-4.766 5.794-6.623" stroke="#626368" stroke-width=".792" stroke-linecap="round" stroke-linejoin="round"/><path d="M74.964 86.385a.642.642 0 01-.787.6.645.645 0 01-.213-1.165.645.645 0 01.355-.107.66.66 0 01.645.672zm5.163-.969a.643.643 0 01-.787.6.646.646 0 01-.45-.88.643.643 0 01.592-.392.66.66 0 01.645.672v0zm5.703.969a.643.643 0 01-.788.6.646.646 0 01-.448-.883.644.644 0 01.846-.333.657.657 0 01.39.616v0zm10.526.781a.643.643 0 01-.785.604.646.646 0 01-.453-.88.644.644 0 01.593-.392.66.66 0 01.645.668zm5.533-.668a.643.643 0 01-.785.603.645.645 0 01-.453-.88.644.644 0 01.593-.392.661.661 0 01.645.669zm5.454.668a.641.641 0 01-.785.604.645.645 0 01-.453-.88.645.645 0 01.593-.392.662.662 0 01.645.668v0z" stroke="#626368" stroke-width=".792"/><path d="M234.92 67.834a.352.352 0 01-.619.118.35.35 0 01.082-.512.356.356 0 01.183-.06.41.41 0 01.354.453zm8.11.131a.357.357 0 01-.464.236.35.35 0 01-.23-.29.354.354 0 01.339-.395.416.416 0 01.355.449z" fill="#626368" stroke="#626368" stroke-width=".792" stroke-linecap="round" stroke-linejoin="round"/><path d="M212.167 59.764s4.824 2.83 10.278-11.517c0 0 5.529-16.683 16.406-16.58 0 0 11.898.201 17.044 18.07 0 0 4.182 11.962 9.006 11.226m-26.425-27.465l-.007 20.23m.13 3.915s.202 9.989-.978 10.75m2.701-.594s-1.989-1.949-1.847-3.345m-50.058 64.331s12.323-8.338 18.125-13.671c0 0 10.246-11.605 20.829-10.608 0 0 11.15.601 4.894 7.387a14.792 14.792 0 01-1.935 1.74c-1.8 1.365-6.822 5.477-8.151 9.727-.071.227-.131.453-.209.676-.355 1.025-.886 3.914-.578 5.746m8.457-22.228s-7.06 1.917-9.683 4.891m-3.038 2.669s-.113.304-.903.867m-4.93 4.155s-6.266 4.646-8.24 8.313m85.072.336s-12.323-8.338-18.125-13.671c0 0-10.246-11.605-20.829-10.608 0 0-11.15.601-4.895 7.387a14.865 14.865 0 001.936 1.74c1.8 1.365 6.822 5.477 8.151 9.727.071.227.131.453.209.676.355 1.025.886 3.914.578 5.746m-8.457-22.228s7.06 1.917 9.683 4.891m3.038 2.669s.113.304.903.867m4.93 4.155s6.266 4.646 8.24 8.313" stroke="#626368" stroke-width=".792" stroke-linecap="round" stroke-linejoin="round"/></svg>