<svg width="20" height="20" viewBox="0 0 20 20" fill="none" xmlns="http://www.w3.org/2000/svg">
<circle cx="10" cy="10" r="10" fill="#ADB2C2"/>
<path fill-rule="evenodd" clip-rule="evenodd" d="M5.25 6.84565C4.97386 6.84565 4.75 7.06951 4.75 7.34565V13.6002C4.75 13.8763 4.97386 14.1002 5.25 14.1002H14.75C15.0261 14.1002 15.25 13.8763 15.25 13.6002V7.34565C15.25 7.06951 15.0261 6.84565 14.75 6.84565H12.8269L12.1686 5.91206C12.0749 5.77921 11.9225 5.7002 11.76 5.7002H8.24001C8.07746 5.7002 7.92505 5.77921 7.83138 5.91206L7.17308 6.84565H5.25ZM11.3889 10.4502C11.3889 11.2173 10.7671 11.8391 10 11.8391C9.23294 11.8391 8.61111 11.2173 8.61111 10.4502C8.61111 9.68313 9.23294 9.06131 10 9.06131C10.7671 9.06131 11.3889 9.68313 11.3889 10.4502ZM12.5 10.4502C12.5 11.8309 11.3807 12.9502 10 12.9502C8.61929 12.9502 7.5 11.8309 7.5 10.4502C7.5 9.06948 8.61929 7.9502 10 7.9502C11.3807 7.9502 12.5 9.06948 12.5 10.4502Z" fill="white"/>
</svg>
