<svg width="32" height="32" fill="none" xmlns="http://www.w3.org/2000/svg"><path fill-rule="evenodd" clip-rule="evenodd" d="M2.5 10a2 2 0 012-2h23a2 2 0 012 2v12a2 2 0 01-2 2h-23a2 2 0 01-2-2V10zm2 .75a.25.25 0 01.25-.25h2.5a.25.25 0 01.25.25v2.5a.25.25 0 01-.25.25h-2.5a.25.25 0 01-.25-.25v-2.5zm.25 3.75a.25.25 0 00-.25.25v2.5c0 .138.112.25.25.25h4.5a.25.25 0 00.25-.25v-2.5a.25.25 0 00-.25-.25h-4.5zm2.75 4.25a.25.25 0 01.25-.25h16.5a.25.25 0 01.25.25v2.5a.25.25 0 01-.25.25H7.75a.25.25 0 01-.25-.25v-2.5zm15.25-4.25a.25.25 0 00-.25.25v2.5c0 .138.112.25.25.25h4.5a.25.25 0 00.25-.25v-2.5a.25.25 0 00-.25-.25h-4.5zM8.5 10.75a.25.25 0 01.25-.25h2.5a.25.25 0 01.25.25v2.5a.25.25 0 01-.25.25h-2.5a.25.25 0 01-.25-.25v-2.5zm2.25 3.75a.25.25 0 00-.25.25v2.5c0 .138.112.25.25.25h2.5a.25.25 0 00.25-.25v-2.5a.25.25 0 00-.25-.25h-2.5zm3.75.25a.25.25 0 01.25-.25h2.5a.25.25 0 01.25.25v2.5a.25.25 0 01-.25.25h-2.5a.25.25 0 01-.25-.25v-2.5zm4.25-.25a.25.25 0 00-.25.25v2.5c0 .138.112.25.25.25h2.5a.25.25 0 00.25-.25v-2.5a.25.25 0 00-.25-.25h-2.5zm-6.25-3.75a.25.25 0 01.25-.25h2.5a.25.25 0 01.25.25v2.5a.25.25 0 01-.25.25h-2.5a.25.25 0 01-.25-.25v-2.5zm4.25-.25a.25.25 0 00-.25.25v2.5c0 .138.112.25.25.25h2.5a.25.25 0 00.25-.25v-2.5a.25.25 0 00-.25-.25h-2.5zm3.75.25a.25.25 0 01.25-.25h2.5a.25.25 0 01.25.25v2.5a.25.25 0 01-.25.25h-2.5a.25.25 0 01-.25-.25v-2.5zm4.25-.25a.25.25 0 00-.25.25v2.5c0 .138.112.25.25.25h2.5a.25.25 0 00.25-.25v-2.5a.25.25 0 00-.25-.25h-2.5z" fill="#9FA0A5"/></svg>