<svg width="14" height="14" fill="none" xmlns="http://www.w3.org/2000/svg"><path d="M11.291 7.62a3.85 3.85 0 000-1.24l1.055-.856a.317.317 0 00.068-.397l-1.085-1.86a.317.317 0 00-.379-.137l-1.24.484a4.124 4.124 0 00-1.073-.62L8.414 1.66a.304.304 0 00-.304-.26H5.946a.316.316 0 00-.31.26l-.217 1.334a4.267 4.267 0 00-1.08.62L3.1 3.13a.316.316 0 00-.378.137l-1.085 1.86a.316.316 0 00.074.397l1.048.856a3.9 3.9 0 000 1.24l-1.097.856a.316.316 0 00-.075.397l1.085 1.86a.316.316 0 00.379.137l1.24-.484c.327.258.691.467 1.08.62l.216 1.333a.316.316 0 00.31.26h2.165a.304.304 0 00.303-.26l.224-1.333c.386-.151.748-.36 1.073-.62l1.24.484a.317.317 0 00.378-.137l1.085-1.86a.316.316 0 00-.068-.397l-1.005-.856zm-4.29 1.346a1.966 1.966 0 110-3.932 1.966 1.966 0 010 3.932z" fill="#9FA0A5"/></svg>