<svg width="18" height="18" fill="none" xmlns="http://www.w3.org/2000/svg"><path d="M14.518 9.797a5.012 5.012 0 000-1.595l1.355-1.1a.407.407 0 00.088-.51l-1.395-2.393a.407.407 0 00-.487-.175l-1.594.622a5.302 5.302 0 00-1.38-.797l-.287-1.715a.39.39 0 00-.39-.335H7.645a.407.407 0 00-.399.335L6.967 3.85a5.486 5.486 0 00-1.387.797l-1.595-.622a.407.407 0 00-.486.175L2.103 6.591a.407.407 0 00.096.51l1.347 1.101a5.015 5.015 0 000 1.595l-1.41 1.1a.407.407 0 00-.097.51L3.435 13.8a.407.407 0 00.486.176l1.595-.622c.42.332.888.6 1.387.797l.28 1.714a.406.406 0 00.398.335h2.783a.39.39 0 00.39-.335l.287-1.714a5.304 5.304 0 001.38-.797l1.595.622a.407.407 0 00.486-.176l1.395-2.392a.406.406 0 00-.088-.51l-1.291-1.1zM9 11.527a2.527 2.527 0 110-5.054 2.527 2.527 0 010 5.054z" fill="#9FA0A5"/></svg>