<svg width="32" height="32" viewBox="0 0 32 32" fill="none" xmlns="http://www.w3.org/2000/svg">
<path d="M21.0066 15.1068C21.1787 15.2255 21.3457 15.3525 21.5071 15.4876C22.7222 16.5048 23.5402 17.9176 23.8176 19.4778L25.5168 19.1757C25.1685 17.2161 24.1411 15.4419 22.615 14.1643C21.089 12.8868 19.1615 12.1874 17.1713 12.189C15.685 12.1895 14.2249 12.5802 12.9368 13.3218C12.1093 13.7982 11.3714 14.4087 10.7515 15.1252L8.74267 13.0863C8.68071 13.026 8.60231 12.9854 8.51735 12.9697C8.43238 12.954 8.34465 12.9638 8.26523 12.9979C8.18581 13.0319 8.11825 13.0887 8.07105 13.161C8.02385 13.2334 7.99914 13.3181 8.00002 13.4045V18.7092C8.00002 18.8393 8.05172 18.9641 8.14374 19.0561C8.23576 19.1481 8.36056 19.1999 8.4907 19.1999H13.7954C13.8736 19.1873 13.9469 19.1538 14.0076 19.1029C14.0682 19.0519 14.1139 18.9856 14.1398 18.9107C14.1656 18.8359 14.1707 18.7553 14.1544 18.6778C14.1381 18.6003 14.1011 18.5287 14.0473 18.4706L11.9675 16.3595C12.4793 15.7431 13.0984 15.2202 13.7979 14.8175C14.8244 14.2265 15.9884 13.9152 17.1728 13.9148C18.547 13.9137 19.8835 14.3323 21.0066 15.1068Z" fill="#454548"/>
</svg>
