<svg width="32" height="32" viewBox="0 0 32 32" fill="none" xmlns="http://www.w3.org/2000/svg">
<path fill-rule="evenodd" clip-rule="evenodd" d="M13.8643 3.75452L17.2072 6.41877C17.3756 6.55295 17.3756 6.81278 17.2072 6.94696L13.8643 9.6112C13.6486 9.7831 13.3335 9.62632 13.3335 9.3471V7.33333H11.9998C9.42251 7.33333 7.33317 9.42267 7.33317 12V14.6667H5.99984V12C5.99984 8.68629 8.68613 6 11.9998 6H13.3335V4.01862C13.3335 3.7394 13.6486 3.58263 13.8643 3.75452ZM24 13C24 12.4477 23.5523 12 23 12H12C11.4477 12 11 12.4477 11 13V24C11 24.5523 11.4477 25 12 25H23C23.5523 25 24 24.5523 24 24V13Z" fill="#6A6F81"/>
</svg>
