<svg width="32" height="32" viewBox="0 0 32 32" fill="none" xmlns="http://www.w3.org/2000/svg">
<path fill-rule="evenodd" clip-rule="evenodd" d="M8.52246 13.6738L8.52522 13.6688L8.54466 13.6337C8.56309 13.6009 8.59229 13.5495 8.63166 13.4827C8.71052 13.3489 8.82946 13.154 8.98378 12.9212C9.29507 12.4517 9.7374 11.8471 10.2719 11.2797C11.4311 10.0492 12.5923 9.43075 13.6264 9.70846C13.962 9.79858 14.2968 10.1192 14.3245 10.6601C14.3523 11.2053 14.0606 12.2794 12.4004 13.6342C11.2462 14.576 10.0105 15.7997 9.29466 17.2205C8.5442 18.7101 8.34519 20.4885 9.45208 22.2352C10.3268 23.6155 11.8126 24.2516 13.3565 24.3575C14.8941 24.463 16.6039 24.0637 18.24 23.2629C21.526 21.6546 24.7562 18.311 26.0568 13.3812C26.247 12.6603 25.8167 11.9217 25.0958 11.7315C24.3749 11.5413 23.6363 11.9715 23.4461 12.6924C22.3545 16.83 19.6674 19.5582 17.053 20.8378C15.7389 21.481 14.5027 21.7298 13.5413 21.6639C12.5863 21.5983 12.0201 21.2435 11.7327 20.7899C11.2473 20.0239 11.2781 19.2846 11.7059 18.4353C12.1684 17.5173 13.0596 16.5811 14.1074 15.7261C16.1446 14.0637 17.1088 12.2403 17.0209 10.5222C16.9329 8.79977 15.7803 7.49123 14.3267 7.10086C11.7203 6.40092 9.55941 8.09845 8.30663 9.4283C7.63515 10.1411 7.09901 10.8778 6.73333 11.4295C6.54916 11.7073 6.40499 11.9431 6.30537 12.1122C6.2555 12.1968 6.2166 12.2651 6.18926 12.3139C6.17558 12.3383 6.16477 12.3579 6.15691 12.3722L6.14734 12.3898L6.14422 12.3956L6.14308 12.3977C6.14287 12.3981 6.14222 12.3993 7.33234 13.0366L6.14222 12.3993C5.79026 13.0566 6.03778 13.8747 6.69506 14.2267C7.35215 14.5785 8.17032 14.3307 8.52246 13.6738Z" fill="#9FA0A5"/>
</svg>
