<svg width="32" height="32" viewBox="0 0 32 32" fill="none" xmlns="http://www.w3.org/2000/svg">
<path d="M21.0066 15.1071C21.1787 15.2257 21.3457 15.3527 21.5071 15.4879C22.7222 16.5051 23.5402 17.9178 23.8176 19.478L25.5168 19.1759C25.1685 17.2164 24.1411 15.4421 22.615 14.1645C21.089 12.887 19.1615 12.1876 17.1713 12.1892C15.685 12.1898 14.2249 12.5805 12.9368 13.322C12.1093 13.7984 11.3714 14.409 10.7515 15.1254L8.74267 13.0865C8.68071 13.0263 8.60231 12.9857 8.51735 12.9699C8.43238 12.9542 8.34465 12.9641 8.26523 12.9981C8.18581 13.0321 8.11825 13.0889 8.07105 13.1613C8.02385 13.2337 7.99914 13.3184 8.00002 13.4048V18.7094C8.00002 18.8396 8.05172 18.9643 8.14374 19.0563C8.23576 19.1484 8.36056 19.2001 8.4907 19.2001H13.7954C13.8736 19.1876 13.9469 19.1541 14.0076 19.1031C14.0682 19.0522 14.1139 18.9858 14.1398 18.911C14.1656 18.8361 14.1707 18.7555 14.1544 18.678C14.1381 18.6005 14.1011 18.5289 14.0473 18.4708L11.9675 16.3598C12.4793 15.7434 13.0984 15.2204 13.7979 14.8177C14.8244 14.2267 15.9884 13.9155 17.1728 13.9151C18.547 13.9139 19.8835 14.3325 21.0066 15.1071Z" fill="#6A6F81"/>
</svg>
