<svg width="32" height="32" viewBox="0 0 32 32" fill="none" xmlns="http://www.w3.org/2000/svg">
<path d="M10.9931 15.1073C10.8211 15.226 10.654 15.353 10.4926 15.4881C9.27753 16.5053 8.45951 17.918 8.18212 19.4783L6.48291 19.1762C6.83129 17.2166 7.85867 15.4424 9.38476 14.1648C10.9107 12.8873 12.8383 12.1879 14.8284 12.1895C16.3147 12.19 17.7749 12.5807 19.0629 13.3222C19.8905 13.7987 20.6284 14.4092 21.2483 15.1257L23.2571 13.0867C23.319 13.0265 23.3974 12.9859 23.4824 12.9702C23.5674 12.9544 23.6551 12.9643 23.7345 12.9984C23.8139 13.0324 23.8815 13.0892 23.9287 13.1615C23.9759 13.2339 24.0006 13.3186 23.9997 13.405V18.7097C23.9997 18.8398 23.948 18.9646 23.856 19.0566C23.764 19.1486 23.6392 19.2003 23.5091 19.2003H18.2044C18.1262 19.1878 18.0528 19.1543 17.9922 19.1034C17.9315 19.0524 17.8858 18.9861 17.86 18.9112C17.8341 18.8363 17.829 18.7558 17.8453 18.6783C17.8616 18.6007 17.8986 18.5292 17.9524 18.471L20.0322 16.36C19.5205 15.7436 18.9013 15.2206 18.2018 14.818C17.1753 14.227 16.0113 13.9157 14.8269 13.9153C13.4528 13.9141 12.1163 14.3327 10.9931 15.1073Z" fill="#454548"/>
</svg>
