<svg width="32" height="32" viewBox="0 0 32 32" fill="none" xmlns="http://www.w3.org/2000/svg">
<path fill-rule="evenodd" clip-rule="evenodd" d="M18.1357 3.75452L14.7928 6.41877C14.6244 6.55295 14.6244 6.81278 14.7928 6.94696L18.1357 9.6112C18.3514 9.7831 18.6665 9.62632 18.6665 9.3471V7.33333H20.0002C22.5775 7.33333 24.6668 9.42267 24.6668 12V14.6667H26.0002V12C26.0002 8.68629 23.3139 6 20.0002 6H18.6665V4.01862C18.6665 3.7394 18.3514 3.58263 18.1357 3.75452ZM8 13.3333C8 12.597 8.59695 12 9.33333 12H19.6667C20.403 12 21 12.597 21 13.3333V23.6667C21 24.403 20.403 25 19.6667 25H9.33333C8.59695 25 8 24.403 8 23.6667V13.3333Z" fill="#6A6F81"/>
</svg>
