<svg width="32" height="32" viewBox="0 0 32 32" fill="none" xmlns="http://www.w3.org/2000/svg">
<path d="M10.9931 15.1071C10.8211 15.2257 10.654 15.3527 10.4926 15.4879C9.27753 16.5051 8.45951 17.9178 8.18212 19.478L6.48291 19.1759C6.83129 17.2164 7.85867 15.4421 9.38476 14.1645C10.9107 12.887 12.8383 12.1876 14.8284 12.1892C16.3147 12.1898 17.7749 12.5805 19.0629 13.322C19.8905 13.7984 20.6284 14.409 21.2483 15.1254L23.2571 13.0865C23.319 13.0263 23.3974 12.9857 23.4824 12.9699C23.5674 12.9542 23.6551 12.9641 23.7345 12.9981C23.8139 13.0321 23.8815 13.0889 23.9287 13.1613C23.9759 13.2337 24.0006 13.3184 23.9997 13.4048V18.7094C23.9997 18.8396 23.948 18.9643 23.856 19.0563C23.764 19.1484 23.6392 19.2001 23.5091 19.2001H18.2044C18.1262 19.1876 18.0528 19.1541 17.9922 19.1031C17.9315 19.0522 17.8858 18.9858 17.86 18.911C17.8341 18.8361 17.829 18.7555 17.8453 18.678C17.8616 18.6005 17.8986 18.5289 17.9524 18.4708L20.0322 16.3598C19.5205 15.7434 18.9013 15.2204 18.2018 14.8177C17.1753 14.2267 16.0113 13.9155 14.8269 13.9151C13.4528 13.9139 12.1163 14.3325 10.9931 15.1071Z" fill="#ADB2C2"/>
</svg>
