<svg width="32" height="32" viewBox="0 0 32 32" fill="none" xmlns="http://www.w3.org/2000/svg">
<path d="M25.3335 19.3333C25.3335 22.647 22.6472 25.3333 19.3335 25.3333C16.0198 25.3333 13.3335 22.647 13.3335 19.3333C13.3335 16.0195 16.0198 13.3333 19.3335 13.3333C22.6472 13.3333 25.3335 16.0195 25.3335 19.3333Z" fill="#5C81FF"/>
<path fill-rule="evenodd" clip-rule="evenodd" d="M7.5 7C7.22386 7 7 7.22386 7 7.5V18.5C7 18.7761 7.22386 19 7.5 19H11.7406C11.9102 15.0678 15.0678 11.9102 19 11.7404V7.5C19 7.22386 18.7761 7 18.5 7H7.5ZM19 13.3423C15.9517 13.5093 13.5094 15.9517 13.3425 19H18.5C18.7761 19 19 18.7761 19 18.5V13.3423Z" fill="#5C81FF"/>
</svg>
