<svg width="24" height="24" fill="none" xmlns="http://www.w3.org/2000/svg"><path fill-rule="evenodd" clip-rule="evenodd" d="M5.093 5.552L7.6 3.554a.246.246 0 01.398.198V5.25h8V3.752c0-.21.236-.327.398-.198l2.507 1.998c.127.1.127.296 0 .396l-2.507 1.999a.246.246 0 01-.398-.199V6.25h-8v1.498c0 .21-.236.327-.398.199l-2.507-2a.254.254 0 010-.396zM13.266 19h4.665a.667.667 0 00.574-1.006L13.84 10.1c-.345-.585-1.24-.34-1.24.339v7.894c0 .369.298.667.666.667zm-2.532 0H6.069a.667.667 0 01-.574-1.006L10.16 10.1c.345-.584 1.24-.34 1.24.339v7.895a.667.667 0 01-.666.666z" fill="#ADB2C2"/></svg>