<svg width="24" height="24" fill="none" xmlns="http://www.w3.org/2000/svg"><path fill-rule="evenodd" clip-rule="evenodd" d="M5.553 18.906l-1.998-2.507A.246.246 0 013.753 16H5.25V8H3.753a.246.246 0 01-.198-.398l1.998-2.507a.254.254 0 01.396 0l1.998 2.507A.246.246 0 017.75 8H6.251v8h1.498c.21 0 .327.237.198.399L5.95 18.906a.254.254 0 01-.396 0zM19 13.266v4.665a.667.667 0 01-1.006.574L10.1 13.84c-.584-.345-.339-1.24.34-1.24h7.894c.369 0 .667.298.667.666zm0-2.534V6.067a.667.667 0 00-1.006-.573L10.1 10.159c-.584.345-.339 1.24.34 1.24h7.894a.667.667 0 00.667-.666z" fill="#ADB2C2"/></svg>