<svg width="32" height="32" fill="none" xmlns="http://www.w3.org/2000/svg"><path fill-rule="evenodd" clip-rule="evenodd" d="M3 5h20a1 1 0 011 1v14.667a1 1 0 01-1 1H8.26a1 1 0 00-.487.125l-4.287 2.383A1 1 0 012 23.3V6a1 1 0 011-1zm10 10a1.5 1.5 0 100-3 1.5 1.5 0 000 3zm6.5-1.5a1.5 1.5 0 11-3 0 1.5 1.5 0 013 0zM8 15a1.5 1.5 0 100-3 1.5 1.5 0 000 3z" fill="#5C81FF"/><path d="M29 12v16.812a.1.1 0 01-.156.083L24.8 26.171a1 1 0 00-.56-.171H11a1 1 0 01-1-1v-.75h14.5a2 2 0 002-2V11H28a1 1 0 011 1z" fill="#5C81FF"/><path fill-rule="evenodd" clip-rule="evenodd" d="M28 11.75a.25.25 0 01.25.25v15.59l-3.032-2.041a1.75 1.75 0 00-.978-.299H11a.25.25 0 01-.25-.25H24.5a2.75 2.75 0 002.75-2.75v-10.5H28zm1.263 16.523zM29.75 12A1.75 1.75 0 0028 10.25h-2.25v12c0 .69-.56 1.25-1.25 1.25H9.25V25c0 .966.784 1.75 1.75 1.75h13.24a.25.25 0 01.14.043l4.045 2.724a.85.85 0 001.325-.705V12z" fill="#5C81FF"/></svg>