<svg width="32" height="32" fill="none" xmlns="http://www.w3.org/2000/svg"><path fill-rule="evenodd" clip-rule="evenodd" d="M3.5 22.45V6.5h19v13.667H8.26a2.5 2.5 0 00-1.215.314L3.5 22.451zM23 5H3a1 1 0 00-1 1v17.3a1 1 0 001.486.875l4.287-2.383a1 1 0 01.486-.125H23a1 1 0 001-1V6a1 1 0 00-1-1zM13 15a1.5 1.5 0 100-3 1.5 1.5 0 000 3zm5 0a1.5 1.5 0 100-3 1.5 1.5 0 000 3zM8 15a1.5 1.5 0 100-3 1.5 1.5 0 000 3zm20.25-3a.25.25 0 00-.25-.25h-2v-1.5h2c.966 0 1.75.784 1.75 1.75v16.812a.85.85 0 01-1.325.705l-4.045-2.724a.25.25 0 00-.14-.043H11A1.75 1.75 0 019.25 25v-1h1.5v1c0 .138.112.25.25.25h13.24c.348 0 .689.104.978.299l3.032 2.042V12z" fill="#6A6F81"/></svg>