<svg width="32" height="32" fill="none" xmlns="http://www.w3.org/2000/svg"><path fill-rule="evenodd" clip-rule="evenodd" d="M5.5 26.5v-5.008l5.297-6.112a.25.25 0 01.38.004L20.449 26.5H5.5zM4 27v-5.934l-.066-.057.066-.077V5a1 1 0 011-1h22a1 1 0 011 1v22a1 1 0 01-1 1H5a1 1 0 01-1-1zm5.663-12.602L5.5 19.2V5.5h21v16.335l-3.24-3.563a1.75 1.75 0 00-2.532-.06l-2.857 2.856-5.541-6.645a1.75 1.75 0 00-2.667-.025zm9.173 7.827l3.565 4.275H26.5v-2.44a.763.763 0 01-.055-.055l-4.294-4.724a.25.25 0 00-.362-.009l-2.953 2.953zM22.5 11a1.5 1.5 0 11-3 0 1.5 1.5 0 013 0zm1.5 0a3 3 0 11-6 0 3 3 0 016 0z" fill="#9FA0A5"/></svg>