<svg width="32" height="32" fill="none" xmlns="http://www.w3.org/2000/svg"><path fill-rule="evenodd" clip-rule="evenodd" d="M10 4.75H5a.25.25 0 00-.25.25v5h-1.5V5c0-.966.784-1.75 1.75-1.75h5v1.5zm17 0h-5v-1.5h5c.966 0 1.75.784 1.75 1.75v5h-1.5V5a.25.25 0 00-.25-.25zm-16.118 5.686c-.491.779-.47 1.661-.154 2.83.11.404.232.768.363 1.16.067.199.136.405.207.626.184.574.396 1.302.396 2.014 0 1.423.146 3.024.449 4.225.062.247.127.46.191.64a20.4 20.4 0 00.336-1.26l.012-.05c.168-.691.388-1.591.754-2.315.385-.764 1.161-1.754 2.566-1.754.647 0 1.22.224 1.678.614.422.361.685.813.858 1.2.298.671.47 1.505.604 2.15l.039.187c.147.7.268 1.195.42 1.532a5.25 5.25 0 00.312-.938c.292-1.18.421-2.771.421-4.23 0-.704.211-1.435.391-2.009.065-.207.129-.402.19-.592h.001c.134-.412.26-.797.37-1.217.312-1.199.308-2.059-.176-2.768-.44-.645-.756-.84-.913-.905-.14-.057-.313-.08-.647-.006-.28.061-.532.152-.877.275-.158.057-.334.12-.541.19-.581.199-1.333.421-2.18.421-.845 0-1.602-.23-2.182-.43-.206-.071-.382-.136-.54-.193a7.272 7.272 0 00-.891-.285c-.34-.077-.503-.05-.62 0-.132.056-.427.238-.837.888zm11.467-.8c1.164 1.706.518 3.686-.022 5.342-.259.793-.493 1.51-.493 2.088 0 3.04-.528 6.903-2.137 6.903-1.367 0-1.7-1.591-2.019-3.123-.296-1.422-.582-2.794-1.676-2.794-1.149 0-1.52 1.521-1.887 3.025-.36 1.47-.715 2.923-1.788 2.923-1.526 0-2.133-3.936-2.133-6.934 0-.596-.242-1.318-.508-2.112-.544-1.624-1.189-3.549-.073-5.318 1.393-2.209 2.75-1.715 4.217-1.182.679.247 1.381.502 2.122.502.752 0 1.452-.25 2.127-.492 1.454-.52 2.788-.999 4.27 1.172zM12.035 22.612s.003-.005.01-.011a.05.05 0 01-.01.01zm.637-.004a.049.049 0 01.007.007.04.04 0 01-.007-.007zM27 27.25h-5v1.5h5A1.75 1.75 0 0028.75 27v-5h-1.5v5a.25.25 0 01-.25.25zm-17 0H5a.25.25 0 01-.25-.25v-5h-1.5v5c0 .966.784 1.75 1.75 1.75h5v-1.5z" fill="#9FA0A5"/></svg>