<svg width="32" height="32" fill="none" xmlns="http://www.w3.org/2000/svg"><path fill-rule="evenodd" clip-rule="evenodd" d="M25.449 6.513a7.5 7.5 0 00-1.438 14.922c-.343 3.902-1.284 7.514-3.202 7.514-2.148 0-2.67-2.585-3.172-5.075-.465-2.31-.915-4.539-2.633-4.539-1.806 0-2.39 2.472-2.967 4.915-.564 2.39-1.122 4.75-2.808 4.75-2.399 0-3.353-6.396-3.353-11.267 0-.97-.38-2.143-.798-3.433-.855-2.639-1.868-5.766-.115-8.642 2.188-3.588 4.322-2.786 6.627-1.92 1.067.401 2.17.816 3.334.816 1.183 0 2.283-.407 3.343-.8 2.285-.846 4.381-1.623 6.71 1.904.186.281.342.566.472.855z" fill="#637EDD"/><path fill-rule="evenodd" clip-rule="evenodd" d="M25 20a6 6 0 100-12 6 6 0 000 12zm-.053-3.963l3.614-3.523-1.047-1.074-3.09 3.013-1.937-1.888-1.047 1.074 2.46 2.398a.75.75 0 001.047 0z" fill="#637EDD"/></svg>