<svg width="32" height="32" fill="none" xmlns="http://www.w3.org/2000/svg"><path fill-rule="evenodd" clip-rule="evenodd" d="M6.244 6.44c.707-1.16 1.294-1.612 1.712-1.795.396-.174.838-.194 1.469-.047.497.116.97.294 1.55.512.24.09.5.188.786.29.892.32 1.975.654 3.163.654 1.196 0 2.274-.325 3.165-.639.288-.101.547-.197.787-.286.572-.212 1.037-.384 1.53-.496.621-.142 1.075-.126 1.499.055.448.19 1.064.652 1.82 1.796.323.49.533 1.005.652 1.548a6 6 0 00-1.746 11.482c-.079 1.885-.285 3.794-.653 5.33-.246 1.025-.537 1.773-.834 2.23-.144.22-.256.32-.312.358a.22.22 0 01-.028.017c-.2 0-.304-.05-.389-.114-.109-.082-.258-.246-.422-.57-.35-.686-.58-1.678-.831-2.92l-.06-.298c-.214-1.068-.465-2.316-.89-3.303-.477-1.108-1.416-2.409-3.208-2.409-1.757 0-2.743 1.258-3.277 2.352-.526 1.077-.85 2.447-1.122 3.602l-.008.034c-.299 1.263-.545 2.298-.888 3.033-.166.355-.305.528-.39.602a.206.206 0 01-.051.037c-.05-.035-.155-.13-.307-.372-.3-.476-.597-1.247-.85-2.285-.502-2.054-.735-4.743-.735-7.105 0-.989-.288-2.04-.577-2.973a76.331 76.331 0 00-.31-.973 35.48 35.48 0 01-.597-1.973c-.521-1.987-.631-3.762.352-5.375zm18.734-.782c.511.776.8 1.587.932 2.41a6.001 6.001 0 01-1.797 11.867c-.22 4.421-1.14 9.014-3.304 9.014-2.148 0-2.67-2.585-3.172-5.075-.465-2.31-.915-4.539-2.633-4.539-1.806 0-2.39 2.472-2.967 4.915-.564 2.39-1.122 4.75-2.808 4.75-2.399 0-3.353-6.396-3.353-11.267 0-.97-.38-2.143-.798-3.433-.855-2.639-1.868-5.766-.115-8.642 2.188-3.588 4.322-2.786 6.627-1.92 1.067.401 2.17.816 3.334.816 1.183 0 2.283-.407 3.343-.8 2.285-.846 4.381-1.623 6.71 1.904zM9.3 27.513c0 .001-.005 0-.016-.007.011.003.017.006.017.007zM25 18.5a4.5 4.5 0 100-9 4.5 4.5 0 000 9zm-.053-2.463l3.614-3.523-1.047-1.074-3.09 3.013-1.937-1.888-1.047 1.074 2.46 2.398a.75.75 0 001.047 0z" fill="#9FA0A5"/></svg>