<svg width="32" height="32" fill="none" xmlns="http://www.w3.org/2000/svg"><path fill-rule="evenodd" clip-rule="evenodd" d="M5 4.75h5v-1.5H5A1.75 1.75 0 003.25 5v5h1.5V5A.25.25 0 015 4.75zm22 0h-5v-1.5h5c.966 0 1.75.784 1.75 1.75v5h-1.5V5a.25.25 0 00-.25-.25zm-5 22.5h5a.25.25 0 00.25-.25v-5h1.5v5A1.75 1.75 0 0127 28.75h-5v-1.5zm-17 0h5v1.5H5A1.75 1.75 0 013.25 27v-5h1.5v5c0 .138.112.25.25.25zm14.697-3.281c1.609 0 2.137-3.862 2.137-6.903 0-.578.234-1.295.493-2.088.54-1.656 1.186-3.636.022-5.342-1.482-2.17-2.816-1.693-4.27-1.172-.675.242-1.375.492-2.127.492-.74 0-1.443-.255-2.122-.502-1.467-.533-2.825-1.027-4.217 1.182-1.116 1.77-.471 3.694.073 5.318.266.794.508 1.516.508 2.112 0 2.998.607 6.934 2.133 6.934 1.073 0 1.428-1.453 1.787-2.923.368-1.504.74-3.025 1.888-3.025 1.094 0 1.38 1.372 1.676 2.794.32 1.532.651 3.123 2.019 3.123z" fill="#637EDD"/></svg>