<svg width="32" height="32" fill="none" xmlns="http://www.w3.org/2000/svg"><path fill-rule="evenodd" clip-rule="evenodd" d="M5.066 4a1 1 0 00-1 1v15.932l5.664-6.534a1.75 1.75 0 012.666.025l5.542 6.645 2.857-2.857a1.75 1.75 0 012.532.06l4.74 5.214V5a1 1 0 00-1-1h-22zm23 19.605l-1.05.954-4.799-5.278a.25.25 0 00-.362-.009l-2.953 2.953 4 4.795-1.153.96-10.505-12.596a.25.25 0 00-.38-.004l-5.73 6.611-1.068-.925V27a1 1 0 001 1h22a1 1 0 001-1v-3.395zm-7-11.105a1.5 1.5 0 100-3 1.5 1.5 0 000 3zm0 1.5a3 3 0 100-6 3 3 0 000 6z" fill="#637EDD"/><path fill-rule="evenodd" clip-rule="evenodd" d="M5.566 5.5v21h21v-21h-21zm-.5-1.5a1 1 0 00-1 1v22a1 1 0 001 1h22a1 1 0 001-1V5a1 1 0 00-1-1h-22z" fill="#637EDD"/></svg>