<svg width="32" height="32" fill="none" xmlns="http://www.w3.org/2000/svg"><path fill-rule="evenodd" clip-rule="evenodd" d="M7.1 3.25a.85.85 0 00-.85.85v16.15H3.1a.85.85 0 00-.85.85V24A4.75 4.75 0 007 28.75h16A4.75 4.75 0 0027.75 24V4.1a.85.85 0 00-.85-.85H7.1zm15.9 24A3.25 3.25 0 0026.25 24V4.75H7.75v15.5h11.068c.47 0 .85.38.85.85V24a3.25 3.25 0 003.25 3.25H23zm-3.546 0A4.734 4.734 0 0118.168 24v-2.25H3.75V24A3.25 3.25 0 007 27.25h12.454zM23 10.75H11v-1.5h12v1.5zm-12 5h12v-1.5H11v1.5z" fill="#6A6F81"/></svg>