<svg width="32" height="32" fill="none" xmlns="http://www.w3.org/2000/svg"><path d="M22.066 9.032c-.7 0-1.267.508-1.267 1.134v5.08a.296.296 0 11-.592 0V8.462c0-.627-.568-1.134-1.268-1.134-.7 0-1.268.507-1.268 1.134v6.782a.296.296 0 01-.592 0v-8.11c0-.627-.568-1.135-1.268-1.135-.7 0-1.267.508-1.267 1.135v8.11a.296.296 0 11-.592 0l-.001-6.782c0-.627-.568-1.134-1.268-1.134-.7 0-1.267.507-1.267 1.134v9.42a.25.25 0 01-.449.153l-1.301-1.694c-.382-.525-1.167-.675-1.754-.333-.588.34-.755 1.043-.374 1.57 0 0 2.475 3.834 3.573 5.532C12.164 24.634 14.49 26 16.904 26c3.858 0 6.264-2.403 6.264-5.371l.166-5.087v-5.376c0-.627-.568-1.134-1.268-1.134z" fill="#9FA0A5"/></svg>