<svg width="32" height="32" fill="none" xmlns="http://www.w3.org/2000/svg"><path fill-rule="evenodd" clip-rule="evenodd" d="M7.021 19.89c.377 5.856 4.561 5.339 6.187 4.804l.31-.103c.753-.254 1.63-.55 2.479-.55.852 0 1.725.295 2.485.552l.304.101c1.62.535 5.804 1.052 6.186-4.803a16.475 16.475 0 00-.151-3.375c-.118-.732-1.614-1.367-3.841-1.755l-.5-1.958h.18a.564.564 0 00-.08-1.125h-.078l-9.594 1.35a.568.568 0 10.157 1.125h.04l-.17.658c-2.21.394-3.677 1.035-3.756 1.772a16.946 16.946 0 00-.158 3.308zM19.192 7.842a1.125 1.125 0 00-1.085-.843h-4.308a1.124 1.124 0 00-1.091.843l-.345 1.339 6.928-.96-.099-.379zm-7.396 3.53l-.153.596 8.319-1.154-.17-.654h.192a.562.562 0 00-.09-1.12h-.084l-8.172 1.205a.57.57 0 00.159 1.126z" fill="#9FA0A5"/></svg>