<svg width="32" height="32" fill="none" xmlns="http://www.w3.org/2000/svg"><path fill-rule="evenodd" clip-rule="evenodd" d="M7.021 19.89c.377 5.856 4.561 5.338 6.187 4.804l.31-.104c.753-.253 1.63-.549 2.479-.549.852 0 1.725.295 2.485.551.104.035.205.07.304.102 1.62.535 5.804 1.052 6.186-4.804a16.475 16.475 0 00-.151-3.375c-.118-.73-1.614-1.367-3.841-1.755l-.5-1.957h.18a.564.564 0 10-.08-1.125h-.078l-9.594 1.35a.568.568 0 00.157 1.125h.04l-.17.658c-2.21.394-3.677 1.035-3.756 1.772a16.946 16.946 0 00-.158 3.307zM19.192 7.841a1.125 1.125 0 00-1.085-.844h-4.308a1.124 1.124 0 00-1.091.844l-.345 1.338 6.928-.96-.099-.378zm-7.396 3.529l-.153.597 8.319-1.154-.17-.654h.192a.56.56 0 00.472-.641.563.563 0 00-.562-.478h-.084l-8.172 1.203a.569.569 0 00.159 1.127z" fill="#6A6F81"/></svg>