<svg width="32" height="32" fill="none" xmlns="http://www.w3.org/2000/svg"><path fill-rule="evenodd" clip-rule="evenodd" d="M7.404 25.207L4.74 21.864a.328.328 0 01.264-.53H7V10.667H5.004a.328.328 0 01-.264-.53l2.664-3.344a.34.34 0 01.528 0l2.664 3.343a.328.328 0 01-.264.53H8.334v10.668h1.998c.28 0 .436.315.264.53l-2.664 3.343a.34.34 0 01-.528 0zm17.93-7.742v6.832a.667.667 0 01-1.005.573l-11.562-6.83c-.584-.345-.339-1.24.34-1.24h11.561c.368 0 .667.298.667.666zm0-2.934V7.7a.667.667 0 00-1.005-.574l-11.562 6.831c-.584.345-.339 1.24.34 1.24h11.561a.667.667 0 00.667-.666z" fill="#9FA0A5"/></svg>