<svg width="32" height="32" fill="none" xmlns="http://www.w3.org/2000/svg"><path fill-rule="evenodd" clip-rule="evenodd" d="M24.979 12.11c-.377-5.856-4.561-5.339-6.187-4.804l-.31.103c-.753.254-1.63.55-2.479.55-.852 0-1.725-.295-2.485-.551-.104-.035-.205-.07-.304-.102-1.62-.535-5.804-1.052-6.187 4.803a16.467 16.467 0 00.152 3.375c.118.732 1.614 1.367 3.841 1.755l.5 1.958h-.18a.564.564 0 00.08 1.125h.078l9.595-1.35a.568.568 0 10-.158-1.125h-.04l.17-.658c2.21-.394 3.677-1.035 3.756-1.772a16.95 16.95 0 00.158-3.308zM12.808 24.158a1.125 1.125 0 001.085.843h4.308a1.124 1.124 0 001.091-.843l.345-1.34-6.928.961.099.378zm7.395-3.53l.154-.596-8.319 1.154.17.654h-.192a.562.562 0 00.09 1.12h.084l8.172-1.205a.57.57 0 00-.159-1.126z" fill="#6A6F81"/></svg>