<svg width="32" height="32" fill="none" xmlns="http://www.w3.org/2000/svg"><path fill-rule="evenodd" clip-rule="evenodd" d="M6.792 7.403l3.343-2.664a.328.328 0 01.531.264V7h10.666V5.003c0-.28.315-.436.53-.264l3.344 2.664a.34.34 0 010 .528l-3.343 2.664a.328.328 0 01-.531-.264V8.334H10.666v1.997c0 .28-.315.436-.53.264L6.791 7.931a.34.34 0 010-.528zm7.745 17.93H7.705a.667.667 0 01-.574-1.005l6.832-11.562c.345-.584 1.24-.339 1.24.34v11.56a.667.667 0 01-.666.668zm2.932 0h6.832a.667.667 0 00.574-1.005l-6.832-11.562c-.345-.584-1.24-.339-1.24.34v11.56c0 .37.298.668.666.668z" fill="#9FA0A5"/></svg>