<svg width="16" height="16" fill="none" xmlns="http://www.w3.org/2000/svg"><mask id="path-1-inside-1_323_1672" fill="#fff"><path fill-rule="evenodd" clip-rule="evenodd" d="M4 2a.667.667 0 011.333 0v1.333h5.334V2A.667.667 0 0112 2v1.333h.667a2 2 0 012 2v1.333H1.334V5.333a2 2 0 012-2H4V2zm10.667 6H1.334v4.666a2 2 0 002 2h9.333a2 2 0 002-2V8z"/></mask><path fill-rule="evenodd" clip-rule="evenodd" d="M4 2a.667.667 0 011.333 0v1.333h5.334V2A.667.667 0 0112 2v1.333h.667a2 2 0 012 2v1.333H1.334V5.333a2 2 0 012-2H4V2zm10.667 6H1.334v4.666a2 2 0 002 2h9.333a2 2 0 002-2V8z" fill="#9FA0A5"/><path d="M5.333 3.333h-1v1h1v-1zm5.334 0v1h1v-1h-1zm1.333 0h-1v1h1v-1zm2.667 3.333v1h1v-1h-1zm-13.333 0h-1v1h1v-1zM4 3.333v1h1v-1H4zM1.334 8V7h-1v1h1zm13.333 0h1V7h-1v1zm-10-7.667C3.747.333 3 1.079 3 2h2c0 .184-.15.333-.333.333v-2zM6.333 2c0-.92-.746-1.667-1.666-1.667v2A.333.333 0 014.333 2h2zm0 1.333V2h-2v1.333h2zm4.334-1H5.333v2h5.334v-2zm1 1V2h-2v1.333h2zm0-1.333c0 .184-.15.333-.333.333v-2c-.92 0-1.667.746-1.667 1.667h2zm-.333.333A.333.333 0 0111 2h2c0-.92-.746-1.667-1.666-1.667v2zM11 2v1.333h2V2h-2zm1.667.333H12v2h.667v-2zm3 3a3 3 0 00-3-3v2a1 1 0 011 1h2zm0 1.333V5.333h-2v1.333h2zm-14.333 1h13.333v-2H1.334v2zm-1-2.333v1.333h2V5.333h-2zm3-3a3 3 0 00-3 3h2a1 1 0 011-1v-2zm.666 0h-.666v2H4v-2zM3 2v1.333h2V2H3zM1.334 9h13.333V7H1.334v2zm1 3.666V8h-2v4.666h2zm1 1a1 1 0 01-1-1h-2a3 3 0 003 3v-2zm9.333 0H3.334v2h9.333v-2zm1-1a1 1 0 01-1 1v2a3 3 0 003-3h-2zm0-4.666v4.666h2V8h-2z" fill="#9FA0A5" mask="url(#path-1-inside-1_323_1672)"/></svg>