<svg width="16" height="16" fill="none" xmlns="http://www.w3.org/2000/svg"><mask id="path-1-inside-1_5_888" fill="#fff"><path fill-rule="evenodd" clip-rule="evenodd" d="M4 2a.667.667 0 011.333 0v1.333h5.334V2A.667.667 0 0112 2v1.333h.667a2 2 0 012 2v1.334H1.333V5.333a2 2 0 012-2H4V2zm10.667 6H1.333v4.667a2 2 0 002 2h9.334a2 2 0 002-2V8z"/></mask><path fill-rule="evenodd" clip-rule="evenodd" d="M4 2a.667.667 0 011.333 0v1.333h5.334V2A.667.667 0 0112 2v1.333h.667a2 2 0 012 2v1.334H1.333V5.333a2 2 0 012-2H4V2zm10.667 6H1.333v4.667a2 2 0 002 2h9.334a2 2 0 002-2V8z" fill="#6A6F81"/><path d="M5.333 3.333h-1v1h1v-1zm5.334 0v1h1v-1h-1zm1.333 0h-1v1h1v-1zm2.667 3.334v1h1v-1h-1zm-13.334 0h-1v1h1v-1zM4 3.333v1h1v-1H4zM1.333 8V7h-1v1h1zm13.334 0h1V7h-1v1zm-10-7.667C3.747.333 3 1.08 3 2h2c0 .184-.15.333-.333.333v-2zM6.333 2c0-.92-.746-1.667-1.666-1.667v2A.333.333 0 014.333 2h2zm0 1.333V2h-2v1.333h2zm4.334-1H5.333v2h5.334v-2zm1 1V2h-2v1.333h2zm0-1.333c0 .184-.15.333-.334.333v-2c-.92 0-1.666.746-1.666 1.667h2zm-.334.333A.333.333 0 0111 2h2c0-.92-.746-1.667-1.667-1.667v2zM11 2v1.333h2V2h-2zm1.667.333H12v2h.667v-2zm3 3a3 3 0 00-3-3v2a1 1 0 011 1h2zm0 1.334V5.333h-2v1.334h2zm-14.334 1h13.334v-2H1.333v2zm-1-2.334v1.334h2V5.333h-2zm3-3a3 3 0 00-3 3h2a1 1 0 011-1v-2zm.667 0h-.667v2H4v-2zM3 2v1.333h2V2H3zM1.333 9h13.334V7H1.333v2zm1 3.667V8h-2v4.667h2zm1 1a1 1 0 01-1-1h-2a3 3 0 003 3v-2zm9.334 0H3.333v2h9.334v-2zm1-1a1 1 0 01-1 1v2a3 3 0 003-3h-2zm0-4.667v4.667h2V8h-2z" fill="#6A6F81" mask="url(#path-1-inside-1_5_888)"/></svg>