<svg width="16" height="16" fill="none" xmlns="http://www.w3.org/2000/svg"><mask id="path-1-inside-1_1_2925" fill="#fff"><path fill-rule="evenodd" clip-rule="evenodd" d="M4 1.867a.667.667 0 011.333 0V3.2h5.334V1.867a.667.667 0 011.333 0V3.2h.667a2 2 0 012 2v1.333H1.333V5.2a2 2 0 012-2H4V1.867zm10.667 6H1.333v4.666a2 2 0 002 2h9.334a2 2 0 002-2V7.867z"/></mask><path fill-rule="evenodd" clip-rule="evenodd" d="M4 1.867a.667.667 0 011.333 0V3.2h5.334V1.867a.667.667 0 011.333 0V3.2h.667a2 2 0 012 2v1.333H1.333V5.2a2 2 0 012-2H4V1.867zm10.667 6H1.333v4.666a2 2 0 002 2h9.334a2 2 0 002-2V7.867z" fill="#ADB2C2"/><path d="M5.333 3.2h-1v1h1v-1zm5.334 0v1h1v-1h-1zM12 3.2h-1v1h1v-1zm2.667 3.333v1h1v-1h-1zm-13.334 0h-1v1h1v-1zM4 3.2v1h1v-1H4zM1.333 7.867v-1h-1v1h1zm13.334 0h1v-1h-1v1zM4.667.2C3.747.2 3 .946 3 1.867h2c0 .184-.15.333-.333.333v-2zm1.666 1.667C6.333.947 5.587.2 4.667.2v2a.333.333 0 01-.334-.333h2zm0 1.333V1.867h-2V3.2h2zm4.334-1H5.333v2h5.334v-2zm1 1V1.867h-2V3.2h2zm0-1.333c0 .184-.15.333-.334.333v-2c-.92 0-1.666.746-1.666 1.667h2zm-.334.333A.333.333 0 0111 1.867h2C13 .947 12.254.2 11.333.2v2zM11 1.867V3.2h2V1.867h-2zm1.667.333H12v2h.667v-2zm3 3a3 3 0 00-3-3v2a1 1 0 011 1h2zm0 1.333V5.2h-2v1.333h2zm-14.334 1h13.334v-2H1.333v2zm-1-2.333v1.333h2V5.2h-2zm3-3a3 3 0 00-3 3h2a1 1 0 011-1v-2zM4 2.2h-.667v2H4v-2zm-1-.333V3.2h2V1.867H3zm-1.667 7h13.334v-2H1.333v2zm1 3.666V7.867h-2v4.666h2zm1 1a1 1 0 01-1-1h-2a3 3 0 003 3v-2zm9.334 0H3.333v2h9.334v-2zm1-1a1 1 0 01-1 1v2a3 3 0 003-3h-2zm0-4.666v4.666h2V7.867h-2z" fill="#ADB2C2" mask="url(#path-1-inside-1_1_2925)"/></svg>