<svg width="32" height="32" fill="none" xmlns="http://www.w3.org/2000/svg"><path fill-rule="evenodd" clip-rule="evenodd" d="M7.93 13.574l.004-.006.014-.028.066-.119a11.079 11.079 0 011.307-1.834c.919-1.039 2.158-2.001 3.618-2.135.853-.078 1.377.373 1.464 1.01.097.718-.31 2.012-2.202 3.555-1.313 1.07-2.676 2.43-3.409 3.937-.37.763-.594 1.591-.542 2.453.053.872.384 1.722 1.034 2.52 1.047 1.285 2.578 1.838 4.213 1.858 1.626.02 3.398-.482 5.061-1.355 3.313-1.739 6.395-5.063 7.098-9.175a.75.75 0 10-1.479-.253c-.604 3.538-3.303 6.518-6.316 8.1-1.5.787-3.027 1.2-4.346 1.183-1.31-.016-2.37-.449-3.068-1.305-.469-.576-.667-1.132-.7-1.663-.032-.541.104-1.111.394-1.707.589-1.21 1.749-2.404 3.008-3.43 2.063-1.683 2.94-3.443 2.74-4.92-.211-1.558-1.566-2.441-3.086-2.302-2.026.186-3.592 1.489-4.606 2.635a12.572 12.572 0 00-1.492 2.095 7.576 7.576 0 00-.082.15l-.022.041-.006.013-.002.004v.001h-.001l.67.339-.67-.338a.75.75 0 001.339.676z" fill="#9FA0A5"/></svg>