<svg width="32" height="32" viewBox="0 0 32 32" fill="none" xmlns="http://www.w3.org/2000/svg">
<path fill-rule="evenodd" clip-rule="evenodd" d="M8.10156 7C7.82542 7 7.60156 7.22386 7.60156 7.5V24.5C7.60156 24.7761 7.82542 25 8.10156 25H14.8158C15.092 25 15.3158 24.7761 15.3158 24.5V18.4421H11.459V17.4136H15.3158V10.7278H11.459V9.69922H15.3158V7.5C15.3158 7.22386 15.092 7 14.8158 7H8.10156ZM15.3156 14.5847H12.7441V13.5562H15.3156V14.5847ZM15.3156 22.2991H12.7441V21.2705H15.3156V22.2991ZM20.9707 24.9999V25H22.5136V24.9999H24.3128V23.457H22.5136V8.54286H24.3128V7H22.5136H20.9707H19.1699V8.54286H20.9707V23.457H19.1699V24.9999H20.9707Z" fill="#6A6F81"/>
</svg>
