<svg width="32" height="32" viewBox="0 0 32 32" fill="none" xmlns="http://www.w3.org/2000/svg">
<path fill-rule="evenodd" clip-rule="evenodd" d="M24.9786 12.1094C24.6018 6.25381 20.4177 6.77129 18.7924 7.30566C18.6919 7.33873 18.5884 7.37358 18.4824 7.40925L18.4823 7.40928C17.7291 7.66288 16.8513 7.95846 16.003 7.95846C15.1514 7.95846 14.2784 7.66402 13.5178 7.40752C13.4142 7.37259 13.3127 7.33835 13.2136 7.30566C11.594 6.77129 7.40991 6.25381 7.0275 12.1094C6.96227 13.2367 7.01317 14.3676 7.17935 15.4844C7.29745 16.2157 8.79334 16.8513 11.0204 17.2394L11.5209 19.1969H11.3409C11.1918 19.2074 11.0529 19.2767 10.9548 19.3895C10.8567 19.5024 10.8075 19.6496 10.8179 19.7988C10.8283 19.9479 10.8976 20.0869 11.0105 20.185C11.1233 20.2831 11.2705 20.3324 11.4196 20.3219H11.4984L21.0925 18.9719C21.2417 18.951 21.3765 18.8718 21.4672 18.7515C21.5579 18.6312 21.5971 18.4798 21.5762 18.3306C21.5553 18.1815 21.476 18.0467 21.3558 17.956C21.2356 17.8653 21.0842 17.826 20.9351 17.8469H20.8957L21.0644 17.1888C23.2745 16.7951 24.7424 16.1538 24.8211 15.4169C24.9814 14.3222 25.0342 13.2144 24.9786 12.1094ZM12.808 24.1585C12.8702 24.3994 13.0104 24.6129 13.2068 24.7656C13.4032 24.9183 13.6446 25.0015 13.8934 25.0023H18.2012C18.4509 25.0027 18.6936 24.9201 18.8911 24.7673C19.0886 24.6145 19.2297 24.4003 19.2922 24.1585L19.6375 22.8198L12.7089 23.7804L12.808 24.1585ZM20.2035 20.6299L20.3574 20.0332L12.0383 21.1866L12.2071 21.8407H12.0159C11.9428 21.8517 11.8725 21.877 11.8092 21.9152C11.7458 21.9534 11.6906 22.0037 11.6467 22.0633C11.6029 22.1229 11.5712 22.1905 11.5535 22.2624C11.5357 22.3342 11.5324 22.4088 11.5436 22.482C11.5639 22.6161 11.632 22.7384 11.7353 22.8262C11.8386 22.9141 11.9703 22.9616 12.1059 22.9601H12.1902L20.3616 21.7564C20.5107 21.734 20.6449 21.6532 20.7346 21.5319C20.8242 21.4106 20.862 21.2587 20.8396 21.1095C20.8172 20.9603 20.7365 20.8261 20.6153 20.7364C20.4968 20.6489 20.3492 20.6108 20.2035 20.6299Z" fill="#9FA0A5"/>
</svg>
