<svg width="32" height="32" viewBox="0 0 32 32" fill="none" xmlns="http://www.w3.org/2000/svg">
<path fill-rule="evenodd" clip-rule="evenodd" d="M13.8648 3.75452L17.2077 6.41877C17.3761 6.55295 17.3761 6.81278 17.2077 6.94696L13.8648 9.6112C13.6491 9.7831 13.334 9.62632 13.334 9.3471V7.33333H11.9993C9.42202 7.33333 7.33268 9.42267 7.33268 12V14.6667H5.99935V12C5.99935 8.68629 8.68564 6 11.9993 6H13.334V4.01862C13.334 3.7394 13.6491 3.58263 13.8648 3.75452ZM24 13C24 12.4477 23.5523 12 23 12H12C11.4477 12 11 12.4477 11 13V24C11 24.5523 11.4477 25 12 25H23C23.5523 25 24 24.5523 24 24V13Z" fill="#6A6F81"/>
</svg>
