<svg width="32" height="32" viewBox="0 0 32 32" fill="none" xmlns="http://www.w3.org/2000/svg">
<path fill-rule="evenodd" clip-rule="evenodd" d="M7.02142 19.8906C7.39821 25.7462 11.5823 25.2287 13.2076 24.6943C13.3082 24.6613 13.4117 24.6264 13.5177 24.5907C14.2709 24.3371 15.1487 24.0415 15.997 24.0415C16.8486 24.0415 17.7216 24.336 18.4822 24.5925C18.5858 24.6274 18.6873 24.6616 18.7864 24.6943C20.406 25.2287 24.5901 25.7462 24.9725 19.8906C25.0377 18.7633 24.9868 17.6324 24.8207 16.5156C24.7026 15.7843 23.2067 15.1487 20.9796 14.7606L20.4791 12.8031L20.6591 12.8031C20.8082 12.7926 20.9471 12.7234 21.0452 12.6105C21.1433 12.4976 21.1925 12.3504 21.1821 12.2012C21.1717 12.0521 21.1024 11.9131 20.9895 11.815C20.8767 11.7169 20.7295 11.6676 20.5804 11.6781L20.5016 11.6781L10.9075 13.0281C10.7583 13.049 10.6235 13.1282 10.5328 13.2485C10.4421 13.3688 10.4029 13.5202 10.4238 13.6694C10.4447 13.8185 10.524 13.9533 10.6442 14.044C10.7644 14.1347 10.9158 14.174 11.0649 14.1531L11.1043 14.1531L10.9356 14.8112C8.72546 15.2049 7.25763 15.8462 7.1789 16.5831C7.01856 17.6778 6.96581 18.7856 7.02142 19.8906ZM19.192 7.84148C19.1298 7.6006 18.9896 7.38708 18.7932 7.23442C18.5968 7.08175 18.3554 6.99854 18.1066 6.99773L13.7988 6.99773C13.5491 6.99729 13.3064 7.07994 13.1089 7.2327C12.9114 7.38546 12.7703 7.59966 12.7078 7.84148L12.3627 9.17963L19.291 8.21909L19.192 7.84148ZM11.7965 11.3701L11.6427 11.9667L19.9616 10.8134L19.7929 10.1593L19.9841 10.1593C20.0572 10.1483 20.1275 10.123 20.1908 10.0848C20.2542 10.0466 20.3094 9.99625 20.3533 9.93668C20.3971 9.87712 20.4288 9.80947 20.4465 9.73762C20.4643 9.66578 20.4676 9.59118 20.4564 9.51804C20.4361 9.38391 20.368 9.26161 20.2647 9.17375C20.1614 9.08589 20.0297 9.03839 19.8941 9.03992L19.8098 9.03992L11.6384 10.2436C11.4893 10.266 11.3551 10.3468 11.2654 10.4681C11.1758 10.5894 11.138 10.7413 11.1604 10.8905C11.1828 11.0397 11.2635 11.1739 11.3847 11.2636C11.5032 11.3511 11.6508 11.3892 11.7965 11.3701Z" fill="#9FA0A5"/>
</svg>
