<svg width="32" height="32" viewBox="0 0 32 32" fill="none" xmlns="http://www.w3.org/2000/svg">
<path fill-rule="evenodd" clip-rule="evenodd" d="M7.40387 25.2071L4.73963 21.8642C4.56773 21.6485 4.72451 21.3334 5.00373 21.3334L7.00065 21.3334L7.00065 10.6667L5.00373 10.6667C4.72451 10.6667 4.56773 10.3516 4.73963 10.1359L7.40387 6.79298C7.53805 6.62462 7.79789 6.62462 7.93206 6.79298L10.5963 10.1359C10.7682 10.3516 10.6114 10.6667 10.3322 10.6667L8.33398 10.6667L8.33399 21.3334L10.3322 21.3334C10.6114 21.3334 10.7682 21.6485 10.5963 21.8642L7.93206 25.2071C7.79789 25.3755 7.53805 25.3755 7.40387 25.2071ZM25.3346 17.4648L25.3346 24.2965C25.3346 24.8127 24.7732 25.133 24.3288 24.8704L12.7675 18.0387C12.1833 17.6935 12.4281 16.7981 13.1066 16.7981L24.668 16.7981C25.0362 16.7981 25.3346 17.0966 25.3346 17.4648ZM25.3346 14.5311L25.3346 7.69939C25.3346 7.18318 24.7732 6.86283 24.3288 7.12543L12.7675 13.9571C12.1833 14.3023 12.4281 15.1978 13.1066 15.1978L24.668 15.1978C25.0362 15.1978 25.3346 14.8993 25.3346 14.5311Z" fill="#6A6F81"/>
</svg>
