<svg width="32" height="32" viewBox="0 0 32 32" fill="none" xmlns="http://www.w3.org/2000/svg">
<path fill-rule="evenodd" clip-rule="evenodd" d="M18.1352 3.75452L14.7923 6.41877C14.6239 6.55295 14.6239 6.81278 14.7923 6.94696L18.1352 9.6112C18.3509 9.7831 18.666 9.62632 18.666 9.3471V7.33321H20.0007C22.578 7.33321 24.6673 9.42255 24.6673 11.9999V14.6665H26.0007V11.9999C26.0007 8.68617 23.3144 5.99988 20.0007 5.99988H18.666V4.01862C18.666 3.7394 18.3509 3.58263 18.1352 3.75452ZM8 13.3333C8 12.597 8.59695 12 9.33333 12H19.6667C20.403 12 21 12.597 21 13.3333V23.6667C21 24.403 20.403 25 19.6667 25H9.33333C8.59695 25 8 24.403 8 23.6667V13.3333Z" fill="#6A6F81"/>
</svg>
