<svg width="16" height="16" viewBox="0 0 16 16" fill="none" xmlns="http://www.w3.org/2000/svg">
<path d="M8.23632 9.88686L10.9318 6.48835C10.9678 6.44469 10.9907 6.39181 10.9977 6.33582C11.0047 6.27983 10.9956 6.22301 10.9714 6.17194C10.9472 6.12087 10.9089 6.07762 10.861 6.04719C10.813 6.01677 10.7574 6.00041 10.7004 6H5.2995C5.24329 6.0022 5.18874 6.01942 5.14161 6.04985C5.09447 6.08027 5.05653 6.12276 5.03178 6.17282C5.00704 6.22287 4.99642 6.27863 5.00106 6.33418C5.0057 6.38973 5.02542 6.443 5.05812 6.48835L7.76362 9.88686C7.79187 9.92215 7.8278 9.95064 7.86873 9.97024C7.90966 9.98983 7.95452 10 7.99998 10C8.04543 10 8.09029 9.98983 8.13121 9.97024C8.17214 9.95064 8.20807 9.92215 8.23632 9.88686Z" fill="#6A6F81"/>
</svg>
