<svg width="32" height="32" viewBox="0 0 32 32" fill="none" xmlns="http://www.w3.org/2000/svg">
<path d="M10.9926 15.1068C10.8206 15.2255 10.6535 15.3525 10.4921 15.4876C9.27704 16.5048 8.45902 17.9176 8.18163 19.4778L6.48242 19.1757C6.8308 17.2161 7.85818 15.4419 9.38427 14.1643C10.9102 12.8868 12.8378 12.1874 14.8279 12.189C16.3143 12.1895 17.7744 12.5802 19.0624 13.3218C19.89 13.7982 20.6279 14.4087 21.2478 15.1252L23.2566 13.0863C23.3186 13.026 23.397 12.9854 23.4819 12.9697C23.5669 12.954 23.6546 12.9638 23.734 12.9979C23.8135 13.0319 23.881 13.0887 23.9282 13.161C23.9754 13.2334 24.0001 13.3181 23.9992 13.4045V18.7092C23.9992 18.8393 23.9475 18.9641 23.8555 19.0561C23.7635 19.1481 23.6387 19.1999 23.5086 19.1999H18.2039C18.1257 19.1873 18.0524 19.1538 17.9917 19.1029C17.931 19.0519 17.8853 18.9856 17.8595 18.9107C17.8336 18.8359 17.8285 18.7553 17.8448 18.6778C17.8611 18.6003 17.8981 18.5287 17.9519 18.4706L20.0317 16.3595C19.52 15.7431 18.9008 15.2202 18.2014 14.8175C17.1748 14.2265 16.0108 13.9152 14.8264 13.9148C13.4523 13.9137 12.1158 14.3323 10.9926 15.1068Z" fill="#454548"/>
</svg>
