<svg width="32" height="32" viewBox="0 0 32 32" fill="none" xmlns="http://www.w3.org/2000/svg">
<path fill-rule="evenodd" clip-rule="evenodd" d="M6.79229 7.4029L10.1352 4.73865C10.3509 4.56676 10.666 4.72353 10.666 5.00275V7.00033L21.332 7.00033V5.00275C21.332 4.72353 21.6471 4.56676 21.8628 4.73865L25.2058 7.4029C25.3741 7.53708 25.3741 7.79691 25.2058 7.93109L21.8628 10.5953C21.6471 10.7672 21.332 10.6105 21.332 10.3312V8.33366L10.666 8.33366V10.3312C10.666 10.6105 10.3509 10.7672 10.1352 10.5953L6.79229 7.93109C6.62393 7.79691 6.62393 7.53708 6.79229 7.4029ZM14.5365 25.3335H7.70476C7.18856 25.3335 6.8682 24.7721 7.13081 24.3277L13.9625 12.7663C14.3077 12.1822 15.2031 12.427 15.2031 13.1055V24.6668C15.2031 25.035 14.9046 25.3335 14.5365 25.3335ZM17.4694 25.3335H24.3011C24.8173 25.3335 25.1377 24.7721 24.8751 24.3277L18.0434 12.7664C17.6982 12.1822 16.8027 12.427 16.8027 13.1055V24.6669C16.8027 25.0351 17.1012 25.3335 17.4694 25.3335Z" fill="#9FA0A5"/>
</svg>
