<svg width="32" height="32" viewBox="0 0 32 32" fill="none" xmlns="http://www.w3.org/2000/svg">
<path fill-rule="evenodd" clip-rule="evenodd" d="M7.40387 25.2072L4.73963 21.8643C4.56773 21.6486 4.72451 21.3335 5.00373 21.3335L7.00065 21.3335L7.00065 10.6668L5.00373 10.6668C4.72451 10.6668 4.56773 10.3517 4.73963 10.1361L7.40387 6.7931C7.53805 6.62474 7.79789 6.62474 7.93206 6.7931L10.5963 10.1361C10.7682 10.3517 10.6114 10.6668 10.3322 10.6668L8.33398 10.6668L8.33399 21.3335L10.3322 21.3335C10.6114 21.3335 10.7682 21.6486 10.5963 21.8643L7.93206 25.2072C7.79789 25.3756 7.53805 25.3756 7.40387 25.2072ZM25.3346 17.4649L25.3346 24.2966C25.3346 24.8128 24.7732 25.1331 24.3288 24.8705L12.7675 18.0388C12.1833 17.6937 12.4281 16.7982 13.1066 16.7982L24.668 16.7982C25.0362 16.7982 25.3346 17.0967 25.3346 17.4649ZM25.3346 14.5312L25.3346 7.69951C25.3346 7.18331 24.7732 6.86295 24.3288 7.12556L12.7675 13.9573C12.1833 14.3024 12.4281 15.1979 13.1066 15.1979L24.668 15.1979C25.0362 15.1979 25.3346 14.8994 25.3346 14.5312Z" fill="#9FA0A5"/>
</svg>
