<svg width="32" height="32" viewBox="0 0 32 32" fill="none" xmlns="http://www.w3.org/2000/svg">
<path fill-rule="evenodd" clip-rule="evenodd" d="M13.8648 3.75477L17.2077 6.41901C17.3761 6.55319 17.3761 6.81302 17.2077 6.9472L13.8648 9.61144C13.6491 9.78334 13.334 9.62656 13.334 9.34735V7.33358H11.9993C9.42202 7.33358 7.33268 9.42292 7.33268 12.0002V14.6669H5.99935V12.0002C5.99935 8.68654 8.68564 6.00024 11.9993 6.00024H13.334V4.01886C13.334 3.73965 13.6491 3.58287 13.8648 3.75477ZM24 13.0002C24 12.448 23.5523 12.0002 23 12.0002H12C11.4477 12.0002 11 12.448 11 13.0002V24.0002C11 24.5525 11.4477 25.0002 12 25.0002H23C23.5523 25.0002 24 24.5525 24 24.0002V13.0002Z" fill="#9FA0A5"/>
</svg>
