<svg width="32" height="32" viewBox="0 0 32 32" fill="none" xmlns="http://www.w3.org/2000/svg">
<path fill-rule="evenodd" clip-rule="evenodd" d="M18.1352 3.75428L14.7923 6.41852C14.6239 6.5527 14.6239 6.81253 14.7923 6.94671L18.1352 9.61095C18.3509 9.78285 18.666 9.62608 18.666 9.34686V7.33297H20.0007C22.578 7.33297 24.6673 9.42231 24.6673 11.9996V14.6663H26.0007V11.9996C26.0007 8.68593 23.3144 5.99963 20.0007 5.99963H18.666V4.01837C18.666 3.73916 18.3509 3.58238 18.1352 3.75428ZM8 13.3331C8 12.5967 8.59695 11.9998 9.33333 11.9998H19.6667C20.403 11.9998 21 12.5967 21 13.3331V23.6664C21 24.4028 20.403 24.9998 19.6667 24.9998H9.33333C8.59695 24.9998 8 24.4028 8 23.6664V13.3331Z" fill="#9FA0A5"/>
</svg>
