<svg width="32" height="32" viewBox="0 0 32 32" fill="none" xmlns="http://www.w3.org/2000/svg">
<path d="M25.334 19.3333C25.334 22.647 22.6477 25.3333 19.334 25.3333C16.0203 25.3333 13.334 22.647 13.334 19.3333C13.334 16.0195 16.0203 13.3333 19.334 13.3333C22.6477 13.3333 25.334 16.0195 25.334 19.3333Z" fill="#5C81FF"/>
<path fill-rule="evenodd" clip-rule="evenodd" d="M7.5 7C7.22386 7 7 7.22386 7 7.5V18.5C7 18.7761 7.22386 19 7.5 19H11.7415C11.9111 15.0681 15.0682 11.9106 19 11.7404V7.5C19 7.22386 18.7761 7 18.5 7H7.5ZM19 13.3423C15.9521 13.5097 13.5103 15.9519 13.3435 19H18.5C18.7761 19 19 18.7761 19 18.5V13.3423Z" fill="#5C81FF"/>
</svg>
