<svg width="32" height="32" viewBox="0 0 32 32" fill="none" xmlns="http://www.w3.org/2000/svg">
<path fill-rule="evenodd" clip-rule="evenodd" d="M7.02142 19.8903C7.39821 25.7459 11.5823 25.2285 13.2076 24.6941C13.3082 24.661 13.4117 24.6262 13.5177 24.5905C14.2709 24.3369 15.1487 24.0413 15.997 24.0413C16.8486 24.0413 17.7216 24.3357 18.4822 24.5922C18.5858 24.6272 18.6873 24.6614 18.7864 24.6941C20.406 25.2285 24.5901 25.7459 24.9725 19.8903C25.0377 18.7631 24.9868 17.6321 24.8207 16.5153C24.7026 15.7841 23.2067 15.1485 20.9796 14.7603L20.4791 12.8028L20.6591 12.8028C20.8082 12.7924 20.9471 12.7231 21.0452 12.6102C21.1433 12.4974 21.1925 12.3502 21.1821 12.201C21.1717 12.0518 21.1024 11.9129 20.9895 11.8148C20.8767 11.7166 20.7295 11.6674 20.5804 11.6778L20.5016 11.6778L10.9075 13.0278C10.7583 13.0487 10.6235 13.128 10.5328 13.2483C10.4421 13.3685 10.4029 13.5199 10.4238 13.6691C10.4447 13.8183 10.524 13.953 10.6442 14.0437C10.7644 14.1345 10.9158 14.1737 11.0649 14.1528L11.1043 14.1528L10.9356 14.8109C8.72546 15.2047 7.25763 15.8459 7.1789 16.5828C7.01856 17.6775 6.96581 18.7853 7.02142 19.8903ZM19.192 7.84124C19.1298 7.60035 18.9896 7.38684 18.7932 7.23417C18.5968 7.0815 18.3554 6.99829 18.1066 6.99749L13.7988 6.99749C13.5491 6.99705 13.3064 7.07969 13.1089 7.23246C12.9114 7.38522 12.7703 7.59942 12.7078 7.84124L12.3627 9.17939L19.291 8.21884L19.192 7.84124ZM11.7965 11.3698L11.6427 11.9665L19.9616 10.8131L19.7929 10.159L19.9841 10.159C20.0572 10.1481 20.1275 10.1227 20.1908 10.0845C20.2542 10.0464 20.3094 9.99601 20.3533 9.93644C20.3971 9.87687 20.4288 9.80922 20.4465 9.73738C20.4643 9.66554 20.4676 9.59093 20.4564 9.51779C20.4361 9.38366 20.368 9.26137 20.2647 9.17351C20.1614 9.08565 20.0297 9.03815 19.8941 9.03968L19.8098 9.03968L11.6384 10.2434C11.4893 10.2657 11.3551 10.3465 11.2654 10.4678C11.1758 10.5891 11.138 10.7411 11.1604 10.8903C11.1828 11.0394 11.2635 11.1736 11.3847 11.2633C11.5032 11.3509 11.6508 11.3889 11.7965 11.3698Z" fill="#6A6F81"/>
</svg>
