<svg width="32" height="32" viewBox="0 0 32 32" fill="none" xmlns="http://www.w3.org/2000/svg">
<path d="M22.0664 9.03155C21.3657 9.03155 20.7985 9.53953 20.7985 10.1662V15.2451C20.7985 15.4087 20.6659 15.5413 20.5024 15.5413C20.3388 15.5413 20.2062 15.4087 20.2062 15.2451L20.2064 8.46306C20.2064 7.83638 19.6388 7.32857 18.9386 7.32857C18.2381 7.32857 17.6713 7.83638 17.6713 8.46306V15.2452C17.6713 15.4087 17.5387 15.5413 17.3753 15.5413C17.2118 15.5413 17.0792 15.4087 17.0792 15.2452V7.13466C17.0792 6.50798 16.5112 6 15.8109 6C15.1111 6 14.5437 6.50781 14.5437 7.13466V15.245C14.5437 15.4086 14.411 15.5413 14.2474 15.5413C14.0838 15.5413 13.9512 15.4086 13.9512 15.245L13.951 8.46306C13.951 7.83638 13.383 7.32857 12.6831 7.32857C11.9831 7.32857 11.4157 7.83638 11.4157 8.46306V17.8836C11.4157 18.1224 11.1129 18.2253 10.9674 18.036L9.66587 16.3423C9.2845 15.8166 8.4995 15.667 7.91175 16.0086C7.3244 16.3496 7.1573 17.0521 7.53846 17.5784C7.53846 17.5784 10.0129 21.4127 11.1113 23.1112C12.1635 24.6342 14.4888 26 16.9045 26C20.7622 26 23.168 23.5974 23.168 20.6288L23.334 15.5417V10.1658C23.3338 9.53895 22.7662 9.03155 22.0664 9.03155Z" fill="#6A6F81"/>
</svg>
