<svg width="32" height="32" viewBox="0 0 32 32" fill="none" xmlns="http://www.w3.org/2000/svg">
<path d="M10.9936 15.1068C10.8216 15.2255 10.6545 15.3525 10.4931 15.4876C9.27802 16.5048 8.45999 17.9176 8.18261 19.4778L6.4834 19.1757C6.83178 17.2161 7.85916 15.4419 9.38525 14.1643C10.9112 12.8868 12.8388 12.1874 14.8289 12.189C16.3152 12.1895 17.7754 12.5802 19.0634 13.3218C19.8909 13.7982 20.6289 14.4087 21.2488 15.1252L23.2576 13.0863C23.3195 13.026 23.3979 12.9854 23.4829 12.9697C23.5679 12.954 23.6556 12.9638 23.735 12.9979C23.8144 13.0319 23.882 13.0887 23.9292 13.161C23.9764 13.2334 24.0011 13.3181 24.0002 13.4045V18.7092C24.0002 18.8393 23.9485 18.9641 23.8565 19.0561C23.7645 19.1481 23.6397 19.1999 23.5095 19.1999H18.2049C18.1267 19.1873 18.0533 19.1538 17.9927 19.1029C17.932 19.0519 17.8863 18.9856 17.8605 18.9107C17.8346 18.8359 17.8295 18.7553 17.8458 18.6778C17.8621 18.6003 17.8991 18.5287 17.9529 18.4706L20.0327 16.3595C19.5209 15.7431 18.9018 15.2202 18.2023 14.8175C17.1758 14.2265 16.0118 13.9152 14.8274 13.9148C13.4533 13.9137 12.1168 14.3323 10.9936 15.1068Z" fill="#ADB2C2"/>
</svg>
