<svg width="16" height="16" viewBox="0 0 16 16" fill="none" xmlns="http://www.w3.org/2000/svg">
<mask id="path-1-inside-1_103_29" fill="white">
<path fill-rule="evenodd" clip-rule="evenodd" d="M4 1.99967C4 1.63148 4.29848 1.33301 4.66667 1.33301C5.03486 1.33301 5.33333 1.63148 5.33333 1.99967V3.33301H10.667V1.99967C10.667 1.63148 10.9655 1.33301 11.3337 1.33301C11.7018 1.33301 12.0003 1.63148 12.0003 1.99967V3.33301H12.6674C13.7719 3.33301 14.6674 4.22844 14.6674 5.33301V6.66634H1.33403V5.33301C1.33403 4.22844 2.22946 3.33301 3.33403 3.33301H4V1.99967ZM14.6673 7.99951H1.33398V12.6662C1.33398 13.7707 2.22941 14.6662 3.33398 14.6662H12.6673C13.7719 14.6662 14.6673 13.7707 14.6673 12.6662V7.99951Z"/>
</mask>
<path fill-rule="evenodd" clip-rule="evenodd" d="M4 1.99967C4 1.63148 4.29848 1.33301 4.66667 1.33301C5.03486 1.33301 5.33333 1.63148 5.33333 1.99967V3.33301H10.667V1.99967C10.667 1.63148 10.9655 1.33301 11.3337 1.33301C11.7018 1.33301 12.0003 1.63148 12.0003 1.99967V3.33301H12.6674C13.7719 3.33301 14.6674 4.22844 14.6674 5.33301V6.66634H1.33403V5.33301C1.33403 4.22844 2.22946 3.33301 3.33403 3.33301H4V1.99967ZM14.6673 7.99951H1.33398V12.6662C1.33398 13.7707 2.22941 14.6662 3.33398 14.6662H12.6673C13.7719 14.6662 14.6673 13.7707 14.6673 12.6662V7.99951Z" fill="#6A6F81"/>
<path d="M5.33333 3.33301H4.33333V4.33301H5.33333V3.33301ZM10.667 3.33301V4.33301H11.667V3.33301H10.667ZM12.0003 3.33301H11.0003V4.33301H12.0003V3.33301ZM14.6674 6.66634V7.66634H15.6674V6.66634H14.6674ZM1.33403 6.66634H0.334033V7.66634H1.33403V6.66634ZM4 3.33301V4.33301H5V3.33301H4ZM1.33398 7.99951V6.99951H0.333984V7.99951H1.33398ZM14.6673 7.99951H15.6673V6.99951H14.6673V7.99951ZM4.66667 0.333008C3.74619 0.333008 3 1.0792 3 1.99967H5C5 2.18377 4.85076 2.33301 4.66667 2.33301V0.333008ZM6.33333 1.99967C6.33333 1.0792 5.58714 0.333008 4.66667 0.333008V2.33301C4.48257 2.33301 4.33333 2.18377 4.33333 1.99967H6.33333ZM6.33333 3.33301V1.99967H4.33333V3.33301H6.33333ZM10.667 2.33301H5.33333V4.33301H10.667V2.33301ZM11.667 3.33301V1.99967H9.66699V3.33301H11.667ZM11.667 1.99967C11.667 2.18377 11.5178 2.33301 11.3337 2.33301V0.333008C10.4132 0.333008 9.66699 1.0792 9.66699 1.99967H11.667ZM11.3337 2.33301C11.1496 2.33301 11.0003 2.18377 11.0003 1.99967H13.0003C13.0003 1.0792 12.2541 0.333008 11.3337 0.333008V2.33301ZM11.0003 1.99967V3.33301H13.0003V1.99967H11.0003ZM12.6674 2.33301H12.0003V4.33301H12.6674V2.33301ZM15.6674 5.33301C15.6674 3.67616 14.3242 2.33301 12.6674 2.33301V4.33301C13.2197 4.33301 13.6674 4.78073 13.6674 5.33301H15.6674ZM15.6674 6.66634V5.33301H13.6674V6.66634H15.6674ZM1.33403 7.66634H14.6674V5.66634H1.33403V7.66634ZM0.334033 5.33301V6.66634H2.33403V5.33301H0.334033ZM3.33403 2.33301C1.67718 2.33301 0.334033 3.67616 0.334033 5.33301H2.33403C2.33403 4.78073 2.78175 4.33301 3.33403 4.33301V2.33301ZM4 2.33301H3.33403V4.33301H4V2.33301ZM3 1.99967V3.33301H5V1.99967H3ZM1.33398 8.99951H14.6673V6.99951H1.33398V8.99951ZM2.33398 12.6662V7.99951H0.333984V12.6662H2.33398ZM3.33398 13.6662C2.7817 13.6662 2.33398 13.2185 2.33398 12.6662H0.333984C0.333984 14.323 1.67713 15.6662 3.33398 15.6662V13.6662ZM12.6673 13.6662H3.33398V15.6662H12.6673V13.6662ZM13.6673 12.6662C13.6673 13.2185 13.2196 13.6662 12.6673 13.6662V15.6662C14.3242 15.6662 15.6673 14.323 15.6673 12.6662H13.6673ZM13.6673 7.99951V12.6662H15.6673V7.99951H13.6673Z" fill="#6A6F81" mask="url(#path-1-inside-1_103_29)"/>
</svg>
