<svg width="24" height="24" viewBox="0 0 24 24" fill="none" xmlns="http://www.w3.org/2000/svg">
<path fill-rule="evenodd" clip-rule="evenodd" d="M5.09275 5.55193L7.59996 3.55375C7.76173 3.42482 7.99805 3.5424 7.99805 3.75182V5.25025L15.998 5.25024V3.75188C15.998 3.54247 16.2344 3.42488 16.3961 3.55381L18.9033 5.55199C19.0296 5.65262 19.0296 5.8475 18.9033 5.94813L16.3961 7.94631C16.2344 8.07524 15.998 7.95766 15.998 7.74824V6.25024L7.99805 6.25025V7.74818C7.99805 7.95759 7.76173 8.07518 7.59996 7.94625L5.09275 5.94807C4.96648 5.84744 4.96648 5.65256 5.09275 5.55193ZM13.2663 18.9998H17.9313C18.4475 18.9998 18.7679 18.4383 18.5053 17.9939L13.8402 10.0993C13.4951 9.51512 12.5996 9.75991 12.5996 10.4384V18.3331C12.5996 18.7013 12.8981 18.9998 13.2663 18.9998ZM10.7337 18.9999H6.06869C5.55249 18.9999 5.23213 18.4385 5.49474 17.9941L10.1598 10.0994C10.5049 9.5153 11.4004 9.76009 11.4004 10.4386V18.3333C11.4004 18.7015 11.1019 18.9999 10.7337 18.9999Z" fill="#9FA0A5"/>
</svg>
