<svg width="24" height="24" viewBox="0 0 24 24" fill="none" xmlns="http://www.w3.org/2000/svg">
<path fill-rule="evenodd" clip-rule="evenodd" d="M10.3984 2.81447L12.9056 4.81265C13.0318 4.91329 13.0318 5.10816 12.9056 5.2088L10.3984 7.20698C10.2366 7.3359 10.0003 7.21832 10.0003 7.00891V5.49845H8.99972C7.06672 5.49845 5.49972 7.06545 5.49972 8.99845V10.9984H4.49972V8.99845C4.49972 6.51317 6.51444 4.49845 8.99972 4.49845H10.0003V3.01254C10.0003 2.80313 10.2366 2.68555 10.3984 2.81447ZM18 9.99845C18 9.44616 17.5523 8.99845 17 8.99845H9.25C8.69771 8.99845 8.25 9.44616 8.25 9.99845V17.7484C8.25 18.3007 8.69772 18.7484 9.25 18.7484H17C17.5523 18.7484 18 18.3007 18 17.7484V9.99845Z" fill="#9FA0A5"/>
</svg>
