<svg width="24" height="24" viewBox="0 0 24 24" fill="none" xmlns="http://www.w3.org/2000/svg">
<path fill-rule="evenodd" clip-rule="evenodd" d="M5.09275 5.55217L7.59996 3.55399C7.76173 3.42507 7.99805 3.54265 7.99805 3.75206V5.25049L15.998 5.25049V3.75212C15.998 3.54271 16.2344 3.42513 16.3961 3.55405L18.9033 5.55223C19.0296 5.65287 19.0296 5.84774 18.9033 5.94838L16.3961 7.94656C16.2344 8.07548 15.998 7.9579 15.998 7.74849V6.25049L7.99805 6.25049V7.74843C7.99805 7.95784 7.76173 8.07542 7.59996 7.9465L5.09275 5.94832C4.96648 5.84768 4.96648 5.65281 5.09275 5.55217ZM13.2663 19H17.9313C18.4475 19 18.7679 18.4386 18.5053 17.9942L13.8402 10.0995C13.4951 9.51536 12.5996 9.76015 12.5996 10.4387V18.3333C12.5996 18.7015 12.8981 19 13.2663 19ZM10.7337 19.0002H6.06869C5.55249 19.0002 5.23213 18.4388 5.49474 17.9944L10.1598 10.0997C10.5049 9.51555 11.4004 9.76034 11.4004 10.4388V18.3335C11.4004 18.7017 11.1019 19.0002 10.7337 19.0002Z" fill="#ADB2C2"/>
</svg>
