<svg width="24" height="24" viewBox="0 0 24 24" fill="none" xmlns="http://www.w3.org/2000/svg">
<path fill-rule="evenodd" clip-rule="evenodd" d="M5.55291 18.9058L3.55472 16.3986C3.4258 16.2368 3.54338 16.0005 3.75279 16.0005L5.25098 16.0005L5.25098 8.00049L3.7528 8.00049C3.54338 8.00049 3.4258 7.76417 3.55472 7.60241L5.55291 5.09519C5.65354 4.96892 5.84841 4.96892 5.94905 5.09519L7.94723 7.60241C8.07615 7.76417 7.95857 8.00049 7.74916 8.00049L6.25098 8.00049L6.25098 16.0005L7.74916 16.0005C7.95857 16.0005 8.07615 16.2368 7.94723 16.3986L5.94905 18.9058C5.84841 19.0321 5.65354 19.0321 5.55291 18.9058ZM19.001 13.2658L19.001 17.9308C19.001 18.447 18.4396 18.7674 17.9952 18.5048L10.1005 13.8397C9.51634 13.4946 9.76113 12.5991 10.4396 12.5991L18.3343 12.5991C18.7025 12.5991 19.001 12.8976 19.001 13.2658ZM19.001 10.7325L19.001 6.06747C19.001 5.55127 18.4396 5.23091 17.9952 5.49352L10.1005 10.1586C9.51634 10.5037 9.76113 11.3992 10.4396 11.3992L18.3343 11.3992C18.7025 11.3992 19.001 11.1007 19.001 10.7325Z" fill="#ADB2C2"/>
</svg>
