<svg width="24" height="24" viewBox="0 0 24 24" fill="none" xmlns="http://www.w3.org/2000/svg">
<path fill-rule="evenodd" clip-rule="evenodd" d="M13.6019 2.81595L11.0947 4.81414C10.9684 4.91477 10.9684 5.10964 11.0947 5.21028L13.6019 7.20846C13.7637 7.33738 14 7.2198 14 7.01039V5.5H15C16.933 5.5 18.5 7.067 18.5 9V11H19.5V9C19.5 6.51472 17.4853 4.5 15 4.5H14V3.01403C14 2.80461 13.7637 2.68703 13.6019 2.81595ZM6 10.3333C6 9.59695 6.59695 9 7.33333 9H14.4167C15.153 9 15.75 9.59695 15.75 10.3333V17.4167C15.75 18.153 15.153 18.75 14.4167 18.75H7.33333C6.59695 18.75 6 18.153 6 17.4167V10.3333Z" fill="#9FA0A5"/>
</svg>
