<svg width="24" height="24" viewBox="0 0 24 24" fill="none" xmlns="http://www.w3.org/2000/svg">
<path fill-rule="evenodd" clip-rule="evenodd" d="M10.3984 2.81437L12.9056 4.81255C13.0318 4.91318 13.0318 5.10806 12.9056 5.20869L10.3984 7.20687C10.2366 7.3358 10.0003 7.21821 10.0003 7.0088V5.49834H8.99972C7.06672 5.49834 5.49972 7.06535 5.49972 8.99834V10.9983H4.49972V8.99834C4.49972 6.51306 6.51444 4.49834 8.99972 4.49834H10.0003V3.01244C10.0003 2.80303 10.2366 2.68544 10.3984 2.81437ZM18 9.99834C18 9.44606 17.5523 8.99834 17 8.99834H9.25C8.69771 8.99834 8.25 9.44606 8.25 9.99834V17.7483C8.25 18.3006 8.69772 18.7483 9.25 18.7483H17C17.5523 18.7483 18 18.3006 18 17.7483V9.99834Z" fill="#ADB2C2"/>
</svg>
