<svg width="16" height="16" fill="none" xmlns="http://www.w3.org/2000/svg"><path fill-rule="evenodd" clip-rule="evenodd" d="M11.5 14a3 3 0 100-6 3 3 0 000 6zm-.538-2.616l1.711-1.738a.49.49 0 01.672-.023.424.424 0 01.025.633l-2.053 2.106a.505.505 0 01-.355.138.494.494 0 01-.354-.15l-.978-1a.424.424 0 01.025-.633.49.49 0 01.672.023l.635.645z" fill="#9FA0A5"/><path fill-rule="evenodd" clip-rule="evenodd" d="M2 2a.5.5 0 00-.5.5v11a.5.5 0 00.5.5h6.854A4 4 0 0111.5 7V2.5A.5.5 0 0011 2H2zm1.5 2h6v1h-6V4zm4 2h-4v1h4V6z" fill="#9FA0A5"/></svg>