<svg width="16" height="16" fill="none" xmlns="http://www.w3.org/2000/svg"><circle cx="11.5" cy="11" r="3" fill="#6A6F81"/><path d="M12.673 9.646l-1.71 1.738-.636-.645a.49.49 0 00-.672-.023.424.424 0 00-.025.633l.978 1.001a.49.49 0 00.354.15.505.505 0 00.355-.138l2.053-2.106a.424.424 0 00-.025-.633.49.49 0 00-.672.023z" fill="#fff"/><path fill-rule="evenodd" clip-rule="evenodd" d="M2 2a.5.5 0 00-.5.5v11a.5.5 0 00.5.5h6.854A4 4 0 0111.5 7V2.5A.5.5 0 0011 2H2zm1.5 2h6v1h-6V4zm4 2h-4v1h4V6z" fill="#6A6F81"/></svg>