<svg width="16" height="16" viewBox="0 0 16 16" fill="none" xmlns="http://www.w3.org/2000/svg">
<path fill-rule="evenodd" clip-rule="evenodd" d="M1 8C1 11.866 4.13401 15 8 15C11.866 15 15 11.866 15 8C15 4.13401 11.866 1 8 1C4.13401 1 1 4.13401 1 8ZM8 0C3.58172 0 0 3.58172 0 8C0 12.4183 3.58172 16 8 16C12.4183 16 16 12.4183 16 8C16 3.58172 12.4183 0 8 0Z" fill="#6A6F81"/>
<path fill-rule="evenodd" clip-rule="evenodd" d="M8.00004 7.29287L10.6465 4.64642L11.3536 5.35353L8.70714 7.99998L11.3536 10.6464L10.6465 11.3535L8.00004 8.70708L5.35359 11.3535L4.64648 10.6464L7.29293 7.99998L4.64648 5.35353L5.35359 4.64642L8.00004 7.29287Z" fill="#6A6F81"/>
</svg>
