<svg width="6" height="4" viewBox="0 0 6 4" fill="none" xmlns="http://www.w3.org/2000/svg">
<path d="M3.23632 3.88686L5.93176 0.488351C5.96783 0.44469 5.99069 0.391807 5.9977 0.335817C6.00472 0.279827 5.9956 0.223012 5.97141 0.171939C5.94721 0.120865 5.90893 0.0776177 5.86099 0.0471923C5.81304 0.016767 5.75738 0.000405733 5.70044 0H0.2995C0.243295 0.00219659 0.188737 0.019422 0.141606 0.049846C0.0944748 0.08027 0.0565271 0.12276 0.0317848 0.172817C0.00704257 0.222874 -0.00357526 0.278629 0.00106074 0.334179C0.00569673 0.389728 0.0254152 0.443002 0.0581198 0.488351L2.76362 3.88686C2.79187 3.92215 2.8278 3.95064 2.86873 3.97024C2.90966 3.98983 2.95452 4 2.99998 4C3.04543 4 3.09029 3.98983 3.13121 3.97024C3.17214 3.95064 3.20807 3.92215 3.23632 3.88686Z" fill="#9FA0A5"/>
</svg>
