<svg width="24" height="24" fill="none" xmlns="http://www.w3.org/2000/svg"><g clip-path="url(#clip0_8_996)"><path fill-rule="evenodd" clip-rule="evenodd" d="M18.982 8.974c-.293-4.554-3.547-4.151-4.81-3.736l-.242.08c-.586.198-1.268.428-1.928.428-.663 0-1.341-.23-1.933-.429l-.237-.079c-1.26-.415-4.513-.818-4.81 3.736-.051.877-.012 1.756.117 2.625.092.569 1.256 1.063 2.988 1.365l.389 1.522h-.14a.438.438 0 00.061.875h.061l7.462-1.05a.442.442 0 10-.122-.875h-.031l.131-.511c1.72-.307 2.86-.805 2.922-1.379.125-.85.166-1.712.122-2.572zm-9.464 9.371a.875.875 0 00.844.656h3.35a.875.875 0 00.848-.656l.269-1.04-5.388.746.077.294zm5.75-2.744l.12-.464-6.47.897.131.509h-.148a.437.437 0 00-.218.766c.08.068.182.105.288.104h.065l6.355-.936a.443.443 0 00-.123-.876z" fill="#6A6F81"/></g><defs><clipPath id="clip0_8_996"><path fill="#fff" transform="translate(5 5)" d="M0 0h13.999v13.999H0z"/></clipPath></defs></svg>