<svg width="24" height="24" fill="none" xmlns="http://www.w3.org/2000/svg"><path fill-rule="evenodd" clip-rule="evenodd" d="M5.552 18.905l-1.998-2.507A.246.246 0 013.752 16H5.25V8H3.752a.246.246 0 01-.198-.398l1.998-2.507a.254.254 0 01.396 0l1.998 2.507A.246.246 0 017.748 8H6.25v8h1.498c.21 0 .327.236.198.398l-1.998 2.507a.254.254 0 01-.396 0zM19 13.265v4.666a.667.667 0 01-1.006.574L10.1 13.84c-.585-.346-.34-1.241.339-1.241h7.894c.369 0 .667.299.667.667zm0-2.533V6.067a.667.667 0 00-1.006-.574L10.1 10.158c-.585.346-.34 1.24.339 1.24h7.894a.667.667 0 00.667-.666z" fill="#9FA0A5"/></svg>