<svg width="24" height="24" fill="none" xmlns="http://www.w3.org/2000/svg"><path fill-rule="evenodd" clip-rule="evenodd" d="M16.398 7.946l2.507-1.998a.254.254 0 000-.396l-2.507-1.998a.246.246 0 00-.399.198V5.25H8V3.752a.246.246 0 00-.398-.198L5.094 5.552a.254.254 0 000 .396l2.507 1.998A.246.246 0 008 7.748V6.25h8v1.498c0 .21.236.327.398.198zM13.268 19h4.665a.667.667 0 00.573-1.006L13.841 10.1c-.345-.584-1.24-.339-1.24.34v7.894c0 .368.298.667.666.667zm-2.534 0H6.07a.667.667 0 01-.574-1.006L10.16 10.1c.345-.584 1.24-.339 1.24.34v7.894a.667.667 0 01-.666.667z" fill="#6A6F81"/></svg>