<svg width="24" height="24" fill="none" xmlns="http://www.w3.org/2000/svg"><g clip-path="url(#clip0_8_1007)"><path fill-rule="evenodd" clip-rule="evenodd" d="M5.017 15.027c.293 4.554 3.547 4.152 4.81 3.736l.242-.08c.586-.198 1.268-.427 1.928-.427.662 0 1.341.229 1.933.428l.236.08c1.26.415 4.514.817 4.812-3.737a12.8 12.8 0 00-.119-2.625c-.091-.568-1.255-1.063-2.987-1.364l-.389-1.523h.14a.438.438 0 00-.061-.875H15.5L8.039 9.69a.442.442 0 00.122.875h.031l-.131.512c-1.72.306-2.86.805-2.922 1.378a13.18 13.18 0 00-.122 2.572zm9.464-9.37A.875.875 0 0013.637 5h-3.35a.874.874 0 00-.848.657l-.269 1.04 5.388-.747-.077-.293zM8.731 8.4l-.12.464 6.47-.897-.131-.51h.148a.438.438 0 00-.07-.87h-.065l-6.355.936a.442.442 0 00.123.877z" fill="#6A6F81"/></g><defs><clipPath id="clip0_8_1007"><path fill="#fff" transform="translate(5 5)" d="M0 0h13.999v13.999H0z"/></clipPath></defs></svg>