<svg width="32" height="32" fill="none" xmlns="http://www.w3.org/2000/svg"><path fill-rule="evenodd" clip-rule="evenodd" d="M8.522 13.674l.003-.005.02-.035a12.669 12.669 0 01.44-.712c.31-.47.752-1.075 1.287-1.642 1.16-1.23 2.32-1.85 3.354-1.572.336.09.67.411.699.952.027.545-.264 1.62-1.925 2.974-1.154.942-2.39 2.166-3.105 3.587-.75 1.49-.95 3.267.157 5.014.875 1.38 2.36 2.017 3.905 2.123 1.537.105 3.247-.294 4.883-1.095 3.286-1.608 6.516-4.952 7.817-9.882a1.35 1.35 0 00-2.61-.689c-1.092 4.138-3.78 6.866-6.394 8.146-1.314.643-2.55.892-3.512.826-.955-.066-1.52-.42-1.808-.874-.486-.766-.455-1.505-.027-2.355.462-.918 1.354-1.854 2.401-2.709 2.038-1.662 3.002-3.486 2.914-5.204-.088-1.722-1.24-3.03-2.694-3.421-2.607-.7-4.768.997-6.02 2.327a15.232 15.232 0 00-1.574 2.002 15.314 15.314 0 00-.576.942l-.01.018-.003.006v.002c-.001 0-.002.001 1.188.639l-1.19-.638a1.35 1.35 0 102.38 1.275z" fill="#9FA0A5"/></svg>