<svg width="24" height="24" fill="none" xmlns="http://www.w3.org/2000/svg"><path d="M16.55 6.774c-.526 0-.952.38-.952.85v3.81a.222.222 0 01-.444 0V6.347c0-.47-.425-.85-.95-.85-.526 0-.951.38-.951.85v5.087a.222.222 0 01-.444 0V5.35c0-.47-.426-.851-.951-.851-.525 0-.95.38-.95.851v6.083a.222.222 0 01-.445 0V6.347c0-.47-.426-.85-.951-.85-.525 0-.95.38-.95.85v6.882a.25.25 0 01-.449.152l-.864-1.124c-.286-.395-.875-.507-1.316-.25-.44.255-.566.782-.28 1.177 0 0 1.856 2.876 2.68 4.15.79 1.142 2.533 2.166 4.345 2.166 2.893 0 4.697-1.802 4.697-4.028l.125-3.816V7.624c0-.47-.426-.85-.95-.85z" fill="#9FA0A5"/></svg>