<svg width="24" height="24" fill="none" xmlns="http://www.w3.org/2000/svg"><path fill-rule="evenodd" clip-rule="evenodd" d="M5.948 10.18l.002-.004.011-.021.05-.09a8.303 8.303 0 01.98-1.375c.689-.78 1.619-1.5 2.714-1.601.639-.059 1.032.28 1.097.757.073.538-.232 1.51-1.651 2.666-.985.803-2.007 1.823-2.557 2.953-.278.572-.446 1.194-.406 1.84.04.654.288 1.292.775 1.89.785.964 1.933 1.379 3.16 1.394 1.219.015 2.548-.362 3.796-1.016 2.484-1.305 4.796-3.798 5.323-6.882a.563.563 0 00-1.11-.19c-.453 2.654-2.476 4.89-4.736 6.075-1.125.59-2.27.9-3.26.888-.983-.012-1.777-.337-2.3-.98-.352-.43-.501-.848-.525-1.247-.025-.405.078-.833.295-1.28.441-.907 1.311-1.803 2.255-2.573 1.548-1.261 2.206-2.582 2.056-3.69-.159-1.167-1.175-1.83-2.315-1.725-1.52.139-2.694 1.116-3.454 1.976a9.429 9.429 0 00-1.18 1.683l-.017.031-.005.01-.001.003-.001.001.502.254-.502-.253a.563.563 0 001.004.506z" fill="#6A6F81"/></svg>