<svg width="24" height="24" fill="none" xmlns="http://www.w3.org/2000/svg"><path fill-rule="evenodd" clip-rule="evenodd" d="M6.392 10.255l.002-.004.014-.026.066-.113a9.406 9.406 0 011.23-1.652c.87-.923 1.74-1.387 2.516-1.179.252.068.503.308.523.714.021.409-.197 1.214-1.443 2.23-.865.707-1.792 1.625-2.329 2.69-.563 1.117-.712 2.451.118 3.761.656 1.036 1.77 1.513 2.928 1.592 1.154.08 2.436-.22 3.663-.82 2.465-1.207 4.887-3.715 5.863-7.412a1.013 1.013 0 00-1.958-.517c-.82 3.103-2.835 5.15-4.795 6.11-.986.482-1.913.668-2.634.619-.716-.05-1.14-.316-1.356-.656-.365-.574-.341-1.129-.02-1.766.346-.688 1.015-1.39 1.8-2.032 1.528-1.246 2.252-2.614 2.186-3.902-.066-1.292-.93-2.274-2.021-2.566C8.79 4.8 7.17 6.074 6.23 7.07a11.425 11.425 0 00-1.612 2.21l-.008.013-.002.005v.001s-.001.001.891.48L4.607 9.3a1.013 1.013 0 001.785.956z" fill="#6A6F81"/></svg>