<svg width="24" height="24" fill="none" xmlns="http://www.w3.org/2000/svg"><g clip-path="url(#clip0_377_2502)"><path fill-rule="evenodd" clip-rule="evenodd" d="M5.017 15.027c.293 4.554 3.547 4.152 4.81 3.737l.242-.081c.586-.197 1.268-.427 1.928-.427.662 0 1.341.229 1.933.428l.236.08c1.26.415 4.514.818 4.812-3.736.05-.877.01-1.757-.119-2.625-.091-.569-1.255-1.063-2.987-1.365l-.389-1.523h.14a.438.438 0 00-.061-.875H15.5L8.039 9.69a.442.442 0 10.122.875h.031l-.131.512c-1.72.306-2.86.805-2.922 1.378a13.18 13.18 0 00-.122 2.572zm9.464-9.37A.875.875 0 0013.637 5h-3.35a.874.874 0 00-.848.656l-.269 1.04 5.388-.747-.077-.293zM8.731 8.4l-.12.464 6.47-.897-.131-.509h.148a.438.438 0 00-.07-.87h-.065l-6.355.936a.442.442 0 00.123.876z" fill="#9FA0A5"/></g><defs><clipPath id="clip0_377_2502"><path fill="#fff" transform="translate(5 5)" d="M0 0h13.999v13.999H0z"/></clipPath></defs></svg>