<svg width="12" height="12" fill="none" xmlns="http://www.w3.org/2000/svg"><path d="M6.097 8.054L3.315 7.08a.345.345 0 00-.445.211.35.35 0 00.15.418.446.446 0 00.088.045l.117.039-.24.333 2.337.829.24-.334.306.106a.351.351 0 00.235-.662l-.006-.01zm1.151-1.596l-2.782-.973a.35.35 0 10-.235.662l.111.039-.24.334 2.342.828.24-.334.306.106a.345.345 0 00.446-.21.35.35 0 00-.188-.452zm2.842-1.893l.558-.778a.25.25 0 00-.055-.351L6.93.796a.25.25 0 00-.345.06l-.558.779a.256.256 0 00-.028.245l.554 1.287-.597.828-.306-.106a.35.35 0 00-.324.617l.089.045.117.04-.28.338 2.337.829.24-.334.306.106a.35.35 0 10.235-.662l-.11-.039.189-.267 1.392.114a.267.267 0 00.25-.11zM4.953 9.65l-2.782-.974a.35.35 0 00-.45.21.367.367 0 00.126.407.445.445 0 00.09.045l.116.04.053 1.62a.25.25 0 00.323.234l1.56-.47.401-.557.306.107a.345.345 0 00.446-.217.35.35 0 00-.189-.445z" fill="#6A6F81"/></svg>