<svg width="14" height="14" fill="none" xmlns="http://www.w3.org/2000/svg"><path fill-rule="evenodd" clip-rule="evenodd" d="M1.5.15a.85.85 0 01.85.847v.004l.001.027.007.126a6.334 6.334 0 00.51 2.058c.504 1.14 1.485 2.352 3.508 2.735.313.059.628.114.94.169a32.76 32.76 0 011.71.329c.812.188 1.598.446 2.283.914 1.44.984 2.152 2.69 2.34 5.586a.85.85 0 11-1.696.11c-.177-2.716-.814-3.754-1.603-4.292-.43-.294-.977-.493-1.707-.662-.48-.111-.985-.2-1.554-.299-.32-.056-.66-.115-1.028-.184H6.06C3.365 7.106 1.988 5.426 1.313 3.9a8.033 8.033 0 01-.661-2.818l-.001-.055v-.026L1.5 1H.65c0-.47.38-.85.85-.85z" fill="#fff"/></svg>