<svg width="19" height="7" fill="none" xmlns="http://www.w3.org/2000/svg"><path d="M3.96 6.4c-.043 0-.075-.008-.096-.024a.387.387 0 01-.08-.104l-2.512-4.32v4.32c0 .053-.008.088-.024.104s-.05.024-.104.024H.48c-.043 0-.075-.008-.096-.024-.021-.016-.032-.05-.032-.104V.504C.352.44.362.4.384.384.405.363.445.352.504.352h.736a.16.16 0 01.096.024c.021.01.048.045.08.104l2.512 4.312V.48c0-.053.008-.088.024-.104s.05-.024.104-.024h.664c.053 0 .085.008.096.024.016.016.024.05.024.104v5.768c0 .064-.01.104-.032.12-.016.021-.053.032-.112.032H3.96zm2.524.008c-.106 0-.17-.01-.192-.032-.021-.016-.032-.083-.032-.2V.584c0-.107.008-.168.024-.184.022-.021.083-.032.184-.032h2.84c.059 0 .094.01.104.032.011.016.016.048.016.096v.592c0 .053-.008.09-.024.112-.016.016-.048.024-.096.024H7.14v1.632h2.064c.08 0 .12.043.12.128v.6c0 .09-.04.136-.12.136H7.14v1.824h2.264c.075 0 .112.045.112.136v.6c0 .085-.037.128-.112.128h-2.92zm10.074-.096c-.01.043-.024.067-.04.072a.18.18 0 01-.088.016h-.76c-.043 0-.072-.005-.088-.016-.016-.005-.03-.03-.04-.072l-1.328-4.544-1.328 4.544c-.01.043-.024.067-.04.072-.01.01-.04.016-.088.016h-.76c-.043 0-.072-.005-.088-.016-.016-.005-.03-.03-.04-.072L10.182.48c-.01-.037-.01-.064 0-.08.01-.021.05-.032.12-.032h.664c.037 0 .064.005.08.016.016.005.03.027.04.064l1.328 4.504L13.71.448c.01-.037.024-.059.04-.064a.2.2 0 01.088-.016h.752c.037 0 .064.005.08.016.021.005.037.027.048.064l1.296 4.504L17.342.448c.01-.037.024-.059.04-.064a.155.155 0 01.08-.016h.664c.07 0 .11.01.12.032.01.016.01.043 0 .08l-1.688 5.832z" fill="#6A6F81"/></svg>