<svg width="36" height="32" fill="none" xmlns="http://www.w3.org/2000/svg"><g clip-path="url(#clip0_330_2347)"><path opacity=".3" d="M12.407 31.44C9.177 32.41.783 33.3.03 22.898-.23 19.27 1.256 10.566 2.842 4.65h.007c.853-2.614 7.31-4.646 15.15-4.646 7.84 0 14.298 2.032 15.151 4.646h.005c1.587 5.916 3.083 14.62 2.813 18.247-.742 10.402-9.148 9.543-12.377 8.544l-.43-.134c-2.187-.678-3.337-1.035-5.162-1.035-1.737 0-2.885.348-4.86.947l-.732.222z" fill="#637EDD"/></g><defs><clipPath id="clip0_330_2347"><path fill="#fff" d="M0 0h36v32H0z"/></clipPath></defs></svg>