<svg width="32" height="32" fill="none" xmlns="http://www.w3.org/2000/svg"><g clip-path="url(#clip0_330_2395)"><path opacity=".3" fill-rule="evenodd" clip-rule="evenodd" d="M21.673 1.502a2 2 0 00-1.93-1.5h-7.657a1.999 1.999 0 00-1.94 1.5l-.73 2.83 12.527-1.8-.27-1.03zM.038 22.922c.67 10.41 8.108 9.49 10.998 8.54.178-.058.362-.12.55-.184h.001c1.339-.45 2.9-.976 4.408-.976 1.514 0 3.066.523 4.418.98l.54.18c2.88.95 10.318 1.87 10.998-8.54a29.275 29.275 0 00-.27-6c-.21-1.3-2.87-2.43-6.828-3.12l-.89-3.48h.32a1.002 1.002 0 00-.14-2h-.14l-17.056 2.4a1.01 1.01 0 00.28 2h.07l-.3 1.17c-3.93.7-6.539 1.84-6.679 3.15a30.127 30.127 0 00-.28 5.88zm8.49-15.148l-.381 1.478 14.996-2.08-.4-1.55h.34a.999.999 0 00.5-1.752 1 1 0 00-.66-.238h-.15L8.247 5.772a1.011 1.011 0 00.28 2.002z" fill="#637EDD"/></g><defs><clipPath id="clip0_330_2395"><path fill="#fff" d="M0 0h32v32H0z"/></clipPath></defs></svg>