<svg width="16" height="16" fill="none" xmlns="http://www.w3.org/2000/svg"><path d="M8.13 10.739L4.42 9.44a.46.46 0 00-.594.281.468.468 0 00.2.558.598.598 0 00.118.06l.156.051-.32.445 3.116 1.104.32-.444.408.141a.467.467 0 10.313-.882l-.008-.015zm1.533-2.128l-3.71-1.298a.468.468 0 10-.313.883l.149.052-.32.445 3.123 1.104.32-.445.408.142a.46.46 0 00.594-.281.468.468 0 00-.251-.602zm3.79-2.524l.745-1.038a.334.334 0 00-.074-.468L9.24 1.06a.334.334 0 00-.46.08l-.747 1.04a.341.341 0 00-.038.326l.74 1.716-.797 1.105-.408-.142a.468.468 0 00-.432.823l.119.06.156.052-.372.452 3.115 1.105.32-.445.409.142a.467.467 0 00.58-.642.475.475 0 00-.267-.241l-.149-.052.254-.356 1.855.151a.357.357 0 00.334-.147zm-6.849 6.779l-3.71-1.298a.468.468 0 00-.601.28.49.49 0 00.17.543.598.598 0 00.118.06l.156.052.07 2.16a.334.334 0 00.43.313l2.08-.628.536-.741.408.142a.463.463 0 00.594-.289.468.468 0 00-.251-.594z" fill="#6A6F81"/></svg>