<svg width="16" height="16" fill="none" xmlns="http://www.w3.org/2000/svg"><path fill-rule="evenodd" clip-rule="evenodd" d="M2.5 1.15a.85.85 0 01.85.847v.031l.007.126a6.334 6.334 0 00.51 2.058c.504 1.14 1.485 2.352 3.508 2.735.314.059.63.114.94.169.603.105 1.189.208 1.711.329.812.188 1.598.446 2.283.914 1.44.984 2.151 2.69 2.34 5.586a.85.85 0 11-1.697.11c-.177-2.716-.814-3.753-1.602-4.292-.43-.294-.978-.493-1.708-.662-.48-.111-.985-.2-1.553-.299-.32-.056-.66-.115-1.028-.184h-.002C4.365 8.106 2.987 6.426 2.312 4.9a8.033 8.033 0 01-.66-2.818l-.002-.055v-.026L2.5 2h-.85c0-.47.38-.85.85-.85z" fill="#9FA0A5"/></svg>