<svg width="16" height="16" fill="none" xmlns="http://www.w3.org/2000/svg"><path d="M7.991 1a4.42 4.42 0 00-4.41 4.42v1.576a4.36 4.36 0 00.8 2.533 7.753 7.753 0 011.448-.905v-.06a2.714 2.714 0 01-.5-1.568V5.42a2.696 2.696 0 115.385 0v1.576c0 1.56-1.853 2.378-2.956 2.731a5.488 5.488 0 00-4.126 4.187.862.862 0 00.655 1.025.669.669 0 00.189 0 .861.861 0 00.862-.672 3.791 3.791 0 012.937-2.912c2.68-.861 4.153-2.403 4.153-4.367V5.42A4.42 4.42 0 007.99 1zm3.404 10.76c-.474.33-.976.619-1.5.862a.698.698 0 00.087.155c.36.453.607.984.723 1.55a.862.862 0 00.862.673h.19a.862.862 0 00.646-1.026 5.367 5.367 0 00-1.008-2.214z" fill="#fff"/></svg>