<svg width="28" height="32" fill="none" xmlns="http://www.w3.org/2000/svg"><g clip-path="url(#clip0_330_2444)"><path opacity=".3" fill-rule="evenodd" clip-rule="evenodd" d="M18.652 1.57a2 2 0 00-2-1.57H11.25a2 2 0 00-2 1.57l-.49 2.27 10.002-1.43-.11-.84zm-8.496 29.882c.934-.288 2.572-.791 3.844-.791 1.27 0 2.865.49 3.825.785.127.039.243.075.346.105 2.58.77 10.342 1.77 9.802-8.64a43.88 43.88 0 00-.88-6.79c-.34-1-2.57-2-5.811-2.5l-.75-3.43.54-.08a1.003 1.003 0 10-.14-2h-.14l-14.324 2a1 1 0 00.28 1.98h.3l-.33 1.54c-3.25.55-5.47 1.46-5.811 2.5a42.671 42.671 0 00-.88 6.79c-.54 10.4 7.222 9.4 9.802 8.63.095-.028.205-.062.327-.1zM8.119 7.24h-.29v.04a1.01 1.01 0 11-.29-2L19.642 3.5h.15a1.003 1.003 0 11.14 2l-.42.06.34 1.54L7.779 8.77l.34-1.53z" fill="#637EDD"/></g><defs><clipPath id="clip0_330_2444"><path fill="#fff" d="M0 0h28v32H0z"/></clipPath></defs></svg>