<svg width="32" height="32" fill="none" xmlns="http://www.w3.org/2000/svg"><g clip-path="url(#clip0_330_2466)"><path opacity=".3" fill-rule="evenodd" clip-rule="evenodd" d="M31.962 9.083c-.67-10.41-8.108-9.49-10.998-8.54l-.55.185h-.001c-1.339.45-2.9.976-4.408.976-1.514 0-3.066-.524-4.418-.98a86.798 86.798 0 00-.54-.18C8.166-.407.729-1.327.049 9.083a29.276 29.276 0 00.27 6c.21 1.3 2.87 2.43 6.828 3.12l.89 3.48h-.32a1.003 1.003 0 00.14 2h.14l17.056-2.4a1.01 1.01 0 10-.28-2h-.07l.3-1.17c3.93-.7 6.539-1.84 6.679-3.15.285-1.947.379-3.916.28-5.88zm-21.635 21.42a2 2 0 001.93 1.5h7.658a2 2 0 001.939-1.5l.73-2.83-12.527 1.8.27 1.03zm13.145-6.272l.381-1.477-14.996 2.08.4 1.55h-.34a.999.999 0 00-.5 1.752 1 1 0 00.66.238h.15l14.526-2.14a1.011 1.011 0 00-.28-2.003z" fill="#637EDD"/></g><defs><clipPath id="clip0_330_2466"><path fill="#fff" d="M0 0h32v32H0z"/></clipPath></defs></svg>