<svg width="32" height="32" fill="none" xmlns="http://www.w3.org/2000/svg"><g clip-path="url(#clip0_330_2521)"><path opacity=".3" d="M16 30.3c1.333 0 2.786.434 3.556.7 1.444.5 3.11 1 4.444 1 2.5 0 8 0 8-12 0-9.5-6-20-9.778-20-2.21 0-2.852 2.301-3.464 4.495C18.2 6.492 17.668 8.4 16 8.4s-2.2-1.908-2.758-3.905C12.63 2.301 11.988 0 9.778 0 6 0 0 10.5 0 20c0 12 5.5 12 8 12 1.333 0 3-.5 4.444-1 .77-.266 2.223-.7 3.556-.7z" fill="#637EDD"/></g><defs><clipPath id="clip0_330_2521"><path fill="#fff" d="M0 0h32v32H0z"/></clipPath></defs></svg>