<svg width="32" height="32" fill="none" xmlns="http://www.w3.org/2000/svg"><path d="M25.613 14.378l-1.715-.419a8.295 8.295 0 00-.867-2.102l.908-1.52a.51.51 0 00-.071-.623l-1.582-1.581a.52.52 0 00-.633-.072l-1.51.909a8.295 8.295 0 00-2.102-.868l-.428-1.714a.49.49 0 00-.49-.388h-2.235a.5.5 0 00-.5.388l-.418 1.714a8.367 8.367 0 00-2.112.868l-1.51-.909a.51.51 0 00-.623.072L8.143 9.725a.5.5 0 00-.081.622l.918 1.52a7.968 7.968 0 00-.877 2.102l-1.715.419a.52.52 0 00-.388.5v2.234a.52.52 0 00.388.5l1.715.419a8.03 8.03 0 00.877 2.112l-.918 1.51a.5.5 0 00.081.623l1.582 1.581a.5.5 0 00.622.082l1.51-.918a7.683 7.683 0 002.113.867l.418 1.724a.51.51 0 00.5.388h2.235a.5.5 0 00.49-.388l.428-1.724a7.611 7.611 0 002.102-.867l1.51.918a.51.51 0 00.633-.082l1.582-1.581a.51.51 0 00.071-.623l-.908-1.51a8.366 8.366 0 00.867-2.112l1.715-.419a.51.51 0 00.387-.5v-2.234a.51.51 0 00-.387-.51zM16 20.082a4.082 4.082 0 110-8.164 4.082 4.082 0 010 8.164z" fill="#6A6F81"/></svg>