<svg width="12" height="12" fill="none" xmlns="http://www.w3.org/2000/svg"><path d="M6.097 8.054l-2.782-.973a.345.345 0 00-.446.21.35.35 0 00.15.418.445.445 0 00.089.045l.117.04-.24.333 2.336.828.24-.334.306.107a.351.351 0 00.235-.663l-.005-.01zm1.149-1.596l-2.782-.973a.35.35 0 10-.235.662l.112.039-.24.334 2.342.828.24-.334.306.107a.345.345 0 00.446-.211.35.35 0 00-.189-.452zm2.844-1.893l.558-.778a.25.25 0 00-.055-.351L6.929.796a.25.25 0 00-.346.06l-.558.779a.256.256 0 00-.028.245l.554 1.287-.597.828-.306-.106a.35.35 0 00-.324.617l.09.045.116.04-.279.338 2.337.829.24-.334.306.106a.35.35 0 10.235-.662l-.111-.039.19-.267 1.391.114a.267.267 0 00.25-.11zM4.952 9.65L2.17 8.675a.35.35 0 00-.451.21.367.367 0 00.127.407.446.446 0 00.089.045l.117.039.053 1.62a.25.25 0 00.322.234l1.56-.47.402-.556.306.106a.345.345 0 00.445-.216.35.35 0 00-.188-.446z" fill="#9FA0A5"/></svg>