<svg width="32" height="32" fill="none" xmlns="http://www.w3.org/2000/svg"><g clip-path="url(#clip0_320_10691)"><path d="M11.028 31.437c-2.87.97-10.332 1.858-11.002-8.544-.23-3.627 1.09-12.331 2.5-18.247h.006C3.291 2.032 9.031 0 16 0s12.71 2.032 13.468 4.646h.004c1.41 5.916 2.74 14.62 2.5 18.247-.66 10.402-8.13 9.543-11.001 8.544l-.382-.134c-1.945-.678-2.967-1.036-4.589-1.036-1.544 0-2.565.35-4.32.948l-.65.222z" fill="#DBE5FF"/></g><defs><clipPath id="clip0_320_10691"><path fill="#fff" d="M0 0h32v32H0z"/></clipPath></defs></svg>