<svg width="12" height="12" fill="none" xmlns="http://www.w3.org/2000/svg"><path d="M5.993.75a3.315 3.315 0 00-3.308 3.315v1.182a3.27 3.27 0 00.601 1.9c.336-.266.7-.493 1.086-.679v-.045a2.035 2.035 0 01-.375-1.176V4.065a2.022 2.022 0 114.038 0v1.182c0 1.17-1.389 1.784-2.216 2.048a4.116 4.116 0 00-3.095 3.14.646.646 0 00.491.77.505.505 0 00.142 0 .646.646 0 00.646-.504 2.843 2.843 0 012.204-2.184C8.217 7.87 9.32 6.714 9.32 5.24V4.065A3.315 3.315 0 005.993.75zm2.553 8.07a7.443 7.443 0 01-1.124.646c.016.042.038.08.064.117.27.34.456.738.543 1.163a.646.646 0 00.646.504h.143a.646.646 0 00.484-.77 4.026 4.026 0 00-.756-1.66z" fill="#6A6F81"/></svg>