<svg width="16" height="16" fill="none" xmlns="http://www.w3.org/2000/svg"><path d="M8.13 10.739L4.42 9.44a.46.46 0 00-.594.281.468.468 0 00.2.558.598.598 0 00.118.06l.156.051-.32.445 3.115 1.104.32-.444.408.141a.467.467 0 10.314-.882l-.008-.015zm1.532-2.128L5.953 7.313a.468.468 0 10-.313.883l.148.052-.32.445 3.123 1.104.32-.445.408.142a.46.46 0 00.595-.281.468.468 0 00-.252-.602zm3.791-2.524l.744-1.038a.334.334 0 00-.073-.468L9.238 1.06a.334.334 0 00-.46.08l-.745 1.04a.341.341 0 00-.037.326l.739 1.716-.796 1.105-.408-.142a.468.468 0 00-.432.823l.118.06.156.052-.372.452 3.116 1.105.32-.445.408.142a.467.467 0 00.58-.642.475.475 0 00-.267-.241l-.148-.052.253-.356 1.855.151a.357.357 0 00.335-.147zm-6.849 6.779l-3.71-1.298a.466.466 0 00-.603.58.49.49 0 00.172.243.598.598 0 00.118.06l.156.052.07 2.16a.334.334 0 00.43.313l2.08-.627.536-.742.408.142a.459.459 0 00.594-.288.468.468 0 00-.251-.595z" fill="#9FA0A5"/></svg>