<svg width="36" height="32" fill="none" xmlns="http://www.w3.org/2000/svg"><g clip-path="url(#clip0_320_10909)"><path d="M18 30.4c1.5 0 2.773.293 4 .6.417.104.813.209 1.192.308 1.434.379 2.621.692 3.808.692 1.5 0 9 0 9-12C36 9.5 28.5 0 25 0c-2.722 0-3.518 2.52-4.242 4.815C20.15 6.736 19.593 8.5 18 8.5s-2.151-1.764-2.758-3.685C14.518 2.52 13.723 0 11 0 7.5 0 0 9.5 0 20c0 12 7.5 12 9 12 1.187 0 2.374-.313 3.809-.692.378-.1.774-.204 1.191-.308 1.227-.307 2.5-.6 4-.6z" fill="#FDE6E2"/></g><defs><clipPath id="clip0_320_10909"><path fill="#fff" d="M0 0h36v32H0z"/></clipPath></defs></svg>