<svg width="36" height="32" fill="none" xmlns="http://www.w3.org/2000/svg"><g clip-path="url(#clip0_320_10680)"><path fill-rule="evenodd" clip-rule="evenodd" d="M23.784 1.5a2.002 2.002 0 00-1.94-1.5h-7.656a1.998 1.998 0 00-1.93 1.5l-.649 2.512 12.365-1.77-.19-.741zM10.5 7.427h.27l-.4 1.551 14.823-2.061-.4-1.551.6-.09a1.002 1.002 0 00.579-1.761 1.002 1.002 0 00-.729-.24h-.15L10.2 5.475a1.01 1.01 0 00-.85 1.15 1.013 1.013 0 001.15.851v-.05zm1.52 24.075c-2.89.91-10.256 1.72-11.796-8.566a20.032 20.032 0 01-.07-5.473c.24-1.61 3.759-3.002 8.907-3.762l.35-1.36h-.36a1.008 1.008 0 01-1.14-.861 1.011 1.011 0 01.86-1.141l17.462-2.452h.14a1.002 1.002 0 01.826 1.659c-.174.2-.421.324-.686.343l-.6.08 1 3.682c5.137.76 8.666 2.151 8.896 3.762a20.028 20.028 0 010 5.524c-1.53 10.286-8.896 9.475-11.795 8.565-4.507-1.502-7.505-1.502-11.995 0z" fill="#DBE5FF"/></g><defs><clipPath id="clip0_320_10680"><path fill="#fff" d="M0 0h36v32H0z"/></clipPath></defs></svg>