<svg width="16" height="16" fill="none" xmlns="http://www.w3.org/2000/svg"><mask id="path-1-inside-1_4_12631" fill="#fff"><path fill-rule="evenodd" clip-rule="evenodd" d="M4 1.667a.667.667 0 011.333 0V3h5.333V1.667a.667.667 0 111.334 0V3h.666a2 2 0 012 2v1.333H1.333V5a2 2 0 012-2H4V1.667zm10.666 6H1.333v4.666a2 2 0 002 2h9.333a2 2 0 002-2V7.666z"/></mask><path fill-rule="evenodd" clip-rule="evenodd" d="M4 1.667a.667.667 0 011.333 0V3h5.333V1.667a.667.667 0 111.334 0V3h.666a2 2 0 012 2v1.333H1.333V5a2 2 0 012-2H4V1.667zm10.666 6H1.333v4.666a2 2 0 002 2h9.333a2 2 0 002-2V7.666z" fill="#6A6F81"/><path d="M5.333 3h-1v1h1V3zm5.333 0v1h1V3h-1zM12 3h-1v1h1V3zm2.666 3.333v1h1v-1h-1zm-13.333 0h-1v1h1v-1zM4 3v1h1V3H4zM1.333 7.667v-1h-1v1h1zm13.333 0h1v-1h-1v1zM4.666 0C3.747 0 3 .746 3 1.667h2C5 1.85 4.85 2 4.667 2V0zm1.667 1.667C6.333.747 5.587 0 4.667 0v2a.333.333 0 01-.334-.333h2zm0 1.333V1.667h-2V3h2zm4.333-1H5.333v2h5.333V2zm1 1V1.667h-2V3h2zm0-1.333a.333.333 0 01-.333.333V0c-.92 0-1.667.746-1.667 1.667h2zM11.333 2A.333.333 0 0111 1.667h2C13 .747 12.254 0 11.333 0v2zM11 1.667V3h2V1.667h-2zM12.666 2H12v2h.666V2zm3 3a3 3 0 00-3-3v2a1 1 0 011 1h2zm0 1.333V5h-2v1.333h2zm-14.333 1h13.333v-2H1.333v2zM.333 5v1.333h2V5h-2zm3-3a3 3 0 00-3 3h2a1 1 0 011-1V2zM4 2h-.667v2H4V2zm-1-.333V3h2V1.667H3zm-1.667 7h13.333v-2H1.333v2zm1 3.666V7.666h-2v4.667h2zm1 1a1 1 0 01-1-1h-2a3 3 0 003 3v-2zm9.333 0H3.333v2h9.333v-2zm1-1a1 1 0 01-1 1v2a3 3 0 003-3h-2zm0-4.667v4.667h2V7.666h-2z" fill="#6A6F81" mask="url(#path-1-inside-1_4_12631)"/></svg>