<svg width="16" height="16" viewBox="0 0 16 16" fill="none" xmlns="http://www.w3.org/2000/svg">
<path fill-rule="evenodd" clip-rule="evenodd" d="M3.99995 1.86686C3.99995 1.49867 4.29843 1.2002 4.66662 1.2002C5.03481 1.2002 5.33328 1.49867 5.33328 1.86686V3.2002H10.6667V1.86686C10.6667 1.49867 10.9651 1.2002 11.3333 1.2002C11.7015 1.2002 12 1.49867 12 1.86686V3.2002H12.6666C13.7712 3.2002 14.6666 4.09563 14.6666 5.2002V6.53353H1.33325V5.20019C1.33325 4.09563 2.22868 3.2002 3.33325 3.2002H3.99995V1.86686ZM14.6666 7.86686H1.33325V12.5335C1.33325 13.6381 2.22868 14.5335 3.33325 14.5335H12.6666C13.7712 14.5335 14.6666 13.6381 14.6666 12.5335V7.86686Z" fill="#454548"/>
</svg>
