<svg width="16" height="16" viewBox="0 0 16 16" fill="none" xmlns="http://www.w3.org/2000/svg">
<path fill-rule="evenodd" clip-rule="evenodd" d="M3.99995 1.86668C3.99995 1.49849 4.29843 1.20001 4.66662 1.20001C5.03481 1.20001 5.33328 1.49849 5.33328 1.86668V3.20001H10.6667V1.86668C10.6667 1.49849 10.9651 1.20001 11.3333 1.20001C11.7015 1.20001 12 1.49849 12 1.86668V3.20001H12.6666C13.7712 3.20001 14.6666 4.09544 14.6666 5.20001V6.53335H1.33325V5.20001C1.33325 4.09544 2.22868 3.20001 3.33325 3.20001H3.99995V1.86668ZM14.6666 7.86668H1.33325V12.5333C1.33325 13.6379 2.22868 14.5333 3.33325 14.5333H12.6666C13.7712 14.5333 14.6666 13.6379 14.6666 12.5333V7.86668Z" fill="#ADB2C2"/>
</svg>
