<svg width="16" height="16" viewBox="0 0 16 16" fill="none" xmlns="http://www.w3.org/2000/svg">
<path fill-rule="evenodd" clip-rule="evenodd" d="M2.25 6.54396C2.25 4.17247 4.17247 2.25 6.54396 2.25C8.91545 2.25 10.8379 4.17247 10.8379 6.54396C10.8379 8.91545 8.91545 10.8379 6.54396 10.8379C4.17247 10.8379 2.25 8.91545 2.25 6.54396ZM6.54396 0.75C3.34404 0.75 0.75 3.34404 0.75 6.54396C0.75 9.74387 3.34404 12.3379 6.54396 12.3379C7.87362 12.3379 9.09866 11.89 10.0764 11.1369L13.9697 15.0301L15.0304 13.9695L11.1371 10.0762C11.8901 9.09843 12.3379 7.87349 12.3379 6.54396C12.3379 3.34404 9.74387 0.75 6.54396 0.75Z" fill="#6A6F81"/>
</svg>
