<svg width="14" height="14" viewBox="0 0 14 14" fill="none" xmlns="http://www.w3.org/2000/svg">
<path d="M11.2915 7.62006C11.3577 7.20927 11.3577 6.79054 11.2915 6.37975L12.3458 5.52393C12.4015 5.47601 12.4388 5.41017 12.4513 5.33774C12.4637 5.26532 12.4505 5.19082 12.414 5.12705L11.3288 3.26659C11.2913 3.2035 11.2331 3.15538 11.1641 3.13049C11.0951 3.1056 11.0196 3.10549 10.9505 3.13015L9.71016 3.61387C9.38582 3.3543 9.02411 3.14522 8.63729 2.99372L8.41403 1.66039C8.40352 1.58754 8.36692 1.52097 8.31103 1.47307C8.25515 1.42516 8.18376 1.39916 8.11016 1.39992H5.94583C5.87184 1.40021 5.80029 1.42642 5.74364 1.47401C5.68698 1.5216 5.64881 1.58756 5.63575 1.66039L5.41869 2.99372C5.03063 3.14658 4.66707 3.35552 4.33962 3.61387L3.09932 3.13015C3.03022 3.10549 2.95471 3.1056 2.8857 3.13049C2.81668 3.15538 2.75847 3.2035 2.72102 3.26659L1.63576 5.12705C1.59995 5.1915 1.5878 5.26645 1.60139 5.33892C1.61498 5.41139 1.65346 5.47683 1.71018 5.52393L2.75824 6.37975C2.69209 6.79054 2.69209 7.20927 2.75824 7.62006L1.66057 8.47587C1.60384 8.52298 1.56536 8.58843 1.55177 8.66091C1.53819 8.73338 1.55035 8.80832 1.58615 8.87278L2.67142 10.7332C2.70887 10.7963 2.76707 10.8444 2.83608 10.8693C2.90509 10.8942 2.98061 10.8943 3.0497 10.8697L4.29001 10.3859C4.61746 10.6443 4.98101 10.8532 5.36908 11.0061L5.58614 12.3394C5.5992 12.4123 5.63737 12.4782 5.69402 12.5258C5.75068 12.5734 5.82223 12.5996 5.89622 12.5999H8.06055C8.13416 12.6006 8.20554 12.5747 8.26143 12.5268C8.31732 12.4789 8.35391 12.4123 8.36442 12.3394L8.58767 11.0061C8.97448 10.8546 9.3362 10.6455 9.66054 10.3859L10.9008 10.8697C10.9699 10.8943 11.0455 10.8942 11.1145 10.8693C11.1835 10.8444 11.2417 10.7963 11.2792 10.7332L12.3644 8.87278C12.4009 8.809 12.4141 8.73449 12.4016 8.66206C12.3892 8.58963 12.3519 8.5238 12.2962 8.47587L11.2915 7.62006ZM7.00009 8.9658C6.61127 8.9658 6.23119 8.8505 5.9079 8.63449C5.58461 8.41847 5.33264 8.11143 5.18385 7.75221C5.03505 7.39299 4.99612 6.99772 5.07198 6.61638C5.14783 6.23503 5.33506 5.88475 5.60999 5.60982C5.88493 5.33488 6.23522 5.14766 6.61656 5.0718C6.99791 4.99595 7.39318 5.03488 7.7524 5.18367C8.11162 5.33246 8.41865 5.58444 8.63466 5.90773C8.85068 6.23101 8.96597 6.61109 8.96597 6.9999C8.96597 7.25807 8.91512 7.5137 8.81633 7.75221C8.71753 7.99073 8.57273 8.20746 8.39018 8.39001C8.20763 8.57255 7.99091 8.71736 7.7524 8.81615C7.51389 8.91495 7.25825 8.9658 7.00009 8.9658Z" fill="#9FA0A5"/>
</svg>
