<svg width="16" height="16" viewBox="0 0 16 16" fill="none" xmlns="http://www.w3.org/2000/svg">
<path fill-rule="evenodd" clip-rule="evenodd" d="M4 1.86667C4 1.49848 4.29848 1.2 4.66667 1.2C5.03486 1.2 5.33333 1.49848 5.33333 1.86667V3.2H10.6667V1.86667C10.6667 1.49848 10.9652 1.2 11.3334 1.2C11.7016 1.2 12 1.49848 12 1.86667V3.2H12.6666C13.7712 3.2 14.6666 4.09543 14.6666 5.2V6.53334H1.3333V5.2C1.3333 4.09543 2.22873 3.2 3.3333 3.2H4V1.86667ZM14.6666 7.86667H1.3333V12.5333C1.3333 13.6379 2.22873 14.5333 3.3333 14.5333H12.6666C13.7712 14.5333 14.6666 13.6379 14.6666 12.5333V7.86667Z" fill="#ADB2C2"/>
</svg>
