<svg width="10" height="7" viewBox="0 0 10 7" fill="none" xmlns="http://www.w3.org/2000/svg">
<path fill-rule="evenodd" clip-rule="evenodd" d="M9.52677 0.190693L9.52777 0.191692L9.52877 0.192692C9.78477 0.448692 9.78577 0.862692 9.52977 1.11969L4.89677 5.77169L4.48677 6.21169C4.36821 6.33897 4.20395 6.41395 4.03011 6.42014C3.85627 6.42633 3.68709 6.36322 3.55977 6.24469L0.488774 3.37969C0.36147 3.26101 0.286527 3.09661 0.280432 2.92267C0.274337 2.74873 0.337589 2.5795 0.456274 2.45219C0.574958 2.32489 0.739353 2.24995 0.913293 2.24385C1.08723 2.23776 1.25647 2.30101 1.38377 2.41969L3.97477 4.83669L8.60077 0.192692C8.72333 0.0696852 8.88972 0.000376564 9.06336 1.52991e-06C9.237 -0.000373505 9.40369 0.0682159 9.52677 0.190693Z" fill="white"/>
</svg>
