<svg width="10" height="7" viewBox="0 0 10 7" fill="none" xmlns="http://www.w3.org/2000/svg">
<path fill-rule="evenodd" clip-rule="evenodd" d="M9.52702 0.190693L9.52802 0.191692L9.52902 0.192692C9.78502 0.448692 9.78602 0.862692 9.53002 1.11969L4.89702 5.77169L4.48702 6.21169C4.36845 6.33897 4.20419 6.41395 4.03035 6.42014C3.85651 6.42633 3.68733 6.36322 3.56002 6.24469L0.489018 3.37969C0.361714 3.26101 0.286771 3.09661 0.280676 2.92267C0.274581 2.74873 0.337834 2.5795 0.456518 2.45219C0.575202 2.32489 0.739597 2.24995 0.913537 2.24385C1.08748 2.23776 1.25671 2.30101 1.38402 2.41969L3.97502 4.83669L8.60102 0.192692C8.72358 0.0696852 8.88996 0.000376564 9.0636 1.52991e-06C9.23725 -0.000373505 9.40393 0.0682159 9.52702 0.190693Z" fill="#454548"/>
</svg>
