<svg width="24" height="24" fill="none" xmlns="http://www.w3.org/2000/svg"><path fill-rule="evenodd" clip-rule="evenodd" d="M6 5a1 1 0 00-1 1v12a1 1 0 001 1h12a1 1 0 001-1V6a1 1 0 00-1-1H6zm10.658 8.64L18 15.116v1.601l-2.139-2.353a.539.539 0 00-.78-.018l-1.29 1.29L15.76 18h-1.4l-4.878-5.85a.538.538 0 00-.82-.007L6 15.213V13.57l1.847-2.132a1.615 1.615 0 012.461.024l2.79 3.345 1.222-1.222a1.615 1.615 0 012.338.056zm-1.741-3.884a.673.673 0 100-1.346.673.673 0 000 1.346zm0 1.077a1.75 1.75 0 100-3.5 1.75 1.75 0 000 3.5z" fill="#9FA0A5"/></svg>