<svg width="24" height="24" fill="none" xmlns="http://www.w3.org/2000/svg"><rect x="5" y="5" width="14" height="14" rx="1" fill="#6A6F81"/><path fill-rule="evenodd" clip-rule="evenodd" d="M18 15.116l-1.342-1.476a1.615 1.615 0 00-2.338-.056l-1.222 1.223-2.79-3.346a1.615 1.615 0 00-2.46-.023L6 13.569v1.644l2.66-3.07a.538.538 0 01.821.008L14.36 18h1.402l-1.97-2.363 1.29-1.291a.539.539 0 01.78.018L18 16.717v-1.6zm-2.41-6.033a.673.673 0 11-1.346 0 .673.673 0 011.346 0zm1.077 0a1.75 1.75 0 11-3.5 0 1.75 1.75 0 013.5 0z" fill="#fff"/></svg>