<svg width="16" height="16" viewBox="0 0 16 16" fill="none" xmlns="http://www.w3.org/2000/svg">
<path fill-rule="evenodd" clip-rule="evenodd" d="M8 15C4.13401 15 1 11.866 1 8C1 4.13401 4.13401 1 8 1C11.866 1 15 4.13401 15 8C15 11.866 11.866 15 8 15ZM0 8C0 3.58172 3.58172 0 8 0C12.4183 0 16 3.58172 16 8C16 12.4183 12.4183 16 8 16C3.58172 16 0 12.4183 0 8ZM10.6465 4.64648L8.00004 7.29293L5.35359 4.64648L4.64648 5.35359L7.29293 8.00004L4.64648 10.6465L5.35359 11.3536L8.00004 8.70714L10.6465 11.3536L11.3536 10.6465L8.70714 8.00004L11.3536 5.35359L10.6465 4.64648Z" fill="#9FA0A5"/>
</svg>
