<svg width="16" height="11" viewBox="0 0 16 11" fill="none" xmlns="http://www.w3.org/2000/svg">
<path fill-rule="evenodd" clip-rule="evenodd" d="M15.2019 0.530914L15.2035 0.532504L15.2051 0.534095C15.6124 0.941368 15.614 1.6 15.2067 2.00887L7.83603 9.40978L7.18376 10.1098C6.99513 10.3123 6.7338 10.4316 6.45724 10.4414C6.18068 10.4512 5.91153 10.3508 5.70899 10.1623L0.823305 5.60432C0.620776 5.41551 0.501548 5.15397 0.491852 4.87725C0.482156 4.60052 0.582784 4.33128 0.7716 4.12875C0.960416 3.92622 1.22195 3.807 1.49868 3.7973C1.7754 3.7876 2.04464 3.88823 2.24717 4.07705L6.36921 7.92228L13.7288 0.534095C13.9237 0.338402 14.1884 0.228138 14.4647 0.227541C14.7409 0.226945 15.0061 0.336064 15.2019 0.530914Z" fill="white"/>
</svg>
