<svg width="775" height="550" viewBox="0 0 775 550" fill="none" xmlns="http://www.w3.org/2000/svg">
<path d="M472.431 186.44C476.689 196.668 482.358 206.25 489.273 214.906L479.27 235.926L499.487 251.118L519.704 266.31L537.091 250.793C547.335 255.023 558.124 257.793 569.139 259.021L576.91 281L601.979 277.422L627.039 273.844L628.358 250.59C638.587 246.325 648.168 240.647 656.82 233.72L677.854 243.751L693.043 223.531L708.241 203.31L692.789 185.815C697.017 175.568 699.79 164.779 701.025 153.762L723 145.99L719.414 120.926L715.836 95.8528L692.595 94.5341C688.331 84.3031 682.653 74.7209 675.727 66.0675L685.757 45.0296L665.54 29.838L645.322 14.6465L627.839 30.2073C617.594 25.9766 606.806 23.2066 595.791 21.9785L588.02 0L562.951 3.57809L537.891 7.1562L536.572 30.4095C526.343 34.6745 516.762 40.3534 508.11 47.2802L487.075 37.2404L471.877 57.4607L456.688 77.6809L472.203 95.0704C467.981 105.316 465.211 116.102 463.975 127.115L442 134.895L445.578 159.96L449.155 185.024L472.431 186.44ZM570.001 52.6606C587.369 50.1802 605.083 52.9065 620.902 60.4949C636.722 68.0833 649.936 80.1929 658.874 95.2925C667.812 110.392 672.073 127.803 671.117 145.325C670.162 162.846 664.033 179.691 653.506 193.728C642.979 207.766 628.526 218.366 611.975 224.189C595.424 230.011 577.519 230.795 560.523 226.44C543.528 222.085 528.205 212.787 516.492 199.722C504.78 186.657 497.204 170.412 494.723 153.041C491.397 129.753 497.453 106.096 511.561 87.2728C525.669 68.4494 546.674 55.9996 569.957 52.6606H570.001Z" fill="#5C80FF" fill-opacity="0.1"/>
<path d="M88.5058 523H695.531C726.775 502.016 749.642 466.568 754.73 421.935C763.745 342.846 723.571 289.445 671.91 267.771C620.25 246.097 662.079 146.714 566.935 108.392C491.769 78.0862 398.437 112.092 361.236 165.127C319.135 225.186 260.355 173.488 190.57 178.713C120.786 183.938 83.4592 246.097 102.149 317.964C118.524 381.084 24.8884 356.871 31.3171 444.831C34.1231 483.236 61.7438 507.941 88.5058 523Z" fill="#E1EDFF"/>
<path d="M210.748 303H398.252C406.949 303 414 296.6 414 288.705L414 54.2946C414 46.3999 406.949 40 398.252 40H210.748C202.051 40 195 46.3999 195 54.2946L195 288.705C195 296.6 202.051 303 210.748 303Z" fill="#ADC0FF"/>
<path d="M217.582 50H387.291C394.47 50 400.291 55.8203 400.291 63V331.15H207V59.6106C207 58.3489 207.273 57.0994 207.805 55.9335C208.336 54.7677 209.116 53.7083 210.098 52.8159C211.081 51.9234 212.248 51.2154 213.532 50.7323C214.816 50.2492 216.192 50.0003 217.582 50Z" fill="white"/>
<path d="M379.479 93H327.734V99.543H379.479V93Z" fill="#ADC0FF"/>
<path d="M375.234 120.428H327.734V126.971H375.234V120.428Z" fill="#ADC0FF"/>
<path d="M368.832 106.714H327.734V113.257H368.832V106.714Z" fill="#ADC0FF"/>
<path d="M267.5 152C261.584 152.015 255.734 150.753 250.349 148.302C243.097 144.995 236.946 139.675 232.63 132.973C228.313 126.272 226.012 118.472 226 110.501C226 87.6173 244.617 69 267.5 69C290.383 69 309 87.6173 309 110.501C308.988 118.472 306.687 126.273 302.371 132.974C298.054 139.675 291.904 144.996 284.651 148.302C279.266 150.753 273.416 152.015 267.5 152Z" fill="#ADC0FF" fill-opacity="0.4"/>
<path d="M284.377 87.0971C279.133 83.32 273.147 85.6442 271.571 86.4197C270.52 86.9381 268.652 87.5263 267.502 87.5263C266.351 87.5263 264.483 86.9381 263.432 86.4197C261.863 85.6442 255.875 83.32 250.627 87.0971C245.378 90.8743 244.486 99.0058 248.509 106.85C251.801 113.265 252.042 119.919 252.241 124.472C252.439 129.025 253.614 137.64 258.129 136.962C262.644 136.285 263.331 130.183 263.722 123.988C263.998 119.632 266.04 117.216 267.497 117.216C268.954 117.216 270.997 119.641 271.273 123.988C271.666 130.183 272.352 136.285 276.867 136.962C281.383 137.64 282.559 129.022 282.756 124.472C282.952 119.922 283.197 113.265 286.485 106.85C290.517 99.0058 289.62 90.8721 284.377 87.0971Z" fill="white"/>
<path d="M302 171H229V177H302V171Z" fill="#E0E0E0"/>
<path d="M289 187H229V193H289V187Z" fill="#E0E0E0"/>
<path d="M289 202H229V208H289V202Z" fill="#E0E0E0"/>
<path d="M342.846 167.993H332.92V173.827H342.846V167.993Z" fill="#4E7ED6"/>
<path d="M342.846 183.688H332.92V189.522H342.846V183.688Z" fill="#4E7ED6"/>
<path d="M463.225 146H375.775C365.406 146 357 154.016 357 163.904V309.096C357 318.984 365.406 327 375.775 327H463.225C473.594 327 482 318.984 482 309.096V163.904C482 154.016 473.594 146 463.225 146Z" fill="white"/>
<path d="M375.775 147.5H463.225C472.834 147.5 480.5 154.911 480.5 163.904V309.096C480.5 318.089 472.834 325.5 463.225 325.5H375.775C366.166 325.5 358.5 318.089 358.5 309.096V163.904C358.5 154.911 366.166 147.5 375.775 147.5Z" stroke="#ADC0FF" stroke-opacity="0.5" stroke-width="3"/>
<path d="M464.913 174.243C464.069 171.818 462.754 169.583 461.042 167.669C459.331 165.755 457.257 164.199 454.94 163.091C452.624 161.983 450.111 161.344 447.546 161.212C444.982 161.08 442.416 161.457 439.998 162.322C437.58 163.187 435.357 164.522 433.458 166.25C431.559 167.978 430.021 170.065 428.933 172.391C427.845 174.716 427.228 177.234 427.119 179.8C427.01 182.365 427.41 184.926 428.296 187.336C428.442 187.746 428.602 188.152 428.774 188.546C430.786 193.171 434.518 196.832 439.18 198.758C443.842 200.683 449.071 200.722 453.761 198.866C458.452 197.009 462.237 193.403 464.318 188.809C466.398 184.214 466.612 178.991 464.913 174.243ZM451.513 194.514C448.032 195.762 444.206 195.639 440.811 194.171C437.417 192.702 434.709 189.997 433.236 186.605C433.107 186.309 432.988 186.006 432.878 185.696C431.906 182.981 431.762 180.039 432.463 177.242C433.164 174.445 434.679 171.919 436.816 169.983C438.954 168.047 441.618 166.788 444.471 166.366C447.324 165.944 450.238 166.378 452.844 167.612C455.451 168.846 457.633 170.826 459.114 173.3C460.595 175.774 461.309 178.632 461.165 181.512C461.021 184.391 460.027 187.164 458.306 189.478C456.586 191.793 454.218 193.545 451.502 194.514H451.513Z" fill="#E4E6EC"/>
<path d="M432.687 176.443L428.041 174.987C429.25 171.128 431.631 167.741 434.853 165.296C438.075 162.851 441.979 161.47 446.022 161.345L446.168 166.207C443.137 166.303 440.21 167.338 437.795 169.171C435.379 171.004 433.594 173.543 432.687 176.436V176.443Z" fill="#5C80FF"/>
<path d="M433.236 186.605L428.773 188.546C428.601 188.152 428.442 187.746 428.296 187.336C426.867 183.36 426.777 179.026 428.04 174.994L432.687 176.443C431.738 179.466 431.805 182.715 432.878 185.696C432.988 186.006 433.107 186.309 433.236 186.605Z" fill="#ADC0FF"/>
<path d="M431.789 193.387C430.549 191.931 429.533 190.3 428.773 188.546L433.236 186.605C433.805 187.919 434.566 189.142 435.494 190.233L431.789 193.387Z" fill="#CAD6FF"/>
<path d="M443.43 286.049H432.948V320.409H443.43V286.049Z" fill="#46BBED"/>
<path d="M427.848 295.686H417.367V320.409H427.848V295.686Z" fill="#46BBED"/>
<path d="M458.548 270.125H448.067V320.411H458.548V270.125Z" fill="#46BBED"/>
<path d="M372.878 282.509L371.968 281.81L389.047 259.591L410.127 260.734L426.024 235.426L443.148 233.66L453.439 213.31L454.466 213.828L443.891 234.736L426.7 236.51L410.741 261.918L389.589 260.77L372.878 282.509Z" fill="#46BBED"/>
<path d="M408.192 173.023H378.375C377.928 173.023 377.485 172.934 377.071 172.763C376.658 172.592 376.282 172.341 375.966 172.025C375.65 171.709 375.399 171.333 375.227 170.92C375.056 170.506 374.968 170.064 374.968 169.616C374.968 168.713 375.327 167.846 375.966 167.208C376.605 166.569 377.472 166.21 378.375 166.21H408.192C408.64 166.21 409.083 166.297 409.497 166.468C409.91 166.639 410.286 166.89 410.603 167.207C410.919 167.523 411.171 167.899 411.342 168.312C411.513 168.726 411.602 169.169 411.602 169.616C411.602 170.064 411.513 170.507 411.342 170.92C411.171 171.334 410.919 171.709 410.603 172.026C410.286 172.342 409.91 172.593 409.497 172.764C409.083 172.935 408.64 173.023 408.192 173.023Z" fill="#5C80FF"/>
<path d="M408.192 184.908H378.375C377.472 184.908 376.605 184.549 375.966 183.91C375.327 183.271 374.968 182.405 374.968 181.502C374.967 181.054 375.055 180.61 375.226 180.197C375.397 179.783 375.648 179.407 375.964 179.09C376.281 178.773 376.657 178.522 377.07 178.35C377.484 178.179 377.927 178.09 378.375 178.09H408.192C408.64 178.09 409.083 178.178 409.497 178.349C409.91 178.52 410.286 178.771 410.603 179.087C410.919 179.404 411.171 179.779 411.342 180.193C411.513 180.606 411.602 181.049 411.602 181.497C411.602 181.945 411.514 182.388 411.343 182.802C411.172 183.216 410.921 183.593 410.605 183.909C410.288 184.226 409.912 184.478 409.498 184.649C409.084 184.82 408.64 184.908 408.192 184.908Z" fill="#E4E6EC"/>
<path d="M408.192 196.793H378.375C377.472 196.793 376.605 196.434 375.966 195.796C375.327 195.157 374.968 194.29 374.968 193.387C374.968 192.483 375.327 191.617 375.966 190.978C376.605 190.339 377.472 189.98 378.375 189.98H408.192C408.64 189.98 409.083 190.068 409.497 190.239C409.91 190.41 410.286 190.661 410.603 190.977C410.919 191.294 411.171 191.669 411.342 192.083C411.513 192.496 411.602 192.939 411.602 193.387C411.602 193.834 411.513 194.278 411.342 194.691C411.171 195.104 410.919 195.48 410.603 195.796C410.286 196.113 409.91 196.364 409.497 196.535C409.083 196.706 408.64 196.794 408.192 196.793Z" fill="#E4E6EC"/>
<path d="M20.041 305.57C20.041 305.57 -7.23403 295.946 1.85415 269.206C10.9423 242.467 52.7775 241.798 54.9177 270.001C55.8877 282.853 48.5181 314.013 20.041 305.57Z" fill="#E1EDFF"/>
<path d="M740.507 214.146C740.507 214.146 753.27 203.221 764.081 215.558C774.892 227.896 763.079 249.134 748.271 242.02C741.524 238.775 727.99 226.018 740.507 214.146Z" fill="#E1EDFF"/>
<path d="M653 202V164.273C653 157.836 650.434 151.662 645.867 147.109C641.299 142.557 635.105 140 628.645 140H539.355C536.156 140 532.989 140.628 530.035 141.848C527.08 143.068 524.395 144.855 522.133 147.109C519.872 149.363 518.078 152.039 516.854 154.984C515.63 157.929 515 161.086 515 164.273V202H653Z" fill="#ADC0FF"/>
<path d="M515 190V224.479C515 227.699 515.63 230.888 516.854 233.863C518.078 236.838 519.872 239.541 522.133 241.818C524.395 244.095 527.08 245.901 530.035 247.133C532.989 248.366 536.156 249 539.355 249H628.645C631.844 249 635.01 248.366 637.965 247.133C640.92 245.901 643.605 244.095 645.867 241.818C648.128 239.541 649.922 236.838 651.146 233.863C652.37 230.888 653 227.699 653 224.479V190H515Z" fill="#A0B7FF"/>
<path d="M608.456 159.989C601.081 154.616 592.536 157.902 590.302 159.029C588.552 160.07 586.549 160.62 584.507 160.62C582.465 160.62 580.462 160.07 578.712 159.029C576.489 157.923 567.997 154.616 560.558 159.989C553.119 165.362 551.855 176.944 557.555 188.16C562.223 197.289 562.57 206.763 562.823 213.201C563.076 219.638 564.773 231.981 571.179 230.938C577.585 229.894 578.554 221.297 579.112 212.47C579.502 206.283 582.389 202.83 584.465 202.83C586.54 202.83 589.427 206.283 589.817 212.47C590.376 221.297 591.345 229.978 597.751 230.938C604.157 231.898 605.822 219.638 606.096 213.201C606.37 206.763 606.718 197.248 611.364 188.16C617.17 176.965 615.895 165.373 608.456 159.989Z" fill="#FBFCFF"/>
<path d="M296 431.122L274.696 455L261 441.462L279.516 418L296 431.122Z" fill="#933F1F"/>
<path d="M287 496L242 456.052L261.507 436L282.593 454.688L277.68 461.197L287 496Z" fill="#050048"/>
<path d="M301.571 443L271 417.768L291.882 373.979L303.138 314L342 319.057L331.898 391.842L301.571 443Z" fill="#79BBC8"/>
<path d="M332 392L301.622 443L271 417.846" stroke="#0F110E" stroke-width="1.26" stroke-miterlimit="10" stroke-linecap="round"/>
<path d="M341 475.988V444H321L321.621 478L341 475.988Z" fill="#933F1F"/>
<path d="M377 496.134L316 497L317.624 470.791L346.099 470L346.574 476.221L377 496.134Z" fill="#050048"/>
<path d="M302 317.051L311.307 450H350.939L358 315L302 317.051Z" fill="#79BBC8"/>
<path d="M302 317L311.319 450H351" stroke="black" stroke-width="1.26" stroke-miterlimit="10" stroke-linecap="round"/>
<path d="M395.648 238L383 229.197C383 229.197 389.461 219.223 390.736 217.12C392.012 215.017 393.972 213.088 396.238 214.463C398.505 215.837 404.112 223.133 402.805 225.38C401.498 227.627 395.648 238 395.648 238Z" fill="#FCD7C8"/>
<path d="M331.952 225.194L354.35 241.531L382.181 224L399 240.644C399 240.644 385.524 273.783 374.45 284.467C364.17 294.401 341.48 285.101 338.346 283.812C335.212 282.523 316 269.324 316 269.324L331.952 225.194Z" fill="white" stroke="#6D6D6D" stroke-width="1.26" stroke-miterlimit="10"/>
<path d="M323.322 211.37L329.863 210C329.863 210 339.445 212.783 345.787 230.013C352.129 247.244 372.072 287.153 374.567 345.676C377.062 404.198 367.958 393.174 367.958 393.174L274 387.431L298.666 249.336L320.24 211.35L323.322 211.37Z" fill="white" stroke="#6D6D6D" stroke-width="1.26" stroke-miterlimit="10"/>
<path d="M346.887 227.181C350.76 235.88 354.412 247.488 358 265C352.98 250.157 343.846 227.255 330.008 214.275C329.931 212.711 330.432 211.173 331.418 209.952C334.175 210.716 331.702 204.865 335.627 210.423C336.859 212.108 343.551 219.707 346.887 227.181Z" fill="#ADC0FF" stroke="#6D6D6D" stroke-width="1.26" stroke-miterlimit="10"/>
<path d="M349.183 185C349.764 187.132 350.696 189.107 351.927 190.814C351.966 190.848 351.992 190.898 352 190.954C352 191.03 351.945 191.094 351.899 191.137C351.306 191.632 350.676 192.061 350.015 192.419L349 193L349.183 185Z" fill="#FCD7C8"/>
<path d="M348.218 185.559C348.762 187.284 349.591 188.904 350.669 190.349C350.793 190.512 350.925 190.665 351.058 190.809L351.114 190.866C351.247 191.029 351.247 190.924 351.114 190.579C351.004 190.639 350.899 190.709 350.802 190.789C350.346 191.087 349.872 191.356 349.382 191.594L348.218 192.159L348.89 192.552L349.06 186.335V185.435C349.06 184.85 348.18 184.86 348.17 185.435L348 191.661V192.552C348.004 192.631 348.027 192.708 348.068 192.776C348.109 192.843 348.166 192.899 348.234 192.939C348.302 192.978 348.379 192.999 348.457 193C348.535 193.001 348.612 192.982 348.682 192.945L350.073 192.265C350.557 192.017 351.025 191.739 351.474 191.431C351.692 191.278 351.938 191.134 351.995 190.857C352.009 190.739 351.993 190.62 351.949 190.511C351.904 190.402 351.832 190.306 351.739 190.234C351.131 189.545 350.616 188.779 350.206 187.954C349.757 187.11 349.38 186.229 349.079 185.32C348.909 184.802 348.085 185.004 348.218 185.559Z" fill="#191D2B"/>
<path d="M340.579 173H333.585C328.933 173 325.123 177.413 325.123 182.796V193.813C325.108 194.122 325.108 194.432 325.123 194.741C325.038 195.082 323.996 195.433 324 195.785V209.577C324.003 210.749 325.463 211.872 326.279 212.701C327.095 213.53 328.2 213.997 329.354 214H332.137C333.291 213.995 334.395 213.527 335.21 212.698C336.026 211.87 336.486 210.748 336.492 209.577V203.63H340.538C345.19 203.63 349 199.217 349 193.834V182.786C349.041 177.403 345.231 173 340.579 173Z" fill="#FCD7C8"/>
<path d="M344.837 187.818C344.972 188.083 345.025 188.382 344.989 188.676C344.954 188.971 344.833 189.249 344.64 189.474C344.447 189.7 344.192 189.863 343.907 189.944C343.621 190.024 343.319 190.018 343.037 189.927C342.755 189.835 342.506 189.662 342.323 189.429C342.139 189.196 342.028 188.913 342.005 188.617C341.981 188.322 342.046 188.025 342.19 187.766C342.335 187.507 342.553 187.297 342.817 187.161C343.172 186.982 343.584 186.951 343.962 187.074C344.34 187.197 344.655 187.464 344.837 187.818Z" fill="#191D2B"/>
<path d="M348.434 195.994L348.167 196.074H348.114C348.185 196.074 348.194 196.074 348.114 196.074H347.768C347.688 196.074 347.857 196.074 347.768 196.074H347.715H347.617H347.52L347.351 195.964C347.327 195.954 347.306 195.937 347.289 195.915C347.227 195.915 347.369 195.994 347.289 195.915L347.156 195.775L347.103 195.705C347.103 195.645 347.165 195.795 347.103 195.705L347.111 195.486C347.054 195.38 347.004 195.27 346.96 195.157C346.96 195.057 346.96 195.276 346.96 195.157V195.087L346.907 194.927C346.907 194.838 346.854 194.738 346.836 194.648C346.818 194.558 346.836 194.509 346.836 194.429C346.836 194.349 346.836 194.429 346.836 194.369C346.836 194.309 346.836 194.538 346.836 194.469C346.836 194.344 346.792 194.225 346.714 194.137C346.636 194.049 346.53 194 346.419 194C346.215 194 345.975 194.209 346.002 194.469C346.02 194.985 346.165 195.485 346.422 195.913C346.68 196.341 347.038 196.68 347.458 196.892C347.871 197.036 348.313 197.036 348.727 196.892C348.826 196.849 348.907 196.766 348.955 196.659C349.002 196.553 349.013 196.43 348.984 196.315C348.955 196.2 348.889 196.101 348.799 196.038C348.708 195.975 348.6 195.952 348.496 195.974L348.434 195.994Z" fill="#191D2B"/>
<path d="M343.178 184.128C342.857 184.303 342.526 184.478 342.232 184.643L341.987 184.756C341.987 184.756 341.854 184.818 341.987 184.756L341.835 184.818L341.325 185.045C341.21 185.08 341.114 185.163 341.056 185.276C340.999 185.389 340.985 185.522 341.017 185.647C341.05 185.771 341.126 185.876 341.23 185.939C341.334 186.001 341.456 186.017 341.57 185.981C342.299 185.672 343.017 185.333 343.717 184.952C343.777 184.925 343.832 184.885 343.876 184.833C343.921 184.782 343.955 184.72 343.976 184.653C343.997 184.586 344.004 184.515 343.998 184.444C343.991 184.374 343.971 184.306 343.938 184.245C343.905 184.183 343.86 184.131 343.807 184.09C343.754 184.049 343.693 184.021 343.629 184.008C343.565 183.995 343.499 183.998 343.436 184.015C343.373 184.032 343.314 184.064 343.263 184.108L343.178 184.128Z" fill="#191D2B"/>
<path d="M328.139 166.17C320.648 168.259 310.596 171.799 312.163 188.915C312.163 188.915 314.159 199.358 324.378 202L324.315 191.421L325.726 190.377L326.854 193.761C326.854 193.761 330.877 194.481 333.238 188.059C339.218 186.626 344.694 183.594 349.079 179.287C353.258 175.109 350.385 168.008 342.726 166.191C334.409 164.196 332.12 165.074 328.139 166.17Z" fill="#191D2B"/>
<path d="M318.008 193.778C318.063 194.865 318.439 195.911 319.089 196.784C319.738 197.657 320.632 198.317 321.657 198.682C322.682 199.047 323.792 199.099 324.847 198.833C325.902 198.566 326.854 197.993 327.583 197.185C328.312 196.377 328.785 195.371 328.942 194.295C329.099 193.218 328.934 192.119 328.466 191.137C327.999 190.154 327.25 189.332 326.316 188.775C325.381 188.218 324.302 187.951 323.216 188.007C322.494 188.042 321.787 188.219 321.134 188.528C320.481 188.837 319.896 189.273 319.412 189.809C318.927 190.346 318.554 190.972 318.313 191.654C318.073 192.335 317.969 193.057 318.008 193.778Z" fill="#FCD7C8"/>
<path d="M327 193.677C326.996 193.202 326.925 192.73 326.789 192.283C326.67 191.816 326.464 191.386 326.185 191.026C325.906 190.666 325.563 190.385 325.179 190.204C324.573 189.979 323.928 189.939 323.306 190.089C323.253 190.106 323.203 190.135 323.16 190.175C323.117 190.214 323.081 190.263 323.054 190.319C323.027 190.375 323.01 190.437 323.003 190.501C322.996 190.565 323 190.63 323.015 190.692C323.029 190.755 323.054 190.813 323.087 190.864C323.121 190.915 323.162 190.958 323.21 190.99C323.257 191.021 323.31 191.042 323.364 191.05C323.418 191.058 323.473 191.053 323.525 191.035H323.886H324.273H324.449C324.555 191.035 324.387 191.035 324.449 191.035H324.528C324.633 191.052 324.736 191.08 324.836 191.119L324.977 191.181C325.047 191.181 324.977 191.181 324.977 191.181H325.047C325.13 191.225 325.21 191.277 325.285 191.337C325.285 191.337 325.434 191.472 325.285 191.337L325.39 191.441C325.452 191.503 325.505 191.576 325.566 191.649L325.645 191.763C325.557 191.649 325.645 191.763 325.645 191.763C325.691 191.839 325.733 191.919 325.768 192.003C325.806 192.076 325.838 192.152 325.865 192.231V192.294V192.242C325.874 192.29 325.874 192.339 325.865 192.387C325.917 192.535 325.955 192.688 325.98 192.845C325.984 192.911 325.984 192.977 325.98 193.042C325.975 193.108 325.975 193.174 325.98 193.24C325.98 193.146 325.98 193.115 325.98 193.24C325.98 193.365 325.98 193.292 325.98 193.313C325.98 193.334 325.98 193.406 325.98 193.448V193.573C325.994 193.691 326.044 193.8 326.121 193.878C326.198 193.957 326.296 194 326.397 194C326.499 194 326.597 193.957 326.674 193.878C326.75 193.8 326.801 193.691 326.815 193.573L327 193.677Z" fill="#191D2B"/>
<path d="M340.997 192.365C341.024 193.056 340.845 193.74 340.483 194.33C340.122 194.92 339.593 195.389 338.965 195.679C338.336 195.968 337.636 196.065 336.952 195.957C336.269 195.849 335.633 195.54 335.125 195.07C334.616 194.601 334.259 193.991 334.097 193.318C333.935 192.645 333.976 191.94 334.216 191.29C334.455 190.641 334.881 190.077 335.441 189.67C336 189.263 336.668 189.031 337.359 189.003C337.819 188.984 338.278 189.057 338.71 189.216C339.141 189.375 339.537 189.617 339.875 189.93C340.213 190.242 340.486 190.618 340.679 191.035C340.871 191.453 340.98 191.905 340.997 192.365Z" fill="#FFA6A6"/>
<path d="M361 273.061C361 273.061 350.164 240.21 342.203 227.855C337.087 220.041 330.009 210.723 323.5 204L319 210.153L337.21 231.676L330.192 233.296L356.72 282L361 273.061Z" fill="white"/>
<path d="M354.227 277L330.088 232.955L337.04 231.321L324.85 215.949L319 209.613L323.749 204C323.749 204 338.204 219.865 344.532 231.855C350.86 243.846 356.5 258 356.5 258" stroke="#6D6D6D" stroke-width="1.26" stroke-miterlimit="10" stroke-linecap="round"/>
<path d="M422 215L427 220" stroke="black" stroke-width="1.26" stroke-miterlimit="10" stroke-linecap="round"/>
<path d="M415 220L421 225" stroke="black" stroke-width="1.26" stroke-miterlimit="10" stroke-linecap="round"/>
<path d="M414 224L419 228" stroke="black" stroke-width="1.26" stroke-miterlimit="10" stroke-linecap="round"/>
<path d="M313.041 279C313.041 279 326.347 282.178 331.445 282.327C336.543 282.475 344.813 280.854 345.619 283.026C346.425 285.198 340.291 285.94 340.291 285.94C340.291 285.94 349.304 286.416 350.33 288.175C351.356 289.934 350.33 291.057 346.54 290.909C346.54 290.909 351 291.205 351 293.451C351 295.698 346.415 294.511 344.865 294.437C344.865 294.437 350.393 294.861 350.33 297.16C350.267 299.459 343.075 297.838 343.075 297.838C343.075 297.838 349.011 298.315 348.854 300.402C348.697 302.489 341.421 302.383 334.345 300.942C327.268 299.501 309 294.437 309 294.437L313.041 279Z" fill="#FCD7C8"/>
<path d="M347 298L339 297" stroke="#6D6D6D" stroke-width="1.26" stroke-miterlimit="10" stroke-linecap="round"/>
<path d="M348 294L339 293" stroke="#6D6D6D" stroke-width="1.26" stroke-miterlimit="10" stroke-linecap="round"/>
<path d="M349 290.989C348.841 291.122 340 290 340 290" stroke="#6D6D6D" stroke-width="1.26" stroke-miterlimit="10" stroke-linecap="round"/>
<path d="M327 239.485L317.769 221.842L324.5 216.5L318.556 210C318.556 210 305.969 213.808 299.79 217.94C281.308 230.223 261.137 253.394 262.029 274.833C262.364 283.277 265.175 287.997 269.57 291.794C275.77 297.186 285.116 299.777 295.49 300.595C301.965 301.085 308.466 301.13 314.948 300.731L319.92 279.533L301.584 269.82C313.028 245.59 327 239.485 327 239.485Z" fill="white"/>
<path d="M293.415 265.556L320 279.643L315.019 300.861C315.019 300.861 303.25 301.838 280.952 298.613C280.952 298.613 258.024 291.565 262.605 269.695C267.187 247.825 282.297 231.996 288.55 226.355C300.876 215.231 314.599 210.599 319.096 210" stroke="#6D6D6D" stroke-width="1.26" stroke-miterlimit="10" stroke-linecap="round"/>
<path d="M302 270C305.598 263.259 309.568 256.743 313.889 250.484C315.795 247.876 317.835 245.377 320 243" stroke="#6D6D6D" stroke-width="1.26" stroke-miterlimit="10" stroke-linecap="round"/>
<path d="M399.3 225.945C399.3 225.945 393.578 216.276 393.125 214.308C392.672 212.341 393.475 210.627 395.183 212.002C395.183 212.002 393.33 209.886 393.907 209.156C394.483 208.426 395.965 208.321 398.168 210.341C398.168 210.341 395.08 207.823 395.77 206.311C396.459 204.798 399.506 206.215 401.472 207.876C401.472 207.876 396.933 204.639 399.516 204.057C402.1 203.475 408.502 207.464 409.716 209.981C410.931 212.499 407.874 216.805 407.524 220.105C407.174 223.406 404.93 225.575 403.355 226.95C400.342 229.761 397.927 233.183 396.264 237L395.121 232.451L399.3 225.945Z" fill="#FCD7C8"/>
<path d="M402.844 219.859C400.395 216.832 397.804 213.941 395.071 211.185C394.488 210.603 393.609 211.528 394.192 212.109C396.918 214.879 399.506 217.771 401.955 220.783C402.479 221.427 403.358 220.492 402.844 219.859Z" fill="#6D6D6D"/>
<path d="M405.809 215.979C402.751 213.206 399.518 210.596 396.126 208.163C395.999 208.058 395.833 208 395.662 208C395.49 208 395.324 208.058 395.197 208.163C395.135 208.219 395.085 208.285 395.051 208.359C395.017 208.432 395 208.51 395 208.59C395 208.669 395.017 208.748 395.051 208.821C395.085 208.894 395.135 208.961 395.197 209.016C398.587 211.448 401.82 214.054 404.88 216.822C405.475 217.372 406.403 216.519 405.809 215.979Z" fill="#6D6D6D"/>
<path d="M406.815 211.896C403.917 209.566 400.957 207.308 397.936 205.122C397.26 204.629 396.614 205.759 397.28 206.243C400.212 208.36 403.083 210.553 405.892 212.822C406.018 212.936 406.183 213 406.353 213C406.524 213 406.688 212.936 406.815 212.822C406.934 212.697 407 212.531 407 212.359C407 212.187 406.934 212.021 406.815 211.896Z" fill="#6D6D6D"/>
<path d="M627.674 487.385L608.212 347.345C606.117 332.208 594.103 321 579.983 321H229.017C214.897 321 202.893 332.208 200.788 347.345L181.326 487.385C178.718 506.114 192.094 523 209.545 523H599.455C616.906 522.958 630.282 506.114 627.674 487.385Z" fill="#F2B4C9"/>
<path d="M80 523H715" stroke="#525F80" stroke-width="2" stroke-linecap="round" stroke-linejoin="round"/>
<path d="M160 432C163.407 430.341 161.809 431.037 160 432V432Z" fill="#EED0DB"/>
<path d="M610.584 368.934C605.424 372.927 600.127 376.699 594.694 380.251C588.235 384.454 581.601 388.325 574.792 391.862L573.273 392.661L572.666 392.955C570.99 393.649 569.314 394.353 567.627 395.057C564.003 396.5 560.351 397.845 556.671 399.092C549.527 401.53 542.341 403.946 535.082 405.985C531.591 406.973 528.053 407.873 524.471 408.685C523.989 408.79 522.858 409.2 521.758 409.526L520.344 409.694L517.306 410.051C501.362 411.964 485.297 412.667 469.248 412.153C464.628 411.953 460.03 411.544 455.432 411.029C454.353 410.795 453.262 410.626 452.164 410.524C449.744 410.083 447.314 409.6 444.915 409.022C434.974 406.594 425.296 402.181 415.931 397.894L422.708 401.046C400.638 390.801 378.159 381.481 355.512 372.833C334.814 364.931 313.781 357.985 292.213 353.498C262.329 347.288 230.223 344.388 199.742 349.988L190 420.265C198.123 418.01 206.362 416.193 214.679 414.822C232.007 412.808 249.518 412.949 266.812 415.242C292.8 419.509 318.138 427.358 343.1 436.384C356.089 441.092 368.962 446.167 381.857 451.179C394.867 456.206 408.35 459.903 422.101 462.213C425.243 462.748 428.386 463.148 431.528 463.631L432.974 463.904C437.666 464.808 442.401 465.386 447.177 465.922C454.518 466.755 461.904 467.106 469.29 466.973C483.892 466.762 498.714 465.228 512.865 461.288C537.586 454.405 562.023 445.064 583.989 430.815C595.069 423.806 605.755 416.19 616 408.002L610.584 368.934ZM454.51 410.85C450.498 410.388 453.777 410.671 455.254 410.924L454.51 410.85ZM519.15 409.799C519.947 409.774 520.742 409.693 521.528 409.558C520.501 409.873 519.454 410.062 519.129 409.81L519.15 409.799Z" fill="#EED0DB"/>
<path d="M568.065 213.082C543.188 194.923 514.791 206.097 507.312 209.825C502.326 212.318 493.465 215.145 488.007 215.145C482.55 215.145 473.688 212.318 468.702 209.825C461.255 206.097 432.848 194.923 407.949 213.082C383.051 231.242 378.819 270.335 397.904 308.047C413.522 338.888 414.664 370.882 415.606 392.769C416.549 414.657 422.122 456.076 443.542 452.819C464.963 449.562 468.221 420.228 470.075 390.444C471.384 369.499 481.073 357.886 487.986 357.886C494.9 357.886 504.589 369.541 505.898 390.444C507.763 420.228 511.02 449.562 532.441 452.819C553.862 456.076 559.445 414.646 560.377 392.769C561.309 370.892 562.472 338.888 578.069 308.047C597.195 270.335 592.943 231.231 568.065 213.082Z" fill="white" stroke="#6D6D6D" stroke-width="1.26" stroke-miterlimit="10"/>
<path d="M231 317L247.623 414H272.631H295.369H320.377L337 317H231Z" fill="#5C80FF"/>
<path d="M331.679 293H236.321C232.278 293 229 296.235 229 300.225V306.775C229 310.765 232.278 314 236.321 314H331.679C335.722 314 339 310.765 339 306.775V300.225C339 296.235 335.722 293 331.679 293Z" fill="#5C80FF"/>
<path d="M348.501 321H219.499C217.776 321 216.122 320.316 214.904 319.098C213.685 317.88 213 316.228 213 314.505C212.999 313.651 213.166 312.806 213.492 312.017C213.818 311.227 214.296 310.51 214.9 309.906C215.504 309.302 216.22 308.822 217.01 308.495C217.799 308.168 218.645 308 219.499 308H348.501C349.355 308 350.201 308.168 350.99 308.495C351.78 308.822 352.496 309.302 353.1 309.906C353.704 310.51 354.182 311.227 354.508 312.017C354.834 312.806 355.001 313.651 355 314.505C355 316.228 354.315 317.88 353.096 319.098C351.878 320.316 350.224 321 348.501 321Z" fill="#3B64ED"/>
<path d="M326.221 404H241.779C241.042 404 240.335 403.684 239.814 403.121C239.293 402.559 239 401.796 239 401C239 400.204 239.293 399.441 239.814 398.879C240.335 398.316 241.042 398 241.779 398H326.221C326.957 398.003 327.662 398.32 328.183 398.882C328.704 399.444 328.997 400.205 329 401C328.997 401.795 328.704 402.556 328.183 403.118C327.662 403.68 326.957 403.997 326.221 404Z" fill="#3B64ED"/>
<path d="M328.225 390H239.785C239.047 389.997 238.341 389.68 237.819 389.118C237.297 388.556 237.003 387.795 237 387C237.003 386.205 237.297 385.444 237.819 384.882C238.341 384.32 239.047 384.003 239.785 384H328.225C328.962 384.003 329.668 384.32 330.188 384.883C330.708 385.445 331 386.206 331 387C331 387.794 330.708 388.555 330.188 389.117C329.668 389.68 328.962 389.997 328.225 390Z" fill="#3B64ED"/>
<path d="M330.231 375H237.78C237.043 375 236.336 374.736 235.814 374.266C235.293 373.797 235 373.16 235 372.495C235.003 371.833 235.297 371.198 235.818 370.73C236.339 370.263 237.044 370 237.78 370H330.231C330.594 370 330.955 370.065 331.291 370.19C331.627 370.315 331.932 370.499 332.189 370.731C332.446 370.963 332.65 371.238 332.789 371.54C332.928 371.843 333 372.168 333 372.495C333.001 372.824 332.931 373.149 332.792 373.453C332.654 373.757 332.45 374.033 332.193 374.266C331.935 374.499 331.63 374.683 331.293 374.809C330.956 374.935 330.595 375 330.231 375Z" fill="#3B64ED"/>
<path d="M333.188 361H234.812C234.443 361.001 234.077 360.938 233.736 360.813C233.395 360.688 233.085 360.504 232.824 360.272C232.563 360.041 232.356 359.765 232.214 359.462C232.073 359.158 232 358.833 232 358.505C231.999 358.175 232.07 357.849 232.211 357.545C232.352 357.24 232.559 356.964 232.82 356.731C233.082 356.498 233.392 356.314 233.734 356.188C234.076 356.063 234.442 355.999 234.812 356H333.188C333.934 356 334.649 356.264 335.176 356.734C335.704 357.203 336 357.84 336 358.505C335.997 359.167 335.7 359.802 335.173 360.27C334.646 360.737 333.932 361 333.188 361Z" fill="#3B64ED"/>
<path d="M336.202 347H231.787C231.421 347 231.059 346.935 230.721 346.81C230.382 346.685 230.075 346.501 229.816 346.269C229.558 346.037 229.352 345.762 229.212 345.46C229.072 345.157 229 344.832 229 344.505C228.999 344.176 229.07 343.851 229.209 343.547C229.349 343.243 229.554 342.967 229.813 342.734C230.072 342.501 230.379 342.317 230.718 342.191C231.057 342.065 231.42 342 231.787 342H336.202C336.57 341.999 336.934 342.063 337.274 342.188C337.615 342.314 337.924 342.498 338.184 342.731C338.444 342.964 338.65 343.24 338.79 343.545C338.93 343.849 339.001 344.175 339 344.505C339 344.833 338.927 345.158 338.787 345.462C338.646 345.765 338.44 346.041 338.18 346.272C337.92 346.504 337.611 346.688 337.272 346.813C336.933 346.938 336.569 347.001 336.202 347Z" fill="#3B64ED"/>
<path d="M338.234 333H229.776C229.042 333 228.337 332.737 227.817 332.27C227.297 331.802 227.003 331.167 227 330.505C227 329.84 227.293 329.203 227.813 328.734C228.334 328.264 229.04 328 229.776 328H338.234C338.598 328 338.959 328.065 339.295 328.191C339.631 328.317 339.937 328.501 340.194 328.734C340.451 328.967 340.654 329.243 340.792 329.547C340.931 329.851 341.001 330.176 341 330.505C341 331.166 340.709 331.801 340.19 332.269C339.671 332.737 338.968 333 338.234 333Z" fill="#3B64ED"/>
<path d="M151.189 535.884L149 513H168.715L171 538L151.189 535.884Z" fill="#87524E"/>
<path d="M148.131 529.38L172.417 529L173.859 536.575L185.972 545.355C187.545 546.495 186.733 548.983 184.79 548.975L146 548.816L148.131 529.38Z" fill="#191D2B"/>
<path d="M141.184 517.151L177 518C177 518 168.526 415.857 168.816 395.745C169.107 375.633 168.816 370.358 168.816 370.358L157.573 365L121 376.765L141.184 517.151Z" fill="#3B64ED"/>
<path d="M126 408L140.945 517.163L177 518" fill="#274ECE"/>
<path d="M126 408L140.945 517.163L177 518" stroke="#191D2B" stroke-width="1.26" stroke-miterlimit="10" stroke-linecap="round"/>
<path d="M66.5588 491L52 510.026L66.907 520L85 499.661L66.5588 491Z" fill="#87524E"/>
<path d="M54.331 503L73.3299 518.408L70.7613 524.279L75.8192 538.059C76.4925 539.893 74.4062 541.505 72.8011 540.391L41 518.313L54.331 503Z" fill="#191D2B"/>
<path d="M132.366 405.581C132.366 405.581 139.538 426.625 123.83 454.645C108.121 482.665 81.7863 506 81.7863 506L55 486.268C55 486.268 81.8493 445.971 89.1995 415.775C97.2218 382.788 95.6047 373 95.6047 373L131.862 385.131L132.366 405.581Z" fill="#3B64ED"/>
<path d="M55 485.741L82.1771 506C82.1771 506 108.948 482.895 123.906 454.39C138.49 426.638 140 378 140 378" stroke="#191D2B" stroke-width="1.26" stroke-miterlimit="10" stroke-linecap="round"/>
<path d="M152.25 271.144C152.25 271.144 167.55 282.31 169.176 293.633C170.802 304.956 172 393 172 393H89.7605C89.7605 393 85.0706 328.37 98.9839 304.54C112.897 280.709 136.92 270 136.92 270L152.25 271.144Z" fill="#3B64ED" stroke="#191D2B" stroke-width="1.26" stroke-linecap="round" stroke-linejoin="round"/>
<path d="M78.9486 340L98.078 323.35L99.0239 321.737L98.8453 321.417L108 307.03L88.5658 291C57.4754 312.239 71.0446 331.308 78.0552 339.07C78.3075 339.37 78.6227 339.68 78.9486 340Z" fill="#87524E"/>
<path d="M126.147 307.883L110.663 324L73 299.272C73 299.272 79.3371 289.981 92.5921 281.582C120.602 263.839 137.775 266.092 137.775 266.092L142 278.733L126.147 307.883Z" fill="#3B64ED"/>
<path d="M138 266.092C138 266.092 120.767 263.839 92.6601 281.579C79.3485 289.976 73 299.266 73 299.266L110.794 324L126.331 307.897" stroke="#191D2B" stroke-width="1.26" stroke-linecap="round" stroke-linejoin="round"/>
<path d="M80 292L118 316" stroke="#191D2B" stroke-width="1.26" stroke-linecap="round" stroke-linejoin="round"/>
<path d="M129 266.735L144.105 297L154 272.175C154 272.175 151.148 267.747 143.765 266.735C136.383 265.723 133.654 265.787 129 266.735Z" fill="#3B55F1" stroke="#191D2B" stroke-width="1.26" stroke-linecap="round" stroke-linejoin="round"/>
<path d="M142.958 285L151 269.142C148.793 267.832 146.326 266.999 143.766 266.7C140.21 266.117 136.602 265.897 133 266.044L142.958 285Z" fill="#87524E" stroke="#191D2B" stroke-width="1.26" stroke-linecap="round" stroke-linejoin="round"/>
<path d="M226.904 281.69C205.402 276.194 194.619 285.65 188.726 288.105C186.124 289.113 183.357 289.63 180.566 289.63C177.78 289.76 174.994 289.381 172.344 288.512C166.284 286.475 155.094 277.438 133.895 283.989C112.696 290.539 108.475 308.165 109.049 331.161C109.624 354.156 127.48 389 127.48 389L169.272 387.955L196.677 387.276L238.47 386.231C238.47 386.231 254.56 350.51 253.985 327.525C253.41 304.539 248.395 287.144 226.904 281.69Z" fill="white"/>
<path d="M138.502 255.457C138.502 255.156 138.502 254.846 138.597 254.535L140.139 243.602C140.904 238.269 145.453 234.428 150.278 235.07L157.517 236.054C162.331 236.696 165.648 241.593 164.893 246.936L163.341 257.869C162.587 263.212 158.027 267.053 153.212 266.401L149.545 265.904L148.737 270.211C148.657 270.65 148.488 271.069 148.24 271.444C147.993 271.819 147.672 272.143 147.295 272.397C146.919 272.651 146.495 272.83 146.048 272.924C145.6 273.018 145.138 273.025 144.688 272.944L138.874 271.909C138.422 271.83 137.99 271.665 137.604 271.424C137.217 271.182 136.884 270.869 136.622 270.501C136.36 270.134 136.175 269.72 136.079 269.282C135.982 268.845 135.974 268.394 136.057 267.954C136.057 267.954 138.385 255.778 138.502 255.457Z" fill="#87524E"/>
<path d="M141.127 249.033C141.127 249.033 143.994 239.682 144.232 241.158C144.574 243.313 143.021 254.442 144.967 255.724C147.554 257.415 149.22 252.653 154.799 253.256C160.377 253.86 163.855 256.844 163.979 259.246C164.051 260.733 164.207 264.838 159.249 267.068C155.016 268.964 149.407 267.38 149.407 267.38C149.407 267.38 144.139 265.926 142.286 262.22C140.434 258.514 141.127 249.033 141.127 249.033Z" fill="#191D2B"/>
<path d="M150.008 248.341C149.967 248.729 150.079 249.118 150.319 249.425C150.56 249.732 150.91 249.933 151.297 249.986C151.683 250.039 152.075 249.939 152.389 249.708C152.703 249.477 152.915 249.133 152.979 248.748C153.013 248.55 153.006 248.347 152.959 248.152C152.913 247.957 152.827 247.773 152.708 247.611C152.589 247.449 152.439 247.313 152.266 247.21C152.094 247.108 151.902 247.041 151.703 247.014C151.504 246.987 151.302 247 151.108 247.052C150.914 247.105 150.733 247.195 150.575 247.319C150.417 247.443 150.285 247.597 150.188 247.773C150.091 247.948 150.03 248.142 150.008 248.341Z" fill="#191D2B"/>
<path d="M161.01 249.859C160.982 250.055 161.013 250.255 161.099 250.433C161.184 250.612 161.321 250.761 161.492 250.861C161.662 250.962 161.859 251.01 162.056 250.998C162.254 250.987 162.444 250.918 162.602 250.799C162.76 250.68 162.879 250.516 162.944 250.329C163.009 250.143 163.018 249.941 162.968 249.749C162.918 249.557 162.813 249.385 162.665 249.253C162.517 249.122 162.334 249.037 162.138 249.01C161.876 248.973 161.61 249.042 161.398 249.201C161.187 249.361 161.047 249.597 161.01 249.859Z" fill="#191D2B"/>
<path d="M156.73 255.906C157.37 256.062 157.67 256.784 157.189 257.234C156.748 257.649 156.144 258.026 155.424 257.999C154.319 257.956 153.515 257.088 153.177 256.147C152.969 255.57 153.546 255.131 154.143 255.276L156.73 255.906Z" fill="white"/>
<path d="M157.451 248.653C157.795 250.067 158.314 251.442 158.997 252.754L159.459 252.026L157.474 251.954C157.342 251.971 157.222 252.03 157.135 252.119C157.048 252.209 157 252.323 157 252.441C157 252.56 157.048 252.674 157.135 252.763C157.222 252.853 157.342 252.911 157.474 252.928L159.459 253C159.554 252.998 159.647 252.974 159.729 252.931C159.81 252.888 159.878 252.827 159.926 252.754C159.973 252.681 159.999 252.598 160 252.514C160.001 252.429 159.978 252.346 159.932 252.272C159.302 251.015 158.822 249.702 158.501 248.356C158.483 248.295 158.45 248.237 158.406 248.187C158.363 248.137 158.308 248.094 158.246 248.063C158.184 248.032 158.115 248.011 158.044 248.004C157.973 247.996 157.901 248.001 157.832 248.018C157.694 248.054 157.577 248.136 157.506 248.247C157.435 248.358 157.415 248.489 157.451 248.612V248.653Z" fill="#191D2B"/>
<path d="M150.459 246.981C150.819 246.86 151.19 246.773 151.566 246.721H151.466H151.636C151.731 246.72 151.822 246.685 151.891 246.621C151.927 246.588 151.955 246.548 151.974 246.503C151.992 246.458 152.001 246.41 152 246.361C152 246.185 151.837 245.979 151.636 246.002C151.169 246.046 150.709 246.143 150.266 246.292C150.174 246.321 150.097 246.382 150.05 246.465C150.002 246.547 149.988 246.644 150.01 246.736C150.037 246.827 150.099 246.905 150.183 246.952C150.267 246.999 150.366 247.012 150.459 246.988V246.981Z" fill="#191D2B"/>
<path d="M161.422 247.688C162.054 247.763 162.678 247.863 163.29 247.988C163.361 248 163.435 248.003 163.508 247.997C163.581 247.992 163.652 247.977 163.716 247.955C163.78 247.933 163.837 247.903 163.882 247.867C163.927 247.831 163.96 247.79 163.98 247.747C163.999 247.703 164.005 247.658 163.996 247.613C163.986 247.568 163.963 247.525 163.927 247.485C163.89 247.446 163.841 247.412 163.783 247.384C163.725 247.356 163.658 247.336 163.587 247.324C162.976 247.199 162.352 247.099 161.719 247.024C161.577 246.992 161.421 246.992 161.279 247.024C161.154 247.071 161.062 247.143 161.017 247.229C160.981 247.318 161.003 247.412 161.078 247.491C161.154 247.57 161.277 247.628 161.422 247.652V247.688Z" fill="#191D2B"/>
<path d="M141.009 251.407L143.52 242.755C143.52 242.755 167.908 252.284 171.654 238.37C174.029 229.536 163.733 223.612 154.788 226.938C154.788 226.938 139.209 223.205 132.555 232.21C125.901 241.215 129.166 249.546 137.556 261L138.801 254.316L141.009 251.407Z" fill="#191D2B"/>
<path d="M131.037 250.832C130.916 251.912 131.09 253.009 131.537 253.981C131.983 254.953 132.682 255.757 133.545 256.292C134.408 256.827 135.396 257.067 136.384 256.984C137.371 256.9 138.314 256.496 139.092 255.822C139.871 255.149 140.45 254.236 140.756 253.201C141.062 252.165 141.081 251.052 140.811 250.005C140.541 248.957 139.994 248.021 139.239 247.315C138.484 246.61 137.556 246.167 136.572 246.042C135.922 245.953 135.262 246.006 134.631 246.199C134 246.392 133.41 246.72 132.895 247.166C132.38 247.611 131.951 248.165 131.632 248.794C131.313 249.423 131.111 250.116 131.037 250.832Z" fill="#87524E"/>
<path d="M138.918 252.685C139.066 251.918 139.013 251.117 138.764 250.385C138.516 249.653 138.084 249.023 137.524 248.578C136.901 248.183 136.199 247.984 135.489 248.001C135.361 248.001 135.238 248.059 135.147 248.162C135.055 248.266 135.003 248.406 135 248.554C135.003 248.703 135.055 248.845 135.146 248.95C135.237 249.056 135.36 249.116 135.489 249.119C135.644 249.108 135.801 249.108 135.957 249.119H136.089H136.323L136.649 249.237C136.649 249.237 136.852 249.319 136.73 249.237L136.913 249.343L137.188 249.531L137.29 249.637L137.483 249.884C137.554 249.966 137.483 249.79 137.483 249.884V249.943L137.564 250.096C137.606 250.176 137.643 250.258 137.676 250.343C137.68 250.37 137.68 250.398 137.676 250.425C137.676 250.425 137.676 250.555 137.676 250.59C137.728 250.767 137.769 250.948 137.798 251.132C137.803 251.175 137.803 251.218 137.798 251.261C137.798 251.402 137.798 251.132 137.798 251.261C137.804 251.351 137.804 251.442 137.798 251.532C137.809 251.673 137.809 251.814 137.798 251.955C137.804 252.069 137.804 252.183 137.798 252.297C137.798 252.438 137.798 252.144 137.798 252.297C137.77 252.439 137.788 252.588 137.85 252.714C137.913 252.841 138.014 252.936 138.134 252.979C138.259 253.019 138.391 253.001 138.504 252.928C138.616 252.855 138.699 252.734 138.735 252.591L138.918 252.685Z" fill="#191D2B"/>
<path d="M140.247 365.31C139.202 364.313 133.979 359.808 133.979 359.808C133.979 359.808 140.111 362.633 141.437 361.215C142.388 360.165 142.482 358.39 137.019 355.25C137.019 355.25 123.815 347.268 122.718 346.365C109.222 334.047 100.155 324.028 98.8808 321.728L87.8917 320.941L71.2514 309C65.0465 322.6 73.1212 333.753 77.989 339.266C82.6792 344.517 96.8752 353.906 105.681 359.461C105.681 359.461 129.09 379.015 132.151 379.834C135.504 380.738 134.992 377.734 133.31 375.959C134.47 376.82 136.35 377.923 137.259 376.883C138.805 375.109 136.215 373.197 134.543 372C134.543 372 138.042 374.489 139.4 373.313C141.312 371.654 138.189 369.217 136.852 368.366C136.852 368.366 140.038 370.467 141.312 369.49C142.973 368.261 141.229 366.298 140.247 365.31Z" fill="#87524E"/>
<path d="M94 318L104 328" stroke="#191D2B" stroke-width="1.26" stroke-linecap="round" stroke-linejoin="round"/>
<path d="M133 376L126 371" stroke="#191D2B" stroke-width="1.26" stroke-miterlimit="10" stroke-linecap="round"/>
<path d="M135 373L128 367" stroke="#191D2B" stroke-width="1.26" stroke-miterlimit="10" stroke-linecap="round"/>
<path d="M138 369C137.81 369 130 364 130 364" stroke="#191D2B" stroke-width="1.26" stroke-miterlimit="10" stroke-linecap="round"/>
<path d="M238.19 288.884C238.781 289.054 239.409 289.037 239.99 288.835C240.571 288.633 241.075 288.256 241.435 287.756C241.795 287.256 241.992 286.656 242 286.039C242.008 285.421 241.826 284.817 241.479 284.307C241.132 283.797 240.637 283.408 240.062 283.191C239.487 282.974 238.859 282.941 238.264 283.096C237.669 283.251 237.136 283.586 236.738 284.057C236.34 284.527 236.096 285.109 236.04 285.724C235.919 286.428 236.076 287.151 236.478 287.741C236.879 288.331 237.493 288.741 238.19 288.884Z" fill="#87524E"/>
<path d="M241.325 291.909C241.619 291.997 241.929 292.022 242.234 291.98C242.539 291.939 242.83 291.833 243.086 291.669C243.342 291.506 243.556 291.29 243.713 291.037C243.87 290.784 243.965 290.501 243.992 290.208C244.019 289.915 243.977 289.62 243.868 289.345C243.76 289.07 243.588 288.822 243.365 288.619C243.143 288.416 242.876 288.263 242.583 288.171C242.29 288.08 241.98 288.053 241.675 288.091C241.381 288.003 241.071 287.978 240.766 288.02C240.461 288.061 240.17 288.167 239.914 288.331C239.658 288.494 239.444 288.71 239.287 288.963C239.13 289.216 239.035 289.499 239.008 289.792C238.981 290.085 239.023 290.38 239.132 290.655C239.24 290.93 239.412 291.178 239.635 291.381C239.857 291.584 240.124 291.737 240.417 291.829C240.71 291.92 241.02 291.947 241.325 291.909Z" fill="#87524E"/>
<path d="M233.173 285.987C233.864 286.042 234.559 285.921 235.169 285.637C235.779 285.353 236.277 284.92 236.599 284.394C236.922 283.867 237.054 283.27 236.98 282.678C236.905 282.087 236.627 281.528 236.181 281.072C235.735 280.616 235.141 280.284 234.474 280.119C233.808 279.953 233.099 279.961 232.437 280.142C231.776 280.322 231.192 280.667 230.76 281.133C230.328 281.599 230.068 282.164 230.012 282.757C229.937 283.543 230.227 284.324 230.819 284.928C231.411 285.533 232.256 285.913 233.173 285.987Z" fill="#87524E"/>
<path d="M227.738 282.99C228.329 283.034 228.922 282.93 229.442 282.692C229.962 282.454 230.387 282.093 230.661 281.655C230.935 281.216 231.047 280.72 230.982 280.228C230.918 279.737 230.68 279.272 230.298 278.893C229.917 278.515 229.409 278.238 228.84 278.1C228.27 277.962 227.664 277.967 227.098 278.116C226.532 278.264 226.032 278.549 225.66 278.935C225.289 279.321 225.063 279.789 225.011 280.282C224.942 280.942 225.19 281.599 225.702 282.107C226.213 282.615 226.945 282.932 227.738 282.99Z" fill="#87524E"/>
<path d="M226 282.676C226.36 282.868 226.752 282.977 227.152 282.997C227.552 283.016 227.951 282.946 228.325 282.789C228.699 282.632 229.041 282.393 229.329 282.085C229.617 281.778 229.845 281.408 230 281" stroke="#191D2B" stroke-width="1.26" stroke-linecap="round" stroke-linejoin="round"/>
<path d="M230.097 282C229.943 282.618 229.973 283.264 230.183 283.867C230.392 284.469 230.774 285.002 231.284 285.406C231.657 285.671 232.086 285.854 232.541 285.941C232.996 286.029 233.466 286.018 233.916 285.911C234.367 285.804 234.787 285.603 235.147 285.321C235.507 285.04 235.798 284.686 236 284.283" stroke="#191D2B" stroke-width="1.26" stroke-linecap="round" stroke-linejoin="round"/>
<path d="M236.123 285C236.123 285 235.475 287.56 237.152 288.607C238.829 289.653 240.794 288.557 241 285.986" stroke="#191D2B" stroke-width="1.26" stroke-linecap="round" stroke-linejoin="round"/>
<path d="M635.818 500L628 531.143L648.72 533L656 502.352L635.818 500Z" fill="#FCD7C8"/>
<path d="M623.693 525L656 526.941L652.074 550L604.532 549.766C602.481 549.756 601.773 547.033 603.558 546.024L617.986 537.876L623.693 525Z" fill="#191D2B"/>
<path d="M693.297 500.274L693 533L713 530.105L712.908 498L693.297 500.274Z" fill="#FCD7C8"/>
<path d="M686.214 526L717.629 526.702L720 550L672.496 549.765C670.448 549.755 669.737 547.037 671.518 546.026L685.954 537.827L686.214 526Z" fill="#191D2B"/>
<path d="M683.35 385.704L662.548 511L619 507.513L648.991 358H689L683.35 385.704Z" fill="#3B64ED"/>
<path d="M670 381L676.906 381.591L681 436" stroke="#3A4A36" stroke-width="0.32" stroke-miterlimit="10"/>
<path d="M670.109 380.897L676.857 381.485L683.072 509L728 508.381L709.218 367.963L707.202 354.682L661 342L670.109 380.897Z" fill="#3B64ED"/>
<path d="M703.912 276.432C686.926 264.042 678.658 266.133 678.658 266.133C667.965 264.649 650.247 280.06 647.624 282.025C645 283.991 634.234 307.474 631.527 317.887C628.819 328.301 637.432 342.52 637.432 342.52C637.432 342.52 721.357 344.883 724.315 339.122C727.273 333.361 720.678 288.675 703.912 276.432Z" fill="white"/>
<path d="M708.155 370C709.436 362.556 708.88 350.794 708.88 342.548C708.88 301.232 699.186 266.99 677.802 266.008C664.716 265.406 647.47 299.109 645.044 340.288C644.561 348.555 643.269 362.113 644.551 369.546L708.155 370Z" fill="#F2B4C9"/>
<path d="M647.611 305.284C634.945 344.811 617 466.12 617 466.12L663.445 471L668.607 290.938L670 268C670 268 656.689 277.04 647.611 305.284Z" fill="white"/>
<path d="M667 271C665.67 275.103 660.722 290.872 660.722 290.872L663.785 291.65V291.808L659 295.385L664.923 356" stroke="#6D6D6D" stroke-width="1.26" stroke-miterlimit="10" stroke-linecap="round"/>
<path d="M637 376L657 374" stroke="#6D6D6D" stroke-width="1.26" stroke-miterlimit="10" stroke-linecap="round"/>
<path d="M647.318 305C634.773 344.594 617 466.112 617 466.112L663 471" stroke="#6D6D6D" stroke-width="1.26" stroke-miterlimit="10" stroke-linecap="round"/>
<path d="M710.089 305.284C722.575 344.811 742 469.123 742 469.123L694.451 471L689.373 290.938L688 268C688 268 701.141 277.04 710.089 305.284Z" fill="white"/>
<path d="M690 271C691.507 275.102 697.073 290.87 697.073 290.87L693.617 291.649V291.806L699 295.383L693.434 360" stroke="#6D6D6D" stroke-width="1.26" stroke-miterlimit="10" stroke-linecap="round"/>
<path d="M720 376L701 374" stroke="#6D6D6D" stroke-width="1.26" stroke-miterlimit="10" stroke-linecap="round"/>
<path d="M709.786 305C722.39 344.594 742 469.12 742 469.12L694 471" stroke="#6D6D6D" stroke-width="1.26" stroke-miterlimit="10" stroke-linecap="round"/>
<path d="M647.048 326.12C647.048 326.12 655.468 313.118 658.004 313.002C660.541 312.886 657.809 317.673 657.809 317.673C657.809 317.673 665.336 314.31 668.201 314.71C671.066 315.111 672 329.884 672 329.884C672 329.884 657.963 335.399 651.464 334.977C646.217 334.64 647.048 326.12 647.048 326.12Z" fill="#FCD7C8"/>
<path d="M657.305 318L651 307.966L655.436 305L661 316.533L657.305 318Z" fill="#274ECE"/>
<path d="M638.947 322.718L640.283 309.284L660.048 284.75L662 272C649.158 278.79 629.811 292.645 619.193 317.914C602.488 357.931 624.33 358.404 629.247 357.921C634.165 357.437 658.481 344.529 658.481 344.529L650.369 317.914L638.947 322.718Z" fill="white"/>
<path d="M624.76 328.845L650.829 318.056L659.036 344.577C659.036 344.577 634.467 357.44 629.46 357.921C624.454 358.403 602.346 357.921 619.288 318.056C619.288 318.056 624.697 301.968 640.572 287.786C656.448 273.604 670 268 670 268" stroke="#6D6D6D" stroke-width="1.26" stroke-miterlimit="10" stroke-linecap="round"/>
<path d="M697.98 303H670.02C665.591 303 662 306.576 662 310.987V353.013C662 357.424 665.591 361 670.02 361H697.98C702.409 361 706 357.424 706 353.013V310.987C706 306.576 702.409 303 697.98 303Z" fill="#191D2B"/>
<path d="M691.971 301H676.029C674.356 301 673 302.285 673 303.869V304.131C673 305.715 674.356 307 676.029 307H691.971C693.644 307 695 305.715 695 304.131V303.869C695 302.285 693.644 301 691.971 301Z" fill="#274ECE"/>
<path d="M684 297C683.011 297 682.044 297.264 681.222 297.758C680.4 298.253 679.759 298.956 679.381 299.778C679.002 300.6 678.903 301.505 679.096 302.378C679.289 303.251 679.765 304.053 680.464 304.682C681.164 305.311 682.055 305.74 683.025 305.914C683.995 306.087 685 305.998 685.913 305.657C686.827 305.317 687.608 304.74 688.157 304C688.707 303.26 689 302.39 689 301.5C689 300.307 688.473 299.162 687.536 298.318C686.598 297.474 685.326 297 684 297ZM684 303.955C683.457 303.957 682.926 303.814 682.474 303.544C682.022 303.274 681.669 302.889 681.461 302.438C681.252 301.987 681.197 301.491 681.302 301.012C681.407 300.533 681.669 300.092 682.052 299.747C682.436 299.402 682.925 299.167 683.457 299.072C683.99 298.977 684.541 299.027 685.042 299.215C685.543 299.402 685.971 299.72 686.271 300.127C686.571 300.534 686.73 301.012 686.728 301.5C686.728 302.151 686.441 302.776 685.929 303.236C685.418 303.697 684.724 303.955 684 303.955Z" fill="#274ECE"/>
<path d="M705.685 324.005V328.403C705.685 328.403 696.784 323.693 694.782 324.016C692.78 324.339 691.99 326.01 693.665 327.616C693.665 327.616 691.19 326.948 690.505 328.586C689.82 330.225 691.042 331.605 692.612 332.499C692.612 332.499 690.357 331.691 690.02 333.211C689.683 334.731 693.655 337.134 693.655 337.134C693.655 337.134 691.843 335.733 691.242 336.595C690.642 337.458 691.463 339.775 697.847 342.847C704.231 345.92 709.435 348 709.435 348L718 333.825L705.685 324.005Z" fill="#FCD7C8"/>
<path d="M693 337L700 340" stroke="#6D6D6D" stroke-width="1.26" stroke-miterlimit="10" stroke-linecap="round"/>
<path d="M691 332L702 337" stroke="#6D6D6D" stroke-width="1.26" stroke-miterlimit="10" stroke-linecap="round"/>
<path d="M693 328L704 334" stroke="#6D6D6D" stroke-width="1.26" stroke-miterlimit="10" stroke-linecap="round"/>
<path d="M738.446 315.295C727.064 292.655 707.425 276.657 694 272L696.906 276.355C702.055 280.532 707.194 285.753 710.132 291.475C716.376 303.589 721.241 320.714 722.641 325.873C719.935 325.163 717.976 324.703 717.976 324.703L708.268 352.115C708.268 352.115 720.904 358.005 726.074 359.801C730.665 361.378 741.711 362.673 746.207 354.966C749.955 348.575 748.039 334.363 738.446 315.295Z" fill="white"/>
<path d="M734.903 329.234C729.392 327.287 723.78 325.64 718.091 324.302L708.439 351.729C708.439 351.729 721.001 357.539 726.141 359.419C741.55 365.041 759.419 356.901 738.43 314.878C731.756 302.228 722.679 290.997 711.705 281.808C697.364 269.699 689.722 266.721 687 266" stroke="#6D6D6D" stroke-width="1.26" stroke-miterlimit="10" stroke-linecap="round"/>
<path d="M700 241C700 245.153 698.768 249.214 696.461 252.667C694.153 256.12 690.874 258.812 687.036 260.401C683.199 261.991 678.977 262.407 674.903 261.596C670.829 260.786 667.088 258.786 664.151 255.849C661.214 252.912 659.214 249.17 658.404 245.097C657.593 241.023 658.009 236.801 659.598 232.964C661.188 229.126 663.88 225.847 667.333 223.539C670.786 221.232 674.847 220 679 220C684.57 220 689.911 222.213 693.849 226.151C697.787 230.089 700 235.43 700 241Z" fill="#191D2B"/>
<path d="M705 217.489C705.002 219.765 704.358 221.99 703.15 223.882C701.943 225.775 700.225 227.251 698.214 228.123C696.204 228.994 693.991 229.223 691.857 228.78C689.722 228.336 687.761 227.241 686.222 225.632C684.683 224.023 683.635 221.973 683.211 219.741C682.787 217.509 683.005 215.196 683.839 213.094C684.673 210.992 686.085 209.196 687.895 207.934C689.706 206.671 691.834 205.998 694.01 206C696.925 206 699.72 207.21 701.781 209.365C703.842 211.52 705 214.442 705 217.489Z" fill="#191D2B"/>
<path d="M688 270C688 273.312 683.968 276 678.995 276C674.021 276 670 273.312 670 270C670 266.688 674.021 264 678.995 264C683.968 264 688 266.688 688 270Z" fill="#EE80A6"/>
<path d="M677.825 231.364L670.68 231.01C665.931 230.77 661.823 234.959 661.55 240.325L661.014 251.338C660.741 256.704 664.408 261.289 669.146 261.518L671.594 261.643V265.384C671.594 266.873 672.191 268.302 673.253 269.355C674.315 270.408 675.756 271 677.258 271H679.443C680.945 271 682.385 270.408 683.447 269.355C684.509 268.302 685.106 266.873 685.106 265.384V260.299L685.411 254.454C685.426 254.105 685.401 253.755 685.337 253.412C685.381 253.108 685.409 252.802 685.421 252.495L685.989 241.523C686.23 236.188 682.605 231.604 677.825 231.364Z" fill="#FCD7C8"/>
<path d="M675.997 244.58C675.981 244.876 675.878 245.161 675.701 245.399C675.523 245.636 675.279 245.815 674.999 245.914C674.72 246.013 674.418 246.027 674.13 245.954C673.843 245.881 673.584 245.724 673.385 245.504C673.187 245.284 673.058 245.009 673.016 244.716C672.973 244.423 673.018 244.123 673.146 243.855C673.273 243.588 673.477 243.364 673.731 243.212C673.986 243.06 674.28 242.987 674.576 243.002C674.774 243.011 674.967 243.059 675.146 243.143C675.325 243.227 675.485 243.346 675.617 243.493C675.749 243.64 675.851 243.812 675.916 243.999C675.982 244.185 676.009 244.383 675.997 244.58Z" fill="#191D2B"/>
<path d="M664.999 243.582C664.988 243.877 664.919 244.161 664.801 244.398C664.683 244.635 664.52 244.815 664.334 244.914C664.148 245.013 663.947 245.027 663.756 244.954C663.564 244.882 663.391 244.726 663.259 244.507C663.126 244.288 663.04 244.014 663.011 243.722C662.982 243.429 663.011 243.13 663.095 242.862C663.179 242.594 663.314 242.369 663.483 242.216C663.652 242.063 663.847 241.988 664.044 242.001C664.311 242.022 664.56 242.2 664.739 242.496C664.918 242.792 665.011 243.183 664.999 243.582Z" fill="#191D2B"/>
<path d="M666 250.399C666 250.399 666.731 252.732 668.524 252.977C670.317 253.223 671.845 251.443 672 250" stroke="#191D2B" stroke-width="0.95" stroke-linecap="round" stroke-linejoin="round"/>
<path d="M680.995 251.204C680.954 251.994 680.681 252.754 680.209 253.388C679.737 254.022 679.087 254.503 678.342 254.768C677.598 255.033 676.791 255.072 676.024 254.879C675.257 254.686 674.565 254.27 674.034 253.684C673.504 253.098 673.159 252.367 673.043 251.585C672.927 250.803 673.046 250.004 673.384 249.289C673.722 248.575 674.265 247.976 674.943 247.569C675.621 247.163 676.405 246.966 677.194 247.005C677.72 247.03 678.235 247.159 678.711 247.384C679.186 247.609 679.613 247.926 679.966 248.316C680.319 248.706 680.591 249.162 680.768 249.658C680.945 250.153 681.022 250.679 680.995 251.204Z" fill="#FFA6A6" fill-opacity="0.3"/>
<path d="M662.02 247.02C661.771 246.993 661.519 246.993 661.27 247.02L661.05 251.141C660.983 251.734 660.983 252.331 661.05 252.924C661.243 252.958 661.438 252.982 661.634 252.996C662.482 253.037 663.312 252.761 663.943 252.23C664.573 251.699 664.952 250.955 664.996 250.163C665.04 249.37 664.745 248.594 664.176 248.004C663.608 247.415 662.812 247.061 661.965 247.02H662.02Z" fill="#FFA6A6" fill-opacity="0.3"/>
<path d="M694.993 249.73C694.944 250.819 694.542 251.87 693.84 252.749C693.137 253.629 692.166 254.297 691.048 254.669C689.931 255.041 688.718 255.101 687.564 254.84C686.41 254.58 685.366 254.01 684.565 253.205C683.764 252.399 683.243 251.394 683.066 250.316C682.89 249.238 683.067 248.136 683.575 247.151C684.082 246.165 684.898 245.341 685.918 244.781C686.938 244.221 688.117 243.952 689.304 244.007C690.088 244.04 690.857 244.214 691.567 244.519C692.277 244.824 692.915 245.255 693.443 245.787C693.972 246.318 694.381 246.94 694.647 247.617C694.913 248.294 695.03 249.012 694.993 249.73Z" fill="#FCD7C8"/>
<path d="M686 250C686 250 686 246.497 690 247.062" stroke="#191D2B" stroke-width="1.26" stroke-miterlimit="10" stroke-linecap="round"/>
<path d="M663 241C663.648 241 664.319 241 665 241" stroke="#191D2B" stroke-width="1.26" stroke-miterlimit="10" stroke-linecap="round"/>
<path d="M673 240C674.358 240.167 675.698 240.502 677 241" stroke="#191D2B" stroke-width="1.26" stroke-miterlimit="10" stroke-linecap="round"/>
<path d="M668.686 243C668.202 244.219 667.639 245.407 667 246.557C667.656 246.747 668.324 246.895 669 247" stroke="#191D2B" stroke-width="0.95" stroke-linecap="round" stroke-linejoin="round"/>
<path d="M686.244 231.042C682.428 226.843 662.976 221.619 660 240.066C663.885 238.741 667.209 236.222 669.46 232.896C669.46 232.896 670.077 236.993 680.589 241.602C681.524 242.002 682.364 242.319 683.129 242.565L683.65 247L686.839 243.2C692.621 242.852 689.273 234.392 686.244 231.042Z" fill="#191D2B"/>
</svg>
