<svg width="18" height="18" viewBox="0 0 18 18" fill="none" xmlns="http://www.w3.org/2000/svg">
<path d="M14.5178 9.79666C14.6029 9.2685 14.6029 8.73013 14.5178 8.20198L15.8733 7.10164C15.9449 7.04002 15.9929 6.95538 16.0089 6.86226C16.0249 6.76913 16.0079 6.67336 15.961 6.59136L14.5657 4.19934C14.5175 4.11823 14.4427 4.05636 14.3539 4.02436C14.2652 3.99236 14.1681 3.99221 14.0793 4.02392L12.4846 4.64585C12.0676 4.31211 11.6025 4.04329 11.1052 3.84851L10.8181 2.13423C10.8046 2.04056 10.7576 1.95498 10.6857 1.89338C10.6139 1.83179 10.5221 1.79837 10.4275 1.79934H7.64475C7.54962 1.79971 7.45763 1.83341 7.38479 1.8946C7.31194 1.95579 7.26286 2.04059 7.24608 2.13423L6.967 3.84851C6.46806 4.04505 6.00063 4.31368 5.57963 4.64585L3.98495 4.02392C3.89611 3.99221 3.79902 3.99236 3.71029 4.02436C3.62156 4.05636 3.54671 4.11823 3.49857 4.19934L2.10322 6.59136C2.05719 6.67423 2.04156 6.77059 2.05904 6.86377C2.07651 6.95694 2.12598 7.04108 2.19891 7.10164L3.54642 8.20198C3.46137 8.73013 3.46137 9.2685 3.54642 9.79666L2.13512 10.897C2.06219 10.9576 2.01272 11.0417 1.99525 11.1349C1.97778 11.2281 1.99341 11.3244 2.03945 11.4073L3.43479 13.7993C3.48294 13.8804 3.55777 13.9423 3.6465 13.9743C3.73523 14.0063 3.83232 14.0064 3.92116 13.9747L5.51584 13.3528C5.93684 13.6849 6.40427 13.9536 6.90321 14.1501L7.18229 15.8644C7.19907 15.9581 7.24816 16.0428 7.321 16.104C7.39384 16.1652 7.48583 16.1989 7.58096 16.1993H10.3637C10.4583 16.2003 10.5501 16.1669 10.6219 16.1053C10.6938 16.0437 10.7409 15.9581 10.7544 15.8644L11.0414 14.1501C11.5387 13.9553 12.0038 13.6865 12.4208 13.3528L14.0155 13.9747C14.1043 14.0064 14.2014 14.0063 14.2902 13.9743C14.3789 13.9423 14.4537 13.8804 14.5019 13.7993L15.8972 11.4073C15.9442 11.3253 15.9611 11.2295 15.9451 11.1364C15.9291 11.0433 15.8811 10.9586 15.8095 10.897L14.5178 9.79666ZM9.00022 11.5269C8.50032 11.5269 8.01164 11.3787 7.59598 11.1009C7.18033 10.8232 6.85636 10.4284 6.66506 9.96657C6.47375 9.50472 6.4237 8.99651 6.52122 8.50621C6.61875 8.01591 6.85947 7.56555 7.21296 7.21207C7.56645 6.85858 8.01682 6.61786 8.50712 6.52033C8.99742 6.4228 9.50563 6.47286 9.96748 6.66416C10.4293 6.85547 10.8241 7.17943 11.1018 7.59509C11.3795 8.01075 11.5278 8.49941 11.5278 8.99932C11.5278 9.33124 11.4624 9.65991 11.3354 9.96657C11.2084 10.2732 11.0222 10.5519 10.7875 10.7866C10.5528 11.0213 10.2741 11.2075 9.96748 11.3345C9.66082 11.4615 9.33215 11.5269 9.00022 11.5269V11.5269Z" fill="#9FA0A5"/>
</svg>
