<svg width="18" height="18" viewBox="0 0 18 18" fill="none" xmlns="http://www.w3.org/2000/svg">
<path d="M14.5178 9.7969C14.6029 9.26874 14.6029 8.73038 14.5178 8.20222L15.8733 7.10189C15.9449 7.04027 15.9929 6.95562 16.0089 6.8625C16.0249 6.76938 16.0079 6.6736 15.961 6.5916L14.5657 4.19958C14.5175 4.11847 14.4427 4.05661 14.3539 4.0246C14.2652 3.9926 14.1681 3.99246 14.0793 4.02417L12.4846 4.64609C12.0676 4.31235 11.6025 4.04354 11.1052 3.84875L10.8181 2.13447C10.8046 2.0408 10.7576 1.95522 10.6857 1.89363C10.6139 1.83204 10.5221 1.79861 10.4275 1.79958H7.64475C7.54962 1.79995 7.45763 1.83366 7.38479 1.89484C7.31194 1.95603 7.26286 2.04084 7.24608 2.13447L6.967 3.84875C6.46806 4.04529 6.00063 4.31393 5.57963 4.64609L3.98495 4.02417C3.89611 3.99246 3.79902 3.9926 3.71029 4.0246C3.62156 4.05661 3.54671 4.11847 3.49857 4.19958L2.10322 6.5916C2.05719 6.67448 2.04156 6.77083 2.05904 6.86401C2.07651 6.95719 2.12598 7.04132 2.19891 7.10189L3.54642 8.20222C3.46137 8.73038 3.46137 9.26874 3.54642 9.7969L2.13512 10.8972C2.06219 10.9578 2.01272 11.042 1.99525 11.1351C1.97778 11.2283 1.99341 11.3247 2.03945 11.4075L3.43479 13.7996C3.48294 13.8807 3.55777 13.9425 3.6465 13.9745C3.73523 14.0065 3.83232 14.0067 3.92116 13.975L5.51584 13.353C5.93684 13.6852 6.40427 13.9538 6.90321 14.1504L7.18229 15.8647C7.19907 15.9583 7.24816 16.0431 7.321 16.1043C7.39384 16.1655 7.48583 16.1992 7.58096 16.1995H10.3637C10.4583 16.2005 10.5501 16.1671 10.6219 16.1055C10.6938 16.0439 10.7409 15.9583 10.7544 15.8647L11.0414 14.1504C11.5387 13.9556 12.0038 13.6868 12.4208 13.353L14.0155 13.975C14.1043 14.0067 14.2014 14.0065 14.2902 13.9745C14.3789 13.9425 14.4537 13.8807 14.5019 13.7996L15.8972 11.4075C15.9442 11.3255 15.9611 11.2297 15.9451 11.1366C15.9291 11.0435 15.8811 10.9589 15.8095 10.8972L14.5178 9.7969ZM9.00022 11.5271C8.50032 11.5271 8.01164 11.3789 7.59598 11.1012C7.18033 10.8234 6.85636 10.4287 6.66506 9.96682C6.47375 9.50496 6.4237 8.99675 6.52122 8.50645C6.61875 8.01615 6.85947 7.5658 7.21296 7.21231C7.56645 6.85882 8.01682 6.6181 8.50712 6.52057C8.99742 6.42305 9.50563 6.4731 9.96748 6.66441C10.4293 6.85571 10.8241 7.17968 11.1018 7.59533C11.3795 8.01099 11.5278 8.49965 11.5278 8.99956C11.5278 9.33149 11.4624 9.66016 11.3354 9.96682C11.2084 10.2735 11.0222 10.5521 10.7875 10.7868C10.5528 11.0215 10.2741 11.2077 9.96748 11.3347C9.66082 11.4618 9.33215 11.5271 9.00022 11.5271Z" fill="#6A6F81"/>
</svg>
