<svg width="19" height="7" viewBox="0 0 19 7" fill="none" xmlns="http://www.w3.org/2000/svg">
<path d="M3.95988 6.4C3.91721 6.4 3.88521 6.392 3.86388 6.376C3.84254 6.36 3.81588 6.32533 3.78387 6.272L1.27188 1.952V6.272C1.27188 6.32533 1.26388 6.36 1.24788 6.376C1.23188 6.392 1.19721 6.4 1.14388 6.4H0.479875C0.437208 6.4 0.405208 6.392 0.383875 6.376C0.362542 6.36 0.351875 6.32533 0.351875 6.272V0.504C0.351875 0.44 0.362542 0.4 0.383875 0.384C0.405208 0.362666 0.445208 0.352 0.503875 0.352H1.23988C1.28254 0.352 1.31454 0.36 1.33588 0.376C1.35721 0.386666 1.38388 0.421333 1.41588 0.48L3.92788 4.792V0.48C3.92788 0.426666 3.93588 0.392 3.95188 0.376C3.96788 0.36 4.00254 0.352 4.05588 0.352H4.71988C4.77321 0.352 4.80521 0.36 4.81588 0.376C4.83188 0.392 4.83988 0.426666 4.83988 0.48V6.248C4.83988 6.312 4.82921 6.352 4.80788 6.368C4.79188 6.38933 4.75454 6.4 4.69588 6.4H3.95988ZM6.48438 6.408C6.37771 6.408 6.31371 6.39733 6.29238 6.376C6.27104 6.36 6.26038 6.29333 6.26038 6.176V0.584C6.26038 0.477333 6.26838 0.416 6.28438 0.4C6.30571 0.378666 6.36704 0.368 6.46838 0.368H9.30838C9.36704 0.368 9.40171 0.378666 9.41238 0.4C9.42304 0.416 9.42838 0.448 9.42838 0.496V1.088C9.42838 1.14133 9.42038 1.17867 9.40438 1.2C9.38838 1.216 9.35638 1.224 9.30838 1.224H7.14038V2.856H9.20438C9.28438 2.856 9.32438 2.89867 9.32438 2.984V3.584C9.32438 3.67467 9.28438 3.72 9.20438 3.72H7.14038V5.544H9.40438C9.47904 5.544 9.51638 5.58933 9.51638 5.68V6.28C9.51638 6.36533 9.47904 6.408 9.40438 6.408H6.48438ZM16.5578 6.312C16.5471 6.35467 16.5338 6.37867 16.5178 6.384C16.5018 6.39467 16.4724 6.4 16.4298 6.4H15.6698C15.6271 6.4 15.5978 6.39467 15.5818 6.384C15.5658 6.37867 15.5524 6.35467 15.5418 6.312L14.2138 1.768L12.8858 6.312C12.8751 6.35467 12.8618 6.37867 12.8458 6.384C12.8351 6.39467 12.8058 6.4 12.7578 6.4H11.9978C11.9551 6.4 11.9258 6.39467 11.9098 6.384C11.8938 6.37867 11.8804 6.35467 11.8698 6.312L10.1818 0.48C10.1711 0.442666 10.1711 0.416 10.1818 0.4C10.1924 0.378666 10.2324 0.368 10.3018 0.368H10.9658C11.0031 0.368 11.0298 0.373333 11.0458 0.384C11.0618 0.389333 11.0751 0.410666 11.0858 0.448L12.4138 4.952L13.7098 0.448C13.7204 0.410666 13.7338 0.389333 13.7498 0.384C13.7711 0.373333 13.8004 0.368 13.8378 0.368H14.5898C14.6271 0.368 14.6538 0.373333 14.6698 0.384C14.6911 0.389333 14.7071 0.410666 14.7178 0.448L16.0138 4.952L17.3418 0.448C17.3524 0.410666 17.3658 0.389333 17.3818 0.384C17.3978 0.373333 17.4244 0.368 17.4618 0.368H18.1258C18.1951 0.368 18.2351 0.378666 18.2458 0.4C18.2564 0.416 18.2564 0.442666 18.2458 0.48L16.5578 6.312Z" fill="#6A6F81"/>
</svg>
