<svg width="32" height="32" viewBox="0 0 32 32" fill="none" xmlns="http://www.w3.org/2000/svg">
<path d="M25.6125 14.3777L23.8983 13.9593C23.7071 13.2222 23.4152 12.5148 23.031 11.8573L23.9392 10.3369C23.9982 10.2399 24.0231 10.1262 24.0102 10.0134C23.9972 9.9007 23.9471 9.79546 23.8677 9.71443L22.2861 8.13282C22.2035 8.05256 22.0964 8.00201 21.982 7.98908C21.8675 7.97615 21.7518 8.00158 21.6534 8.06139L20.1432 8.96956C19.4857 8.58533 18.7784 8.29344 18.0412 8.10218L17.6126 6.38792C17.5889 6.27637 17.527 6.17664 17.4376 6.10585C17.3482 6.03507 17.2369 5.99767 17.1229 6.00016H14.8882C14.773 5.99723 14.6601 6.03425 14.569 6.10492C14.4779 6.17558 14.414 6.27554 14.3881 6.38792L13.9699 8.10218C13.2295 8.29341 12.5187 8.58528 11.8576 8.96956L10.3474 8.06139C10.2505 8.00238 10.1366 7.97739 10.0239 7.99032C9.91118 8.00326 9.806 8.05339 9.72497 8.13282L8.1433 9.72464C8.06065 9.80347 8.00756 9.90822 7.99271 10.0215C7.97785 10.1347 8.00218 10.2496 8.06171 10.3471L8.9801 11.8675C8.58844 12.5225 8.29292 13.2304 8.10257 13.9695L6.38824 14.3879C6.27765 14.417 6.17982 14.4818 6.10973 14.5722C6.03964 14.6625 6.0012 14.7735 6.00049 14.8879V17.1225C6.0012 17.2369 6.03964 17.3478 6.10973 17.4382C6.17982 17.5286 6.27765 17.5934 6.38824 17.6225L8.10257 18.0409C8.2928 18.7833 8.5883 19.4945 8.9801 20.1531L8.06171 21.6633C8.00218 21.7608 7.97785 21.8757 7.99271 21.9889C8.00756 22.1022 8.06065 22.2069 8.1433 22.2857L9.72497 23.8673C9.80379 23.95 9.90855 24.0032 10.0218 24.0181C10.135 24.0329 10.2499 24.0085 10.3474 23.949L11.8576 23.0306C12.5145 23.4233 13.2265 23.7157 13.9699 23.898L14.3881 25.6225C14.4157 25.7339 14.4801 25.8328 14.5709 25.9032C14.6616 25.9735 14.7734 26.0113 14.8882 26.0102H17.1229C17.2364 26.0108 17.3467 25.9727 17.4358 25.9022C17.5248 25.8318 17.5871 25.7331 17.6126 25.6225L18.0412 23.898C18.7814 23.7158 19.4899 23.4233 20.1432 23.0306L21.6534 23.949C21.7524 24.0093 21.8691 24.0341 21.9841 24.0192C22.0991 24.0044 22.2057 23.9508 22.2861 23.8673L23.8677 22.2857C23.9471 22.2047 23.9972 22.0995 24.0102 21.9868C24.0231 21.8741 23.9982 21.7602 23.9392 21.6633L23.031 20.1531C23.4153 19.4919 23.7071 18.7813 23.8983 18.0409L25.6125 17.6225C25.724 17.595 25.8229 17.5306 25.8933 17.4399C25.9636 17.3492 26.0013 17.2373 26.0003 17.1225V14.8879C26.0037 14.7713 25.9671 14.6571 25.8965 14.5643C25.826 14.4715 25.7257 14.4056 25.6125 14.3777ZM16.0004 20.0817C15.1932 20.0817 14.404 19.8423 13.7328 19.3938C13.0616 18.9453 12.5384 18.3079 12.2295 17.562C11.9206 16.8162 11.8397 15.9956 11.9972 15.2038C12.1547 14.412 12.5434 13.6848 13.1143 13.114C13.6851 12.5432 14.4124 12.1544 15.2041 11.9969C15.9959 11.8394 16.8166 11.9202 17.5624 12.2292C18.3082 12.5381 18.9456 13.0613 19.3941 13.7325C19.8426 14.4037 20.082 15.1929 20.082 16.0001C20.082 17.0826 19.652 18.1208 18.8865 18.8862C18.1211 19.6517 17.0829 20.0817 16.0004 20.0817Z" fill="#9FA0A5"/>
</svg>
