<svg width="16" height="16" viewBox="0 0 16 16" fill="none" xmlns="http://www.w3.org/2000/svg">
<path fill-rule="evenodd" clip-rule="evenodd" d="M2.50039 1.1499C2.96891 1.1499 3.3489 1.52897 3.35039 1.99714L3.35043 2.00076L3.35111 2.02786C3.35195 2.05432 3.35377 2.09707 3.35764 2.154C3.36541 2.26808 3.38134 2.43782 3.41394 2.64663C3.47954 3.06693 3.61028 3.63039 3.86751 4.21223C4.37176 5.35282 5.3528 6.56358 7.37561 6.94702C7.68919 7.00597 8.00445 7.06116 8.31509 7.11555C8.91847 7.22117 9.5044 7.32375 10.0267 7.44487C10.838 7.63303 11.6244 7.89085 12.3094 8.35905C13.7495 9.3434 14.4606 11.0493 14.6491 13.9447C14.6796 14.4131 14.3246 14.8176 13.8561 14.8481C13.3877 14.8786 12.9832 14.5236 12.9527 14.0551C12.7759 11.3391 12.1386 10.3015 11.3501 9.76252C10.9207 9.46906 10.3728 9.27027 9.64259 9.10092C9.16263 8.98961 8.6577 8.90142 8.08906 8.80211C7.76886 8.74619 7.42847 8.68674 7.06096 8.61765L7.05978 8.61743C4.3654 8.10696 2.98778 6.42666 2.31268 4.89962C1.98021 4.14759 1.8161 3.43303 1.73427 2.90879C1.69315 2.64533 1.67223 2.42616 1.66157 2.26941C1.65623 2.19092 1.65343 2.12777 1.65198 2.08218C1.65125 2.05938 1.65085 2.04094 1.65064 2.02714L1.65043 2.00995L1.6504 2.00402L1.65039 2.00173L1.65039 2.00076C1.65039 2.00032 1.65039 1.9999 2.50039 1.9999H1.65039C1.65039 1.53046 2.03095 1.1499 2.50039 1.1499Z" fill="#6A6F81"/>
</svg>
