<svg width="12" height="12" viewBox="0 0 12 12" fill="none" xmlns="http://www.w3.org/2000/svg">
<path d="M5.9934 0.750025C5.11541 0.751737 4.27397 1.10172 3.65374 1.72316C3.03351 2.3446 2.68517 3.18673 2.68517 4.06473V5.24716C2.68295 5.92748 2.89302 6.59154 3.28608 7.14681C3.62185 6.88141 3.98589 6.65388 4.37159 6.46837C4.37159 6.46837 4.37159 6.46837 4.37159 6.42314C4.12797 6.07938 3.99702 5.6685 3.99683 5.24716V4.06473C3.98128 3.78995 4.02198 3.5149 4.11643 3.2564C4.21087 2.9979 4.35709 2.7614 4.54611 2.56138C4.73514 2.36135 4.963 2.20201 5.21575 2.09311C5.4685 1.98421 5.74081 1.92804 6.01602 1.92804C6.29123 1.92804 6.56354 1.98421 6.81629 2.09311C7.06904 2.20201 7.29691 2.36135 7.48594 2.56138C7.67496 2.7614 7.82117 2.9979 7.91562 3.2564C8.01006 3.5149 8.05076 3.78995 8.03521 4.06473V5.24716C8.03521 6.41668 6.64601 7.03051 5.81895 7.29543C5.05836 7.47144 4.3635 7.86014 3.81549 8.41617C3.26747 8.97219 2.8889 9.6726 2.72393 10.4357C2.68737 10.6027 2.71853 10.7775 2.81058 10.9216C2.90263 11.0657 3.04806 11.1675 3.21501 11.2046C3.26215 11.2113 3.31 11.2113 3.35715 11.2046C3.50651 11.2082 3.65253 11.16 3.77033 11.0681C3.88814 10.9762 3.97046 10.8463 4.00329 10.7006C4.11955 10.1623 4.38968 9.6693 4.78082 9.28159C5.17197 8.89389 5.6673 8.62814 6.20663 8.51663C8.21613 7.87049 9.32103 6.7139 9.32103 5.2407V4.06473C9.32103 3.62834 9.23487 3.19626 9.06748 2.79325C8.90009 2.39025 8.65478 2.02427 8.34561 1.7163C8.03644 1.40833 7.66951 1.16444 7.26586 0.998623C6.86221 0.832806 6.42978 0.748324 5.9934 0.750025Z" fill="#6A6F81"/>
<path d="M8.54616 8.82025C8.19091 9.06793 7.81472 9.28413 7.42188 9.46639C7.43838 9.50775 7.46009 9.54684 7.48649 9.5827C7.75612 9.92245 7.94204 10.3209 8.02925 10.7457C8.06207 10.8915 8.1444 11.0214 8.2622 11.1133C8.38001 11.2052 8.52603 11.2534 8.67539 11.2497H8.81754C8.98329 11.2112 9.12715 11.1089 9.21788 10.9649C9.30861 10.8209 9.3389 10.647 9.30215 10.4808C9.18057 9.87674 8.92193 9.30862 8.54616 8.82025Z" fill="#6A6F81"/>
</svg>
