<svg width="36" height="32" viewBox="0 0 36 32" fill="none" xmlns="http://www.w3.org/2000/svg">
<g clip-path="url(#clip0_330_2423)">
<path fill-rule="evenodd" clip-rule="evenodd" d="M23.7838 1.50091C23.6728 1.07075 23.422 0.689847 23.071 0.418102C22.7199 0.146357 22.2884 -0.000776012 21.8446 3.07818e-06L14.1879 2.40882e-06C13.7458 0.00143941 13.3168 0.149582 12.9677 0.421155C12.6187 0.692727 12.3693 1.07241 12.2588 1.50091L11.6091 4.01243L23.9736 2.24134L23.7838 1.50091ZM10.4995 7.42629H10.7694L10.3696 8.97727L25.193 6.91597L24.7933 5.36499L25.393 5.27497C25.5242 5.26512 25.6523 5.22956 25.7698 5.17017C25.8873 5.11078 25.9919 5.0287 26.0777 4.92881C26.1636 4.82893 26.229 4.7132 26.2702 4.58803C26.3113 4.46286 26.3273 4.33077 26.3175 4.19937C26.3077 4.06797 26.2721 3.93982 26.2128 3.82219C26.1535 3.70456 26.0716 3.59972 25.9718 3.51378C25.872 3.42783 25.7563 3.36246 25.6313 3.32128C25.5062 3.2801 25.3743 3.26391 25.243 3.27376H25.0931L10.1996 5.47516C10.0683 5.49487 9.94228 5.54017 9.82854 5.60867C9.7148 5.67716 9.61569 5.76748 9.5368 5.87433C9.4579 5.98118 9.40082 6.10254 9.36878 6.23148C9.33674 6.36042 9.3303 6.49436 9.34999 6.62576C9.36968 6.75716 9.41505 6.88346 9.48348 6.99732C9.5519 7.11118 9.642 7.21039 9.74874 7.28937C9.85548 7.36834 9.97683 7.42548 10.1056 7.45756C10.2344 7.48963 10.3682 7.49608 10.4995 7.47637V7.42629ZM12.0193 31.5008C9.13054 32.4113 1.76373 33.2218 0.224412 22.9356C-0.0492293 21.1229 -0.0727187 19.2813 0.154497 17.4623C0.394391 15.8513 3.91288 14.4605 9.06061 13.7L9.41044 12.3392H9.05061C8.78551 12.3764 8.51647 12.3065 8.30277 12.1451C8.08907 11.9837 7.94821 11.7441 7.9111 11.4787C7.87398 11.2133 7.94365 10.944 8.10486 10.7301C8.26607 10.5162 8.5056 10.3752 8.7707 10.338L26.233 7.88645H26.3729C26.638 7.86788 26.8997 7.95549 27.1003 8.13001C27.3009 8.30452 27.4239 8.55169 27.4424 8.81707C27.461 9.08244 27.3736 9.34426 27.1992 9.54504C27.0249 9.74583 26.778 9.86908 26.5129 9.88766L25.9132 9.96778L26.9127 13.6499C32.0505 14.4104 35.5788 15.8012 35.8087 17.4122C36.0638 19.2445 36.0638 21.1033 35.8087 22.9356C34.2794 33.2218 26.9127 32.4113 24.014 31.5008C19.5073 29.9995 16.5086 29.9995 12.0193 31.5008Z" fill="#E19647"/>
</g>
<defs>
<clipPath id="clip0_330_2423">
<rect width="36" height="32" fill="white"/>
</clipPath>
</defs>
</svg>
