<svg width="16" height="16" viewBox="0 0 16 16" fill="none" xmlns="http://www.w3.org/2000/svg">
<path d="M7.99108 1.00003C6.82042 1.00232 5.6985 1.46896 4.87153 2.29755C4.04455 3.12613 3.5801 4.24897 3.5801 5.41963V6.99622C3.57715 7.9033 3.85723 8.78872 4.38132 9.52909C4.82901 9.17521 5.3144 8.87184 5.82867 8.62449C5.82867 8.62449 5.82867 8.62449 5.82867 8.56418C5.50383 8.10585 5.32924 7.55799 5.32899 6.99622V5.41963C5.30825 5.05327 5.36252 4.68653 5.48844 4.34187C5.61437 3.99721 5.80933 3.68187 6.06136 3.41517C6.3134 3.14847 6.61721 2.93602 6.95421 2.79081C7.29121 2.64561 7.65429 2.57072 8.02124 2.57072C8.38819 2.57072 8.75127 2.64561 9.08827 2.79081C9.42526 2.93602 9.72909 3.14847 9.98113 3.41517C10.2332 3.68187 10.4281 3.99721 10.554 4.34187C10.68 4.68653 10.7342 5.05327 10.7135 5.41963V6.99622C10.7135 8.55557 8.86123 9.37401 7.75848 9.72724C6.74436 9.96192 5.81788 10.4802 5.0872 11.2216C4.35651 11.9629 3.85174 12.8968 3.63179 13.9142C3.58304 14.137 3.62458 14.37 3.74732 14.5621C3.87005 14.7543 4.06396 14.89 4.28655 14.9394C4.34942 14.9484 4.41322 14.9484 4.47608 14.9394C4.67523 14.9443 4.86991 14.88 5.02699 14.7575C5.18407 14.635 5.29383 14.4618 5.3376 14.2674C5.49262 13.5497 5.85278 12.8924 6.37431 12.3755C6.89584 11.8585 7.55628 11.5042 8.27538 11.3555C10.9547 10.494 12.4279 8.95187 12.4279 6.9876V5.41963C12.4279 4.83779 12.313 4.26167 12.0899 3.72434C11.8667 3.187 11.5396 2.69902 11.1274 2.2884C10.7151 1.87777 10.2259 1.55259 9.68769 1.3315C9.14949 1.11041 8.57292 0.997765 7.99108 1.00003Z" fill="#6A6F81"/>
<path d="M11.3946 11.7603C10.9209 12.0905 10.4193 12.3788 9.89551 12.6218C9.91751 12.6769 9.94647 12.729 9.98167 12.7768C10.3412 13.2299 10.5891 13.7611 10.7053 14.3276C10.7491 14.5219 10.8589 14.6951 11.0159 14.8176C11.173 14.9401 11.3677 15.0044 11.5669 14.9996H11.7564C11.9774 14.9482 12.1692 14.8117 12.2902 14.6198C12.4112 14.4278 12.4515 14.1959 12.4025 13.9744C12.2404 13.1689 11.8956 12.4114 11.3946 11.7603Z" fill="#6A6F81"/>
</svg>
