<svg width="12" height="12" viewBox="0 0 12 12" fill="none" xmlns="http://www.w3.org/2000/svg">
<path d="M6.09737 8.05409L3.31545 7.08036C3.27238 7.06445 3.22656 7.05729 3.18069 7.05931C3.13482 7.06132 3.08981 7.07247 3.04829 7.09209C3.00678 7.11172 2.9696 7.13943 2.93894 7.17361C2.90827 7.20778 2.88472 7.24773 2.86968 7.29112C2.84262 7.36733 2.84273 7.45055 2.86999 7.52669C2.89725 7.60283 2.94997 7.66722 3.01925 7.70894C3.04715 7.72712 3.07701 7.74211 3.10825 7.75364L3.22509 7.79282L2.9851 8.12643L5.32189 8.95461L5.56189 8.621L5.8679 8.72733C5.91137 8.74276 5.95746 8.74948 6.00353 8.7471C6.0496 8.74472 6.09475 8.73329 6.1364 8.71346C6.17805 8.69363 6.21539 8.66579 6.24629 8.63153C6.27718 8.59727 6.30103 8.55727 6.31646 8.51379C6.33189 8.47032 6.3386 8.42423 6.33622 8.37816C6.33384 8.33209 6.32241 8.28694 6.30258 8.24529C6.28276 8.20364 6.25492 8.1663 6.22066 8.13541C6.1864 8.10451 6.14639 8.08067 6.10292 8.06524L6.09737 8.05409Z" fill="#6A6F81"/>
<path d="M7.24776 6.45837L4.46584 5.48464C4.38543 5.45314 4.29623 5.45241 4.21531 5.48259C4.1344 5.51277 4.06746 5.57175 4.02733 5.64822C3.9872 5.72469 3.97669 5.81328 3.99782 5.89702C4.01895 5.98075 4.07022 6.05375 4.14182 6.10203C4.16973 6.12021 4.19958 6.1352 4.23082 6.14673L4.3421 6.1859L4.10211 6.51951L6.44446 7.3477L6.68446 7.01409L6.99048 7.12042C7.03355 7.13633 7.07937 7.14349 7.12524 7.14148C7.17112 7.13946 7.21612 7.12832 7.25764 7.10869C7.29915 7.08906 7.33633 7.06135 7.367 7.02717C7.39767 6.993 7.4212 6.95305 7.43624 6.90966C7.46976 6.82471 7.46884 6.73002 7.43364 6.64575C7.39844 6.56147 7.33175 6.49424 7.24776 6.45837Z" fill="#6A6F81"/>
<path d="M10.0902 4.56506L10.6484 3.78664C10.6679 3.76002 10.6819 3.7298 10.6897 3.69774C10.6975 3.66567 10.6989 3.63238 10.6938 3.59978C10.6886 3.56718 10.6771 3.53591 10.6599 3.50777C10.6427 3.47963 10.62 3.45517 10.5933 3.4358L6.92921 0.795843C6.87516 0.758779 6.80874 0.744368 6.7442 0.7557C6.67965 0.767032 6.62211 0.803205 6.58392 0.856462L6.02579 1.63489C6.00085 1.67003 5.98518 1.7109 5.98023 1.75371C5.97529 1.79653 5.98123 1.83989 5.99751 1.8798L6.55192 3.16685L5.95472 3.99531L5.64872 3.88898C5.56831 3.85748 5.4791 3.85675 5.39818 3.88693C5.31727 3.91712 5.25033 3.97609 5.2102 4.05256C5.17007 4.12903 5.15956 4.21762 5.18068 4.30136C5.20181 4.3851 5.25309 4.4581 5.3247 4.50637L5.41369 4.55107L5.53054 4.59026L5.25156 4.92936L7.58835 5.75754L7.82835 5.42393L8.13436 5.53026C8.17781 5.54626 8.22401 5.55349 8.27028 5.55155C8.31655 5.5496 8.36198 5.53851 8.40394 5.51892C8.4459 5.49933 8.48356 5.47162 8.51476 5.43739C8.54595 5.40317 8.57007 5.3631 8.5857 5.31951C8.61621 5.23095 8.61061 5.13393 8.57013 5.04946C8.52965 4.96499 8.45753 4.89986 8.36939 4.86817L8.2581 4.829L8.44788 4.5621L9.83951 4.67596C9.88742 4.68184 9.93603 4.67464 9.98018 4.65511C10.0243 4.63559 10.0624 4.60447 10.0902 4.56506Z" fill="#6A6F81"/>
<path d="M4.95336 9.64952L2.17144 8.67579C2.12798 8.65979 2.08179 8.65255 2.03552 8.6545C1.98925 8.65645 1.94383 8.66754 1.90187 8.68713C1.85991 8.70672 1.82224 8.73443 1.79104 8.76866C1.75985 8.80288 1.73573 8.84295 1.7201 8.88654C1.69644 8.95914 1.69598 9.03732 1.7188 9.1102C1.74162 9.18308 1.78657 9.24703 1.84742 9.29318C1.87532 9.31136 1.90517 9.32635 1.93642 9.33788L2.05326 9.37706L2.10601 10.9973C2.10687 11.0358 2.11662 11.0737 2.13452 11.1079C2.15241 11.1421 2.17797 11.1717 2.20918 11.1944C2.24039 11.217 2.27643 11.2322 2.31447 11.2387C2.35252 11.2452 2.39154 11.2428 2.4285 11.2317L3.9882 10.7612L4.39006 10.2052L4.69607 10.3116C4.7395 10.3274 4.78565 10.3343 4.8318 10.3319C4.87795 10.3295 4.92315 10.3179 4.96472 10.2977C5.00629 10.2775 5.04339 10.2492 5.07382 10.2144C5.10424 10.1797 5.12738 10.1391 5.14185 10.0952C5.1737 10.011 5.17188 9.91765 5.13679 9.83467C5.1017 9.75168 5.03601 9.68538 4.95336 9.64952Z" fill="#6A6F81"/>
</svg>
