<svg width="16" height="16" viewBox="0 0 16 16" fill="none" xmlns="http://www.w3.org/2000/svg">
<path d="M7.99105 1C6.82039 1.00229 5.69847 1.46893 4.8715 2.29752C4.04452 3.1261 3.58007 4.24894 3.58007 5.4196V6.99619C3.57711 7.90327 3.8572 8.78869 4.38129 9.52906C4.82898 9.17518 5.31437 8.87181 5.82864 8.62446C5.82864 8.62446 5.82864 8.62446 5.82864 8.56415C5.5038 8.10582 5.32921 7.55796 5.32896 6.99619V5.4196C5.30822 5.05324 5.36248 4.6865 5.48841 4.34184C5.61434 3.99718 5.8093 3.68184 6.06133 3.41514C6.31337 3.14844 6.61718 2.93599 6.95418 2.79078C7.29118 2.64558 7.65426 2.57069 8.02121 2.57069C8.38816 2.57069 8.75124 2.64558 9.08824 2.79078C9.42523 2.93599 9.72906 3.14844 9.9811 3.41514C10.2331 3.68184 10.4281 3.99718 10.554 4.34184C10.6799 4.6865 10.7342 5.05324 10.7135 5.4196V6.99619C10.7135 8.55554 8.8612 9.37398 7.75845 9.72721C6.74433 9.96189 5.81785 10.4802 5.08717 11.2215C4.35648 11.9629 3.85171 12.8968 3.63176 13.9142C3.58301 14.1369 3.62455 14.3699 3.74728 14.5621C3.87002 14.7543 4.06393 14.89 4.28652 14.9394C4.34938 14.9484 4.41319 14.9484 4.47605 14.9394C4.6752 14.9443 4.86988 14.88 5.02696 14.7575C5.18404 14.6349 5.2938 14.4618 5.33757 14.2674C5.49259 13.5497 5.85275 12.8924 6.37428 12.3754C6.89581 11.8585 7.55625 11.5041 8.27535 11.3555C10.9547 10.494 12.4279 8.95184 12.4279 6.98757V5.4196C12.4279 4.83776 12.313 4.26164 12.0898 3.72431C11.8666 3.18697 11.5396 2.69899 11.1273 2.28837C10.7151 1.87774 10.2259 1.55256 9.68766 1.33147C9.14945 1.11038 8.57289 0.997735 7.99105 1Z" fill="white"/>
<path d="M11.3946 11.7603C10.9209 12.0905 10.4193 12.3788 9.89551 12.6218C9.91751 12.6769 9.94647 12.729 9.98167 12.7768C10.3412 13.2299 10.5891 13.7611 10.7053 14.3276C10.7491 14.5219 10.8589 14.6951 11.0159 14.8176C11.173 14.9401 11.3677 15.0044 11.5669 14.9996H11.7564C11.9774 14.9482 12.1692 14.8117 12.2902 14.6198C12.4112 14.4278 12.4515 14.1959 12.4025 13.9744C12.2404 13.1689 11.8956 12.4114 11.3946 11.7603Z" fill="white"/>
</svg>
