<svg width="32" height="32" viewBox="0 0 32 32" fill="none" xmlns="http://www.w3.org/2000/svg">
<path opacity="0.3" d="M31.9738 9.1067C31.3037 -1.29572 23.8424 -0.406418 20.9719 0.562875C20.7432 0.640099 20.5267 0.714017 20.3203 0.784471C18.5656 1.38357 17.5446 1.73219 16.0009 1.73219C14.3788 1.73219 13.3566 1.3752 11.4124 0.696239L11.0301 0.562875C8.15962 -0.436398 0.688338 -1.29572 0.0282251 9.1067C-0.209865 12.7046 1.09689 21.2966 2.49428 27.2086C2.495 27.2117 2.49645 27.2147 2.49853 27.2178C3.09437 29.8969 8.9119 31.9997 16.0006 31.9997C23.049 31.9997 28.8406 29.9208 29.4919 27.2634C29.4954 27.2565 29.4981 27.2491 29.5 27.2412C30.9002 21.3282 32.2024 12.7112 31.9738 9.1067Z" fill="#637EDD"/>
</svg>
