<svg width="36" height="32" viewBox="0 0 36 32" fill="none" xmlns="http://www.w3.org/2000/svg">
<g clip-path="url(#clip0_320_10680)">
<path fill-rule="evenodd" clip-rule="evenodd" d="M23.7838 1.5009C23.6728 1.07074 23.422 0.689837 23.071 0.418091C22.7199 0.146346 22.2884 -0.000786452 21.8446 -7.33869e-06L14.1879 -8.00805e-06C13.7458 0.00142914 13.3168 0.149571 12.9677 0.421144C12.6187 0.692717 12.3693 1.0724 12.2588 1.5009L11.6091 4.01242L23.9736 2.24133L23.7838 1.5009ZM10.4995 7.42628H10.7694L10.3696 8.97726L25.193 6.91596L24.7933 5.36498L25.393 5.27496C25.5242 5.2651 25.6523 5.22955 25.7698 5.17016C25.8873 5.11077 25.9919 5.02869 26.0777 4.9288C26.1636 4.82892 26.229 4.71319 26.2702 4.58802C26.3113 4.46285 26.3273 4.33076 26.3175 4.19936C26.3077 4.06796 26.2721 3.93981 26.2128 3.82218C26.1535 3.70455 26.0716 3.59971 25.9718 3.51377C25.872 3.42782 25.7563 3.36245 25.6313 3.32127C25.5062 3.28009 25.3743 3.2639 25.243 3.27375H25.0931L10.1996 5.47515C10.0683 5.49486 9.94228 5.54016 9.82854 5.60866C9.7148 5.67715 9.61569 5.76747 9.5368 5.87432C9.4579 5.98117 9.40082 6.10253 9.36878 6.23147C9.33674 6.36041 9.3303 6.49435 9.34999 6.62575C9.36968 6.75715 9.41505 6.88345 9.48348 6.99731C9.5519 7.11117 9.642 7.21038 9.74874 7.28936C9.85548 7.36833 9.97683 7.42547 10.1056 7.45755C10.2344 7.48962 10.3682 7.49607 10.4995 7.47636V7.42628ZM12.0193 31.5008C9.13054 32.4113 1.76373 33.2217 0.224412 22.9355C-0.0492277 21.1229 -0.0727185 19.2813 0.154497 17.4623C0.394392 15.8513 3.91288 14.4605 9.06062 13.7L9.41044 12.3392H9.05061C8.78551 12.3764 8.51647 12.3065 8.30277 12.1451C8.08907 11.9837 7.94821 11.7441 7.9111 11.4787C7.87398 11.2133 7.94365 10.944 8.10486 10.7301C8.26607 10.5162 8.5056 10.3751 8.7707 10.338L26.233 7.88644H26.3729C26.638 7.86787 26.8997 7.95548 27.1003 8.13C27.3009 8.30451 27.4239 8.55168 27.4424 8.81706C27.461 9.08243 27.3736 9.34425 27.1992 9.54503C27.0249 9.74582 26.778 9.86907 26.5129 9.88765L25.9132 9.96777L26.9127 13.6499C32.0505 14.4104 35.5788 15.8012 35.8087 17.4122C36.0638 19.2445 36.0638 21.1033 35.8087 22.9356C34.2794 33.2217 26.9127 32.4113 24.014 31.5008C19.5073 29.9995 16.5086 29.9995 12.0193 31.5008Z" fill="#DBE5FF"/>
</g>
<defs>
<clipPath id="clip0_320_10680">
<rect width="36" height="32" fill="white"/>
</clipPath>
</defs>
</svg>
