<svg width="12" height="12" viewBox="0 0 12 12" fill="none" xmlns="http://www.w3.org/2000/svg">
<path d="M6.09688 8.05434L3.31496 7.08061C3.27189 7.06469 3.22608 7.05754 3.1802 7.05955C3.13433 7.06156 3.08932 7.07271 3.04781 7.09234C3.00629 7.11196 2.96912 7.13968 2.93845 7.17385C2.90778 7.20803 2.88423 7.24798 2.8692 7.29136C2.84213 7.36757 2.84225 7.45079 2.8695 7.52694C2.89676 7.60308 2.94949 7.66746 3.01876 7.70918C3.04667 7.72736 3.07652 7.74236 3.10776 7.75388L3.2246 7.79307L2.98461 8.12667L5.3214 8.95485L5.5614 8.62124L5.86741 8.72757C5.91088 8.743 5.95697 8.74972 6.00304 8.74734C6.04911 8.74496 6.09426 8.73353 6.13591 8.7137C6.17757 8.69388 6.21491 8.66604 6.2458 8.63178C6.27669 8.59752 6.30054 8.55751 6.31597 8.51404C6.3314 8.47056 6.33812 8.42448 6.33574 8.37841C6.33336 8.33234 6.32192 8.28719 6.3021 8.24553C6.28227 8.20388 6.25443 8.16654 6.22017 8.13565C6.18591 8.10476 6.1459 8.08091 6.10243 8.06548L6.09688 8.05434Z" fill="#9FA0A5"/>
<path d="M7.2463 6.45849L4.46438 5.48476C4.38397 5.45326 4.29476 5.45253 4.21385 5.48271C4.13293 5.5129 4.066 5.57187 4.02586 5.64834C3.98573 5.72481 3.97523 5.8134 3.99636 5.89714C4.01748 5.98087 4.06875 6.05387 4.14036 6.10215C4.16826 6.12033 4.19812 6.13533 4.22936 6.14685L4.34063 6.18602L4.10064 6.51963L6.443 7.34782L6.683 7.01421L6.98901 7.12054C7.03209 7.13645 7.0779 7.14361 7.12378 7.1416C7.16965 7.13959 7.21466 7.12844 7.25617 7.10881C7.29768 7.08918 7.33486 7.06147 7.36553 7.0273C7.3962 6.99312 7.41974 6.95317 7.43477 6.90978C7.4683 6.82483 7.46737 6.73015 7.43217 6.64587C7.39698 6.56159 7.33029 6.49437 7.2463 6.45849Z" fill="#9FA0A5"/>
<path d="M10.0898 4.56506L10.6479 3.78664C10.6674 3.76002 10.6814 3.7298 10.6892 3.69774C10.697 3.66567 10.6984 3.63238 10.6933 3.59978C10.6882 3.56718 10.6767 3.53591 10.6594 3.50777C10.6422 3.47963 10.6196 3.45517 10.5928 3.4358L6.92872 0.795843C6.87467 0.758779 6.80825 0.744368 6.74371 0.7557C6.67916 0.767032 6.62163 0.803205 6.58344 0.856462L6.0253 1.63489C6.00036 1.67003 5.98469 1.7109 5.97975 1.75372C5.9748 1.79653 5.98075 1.83989 5.99702 1.8798L6.55144 3.16685L5.95423 3.99531L5.64823 3.88898C5.56782 3.85748 5.47861 3.85675 5.39769 3.88693C5.31678 3.91712 5.24985 3.97609 5.20971 4.05256C5.16958 4.12903 5.15907 4.21762 5.1802 4.30136C5.20132 4.3851 5.2526 4.4581 5.32421 4.50637L5.4132 4.55107L5.53005 4.59026L5.25107 4.92936L7.58786 5.75754L7.82786 5.42393L8.13387 5.53026C8.17733 5.54626 8.22353 5.55349 8.26979 5.55155C8.31606 5.5496 8.36149 5.53851 8.40345 5.51892C8.44541 5.49933 8.48307 5.47162 8.51427 5.43739C8.54546 5.40317 8.56958 5.3631 8.58521 5.31951C8.61572 5.23095 8.61012 5.13393 8.56964 5.04946C8.52916 4.96499 8.45704 4.89986 8.3689 4.86817L8.25761 4.829L8.44739 4.5621L9.83902 4.67596C9.88694 4.68184 9.93554 4.67464 9.97969 4.65511C10.0238 4.63559 10.0619 4.60447 10.0898 4.56506Z" fill="#9FA0A5"/>
<path d="M4.95189 9.64927L2.16997 8.67555C2.12651 8.65955 2.08032 8.65231 2.03405 8.65426C1.98779 8.6562 1.94236 8.66729 1.9004 8.68689C1.85844 8.70648 1.82078 8.73419 1.78958 8.76841C1.75838 8.80264 1.73427 8.8427 1.71864 8.88629C1.69497 8.9589 1.69452 9.03708 1.71733 9.10995C1.74015 9.18283 1.7851 9.24679 1.84595 9.29294C1.87385 9.31112 1.90371 9.32611 1.93495 9.33764L2.0518 9.37682L2.10455 10.997C2.1054 11.0356 2.11516 11.0735 2.13305 11.1076C2.15095 11.1418 2.1765 11.1714 2.20772 11.1941C2.23893 11.2168 2.27497 11.232 2.31301 11.2384C2.35105 11.2449 2.39007 11.2425 2.42703 11.2314L3.98674 10.761L4.38859 10.205L4.69461 10.3113C4.73803 10.3271 4.78419 10.334 4.83034 10.3316C4.87649 10.3293 4.92168 10.3176 4.96325 10.2975C5.00483 10.2773 5.04193 10.249 5.07235 10.2142C5.10278 10.1794 5.12592 10.1389 5.14038 10.095C5.17223 10.0107 5.17042 9.91741 5.13532 9.83442C5.10023 9.75144 5.03455 9.68514 4.95189 9.64927Z" fill="#9FA0A5"/>
</svg>
