<svg width="14" height="14" viewBox="0 0 14 14" fill="none" xmlns="http://www.w3.org/2000/svg">
<path fill-rule="evenodd" clip-rule="evenodd" d="M1.50039 0.149902C1.96891 0.149902 2.3489 0.52897 2.35039 0.997143L2.35043 1.00076L2.35111 1.02786C2.35195 1.05432 2.35377 1.09707 2.35764 1.154C2.36541 1.26808 2.38134 1.43782 2.41394 1.64663C2.47954 2.06693 2.61028 2.63039 2.86751 3.21223C3.37176 4.35282 4.3528 5.56358 6.37561 5.94702C6.68919 6.00597 7.00445 6.06116 7.31509 6.11555C7.91847 6.22117 8.5044 6.32375 9.02666 6.44487C9.83797 6.63303 10.6244 6.89085 11.3094 7.35905C12.7495 8.3434 13.4606 10.0493 13.6491 12.9447C13.6796 13.4131 13.3246 13.8176 12.8561 13.8481C12.3877 13.8786 11.9832 13.5236 11.9527 13.0551C11.7759 10.3391 11.1386 9.30149 10.3501 8.76252C9.92074 8.46906 9.37282 8.27027 8.64259 8.10092C8.16263 7.98961 7.6577 7.90142 7.08906 7.80211C6.76886 7.74619 6.42847 7.68674 6.06096 7.61765L6.05978 7.61743C3.3654 7.10696 1.98778 5.42666 1.31268 3.89962C0.980207 3.14759 0.816096 2.43303 0.734271 1.90879C0.693149 1.64533 0.672231 1.42616 0.661565 1.26941C0.656225 1.19092 0.653434 1.12777 0.651977 1.08218C0.651247 1.05938 0.650851 1.04094 0.650637 1.02714L0.650433 1.00995L0.650399 1.00402L0.650392 1.00173L0.650391 1.00076C0.650391 1.00032 0.650391 0.999902 1.50039 0.999902H0.650391C0.650391 0.53046 1.03095 0.149902 1.50039 0.149902Z" fill="white"/>
</svg>
