<svg width="32" height="32" viewBox="0 0 32 32" fill="none" xmlns="http://www.w3.org/2000/svg">
<g clip-path="url(#clip0_330_2351)">
<path opacity="0.3" d="M11.0281 31.4369C8.15763 32.4062 0.696346 33.2955 0.0262326 22.8931C-0.203807 19.2657 1.11642 10.562 2.52666 4.64634L2.53215 4.64634C3.29071 2.03217 9.03085 4.1861e-05 15.9994 4.24702e-05C22.968 4.30794e-05 28.7082 2.03218 29.4667 4.64635L29.4713 4.64635C30.8816 10.562 32.2118 19.2657 31.9718 22.8931C31.3117 33.2955 23.8404 32.4362 20.9699 31.4369C20.8385 31.3911 20.7112 31.3467 20.5876 31.3035C18.6434 30.6246 17.6212 30.2676 15.9991 30.2676C14.4554 30.2676 13.4345 30.6161 11.6798 31.2152C11.4734 31.2857 11.2569 31.3596 11.0281 31.4369Z" fill="#637EDD"/>
</g>
<defs>
<clipPath id="clip0_330_2351">
<rect width="32" height="32" fill="white"/>
</clipPath>
</defs>
</svg>
