<svg width="32" height="32" viewBox="0 0 32 32" fill="none" xmlns="http://www.w3.org/2000/svg">
<g clip-path="url(#clip0_320_10711)">
<path d="M11.0281 31.4368C8.15763 32.4061 0.696346 33.2954 0.0262326 22.893C-0.203807 19.2656 1.11642 10.562 2.52666 4.64627L2.53215 4.64627C3.29071 2.0321 9.03085 -3.4433e-05 15.9994 -3.38237e-05C22.968 -3.32145e-05 28.7082 2.0321 29.4667 4.64627L29.4713 4.64627C30.8816 10.562 32.2118 19.2656 31.9718 22.893C31.3117 33.2954 23.8404 32.4361 20.9699 31.4368C20.8385 31.3911 20.7112 31.3466 20.5876 31.3034C18.6434 30.6245 17.6212 30.2675 15.9991 30.2675C14.4554 30.2675 13.4345 30.616 11.6798 31.2151C11.4734 31.2856 11.2569 31.3596 11.0281 31.4368Z" fill="#B865EB"/>
</g>
<defs>
<clipPath id="clip0_320_10711">
<rect width="32" height="32" fill="white"/>
</clipPath>
</defs>
</svg>
