<svg width="32" height="32" viewBox="0 0 32 32" fill="none" xmlns="http://www.w3.org/2000/svg">
<g clip-path="url(#clip0_330_2430)">
<path fill-rule="evenodd" clip-rule="evenodd" d="M21.6734 1.50196C21.5629 1.07372 21.3136 0.694143 20.9644 0.422733C20.6153 0.151324 20.1861 0.00339309 19.7439 0.00195687L12.0855 0.0019562C11.6416 0.00117751 11.2102 0.148099 10.859 0.419681C10.5078 0.691262 10.257 1.07206 10.146 1.50196L9.41608 4.33191L21.9434 2.53186L21.6734 1.50196ZM0.0380717 22.9223C0.707924 33.3323 8.14629 32.4123 11.0357 31.4623C11.2144 31.4036 11.3983 31.3417 11.5865 31.2783L11.5869 31.2781L11.587 31.2781C12.926 30.8273 14.4866 30.3018 15.9947 30.3018C17.5087 30.3018 19.0607 30.8253 20.4128 31.2813C20.5969 31.3434 20.7774 31.4042 20.9535 31.4623C23.8329 32.4123 31.2713 33.3323 31.9511 22.9223C32.0671 20.9183 31.9766 18.9078 31.6812 16.9223C31.4712 15.6223 28.8118 14.4923 24.8527 13.8023L23.9629 10.3223H24.2828C24.5479 10.3038 24.7949 10.1806 24.9693 9.97992C25.1436 9.77925 25.2312 9.5176 25.2126 9.25238C25.194 8.98716 25.0709 8.74014 24.8703 8.56573C24.6697 8.39132 24.4081 8.30376 24.1429 8.32233H24.0029L6.94659 10.7223C6.68143 10.7595 6.44185 10.9004 6.2806 11.1142C6.11936 11.328 6.04967 11.5971 6.0868 11.8624C6.12392 12.1276 6.26481 12.3671 6.47856 12.5284C6.6923 12.6897 6.9614 12.7595 7.22656 12.7223H7.29649L6.99663 13.8923C3.06749 14.5923 0.45801 15.7323 0.31804 17.0423C0.033002 18.9885 -0.060788 20.9579 0.0380717 22.9223ZM8.52774 7.77436L8.14664 9.25183L23.1434 7.17176L22.7434 5.62183H23.0833C23.2134 5.60229 23.3383 5.55729 23.4509 5.48938C23.5635 5.42148 23.6616 5.33198 23.7397 5.22608C23.8177 5.12018 23.874 4.99991 23.9055 4.8722C23.937 4.74448 23.943 4.61185 23.9231 4.48182C23.8869 4.24336 23.7659 4.02595 23.5822 3.86976C23.3985 3.71356 23.1644 3.62911 22.9233 3.63184H22.7734L8.2466 5.77173C7.98144 5.81151 7.7429 5.95511 7.58353 6.17078C7.42416 6.38645 7.35703 6.65654 7.39681 6.92176C7.43658 7.18697 7.58002 7.42556 7.79564 7.58496C8.00619 7.74062 8.26862 7.8083 8.52774 7.77436Z" fill="#E19647"/>
</g>
<defs>
<clipPath id="clip0_330_2430">
<rect width="32" height="32" fill="white"/>
</clipPath>
</defs>
</svg>
