<svg width="15" height="14" viewBox="0 0 15 14" fill="none" xmlns="http://www.w3.org/2000/svg">
<path fill-rule="evenodd" clip-rule="evenodd" d="M8.54433 1.70537C8.31652 1.47757 7.94718 1.47757 7.71937 1.70537L3.66711 5.75763L3.66694 5.75745L0.872637 8.55176C0.644157 8.78024 0.644932 9.15091 0.874364 9.37843L3.51758 11.9996C3.7673 12.2473 4.10474 12.3862 4.45644 12.3862L14.0368 12.3862L14.0368 11.3862L7.7023 11.3862L12.5513 6.53727C12.7791 6.30946 12.7791 5.94012 12.5513 5.71231L8.54433 1.70537ZM1.87561 8.963L3.41763 7.42098L6.83521 10.8386L6.28758 11.3862H4.45644C4.36851 11.3862 4.28415 11.3515 4.22172 11.2896L1.87561 8.963Z" fill="#6A6F81"/>
</svg>
