<svg width="36" height="32" viewBox="0 0 36 32" fill="none" xmlns="http://www.w3.org/2000/svg">
<g clip-path="url(#clip0_320_10687)">
<path d="M12.4066 31.4407C9.17733 32.41 0.78339 33.2993 0.0295097 22.8969C-0.229283 19.2696 1.25597 10.5659 2.84249 4.6502L2.84867 4.6502C3.70204 2.03603 10.1597 0.00389134 17.9994 0.00389066C25.839 0.00388997 32.2967 2.03602 33.1501 4.65019L33.1553 4.65019C34.7418 10.5659 36.2383 19.2695 35.9682 22.8969C35.2256 33.2993 26.8204 32.44 23.5911 31.4407C23.4433 31.395 23.3001 31.3505 23.161 31.3074C20.9738 30.6284 19.8238 30.2714 17.9989 30.2714C16.2624 30.2714 15.1139 30.62 13.1398 31.2191C12.9076 31.2895 12.664 31.3635 12.4066 31.4407Z" fill="#DBE5FF"/>
</g>
<defs>
<clipPath id="clip0_320_10687">
<rect width="36" height="32" fill="white"/>
</clipPath>
</defs>
</svg>
