<svg width="12" height="12" viewBox="0 0 12 12" fill="none" xmlns="http://www.w3.org/2000/svg">
<path d="M5.9938 0.750025C5.11581 0.751737 4.27436 1.10172 3.65413 1.72316C3.0339 2.3446 2.68556 3.18673 2.68556 4.06473V5.24716C2.68335 5.92748 2.89341 6.59154 3.28648 7.14681C3.62225 6.88141 3.98629 6.65388 4.37199 6.46837C4.37199 6.46837 4.37199 6.46837 4.37199 6.42314C4.12836 6.07938 3.99742 5.6685 3.99723 5.24716V4.06473C3.98168 3.78995 4.02237 3.5149 4.11682 3.2564C4.21127 2.9979 4.35748 2.7614 4.54651 2.56138C4.73554 2.36135 4.9634 2.20201 5.21615 2.09311C5.46889 1.98421 5.74121 1.92804 6.01642 1.92804C6.29163 1.92804 6.56394 1.98421 6.81669 2.09311C7.06944 2.20201 7.29731 2.36135 7.48633 2.56138C7.67536 2.7614 7.82156 2.9979 7.91601 3.2564C8.01046 3.5149 8.05116 3.78995 8.03561 4.06473V5.24716C8.03561 6.41668 6.64641 7.03051 5.81935 7.29543C5.05876 7.47144 4.3639 7.86014 3.81589 8.41617C3.26787 8.97219 2.88929 9.6726 2.72433 10.4357C2.68777 10.6027 2.71893 10.7775 2.81097 10.9216C2.90302 11.0657 3.04846 11.1675 3.2154 11.2046C3.26255 11.2113 3.3104 11.2113 3.35755 11.2046C3.50691 11.2082 3.65292 11.16 3.77073 11.0681C3.88854 10.9762 3.97086 10.8463 4.00369 10.7006C4.11995 10.1623 4.39008 9.6693 4.78122 9.28159C5.17237 8.89389 5.6677 8.62814 6.20703 8.51663C8.21652 7.87049 9.32143 6.7139 9.32143 5.2407V4.06473C9.32143 3.62834 9.23526 3.19626 9.06788 2.79325C8.90049 2.39025 8.65517 2.02427 8.34601 1.7163C8.03684 1.40833 7.6699 1.16444 7.26625 0.998623C6.8626 0.832806 6.43018 0.748324 5.9938 0.750025Z" fill="#9FA0A5"/>
<path d="M8.54616 8.82031C8.19091 9.06799 7.81472 9.28419 7.42188 9.46645C7.43838 9.50781 7.46009 9.5469 7.48649 9.58276C7.75612 9.92251 7.94204 10.3209 8.02925 10.7458C8.06207 10.8916 8.1444 11.0214 8.2622 11.1133C8.38001 11.2052 8.52603 11.2535 8.67539 11.2498H8.81754C8.98329 11.2113 9.12715 11.1089 9.21788 10.965C9.30861 10.821 9.3389 10.647 9.30215 10.4809C9.18057 9.8768 8.92193 9.30868 8.54616 8.82031Z" fill="#9FA0A5"/>
</svg>
