<svg width="36" height="32" viewBox="0 0 36 32" fill="none" xmlns="http://www.w3.org/2000/svg">
<g clip-path="url(#clip0_330_2347)">
<path opacity="0.3" d="M12.4066 31.4408C9.17733 32.4101 0.78339 33.2994 0.0295097 22.897C-0.229283 19.2696 1.25597 10.5659 2.84249 4.65026L2.84867 4.65026C3.70204 2.03609 10.1597 0.00395238 17.9994 0.00395169C25.839 0.00395101 32.2967 2.03608 33.1501 4.65025L33.1553 4.65025C34.7418 10.5659 36.2383 19.2696 35.9682 22.897C35.2256 33.2994 26.8204 32.4401 23.5911 31.4408C23.4433 31.395 23.3001 31.3506 23.161 31.3074C20.9738 30.6285 19.8238 30.2715 17.9989 30.2715C16.2624 30.2715 15.1139 30.62 13.1398 31.2191C12.9076 31.2896 12.664 31.3635 12.4066 31.4408Z" fill="#637EDD"/>
</g>
<defs>
<clipPath id="clip0_330_2347">
<rect width="36" height="32" fill="white"/>
</clipPath>
</defs>
</svg>
