<svg width="32" height="32" viewBox="0 0 32 32" fill="none" xmlns="http://www.w3.org/2000/svg">
<g clip-path="url(#clip0_330_2477)">
<path fill-rule="evenodd" clip-rule="evenodd" d="M31.9619 9.08344C31.2921 -1.32656 23.8537 -0.406601 20.9643 0.543399C20.7855 0.602204 20.6015 0.664158 20.4131 0.72759L20.413 0.727604C19.074 1.17845 17.5134 1.70392 16.0053 1.70392C14.4913 1.70392 12.9393 1.18049 11.5872 0.724488C11.4031 0.662376 11.2226 0.601515 11.0465 0.543399C8.1671 -0.406601 0.728731 -1.32656 0.0488802 9.08344C-0.0670708 11.0874 0.0234051 13.098 0.318841 15.0834C0.528795 16.3834 3.18817 17.5134 7.1473 18.2034L8.03712 21.6834H7.71724C7.45209 21.702 7.20512 21.8252 7.03075 22.0258C6.85638 22.2265 6.76883 22.4881 6.78739 22.7534C6.80595 23.0186 6.92911 23.2656 7.12973 23.44C7.33035 23.6144 7.59195 23.702 7.85711 23.6834H7.99709L25.0534 21.2834C25.3186 21.2463 25.5582 21.1053 25.7194 20.8915C25.8806 20.6778 25.9503 20.4086 25.9132 20.1434C25.8761 19.8782 25.7352 19.6386 25.5214 19.4774C25.3077 19.3161 25.0386 19.2463 24.7734 19.2834H24.7035L25.0034 18.1135C28.9325 17.4135 31.542 16.2734 31.682 14.9634C31.967 13.0173 32.0608 11.0479 31.9619 9.08344ZM10.3266 30.5038C10.4371 30.932 10.6864 31.3116 11.0356 31.583C11.3847 31.8544 11.8139 32.0023 12.2561 32.0038H19.9145C20.3584 32.0046 20.7898 31.8576 21.141 31.5861C21.4922 31.3145 21.743 30.9337 21.854 30.5038L22.5839 27.6738L10.0566 29.4739L10.3266 30.5038ZM23.4723 24.2314L23.8534 22.7539L8.85664 24.834L9.25658 26.3839H8.91669C8.78664 26.4034 8.66173 26.4485 8.5491 26.5164C8.43646 26.5843 8.33835 26.6738 8.26034 26.7797C8.18233 26.8856 8.12596 27.0058 8.09448 27.1335C8.06301 27.2613 8.05704 27.3939 8.07691 27.5239C8.11306 27.7624 8.23405 27.9798 8.41778 28.136C8.6015 28.2922 8.83558 28.3766 9.07669 28.3739H9.22656L23.7534 26.234C24.0186 26.1942 24.2571 26.0506 24.4165 25.835C24.5758 25.6193 24.643 25.3492 24.6032 25.084C24.5634 24.8188 24.42 24.5802 24.2044 24.4208C23.9938 24.2651 23.7314 24.1974 23.4723 24.2314Z" fill="#637EDD"/>
</g>
<defs>
<clipPath id="clip0_330_2477">
<rect width="32" height="32" fill="white"/>
</clipPath>
</defs>
</svg>
