<svg width="32" height="32" viewBox="0 0 32 32" fill="none" xmlns="http://www.w3.org/2000/svg">
<g clip-path="url(#clip0_320_10735)">
<path fill-rule="evenodd" clip-rule="evenodd" d="M21.6734 1.50195C21.5629 1.07371 21.3136 0.694135 20.9644 0.422726C20.6153 0.151317 20.1861 0.00338546 19.7439 0.00194924L12.0855 0.00194858C11.6416 0.00116988 11.2102 0.148092 10.859 0.419673C10.5078 0.691254 10.257 1.07205 10.146 1.50195L9.41608 4.3319L21.9434 2.53186L21.6734 1.50195ZM0.0380717 22.9223C0.707924 33.3323 8.14629 32.4123 11.0357 31.4623C11.2144 31.4036 11.3983 31.3417 11.5865 31.2783L11.5869 31.2781L11.587 31.2781C12.926 30.8273 14.4866 30.3018 15.9947 30.3018C17.5087 30.3018 19.0607 30.8252 20.4128 31.2812C20.5969 31.3434 20.7774 31.4042 20.9535 31.4623C23.8329 32.4123 31.2713 33.3323 31.9511 22.9223C32.0671 20.9183 31.9766 18.9077 31.6812 16.9223C31.4712 15.6223 28.8118 14.4923 24.8527 13.8023L23.9629 10.3223H24.2828C24.5479 10.3038 24.7949 10.1806 24.9693 9.97991C25.1436 9.77925 25.2312 9.51759 25.2126 9.25237C25.194 8.98716 25.0709 8.74014 24.8703 8.56573C24.6697 8.39132 24.4081 8.30375 24.1429 8.32232H24.0029L6.94659 10.7223C6.68143 10.7595 6.44185 10.9004 6.2806 11.1142C6.11936 11.328 6.04967 11.5971 6.0868 11.8624C6.12392 12.1276 6.26481 12.3671 6.47856 12.5284C6.6923 12.6897 6.9614 12.7595 7.22656 12.7223H7.29649L6.99663 13.8923C3.06749 14.5923 0.45801 15.7323 0.31804 17.0423C0.033002 18.9884 -0.060788 20.9579 0.0380717 22.9223ZM8.52774 7.77435L8.14664 9.25183L23.1434 7.17175L22.7434 5.62182H23.0833C23.2134 5.60229 23.3383 5.55728 23.4509 5.48938C23.5635 5.42147 23.6616 5.33197 23.7397 5.22607C23.8177 5.12017 23.874 4.99991 23.9055 4.87219C23.937 4.74447 23.943 4.61184 23.9231 4.48181C23.8869 4.24335 23.7659 4.02595 23.5822 3.86975C23.3985 3.71355 23.1644 3.62911 22.9233 3.63183H22.7734L8.2466 5.77172C7.98144 5.81151 7.7429 5.9551 7.58353 6.17077C7.42416 6.38644 7.35703 6.65653 7.39681 6.92175C7.43658 7.18696 7.58002 7.42555 7.79564 7.58496C8.00619 7.74061 8.26862 7.8083 8.52774 7.77435Z" fill="#DBE5FF"/>
</g>
<defs>
<clipPath id="clip0_320_10735">
<rect width="32" height="32" fill="white"/>
</clipPath>
</defs>
</svg>
