<svg width="16" height="16" viewBox="0 0 16 16" fill="none" xmlns="http://www.w3.org/2000/svg">
<path d="M8.12938 10.7388L4.42016 9.44049C4.36273 9.41927 4.30164 9.40972 4.24047 9.41241C4.17931 9.41509 4.1193 9.42995 4.06395 9.45612C4.0086 9.48229 3.95902 9.51924 3.91813 9.56481C3.87724 9.61038 3.84585 9.66364 3.8258 9.72149C3.78972 9.82311 3.78986 9.93407 3.82621 10.0356C3.86255 10.1371 3.93285 10.223 4.02522 10.2786C4.06242 10.3028 4.10223 10.3228 4.14389 10.3382L4.29967 10.3904L3.97968 10.8352L7.09541 11.9395L7.41541 11.4947L7.82342 11.6364C7.88138 11.657 7.94283 11.666 8.00426 11.6628C8.06568 11.6596 8.12588 11.6444 8.18142 11.6179C8.23696 11.5915 8.28675 11.5544 8.32794 11.5087C8.36913 11.463 8.40092 11.4097 8.4215 11.3517C8.44207 11.2938 8.45102 11.2323 8.44785 11.1709C8.44468 11.1095 8.42944 11.0493 8.403 10.9937C8.37656 10.9382 8.33944 10.8884 8.29377 10.8472C8.24809 10.806 8.19474 10.7742 8.13678 10.7536L8.12938 10.7388Z" fill="#9FA0A5"/>
<path d="M9.66242 8.61116L5.9532 7.31285C5.84598 7.27085 5.72704 7.26987 5.61915 7.31012C5.51127 7.35037 5.42202 7.429 5.36851 7.53096C5.315 7.63292 5.301 7.75104 5.32917 7.86269C5.35733 7.97434 5.4257 8.07167 5.52117 8.13604C5.55837 8.16028 5.59818 8.18027 5.63984 8.19564L5.7882 8.24787L5.46821 8.69268L8.59136 9.79693L8.91136 9.35212L9.31938 9.49389C9.37681 9.51511 9.43789 9.52466 9.49906 9.52197C9.56023 9.51928 9.62024 9.50442 9.67559 9.47825C9.73094 9.45208 9.78051 9.41513 9.8214 9.36957C9.86229 9.324 9.89368 9.27073 9.91372 9.21288C9.95842 9.09961 9.95719 8.97336 9.91026 8.86099C9.86333 8.74862 9.77441 8.65899 9.66242 8.61116Z" fill="#9FA0A5"/>
<path d="M13.4527 6.08659L14.1969 5.04869C14.2229 5.01319 14.2416 4.97291 14.252 4.93015C14.2624 4.8874 14.2642 4.84301 14.2574 4.79954C14.2506 4.75608 14.2352 4.71439 14.2123 4.67686C14.1893 4.63934 14.1591 4.60673 14.1235 4.5809L9.23801 1.06096C9.16594 1.01154 9.07739 0.992328 8.99132 1.00744C8.90526 1.02255 8.82855 1.07078 8.77763 1.14179L8.03345 2.17968C8.00019 2.22655 7.9793 2.28104 7.97271 2.33812C7.96612 2.39521 7.97404 2.45303 7.99574 2.50623L8.73496 4.22231L7.93869 5.32692L7.53069 5.18515C7.42347 5.14314 7.30453 5.14217 7.19664 5.18242C7.08875 5.22266 6.99951 5.3013 6.946 5.40326C6.89249 5.50522 6.87847 5.62333 6.90664 5.73498C6.93481 5.84663 7.00319 5.94396 7.09866 6.00834L7.21732 6.06793L7.37311 6.12018L7.00114 6.57232L10.1169 7.67655L10.4369 7.23174L10.8449 7.37351C10.9028 7.39485 10.9644 7.4045 11.0261 7.4019C11.0878 7.3993 11.1484 7.38452 11.2043 7.3584C11.2603 7.33227 11.3105 7.29533 11.3521 7.24969C11.3937 7.20406 11.4258 7.15064 11.4467 7.09252C11.4873 6.97444 11.4799 6.84508 11.4259 6.73246C11.3719 6.61983 11.2758 6.53299 11.1582 6.49073L11.0099 6.4385L11.2629 6.08264L13.1184 6.23445C13.1823 6.24229 13.2471 6.23269 13.306 6.20666C13.3648 6.18062 13.4155 6.13913 13.4527 6.08659Z" fill="#9FA0A5"/>
<path d="M6.60395 12.8663L2.89472 11.568C2.83677 11.5466 2.77519 11.537 2.7135 11.5396C2.6518 11.5422 2.59124 11.557 2.53529 11.5831C2.47934 11.6092 2.42913 11.6462 2.38753 11.6918C2.34594 11.7374 2.31378 11.7908 2.29294 11.849C2.26138 11.9458 2.26078 12.05 2.2912 12.1472C2.32163 12.2443 2.38156 12.3296 2.46269 12.3912C2.49989 12.4154 2.5397 12.4354 2.58136 12.4508L2.73716 12.503L2.80749 14.6633C2.80863 14.7147 2.82164 14.7652 2.8455 14.8108C2.86936 14.8563 2.90343 14.8958 2.94504 14.9261C2.98666 14.9563 3.03471 14.9765 3.08544 14.9852C3.13616 14.9938 3.18819 14.9906 3.23747 14.9758L5.31708 14.3486L5.85288 13.6072L6.2609 13.749C6.3188 13.7701 6.38034 13.7793 6.44187 13.7761C6.5034 13.7729 6.56366 13.7574 6.6191 13.7305C6.67453 13.7036 6.72399 13.6659 6.76456 13.6195C6.80513 13.5731 6.83598 13.5191 6.85527 13.4606C6.89773 13.3482 6.89531 13.2238 6.84852 13.1131C6.80173 13.0025 6.71415 12.9141 6.60395 12.8663Z" fill="#9FA0A5"/>
</svg>
