<svg width="36" height="32" viewBox="0 0 36 32" fill="none" xmlns="http://www.w3.org/2000/svg">
<g clip-path="url(#clip0_330_2517)">
<path opacity="0.3" d="M18 30.4C19.5 30.4 20.7729 30.6932 22 31C22.4174 31.1044 22.8131 31.2087 23.1915 31.3085C24.6261 31.6869 25.8131 32 27 32C28.5 32 36 32 36 20C36 9.5 28.5 -6.55671e-07 25 -9.61651e-07C22.2777 -1.19964e-06 21.4822 2.51977 20.7575 4.81545C20.1512 6.73616 19.5944 8.5 18 8.5C16.4056 8.5 15.8488 6.73616 15.2425 4.81545C14.5178 2.51977 13.7223 -1.94758e-06 11 -2.18557e-06C7.5 -2.49155e-06 1.96701e-06 9.5 1.04907e-06 20C0 32 7.5 32 9 32C10.1869 32 11.3739 31.6869 12.8085 31.3085C13.1869 31.2087 13.5826 31.1044 14 31C15.2271 30.6932 16.5 30.4 18 30.4Z" fill="#637EDD"/>
</g>
<defs>
<clipPath id="clip0_330_2517">
<rect width="36" height="32" fill="white"/>
</clipPath>
</defs>
</svg>
