<svg width="16" height="16" viewBox="0 0 16 16" fill="none" xmlns="http://www.w3.org/2000/svg">
<path fill-rule="evenodd" clip-rule="evenodd" d="M2.50002 1.1499C2.96855 1.1499 3.34853 1.52897 3.35002 1.99714L3.35007 2.00076L3.35074 2.02786C3.35159 2.05432 3.3534 2.09707 3.35728 2.154C3.36504 2.26808 3.38098 2.43782 3.41357 2.64663C3.47917 3.06693 3.60991 3.63039 3.86714 4.21223C4.37139 5.35282 5.35243 6.56358 7.37524 6.94702C7.68882 7.00597 8.00409 7.06116 8.31473 7.11555C8.9181 7.22117 9.50403 7.32375 10.0263 7.44487C10.8376 7.63303 11.624 7.89085 12.309 8.35905C13.7491 9.3434 14.4603 11.0493 14.6487 13.9447C14.6792 14.4131 14.3242 14.8176 13.8558 14.8481C13.3873 14.8786 12.9828 14.5236 12.9523 14.0551C12.7755 11.3391 12.1382 10.3015 11.3497 9.76252C10.9204 9.46906 10.3724 9.27027 9.64222 9.10092C9.16226 8.98961 8.65733 8.90142 8.0887 8.80211C7.7685 8.74619 7.4281 8.68674 7.06059 8.61765L7.05942 8.61743C4.36503 8.10696 2.98741 6.42666 2.31231 4.89962C1.97984 4.14759 1.81573 3.43303 1.73391 2.90879C1.69278 2.64533 1.67187 2.42616 1.6612 2.26941C1.65586 2.19092 1.65307 2.12777 1.65161 2.08218C1.65088 2.05938 1.65048 2.04094 1.65027 2.02714L1.65007 2.00995L1.65003 2.00402L1.65003 2.00173L1.65002 2.00076C1.65002 2.00032 1.65002 1.9999 2.50002 1.9999H1.65002C1.65002 1.53046 2.03058 1.1499 2.50002 1.1499Z" fill="#9FA0A5"/>
</svg>
