<svg width="32" height="32" viewBox="0 0 32 32" fill="none" xmlns="http://www.w3.org/2000/svg">
<path d="M16 30.3C17.3333 30.3 18.7862 30.7337 19.5556 31C21 31.5 22.6667 32 24 32C26.5 32 32 32 32 20C32 10.5 26 -5.24537e-07 22.2222 -8.548e-07C20.0122 -1.04801e-06 19.3699 2.30145 18.7577 4.49503C18.2004 6.49222 17.668 8.4 16 8.4C14.332 8.4 13.7996 6.49222 13.2423 4.49503C12.6301 2.30144 11.9878 -1.74952e-06 9.77778 -1.94273e-06C6 -2.27299e-06 1.87959e-06 10.5 1.04907e-06 20C0 32 5.5 32 8 32C9.33333 32 11 31.5 12.4444 31C13.2138 30.7337 14.6667 30.3 16 30.3Z" fill="#EDEEF2"/>
</svg>
