<svg width="16" height="16" viewBox="0 0 16 16" fill="none" xmlns="http://www.w3.org/2000/svg">
<path d="M8.1295 10.7388L4.42028 9.44049C4.36285 9.41927 4.30176 9.40972 4.2406 9.41241C4.17943 9.41509 4.11942 9.42995 4.06407 9.45612C4.00872 9.48229 3.95915 9.51924 3.91825 9.56481C3.87736 9.61038 3.84597 9.66364 3.82592 9.72149C3.78984 9.82311 3.78999 9.93407 3.82633 10.0356C3.86267 10.1371 3.93297 10.223 4.02534 10.2786C4.06255 10.3028 4.10235 10.3228 4.14401 10.3382L4.29979 10.3904L3.9798 10.8352L7.09553 11.9395L7.41553 11.4947L7.82354 11.6364C7.8815 11.657 7.94295 11.666 8.00438 11.6628C8.06581 11.6596 8.12601 11.6444 8.18154 11.6179C8.23708 11.5915 8.28687 11.5544 8.32806 11.5087C8.36925 11.463 8.40104 11.4097 8.42162 11.3517C8.44219 11.2938 8.45115 11.2323 8.44797 11.1709C8.4448 11.1095 8.42956 11.0493 8.40312 10.9937C8.37668 10.9382 8.33957 10.8884 8.29389 10.8472C8.24821 10.806 8.19486 10.7742 8.1369 10.7536L8.1295 10.7388Z" fill="white"/>
<path d="M9.66303 8.61116L5.95381 7.31285C5.84659 7.27085 5.72765 7.26987 5.61976 7.31012C5.51188 7.35037 5.42263 7.429 5.36912 7.53096C5.31561 7.63292 5.30161 7.75104 5.32978 7.86269C5.35794 7.97434 5.42631 8.07167 5.52178 8.13604C5.55898 8.16028 5.59879 8.18027 5.64045 8.19564L5.78881 8.24787L5.46882 8.69268L8.59197 9.79693L8.91197 9.35212L9.31999 9.49389C9.37742 9.51511 9.4385 9.52466 9.49967 9.52197C9.56084 9.51928 9.62085 9.50442 9.6762 9.47825C9.73155 9.45208 9.78112 9.41513 9.82201 9.36957C9.8629 9.324 9.89429 9.27073 9.91433 9.21288C9.95903 9.09961 9.9578 8.97336 9.91087 8.86099C9.86394 8.74862 9.77502 8.65899 9.66303 8.61116Z" fill="white"/>
<path d="M13.4533 6.08659L14.1975 5.04869C14.2235 5.01319 14.2422 4.97291 14.2526 4.93015C14.263 4.8874 14.2648 4.84301 14.258 4.79954C14.2512 4.75608 14.2359 4.71439 14.2129 4.67686C14.1899 4.63934 14.1597 4.60673 14.1241 4.5809L9.23862 1.06096C9.16655 1.01154 9.078 0.992328 8.99194 1.00744C8.90587 1.02255 8.82916 1.07078 8.77824 1.14179L8.03406 2.17968C8.0008 2.22655 7.97991 2.28104 7.97332 2.33812C7.96673 2.39521 7.97465 2.45303 7.99635 2.50623L8.73557 4.22231L7.9393 5.32692L7.5313 5.18515C7.42408 5.14314 7.30514 5.14217 7.19725 5.18242C7.08937 5.22266 7.00012 5.3013 6.94661 5.40326C6.8931 5.50522 6.87908 5.62333 6.90725 5.73498C6.93542 5.84663 7.0038 5.94396 7.09927 6.00834L7.21793 6.06793L7.37372 6.12018L7.00175 6.57232L10.1175 7.67655L10.4375 7.23174L10.8455 7.37351C10.9034 7.39485 10.965 7.4045 11.0267 7.4019C11.0884 7.3993 11.149 7.38452 11.2049 7.3584C11.2609 7.33227 11.3111 7.29533 11.3527 7.24969C11.3943 7.20406 11.4264 7.15064 11.4473 7.09252C11.488 6.97444 11.4805 6.84508 11.4265 6.73246C11.3725 6.61983 11.2764 6.53299 11.1589 6.49073L11.0105 6.4385L11.2635 6.08264L13.119 6.23445C13.1829 6.24229 13.2477 6.23269 13.3066 6.20666C13.3654 6.18062 13.4162 6.13913 13.4533 6.08659Z" fill="white"/>
<path d="M6.60382 12.866L2.8946 11.5677C2.83665 11.5464 2.77506 11.5367 2.71337 11.5393C2.65168 11.5419 2.59112 11.5567 2.53517 11.5828C2.47922 11.609 2.429 11.6459 2.38741 11.6915C2.34581 11.7372 2.31366 11.7906 2.29282 11.8487C2.26126 11.9455 2.26066 12.0498 2.29108 12.1469C2.3215 12.2441 2.38144 12.3294 2.46257 12.3909C2.49977 12.4151 2.53958 12.4351 2.58124 12.4505L2.73703 12.5027L2.80737 14.663C2.80851 14.7144 2.82151 14.7649 2.84537 14.8105C2.86923 14.8561 2.9033 14.8956 2.94492 14.9258C2.98654 14.9561 3.03459 14.9763 3.08531 14.9849C3.13604 14.9935 3.18807 14.9903 3.23735 14.9756L5.31696 14.3483L5.85276 13.607L6.26078 13.7488C6.31868 13.7698 6.38022 13.779 6.44175 13.7759C6.50328 13.7727 6.56354 13.7572 6.61897 13.7303C6.6744 13.7034 6.72387 13.6656 6.76444 13.6193C6.80501 13.5729 6.83586 13.5188 6.85515 13.4603C6.89761 13.3479 6.89519 13.2235 6.8484 13.1129C6.80161 13.0022 6.71403 12.9138 6.60382 12.866Z" fill="white"/>
</svg>
