<svg width="28" height="32" viewBox="0 0 28 32" fill="none" xmlns="http://www.w3.org/2000/svg">
<g clip-path="url(#clip0_320_10784)">
<path fill-rule="evenodd" clip-rule="evenodd" d="M18.6516 1.57061C18.552 1.1176 18.298 0.713219 17.933 0.426815C17.5681 0.140411 17.1149 -0.0102743 16.6511 0.000545052L11.25 0.00054458C10.7862 -0.0102748 10.333 0.14041 9.96812 0.426814C9.60319 0.713218 9.3492 1.1176 9.24958 1.57061L8.75948 3.84063L18.7617 2.41058L18.6516 1.57061ZM10.1556 31.4517L10.1557 31.4517C11.0898 31.1645 12.7281 30.6609 14.0001 30.6609C15.2696 30.6609 16.8652 31.151 17.8253 31.446C17.9524 31.485 18.0683 31.5206 18.1709 31.5512C20.7515 32.3212 28.5133 33.3212 27.9732 22.9112C27.8571 20.6284 27.5628 18.3581 27.093 16.1212C26.7529 15.1212 24.5223 14.1212 21.2816 13.6212L20.5314 10.1913L21.0716 10.1112C21.3369 10.0926 21.5839 9.96956 21.7584 9.7689C21.9328 9.56824 22.0204 9.30645 22.0019 9.04124C21.9833 8.77602 21.8601 8.529 21.6594 8.35459C21.4587 8.18018 21.1968 8.09262 20.9315 8.11118H20.7915L6.46835 10.1112C6.20574 10.1484 5.9687 10.2883 5.80926 10.5002C5.64983 10.7121 5.58108 10.9786 5.61818 11.2412C5.65536 11.5037 5.79523 11.7408 6.00718 11.9002C6.21914 12.0596 6.48582 12.1284 6.74844 12.0913H7.04843L6.7184 13.6312C3.46767 14.1812 1.24712 15.0912 0.907041 16.1312C0.432238 18.3673 0.137887 20.638 0.0268388 22.9212C-0.513283 33.3212 7.2485 32.3212 9.82908 31.5512C9.92443 31.5228 10.0341 31.4891 10.1556 31.4517ZM8.11896 7.24029H7.82886V7.28033C7.56358 7.31879 7.29383 7.25036 7.07906 7.09002C6.86428 6.92968 6.72205 6.69057 6.68358 6.42535C6.64512 6.16013 6.71368 5.89044 6.87406 5.67571C7.03443 5.46099 7.27348 5.31879 7.53875 5.28033L19.6416 3.5003H19.7915C20.0568 3.48174 20.3186 3.5693 20.5193 3.74371C20.72 3.91812 20.8432 4.16514 20.8618 4.43035C20.8804 4.69557 20.7928 4.95723 20.6183 5.15789C20.4439 5.35856 20.1968 5.48174 19.9315 5.5003L19.5115 5.56036L19.8516 7.1004L7.7788 8.77032L8.11896 7.24029Z" fill="#DBE5FF"/>
</g>
<defs>
<clipPath id="clip0_320_10784">
<rect width="28" height="32" fill="white"/>
</clipPath>
</defs>
</svg>
