<svg width="16" height="16" viewBox="0 0 16 16" fill="none" xmlns="http://www.w3.org/2000/svg">
<mask id="path-1-inside-1_298_7045" fill="white">
<path fill-rule="evenodd" clip-rule="evenodd" d="M3.99995 1.86686C3.99995 1.49867 4.29843 1.2002 4.66662 1.2002C5.03481 1.2002 5.33328 1.49867 5.33328 1.86686V3.2002H10.6667V1.86686C10.6667 1.49867 10.9651 1.2002 11.3333 1.2002C11.7015 1.2002 12 1.49867 12 1.86686V3.2002H12.6666C13.7712 3.2002 14.6666 4.09563 14.6666 5.2002V6.53353H1.33325V5.20019C1.33325 4.09563 2.22868 3.2002 3.33325 3.2002H3.99995V1.86686ZM14.6666 7.86686H1.33325V12.5335C1.33325 13.6381 2.22868 14.5335 3.33325 14.5335H12.6666C13.7712 14.5335 14.6666 13.6381 14.6666 12.5335V7.86686Z"/>
</mask>
<path fill-rule="evenodd" clip-rule="evenodd" d="M3.99995 1.86686C3.99995 1.49867 4.29843 1.2002 4.66662 1.2002C5.03481 1.2002 5.33328 1.49867 5.33328 1.86686V3.2002H10.6667V1.86686C10.6667 1.49867 10.9651 1.2002 11.3333 1.2002C11.7015 1.2002 12 1.49867 12 1.86686V3.2002H12.6666C13.7712 3.2002 14.6666 4.09563 14.6666 5.2002V6.53353H1.33325V5.20019C1.33325 4.09563 2.22868 3.2002 3.33325 3.2002H3.99995V1.86686ZM14.6666 7.86686H1.33325V12.5335C1.33325 13.6381 2.22868 14.5335 3.33325 14.5335H12.6666C13.7712 14.5335 14.6666 13.6381 14.6666 12.5335V7.86686Z" fill="#454548"/>
<path d="M5.33328 3.2002H4.33328V4.2002H5.33328V3.2002ZM10.6667 3.2002V4.2002H11.6667V3.2002H10.6667ZM12 3.2002H11V4.2002H12V3.2002ZM14.6666 6.53353V7.53353H15.6666V6.53353H14.6666ZM1.33325 6.53353H0.333252V7.53353H1.33325V6.53353ZM3.99995 3.2002V4.2002H4.99995V3.2002H3.99995ZM1.33325 7.86686V6.86686H0.333252V7.86686H1.33325ZM14.6666 7.86686H15.6666V6.86686H14.6666V7.86686ZM4.66662 0.200195C3.74614 0.200195 2.99995 0.946386 2.99995 1.86686H4.99995C4.99995 2.05096 4.85071 2.2002 4.66662 2.2002V0.200195ZM6.33328 1.86686C6.33328 0.946388 5.58709 0.200195 4.66662 0.200195V2.2002C4.48252 2.2002 4.33328 2.05096 4.33328 1.86686H6.33328ZM6.33328 3.2002V1.86686H4.33328V3.2002H6.33328ZM10.6667 2.2002H5.33328V4.2002H10.6667V2.2002ZM11.6667 3.2002V1.86686H9.66665V3.2002H11.6667ZM11.6667 1.86686C11.6667 2.05096 11.5174 2.2002 11.3333 2.2002V0.200195C10.4128 0.200195 9.66665 0.946385 9.66665 1.86686H11.6667ZM11.3333 2.2002C11.1492 2.2002 11 2.05096 11 1.86686H13C13 0.946388 12.2538 0.200195 11.3333 0.200195V2.2002ZM11 1.86686V3.2002H13V1.86686H11ZM12.6666 2.2002H12V4.2002H12.6666V2.2002ZM15.6666 5.2002C15.6666 3.54334 14.3234 2.2002 12.6666 2.2002V4.2002C13.2189 4.2002 13.6666 4.64791 13.6666 5.2002H15.6666ZM15.6666 6.53353V5.2002H13.6666V6.53353H15.6666ZM1.33325 7.53353H14.6666V5.53353H1.33325V7.53353ZM0.333252 5.20019V6.53353H2.33325V5.20019H0.333252ZM3.33325 2.2002C1.6764 2.2002 0.333252 3.54334 0.333252 5.20019H2.33325C2.33325 4.64791 2.78097 4.2002 3.33325 4.2002V2.2002ZM3.99995 2.2002H3.33325V4.2002H3.99995V2.2002ZM2.99995 1.86686V3.2002H4.99995V1.86686H2.99995ZM1.33325 8.86686H14.6666V6.86686H1.33325V8.86686ZM2.33325 12.5335V7.86686H0.333252V12.5335H2.33325ZM3.33325 13.5335C2.78097 13.5335 2.33325 13.0858 2.33325 12.5335H0.333252C0.333252 14.1904 1.6764 15.5335 3.33325 15.5335V13.5335ZM12.6666 13.5335H3.33325V15.5335H12.6666V13.5335ZM13.6666 12.5335C13.6666 13.0858 13.2189 13.5335 12.6666 13.5335V15.5335C14.3234 15.5335 15.6666 14.1904 15.6666 12.5335H13.6666ZM13.6666 7.86686V12.5335H15.6666V7.86686H13.6666Z" fill="#454548" mask="url(#path-1-inside-1_298_7045)"/>
</svg>
