<svg width="16" height="16" viewBox="0 0 16 16" fill="none" xmlns="http://www.w3.org/2000/svg">
<mask id="path-1-inside-1_1_2925" fill="white">
<path fill-rule="evenodd" clip-rule="evenodd" d="M4 1.86668C4 1.49849 4.29848 1.20002 4.66667 1.20002C5.03486 1.20002 5.33333 1.49849 5.33333 1.86668V3.20002H10.6667V1.86668C10.6667 1.49849 10.9652 1.20002 11.3334 1.20002C11.7016 1.20002 12 1.49849 12 1.86668V3.20002H12.6666C13.7712 3.20002 14.6666 4.09545 14.6666 5.20002V6.53335H1.3333V5.20001C1.3333 4.09545 2.22873 3.20002 3.3333 3.20002H4V1.86668ZM14.6666 7.86668H1.3333V12.5333C1.3333 13.6379 2.22873 14.5333 3.3333 14.5333H12.6666C13.7712 14.5333 14.6666 13.6379 14.6666 12.5334V7.86668Z"/>
</mask>
<path fill-rule="evenodd" clip-rule="evenodd" d="M4 1.86668C4 1.49849 4.29848 1.20002 4.66667 1.20002C5.03486 1.20002 5.33333 1.49849 5.33333 1.86668V3.20002H10.6667V1.86668C10.6667 1.49849 10.9652 1.20002 11.3334 1.20002C11.7016 1.20002 12 1.49849 12 1.86668V3.20002H12.6666C13.7712 3.20002 14.6666 4.09545 14.6666 5.20002V6.53335H1.3333V5.20001C1.3333 4.09545 2.22873 3.20002 3.3333 3.20002H4V1.86668ZM14.6666 7.86668H1.3333V12.5333C1.3333 13.6379 2.22873 14.5333 3.3333 14.5333H12.6666C13.7712 14.5333 14.6666 13.6379 14.6666 12.5334V7.86668Z" fill="#ADB2C2"/>
<path d="M5.33333 3.20002H4.33333V4.20002H5.33333V3.20002ZM10.6667 3.20002V4.20002H11.6667V3.20002H10.6667ZM12 3.20002H11V4.20002H12V3.20002ZM14.6666 6.53335V7.53335H15.6666V6.53335H14.6666ZM1.3333 6.53335H0.333301V7.53335H1.3333V6.53335ZM4 3.20002V4.20002H5V3.20002H4ZM1.3333 7.86668V6.86668H0.333301V7.86668H1.3333ZM14.6666 7.86668H15.6666V6.86668H14.6666V7.86668ZM4.66667 0.200015C3.74619 0.200015 3 0.946206 3 1.86668H5C5 2.05078 4.85076 2.20002 4.66667 2.20002V0.200015ZM6.33333 1.86668C6.33333 0.946207 5.58714 0.200015 4.66667 0.200015V2.20002C4.48257 2.20002 4.33333 2.05078 4.33333 1.86668H6.33333ZM6.33333 3.20002V1.86668H4.33333V3.20002H6.33333ZM10.6667 2.20002H5.33333V4.20002H10.6667V2.20002ZM11.6667 3.20002V1.86668H9.6667V3.20002H11.6667ZM11.6667 1.86668C11.6667 2.05078 11.5175 2.20002 11.3334 2.20002V0.200015C10.4129 0.200015 9.6667 0.946205 9.6667 1.86668H11.6667ZM11.3334 2.20002C11.1493 2.20002 11 2.05078 11 1.86668H13C13 0.946208 12.2538 0.200015 11.3334 0.200015V2.20002ZM11 1.86668V3.20002H13V1.86668H11ZM12.6666 2.20002H12V4.20002H12.6666V2.20002ZM15.6666 5.20002C15.6666 3.54316 14.3235 2.20002 12.6666 2.20002V4.20002C13.2189 4.20002 13.6666 4.64773 13.6666 5.20002H15.6666ZM15.6666 6.53335V5.20002H13.6666V6.53335H15.6666ZM1.3333 7.53335H14.6666V5.53335H1.3333V7.53335ZM0.333301 5.20001V6.53335H2.3333V5.20001H0.333301ZM3.3333 2.20002C1.67645 2.20002 0.333301 3.54316 0.333301 5.20001H2.3333C2.3333 4.64773 2.78102 4.20002 3.3333 4.20002V2.20002ZM4 2.20002H3.3333V4.20002H4V2.20002ZM3 1.86668V3.20002H5V1.86668H3ZM1.3333 8.86668H14.6666V6.86668H1.3333V8.86668ZM2.3333 12.5333V7.86668H0.333301V12.5333H2.3333ZM3.3333 13.5333C2.78102 13.5333 2.3333 13.0856 2.3333 12.5333H0.333301C0.333301 14.1902 1.67644 15.5333 3.3333 15.5333V13.5333ZM12.6666 13.5333H3.3333V15.5333H12.6666V13.5333ZM13.6666 12.5334C13.6666 13.0856 13.2189 13.5333 12.6666 13.5333V15.5333C14.3235 15.5333 15.6666 14.1902 15.6666 12.5334H13.6666ZM13.6666 7.86668V12.5334H15.6666V7.86668H13.6666Z" fill="#ADB2C2" mask="url(#path-1-inside-1_1_2925)"/>
</svg>
