<svg width="16" height="16" viewBox="0 0 16 16" fill="none" xmlns="http://www.w3.org/2000/svg">
<path fill-rule="evenodd" clip-rule="evenodd" d="M3.99995 1.99992C3.99995 1.63173 4.29843 1.33325 4.66662 1.33325C5.03481 1.33325 5.33328 1.63173 5.33328 1.99992V3.33325H10.6667V1.99992C10.6667 1.63173 10.9651 1.33325 11.3333 1.33325C11.7015 1.33325 12 1.63173 12 1.99992V3.33325H12.6666C13.7712 3.33325 14.6666 4.22868 14.6666 5.33325V6.66659H1.33325V5.33325C1.33325 4.22868 2.22868 3.33325 3.33325 3.33325H3.99995V1.99992ZM14.6666 7.99992H1.33325V12.6666C1.33325 13.7712 2.22868 14.6666 3.33325 14.6666H12.6666C13.7712 14.6666 14.6666 13.7712 14.6666 12.6666V7.99992Z" fill="#9FA0A5"/>
</svg>
