<svg width="16" height="16" viewBox="0 0 16 16" fill="none" xmlns="http://www.w3.org/2000/svg">
<mask id="path-1-inside-1_5_888" fill="white">
<path fill-rule="evenodd" clip-rule="evenodd" d="M4 1.99992C4 1.63173 4.29848 1.33326 4.66667 1.33326C5.03486 1.33326 5.33333 1.63173 5.33333 1.99992V3.33326H10.6667V1.99992C10.6667 1.63173 10.9652 1.33326 11.3334 1.33326C11.7016 1.33326 12 1.63173 12 1.99992V3.33326H12.6666C13.7712 3.33326 14.6666 4.22869 14.6666 5.33326V6.66659H1.3333V5.33325C1.3333 4.22868 2.22873 3.33326 3.3333 3.33326H4V1.99992ZM14.6666 7.99992H1.3333V12.6666C1.3333 13.7712 2.22873 14.6666 3.3333 14.6666H12.6666C13.7712 14.6666 14.6666 13.7712 14.6666 12.6666V7.99992Z"/>
</mask>
<path fill-rule="evenodd" clip-rule="evenodd" d="M4 1.99992C4 1.63173 4.29848 1.33326 4.66667 1.33326C5.03486 1.33326 5.33333 1.63173 5.33333 1.99992V3.33326H10.6667V1.99992C10.6667 1.63173 10.9652 1.33326 11.3334 1.33326C11.7016 1.33326 12 1.63173 12 1.99992V3.33326H12.6666C13.7712 3.33326 14.6666 4.22869 14.6666 5.33326V6.66659H1.3333V5.33325C1.3333 4.22868 2.22873 3.33326 3.3333 3.33326H4V1.99992ZM14.6666 7.99992H1.3333V12.6666C1.3333 13.7712 2.22873 14.6666 3.3333 14.6666H12.6666C13.7712 14.6666 14.6666 13.7712 14.6666 12.6666V7.99992Z" fill="#6A6F81"/>
<path d="M5.33333 3.33326H4.33333V4.33326H5.33333V3.33326ZM10.6667 3.33326V4.33326H11.6667V3.33326H10.6667ZM12 3.33326H11V4.33326H12V3.33326ZM14.6666 6.66659V7.66659H15.6666V6.66659H14.6666ZM1.3333 6.66659H0.333301V7.66659H1.3333V6.66659ZM4 3.33326V4.33326H5V3.33326H4ZM1.3333 7.99992V6.99992H0.333301V7.99992H1.3333ZM14.6666 7.99992H15.6666V6.99992H14.6666V7.99992ZM4.66667 0.333255C3.74619 0.333255 3 1.07945 3 1.99992H5C5 2.18402 4.85076 2.33326 4.66667 2.33326V0.333255ZM6.33333 1.99992C6.33333 1.07945 5.58714 0.333255 4.66667 0.333255V2.33326C4.48257 2.33326 4.33333 2.18402 4.33333 1.99992H6.33333ZM6.33333 3.33326V1.99992H4.33333V3.33326H6.33333ZM10.6667 2.33326H5.33333V4.33326H10.6667V2.33326ZM11.6667 3.33326V1.99992H9.6667V3.33326H11.6667ZM11.6667 1.99992C11.6667 2.18402 11.5175 2.33326 11.3334 2.33326V0.333255C10.4129 0.333255 9.6667 1.07944 9.6667 1.99992H11.6667ZM11.3334 2.33326C11.1493 2.33326 11 2.18402 11 1.99992H13C13 1.07945 12.2538 0.333255 11.3334 0.333255V2.33326ZM11 1.99992V3.33326H13V1.99992H11ZM12.6666 2.33326H12V4.33326H12.6666V2.33326ZM15.6666 5.33326C15.6666 3.6764 14.3235 2.33326 12.6666 2.33326V4.33326C13.2189 4.33326 13.6666 4.78097 13.6666 5.33326H15.6666ZM15.6666 6.66659V5.33326H13.6666V6.66659H15.6666ZM1.3333 7.66659H14.6666V5.66659H1.3333V7.66659ZM0.333301 5.33325V6.66659H2.3333V5.33325H0.333301ZM3.3333 2.33326C1.67645 2.33326 0.333301 3.6764 0.333301 5.33325H2.3333C2.3333 4.78097 2.78102 4.33326 3.3333 4.33326V2.33326ZM4 2.33326H3.3333V4.33326H4V2.33326ZM3 1.99992V3.33326H5V1.99992H3ZM1.3333 8.99992H14.6666V6.99992H1.3333V8.99992ZM2.3333 12.6666V7.99992H0.333301V12.6666H2.3333ZM3.3333 13.6666C2.78101 13.6666 2.3333 13.2189 2.3333 12.6666H0.333301C0.333301 14.3234 1.67644 15.6666 3.3333 15.6666V13.6666ZM12.6666 13.6666H3.3333V15.6666H12.6666V13.6666ZM13.6666 12.6666C13.6666 13.2189 13.2189 13.6666 12.6666 13.6666V15.6666C14.3235 15.6666 15.6666 14.3234 15.6666 12.6666H13.6666ZM13.6666 7.99992V12.6666H15.6666V7.99992H13.6666Z" fill="#6A6F81" mask="url(#path-1-inside-1_5_888)"/>
</svg>
