<svg width="1074" height="458" fill="none" xmlns="http://www.w3.org/2000/svg"><mask id="mask0_1_2364" style="mask-type:alpha" maskUnits="userSpaceOnUse" x="0" y="0" width="1074" height="458"><path d="M0 0h1074v448c0 5.523-4.48 10-10 10H10c-5.523 0-10-4.477-10-10V0z" fill="#242424"/></mask><g mask="url(#mask0_1_2364)"><path d="M26.506 38.108c1.104 0 1.944-.42 2.544-1.26.528-.732.84-2.016.84-3.468 0-.996-.156-1.956-.456-2.784a3.025 3.025 0 00-.72-1.104c-.54-.564-1.308-.852-2.196-.852-1.188 0-2.112.504-2.688 1.476-.42.696-.696 1.992-.696 3.264 0 .984.156 1.932.456 2.772.144.408.396.78.72 1.104.564.564 1.308.852 2.196.852zm0-8.64c.84 0 1.488.372 1.884 1.092.312.564.54 1.752.54 2.796 0 .888-.12 1.68-.372 2.424-.108.348-.3.66-.564.936-.36.372-.876.564-1.476.564-.816 0-1.44-.348-1.86-1.044-.324-.564-.564-1.74-.564-2.856 0-.876.12-1.692.372-2.424.096-.3.288-.6.54-.876.384-.408.876-.612 1.5-.612zm4.731 6.78c.312.636.504.912.84 1.188.516.432 1.188.648 2.016.648 1.104 0 1.896-.36 2.496-1.116.648-.804.996-2.16.996-3.828 0-1.032-.108-1.848-.348-2.496-.456-1.248-1.56-2.016-2.904-2.016-1.968 0-3.252 1.248-3.252 3.156 0 .852.3 1.644.816 2.16.516.516 1.272.792 2.16.792.9 0 1.572-.264 2.184-.84a2.41 2.41 0 00.48-.672c-.024.612-.06 1.104-.108 1.404-.096.564-.288 1.152-.516 1.536-.444.756-1.068 1.104-1.932 1.104-.66 0-1.176-.192-1.512-.564-.192-.204-.288-.372-.432-.768l-.984.312zm2.928-2.316c-1.308 0-2.136-.852-2.136-2.208 0-.468.12-.948.312-1.26.396-.636 1.116-1.02 1.908-1.02 1.284 0 2.244.972 2.244 2.268 0 1.272-.996 2.22-2.328 2.22zm6.207-2.472h-1.188v1.188h1.188V31.46zm0 6.468V36.74h-1.188v1.188h1.188zm4.79.18c1.105 0 1.945-.42 2.545-1.26.528-.732.84-2.016.84-3.468 0-.996-.156-1.956-.456-2.784a3.025 3.025 0 00-.72-1.104c-.54-.564-1.308-.852-2.196-.852-1.188 0-2.112.504-2.688 1.476-.42.696-.696 1.992-.696 3.264 0 .984.156 1.932.456 2.772.144.408.396.78.72 1.104.564.564 1.308.852 2.196.852zm0-8.64c.84 0 1.489.372 1.885 1.092.312.564.54 1.752.54 2.796 0 .888-.12 1.68-.372 2.424-.108.348-.3.66-.564.936-.36.372-.876.564-1.476.564-.816 0-1.44-.348-1.86-1.044-.324-.564-.564-1.74-.564-2.856 0-.876.12-1.692.372-2.424.096-.3.288-.6.54-.876.384-.408.876-.612 1.5-.612zm7.887 8.64c1.104 0 1.944-.42 2.544-1.26.528-.732.84-2.016.84-3.468 0-.996-.156-1.956-.456-2.784a3.025 3.025 0 00-.72-1.104c-.54-.564-1.308-.852-2.196-.852-1.188 0-2.112.504-2.688 1.476-.42.696-.696 1.992-.696 3.264 0 .984.156 1.932.456 2.772.144.408.396.78.72 1.104.564.564 1.308.852 2.196.852zm0-8.64c.84 0 1.488.372 1.884 1.092.312.564.54 1.752.54 2.796 0 .888-.12 1.68-.372 2.424-.108.348-.3.66-.564.936-.36.372-.876.564-1.476.564-.816 0-1.44-.348-1.86-1.044-.324-.564-.564-1.74-.564-2.856 0-.876.12-1.692.372-2.424.096-.3.288-.6.54-.876.384-.408.876-.612 1.5-.612zm-26.543 57.64c1.104 0 1.944-.42 2.544-1.26.528-.732.84-2.016.84-3.468 0-.996-.156-1.956-.456-2.784a3.025 3.025 0 00-.72-1.104c-.54-.564-1.308-.852-2.196-.852-1.188 0-2.112.504-2.688 1.476-.42.696-.696 1.992-.696 3.264 0 .984.156 1.932.456 2.772.144.408.396.78.72 1.104.564.564 1.308.852 2.196.852zm0-8.64c.84 0 1.488.372 1.884 1.092.312.564.54 1.752.54 2.796 0 .888-.12 1.68-.372 2.424-.108.348-.3.66-.564.936-.36.372-.876.564-1.476.564-.816 0-1.44-.348-1.86-1.044-.324-.564-.564-1.74-.564-2.856 0-.876.12-1.692.372-2.424.096-.3.288-.6.54-.876.384-.408.876-.612 1.5-.612zm4.731 6.78c.312.636.504.912.84 1.188.516.432 1.188.648 2.016.648 1.104 0 1.896-.36 2.496-1.116.648-.804.996-2.16.996-3.828 0-1.032-.108-1.848-.348-2.496-.456-1.248-1.56-2.016-2.904-2.016-1.968 0-3.252 1.248-3.252 3.156 0 .852.3 1.644.816 2.16.516.516 1.272.792 2.16.792.9 0 1.572-.264 2.184-.84a2.41 2.41 0 00.48-.672c-.024.612-.06 1.104-.108 1.404-.096.564-.288 1.152-.516 1.536-.444.756-1.068 1.104-1.932 1.104-.66 0-1.176-.192-1.512-.564-.192-.204-.288-.372-.432-.768l-.984.312zm2.928-2.316c-1.308 0-2.136-.852-2.136-2.208 0-.468.12-.948.312-1.26.396-.636 1.116-1.02 1.908-1.02 1.284 0 2.244.972 2.244 2.268 0 1.272-.996 2.22-2.328 2.22zm6.207-2.472h-1.188v1.188h1.188V80.46zm0 6.468V85.74h-1.188v1.188h1.188zm1.395-1.968c.216.612.36.876.612 1.164.576.648 1.476.984 2.688.984 2.004 0 3.252-1.008 3.252-2.628 0-.768-.276-1.404-.804-1.812-.408-.312-.78-.444-1.476-.516.552-.108.816-.204 1.128-.432.528-.372.84-1.02.84-1.752 0-1.44-1.104-2.352-2.844-2.352-1.044 0-1.86.3-2.388.876-.3.312-.444.588-.648 1.2l.996.216c.132-.444.216-.636.384-.852.336-.432.864-.636 1.596-.636 1.212 0 1.932.6 1.932 1.632 0 .432-.18.876-.48 1.164-.372.372-.96.552-1.752.552-.324 0-.612-.024-.888-.072v.948c.324-.036.624-.06.96-.06 1.596 0 2.448.648 2.448 1.836 0 1.14-.876 1.86-2.268 1.86-.612 0-1.14-.144-1.548-.432-.372-.264-.54-.516-.732-1.14l-1.008.252zm11.282 2.148c1.104 0 1.944-.42 2.544-1.26.528-.732.84-2.016.84-3.468 0-.996-.156-1.956-.456-2.784a3.025 3.025 0 00-.72-1.104c-.54-.564-1.308-.852-2.196-.852-1.188 0-2.112.504-2.688 1.476-.42.696-.696 1.992-.696 3.264 0 .984.156 1.932.456 2.772.144.408.396.78.72 1.104.564.564 1.308.852 2.196.852zm0-8.64c.84 0 1.488.372 1.884 1.092.312.564.54 1.752.54 2.796 0 .888-.12 1.68-.372 2.424-.108.348-.3.66-.564.936-.36.372-.876.564-1.476.564-.816 0-1.44-.348-1.86-1.044-.324-.564-.564-1.74-.564-2.856 0-.876.12-1.692.372-2.424.096-.3.288-.6.54-.876.384-.408.876-.612 1.5-.612zm-28.547 49.228c.348-.048.66-.072 1.044-.072h.648v6.948c0 .552-.024.936-.096 1.356h1.14a7.656 7.656 0 01-.096-1.356v-5.832c0-.648.036-1.26.108-1.992-.396.048-.588.06-.996.06h-.756c-.456 0-.684-.012-.996-.06v.948zm9.891 8.412c1.104 0 1.944-.42 2.544-1.26.528-.732.84-2.016.84-3.468 0-.996-.156-1.956-.456-2.784a3.025 3.025 0 00-.72-1.104c-.54-.564-1.308-.852-2.196-.852-1.188 0-2.112.504-2.688 1.476-.42.696-.696 1.992-.696 3.264 0 .984.156 1.932.456 2.772.144.408.396.78.72 1.104.564.564 1.308.852 2.196.852zm0-8.64c.84 0 1.488.372 1.884 1.092.312.564.54 1.752.54 2.796 0 .888-.12 1.68-.372 2.424-.108.348-.3.66-.564.936-.36.372-.876.564-1.476.564-.816 0-1.44-.348-1.86-1.044-.324-.564-.564-1.74-.564-2.856 0-.876.12-1.692.372-2.424.096-.3.288-.6.54-.876.384-.408.876-.612 1.5-.612zm5.979 1.992h-1.188v1.188h1.188v-1.188zm0 6.468v-1.188h-1.188v1.188h1.188zm4.79.18c1.105 0 1.945-.42 2.545-1.26.528-.732.84-2.016.84-3.468 0-.996-.156-1.956-.456-2.784a3.025 3.025 0 00-.72-1.104c-.54-.564-1.308-.852-2.196-.852-1.188 0-2.112.504-2.688 1.476-.42.696-.696 1.992-.696 3.264 0 .984.156 1.932.456 2.772.144.408.396.78.72 1.104.564.564 1.308.852 2.196.852zm0-8.64c.84 0 1.489.372 1.885 1.092.312.564.54 1.752.54 2.796 0 .888-.12 1.68-.372 2.424-.108.348-.3.66-.564.936-.36.372-.876.564-1.476.564-.816 0-1.44-.348-1.86-1.044-.324-.564-.564-1.74-.564-2.856 0-.876.12-1.692.372-2.424.096-.3.288-.6.54-.876.384-.408.876-.612 1.5-.612zm7.887 8.64c1.104 0 1.944-.42 2.544-1.26.528-.732.84-2.016.84-3.468 0-.996-.156-1.956-.456-2.784a3.025 3.025 0 00-.72-1.104c-.54-.564-1.308-.852-2.196-.852-1.188 0-2.112.504-2.688 1.476-.42.696-.696 1.992-.696 3.264 0 .984.156 1.932.456 2.772.144.408.396.78.72 1.104.564.564 1.308.852 2.196.852zm0-8.64c.84 0 1.488.372 1.884 1.092.312.564.54 1.752.54 2.796 0 .888-.12 1.68-.372 2.424-.108.348-.3.66-.564.936-.36.372-.876.564-1.476.564-.816 0-1.44-.348-1.86-1.044-.324-.564-.564-1.74-.564-2.856 0-.876.12-1.692.372-2.424.096-.3.288-.6.54-.876.384-.408.876-.612 1.5-.612zm-28.547 49.228c.348-.048.66-.072 1.044-.072h.648v6.948c0 .552-.024.936-.096 1.356h1.14a7.656 7.656 0 01-.096-1.356v-5.832c0-.648.036-1.26.108-1.992-.396.048-.588.06-.996.06h-.756c-.456 0-.684-.012-.996-.06v.948zm9.891 8.412c1.104 0 1.944-.42 2.544-1.26.528-.732.84-2.016.84-3.468 0-.996-.156-1.956-.456-2.784a3.025 3.025 0 00-.72-1.104c-.54-.564-1.308-.852-2.196-.852-1.188 0-2.112.504-2.688 1.476-.42.696-.696 1.992-.696 3.264 0 .984.156 1.932.456 2.772.144.408.396.78.72 1.104.564.564 1.308.852 2.196.852zm0-8.64c.84 0 1.488.372 1.884 1.092.312.564.54 1.752.54 2.796 0 .888-.12 1.68-.372 2.424-.108.348-.3.66-.564.936-.36.372-.876.564-1.476.564-.816 0-1.44-.348-1.86-1.044-.324-.564-.564-1.74-.564-2.856 0-.876.12-1.692.372-2.424.096-.3.288-.6.54-.876.384-.408.876-.612 1.5-.612zm5.979 1.992h-1.188v1.188h1.188v-1.188zm0 6.468v-1.188h-1.188v1.188h1.188zm1.395-1.968c.216.612.36.876.612 1.164.576.648 1.476.984 2.688.984 2.004 0 3.252-1.008 3.252-2.628 0-.768-.276-1.404-.804-1.812-.408-.312-.78-.444-1.476-.516.552-.108.816-.204 1.128-.432.528-.372.84-1.02.84-1.752 0-1.44-1.104-2.352-2.844-2.352-1.044 0-1.86.3-2.388.876-.3.312-.444.588-.648 1.2l.996.216c.132-.444.216-.636.384-.852.336-.432.864-.636 1.596-.636 1.212 0 1.932.6 1.932 1.632 0 .432-.18.876-.48 1.164-.372.372-.96.552-1.752.552-.324 0-.612-.024-.888-.072v.948c.324-.036.624-.06.96-.06 1.596 0 2.448.648 2.448 1.836 0 1.14-.876 1.86-2.268 1.86-.612 0-1.14-.144-1.548-.432-.372-.264-.54-.516-.732-1.14l-1.008.252zm11.282 2.148c1.104 0 1.944-.42 2.544-1.26.528-.732.84-2.016.84-3.468 0-.996-.156-1.956-.456-2.784a3.025 3.025 0 00-.72-1.104c-.54-.564-1.308-.852-2.196-.852-1.188 0-2.112.504-2.688 1.476-.42.696-.696 1.992-.696 3.264 0 .984.156 1.932.456 2.772.144.408.396.78.72 1.104.564.564 1.308.852 2.196.852zm0-8.64c.84 0 1.488.372 1.884 1.092.312.564.54 1.752.54 2.796 0 .888-.12 1.68-.372 2.424-.108.348-.3.66-.564.936-.36.372-.876.564-1.476.564-.816 0-1.44-.348-1.86-1.044-.324-.564-.564-1.74-.564-2.856 0-.876.12-1.692.372-2.424.096-.3.288-.6.54-.876.384-.408.876-.612 1.5-.612zm-28.547 49.228c.348-.048.66-.072 1.044-.072h.648v6.948c0 .552-.024.936-.096 1.356h1.14a7.656 7.656 0 01-.096-1.356v-5.832c0-.648.036-1.26.108-1.992-.396.048-.588.06-.996.06h-.756c-.456 0-.684-.012-.996-.06v.948zm7.887 0c.348-.048.66-.072 1.044-.072h.648v6.948c0 .552-.024.936-.096 1.356h1.14a7.656 7.656 0 01-.096-1.356v-5.832c0-.648.036-1.26.108-1.992-.396.048-.588.06-.996.06h-.756c-.456 0-.684-.012-.996-.06v.948zm7.983 1.764h-1.188v1.188h1.188v-1.188zm0 6.468v-1.188h-1.188v1.188h1.188zm4.79.18c1.105 0 1.945-.42 2.545-1.26.528-.732.84-2.016.84-3.468 0-.996-.156-1.956-.456-2.784a3.025 3.025 0 00-.72-1.104c-.54-.564-1.308-.852-2.196-.852-1.188 0-2.112.504-2.688 1.476-.42.696-.696 1.992-.696 3.264 0 .984.156 1.932.456 2.772.144.408.396.78.72 1.104.564.564 1.308.852 2.196.852zm0-8.64c.84 0 1.489.372 1.885 1.092.312.564.54 1.752.54 2.796 0 .888-.12 1.68-.372 2.424-.108.348-.3.66-.564.936-.36.372-.876.564-1.476.564-.816 0-1.44-.348-1.86-1.044-.324-.564-.564-1.74-.564-2.856 0-.876.12-1.692.372-2.424.096-.3.288-.6.54-.876.384-.408.876-.612 1.5-.612zm7.887 8.64c1.104 0 1.944-.42 2.544-1.26.528-.732.84-2.016.84-3.468 0-.996-.156-1.956-.456-2.784a3.025 3.025 0 00-.72-1.104c-.54-.564-1.308-.852-2.196-.852-1.188 0-2.112.504-2.688 1.476-.42.696-.696 1.992-.696 3.264 0 .984.156 1.932.456 2.772.144.408.396.78.72 1.104.564.564 1.308.852 2.196.852zm0-8.64c.84 0 1.488.372 1.884 1.092.312.564.54 1.752.54 2.796 0 .888-.12 1.68-.372 2.424-.108.348-.3.66-.564.936-.36.372-.876.564-1.476.564-.816 0-1.44-.348-1.86-1.044-.324-.564-.564-1.74-.564-2.856 0-.876.12-1.692.372-2.424.096-.3.288-.6.54-.876.384-.408.876-.612 1.5-.612zm-28.547 49.228c.348-.048.66-.072 1.044-.072h.648v6.948c0 .552-.024.936-.096 1.356h1.14a7.656 7.656 0 01-.096-1.356v-5.832c0-.648.036-1.26.108-1.992-.396.048-.588.06-.996.06h-.756c-.456 0-.684-.012-.996-.06v.948zm7.887 0c.348-.048.66-.072 1.044-.072h.648v6.948c0 .552-.024.936-.096 1.356h1.14a7.656 7.656 0 01-.096-1.356v-5.832c0-.648.036-1.26.108-1.992-.396.048-.588.06-.996.06h-.756c-.456 0-.684-.012-.996-.06v.948zm7.983 1.764h-1.188v1.188h1.188v-1.188zm0 6.468v-1.188h-1.188v1.188h1.188zm1.395-1.968c.216.612.36.876.612 1.164.576.648 1.476.984 2.688.984 2.004 0 3.252-1.008 3.252-2.628 0-.768-.276-1.404-.804-1.812-.408-.312-.78-.444-1.476-.516.552-.108.816-.204 1.128-.432.528-.372.84-1.02.84-1.752 0-1.44-1.104-2.352-2.844-2.352-1.044 0-1.86.3-2.388.876-.3.312-.444.588-.648 1.2l.996.216c.132-.444.216-.636.384-.852.336-.432.864-.636 1.596-.636 1.212 0 1.932.6 1.932 1.632 0 .432-.18.876-.48 1.164-.372.372-.96.552-1.752.552-.324 0-.612-.024-.888-.072v.948c.324-.036.624-.06.96-.06 1.596 0 2.448.648 2.448 1.836 0 1.14-.876 1.86-2.268 1.86-.612 0-1.14-.144-1.548-.432-.372-.264-.54-.516-.732-1.14l-1.008.252zm11.282 2.148c1.104 0 1.944-.42 2.544-1.26.528-.732.84-2.016.84-3.468 0-.996-.156-1.956-.456-2.784a3.025 3.025 0 00-.72-1.104c-.54-.564-1.308-.852-2.196-.852-1.188 0-2.112.504-2.688 1.476-.42.696-.696 1.992-.696 3.264 0 .984.156 1.932.456 2.772.144.408.396.78.72 1.104.564.564 1.308.852 2.196.852zm0-8.64c.84 0 1.488.372 1.884 1.092.312.564.54 1.752.54 2.796 0 .888-.12 1.68-.372 2.424-.108.348-.3.66-.564.936-.36.372-.876.564-1.476.564-.816 0-1.44-.348-1.86-1.044-.324-.564-.564-1.74-.564-2.856 0-.876.12-1.692.372-2.424.096-.3.288-.6.54-.876.384-.408.876-.612 1.5-.612zm-28.547 49.228c.348-.048.66-.072 1.044-.072h.648v6.948c0 .552-.024.936-.096 1.356h1.14a7.656 7.656 0 01-.096-1.356v-5.832c0-.648.036-1.26.108-1.992-.396.048-.588.06-.996.06h-.756c-.456 0-.684-.012-.996-.06v.948zm11.631 8.232c.6 0 .996.024 1.476.072v-1.008c-.456.06-.864.084-1.464.084h-3.828c.144-.576.312-.9.684-1.392.396-.504.78-.84 1.728-1.476 1.368-.912 1.68-1.14 2.04-1.548.468-.516.708-1.092.708-1.704 0-1.416-1.164-2.328-2.976-2.328-1.056 0-1.872.312-2.412.924-.396.444-.576.864-.756 1.728l1.008.168c.084-.6.192-.888.42-1.212.36-.516.948-.78 1.74-.78 1.224 0 1.992.588 1.992 1.5 0 .732-.396 1.26-1.584 2.064-1.392.948-1.416.96-1.836 1.32-.756.648-1.26 1.308-1.56 2.064-.18.456-.216.636-.348 1.584.384-.048.564-.06 1.32-.06h3.648zm4.239-6.468h-1.188v1.188h1.188v-1.188zm0 6.468v-1.188h-1.188v1.188h1.188zm4.79.18c1.105 0 1.945-.42 2.545-1.26.528-.732.84-2.016.84-3.468 0-.996-.156-1.956-.456-2.784a3.025 3.025 0 00-.72-1.104c-.54-.564-1.308-.852-2.196-.852-1.188 0-2.112.504-2.688 1.476-.42.696-.696 1.992-.696 3.264 0 .984.156 1.932.456 2.772.144.408.396.78.72 1.104.564.564 1.308.852 2.196.852zm0-8.64c.84 0 1.489.372 1.885 1.092.312.564.54 1.752.54 2.796 0 .888-.12 1.68-.372 2.424-.108.348-.3.66-.564.936-.36.372-.876.564-1.476.564-.816 0-1.44-.348-1.86-1.044-.324-.564-.564-1.74-.564-2.856 0-.876.12-1.692.372-2.424.096-.3.288-.6.54-.876.384-.408.876-.612 1.5-.612zm7.887 8.64c1.104 0 1.944-.42 2.544-1.26.528-.732.84-2.016.84-3.468 0-.996-.156-1.956-.456-2.784a3.025 3.025 0 00-.72-1.104c-.54-.564-1.308-.852-2.196-.852-1.188 0-2.112.504-2.688 1.476-.42.696-.696 1.992-.696 3.264 0 .984.156 1.932.456 2.772.144.408.396.78.72 1.104.564.564 1.308.852 2.196.852zm0-8.64c.84 0 1.488.372 1.884 1.092.312.564.54 1.752.54 2.796 0 .888-.12 1.68-.372 2.424-.108.348-.3.66-.564.936-.36.372-.876.564-1.476.564-.816 0-1.44-.348-1.86-1.044-.324-.564-.564-1.74-.564-2.856 0-.876.12-1.692.372-2.424.096-.3.288-.6.54-.876.384-.408.876-.612 1.5-.612zm-28.547 49.228c.348-.048.66-.072 1.044-.072h.648v6.948c0 .552-.024.936-.096 1.356h1.14a7.656 7.656 0 01-.096-1.356v-5.832c0-.648.036-1.26.108-1.992-.396.048-.588.06-.996.06h-.756c-.456 0-.684-.012-.996-.06v.948zm11.631 8.232c.6 0 .996.024 1.476.072v-1.008c-.456.06-.864.084-1.464.084h-3.828c.144-.576.312-.9.684-1.392.396-.504.78-.84 1.728-1.476 1.368-.912 1.68-1.14 2.04-1.548.468-.516.708-1.092.708-1.704 0-1.416-1.164-2.328-2.976-2.328-1.056 0-1.872.312-2.412.924-.396.444-.576.864-.756 1.728l1.008.168c.084-.6.192-.888.42-1.212.36-.516.948-.78 1.74-.78 1.224 0 1.992.588 1.992 1.5 0 .732-.396 1.26-1.584 2.064-1.392.948-1.416.96-1.836 1.32-.756.648-1.26 1.308-1.56 2.064-.18.456-.216.636-.348 1.584.384-.048.564-.06 1.32-.06h3.648zm4.239-6.468h-1.188v1.188h1.188v-1.188zm0 6.468v-1.188h-1.188v1.188h1.188zm1.395-1.968c.216.612.36.876.612 1.164.576.648 1.476.984 2.688.984 2.004 0 3.252-1.008 3.252-2.628 0-.768-.276-1.404-.804-1.812-.408-.312-.78-.444-1.476-.516.552-.108.816-.204 1.128-.432.528-.372.84-1.02.84-1.752 0-1.44-1.104-2.352-2.844-2.352-1.044 0-1.86.3-2.388.876-.3.312-.444.588-.648 1.2l.996.216c.132-.444.216-.636.384-.852.336-.432.864-.636 1.596-.636 1.212 0 1.932.6 1.932 1.632 0 .432-.18.876-.48 1.164-.372.372-.96.552-1.752.552-.324 0-.612-.024-.888-.072v.948c.324-.036.624-.06.96-.06 1.596 0 2.448.648 2.448 1.836 0 1.14-.876 1.86-2.268 1.86-.612 0-1.14-.144-1.548-.432-.372-.264-.54-.516-.732-1.14l-1.008.252zm11.282 2.148c1.104 0 1.944-.42 2.544-1.26.528-.732.84-2.016.84-3.468 0-.996-.156-1.956-.456-2.784a3.025 3.025 0 00-.72-1.104c-.54-.564-1.308-.852-2.196-.852-1.188 0-2.112.504-2.688 1.476-.42.696-.696 1.992-.696 3.264 0 .984.156 1.932.456 2.772.144.408.396.78.72 1.104.564.564 1.308.852 2.196.852zm0-8.64c.84 0 1.488.372 1.884 1.092.312.564.54 1.752.54 2.796 0 .888-.12 1.68-.372 2.424-.108.348-.3.66-.564.936-.36.372-.876.564-1.476.564-.816 0-1.44-.348-1.86-1.044-.324-.564-.564-1.74-.564-2.856 0-.876.12-1.692.372-2.424.096-.3.288-.6.54-.876.384-.408.876-.612 1.5-.612zm-24.363 56.928c0 .112-.056.168-.168.168h-.492c-.112 0-.168-.056-.168-.168v-7.8a119.25 119.25 0 00-1.38 1.176c-.088.072-.168.064-.24-.024l-.24-.288a.232.232 0 01-.036-.12c0-.048.02-.088.06-.12l1.86-1.56c.032-.032.08-.048.144-.048h.324c.168 0 .264.016.288.048.032.024.048.12.048.288v8.448zm3.773-.036c-.12-.032-.172-.124-.156-.276l.048-.468c.016-.096.08-.12.192-.072.336.136.652.232.948.288.304.056.656.088 1.056.096.632.008 1.164-.152 1.596-.48.504-.336.756-.828.756-1.476 0-1.136-.852-1.704-2.556-1.704h-.624c-.104 0-.156-.044-.156-.132v-.444c0-.104.052-.156.156-.156h.06c.856 0 1.524-.092 2.004-.276.728-.28 1.092-.784 1.092-1.512 0-.232-.064-.444-.192-.636-.12-.2-.284-.368-.492-.504a2.618 2.618 0 00-.648-.264 2.922 2.922 0 00-.756-.096c-.272 0-.572.036-.9.108a6.195 6.195 0 00-.948.288c-.104.04-.164.008-.18-.096l-.048-.444c-.024-.112.028-.192.156-.24a7.27 7.27 0 011.008-.264c.312-.056.644-.084.996-.084.808 0 1.468.172 1.98.516.584.392.876.964.876 1.716 0 .536-.192 1-.576 1.392-.32.344-.736.596-1.248.756.256.032.492.1.708.204.224.104.416.248.576.432.184.2.324.428.42.684.096.248.144.524.144.828a2.36 2.36 0 01-.948 1.92 3.472 3.472 0 01-1.02.504 3.836 3.836 0 01-1.284.18 10.353 10.353 0 01-1.104-.072 5.242 5.242 0 01-.936-.216zm7.566-6.972a.66.66 0 01.203-.48.657.657 0 01.48-.204c.184 0 .345.068.48.204a.657.657 0 01.204.48.657.657 0 01-.204.48.657.657 0 01-.48.204.657.657 0 01-.48-.204.657.657 0 01-.203-.48zm0 5.412a.66.66 0 01.203-.48.657.657 0 01.48-.204c.184 0 .345.068.48.204a.657.657 0 01.204.48.657.657 0 01-.204.48.657.657 0 01-.48.204.657.657 0 01-.48-.204.657.657 0 01-.203-.48zm8.168-2.724c0-2.512-.688-3.768-2.064-3.768-1.376 0-2.064 1.256-2.064 3.768 0 2.52.688 3.78 2.064 3.78 1.376 0 2.064-1.26 2.064-3.78zm.864 0c0 3.024-.976 4.536-2.928 4.536-1.968 0-2.952-1.512-2.952-4.536 0-1.256.192-2.276.576-3.06.488-.984 1.28-1.476 2.376-1.476 1.08 0 1.868.492 2.364 1.476.184.392.324.84.42 1.344.096.504.144 1.076.144 1.716zm6.414 0c0-2.512-.688-3.768-2.064-3.768-1.376 0-2.064 1.256-2.064 3.768 0 2.52.688 3.78 2.064 3.78 1.376 0 2.064-1.26 2.064-3.78zm.864 0c0 3.024-.976 4.536-2.928 4.536-1.968 0-2.952-1.512-2.952-4.536 0-1.256.192-2.276.576-3.06.488-.984 1.28-1.476 2.376-1.476 1.08 0 1.868.492 2.364 1.476.184.392.324.84.42 1.344.096.504.144 1.076.144 1.716z" fill="#6A6F81"/><path fill="#EDEEF2" d="M81 32h993v1H81zm0 49h993v1H81zm0 49h993v1H81zm0 49h993v1H81zm0 49h993v1H81zm0 49h993v1H81zm0 49h993v1H81zm0 49h993v1H81zm0 49h993v1H81zm-1 38V0h1v462h-1z"/><path d="M569 462V-46h1v508h-1z" fill="#EDEEF2"/><path d="M325 33h232a4 4 0 014 4v138a4 4 0 01-4 4H325V33z" fill="#ECF6F3"/><path fill="#39C295" d="M325 33h2v146h-2z"/><path d="M347.465 77.555c0 .121-.061.182-.182.182h-.533c-.121 0-.182-.06-.182-.182v-6.539c0-.121.061-.182.182-.182h.533c.121 0 .182.06.182.182v6.539zm-7.423 1.781c0-.364.069-.607.208-.728.139-.13.399-.195.78-.195h5.447c.208 0 .373.013.494.039a.57.57 0 01.299.143c.078.07.13.165.156.286.026.121.039.273.039.455v2.457c0 .364-.069.607-.208.728-.139.13-.399.195-.78.195h-5.447c-.208 0-.377-.013-.507-.039a.586.586 0 01-.299-.156.562.562 0 01-.143-.286 2.032 2.032 0 01-.039-.442v-2.457zm1.209-.143c-.121 0-.204.026-.247.078-.043.043-.065.13-.065.26v2.067c0 .13.022.217.065.26.043.052.126.078.247.078h5.005c.121 0 .204-.026.247-.078.043-.043.065-.13.065-.26v-2.067c0-.13-.022-.217-.065-.26-.043-.052-.126-.078-.247-.078h-5.005zm2.717-6.877a6.062 6.062 0 01-1.573 3.185c-.849.919-2.08 1.716-3.692 2.392-.147.06-.243.035-.286-.078l-.195-.429c-.035-.07-.039-.126-.013-.169a.292.292 0 01.117-.091c1.378-.572 2.457-1.248 3.237-2.028.789-.789 1.265-1.638 1.43-2.548.052-.251-.052-.377-.312-.377h-4.004c-.104 0-.156-.056-.156-.169v-.455c0-.104.052-.156.156-.156h4.303c.416 0 .698.074.845.221.147.147.195.381.143.702zm15.268 10.322c0 .121-.061.182-.182.182h-.533c-.122 0-.182-.06-.182-.182V71.016c0-.121.06-.182.182-.182h.533c.121 0 .182.06.182.182v4.732h1.794c.052 0 .095.017.13.052a.128.128 0 01.065.117v.442c0 .043-.022.082-.065.117a.177.177 0 01-.13.052h-1.794v6.11zm-7.657-4.563c0 .13.021.217.065.26.043.043.125.07.247.078.832.026 1.698-.009 2.6-.104a35.132 35.132 0 002.574-.39c.147-.035.234.017.26.156l.065.364c.026.121-.031.2-.169.234a13.48 13.48 0 01-1.183.221 30.536 30.536 0 01-2.99.299 18.16 18.16 0 01-1.339.026c-.39-.009-.659-.1-.806-.273-.148-.173-.221-.442-.221-.806v-6.396c0-.121.06-.182.182-.182h.533c.121 0 .182.06.182.182v6.331zm18.257-2.327h1.651v-4.732c0-.121.061-.182.182-.182h.494c.122 0 .182.06.182.182v11.622c0 .121-.06.182-.182.182h-.494c-.121 0-.182-.06-.182-.182v-6.11h-1.651v5.616c0 .121-.06.182-.182.182h-.494c-.121 0-.182-.06-.182-.182V71.237c0-.121.061-.182.182-.182h.494c.122 0 .182.06.182.182v4.511zm-6.409 4.017c-.39-.017-.654-.095-.793-.234-.13-.147-.195-.403-.195-.767v-2.483c0-.364.074-.607.221-.728.156-.13.429-.195.819-.195h2.496c.122 0 .2-.017.234-.052.035-.035.052-.117.052-.247v-2.08c0-.13-.017-.212-.052-.247-.026-.035-.099-.052-.221-.052h-3.315a.254.254 0 01-.13-.039.125.125 0 01-.052-.104v-.494c0-.043.018-.078.052-.104a.254.254 0 01.13-.039h3.458c.208 0 .377.017.507.052.13.026.234.074.312.143.078.07.13.169.156.299.035.121.052.273.052.455v2.366c0 .364-.078.611-.234.741-.147.121-.416.182-.806.182h-2.509c-.121 0-.199.017-.234.052-.026.035-.039.117-.039.247v2.262c0 .2.096.299.286.299.685.017 1.4-.013 2.145-.091a20.7 20.7 0 002.249-.39c.122-.026.195.017.221.13l.078.429c.018.113-.039.186-.169.221a19.5 19.5 0 01-2.314.39c-.788.078-1.59.104-2.405.078zm17.923 3.536a.327.327 0 01-.117-.013c-.008 0-.03-.022-.065-.065-.788-.988-1.373-1.989-1.755-3.003a8.874 8.874 0 01-.572-3.146c0-1.075.191-2.119.572-3.133.382-1.014.967-2.02 1.755-3.016.035-.043.057-.065.065-.065a.226.226 0 01.091-.013h.364c.052 0 .078.004.078.013a.284.284 0 01-.039.078c-1.36 2.132-2.041 4.177-2.041 6.136 0 .997.174 2.002.52 3.016.347 1.014.858 2.054 1.534 3.12.044.06.022.091-.065.091h-.325zm6.777-8.242c0-.676-.182-1.244-.546-1.703-.399-.494-.927-.741-1.586-.741-.702 0-1.252.221-1.651.663-.39.416-.585.97-.585 1.664 0 .737.178 1.309.533 1.716h-.013c.373.399.901.598 1.586.598.711 0 1.265-.2 1.664-.598.399-.416.598-.949.598-1.599zm-4.758 6.461c-.13-.026-.186-.126-.169-.299l.039-.455c.017-.104.087-.13.208-.078.217.087.433.147.65.182.225.035.477.052.754.052.607 0 1.135-.117 1.586-.351a2.985 2.985 0 001.105-1.027c.433-.728.659-1.651.676-2.769-.529.85-1.313 1.274-2.353 1.274-.797 0-1.465-.204-2.002-.611-.685-.529-1.027-1.339-1.027-2.431 0-.962.282-1.729.845-2.301.572-.598 1.352-.897 2.34-.897 2.08 0 3.12 1.534 3.12 4.602 0 3.527-1.46 5.291-4.381 5.291-.399 0-.862-.06-1.391-.182zm11.355-.091c0 .121-.061.182-.182.182h-.533c-.122 0-.182-.06-.182-.182v-8.45a118.993 118.993 0 00-1.495 1.274c-.096.078-.182.07-.26-.026l-.26-.312a.25.25 0 01-.039-.13c0-.052.021-.095.065-.13l2.015-1.69c.034-.035.086-.052.156-.052h.351c.182 0 .286.017.312.052.034.026.052.13.052.312v9.152zm3.698 1.872c-.078 0-.096-.03-.052-.091.676-1.066 1.183-2.106 1.521-3.12a9.3 9.3 0 00.52-3.016c0-.988-.169-1.989-.507-3.003-.338-1.023-.845-2.067-1.521-3.133a.284.284 0 01-.039-.078c0-.009.021-.013.065-.013h.364c.043 0 .069.004.078.013.017 0 .047.022.091.065.788.997 1.369 2.002 1.742 3.016a8.838 8.838 0 01.572 3.133 8.874 8.874 0 01-.572 3.146c-.373 1.014-.954 2.015-1.742 3.003-.044.043-.074.065-.091.065-.009.009-.044.013-.104.013h-.325zm13.982-6.552c0-2.721-.746-4.082-2.236-4.082-1.491 0-2.236 1.36-2.236 4.082 0 2.73.745 4.095 2.236 4.095 1.49 0 2.236-1.365 2.236-4.095zm.936 0c0 3.276-1.058 4.914-3.172 4.914-2.132 0-3.198-1.638-3.198-4.914 0-1.36.208-2.466.624-3.315.528-1.066 1.386-1.599 2.574-1.599 1.17 0 2.023.533 2.561 1.599.199.425.351.91.455 1.456.104.546.156 1.166.156 1.859zm5.518 4.68c0 .121-.061.182-.182.182h-.533c-.122 0-.182-.06-.182-.182v-8.45a118.993 118.993 0 00-1.495 1.274c-.096.078-.182.07-.26-.026l-.26-.312a.25.25 0 01-.039-.13c0-.052.021-.095.065-.13l2.015-1.69c.034-.035.086-.052.156-.052h.351c.182 0 .286.017.312.052.034.026.052.13.052.312v9.152zm9.313-4.68c0-2.721-.745-4.082-2.236-4.082-1.49 0-2.236 1.36-2.236 4.082 0 2.73.746 4.095 2.236 4.095 1.491 0 2.236-1.365 2.236-4.095zm.936 0c0 3.276-1.057 4.914-3.172 4.914-2.132 0-3.198-1.638-3.198-4.914 0-1.36.208-2.466.624-3.315.529-1.066 1.387-1.599 2.574-1.599 1.17 0 2.024.533 2.561 1.599.2.425.351.91.455 1.456.104.546.156 1.166.156 1.859zm4.673-.663c.095 0 .147.009.156.026.017.009.026.06.026.156v.572c0 .095-.009.152-.026.169-.009.009-.061.013-.156.013h-3.042a.58.58 0 01-.169-.013.57.57 0 01-.013-.169v-.572c0-.095.004-.147.013-.156.017-.017.074-.026.169-.026h3.042zm6.998.663c0-2.721-.746-4.082-2.236-4.082-1.491 0-2.236 1.36-2.236 4.082 0 2.73.745 4.095 2.236 4.095 1.49 0 2.236-1.365 2.236-4.095zm.936 0c0 3.276-1.058 4.914-3.172 4.914-2.132 0-3.198-1.638-3.198-4.914 0-1.36.208-2.466.624-3.315.528-1.066 1.386-1.599 2.574-1.599 1.17 0 2.023.533 2.561 1.599.199.425.351.91.455 1.456.104.546.156 1.166.156 1.859zm6.948 0c0-2.721-.746-4.082-2.236-4.082-1.491 0-2.236 1.36-2.236 4.082 0 2.73.745 4.095 2.236 4.095 1.49 0 2.236-1.365 2.236-4.095zm.936 0c0 3.276-1.058 4.914-3.172 4.914-2.132 0-3.198-1.638-3.198-4.914 0-1.36.208-2.466.624-3.315.528-1.066 1.386-1.599 2.574-1.599 1.17 0 2.023.533 2.561 1.599.199.425.351.91.455 1.456.104.546.156 1.166.156 1.859zm6.947 0c0-2.721-.745-4.082-2.236-4.082-1.49 0-2.236 1.36-2.236 4.082 0 2.73.746 4.095 2.236 4.095 1.491 0 2.236-1.365 2.236-4.095zm.936 0c0 3.276-1.057 4.914-3.172 4.914-2.132 0-3.198-1.638-3.198-4.914 0-1.36.208-2.466.624-3.315.529-1.066 1.387-1.599 2.574-1.599 1.17 0 2.024.533 2.561 1.599.2.425.351.91.455 1.456.104.546.156 1.166.156 1.859zm6.948 0c0-2.721-.745-4.082-2.236-4.082s-2.236 1.36-2.236 4.082c0 2.73.745 4.095 2.236 4.095s2.236-1.365 2.236-4.095zm.936 0c0 3.276-1.057 4.914-3.172 4.914-2.132 0-3.198-1.638-3.198-4.914 0-1.36.208-2.466.624-3.315.529-1.066 1.387-1.599 2.574-1.599 1.17 0 2.024.533 2.561 1.599.199.425.351.91.455 1.456.104.546.156 1.166.156 1.859zm4.673-.663c.095 0 .147.009.156.026.017.009.026.06.026.156v.572c0 .095-.009.152-.026.169-.009.009-.061.013-.156.013h-3.042a.58.58 0 01-.169-.013.57.57 0 01-.013-.169v-.572c0-.095.004-.147.013-.156.017-.017.074-.026.169-.026h3.042zm6.998.663c0-2.721-.746-4.082-2.236-4.082-1.491 0-2.236 1.36-2.236 4.082 0 2.73.745 4.095 2.236 4.095 1.49 0 2.236-1.365 2.236-4.095zm.936 0c0 3.276-1.058 4.914-3.172 4.914-2.132 0-3.198-1.638-3.198-4.914 0-1.36.208-2.466.624-3.315.528-1.066 1.386-1.599 2.574-1.599 1.17 0 2.023.533 2.561 1.599.199.425.351.91.455 1.456.104.546.156 1.166.156 1.859zm6.947 0c0-2.721-.745-4.082-2.236-4.082-1.49 0-2.236 1.36-2.236 4.082 0 2.73.746 4.095 2.236 4.095 1.491 0 2.236-1.365 2.236-4.095zm.936 0c0 3.276-1.057 4.914-3.172 4.914-2.132 0-3.198-1.638-3.198-4.914 0-1.36.208-2.466.624-3.315.529-1.066 1.387-1.599 2.574-1.599 1.17 0 2.024.533 2.561 1.599.2.425.351.91.455 1.456.104.546.156 1.166.156 1.859zm6.948 0c0-2.721-.745-4.082-2.236-4.082-1.49 0-2.236 1.36-2.236 4.082 0 2.73.746 4.095 2.236 4.095 1.491 0 2.236-1.365 2.236-4.095zm.936 0c0 3.276-1.057 4.914-3.172 4.914-2.132 0-3.198-1.638-3.198-4.914 0-1.36.208-2.466.624-3.315.529-1.066 1.387-1.599 2.574-1.599 1.17 0 2.024.533 2.561 1.599.2.425.351.91.455 1.456.104.546.156 1.166.156 1.859zm6.948 0c0-2.721-.745-4.082-2.236-4.082s-2.236 1.36-2.236 4.082c0 2.73.745 4.095 2.236 4.095s2.236-1.365 2.236-4.095zm.936 0c0 3.276-1.057 4.914-3.172 4.914-2.132 0-3.198-1.638-3.198-4.914 0-1.36.208-2.466.624-3.315.529-1.066 1.387-1.599 2.574-1.599 1.17 0 2.024.533 2.561 1.599.199.425.351.91.455 1.456.104.546.156 1.166.156 1.859z" fill="#191D2B"/><path opacity=".5" d="M342.748 48.076c0-2.512-.688-3.768-2.064-3.768-1.376 0-2.064 1.256-2.064 3.768 0 2.52.688 3.78 2.064 3.78 1.376 0 2.064-1.26 2.064-3.78zm.864 0c0 3.024-.976 4.536-2.928 4.536-1.968 0-2.952-1.512-2.952-4.536 0-1.256.192-2.276.576-3.06.488-.984 1.28-1.476 2.376-1.476 1.08 0 1.868.492 2.364 1.476.184.392.324.84.42 1.344.096.504.144 1.076.144 1.716zm6.281-1.56c0-.624-.168-1.148-.504-1.572-.368-.456-.856-.684-1.464-.684-.648 0-1.156.204-1.524.612-.36.384-.54.896-.54 1.536 0 .68.164 1.208.492 1.584h-.012c.344.368.832.552 1.464.552.656 0 1.168-.184 1.536-.552.368-.384.552-.876.552-1.476zm-4.392 5.964c-.12-.024-.172-.116-.156-.276l.036-.42c.016-.096.08-.12.192-.072.2.08.4.136.6.168.208.032.44.048.696.048.56 0 1.048-.108 1.464-.324.416-.224.756-.54 1.02-.948.4-.672.608-1.524.624-2.556-.488.784-1.212 1.176-2.172 1.176-.736 0-1.352-.188-1.848-.564-.632-.488-.948-1.236-.948-2.244 0-.888.26-1.596.78-2.124.528-.552 1.248-.828 2.16-.828 1.92 0 2.88 1.416 2.88 4.248 0 3.256-1.348 4.884-4.044 4.884-.368 0-.796-.056-1.284-.168zm7.266-7.092c0-.184.068-.344.204-.48a.657.657 0 01.48-.204c.184 0 .344.068.48.204a.657.657 0 01.204.48.657.657 0 01-.204.48.657.657 0 01-.48.204.657.657 0 01-.48-.204.657.657 0 01-.204-.48zm0 5.412c0-.184.068-.344.204-.48a.657.657 0 01.48-.204c.184 0 .344.068.48.204a.657.657 0 01.204.48.657.657 0 01-.204.48.657.657 0 01-.48.204.657.657 0 01-.48-.204.657.657 0 01-.204-.48zm3.345 1.56c-.12-.032-.172-.124-.156-.276l.048-.468c.016-.096.08-.12.192-.072.336.136.652.232.948.288.304.056.656.088 1.056.096.632.008 1.164-.152 1.596-.48.504-.336.756-.828.756-1.476 0-1.136-.852-1.704-2.556-1.704h-.624c-.104 0-.156-.044-.156-.132v-.444c0-.104.052-.156.156-.156h.06c.856 0 1.524-.092 2.004-.276.728-.28 1.092-.784 1.092-1.512 0-.232-.064-.444-.192-.636-.12-.2-.284-.368-.492-.504a2.618 2.618 0 00-.648-.264 2.922 2.922 0 00-.756-.096c-.272 0-.572.036-.9.108a6.195 6.195 0 00-.948.288c-.104.04-.164.008-.18-.096l-.048-.444c-.024-.112.028-.192.156-.24a7.27 7.27 0 011.008-.264c.312-.056.644-.084.996-.084.808 0 1.468.172 1.98.516.584.392.876.964.876 1.716 0 .536-.192 1-.576 1.392-.32.344-.736.596-1.248.756.256.032.492.1.708.204.224.104.416.248.576.432.184.2.324.428.42.684.096.248.144.524.144.828a2.36 2.36 0 01-.948 1.92 3.472 3.472 0 01-1.02.504 3.836 3.836 0 01-1.284.18 10.353 10.353 0 01-1.104-.072 5.242 5.242 0 01-.936-.216zm12.101-4.284c0-2.512-.688-3.768-2.064-3.768-1.376 0-2.064 1.256-2.064 3.768 0 2.52.688 3.78 2.064 3.78 1.376 0 2.064-1.26 2.064-3.78zm.864 0c0 3.024-.976 4.536-2.928 4.536-1.968 0-2.952-1.512-2.952-4.536 0-1.256.192-2.276.576-3.06.488-.984 1.28-1.476 2.376-1.476 1.08 0 1.868.492 2.364 1.476.184.392.324.84.42 1.344.096.504.144 1.076.144 1.716zm7.676-.612c.088 0 .136.008.144.024.016.008.024.056.024.144v.528c0 .088-.008.14-.024.156-.008.008-.056.012-.144.012h-2.808a.537.537 0 01-.156-.012.537.537 0 01-.012-.156v-.528c0-.088.004-.136.012-.144.016-.016.068-.024.156-.024h2.808zm8.503 4.932c0 .112-.056.168-.168.168h-.492c-.112 0-.168-.056-.168-.168v-7.8a119.25 119.25 0 00-1.38 1.176c-.088.072-.168.064-.24-.024l-.24-.288a.232.232 0 01-.036-.12c0-.048.02-.088.06-.12l1.86-1.56c.032-.032.08-.048.144-.048h.324c.168 0 .264.016.288.048.032.024.048.12.048.288v8.448zm8.597-4.32c0-2.512-.688-3.768-2.064-3.768-1.376 0-2.064 1.256-2.064 3.768 0 2.52.688 3.78 2.064 3.78 1.376 0 2.064-1.26 2.064-3.78zm.864 0c0 3.024-.976 4.536-2.928 4.536-1.968 0-2.952-1.512-2.952-4.536 0-1.256.192-2.276.576-3.06.488-.984 1.28-1.476 2.376-1.476 1.08 0 1.868.492 2.364 1.476.184.392.324.84.42 1.344.096.504.144 1.076.144 1.716zm1.878-2.688c0-.184.068-.344.204-.48a.657.657 0 01.48-.204c.184 0 .344.068.48.204a.657.657 0 01.204.48.657.657 0 01-.204.48.657.657 0 01-.48.204.657.657 0 01-.48-.204.657.657 0 01-.204-.48zm0 5.412c0-.184.068-.344.204-.48a.657.657 0 01.48-.204c.184 0 .344.068.48.204a.657.657 0 01.204.48.657.657 0 01-.204.48.657.657 0 01-.48.204.657.657 0 01-.48-.204.657.657 0 01-.204-.48zm3.345 1.56c-.12-.032-.172-.124-.156-.276l.048-.468c.016-.096.08-.12.192-.072.336.136.652.232.948.288.304.056.656.088 1.056.096.632.008 1.164-.152 1.596-.48.504-.336.756-.828.756-1.476 0-1.136-.852-1.704-2.556-1.704h-.624c-.104 0-.156-.044-.156-.132v-.444c0-.104.052-.156.156-.156h.06c.856 0 1.524-.092 2.004-.276.728-.28 1.092-.784 1.092-1.512 0-.232-.064-.444-.192-.636-.12-.2-.284-.368-.492-.504a2.618 2.618 0 00-.648-.264 2.922 2.922 0 00-.756-.096c-.272 0-.572.036-.9.108a6.195 6.195 0 00-.948.288c-.104.04-.164.008-.18-.096l-.048-.444c-.024-.112.028-.192.156-.24a7.27 7.27 0 011.008-.264c.312-.056.644-.084.996-.084.808 0 1.468.172 1.98.516.584.392.876.964.876 1.716 0 .536-.192 1-.576 1.392-.32.344-.736.596-1.248.756.256.032.492.1.708.204.224.104.416.248.576.432.184.2.324.428.42.684.096.248.144.524.144.828a2.36 2.36 0 01-.948 1.92 3.472 3.472 0 01-1.02.504 3.836 3.836 0 01-1.284.18 10.353 10.353 0 01-1.104-.072 5.242 5.242 0 01-.936-.216zm12.101-4.284c0-2.512-.688-3.768-2.064-3.768-1.376 0-2.064 1.256-2.064 3.768 0 2.52.688 3.78 2.064 3.78 1.376 0 2.064-1.26 2.064-3.78zm.864 0c0 3.024-.976 4.536-2.928 4.536-1.968 0-2.952-1.512-2.952-4.536 0-1.256.192-2.276.576-3.06.488-.984 1.28-1.476 2.376-1.476 1.08 0 1.868.492 2.364 1.476.184.392.324.84.42 1.344.096.504.144 1.076.144 1.716z" fill="#191D2B"/><path d="M81 33h232a4 4 0 014 4v89a4 4 0 01-4 4H81V33z" fill="#ECF6F3"/><path fill="#39C295" d="M81 33h2v97h-2z"/><path d="M103.465 77.555c0 .121-.061.182-.182.182h-.533c-.121 0-.182-.06-.182-.182v-6.539c0-.121.061-.182.182-.182h.533c.121 0 .182.06.182.182v6.539zm-7.423 1.781c0-.364.07-.607.208-.728.139-.13.399-.195.78-.195h5.447c.208 0 .373.013.494.039a.57.57 0 01.299.143c.078.07.13.165.156.286.026.121.039.273.039.455v2.457c0 .364-.069.607-.208.728-.139.13-.399.195-.78.195H97.03c-.208 0-.377-.013-.507-.039a.585.585 0 01-.299-.156.56.56 0 01-.143-.286 2.032 2.032 0 01-.039-.442v-2.457zm1.209-.143c-.121 0-.204.026-.247.078-.043.043-.065.13-.065.26v2.067c0 .13.022.217.065.26.043.052.126.078.247.078h5.005c.121 0 .204-.026.247-.078.043-.043.065-.13.065-.26v-2.067c0-.13-.022-.217-.065-.26-.043-.052-.126-.078-.247-.078h-5.005zm2.717-6.877a6.062 6.062 0 01-1.573 3.185c-.85.919-2.08 1.716-3.692 2.392-.147.06-.243.035-.286-.078l-.195-.429c-.035-.07-.039-.126-.013-.169a.288.288 0 01.117-.091c1.378-.572 2.457-1.248 3.237-2.028.789-.789 1.265-1.638 1.43-2.548.052-.251-.052-.377-.312-.377h-4.004c-.104 0-.156-.056-.156-.169v-.455c0-.104.052-.156.156-.156h4.303c.416 0 .698.074.845.221.147.147.195.381.143.702zm12.343 4.277c0 .312-.07.607-.208.884a2.33 2.33 0 01-.572.728 2.622 2.622 0 01-.845.494c-.33.113-.685.169-1.066.169a3.26 3.26 0 01-1.066-.169 2.765 2.765 0 01-.858-.494 2.395 2.395 0 01-.559-.728 2.057 2.057 0 01-.195-.884c0-.312.065-.602.195-.871.138-.277.325-.516.559-.715.242-.208.528-.368.858-.481a3.057 3.057 0 011.066-.182c.381 0 .736.06 1.066.182.329.113.611.273.845.481.242.2.433.438.572.715.138.269.208.559.208.871zm2.925 3.302c0 .121-.061.182-.182.182h-.533c-.122 0-.182-.06-.182-.182v-8.879c0-.121.06-.182.182-.182h.533c.121 0 .182.06.182.182v4.303h1.794c.052 0 .095.017.13.052a.128.128 0 01.065.117v.442c0 .043-.022.082-.065.117a.177.177 0 01-.13.052h-1.794v3.796zm-3.809-3.302a1.17 1.17 0 00-.143-.572 1.317 1.317 0 00-.377-.468 1.633 1.633 0 00-.572-.299 2.099 2.099 0 00-.715-.117c-.26 0-.499.039-.715.117a1.8 1.8 0 00-.572.299c-.165.13-.295.286-.39.468-.087.173-.13.364-.13.572 0 .208.043.403.13.585.095.182.225.338.39.468.164.13.355.234.572.312.216.078.455.117.715.117.26 0 .498-.039.715-.117a1.81 1.81 0 00.572-.312c.164-.13.29-.286.377-.468.095-.182.143-.377.143-.585zm4.394 5.876a.128.128 0 01-.065.117.254.254 0 01-.13.039h-6.708c-.408 0-.676-.078-.806-.234-.122-.147-.182-.399-.182-.754v-1.794c0-.121.06-.182.182-.182h.533c.121 0 .182.06.182.182v1.742c0 .121.017.195.052.221.043.026.125.039.247.039h6.5c.043 0 .086.013.13.039.043.035.065.074.065.117v.468zm-2.418-8.918c0 .113-.065.169-.195.169h-7.176a.206.206 0 01-.13-.052.175.175 0 01-.052-.13v-.416c0-.052.017-.095.052-.13a.206.206 0 01.13-.052h7.176c.13 0 .195.056.195.169v.442zm-1.898-1.768c0 .113-.065.169-.195.169h-3.562a.248.248 0 01-.13-.039c-.035-.026-.052-.065-.052-.117v-.455c0-.052.017-.095.052-.13a.16.16 0 01.117-.052h3.575c.13 0 .195.06.195.182v.442zm15.098.429c0-.13-.021-.217-.065-.26-.043-.052-.125-.078-.247-.078h-6.526c-.112 0-.169-.056-.169-.169v-.442c0-.113.057-.169.169-.169h6.721c.408 0 .676.074.806.221.13.139.195.394.195.767 0 .26-.013.542-.039.845a15.725 15.725 0 01-.208 1.781 8.143 8.143 0 01-.156.806h2.002c.044 0 .087.017.13.052a.126.126 0 01.065.117v.442c0 .043-.021.082-.065.117a.206.206 0 01-.13.052h-5.096v2.509h2.496c.408 0 .672.078.793.234.13.147.195.399.195.754v2.977c0 .121-.06.182-.182.182h-.533c-.121 0-.182-.06-.182-.182v-2.912c0-.121-.021-.195-.065-.221-.034-.035-.112-.052-.234-.052h-6.656a.254.254 0 01-.13-.039c-.043-.035-.065-.074-.065-.117v-.468c0-.052.022-.091.065-.117a.254.254 0 01.13-.039h3.471v-2.509h-5.057a.225.225 0 01-.143-.052.164.164 0 01-.052-.117v-.442c0-.052.018-.091.052-.117a.225.225 0 01.143-.052h8.229a13.938 13.938 0 00.247-1.651 9.64 9.64 0 00.065-.858c.018-.277.026-.542.026-.793zm10.747 11.089a.327.327 0 01-.117-.013c-.008 0-.03-.022-.065-.065-.788-.988-1.373-1.989-1.755-3.003a8.874 8.874 0 01-.572-3.146c0-1.075.191-2.119.572-3.133.382-1.014.967-2.02 1.755-3.016.035-.043.057-.065.065-.065a.226.226 0 01.091-.013h.364c.052 0 .078.004.078.013a.284.284 0 01-.039.078c-1.36 2.132-2.041 4.177-2.041 6.136 0 .997.174 2.002.52 3.016.347 1.014.858 2.054 1.534 3.12.044.06.022.091-.065.091h-.325zm5.477-11.869c0 .338-.022.667-.065.988-.035.32-.087.633-.156.936.104.355.251.71.442 1.066.199.347.429.68.689 1.001.269.312.559.598.871.858.312.251.633.455.962.611.052.026.074.06.065.104a.354.354 0 01-.026.13l-.26.429a.227.227 0 01-.091.091c-.035.017-.091.004-.169-.039a4.12 4.12 0 01-.793-.52 12.507 12.507 0 01-.806-.741 9.876 9.876 0 01-.728-.871 7.095 7.095 0 01-.559-.897 7.542 7.542 0 01-2.86 3.419.403.403 0 01-.143.052.13.13 0 01-.13-.052l-.325-.429c-.026-.035-.03-.078-.013-.13a.207.207 0 01.091-.117 5.7 5.7 0 001.274-1.066 6.63 6.63 0 00.988-1.404 6.693 6.693 0 00.624-1.638c.147-.59.217-1.187.208-1.794 0-.139.052-.208.156-.208l.611.039c.095 0 .143.06.143.182zm6.071 10.998a.128.128 0 01-.065.117.25.25 0 01-.13.039h-6.513c-.407 0-.676-.078-.806-.234-.121-.147-.182-.399-.182-.754V79.05c0-.121.061-.182.182-.182h.533c.121 0 .182.06.182.182v2.483c0 .121.017.195.052.221.043.035.126.052.247.052h6.305a.25.25 0 01.13.039c.043.035.065.074.065.117v.468zm-.39-3.12c0 .121-.061.182-.182.182h-.533c-.121 0-.182-.06-.182-.182v-8.294c0-.121.061-.182.182-.182h.533c.121 0 .182.06.182.182v8.294zm10.081-1.261c.078-.009.125 0 .143.026.026.017.043.048.052.091l.052.416c.008.052 0 .091-.026.117-.018.026-.065.048-.143.065-.702.095-1.487.173-2.353.234-.858.06-1.721.091-2.587.091h-2.704a.223.223 0 01-.143-.052.16.16 0 01-.052-.117v-.39c0-.052.017-.091.052-.117a.272.272 0 01.143-.039h2.782c.182 0 .372-.004.572-.013v-1.066a4.14 4.14 0 01-.988-.208 2.798 2.798 0 01-.754-.39 1.73 1.73 0 01-.481-.533 1.368 1.368 0 01-.169-.663c0-.26.065-.498.195-.715.138-.225.329-.416.572-.572.251-.156.55-.277.897-.364a4.356 4.356 0 011.157-.143c.416 0 .797.048 1.144.143.346.087.641.212.884.377.251.156.446.347.585.572.138.217.208.45.208.702 0 .234-.057.455-.169.663-.113.2-.273.377-.481.533-.2.156-.447.286-.741.39a3.932 3.932 0 01-.962.208v1.027c.589-.035 1.17-.074 1.742-.117.58-.052 1.105-.104 1.573-.156zm1.69 1.898c0 .121-.061.182-.182.182h-.533c-.122 0-.182-.06-.182-.182v-8.931c0-.121.06-.182.182-.182h.533c.121 0 .182.06.182.182v4.355h1.794c.052 0 .095.017.13.052a.128.128 0 01.065.117v.442c0 .043-.022.082-.065.117a.177.177 0 01-.13.052h-1.794v3.796zm.52 2.522a.128.128 0 01-.065.117.254.254 0 01-.13.039h-6.825c-.408 0-.676-.078-.806-.234-.122-.147-.182-.399-.182-.754v-1.612c0-.121.06-.182.182-.182h.533c.121 0 .182.06.182.182v1.547c0 .121.017.195.052.221.043.035.125.052.247.052h6.617c.043 0 .086.013.13.039.043.035.065.074.065.117v.468zm-4.056-6.968c0-.32-.178-.572-.533-.754-.356-.19-.824-.286-1.404-.286-.581 0-1.053.091-1.417.273-.356.182-.533.438-.533.767 0 .312.177.568.533.767.364.19.836.286 1.417.286.58 0 1.048-.095 1.404-.286.355-.2.533-.455.533-.767zm1.612-2.483c0 .113-.065.169-.195.169h-6.656a.206.206 0 01-.13-.052.175.175 0 01-.052-.13v-.377c0-.052.017-.095.052-.13a.206.206 0 01.13-.052h6.656c.13 0 .195.056.195.169v.403zm-1.898-1.417c0 .121-.065.182-.195.182h-3.042a.248.248 0 01-.13-.039.175.175 0 01-.052-.13v-.39c0-.052.017-.095.052-.13a.16.16 0 01.117-.052h3.055c.13 0 .195.06.195.182v.377zm14.63 10.543c0 .121-.061.182-.182.182h-.494c-.121 0-.182-.06-.182-.182v-4.225h-1.859c-.251.59-.589 1.027-1.014 1.313a2.4 2.4 0 01-1.391.429c-.39 0-.75-.082-1.079-.247a2.531 2.531 0 01-.858-.754c-.243-.338-.433-.758-.572-1.261-.139-.503-.208-1.092-.208-1.768 0-.676.069-1.261.208-1.755.139-.503.329-.919.572-1.248.251-.338.542-.585.871-.741a2.377 2.377 0 011.079-.247c.546 0 1.04.165 1.482.494.442.32.78.815 1.014 1.482h1.755v-2.379c0-.121.061-.182.182-.182h.494c.121 0 .182.06.182.182v10.907zm-3.224-6.513c0-.399-.039-.789-.117-1.17a3.979 3.979 0 00-.351-1.027 2.077 2.077 0 00-.598-.728 1.275 1.275 0 00-.832-.286c-.338 0-.624.095-.858.286-.225.19-.412.442-.559.754a3.957 3.957 0 00-.299 1.027 7.23 7.23 0 00-.091 1.144c0 .381.035.767.104 1.157.069.381.173.728.312 1.04.147.312.334.568.559.767.234.19.511.286.832.286.321 0 .598-.095.832-.286.243-.19.442-.438.598-.741.156-.312.273-.663.351-1.053.078-.39.117-.78.117-1.17zm5.525 7.007c0 .121-.061.182-.182.182h-.494c-.121 0-.182-.06-.182-.182V71.016c0-.121.061-.182.182-.182h.494c.121 0 .182.06.182.182v11.622zm-4.615-6.994a6.61 6.61 0 01-.156 1.508h1.612v-2.769h-1.56c.035.2.061.403.078.611.017.208.026.425.026.65zm13.162-1.339c0 .433-.078.832-.234 1.196a2.79 2.79 0 01-.65.923 2.87 2.87 0 01-.975.611 3.336 3.336 0 01-1.235.221 3.45 3.45 0 01-1.209-.208 3.04 3.04 0 01-.975-.611 2.84 2.84 0 01-.637-.936 3.146 3.146 0 01-.221-1.196c0-.46.073-.871.221-1.235a2.67 2.67 0 01.637-.936c.277-.26.602-.455.975-.585a3.434 3.434 0 011.209-.208c.416 0 .81.07 1.183.208.372.13.697.32.975.572.286.251.511.563.676.936.173.364.26.78.26 1.248zm-.91-.013c0-.347-.061-.65-.182-.91a1.775 1.775 0 00-.468-.663 1.896 1.896 0 00-.702-.403 2.401 2.401 0 00-.832-.143c-.304 0-.585.048-.845.143a1.78 1.78 0 00-.676.403 1.83 1.83 0 00-.455.663 2.44 2.44 0 00-.156.91c0 .33.052.624.156.884.104.26.247.485.429.676.19.19.416.338.676.442.26.095.55.143.871.143.294 0 .572-.048.832-.143a2.066 2.066 0 001.17-1.118c.121-.26.182-.555.182-.884zm3.705 3.276c0 .121-.061.182-.182.182h-.533c-.122 0-.182-.06-.182-.182v-6.552c0-.121.06-.182.182-.182h.533c.121 0 .182.06.182.182v1.976h1.794c.052 0 .095.017.13.052a.128.128 0 01.065.117v.429c0 .043-.022.082-.065.117a.177.177 0 01-.13.052h-1.794v1.56h1.794c.052 0 .095.017.13.052a.128.128 0 01.065.117v.429c0 .043-.022.082-.065.117a.177.177 0 01-.13.052h-1.794v1.482zm-7.579 1.066c0-.052.021-.091.065-.117a.248.248 0 01.13-.039h6.396c.407 0 .671.078.793.234.13.147.195.399.195.754v3.224c0 .121-.061.182-.182.182h-.533c-.122 0-.182-.06-.182-.182v-3.159c0-.121-.022-.195-.065-.221-.035-.035-.113-.052-.234-.052h-6.188a.248.248 0 01-.13-.039c-.044-.035-.065-.074-.065-.117v-.468zm10.405 4.667c-.078 0-.095-.03-.052-.091.676-1.066 1.183-2.106 1.521-3.12a9.27 9.27 0 00.52-3.016c0-.988-.169-1.989-.507-3.003-.338-1.023-.845-2.067-1.521-3.133a.284.284 0 01-.039-.078c0-.009.022-.013.065-.013h.364c.044 0 .07.004.078.013.018 0 .048.022.091.065.789.997 1.37 2.002 1.742 3.016a8.816 8.816 0 01.572 3.133c0 1.083-.19 2.132-.572 3.146-.372 1.014-.953 2.015-1.742 3.003-.043.043-.073.065-.091.065-.008.009-.043.013-.104.013h-.325zm13.983-6.552c0-2.721-.746-4.082-2.236-4.082-1.491 0-2.236 1.36-2.236 4.082 0 2.73.745 4.095 2.236 4.095 1.49 0 2.236-1.365 2.236-4.095zm.936 0c0 3.276-1.058 4.914-3.172 4.914-2.132 0-3.198-1.638-3.198-4.914 0-1.36.208-2.466.624-3.315.528-1.066 1.386-1.599 2.574-1.599 1.17 0 2.023.533 2.561 1.599.199.425.351.91.455 1.456.104.546.156 1.166.156 1.859zm5.517 4.68c0 .121-.06.182-.182.182h-.533c-.121 0-.182-.06-.182-.182v-8.45a155.901 155.901 0 00-1.495 1.274c-.095.078-.182.07-.26-.026l-.26-.312a.25.25 0 01-.039-.13c0-.052.022-.095.065-.13l2.015-1.69c.035-.035.087-.052.156-.052h.351c.182 0 .286.017.312.052.035.026.052.13.052.312v9.152zm9.314-4.68c0-2.721-.745-4.082-2.236-4.082s-2.236 1.36-2.236 4.082c0 2.73.745 4.095 2.236 4.095s2.236-1.365 2.236-4.095zm.936 0c0 3.276-1.057 4.914-3.172 4.914-2.132 0-3.198-1.638-3.198-4.914 0-1.36.208-2.466.624-3.315.529-1.066 1.387-1.599 2.574-1.599 1.17 0 2.024.533 2.561 1.599.199.425.351.91.455 1.456.104.546.156 1.166.156 1.859zm4.673-.663c.095 0 .147.009.156.026.017.009.026.06.026.156v.572c0 .095-.009.152-.026.169-.009.009-.061.013-.156.013h-3.042a.58.58 0 01-.169-.013.57.57 0 01-.013-.169v-.572c0-.095.004-.147.013-.156.017-.017.074-.026.169-.026h3.042zm6.998.663c0-2.721-.746-4.082-2.236-4.082-1.491 0-2.236 1.36-2.236 4.082 0 2.73.745 4.095 2.236 4.095 1.49 0 2.236-1.365 2.236-4.095zm.936 0c0 3.276-1.058 4.914-3.172 4.914-2.132 0-3.198-1.638-3.198-4.914 0-1.36.208-2.466.624-3.315.528-1.066 1.386-1.599 2.574-1.599 1.17 0 2.023.533 2.561 1.599.199.425.351.91.455 1.456.104.546.156 1.166.156 1.859zm6.947 0c0-2.721-.745-4.082-2.236-4.082-1.49 0-2.236 1.36-2.236 4.082 0 2.73.746 4.095 2.236 4.095 1.491 0 2.236-1.365 2.236-4.095zm.936 0c0 3.276-1.057 4.914-3.172 4.914-2.132 0-3.198-1.638-3.198-4.914 0-1.36.208-2.466.624-3.315.529-1.066 1.387-1.599 2.574-1.599 1.17 0 2.024.533 2.561 1.599.2.425.351.91.455 1.456.104.546.156 1.166.156 1.859zm6.948 0c0-2.721-.745-4.082-2.236-4.082s-2.236 1.36-2.236 4.082c0 2.73.745 4.095 2.236 4.095s2.236-1.365 2.236-4.095zm.936 0c0 3.276-1.057 4.914-3.172 4.914-2.132 0-3.198-1.638-3.198-4.914 0-1.36.208-2.466.624-3.315.529-1.066 1.387-1.599 2.574-1.599 1.17 0 2.024.533 2.561 1.599.199.425.351.91.455 1.456.104.546.156 1.166.156 1.859zm6.948 0c0-2.721-.745-4.082-2.236-4.082s-2.236 1.36-2.236 4.082c0 2.73.745 4.095 2.236 4.095s2.236-1.365 2.236-4.095zm.936 0c0 3.276-1.057 4.914-3.172 4.914-2.132 0-3.198-1.638-3.198-4.914 0-1.36.208-2.466.624-3.315.529-1.066 1.387-1.599 2.574-1.599 1.17 0 2.024.533 2.561 1.599.199.425.351.91.455 1.456.104.546.156 1.166.156 1.859zm4.673-.663c.095 0 .147.009.156.026.017.009.026.06.026.156v.572c0 .095-.009.152-.026.169-.009.009-.061.013-.156.013h-3.042a.576.576 0 01-.169-.013.57.57 0 01-.013-.169v-.572c0-.095.004-.147.013-.156.017-.017.073-.026.169-.026h3.042zm6.997.663c0-2.721-.745-4.082-2.236-4.082-1.49 0-2.236 1.36-2.236 4.082 0 2.73.746 4.095 2.236 4.095 1.491 0 2.236-1.365 2.236-4.095zm.936 0c0 3.276-1.057 4.914-3.172 4.914-2.132 0-3.198-1.638-3.198-4.914 0-1.36.208-2.466.624-3.315.529-1.066 1.387-1.599 2.574-1.599 1.17 0 2.024.533 2.561 1.599.2.425.351.91.455 1.456.104.546.156 1.166.156 1.859zm6.948 0c0-2.721-.745-4.082-2.236-4.082s-2.236 1.36-2.236 4.082c0 2.73.745 4.095 2.236 4.095s2.236-1.365 2.236-4.095zm.936 0c0 3.276-1.057 4.914-3.172 4.914-2.132 0-3.198-1.638-3.198-4.914 0-1.36.208-2.466.624-3.315.529-1.066 1.387-1.599 2.574-1.599 1.17 0 2.024.533 2.561 1.599.199.425.351.91.455 1.456.104.546.156 1.166.156 1.859zm6.948 0c0-2.721-.745-4.082-2.236-4.082s-2.236 1.36-2.236 4.082c0 2.73.745 4.095 2.236 4.095s2.236-1.365 2.236-4.095zm.936 0c0 3.276-1.057 4.914-3.172 4.914-2.132 0-3.198-1.638-3.198-4.914 0-1.36.208-2.466.624-3.315.529-1.066 1.387-1.599 2.574-1.599 1.17 0 2.024.533 2.561 1.599.199.425.351.91.455 1.456.104.546.156 1.166.156 1.859zm6.948 0c0-2.721-.746-4.082-2.236-4.082-1.491 0-2.236 1.36-2.236 4.082 0 2.73.745 4.095 2.236 4.095 1.49 0 2.236-1.365 2.236-4.095zm.936 0c0 3.276-1.058 4.914-3.172 4.914-2.132 0-3.198-1.638-3.198-4.914 0-1.36.208-2.466.624-3.315.528-1.066 1.386-1.599 2.574-1.599 1.17 0 2.023.533 2.561 1.599.199.425.351.91.455 1.456.104.546.156 1.166.156 1.859z" fill="#191D2B"/><path opacity=".5" d="M98.748 48.076c0-2.512-.688-3.768-2.064-3.768-1.376 0-2.064 1.256-2.064 3.768 0 2.52.688 3.78 2.064 3.78 1.376 0 2.064-1.26 2.064-3.78zm.864 0c0 3.024-.976 4.536-2.928 4.536-1.968 0-2.952-1.512-2.952-4.536 0-1.256.192-2.276.576-3.06.488-.984 1.28-1.476 2.376-1.476 1.08 0 1.868.492 2.364 1.476.184.392.324.84.42 1.344.096.504.144 1.076.144 1.716zm6.281-1.56c0-.624-.168-1.148-.504-1.572-.368-.456-.856-.684-1.464-.684-.648 0-1.156.204-1.524.612-.36.384-.54.896-.54 1.536 0 .68.164 1.208.492 1.584h-.012c.344.368.832.552 1.464.552.656 0 1.168-.184 1.536-.552.368-.384.552-.876.552-1.476zm-4.392 5.964c-.12-.024-.172-.116-.156-.276l.036-.42c.016-.096.08-.12.192-.072.2.08.4.136.6.168.208.032.44.048.696.048.56 0 1.048-.108 1.464-.324.416-.224.756-.54 1.02-.948.4-.672.608-1.524.624-2.556-.488.784-1.212 1.176-2.172 1.176-.736 0-1.352-.188-1.848-.564-.632-.488-.948-1.236-.948-2.244 0-.888.26-1.596.78-2.124.528-.552 1.248-.828 2.16-.828 1.92 0 2.88 1.416 2.88 4.248 0 3.256-1.348 4.884-4.044 4.884-.368 0-.796-.056-1.284-.168zm7.266-7.092c0-.184.068-.344.204-.48a.657.657 0 01.48-.204c.184 0 .344.068.48.204a.657.657 0 01.204.48.657.657 0 01-.204.48.657.657 0 01-.48.204.657.657 0 01-.48-.204.657.657 0 01-.204-.48zm0 5.412c0-.184.068-.344.204-.48a.657.657 0 01.48-.204c.184 0 .344.068.48.204a.657.657 0 01.204.48.657.657 0 01-.204.48.657.657 0 01-.48.204.657.657 0 01-.48-.204.657.657 0 01-.204-.48zm8.169-2.724c0-2.512-.688-3.768-2.064-3.768-1.376 0-2.064 1.256-2.064 3.768 0 2.52.688 3.78 2.064 3.78 1.376 0 2.064-1.26 2.064-3.78zm.863 0c0 3.024-.975 4.536-2.927 4.536-1.968 0-2.952-1.512-2.952-4.536 0-1.256.192-2.276.576-3.06.488-.984 1.28-1.476 2.376-1.476 1.08 0 1.868.492 2.364 1.476.184.392.324.84.42 1.344.096.504.143 1.076.143 1.716zm6.414 0c0-2.512-.688-3.768-2.064-3.768-1.376 0-2.064 1.256-2.064 3.768 0 2.52.688 3.78 2.064 3.78 1.376 0 2.064-1.26 2.064-3.78zm.864 0c0 3.024-.976 4.536-2.928 4.536-1.968 0-2.952-1.512-2.952-4.536 0-1.256.192-2.276.576-3.06.488-.984 1.28-1.476 2.376-1.476 1.08 0 1.868.492 2.364 1.476.184.392.324.84.42 1.344.096.504.144 1.076.144 1.716zm7.676-.612c.088 0 .136.008.144.024.016.008.024.056.024.144v.528c0 .088-.008.14-.024.156-.008.008-.056.012-.144.012h-2.808a.537.537 0 01-.156-.012.537.537 0 01-.012-.156v-.528c0-.088.004-.136.012-.144.016-.016.068-.024.156-.024h2.808zm8.503 4.932c0 .112-.056.168-.168.168h-.492c-.112 0-.168-.056-.168-.168v-7.8a119.25 119.25 0 00-1.38 1.176c-.088.072-.168.064-.24-.024l-.24-.288a.232.232 0 01-.036-.12c0-.048.02-.088.06-.12l1.86-1.56c.032-.032.08-.048.144-.048h.324c.168 0 .264.016.288.048.032.024.048.12.048.288v8.448zm8.597-4.32c0-2.512-.688-3.768-2.064-3.768-1.376 0-2.064 1.256-2.064 3.768 0 2.52.688 3.78 2.064 3.78 1.376 0 2.064-1.26 2.064-3.78zm.864 0c0 3.024-.976 4.536-2.928 4.536-1.968 0-2.952-1.512-2.952-4.536 0-1.256.192-2.276.576-3.06.488-.984 1.28-1.476 2.376-1.476 1.08 0 1.868.492 2.364 1.476.184.392.324.84.42 1.344.096.504.144 1.076.144 1.716zm1.878-2.688c0-.184.068-.344.204-.48a.657.657 0 01.48-.204c.184 0 .344.068.48.204a.657.657 0 01.204.48.657.657 0 01-.204.48.657.657 0 01-.48.204.657.657 0 01-.48-.204.657.657 0 01-.204-.48zm0 5.412c0-.184.068-.344.204-.48a.657.657 0 01.48-.204c.184 0 .344.068.48.204a.657.657 0 01.204.48.657.657 0 01-.204.48.657.657 0 01-.48.204.657.657 0 01-.48-.204.657.657 0 01-.204-.48zm8.169-2.724c0-2.512-.688-3.768-2.064-3.768-1.376 0-2.064 1.256-2.064 3.768 0 2.52.688 3.78 2.064 3.78 1.376 0 2.064-1.26 2.064-3.78zm.864 0c0 3.024-.976 4.536-2.928 4.536-1.968 0-2.952-1.512-2.952-4.536 0-1.256.192-2.276.576-3.06.488-.984 1.28-1.476 2.376-1.476 1.08 0 1.868.492 2.364 1.476.184.392.324.84.42 1.344.096.504.144 1.076.144 1.716zm6.413 0c0-2.512-.688-3.768-2.064-3.768-1.376 0-2.064 1.256-2.064 3.768 0 2.52.688 3.78 2.064 3.78 1.376 0 2.064-1.26 2.064-3.78zm.864 0c0 3.024-.976 4.536-2.928 4.536-1.968 0-2.952-1.512-2.952-4.536 0-1.256.192-2.276.576-3.06.488-.984 1.28-1.476 2.376-1.476 1.08 0 1.868.492 2.364 1.476.184.392.324.84.42 1.344.096.504.144 1.076.144 1.716z" fill="#191D2B"/><path d="M570 131h476a4 4 0 014 4v138a4 4 0 01-4 4H570V131z" fill="#FBF3EC"/><path fill="#E37713" d="M570 131h2v146h-2z"/><path d="M589.423 173.787c0 .485-.061.975-.182 1.469-.113.494-.295.94-.546 1.339a3.202 3.202 0 01-.975.988c-.39.251-.862.377-1.417.377-.572 0-1.057-.126-1.456-.377a2.998 2.998 0 01-.949-.975 4.591 4.591 0 01-.507-1.352 7.118 7.118 0 01-.156-1.469c0-.511.052-1.014.156-1.508.104-.503.273-.953.507-1.352.243-.399.559-.719.949-.962.399-.243.884-.364 1.456-.364.555 0 1.027.121 1.417.364.399.243.724.563.975.962.251.39.433.836.546 1.339a6.37 6.37 0 01.182 1.521zm-.923-.013a5.77 5.77 0 00-.13-1.209 3.793 3.793 0 00-.377-1.092 2.244 2.244 0 00-.676-.793c-.277-.208-.615-.312-1.014-.312-.416 0-.763.104-1.04.312a2.181 2.181 0 00-.65.793 3.743 3.743 0 00-.351 1.092c-.069.407-.104.81-.104 1.209 0 .381.03.776.091 1.183.069.399.186.767.351 1.105.165.329.386.602.663.819.277.208.624.312 1.04.312.399 0 .737-.104 1.014-.312a2.51 2.51 0 00.676-.819c.173-.338.299-.706.377-1.105.087-.407.13-.802.13-1.183zm3.965 6.864c0 .121-.061.182-.182.182h-.533c-.121 0-.182-.061-.182-.182v-11.622c0-.121.061-.182.182-.182h.533c.121 0 .182.061.182.182v11.622zm12.226 0c0 .121-.061.182-.182.182h-.533c-.122 0-.182-.061-.182-.182v-11.622c0-.121.06-.182.182-.182h.533c.121 0 .182.061.182.182v11.622zm-9.035-9.906c0-.364.069-.607.208-.728.138-.13.398-.195.78-.195h3.822c.208 0 .372.013.494.039.13.026.229.074.299.143.078.069.13.165.156.286.026.121.039.273.039.455v5.759c0 .364-.07.611-.208.741-.139.121-.399.182-.78.182h-3.822c-.208 0-.377-.013-.507-.039a.643.643 0 01-.299-.143.63.63 0 01-.143-.286 2.22 2.22 0 01-.039-.455v-5.759zm1.209-.143c-.122 0-.204.026-.247.078-.044.043-.065.13-.065.26v5.369c0 .13.021.221.065.273.043.043.125.065.247.065h3.38c.121 0 .203-.022.247-.065.043-.052.065-.143.065-.273v-5.369c0-.13-.022-.217-.065-.26-.044-.052-.126-.078-.247-.078h-3.38zm20.103 7.904c0 .373-.099.706-.299 1.001a2.415 2.415 0 01-.819.741 3.91 3.91 0 01-1.196.468 5.97 5.97 0 01-1.456.169 6.434 6.434 0 01-1.534-.169 3.76 3.76 0 01-1.183-.468 2.245 2.245 0 01-.767-.741 1.866 1.866 0 01-.273-1.001c0-.364.091-.689.273-.975.182-.295.438-.542.767-.741a3.76 3.76 0 011.183-.468c.46-.113.971-.169 1.534-.169.52 0 1.006.056 1.456.169.46.104.858.256 1.196.455.347.199.62.446.819.741.2.286.299.615.299.988zm-.923.039c0-.26-.078-.49-.234-.689a1.77 1.77 0 00-.637-.494 3.277 3.277 0 00-.91-.312 4.895 4.895 0 00-1.079-.117c-.416 0-.797.039-1.144.117a3.11 3.11 0 00-.897.312c-.242.13-.433.295-.572.494a1.18 1.18 0 00-.208.689c0 .251.07.472.208.663.139.199.33.364.572.494.252.13.551.23.897.299.347.069.728.104 1.144.104.373 0 .733-.035 1.079-.104a3.6 3.6 0 00.91-.299 1.77 1.77 0 00.637-.494c.156-.191.234-.412.234-.663zm-2.873-7.995a4.722 4.722 0 01-.52 1.053 7.35 7.35 0 01-.78 1.027c.295.312.659.611 1.092.897.434.277.906.524 1.417.741.07.026.109.065.117.117a.177.177 0 01-.026.13l-.26.468a.162.162 0 01-.117.078.391.391 0 01-.143-.026 11.31 11.31 0 01-.624-.312c-.216-.121-.442-.26-.676-.416a11.86 11.86 0 01-.702-.507 8.329 8.329 0 01-.637-.572c-.494.485-1.04.927-1.638 1.326-.589.399-1.187.732-1.794 1.001a.774.774 0 01-.13.039c-.043.009-.078-.009-.104-.052l-.26-.455a.14.14 0 01-.013-.13.202.202 0 01.104-.104c1.118-.537 2.072-1.153 2.86-1.846a7.597 7.597 0 001.846-2.405c.061-.121.07-.208.026-.26-.043-.052-.125-.078-.247-.078h-3.809c-.104 0-.156-.056-.156-.169v-.455c0-.104.052-.156.156-.156h4.16c.451 0 .741.082.871.247.13.156.126.429-.013.819zm2.847 1.313v-2.834c0-.121.061-.182.182-.182h.533c.122 0 .182.061.182.182v6.838c0 .121-.06.182-.182.182h-.533c-.121 0-.182-.061-.182-.182v-3.224h-2.405c-.112 0-.169-.052-.169-.156v-.468c0-.104.057-.156.169-.156h2.405zm10.331 9.451a.32.32 0 01-.117-.013c-.008 0-.03-.022-.065-.065-.788-.988-1.373-1.989-1.755-3.003a8.875 8.875 0 01-.572-3.146c0-1.075.191-2.119.572-3.133.382-1.014.967-2.019 1.755-3.016.035-.043.057-.065.065-.065a.22.22 0 01.091-.013h.364c.052 0 .078.004.078.013a.276.276 0 01-.039.078c-1.36 2.132-2.041 4.177-2.041 6.136 0 .997.174 2.002.52 3.016.347 1.014.858 2.054 1.534 3.12.044.061.022.091-.065.091h-.325zm5.49-1.872c0 .121-.061.182-.182.182h-.533c-.121 0-.182-.061-.182-.182v-8.45a118.993 118.993 0 00-1.495 1.274c-.095.078-.182.069-.26-.026l-.26-.312a.25.25 0 01-.039-.13c0-.052.022-.095.065-.13l2.015-1.69c.035-.035.087-.052.156-.052h.351c.182 0 .286.017.312.052.035.026.052.13.052.312v9.152zm7.884 0c0 .121-.061.182-.182.182h-.533c-.122 0-.182-.061-.182-.182v-8.45a118.993 118.993 0 00-1.495 1.274c-.096.078-.182.069-.26-.026l-.26-.312a.25.25 0 01-.039-.13c0-.052.021-.095.065-.13l2.015-1.69c.034-.035.086-.052.156-.052h.351c.182 0 .286.017.312.052.034.026.052.13.052.312v9.152zm9.067-7.254c0-.494-.217-.884-.65-1.17-.382-.269-.828-.403-1.339-.403-.555 0-1.023.139-1.404.416-.416.277-.624.663-.624 1.157 0 .451.216.858.65 1.222.121.113.281.234.481.364.208.13.45.26.728.39a.396.396 0 00.169.052.933.933 0 00.195-.078c.554-.303.992-.62 1.313-.949.32-.338.481-.672.481-1.001zm.325 4.875c0-.477-.217-.893-.65-1.248a4.11 4.11 0 00-.585-.377c-.252-.139-.559-.29-.923-.455-.113-.061-.239-.061-.377 0a6.75 6.75 0 00-.897.416c-.26.139-.468.269-.624.39a2.181 2.181 0 00-.429.611 1.715 1.715 0 00-.156.728c0 .529.247.962.741 1.3.45.338.979.507 1.586.507.624 0 1.148-.147 1.573-.442.494-.338.741-.815.741-1.43zm.91.065c0 .425-.091.806-.273 1.144-.174.338-.425.62-.754.845a3.428 3.428 0 01-.988.442 4.487 4.487 0 01-1.209.156c-.425 0-.824-.056-1.196-.169a3.942 3.942 0 01-1.001-.468 2.535 2.535 0 01-.767-.845 2.293 2.293 0 01-.273-1.105c0-.676.225-1.226.676-1.651.346-.329.879-.628 1.599-.897-1.318-.65-1.976-1.482-1.976-2.496 0-.364.091-.685.273-.962.182-.286.437-.542.767-.767a3.37 3.37 0 01.884-.39c.32-.095.658-.143 1.014-.143.416 0 .788.048 1.118.143.329.087.628.221.897.403.598.416.897.988.897 1.716 0 .901-.676 1.733-2.028 2.496.355.13.671.273.949.429.286.156.515.312.689.468.468.416.702.966.702 1.651zm1.279 4.186c-.078 0-.095-.03-.052-.091.676-1.066 1.183-2.106 1.521-3.12a9.269 9.269 0 00.52-3.016c0-.988-.169-1.989-.507-3.003-.338-1.023-.845-2.067-1.521-3.133a.276.276 0 01-.039-.078c0-.009.022-.013.065-.013h.364c.044 0 .07.004.078.013.018 0 .048.022.091.065.789.997 1.37 2.002 1.742 3.016a8.815 8.815 0 01.572 3.133c0 1.083-.19 2.132-.572 3.146-.372 1.014-.953 2.015-1.742 3.003-.043.043-.073.065-.091.065-.008.009-.043.013-.104.013h-.325zm13.983-6.552c0-2.721-.746-4.082-2.236-4.082-1.491 0-2.236 1.361-2.236 4.082 0 2.73.745 4.095 2.236 4.095 1.49 0 2.236-1.365 2.236-4.095zm.936 0c0 3.276-1.058 4.914-3.172 4.914-2.132 0-3.198-1.638-3.198-4.914 0-1.361.208-2.466.624-3.315.528-1.066 1.386-1.599 2.574-1.599 1.17 0 2.023.533 2.561 1.599.199.425.351.91.455 1.456.104.546.156 1.166.156 1.859zm5.517 4.68c0 .121-.06.182-.182.182h-.533c-.121 0-.182-.061-.182-.182v-8.45a155.901 155.901 0 00-1.495 1.274c-.095.078-.182.069-.26-.026l-.26-.312a.25.25 0 01-.039-.13c0-.052.022-.095.065-.13l2.015-1.69c.035-.035.087-.052.156-.052h.351c.182 0 .286.017.312.052.035.026.052.13.052.312v9.152zm9.314-4.68c0-2.721-.745-4.082-2.236-4.082s-2.236 1.361-2.236 4.082c0 2.73.745 4.095 2.236 4.095s2.236-1.365 2.236-4.095zm.936 0c0 3.276-1.057 4.914-3.172 4.914-2.132 0-3.198-1.638-3.198-4.914 0-1.361.208-2.466.624-3.315.529-1.066 1.387-1.599 2.574-1.599 1.17 0 2.024.533 2.561 1.599.199.425.351.91.455 1.456.104.546.156 1.166.156 1.859zm4.673-.663c.095 0 .147.009.156.026.017.009.026.061.026.156v.572c0 .095-.009.152-.026.169-.009.009-.061.013-.156.013h-3.042a.57.57 0 01-.169-.013.57.57 0 01-.013-.169v-.572c0-.095.004-.147.013-.156.017-.017.074-.026.169-.026h3.042zm6.998.663c0-2.721-.746-4.082-2.236-4.082-1.491 0-2.236 1.361-2.236 4.082 0 2.73.745 4.095 2.236 4.095 1.49 0 2.236-1.365 2.236-4.095zm.936 0c0 3.276-1.058 4.914-3.172 4.914-2.132 0-3.198-1.638-3.198-4.914 0-1.361.208-2.466.624-3.315.528-1.066 1.386-1.599 2.574-1.599 1.17 0 2.023.533 2.561 1.599.199.425.351.91.455 1.456.104.546.156 1.166.156 1.859zm6.947 0c0-2.721-.745-4.082-2.236-4.082-1.49 0-2.236 1.361-2.236 4.082 0 2.73.746 4.095 2.236 4.095 1.491 0 2.236-1.365 2.236-4.095zm.936 0c0 3.276-1.057 4.914-3.172 4.914-2.132 0-3.198-1.638-3.198-4.914 0-1.361.208-2.466.624-3.315.529-1.066 1.387-1.599 2.574-1.599 1.17 0 2.024.533 2.561 1.599.2.425.351.91.455 1.456.104.546.156 1.166.156 1.859zm6.948 0c0-2.721-.745-4.082-2.236-4.082s-2.236 1.361-2.236 4.082c0 2.73.745 4.095 2.236 4.095s2.236-1.365 2.236-4.095zm.936 0c0 3.276-1.057 4.914-3.172 4.914-2.132 0-3.198-1.638-3.198-4.914 0-1.361.208-2.466.624-3.315.529-1.066 1.387-1.599 2.574-1.599 1.17 0 2.024.533 2.561 1.599.199.425.351.91.455 1.456.104.546.156 1.166.156 1.859zm6.948 0c0-2.721-.745-4.082-2.236-4.082s-2.236 1.361-2.236 4.082c0 2.73.745 4.095 2.236 4.095s2.236-1.365 2.236-4.095zm.936 0c0 3.276-1.057 4.914-3.172 4.914-2.132 0-3.198-1.638-3.198-4.914 0-1.361.208-2.466.624-3.315.529-1.066 1.387-1.599 2.574-1.599 1.17 0 2.024.533 2.561 1.599.199.425.351.91.455 1.456.104.546.156 1.166.156 1.859zm4.673-.663c.095 0 .147.009.156.026.017.009.026.061.026.156v.572c0 .095-.009.152-.026.169-.009.009-.061.013-.156.013h-3.042a.565.565 0 01-.169-.013.57.57 0 01-.013-.169v-.572c0-.095.004-.147.013-.156.017-.017.073-.026.169-.026h3.042zm6.997.663c0-2.721-.745-4.082-2.236-4.082-1.49 0-2.236 1.361-2.236 4.082 0 2.73.746 4.095 2.236 4.095 1.491 0 2.236-1.365 2.236-4.095zm.936 0c0 3.276-1.057 4.914-3.172 4.914-2.132 0-3.198-1.638-3.198-4.914 0-1.361.208-2.466.624-3.315.529-1.066 1.387-1.599 2.574-1.599 1.17 0 2.024.533 2.561 1.599.2.425.351.91.455 1.456.104.546.156 1.166.156 1.859zm6.948 0c0-2.721-.745-4.082-2.236-4.082-1.49 0-2.236 1.361-2.236 4.082 0 2.73.746 4.095 2.236 4.095 1.491 0 2.236-1.365 2.236-4.095zm.936 0c0 3.276-1.057 4.914-3.172 4.914-2.132 0-3.198-1.638-3.198-4.914 0-1.361.208-2.466.624-3.315.529-1.066 1.387-1.599 2.574-1.599 1.17 0 2.024.533 2.561 1.599.2.425.351.91.455 1.456.104.546.156 1.166.156 1.859zm6.948 0c0-2.721-.745-4.082-2.236-4.082s-2.236 1.361-2.236 4.082c0 2.73.745 4.095 2.236 4.095s2.236-1.365 2.236-4.095zm.936 0c0 3.276-1.057 4.914-3.172 4.914-2.132 0-3.198-1.638-3.198-4.914 0-1.361.208-2.466.624-3.315.529-1.066 1.387-1.599 2.574-1.599 1.17 0 2.024.533 2.561 1.599.199.425.351.91.455 1.456.104.546.156 1.166.156 1.859zm6.948 0c0-2.721-.746-4.082-2.236-4.082-1.491 0-2.236 1.361-2.236 4.082 0 2.73.745 4.095 2.236 4.095 1.49 0 2.236-1.365 2.236-4.095zm.936 0c0 3.276-1.058 4.914-3.172 4.914-2.132 0-3.198-1.638-3.198-4.914 0-1.361.208-2.466.624-3.315.528-1.066 1.386-1.599 2.574-1.599 1.17 0 2.023.533 2.561 1.599.199.425.351.91.455 1.456.104.546.156 1.166.156 1.859z" fill="#191D2B"/><path opacity=".5" d="M586.428 150.396c0 .112-.056.168-.168.168h-.492c-.112 0-.168-.056-.168-.168v-7.8a119.25 119.25 0 00-1.38 1.176c-.088.072-.168.064-.24-.024l-.24-.288a.232.232 0 01-.036-.12c0-.048.02-.088.06-.12l1.86-1.56c.032-.032.08-.048.144-.048h.324c.168 0 .264.016.288.048.032.024.048.12.048.288v8.448zm8.597-4.32c0-2.512-.688-3.768-2.064-3.768-1.376 0-2.064 1.256-2.064 3.768 0 2.52.688 3.78 2.064 3.78 1.376 0 2.064-1.26 2.064-3.78zm.864 0c0 3.024-.976 4.536-2.928 4.536-1.968 0-2.952-1.512-2.952-4.536 0-1.256.192-2.276.576-3.06.488-.984 1.28-1.476 2.376-1.476 1.08 0 1.868.492 2.364 1.476.184.392.324.84.42 1.344.096.504.144 1.076.144 1.716zm1.878-2.688c0-.184.068-.344.204-.48a.657.657 0 01.48-.204c.184 0 .344.068.48.204a.657.657 0 01.204.48.657.657 0 01-.204.48.657.657 0 01-.48.204.657.657 0 01-.48-.204.657.657 0 01-.204-.48zm0 5.412c0-.184.068-.344.204-.48a.657.657 0 01.48-.204c.184 0 .344.068.48.204a.657.657 0 01.204.48.657.657 0 01-.204.48.657.657 0 01-.48.204.657.657 0 01-.48-.204.657.657 0 01-.204-.48zm8.169-2.724c0-2.512-.688-3.768-2.064-3.768-1.376 0-2.064 1.256-2.064 3.768 0 2.52.688 3.78 2.064 3.78 1.376 0 2.064-1.26 2.064-3.78zm.863 0c0 3.024-.975 4.536-2.927 4.536-1.968 0-2.952-1.512-2.952-4.536 0-1.256.192-2.276.576-3.06.488-.984 1.28-1.476 2.376-1.476 1.08 0 1.868.492 2.364 1.476.184.392.324.84.42 1.344.096.504.143 1.076.143 1.716zm6.414 0c0-2.512-.688-3.768-2.064-3.768-1.376 0-2.064 1.256-2.064 3.768 0 2.52.688 3.78 2.064 3.78 1.376 0 2.064-1.26 2.064-3.78zm.864 0c0 3.024-.976 4.536-2.928 4.536-1.968 0-2.952-1.512-2.952-4.536 0-1.256.192-2.276.576-3.06.488-.984 1.28-1.476 2.376-1.476 1.08 0 1.868.492 2.364 1.476.184.392.324.84.42 1.344.096.504.144 1.076.144 1.716zm7.676-.612c.088 0 .136.008.144.024.016.008.024.056.024.144v.528c0 .088-.008.14-.024.156-.008.008-.056.012-.144.012h-2.808a.537.537 0 01-.156-.012.537.537 0 01-.012-.156v-.528c0-.088.004-.136.012-.144.016-.016.068-.024.156-.024h2.808zm8.503 4.932c0 .112-.056.168-.168.168h-.492c-.112 0-.168-.056-.168-.168v-7.8a119.25 119.25 0 00-1.38 1.176c-.088.072-.168.064-.24-.024l-.24-.288a.232.232 0 01-.036-.12c0-.048.02-.088.06-.12l1.86-1.56c.032-.032.08-.048.144-.048h.324c.168 0 .264.016.288.048.032.024.048.12.048.288v8.448zm7.277 0c0 .112-.056.168-.168.168h-.492c-.112 0-.168-.056-.168-.168v-7.8a119.25 119.25 0 00-1.38 1.176c-.088.072-.168.064-.24-.024l-.24-.288a.232.232 0 01-.036-.12c0-.048.02-.088.06-.12l1.86-1.56c.032-.032.08-.048.144-.048h.324c.168 0 .264.016.288.048.032.024.048.12.048.288v8.448zm4.062-7.008c0-.184.068-.344.204-.48a.657.657 0 01.48-.204c.184 0 .344.068.48.204a.657.657 0 01.204.48.657.657 0 01-.204.48.657.657 0 01-.48.204.657.657 0 01-.48-.204.657.657 0 01-.204-.48zm0 5.412c0-.184.068-.344.204-.48a.657.657 0 01.48-.204c.184 0 .344.068.48.204a.657.657 0 01.204.48.657.657 0 01-.204.48.657.657 0 01-.48.204.657.657 0 01-.48-.204.657.657 0 01-.204-.48zm3.345 1.56c-.12-.032-.172-.124-.156-.276l.048-.468c.016-.096.08-.12.192-.072.336.136.652.232.948.288.304.056.656.088 1.056.096.632.008 1.164-.152 1.596-.48.504-.336.756-.828.756-1.476 0-1.136-.852-1.704-2.556-1.704h-.624c-.104 0-.156-.044-.156-.132v-.444c0-.104.052-.156.156-.156h.06c.856 0 1.524-.092 2.004-.276.728-.28 1.092-.784 1.092-1.512 0-.232-.064-.444-.192-.636-.12-.2-.284-.368-.492-.504a2.618 2.618 0 00-.648-.264 2.922 2.922 0 00-.756-.096c-.272 0-.572.036-.9.108a6.195 6.195 0 00-.948.288c-.104.04-.164.008-.18-.096l-.048-.444c-.024-.112.028-.192.156-.24a7.27 7.27 0 011.008-.264c.312-.056.644-.084.996-.084.808 0 1.468.172 1.98.516.584.392.876.964.876 1.716 0 .536-.192 1-.576 1.392-.32.344-.736.596-1.248.756.256.032.492.1.708.204.224.104.416.248.576.432.184.2.324.428.42.684.096.248.144.524.144.828a2.36 2.36 0 01-.948 1.92 3.472 3.472 0 01-1.02.504 3.836 3.836 0 01-1.284.18 10.353 10.353 0 01-1.104-.072 5.242 5.242 0 01-.936-.216zm12.101-4.284c0-2.512-.688-3.768-2.064-3.768-1.376 0-2.064 1.256-2.064 3.768 0 2.52.688 3.78 2.064 3.78 1.376 0 2.064-1.26 2.064-3.78zm.864 0c0 3.024-.976 4.536-2.928 4.536-1.968 0-2.952-1.512-2.952-4.536 0-1.256.192-2.276.576-3.06.488-.984 1.28-1.476 2.376-1.476 1.08 0 1.868.492 2.364 1.476.184.392.324.84.42 1.344.096.504.144 1.076.144 1.716z" fill="#191D2B"/><path d="M81 327h476a4 4 0 014 4v89a4 4 0 01-4 4H81v-97z" fill="#F0F1F7"/><path fill="#B4B8CC" d="M81 327h2v97h-2z"/><path d="M96.042 373.336c0-.364.07-.607.208-.728.139-.13.399-.195.78-.195h5.447c.208 0 .373.013.494.039a.57.57 0 01.299.143c.078.069.13.165.156.286.026.121.039.273.039.455v2.457c0 .364-.069.607-.208.728-.139.13-.399.195-.78.195H97.03c-.208 0-.377-.013-.507-.039a.585.585 0 01-.299-.156.56.56 0 01-.143-.286 2.033 2.033 0 01-.039-.442v-2.457zm1.209-.143c-.121 0-.204.026-.247.078-.043.043-.065.13-.065.26v2.067c0 .13.022.217.065.26.043.052.126.078.247.078h5.005c.121 0 .204-.026.247-.078.043-.043.065-.13.065-.26v-2.067c0-.13-.022-.217-.065-.26-.043-.052-.126-.078-.247-.078h-5.005zm2.47-6.734a4.765 4.765 0 01-.52 1.053 7.46 7.46 0 01-.78 1.027c.295.312.659.611 1.092.897.433.277.906.524 1.417.741.069.026.108.065.117.117a.177.177 0 01-.026.13l-.26.468a.162.162 0 01-.117.078.387.387 0 01-.143-.026 10.647 10.647 0 01-.624-.312 10.12 10.12 0 01-.676-.416 11.86 11.86 0 01-.702-.507 8.144 8.144 0 01-.637-.572c-.494.485-1.04.927-1.638 1.326a11.55 11.55 0 01-1.794 1.001.803.803 0 01-.13.039c-.043.009-.078-.009-.104-.052l-.26-.455a.14.14 0 01-.013-.13.201.201 0 01.104-.104c1.118-.537 2.071-1.153 2.86-1.846a7.6 7.6 0 001.846-2.405c.06-.121.07-.208.026-.26-.043-.052-.126-.078-.247-.078h-3.809c-.104 0-.156-.056-.156-.169v-.455c0-.104.052-.156.156-.156h4.16c.45 0 .741.082.871.247.13.156.126.429-.013.819zm2.847 1.391v-2.834c0-.121.061-.182.182-.182h.533c.121 0 .182.061.182.182v6.474c0 .121-.061.182-.182.182h-.533c-.121 0-.182-.061-.182-.182v-2.86h-2.405c-.113 0-.169-.052-.169-.156v-.468c0-.104.056-.156.169-.156h2.405zm5.7 5.486c0-.364.069-.607.208-.728.138-.13.398-.195.78-.195h5.447c.208 0 .372.013.494.039.13.026.229.074.299.143.078.069.13.165.156.286.026.121.039.273.039.455v2.457c0 .364-.07.607-.208.728-.139.13-.399.195-.78.195h-5.447c-.208 0-.377-.013-.507-.039a.582.582 0 01-.299-.156.554.554 0 01-.143-.286 2.033 2.033 0 01-.039-.442v-2.457zm1.209-.143c-.122 0-.204.026-.247.078-.044.043-.065.13-.065.26v2.067c0 .13.021.217.065.26.043.052.125.078.247.078h5.005c.121 0 .203-.026.247-.078.043-.043.065-.13.065-.26v-2.067c0-.13-.022-.217-.065-.26-.044-.052-.126-.078-.247-.078h-5.005zm.507-7.891a7.62 7.62 0 01-.195 1.768c.104.364.247.711.429 1.04.19.329.411.637.663.923.251.286.524.546.819.78.303.225.619.416.949.572.052.026.073.065.065.117a.264.264 0 01-.026.117l-.273.429a.233.233 0 01-.091.091c-.035.017-.091.004-.169-.039a7.65 7.65 0 01-.689-.416 8.128 8.128 0 01-1.508-1.43 5.227 5.227 0 01-.585-.91 6.553 6.553 0 01-1.157 1.794 8.707 8.707 0 01-1.703 1.443.416.416 0 01-.143.052.13.13 0 01-.13-.052l-.325-.429a.203.203 0 01-.013-.13.203.203 0 01.091-.117c1.031-.633 1.807-1.43 2.327-2.392s.771-2.037.754-3.224c0-.139.052-.208.156-.208l.611.039c.095 0 .143.061.143.182zm5.707 6.188c0 .121-.061.182-.182.182h-.533c-.122 0-.182-.061-.182-.182v-6.474c0-.121.06-.182.182-.182h.533c.121 0 .182.061.182.182v6.474zm6.648-5.811c0 .572-.026 1.122-.078 1.651-.043.52-.117 1.023-.221 1.508.087.347.221.715.403 1.105.182.381.395.763.637 1.144.252.381.529.754.832 1.118.312.355.642.676.988.962a.159.159 0 01.065.13.162.162 0 01-.026.13l-.325.403c-.078.095-.169.095-.273 0a8.649 8.649 0 01-.754-.741 20.744 20.744 0 01-.741-.923c-.234-.321-.455-.65-.663-.988a10.24 10.24 0 01-.533-.975 9.494 9.494 0 01-1.092 2.184c-.45.659-.988 1.274-1.612 1.846-.086.069-.16.074-.221.013l-.39-.403a.141.141 0 01-.039-.104.266.266 0 01.078-.13c.529-.503.988-1.031 1.378-1.586a8.06 8.06 0 00.949-1.794 9.535 9.535 0 00.546-2.093c.122-.754.182-1.582.182-2.483 0-.061.013-.104.039-.13a.161.161 0 01.117-.052l.611.026c.096 0 .143.061.143.182zm5.577 10.959c0 .121-.06.182-.182.182h-.533c-.121 0-.182-.061-.182-.182v-11.622c0-.121.061-.182.182-.182h.533c.122 0 .182.061.182.182v11.622zm8.443-10.166c-.217 1.265-.767 2.396-1.651 3.393-.876.988-2.08 1.803-3.614 2.444a.544.544 0 01-.169.026c-.052 0-.091-.035-.117-.104l-.195-.429c-.035-.069-.039-.126-.013-.169a.28.28 0 01.117-.091 9.824 9.824 0 001.742-.923 8.201 8.201 0 001.404-1.157 6.215 6.215 0 001.001-1.326c.26-.468.433-.949.52-1.443.052-.243-.052-.364-.312-.364h-4.004c-.104 0-.156-.056-.156-.169v-.455c0-.104.052-.156.156-.156h4.303c.416 0 .697.074.845.221.147.147.195.381.143.702zm3.328 6.89c0 .121-.061.182-.182.182h-.533c-.122 0-.182-.061-.182-.182v-8.346c0-.121.06-.182.182-.182h.533c.121 0 .182.061.182.182v3.757h1.794c.052 0 .095.017.13.052a.128.128 0 01.065.117v.442c0 .043-.022.082-.065.117a.176.176 0 01-.13.052h-1.794v3.809zm.585 3.068a.128.128 0 01-.065.117.254.254 0 01-.13.039h-6.617c-.408 0-.676-.078-.806-.234-.122-.147-.182-.399-.182-.754v-2.496c0-.121.06-.182.182-.182h.533c.121 0 .182.061.182.182v2.431c0 .121.017.195.052.221.043.035.125.052.247.052h6.409c.043 0 .086.013.13.039.043.035.065.074.065.117v.468z" fill="#191D2B"/><path opacity=".5" d="M97.428 346.396c0 .112-.056.168-.168.168h-.492c-.112 0-.168-.056-.168-.168v-7.8a119.25 119.25 0 00-1.38 1.176c-.088.072-.168.064-.24-.024l-.24-.288a.232.232 0 01-.036-.12c0-.048.02-.088.06-.12l1.86-1.56c.032-.032.08-.048.144-.048h.324c.168 0 .264.016.288.048.032.024.048.12.048.288v8.448zm3.929.168a1.32 1.32 0 01-.204-.012.13.13 0 01-.096-.036c-.016-.016-.028-.048-.036-.096v-.192l.012-.264a.34.34 0 01.096-.252l1.98-2.184c1.472-1.592 2.208-2.8 2.208-3.624 0-.48-.16-.88-.48-1.2a1.58 1.58 0 00-1.164-.468c-.648 0-1.324.18-2.028.54-.112.056-.176.032-.192-.072l-.072-.396c-.024-.136.016-.22.12-.252.408-.184.776-.32 1.104-.408a3.873 3.873 0 011.008-.132c.768 0 1.38.192 1.836.576.512.416.768 1.008.768 1.776 0 .296-.072.62-.216.972-.144.352-.344.72-.6 1.104-.16.224-.388.516-.684.876-.288.36-.62.744-.996 1.152-.28.304-.56.612-.84.924-.272.312-.548.62-.828.924h4.2c.112 0 .168.056.168.168v.408c0 .112-.056.168-.168.168h-4.896zm7.41-7.176c0-.184.068-.344.204-.48a.657.657 0 01.48-.204c.184 0 .344.068.48.204a.657.657 0 01.204.48.657.657 0 01-.204.48.657.657 0 01-.48.204.657.657 0 01-.48-.204.657.657 0 01-.204-.48zm0 5.412c0-.184.068-.344.204-.48a.657.657 0 01.48-.204c.184 0 .344.068.48.204a.657.657 0 01.204.48.657.657 0 01-.204.48.657.657 0 01-.48.204.657.657 0 01-.48-.204.657.657 0 01-.204-.48zm8.169-2.724c0-2.512-.688-3.768-2.064-3.768-1.376 0-2.064 1.256-2.064 3.768 0 2.52.688 3.78 2.064 3.78 1.376 0 2.064-1.26 2.064-3.78zm.863 0c0 3.024-.975 4.536-2.927 4.536-1.968 0-2.952-1.512-2.952-4.536 0-1.256.192-2.276.576-3.06.488-.984 1.28-1.476 2.376-1.476 1.08 0 1.868.492 2.364 1.476.184.392.324.84.42 1.344.096.504.143 1.076.143 1.716zm6.414 0c0-2.512-.688-3.768-2.064-3.768-1.376 0-2.064 1.256-2.064 3.768 0 2.52.688 3.78 2.064 3.78 1.376 0 2.064-1.26 2.064-3.78zm.864 0c0 3.024-.976 4.536-2.928 4.536-1.968 0-2.952-1.512-2.952-4.536 0-1.256.192-2.276.576-3.06.488-.984 1.28-1.476 2.376-1.476 1.08 0 1.868.492 2.364 1.476.184.392.324.84.42 1.344.096.504.144 1.076.144 1.716zm7.676-.612c.088 0 .136.008.144.024.016.008.024.056.024.144v.528c0 .088-.008.14-.024.156-.008.008-.056.012-.144.012h-2.808a.537.537 0 01-.156-.012.537.537 0 01-.012-.156v-.528c0-.088.004-.136.012-.144.016-.016.068-.024.156-.024h2.808zm8.503 4.932c0 .112-.056.168-.168.168h-.492c-.112 0-.168-.056-.168-.168v-7.8a119.25 119.25 0 00-1.38 1.176c-.088.072-.168.064-.24-.024l-.24-.288a.232.232 0 01-.036-.12c0-.048.02-.088.06-.12l1.86-1.56c.032-.032.08-.048.144-.048h.324c.168 0 .264.016.288.048.032.024.048.12.048.288v8.448zm3.773-.036c-.12-.032-.172-.124-.156-.276l.048-.468c.016-.096.08-.12.192-.072.336.136.652.232.948.288.304.056.656.088 1.056.096.632.008 1.164-.152 1.596-.48.504-.336.756-.828.756-1.476 0-1.136-.852-1.704-2.556-1.704h-.624c-.104 0-.156-.044-.156-.132v-.444c0-.104.052-.156.156-.156h.06c.856 0 1.524-.092 2.004-.276.728-.28 1.092-.784 1.092-1.512 0-.232-.064-.444-.192-.636-.12-.2-.284-.368-.492-.504a2.618 2.618 0 00-.648-.264 2.922 2.922 0 00-.756-.096c-.272 0-.572.036-.9.108a6.195 6.195 0 00-.948.288c-.104.04-.164.008-.18-.096l-.048-.444c-.024-.112.028-.192.156-.24a7.27 7.27 0 011.008-.264c.312-.056.644-.084.996-.084.808 0 1.468.172 1.98.516.584.392.876.964.876 1.716 0 .536-.192 1-.576 1.392-.32.344-.736.596-1.248.756.256.032.492.1.708.204.224.104.416.248.576.432.184.2.324.428.42.684.096.248.144.524.144.828a2.36 2.36 0 01-.948 1.92 3.472 3.472 0 01-1.02.504 3.836 3.836 0 01-1.284.18 10.353 10.353 0 01-1.104-.072 5.242 5.242 0 01-.936-.216zm7.566-6.972c0-.184.068-.344.204-.48a.657.657 0 01.48-.204c.184 0 .344.068.48.204a.657.657 0 01.204.48.657.657 0 01-.204.48.657.657 0 01-.48.204.657.657 0 01-.48-.204.657.657 0 01-.204-.48zm0 5.412c0-.184.068-.344.204-.48a.657.657 0 01.48-.204c.184 0 .344.068.48.204a.657.657 0 01.204.48.657.657 0 01-.204.48.657.657 0 01-.48.204.657.657 0 01-.48-.204.657.657 0 01-.204-.48zm8.169-2.724c0-2.512-.688-3.768-2.064-3.768-1.376 0-2.064 1.256-2.064 3.768 0 2.52.688 3.78 2.064 3.78 1.376 0 2.064-1.26 2.064-3.78zm.864 0c0 3.024-.976 4.536-2.928 4.536-1.968 0-2.952-1.512-2.952-4.536 0-1.256.192-2.276.576-3.06.488-.984 1.28-1.476 2.376-1.476 1.08 0 1.868.492 2.364 1.476.184.392.324.84.42 1.344.096.504.144 1.076.144 1.716zm6.413 0c0-2.512-.688-3.768-2.064-3.768-1.376 0-2.064 1.256-2.064 3.768 0 2.52.688 3.78 2.064 3.78 1.376 0 2.064-1.26 2.064-3.78zm.864 0c0 3.024-.976 4.536-2.928 4.536-1.968 0-2.952-1.512-2.952-4.536 0-1.256.192-2.276.576-3.06.488-.984 1.28-1.476 2.376-1.476 1.08 0 1.868.492 2.364 1.476.184.392.324.84.42 1.344.096.504.144 1.076.144 1.716z" fill="#191D2B"/><path d="M570 376h476a4 4 0 014 4v89a4 4 0 01-4 4H570v-97z" fill="#F0F1F7"/><path fill="#B4B8CC" d="M570 376h2v97h-2z"/><path d="M585.042 422.336c0-.364.069-.607.208-.728.139-.13.399-.195.78-.195h5.447c.208 0 .373.013.494.039a.57.57 0 01.299.143c.078.069.13.165.156.286.026.121.039.273.039.455v2.457c0 .364-.069.607-.208.728-.139.13-.399.195-.78.195h-5.447c-.208 0-.377-.013-.507-.039a.586.586 0 01-.299-.156.562.562 0 01-.143-.286 2.033 2.033 0 01-.039-.442v-2.457zm1.209-.143c-.121 0-.204.026-.247.078-.043.043-.065.13-.065.26v2.067c0 .13.022.217.065.26.043.052.126.078.247.078h5.005c.121 0 .204-.026.247-.078.043-.043.065-.13.065-.26v-2.067c0-.13-.022-.217-.065-.26-.043-.052-.126-.078-.247-.078h-5.005zm2.47-6.734a4.765 4.765 0 01-.52 1.053 7.507 7.507 0 01-.78 1.027c.295.312.659.611 1.092.897.433.277.906.524 1.417.741.069.026.108.065.117.117a.177.177 0 01-.026.13l-.26.468a.162.162 0 01-.117.078.387.387 0 01-.143-.026 10.647 10.647 0 01-.624-.312c-.217-.121-.442-.26-.676-.416a11.86 11.86 0 01-.702-.507 8.144 8.144 0 01-.637-.572c-.494.485-1.04.927-1.638 1.326-.589.399-1.187.732-1.794 1.001a.803.803 0 01-.13.039c-.043.009-.078-.009-.104-.052l-.26-.455a.14.14 0 01-.013-.13.202.202 0 01.104-.104c1.118-.537 2.071-1.153 2.86-1.846a7.597 7.597 0 001.846-2.405c.061-.121.069-.208.026-.26-.043-.052-.126-.078-.247-.078h-3.809c-.104 0-.156-.056-.156-.169v-.455c0-.104.052-.156.156-.156h4.16c.451 0 .741.082.871.247.13.156.126.429-.013.819zm2.847 1.391v-2.834c0-.121.061-.182.182-.182h.533c.121 0 .182.061.182.182v6.474c0 .121-.061.182-.182.182h-.533c-.121 0-.182-.061-.182-.182v-2.86h-2.405c-.113 0-.169-.052-.169-.156v-.468c0-.104.056-.156.169-.156h2.405zm5.7 5.486c0-.364.069-.607.208-.728.138-.13.398-.195.78-.195h5.447c.208 0 .372.013.494.039.13.026.229.074.299.143.078.069.13.165.156.286.026.121.039.273.039.455v2.457c0 .364-.07.607-.208.728-.139.13-.399.195-.78.195h-5.447c-.208 0-.377-.013-.507-.039a.582.582 0 01-.299-.156.554.554 0 01-.143-.286 2.033 2.033 0 01-.039-.442v-2.457zm1.209-.143c-.122 0-.204.026-.247.078-.044.043-.065.13-.065.26v2.067c0 .13.021.217.065.26.043.052.125.078.247.078h5.005c.121 0 .203-.026.247-.078.043-.043.065-.13.065-.26v-2.067c0-.13-.022-.217-.065-.26-.044-.052-.126-.078-.247-.078h-5.005zm.507-7.891a7.62 7.62 0 01-.195 1.768c.104.364.247.711.429 1.04.19.329.411.637.663.923.251.286.524.546.819.78.303.225.619.416.949.572.052.026.073.065.065.117a.264.264 0 01-.026.117l-.273.429a.233.233 0 01-.091.091c-.035.017-.091.004-.169-.039a7.65 7.65 0 01-.689-.416 8.128 8.128 0 01-1.508-1.43 5.227 5.227 0 01-.585-.91 6.553 6.553 0 01-1.157 1.794 8.707 8.707 0 01-1.703 1.443.416.416 0 01-.143.052.13.13 0 01-.13-.052l-.325-.429a.203.203 0 01-.013-.13.203.203 0 01.091-.117c1.031-.633 1.807-1.43 2.327-2.392s.771-2.037.754-3.224c0-.139.052-.208.156-.208l.611.039c.095 0 .143.061.143.182zm5.707 6.188c0 .121-.061.182-.182.182h-.533c-.122 0-.182-.061-.182-.182v-6.474c0-.121.06-.182.182-.182h.533c.121 0 .182.061.182.182v6.474zm6.648-5.811c0 .572-.026 1.122-.078 1.651-.043.52-.117 1.023-.221 1.508.087.347.221.715.403 1.105.182.381.395.763.637 1.144.252.381.529.754.832 1.118.312.355.642.676.988.962a.159.159 0 01.065.13.162.162 0 01-.026.13l-.325.403c-.078.095-.169.095-.273 0a8.649 8.649 0 01-.754-.741 20.744 20.744 0 01-.741-.923c-.234-.321-.455-.65-.663-.988a10.24 10.24 0 01-.533-.975 9.494 9.494 0 01-1.092 2.184c-.45.659-.988 1.274-1.612 1.846-.086.069-.16.074-.221.013l-.39-.403a.141.141 0 01-.039-.104.266.266 0 01.078-.13c.529-.503.988-1.031 1.378-1.586a8.06 8.06 0 00.949-1.794 9.535 9.535 0 00.546-2.093c.122-.754.182-1.582.182-2.483 0-.061.013-.104.039-.13a.161.161 0 01.117-.052l.611.026c.096 0 .143.061.143.182zm5.577 10.959c0 .121-.06.182-.182.182h-.533c-.121 0-.182-.061-.182-.182v-11.622c0-.121.061-.182.182-.182h.533c.122 0 .182.061.182.182v11.622zm8.443-10.166c-.217 1.265-.767 2.396-1.651 3.393-.876.988-2.08 1.803-3.614 2.444a.544.544 0 01-.169.026c-.052 0-.091-.035-.117-.104l-.195-.429c-.035-.069-.039-.126-.013-.169a.28.28 0 01.117-.091 9.824 9.824 0 001.742-.923 8.201 8.201 0 001.404-1.157 6.215 6.215 0 001.001-1.326c.26-.468.433-.949.52-1.443.052-.243-.052-.364-.312-.364h-4.004c-.104 0-.156-.056-.156-.169v-.455c0-.104.052-.156.156-.156h4.303c.416 0 .697.074.845.221.147.147.195.381.143.702zm3.328 6.89c0 .121-.061.182-.182.182h-.533c-.122 0-.182-.061-.182-.182v-8.346c0-.121.06-.182.182-.182h.533c.121 0 .182.061.182.182v3.757h1.794c.052 0 .095.017.13.052a.128.128 0 01.065.117v.442c0 .043-.022.082-.065.117a.176.176 0 01-.13.052h-1.794v3.809zm.585 3.068a.128.128 0 01-.065.117.254.254 0 01-.13.039h-6.617c-.408 0-.676-.078-.806-.234-.122-.147-.182-.399-.182-.754v-2.496c0-.121.06-.182.182-.182h.533c.121 0 .182.061.182.182v2.431c0 .121.017.195.052.221.043.035.125.052.247.052h6.409c.043 0 .086.013.13.039.043.035.065.074.065.117v.468z" fill="#191D2B"/><path opacity=".5" d="M586.428 395.396c0 .112-.056.168-.168.168h-.492c-.112 0-.168-.056-.168-.168v-7.8a119.25 119.25 0 00-1.38 1.176c-.088.072-.168.064-.24-.024l-.24-.288a.232.232 0 01-.036-.12c0-.048.02-.088.06-.12l1.86-1.56c.032-.032.08-.048.144-.048h.324c.168 0 .264.016.288.048.032.024.048.12.048.288v8.448zm3.929.168a1.32 1.32 0 01-.204-.012.13.13 0 01-.096-.036c-.016-.016-.028-.048-.036-.096v-.192l.012-.264a.34.34 0 01.096-.252l1.98-2.184c1.472-1.592 2.208-2.8 2.208-3.624 0-.48-.16-.88-.48-1.2a1.58 1.58 0 00-1.164-.468c-.648 0-1.324.18-2.028.54-.112.056-.176.032-.192-.072l-.072-.396c-.024-.136.016-.22.12-.252.408-.184.776-.32 1.104-.408a3.873 3.873 0 011.008-.132c.768 0 1.38.192 1.836.576.512.416.768 1.008.768 1.776 0 .296-.072.62-.216.972-.144.352-.344.72-.6 1.104-.16.224-.388.516-.684.876-.288.36-.62.744-.996 1.152-.28.304-.56.612-.84.924-.272.312-.548.62-.828.924h4.2c.112 0 .168.056.168.168v.408c0 .112-.056.168-.168.168h-4.896zm7.41-7.176c0-.184.068-.344.204-.48a.657.657 0 01.48-.204c.184 0 .344.068.48.204a.657.657 0 01.204.48.657.657 0 01-.204.48.657.657 0 01-.48.204.657.657 0 01-.48-.204.657.657 0 01-.204-.48zm0 5.412c0-.184.068-.344.204-.48a.657.657 0 01.48-.204c.184 0 .344.068.48.204a.657.657 0 01.204.48.657.657 0 01-.204.48.657.657 0 01-.48.204.657.657 0 01-.48-.204.657.657 0 01-.204-.48zm3.345 1.56c-.12-.032-.172-.124-.156-.276l.048-.468c.016-.096.08-.12.192-.072.336.136.652.232.948.288.304.056.656.088 1.056.096.632.008 1.164-.152 1.596-.48.504-.336.756-.828.756-1.476 0-1.136-.852-1.704-2.556-1.704h-.624c-.104 0-.156-.044-.156-.132v-.444c0-.104.052-.156.156-.156h.06c.856 0 1.524-.092 2.004-.276.728-.28 1.092-.784 1.092-1.512 0-.232-.064-.444-.192-.636-.12-.2-.284-.368-.492-.504a2.618 2.618 0 00-.648-.264 2.922 2.922 0 00-.756-.096c-.272 0-.572.036-.9.108a6.195 6.195 0 00-.948.288c-.104.04-.164.008-.18-.096l-.048-.444c-.024-.112.028-.192.156-.24a7.27 7.27 0 011.008-.264c.312-.056.644-.084.996-.084.808 0 1.468.172 1.98.516.584.392.876.964.876 1.716 0 .536-.192 1-.576 1.392-.32.344-.736.596-1.248.756.256.032.492.1.708.204.224.104.416.248.576.432.184.2.324.428.42.684.096.248.144.524.144.828a2.36 2.36 0 01-.948 1.92 3.472 3.472 0 01-1.02.504 3.836 3.836 0 01-1.284.18 10.353 10.353 0 01-1.104-.072 5.242 5.242 0 01-.936-.216zm12.101-4.284c0-2.512-.688-3.768-2.064-3.768-1.376 0-2.064 1.256-2.064 3.768 0 2.52.688 3.78 2.064 3.78 1.376 0 2.064-1.26 2.064-3.78zm.864 0c0 3.024-.976 4.536-2.928 4.536-1.968 0-2.952-1.512-2.952-4.536 0-1.256.192-2.276.576-3.06.488-.984 1.28-1.476 2.376-1.476 1.08 0 1.868.492 2.364 1.476.184.392.324.84.42 1.344.096.504.144 1.076.144 1.716zm7.676-.612c.088 0 .136.008.144.024.016.008.024.056.024.144v.528c0 .088-.008.14-.024.156-.008.008-.056.012-.144.012h-2.808a.537.537 0 01-.156-.012.537.537 0 01-.012-.156v-.528c0-.088.004-.136.012-.144.016-.016.068-.024.156-.024h2.808zm8.503 4.932c0 .112-.056.168-.168.168h-.492c-.112 0-.168-.056-.168-.168v-7.8a119.25 119.25 0 00-1.38 1.176c-.088.072-.168.064-.24-.024l-.24-.288a.232.232 0 01-.036-.12c0-.048.02-.088.06-.12l1.86-1.56c.032-.032.08-.048.144-.048h.324c.168 0 .264.016.288.048.032.024.048.12.048.288v8.448zm3.773-.036c-.12-.032-.172-.124-.156-.276l.048-.468c.016-.096.08-.12.192-.072.336.136.652.232.948.288.304.056.656.088 1.056.096.632.008 1.164-.152 1.596-.48.504-.336.756-.828.756-1.476 0-1.136-.852-1.704-2.556-1.704h-.624c-.104 0-.156-.044-.156-.132v-.444c0-.104.052-.156.156-.156h.06c.856 0 1.524-.092 2.004-.276.728-.28 1.092-.784 1.092-1.512 0-.232-.064-.444-.192-.636-.12-.2-.284-.368-.492-.504a2.618 2.618 0 00-.648-.264 2.922 2.922 0 00-.756-.096c-.272 0-.572.036-.9.108a6.195 6.195 0 00-.948.288c-.104.04-.164.008-.18-.096l-.048-.444c-.024-.112.028-.192.156-.24a7.27 7.27 0 011.008-.264c.312-.056.644-.084.996-.084.808 0 1.468.172 1.98.516.584.392.876.964.876 1.716 0 .536-.192 1-.576 1.392-.32.344-.736.596-1.248.756.256.032.492.1.708.204.224.104.416.248.576.432.184.2.324.428.42.684.096.248.144.524.144.828a2.36 2.36 0 01-.948 1.92 3.472 3.472 0 01-1.02.504 3.836 3.836 0 01-1.284.18 10.353 10.353 0 01-1.104-.072 5.242 5.242 0 01-.936-.216zm7.566-6.972c0-.184.068-.344.204-.48a.657.657 0 01.48-.204c.184 0 .344.068.48.204a.657.657 0 01.204.48.657.657 0 01-.204.48.657.657 0 01-.48.204.657.657 0 01-.48-.204.657.657 0 01-.204-.48zm0 5.412c0-.184.068-.344.204-.48a.657.657 0 01.48-.204c.184 0 .344.068.48.204a.657.657 0 01.204.48.657.657 0 01-.204.48.657.657 0 01-.48.204.657.657 0 01-.48-.204.657.657 0 01-.204-.48zm3.345 1.56c-.12-.032-.172-.124-.156-.276l.048-.468c.016-.096.08-.12.192-.072.336.136.652.232.948.288.304.056.656.088 1.056.096.632.008 1.164-.152 1.596-.48.504-.336.756-.828.756-1.476 0-1.136-.852-1.704-2.556-1.704h-.624c-.104 0-.156-.044-.156-.132v-.444c0-.104.052-.156.156-.156h.06c.856 0 1.524-.092 2.004-.276.728-.28 1.092-.784 1.092-1.512 0-.232-.064-.444-.192-.636-.12-.2-.284-.368-.492-.504a2.618 2.618 0 00-.648-.264 2.922 2.922 0 00-.756-.096c-.272 0-.572.036-.9.108a6.195 6.195 0 00-.948.288c-.104.04-.164.008-.18-.096l-.048-.444c-.024-.112.028-.192.156-.24a7.27 7.27 0 011.008-.264c.312-.056.644-.084.996-.084.808 0 1.468.172 1.98.516.584.392.876.964.876 1.716 0 .536-.192 1-.576 1.392-.32.344-.736.596-1.248.756.256.032.492.1.708.204.224.104.416.248.576.432.184.2.324.428.42.684.096.248.144.524.144.828a2.36 2.36 0 01-.948 1.92 3.472 3.472 0 01-1.02.504 3.836 3.836 0 01-1.284.18 10.353 10.353 0 01-1.104-.072 5.242 5.242 0 01-.936-.216zm12.101-4.284c0-2.512-.688-3.768-2.064-3.768-1.376 0-2.064 1.256-2.064 3.768 0 2.52.688 3.78 2.064 3.78 1.376 0 2.064-1.26 2.064-3.78zm.864 0c0 3.024-.976 4.536-2.928 4.536-1.968 0-2.952-1.512-2.952-4.536 0-1.256.192-2.276.576-3.06.488-.984 1.28-1.476 2.376-1.476 1.08 0 1.868.492 2.364 1.476.184.392.324.84.42 1.344.096.504.144 1.076.144 1.716z" fill="#191D2B"/></g></svg>